<svg width="65" height="49" viewBox="0 0 65 49" fill="none" xmlns="http://www.w3.org/2000/svg">
<path d="M47.0129 17.0146C44.8753 15.8372 42.2209 15.0987 39.042 14.8464L38.6444 14.8204C38.6108 14.8158 38.568 14.8158 38.5298 14.8158C38.3126 14.799 38.0909 14.7822 37.8677 14.7776H37.8508C37.5099 14.7608 37.1689 14.7562 36.8187 14.7516C36.7163 14.747 36.6093 14.747 36.5038 14.747H25.1277C24.7806 14.747 24.4962 14.4626 24.4962 14.1155V6.65841C24.4962 5.72416 24.1246 4.82662 23.4641 4.16607L19.9871 0.689032C19.4534 0.155397 18.7287 -0.0709021 18.0375 0.0193113C17.8158 0.11717 17.6583 0.338882 17.6583 0.595761V2.03C17.6583 2.37709 17.9427 2.66149 18.2898 2.66149H18.3235C18.9412 2.66149 19.5345 2.90767 19.9718 3.34345L21.6614 5.03304C22.8143 6.18593 22.8143 8.0743 21.6614 9.2272L19.9733 10.9153C19.5345 11.3541 18.9397 11.6003 18.3204 11.6003H18.2898C17.9427 11.6003 17.6583 11.8847 17.6583 12.2318V13.3373C17.6583 13.7088 17.9641 13.9963 18.3342 13.9993C18.5972 14.0009 18.8525 14.0483 19.0956 14.1354C19.4244 14.247 19.7179 14.4336 19.9702 14.6859L22.1078 16.8235C23.0161 17.7317 23.0161 19.2088 22.1078 20.1216L20.1063 22.1231C19.851 22.3785 19.4412 22.6399 19.0268 22.7974C18.7822 22.8907 18.5421 22.9458 18.3311 22.9427C17.9672 22.9381 17.6568 23.1965 17.6568 23.5604V23.8983C17.6568 24.2454 17.9412 24.5298 18.2883 24.5298H18.3189C18.588 24.5298 18.8571 24.5772 19.1033 24.6705C19.4274 24.7821 19.7256 24.9687 19.9733 25.2164L21.6583 26.9014C22.8112 28.0543 22.8112 29.9426 21.6583 31.0955L19.9733 32.7806C19.5329 33.2209 18.9366 33.4671 18.3143 33.4671H18.2868C17.9397 33.4671 17.6553 33.7515 17.6553 34.0986V36.2882C17.6553 36.6353 17.9397 36.9197 18.2868 36.9197H18.3173C18.9381 36.9197 19.5329 37.1658 19.9702 37.6047L21.6583 39.2927C22.8112 40.4456 22.8112 42.334 21.6583 43.4869L19.9687 45.1765C19.5314 45.6184 18.9473 45.8569 18.328 45.8584C17.9595 45.86 17.6568 46.1505 17.6568 46.5205V48.1933C17.6568 48.5404 17.9412 48.8248 18.2883 48.8248H23.8647C24.2118 48.8248 24.4962 48.5404 24.4962 48.1933V21.9595C24.4962 21.6522 24.7225 21.3923 25.013 21.3403C25.0512 21.3311 25.0895 21.328 25.1277 21.328H36.5038C36.8279 21.328 37.1444 21.3326 37.4472 21.3494C43.6092 21.6017 46.5144 24.409 46.7484 29.0252C46.7912 29.2775 46.8554 29.3616 47.0006 29.4992C47.1459 29.6445 47.3554 29.6919 47.5603 29.6919H49.3951C50.782 29.6919 51.9119 29.487 52.7483 29.0818C52.97 28.9794 53.1703 28.8601 53.3538 28.7271C53.5327 28.594 53.6351 28.3815 53.6183 28.1644C53.2636 23.0742 51.0709 19.2501 47.0129 17.0146Z" fill="url(#paint0_linear_28_120)"/>
<path d="M63.9622 16.7286C63.9622 16.724 63.9622 16.724 63.9622 16.724C63.95 16.6521 63.9316 16.5742 63.9148 16.5023C63.0616 12.2057 61.0769 9.15067 58.21 7.299C55.9791 5.85712 53.2085 5.14917 50.022 5.14917H43.0541C41.8676 5.14917 40.7453 5.24703 39.6872 5.44427C35.7453 6.16139 32.7025 8.2256 30.8294 11.6904C30.6031 12.1078 30.9105 12.617 31.3845 12.617H36.5052C37.23 12.617 37.9303 12.6384 38.6168 12.6812C38.7407 12.6904 38.8554 12.6598 38.9624 12.6002C39.2529 12.4289 39.5603 12.2852 39.889 12.1568C39.8936 12.1614 39.8936 12.1614 39.8936 12.1568C40.9517 11.7424 42.2101 11.5513 43.6826 11.5513H49.3966C52.4088 11.5513 54.551 12.3922 55.9042 14.2393C56.7406 15.383 57.2742 16.9182 57.5173 18.8815C57.6289 19.7439 57.684 20.6858 57.684 21.7194C57.684 25.1934 57.0785 27.6765 55.8017 29.3096C55.7375 29.3906 55.6733 29.467 55.6091 29.5435C55.0709 30.1628 54.4271 30.6444 53.6718 31.0068C52.5158 31.5618 51.0908 31.8264 49.3966 31.8264H43.6826C41.204 31.8264 39.3217 31.2805 37.9899 30.0894C37.7422 29.8677 37.5113 29.6291 37.3034 29.3646C37.3034 29.36 37.2988 29.36 37.2988 29.3554C36.6627 28.5573 36.1933 27.542 35.8829 26.305C35.7086 25.6184 35.5802 24.8677 35.5037 24.0389C35.4731 23.7362 35.2438 23.5007 34.9441 23.4717C34.9227 23.4625 34.9013 23.4625 34.8753 23.4625H29.4013C29.0389 23.4625 28.7438 23.7744 28.7744 24.1368C28.9028 25.7454 29.1582 27.2132 29.542 28.5404C31.1383 34.1383 34.9059 37.2881 40.2132 38.0817C41.1184 38.2178 42.0648 38.2866 43.0541 38.2866H50.022C50.1458 38.2866 50.2697 38.2866 50.3935 38.282C50.6244 38.2774 50.8538 38.2697 51.0801 38.256C51.4302 38.2437 51.7758 38.2132 52.1122 38.1749C52.6458 38.1199 53.1657 38.0389 53.6702 37.9364C54.4164 37.7866 55.1259 37.5817 55.8033 37.3263C61.184 35.3386 64.3965 30.1872 64.3965 21.7179C64.398 19.8998 64.2482 18.2393 63.9622 16.7286Z" fill="url(#paint1_linear_28_120)"/>
<path d="M64.398 21.7164C64.398 30.1857 61.1855 35.3355 55.8048 37.3248C55.1259 37.5802 54.418 37.7851 53.6718 37.9349C53.1688 38.0373 52.6474 38.1184 52.1137 38.1734C51.7773 38.2117 51.4318 38.2422 51.0816 38.2545C50.8553 38.2667 50.6244 38.2759 50.3951 38.2805C50.2712 38.285 50.1474 38.285 50.0235 38.285H43.0557C42.0664 38.285 41.1184 38.2162 40.2147 38.0802L46.8278 31.8248H49.3966C51.0908 31.8248 52.5159 31.5603 53.6718 31.0053C54.4272 30.6429 55.0709 30.1597 55.6091 29.542C57.6749 27.6811 60.4944 23.9396 63.9164 16.5023C63.9332 16.5742 63.95 16.6522 63.9638 16.724C63.9638 16.724 63.9638 16.724 63.9638 16.7286C64.2482 18.2393 64.398 19.8999 64.398 21.7164Z" fill="url(#paint2_linear_28_120)"/>
<path d="M18.1767 10.6125L14.8419 7.27764C14.7623 7.19813 14.7623 7.06663 14.8419 6.98712L18.1767 3.65228C18.2562 3.57277 18.3877 3.57277 18.4672 3.65228L21.8021 6.98712C21.8816 7.06663 21.8816 7.19813 21.8021 7.27764L18.4672 10.6125C18.3862 10.692 18.2562 10.692 18.1767 10.6125Z" fill="url(#paint3_linear_28_120)"/>
<path d="M18.1767 44.8707L14.8419 41.5358C14.7623 41.4563 14.7623 41.3248 14.8419 41.2453L18.1767 37.9105C18.2562 37.831 18.3877 37.831 18.4672 37.9105L21.8021 41.2453C21.8816 41.3248 21.8816 41.4563 21.8021 41.5358L18.4672 44.8707C18.3862 44.9517 18.2562 44.9517 18.1767 44.8707Z" fill="url(#paint4_linear_28_120)"/>
<path d="M18.1767 32.4794L14.8419 29.1446C14.7623 29.0651 14.7623 28.9336 14.8419 28.8541L18.1767 25.5192C18.2562 25.4397 18.3877 25.4397 18.4672 25.5192L21.8021 28.8541C21.8816 28.9336 21.8816 29.0651 21.8021 29.1446L18.4672 32.4794C18.3862 32.5605 18.2562 32.5605 18.1767 32.4794Z" fill="url(#paint5_linear_28_120)"/>
<path d="M6.51475 31.1399L4.51935 29.1445C4.43984 29.065 4.43984 28.9335 4.51935 28.854L6.51475 26.8586C6.59426 26.7791 6.72576 26.7791 6.80527 26.8586L8.80067 28.854C8.88018 28.9335 8.88018 29.065 8.80067 29.1445L6.80527 31.1399C6.72423 31.2194 6.59426 31.2194 6.51475 31.1399Z" fill="url(#paint6_linear_28_120)"/>
<path d="M6.51475 20.3831L4.51935 18.3877C4.43984 18.3082 4.43984 18.1767 4.51935 18.0971L6.51475 16.1017C6.59426 16.0222 6.72576 16.0222 6.80527 16.1017L8.80067 18.0971C8.88018 18.1767 8.88018 18.3082 8.80067 18.3877L6.80527 20.3831C6.72423 20.4641 6.59426 20.4641 6.51475 20.3831Z" fill="url(#paint7_linear_28_120)"/>
<path d="M18.1767 21.9504L14.8419 18.6155C14.7623 18.536 14.7623 18.4045 14.8419 18.325L18.1767 14.9902C18.2562 14.9107 18.3877 14.9107 18.4672 14.9902L21.8021 18.325C21.8816 18.4045 21.8816 18.536 21.8021 18.6155L18.4672 21.9504C18.3862 22.0314 18.2562 22.0314 18.1767 21.9504Z" fill="url(#paint8_linear_28_120)"/>
<path d="M11.6966 15.6186L9.10639 13.0284C9.02688 12.9488 9.02688 12.8174 9.10639 12.7378L11.6966 10.1476C11.7761 10.0681 11.9076 10.0681 11.9871 10.1476L14.5773 12.7378C14.6568 12.8174 14.6568 12.9488 14.5773 13.0284L11.9871 15.6186C11.9076 15.6981 11.7776 15.6981 11.6966 15.6186Z" fill="url(#paint9_linear_28_120)"/>
<path d="M11.6966 37.9901L9.10639 35.3999C9.02688 35.3204 9.02688 35.1889 9.10639 35.1094L11.6966 32.5192C11.7761 32.4397 11.9076 32.4397 11.9871 32.5192L14.5773 35.1094C14.6568 35.1889 14.6568 35.3204 14.5773 35.3999L11.9871 37.9901C11.9076 38.0696 11.7776 38.0696 11.6966 37.9901Z" fill="url(#paint10_linear_28_120)"/>
<path d="M11.6966 26.3006L9.10639 23.7104C9.02688 23.6309 9.02688 23.4994 9.10639 23.4198L11.6966 20.8297C11.7761 20.7501 11.9076 20.7501 11.9871 20.8297L14.5773 23.4198C14.6568 23.4994 14.6568 23.6309 14.5773 23.7104L11.9871 26.3006C11.9076 26.3801 11.7776 26.3801 11.6966 26.3006Z" fill="url(#paint11_linear_28_120)"/>
<path d="M2.16752 25.3586L0.4657 23.6567C0.415242 23.6063 0.415242 23.5252 0.4657 23.4748L2.16752 21.773C2.21798 21.7225 2.29902 21.7225 2.34948 21.773L4.0513 23.4748C4.10176 23.5252 4.10176 23.6063 4.0513 23.6567L2.34948 25.3586C2.30055 25.409 2.21798 25.409 2.16752 25.3586Z" fill="url(#paint12_linear_28_120)"/>
<path d="M53.6703 40.8448V48.1918C53.6703 48.5374 53.3844 48.8233 53.0389 48.8233H47.3982C47.1551 48.8233 46.938 48.6781 46.8386 48.4732C46.7912 48.3875 46.7667 48.2943 46.7667 48.1918V41.0497C46.7667 40.7041 47.0527 40.4182 47.3982 40.4182H50.022C51.0419 40.4182 52.019 40.3494 52.9624 40.2179C53.3385 40.1674 53.6703 40.4656 53.6703 40.8448Z" fill="url(#paint13_linear_28_120)"/>
<path d="M51.0801 38.2545C50.8538 38.2668 50.6229 38.2759 50.3936 38.2805C50.2697 38.2851 50.1459 38.2851 50.022 38.2851H43.0542C36.2484 38.2851 31.4105 35.094 29.5405 28.539C29.1567 27.2118 28.8998 25.7439 28.7729 24.1354C28.7424 23.773 29.0375 23.4611 29.3998 23.4611H34.8738C34.8998 23.4611 34.9212 23.4611 34.9426 23.4702C35.2408 23.5008 35.4717 23.7348 35.5022 24.0375C35.5787 24.8647 35.7071 25.617 35.8814 26.3035C36.1934 27.5405 36.6628 28.5558 37.2973 29.354C37.2973 29.3586 37.3019 29.3586 37.3019 29.3632C39.1719 32.435 43.0679 35.8952 51.0801 38.2545Z" fill="url(#paint14_linear_28_120)"/>
<path d="M58.21 7.29907C48.3492 7.83729 42.392 10.666 39.892 12.1553C39.892 12.1599 39.892 12.1599 39.8875 12.1553C39.5587 12.2837 39.2514 12.429 38.9608 12.5987C38.8538 12.6584 38.7391 12.6889 38.6153 12.6798C37.9287 12.6369 37.2285 12.6155 36.5037 12.6155H31.3829C30.9089 12.6155 30.6016 12.1079 30.8279 11.6889C32.701 8.22414 35.7437 6.1584 39.6856 5.44281C40.7437 5.24709 41.866 5.14771 43.0526 5.14771H50.0204C53.21 5.14923 55.9791 5.85718 58.21 7.29907Z" fill="url(#paint15_linear_28_120)"/>
<path d="M53.62 28.1644C53.6368 28.3815 53.5343 28.5955 53.3554 28.727C53.1719 28.8585 52.9716 28.9793 52.7499 29.0818C51.9135 29.487 50.7836 29.6919 49.3967 29.6919H47.5619C47.357 29.6919 47.1475 29.6445 47.0023 29.4992C46.857 29.3631 46.7928 29.2775 46.75 29.0252C46.516 24.409 43.6093 21.6002 37.4488 21.3494C37.1461 21.3326 36.8296 21.328 36.5054 21.328H25.1293C25.0911 21.328 25.0529 21.3326 25.0146 21.3402C26.0559 20.7042 36.4748 14.5987 47.0145 17.0131C51.0726 19.25 53.2652 23.0742 53.62 28.1644Z" fill="url(#paint16_linear_28_120)"/>
<defs>
<linearGradient id="paint0_linear_28_120" x1="0.0650744" y1="24.4123" x2="64.195" y2="24.4123" gradientUnits="userSpaceOnUse">
<stop stop-color="#A1CB29"/>
<stop offset="1" stop-color="#0F9D87"/>
</linearGradient>
<linearGradient id="paint1_linear_28_120" x1="0.0664807" y1="21.7169" x2="64.1964" y2="21.7169" gradientUnits="userSpaceOnUse">
<stop stop-color="#A1CB29"/>
<stop offset="1" stop-color="#0F9D87"/>
</linearGradient>
<linearGradient id="paint2_linear_28_120" x1="77.6093" y1="13.6804" x2="51.0246" y2="34.0217" gradientUnits="userSpaceOnUse">
<stop stop-color="white"/>
<stop offset="1" stop-color="white" stop-opacity="0"/>
</linearGradient>
<linearGradient id="paint3_linear_28_120" x1="-1.94113" y1="7.13131" x2="69.2418" y2="7.13131" gradientUnits="userSpaceOnUse">
<stop stop-color="#A1CB29"/>
<stop offset="1" stop-color="#0F9D87"/>
</linearGradient>
<linearGradient id="paint4_linear_28_120" x1="-1.94113" y1="41.3905" x2="69.2418" y2="41.3905" gradientUnits="userSpaceOnUse">
<stop stop-color="#A1CB29"/>
<stop offset="1" stop-color="#0F9D87"/>
</linearGradient>
<linearGradient id="paint5_linear_28_120" x1="-1.94113" y1="28.999" x2="69.2418" y2="28.999" gradientUnits="userSpaceOnUse">
<stop stop-color="#A1CB29"/>
<stop offset="1" stop-color="#0F9D87"/>
</linearGradient>
<linearGradient id="paint6_linear_28_120" x1="-1.18372" y1="28.9989" x2="75.1079" y2="28.9989" gradientUnits="userSpaceOnUse">
<stop stop-color="#A1CB29"/>
<stop offset="1" stop-color="#0F9D87"/>
</linearGradient>
<linearGradient id="paint7_linear_28_120" x1="-1.18372" y1="18.2427" x2="75.1079" y2="18.2427" gradientUnits="userSpaceOnUse">
<stop stop-color="#A1CB29"/>
<stop offset="1" stop-color="#0F9D87"/>
</linearGradient>
<linearGradient id="paint8_linear_28_120" x1="-1.94113" y1="18.4701" x2="69.2418" y2="18.4701" gradientUnits="userSpaceOnUse">
<stop stop-color="#A1CB29"/>
<stop offset="1" stop-color="#0F9D87"/>
</linearGradient>
<linearGradient id="paint9_linear_28_120" x1="-1.62358" y1="12.8831" x2="71.7105" y2="12.8831" gradientUnits="userSpaceOnUse">
<stop stop-color="#A1CB29"/>
<stop offset="1" stop-color="#0F9D87"/>
</linearGradient>
<linearGradient id="paint10_linear_28_120" x1="-1.62358" y1="35.2544" x2="71.7105" y2="35.2544" gradientUnits="userSpaceOnUse">
<stop stop-color="#A1CB29"/>
<stop offset="1" stop-color="#0F9D87"/>
</linearGradient>
<linearGradient id="paint11_linear_28_120" x1="-1.62358" y1="23.5653" x2="71.7105" y2="23.5653" gradientUnits="userSpaceOnUse">
<stop stop-color="#A1CB29"/>
<stop offset="1" stop-color="#0F9D87"/>
</linearGradient>
<linearGradient id="paint12_linear_28_120" x1="-0.23324" y1="23.5652" x2="72.6612" y2="23.5652" gradientUnits="userSpaceOnUse">
<stop stop-color="#A1CB29"/>
<stop offset="1" stop-color="#0F9D87"/>
</linearGradient>
<linearGradient id="paint13_linear_28_120" x1="0.0666724" y1="44.5183" x2="64.1965" y2="44.5183" gradientUnits="userSpaceOnUse">
<stop stop-color="#A1CB29"/>
<stop offset="1" stop-color="#0F9D87"/>
</linearGradient>
<linearGradient id="paint14_linear_28_120" x1="75.1161" y1="42.6108" x2="34.0335" y2="29.7589" gradientUnits="userSpaceOnUse">
<stop stop-color="white"/>
<stop offset="1" stop-color="white" stop-opacity="0"/>
</linearGradient>
<linearGradient id="paint15_linear_28_120" x1="19.5101" y1="20.3483" x2="55.8379" y2="2.73478" gradientUnits="userSpaceOnUse">
<stop stop-color="white"/>
<stop offset="1" stop-color="white" stop-opacity="0"/>
</linearGradient>
<linearGradient id="paint16_linear_28_120" x1="71.3781" y1="23.072" x2="29.9641" y2="23.072" gradientUnits="userSpaceOnUse">
<stop stop-color="white"/>
<stop offset="1" stop-color="white" stop-opacity="0"/>
</linearGradient>
</defs>
</svg>
