<svg width="36" height="37" viewBox="0 0 36 37" fill="none" xmlns="http://www.w3.org/2000/svg">
<path d="M8.54062 15.2464C8.54062 14.5784 8.00625 14.0229 7.33828 14.0229C7.33125 14.0229 7.33125 14.0229 7.32422 14.0229C3.69609 14.0229 0.75 16.969 0.75 20.5972C0.75 24.2253 3.69609 27.1714 7.32422 27.1714C7.33125 27.1714 7.33125 27.1714 7.33828 27.1714C8.00625 27.1714 8.54062 26.6159 8.54062 25.9479V15.2464Z" fill="white"/>
<path d="M28.1156 15.2464C28.1156 14.5784 28.65 14.0229 29.3179 14.0229C29.325 14.0229 29.325 14.0229 29.332 14.0229C32.9601 14.0229 35.9062 16.969 35.9062 20.5972C35.9062 24.2253 32.9601 27.1714 29.332 27.1714C29.325 27.1714 29.325 27.1714 29.3179 27.1714C28.65 27.1714 28.1156 26.6159 28.1156 25.9479V15.2464Z" fill="white"/>
<path d="M32.7211 19.3458C32.0461 19.3458 31.4977 18.7763 31.4977 18.0661C31.4977 10.4935 25.5985 5.31846 18.3422 5.31846C11.086 5.31846 5.18674 10.5005 5.18674 18.0661C5.18674 18.7692 4.63831 19.3458 3.96331 19.3458C3.28831 19.3458 2.73987 18.7763 2.73987 18.0661C2.73987 9.08721 9.74299 1.78174 18.3422 1.78174C26.9414 1.78174 33.9446 9.08721 33.9446 18.0661C33.9446 18.7763 33.3961 19.3458 32.7211 19.3458Z" fill="white"/>
<path d="M21.4571 33.0426C21.0492 33.0426 20.6203 33.0215 20.1774 32.9863L20.318 31.3551C28.2071 32.0441 29.9508 25.498 30.0211 25.2168L31.6102 25.6105C31.5891 25.6949 31.0828 27.7059 29.4164 29.6113C28.0172 31.2285 25.5281 33.0426 21.4571 33.0426Z" fill="white"/>
<path d="M20.0297 34.7862C21.4432 34.7862 22.5891 33.6404 22.5891 32.2269C22.5891 30.8134 21.4432 29.6675 20.0297 29.6675C18.6162 29.6675 17.4703 30.8134 17.4703 32.2269C17.4703 33.6404 18.6162 34.7862 20.0297 34.7862Z" fill="white"/>
</svg>
