<svg width="36" height="33" viewBox="0 0 36 33" fill="none" xmlns="http://www.w3.org/2000/svg">
<path d="M34.5234 10.6724L18.3727 21.8099C18.2602 21.8872 18.1266 21.9294 18 21.9294C17.8734 21.9294 17.7398 21.8872 17.6273 21.8099L1.47656 10.6724C0.836719 11.1786 0.421875 11.9591 0.421875 12.845V29.6989C0.421875 31.2247 1.65937 32.4622 3.18516 32.4622H32.8078C34.3336 32.4622 35.5711 31.2247 35.5711 29.6989V12.838C35.5781 11.9591 35.1633 11.1786 34.5234 10.6724ZM13.1555 21.5005L4.99219 29.6638C4.92891 29.727 4.84453 29.7622 4.76016 29.7622C4.67578 29.7622 4.59141 29.727 4.52813 29.6638C4.40156 29.5372 4.40156 29.3263 4.52813 29.1997L12.6914 21.0364C12.818 20.9099 13.0289 20.9099 13.1555 21.0364C13.2891 21.163 13.2891 21.3739 13.1555 21.5005ZM31.4719 29.6638C31.4086 29.727 31.3242 29.7622 31.2398 29.7622C31.1555 29.7622 31.0711 29.727 31.0078 29.6638L22.8445 21.5005C22.718 21.3739 22.718 21.163 22.8445 21.0364C22.9711 20.9099 23.182 20.9099 23.3086 21.0364L31.4719 29.1997C31.5984 29.3263 31.5984 29.5372 31.4719 29.6638Z" fill="white"/>
<path d="M25.5938 12.9927H10.4062V13.9771H25.5938V12.9927Z" fill="white"/>
<path d="M10.4062 15.2287L11.4117 15.9248H24.5883L25.5938 15.2287V14.9404H10.4062V15.2287Z" fill="white"/>
<path d="M25.5938 11.0449H10.4062V12.0293H25.5938V11.0449Z" fill="white"/>
<path d="M32.625 9.80049L19.0547 0.434863C18.4148 -0.00107423 17.5781 -0.00107423 16.9383 0.434863L3.37498 9.80049C3.17107 9.94111 3.17107 10.2364 3.37498 10.3771L7.87498 13.4849V8.01455H28.125V13.4849L32.625 10.3771C32.8289 10.2364 32.8289 9.94111 32.625 9.80049Z" fill="white"/>
<path d="M12.8038 16.8809L14.2312 17.8652H21.7687L23.196 16.8809H12.8038Z" fill="white"/>
<path d="M20.3766 18.8286H15.6305L16.9453 19.7356C16.9875 19.7638 17.0227 19.7849 17.0649 19.813H18.9422C18.9844 19.7919 19.0196 19.7638 19.0617 19.7356L20.3766 18.8286Z" fill="white"/>
</svg>
