<svg width="36" height="36" viewBox="0 0 36 36" fill="none" xmlns="http://www.w3.org/2000/svg">
<path d="M-0.117798 35.7046L8.73768 28.412V13.492L-0.117798 20.7848V35.7046ZM17.822 20.6378L9.14433 13.492V28.412L17.822 35.558V20.6378ZM20.6831 6.43685C20.6831 7.97661 19.4354 9.22451 17.8957 9.22451C16.3562 9.22451 15.1083 7.97635 15.1083 6.43685C15.1083 4.89736 16.3562 3.6492 17.8957 3.6492C19.4352 3.64945 20.6831 4.89761 20.6831 6.43685ZM22.8271 9.22451C23.3018 8.40409 23.5746 7.45286 23.5746 6.43685C23.5746 3.35811 21.0788 0.862305 18.0003 0.862305C14.9213 0.862305 12.4255 3.35811 12.4255 6.43685C12.4255 7.79093 12.9081 9.03147 13.711 9.99743L18.0051 16.1925L22.3612 9.90726C22.518 9.71117 22.6615 9.50467 22.7908 9.28801L22.835 9.22451H22.8271ZM18.2388 35.5077L26.7811 28.4734V13.5539L18.2388 20.5885V35.5077ZM36.1179 35.7046V20.7848L27.157 13.4061V28.3256L36.1179 35.7046Z" fill="white"/>
</svg>
