<svg width="24" height="25" viewBox="0 0 24 25" fill="none" xmlns="http://www.w3.org/2000/svg">
<path d="M12 0.283203C8.741 0.283203 8.33234 0.297017 7.05242 0.355416C5.77516 0.41372 4.90283 0.616546 4.1395 0.913211C3.35039 1.21988 2.68118 1.6302 2.01406 2.29731C1.34695 2.96443 0.936629 3.63364 0.629961 4.42275C0.333296 5.18604 0.13047 6.05836 0.0721656 7.33562C0.0137662 8.61555 0 9.0242 0 12.2832C0 15.5422 0.0137662 15.9509 0.0721656 17.2308C0.13047 18.508 0.333296 19.3804 0.629961 20.1437C0.936629 20.9328 1.34695 21.602 2.01406 22.2691C2.68118 22.9363 3.35039 23.3466 4.1395 23.6532C4.90283 23.9499 5.77516 24.1527 7.05242 24.211C8.33234 24.2694 8.741 24.2832 12 24.2832C15.259 24.2832 15.6677 24.2694 16.9476 24.211C18.2248 24.1527 19.0972 23.9499 19.8605 23.6532C20.6496 23.3466 21.3188 22.9363 21.9859 22.2691C22.6531 21.602 23.0634 20.9328 23.37 20.1437C23.6667 19.3804 23.8695 18.508 23.9278 17.2308C23.9862 15.9509 24 15.5422 24 12.2832C24 9.0242 23.9862 8.61555 23.9278 7.33562C23.8695 6.05836 23.6667 5.18604 23.37 4.42275C23.0634 3.63364 22.6531 2.96443 21.9859 2.29731C21.3188 1.6302 20.6496 1.21988 19.8605 0.913211C19.0972 0.616546 18.2248 0.41372 16.9476 0.355416C15.6677 0.297017 15.259 0.283203 12 0.283203ZM12 2.44541C15.2041 2.44541 15.5837 2.4576 16.849 2.51534C18.019 2.56873 18.6544 2.76422 19.0773 2.92851C19.6374 3.1462 20.0371 3.40628 20.457 3.82618C20.877 4.24607 21.137 4.64587 21.3547 5.20595C21.519 5.62879 21.7145 6.26419 21.7679 7.43417C21.8256 8.69952 21.8378 9.07907 21.8378 12.2832C21.8378 15.4873 21.8256 15.8669 21.7679 17.1322C21.7145 18.3022 21.519 18.9376 21.3547 19.3605C21.137 19.9206 20.877 20.3203 20.457 20.7402C20.0371 21.1602 19.6374 21.4202 19.0773 21.6379C18.6544 21.8022 18.019 21.9977 16.849 22.0511C15.5839 22.1088 15.2044 22.121 12 22.121C8.79563 22.121 8.41618 22.1088 7.15097 22.0511C5.98098 21.9977 5.34559 21.8022 4.92274 21.6379C4.36261 21.4202 3.96287 21.1602 3.54293 20.7402C3.12303 20.3203 2.86295 19.9206 2.64531 19.3605C2.48097 18.9376 2.28548 18.3022 2.23209 17.1322C2.17435 15.8669 2.16216 15.4873 2.16216 12.2832C2.16216 9.07907 2.17435 8.69952 2.23209 7.43417C2.28548 6.26419 2.48097 5.62879 2.64531 5.20595C2.86295 4.64587 3.12303 4.24607 3.54293 3.82618C3.96287 3.40628 4.36261 3.1462 4.92274 2.92851C5.34559 2.76422 5.98098 2.56873 7.15097 2.51534C8.41632 2.4576 8.79587 2.44541 12 2.44541Z" fill="white"/>
<path d="M12.0001 16.2828C9.7909 16.2828 8.00005 14.4919 8.00005 12.2828C8.00005 10.0736 9.7909 8.28276 12.0001 8.28276C14.2092 8.28276 16 10.0736 16 12.2828C16 14.4919 14.2092 16.2828 12.0001 16.2828ZM12.0001 6.12061C8.59676 6.12061 5.83789 8.87948 5.83789 12.2828C5.83789 15.6861 8.59676 18.4449 12.0001 18.4449C15.4033 18.4449 18.1622 15.6861 18.1622 12.2828C18.1622 8.87948 15.4033 6.12061 12.0001 6.12061Z" fill="white"/>
<path d="M19.8456 5.87748C19.8456 6.67278 19.2009 7.31746 18.4056 7.31746C17.6103 7.31746 16.9656 6.67278 16.9656 5.87748C16.9656 5.08218 17.6103 4.4375 18.4056 4.4375C19.2009 4.4375 19.8456 5.08218 19.8456 5.87748Z" fill="white"/>
</svg>
