<svg width="48" height="48" viewBox="0 0 48 48" fill="none" xmlns="http://www.w3.org/2000/svg">
<path d="M11.3875 19.9532C11.3875 19.0625 10.675 18.3219 9.78437 18.3219C9.775 18.3219 9.775 18.3219 9.76562 18.3219C4.92812 18.3219 1 22.25 1 27.0875C1 31.925 4.92812 35.8531 9.76562 35.8531C9.775 35.8531 9.775 35.8531 9.78437 35.8531C10.675 35.8531 11.3875 35.1125 11.3875 34.2219V19.9532Z" fill="#49AF62"/>
<path d="M37.4875 19.9532C37.4875 19.0625 38.2 18.3219 39.0907 18.3219C39.1 18.3219 39.1 18.3219 39.1094 18.3219C43.9469 18.3219 47.875 22.25 47.875 27.0875C47.875 31.925 43.9469 35.8531 39.1094 35.8531C39.1 35.8531 39.1 35.8531 39.0907 35.8531C38.2 35.8531 37.4875 35.1125 37.4875 34.2219V19.9532Z" fill="#49AF62"/>
<path d="M43.6281 25.4188C42.7281 25.4188 41.9968 24.6594 41.9968 23.7125C41.9968 13.6156 34.1312 6.71562 24.4562 6.71562C14.7812 6.71562 6.91558 13.625 6.91558 23.7125C6.91558 24.65 6.18433 25.4188 5.28433 25.4188C4.38433 25.4188 3.65308 24.6594 3.65308 23.7125C3.65308 11.7406 12.9906 2 24.4562 2C35.9218 2 45.2593 11.7406 45.2593 23.7125C45.2593 24.6594 44.5281 25.4188 43.6281 25.4188Z" fill="#49AF62"/>
<path d="M28.6093 43.6812C28.0656 43.6812 27.4937 43.6531 26.9031 43.6062L27.0906 41.4312C37.6093 42.3499 39.9343 33.6218 40.0281 33.2468L42.1468 33.7718C42.1187 33.8843 41.4437 36.5656 39.2218 39.1062C37.3562 41.2625 34.0375 43.6812 28.6093 43.6812Z" fill="#49AF62"/>
<path d="M26.7062 46.0063C28.5909 46.0063 30.1187 44.4784 30.1187 42.5938C30.1187 40.7091 28.5909 39.1813 26.7062 39.1813C24.8215 39.1813 23.2937 40.7091 23.2937 42.5938C23.2937 44.4784 24.8215 46.0063 26.7062 46.0063Z" fill="#49AF62"/>
</svg>
