<svg width="48" height="48" viewBox="0 0 48 48" fill="none" xmlns="http://www.w3.org/2000/svg">
<path d="M46.0312 16.5205L24.4969 31.3705C24.3469 31.4736 24.1688 31.5299 24 31.5299C23.8312 31.5299 23.6531 31.4736 23.5031 31.3705L1.96875 16.5205C1.11562 17.1955 0.5625 18.2361 0.5625 19.4174V41.8893C0.5625 43.9236 2.2125 45.5736 4.24687 45.5736H43.7438C45.7781 45.5736 47.4281 43.9236 47.4281 41.8893V19.408C47.4375 18.2361 46.8844 17.1955 46.0312 16.5205ZM17.5406 30.958L6.65625 41.8424C6.57188 41.9268 6.45937 41.9736 6.34687 41.9736C6.23437 41.9736 6.12188 41.9268 6.0375 41.8424C5.86875 41.6736 5.86875 41.3924 6.0375 41.2236L16.9219 30.3393C17.0906 30.1705 17.3719 30.1705 17.5406 30.3393C17.7188 30.508 17.7188 30.7893 17.5406 30.958ZM41.9625 41.8424C41.8781 41.9268 41.7656 41.9736 41.6531 41.9736C41.5406 41.9736 41.4281 41.9268 41.3438 41.8424L30.4594 30.958C30.2906 30.7893 30.2906 30.508 30.4594 30.3393C30.6281 30.1705 30.9094 30.1705 31.0781 30.3393L41.9625 41.2236C42.1313 41.3924 42.1313 41.6736 41.9625 41.8424Z" fill="#49AF62"/>
<path d="M34.125 19.6143H13.875V20.9268H34.125V19.6143Z" fill="#49AF62"/>
<path d="M13.875 22.5956L15.2156 23.5237H32.7844L34.125 22.5956V22.2112H13.875V22.5956Z" fill="#49AF62"/>
<path d="M34.125 17.0173H13.875V18.3298H34.125V17.0173Z" fill="#49AF62"/>
<path d="M43.5 15.358L25.4063 2.87051C24.5532 2.28926 23.4375 2.28926 22.5844 2.87051L4.50005 15.358C4.22817 15.5455 4.22817 15.9393 4.50005 16.1268L10.5 20.2705V12.9768H37.5V20.2705L43.5 16.1268C43.7719 15.9393 43.7719 15.5455 43.5 15.358Z" fill="#49AF62"/>
<path d="M17.072 24.7986L18.9751 26.1111H29.0251L30.9283 24.7986H17.072Z" fill="#49AF62"/>
<path d="M27.1687 27.3955H20.8406L22.5937 28.6049C22.65 28.6424 22.6968 28.6705 22.7531 28.708H25.2562C25.3125 28.6799 25.3593 28.6424 25.4156 28.6049L27.1687 27.3955Z" fill="#49AF62"/>
</svg>
