<svg width="48" height="48" viewBox="0 0 48 48" fill="none" xmlns="http://www.w3.org/2000/svg">
<path d="M28.529 33.8236C28.5382 33.2921 28.4549 32.7628 28.2824 32.2568H25.0234C24.8053 32.2568 24.5962 32.175 24.442 32.0295C24.2878 31.8839 24.2012 31.6866 24.2012 31.4807V28.4728C23.788 28.3424 23.385 28.185 22.9951 28.0017L20.7424 30.1281C20.6299 30.2336 20.4874 30.3062 20.3322 30.337C20.177 30.3679 20.0157 30.3557 19.8676 30.3019L19.2683 36.137L11.1725 37.6891L2.7964 29.7804L2.67801 29.8697C1.87142 32.1587 1.7825 34.6189 2.42194 36.9545C3.06137 39.2901 4.40194 41.4017 6.28246 43.0352C8.16297 44.6688 10.5034 45.7549 13.0222 46.1628C15.541 46.5707 18.1311 46.2832 20.481 45.3348L22.2469 47.0017H39L28.1476 36.7579C28.397 35.7974 28.525 34.8125 28.529 33.8236Z" fill="#49AF62"/>
<path d="M11.2644 34.0017C11.0309 34.0017 10.8069 33.9121 10.6418 33.7527L8 31.2033L9.24519 30.0017L11.5348 32.2112L14.5738 31.4778L15 33.1264L11.4775 33.9762C11.4079 33.9931 11.3363 34.0016 11.2644 34.0017Z" fill="#49AF62"/>
<path d="M7.33135 27.2667L6.16968 28.4283L7.81229 30.071L8.97396 28.9093L7.33135 27.2667Z" fill="#49AF62"/>
<path d="M27 22.0017C29.7614 22.0017 32 20.2108 32 18.0017C32 15.7926 29.7614 14.0017 27 14.0017C24.2386 14.0017 22 15.7926 22 18.0017C22 20.2108 24.2386 22.0017 27 22.0017Z" fill="#49AF62"/>
<path d="M21.5141 25.3804C21.6477 25.2467 21.822 25.1613 22.0096 25.1375C22.1971 25.1138 22.3872 25.1531 22.55 25.2492C23.185 25.6236 23.8695 25.907 24.5833 26.0909C24.7662 26.1381 24.9281 26.2447 25.0438 26.3939C25.1594 26.5432 25.2222 26.7266 25.2222 26.9154V30.0017H27.7778V26.9154C27.7778 26.7266 27.8406 26.5432 27.9562 26.3939C28.0719 26.2447 28.2338 26.1381 28.4167 26.0909C29.1305 25.907 29.815 25.6236 30.45 25.2492C30.6128 25.1531 30.8029 25.1138 30.9904 25.1375C31.1779 25.1613 31.3523 25.2467 31.4859 25.3804L33.6675 27.562L35.5611 25.6692L33.3787 23.4876C33.245 23.354 33.1596 23.1797 33.1358 22.9921C33.1121 22.8046 33.1514 22.6145 33.2475 22.4517C33.6221 21.8172 33.9051 21.1329 34.0883 20.4192C34.1354 20.2361 34.242 20.0739 34.3915 19.958C34.5409 19.8422 34.7247 19.7794 34.9137 19.7795H38V17.2239H34.9137C34.7247 17.224 34.5409 17.1612 34.3915 17.0454C34.242 16.9296 34.1354 16.7673 34.0883 16.5842C33.9051 15.8705 33.6221 15.1862 33.2475 14.5517C33.1514 14.3889 33.1121 14.1988 33.1358 14.0113C33.1596 13.8238 33.245 13.6495 33.3787 13.5158L35.5611 11.3342L33.6675 9.44141L31.4859 11.623C31.3523 11.7567 31.1779 11.8422 30.9904 11.8659C30.8029 11.8897 30.6128 11.8504 30.45 11.7542C29.815 11.3798 29.1305 11.0965 28.4167 10.9126C28.2338 10.8654 28.0719 10.7588 27.9562 10.6095C27.8406 10.4602 27.7778 10.2768 27.7778 10.088V7.00171H25.2222V10.088C25.2222 10.2768 25.1594 10.4602 25.0438 10.6095C24.9281 10.7588 24.7662 10.8654 24.5833 10.9126C23.8695 11.0965 23.185 11.3798 22.55 11.7542C22.3872 11.8504 22.1971 11.8897 22.0096 11.8659C21.822 11.8422 21.6477 11.7567 21.5141 11.623L19.3325 9.44141L17.4389 11.3342L19.6213 13.5158C19.755 13.6495 19.8404 13.8238 19.8642 14.0113C19.8879 14.1988 19.8486 14.3889 19.7525 14.5517C19.3779 15.1862 19.0949 15.8705 18.9117 16.5842C18.8646 16.7673 18.758 16.9296 18.6085 17.0454C18.4591 17.1612 18.2753 17.224 18.0863 17.2239H15V19.7795H18.0863C18.2753 19.7794 18.4591 19.8422 18.6085 19.958C18.758 20.0739 18.8646 20.2361 18.9117 20.4192C19.0949 21.1329 19.3779 21.8172 19.7525 22.4517C19.8486 22.6145 19.8879 22.8046 19.8642 22.9921C19.8404 23.1797 19.755 23.354 19.6213 23.4876L17.4389 25.6692L19.3325 27.562L21.5141 25.3804ZM26.5 12.5387C27.6794 12.5387 28.8322 12.8885 29.8128 13.5437C30.7935 14.1989 31.5577 15.1302 32.0091 16.2198C32.4604 17.3094 32.5785 18.5083 32.3484 19.665C32.1183 20.8217 31.5504 21.8842 30.7165 22.7182C29.8825 23.5521 28.82 24.12 27.6633 24.3501C26.5066 24.5802 25.3077 24.4621 24.2181 24.0108C23.1285 23.5594 22.1972 22.7952 21.542 21.8146C20.8868 20.834 20.537 19.6811 20.537 18.5017C20.5388 16.9208 21.1677 15.4051 22.2855 14.2873C23.4034 13.1694 24.9191 12.5405 26.5 12.5387Z" fill="#49AF62"/>
<path d="M38.7857 6.4465H38.2846C38.1147 6.44651 37.949 6.39662 37.8102 6.30371C37.6715 6.2108 37.5666 6.07944 37.51 5.92773C36.994 4.54105 36.0522 3.33198 34.8054 2.45562C33.5586 1.57926 32.0637 1.07559 30.5125 1.00923C28.9613 0.942869 27.4246 1.31684 26.0994 2.08317C24.7742 2.84949 23.7211 3.97322 23.0751 5.31019C23.0195 5.42433 22.9356 5.52403 22.8305 5.60076C22.7253 5.67748 22.6021 5.72894 22.4714 5.75073C22.3407 5.77251 22.2064 5.76398 22.0799 5.72587C21.9534 5.68775 21.8385 5.62118 21.7452 5.53185C20.6575 4.49043 19.2675 3.77856 17.7517 3.48666C16.2359 3.19475 14.6626 3.33598 13.2318 3.89241C11.8009 4.44883 10.5769 5.39535 9.71538 6.61175C8.85381 7.82816 8.39348 9.25956 8.39286 10.7242V13.4463C8.39286 13.6526 8.30631 13.8504 8.15227 13.9963C7.99822 14.1422 7.78929 14.2241 7.57143 14.2241H5.10714C4.01786 14.2241 2.97319 14.6338 2.20295 15.3631C1.43272 16.0924 1 17.0815 1 18.1129C1 19.1443 1.43272 20.1334 2.20295 20.8627C2.97319 21.592 4.01786 22.0017 5.10714 22.0017H18.2081L18.6459 21.5864C18.4517 21.218 18.2853 20.8369 18.1481 20.4462H14.9643C14.7464 20.4462 14.5375 20.3642 14.3834 20.2184C14.2294 20.0725 14.1429 19.8747 14.1429 19.6684V15.7796C14.1429 15.5733 14.2294 15.3755 14.3834 15.2297C14.5375 15.0838 14.7464 15.0019 14.9643 15.0019H18.1481C18.2853 14.6111 18.4517 14.2301 18.6459 13.8617L16.3952 11.7298C16.2412 11.584 16.1547 11.3862 16.1547 11.1799C16.1547 10.9737 16.2412 10.7759 16.3952 10.6301L19.3827 7.80213C19.5368 7.65633 19.7457 7.57442 19.9635 7.57442C20.1813 7.57442 20.3902 7.65633 20.5443 7.80213L22.795 9.9332C23.1845 9.74946 23.5872 9.59171 24 9.4611V6.4465C24 6.24022 24.0865 6.0424 24.2406 5.89654C24.3946 5.75068 24.6036 5.66874 24.8214 5.66874H28.9286C29.1464 5.66874 29.3554 5.75068 29.5094 5.89654C29.6635 6.0424 29.75 6.24022 29.75 6.4465V9.4611C30.1628 9.59171 30.5655 9.74946 30.955 9.9332L33.2058 7.80213C33.3598 7.65633 33.5687 7.57442 33.7865 7.57442C34.0043 7.57442 34.2132 7.65633 34.3672 7.80213L37.3548 10.6301C37.5088 10.7759 37.5953 10.9737 37.5953 11.1799C37.5953 11.3862 37.5088 11.584 37.3548 11.7298L35.1041 13.8617C35.2983 14.2301 35.4647 14.6111 35.6019 15.0019H38.7857C39.0036 15.0019 39.2125 15.0838 39.3666 15.2297C39.5206 15.3755 39.6071 15.5733 39.6071 15.7796V19.6684C39.6071 19.8747 39.5206 20.0725 39.3666 20.2184C39.2125 20.3642 39.0036 20.4462 38.7857 20.4462H35.6019C35.4647 20.8369 35.2983 21.218 35.1041 21.5864L35.5419 22.0017H38.7857C40.9643 22.0017 43.0536 21.1823 44.5941 19.7237C46.1346 18.2651 47 16.2869 47 14.2241C47 12.1614 46.1346 10.1831 44.5941 8.72451C43.0536 7.26592 40.9643 6.4465 38.7857 6.4465ZM43.7143 16.5574H42.0714V15.0019H43.7143V16.5574ZM42.0714 13.4463C42.0714 12.6212 41.7253 11.8299 41.1091 11.2465C40.4929 10.6631 39.6571 10.3353 38.7857 10.3353V8.77978C40.0925 8.78101 41.3453 9.27307 42.2693 10.1479C43.1933 11.0228 43.713 12.2091 43.7143 13.4463H42.0714Z" fill="#49AF62"/>
</svg>
