<svg width="36" height="36" viewBox="0 0 36 36" fill="none" xmlns="http://www.w3.org/2000/svg">
<path d="M12.9634 18.0007C12.4111 18.0007 11.9634 17.553 11.9634 17.0007V10.7207C11.9634 10.1684 12.4111 9.7207 12.9634 9.7207H23.0649C23.6172 9.7207 24.0649 10.1684 24.0649 10.7207V17.0007C24.0649 17.553 23.6172 18.0007 23.0649 18.0007H12.9634Z" fill="#49AF62"/>
<path d="M10.1586 2.07715C9.11696 2.07715 8.11794 2.49655 7.38135 3.24309C6.64477 3.98963 6.23096 5.00215 6.23096 6.05792V29.9425C6.23096 30.9983 6.64477 32.0108 7.38135 32.7574C8.11794 33.5039 9.11696 33.9233 10.1586 33.9233H25.8694C26.9111 33.9233 27.9101 33.5039 28.6467 32.7574C29.3833 32.0108 29.7971 30.9983 29.7971 29.9425V6.05792C29.7971 5.00215 29.3833 3.98963 28.6467 3.24309C27.9101 2.49655 26.9111 2.07715 25.8694 2.07715H10.1586ZM10.1586 5.06273C10.1586 5.32667 10.0552 5.5798 9.87105 5.76643C9.6869 5.95307 9.43715 6.05792 9.17673 6.05792C8.9163 6.05792 8.66655 5.95307 8.4824 5.76643C8.29826 5.5798 8.1948 5.32667 8.1948 5.06273C8.1948 4.79878 8.29826 4.54565 8.4824 4.35902C8.66655 4.17238 8.9163 4.06753 9.17673 4.06753C9.43715 4.06753 9.6869 4.17238 9.87105 4.35902C10.0552 4.54565 10.1586 4.79878 10.1586 5.06273ZM27.8333 5.06273C27.8333 5.32667 27.7298 5.5798 27.5457 5.76643C27.3615 5.95307 27.1118 6.05792 26.8513 6.05792C26.5909 6.05792 26.3412 5.95307 26.157 5.76643C25.9729 5.5798 25.8694 5.32667 25.8694 5.06273C25.8694 4.79878 25.9729 4.54565 26.157 4.35902C26.3412 4.17238 26.5909 4.06753 26.8513 4.06753C27.1118 4.06753 27.3615 4.17238 27.5457 4.35902C27.7298 4.54565 27.8333 4.79878 27.8333 5.06273ZM9.17673 23.9714C9.43715 23.9714 9.6869 23.8665 9.87105 23.6799C10.0552 23.4933 10.1586 23.2401 10.1586 22.9762C10.1586 22.7122 10.0552 22.4591 9.87105 22.2725C9.6869 22.0858 9.43715 21.981 9.17673 21.981C8.9163 21.981 8.66655 22.0858 8.4824 22.2725C8.29826 22.4591 8.1948 22.7122 8.1948 22.9762C8.1948 23.2401 8.29826 23.4933 8.4824 23.6799C8.66655 23.8665 8.9163 23.9714 9.17673 23.9714ZM27.8333 22.9762C27.8333 23.2401 27.7298 23.4933 27.5457 23.6799C27.3615 23.8665 27.1118 23.9714 26.8513 23.9714C26.5909 23.9714 26.3412 23.8665 26.157 23.6799C25.9729 23.4933 25.8694 23.2401 25.8694 22.9762C25.8694 22.7122 25.9729 22.4591 26.157 22.2725C26.3412 22.0858 26.5909 21.981 26.8513 21.981C27.1118 21.981 27.3615 22.0858 27.5457 22.2725C27.7298 22.4591 27.8333 22.7122 27.8333 22.9762ZM11.6315 8.0483H24.3965C24.7872 8.0483 25.1618 8.20558 25.438 8.48553C25.7142 8.76548 25.8694 9.14518 25.8694 9.54109V18.4978C25.8694 18.8937 25.7142 19.2734 25.438 19.5534C25.1618 19.8333 24.7872 19.9906 24.3965 19.9906H11.6315C11.2409 19.9906 10.8663 19.8333 10.59 19.5534C10.3138 19.2734 10.1586 18.8937 10.1586 18.4978V9.54109C10.1586 9.14518 10.3138 8.76548 10.59 8.48553C10.8663 8.20558 11.2409 8.0483 11.6315 8.0483ZM12.1225 25.9618H23.9056C24.4264 25.9618 24.9259 26.1715 25.2942 26.5447C25.6625 26.918 25.8694 27.4243 25.8694 27.9521V31.9329H23.9056V27.9521H22.4327V31.9329H20.4688V27.9521H18.996V31.9329H17.0321V27.9521H15.5592V31.9329H13.5954V27.9521H12.1225V31.9329H10.1586V27.9521C10.1586 27.4243 10.3656 26.918 10.7338 26.5447C11.1021 26.1715 11.6017 25.9618 12.1225 25.9618Z" fill="#49AF62"/>
</svg>
