<svg width="36" height="36" viewBox="0 0 36 36" fill="none" xmlns="http://www.w3.org/2000/svg">
<path d="M13.2898 15.9219H6.47355C6.15673 15.9219 5.8999 16.1787 5.8999 16.4955C5.8999 16.8123 6.15673 17.0692 6.47355 17.0692H13.2898C13.6066 17.0692 13.8634 16.8123 13.8634 16.4955C13.8634 16.1787 13.6066 15.9219 13.2898 15.9219Z" fill="#49AF62"/>
<path d="M13.8634 27.9483C13.8634 27.9483 13.8634 27.9482 13.8633 27.9482H6.47355C6.15673 27.9482 5.8999 28.2051 5.8999 28.5219C5.8999 28.8387 6.15673 29.0955 6.47355 29.0955H13.3367C13.6276 29.0955 13.8634 28.8597 13.8634 28.5688V28.0421C13.8634 28.0421 13.8634 28.0421 13.8634 28.0421C13.8635 28.0421 13.8635 28.0421 13.8635 28.0421V27.9484C13.8635 27.9484 13.8635 27.9484 13.8634 27.9484C13.8634 27.9484 13.8634 27.9484 13.8634 27.9484V27.9483Z" fill="#49AF62"/>
<path d="M13.2898 21.9346H6.47355C6.15673 21.9346 5.8999 22.1914 5.8999 22.5082C5.8999 22.825 6.15673 23.0819 6.47355 23.0819H13.2898C13.6066 23.0819 13.8634 22.825 13.8634 22.5082C13.8634 22.1914 13.6066 21.9346 13.2898 21.9346Z" fill="#49AF62"/>
<path d="M15.4977 8.69434H4.26627C3.56687 8.69434 3 9.2612 3 9.96061V31.4641C3 32.163 3.56687 32.7303 4.26627 32.7303H15.4977C16.1971 32.7303 16.764 32.163 16.764 31.4641V9.96061C16.764 9.2612 16.1971 8.69434 15.4977 8.69434ZM8.10414 11.2743H9.35438C9.64575 11.2743 9.88199 11.5106 9.88199 11.802C9.88199 12.0934 9.64575 12.3296 9.35438 12.3296H8.10414C7.81277 12.3296 7.57653 12.0934 7.57653 11.802C7.57653 11.5105 7.81277 11.2743 8.10414 11.2743ZM5.37266 11.2743H6.20275C6.49412 11.2743 6.73036 11.5106 6.73036 11.802C6.73036 12.0934 6.49412 12.3296 6.20275 12.3296H5.37266C5.08125 12.3296 4.845 12.0934 4.845 11.802C4.845 11.5105 5.08125 11.2743 5.37266 11.2743ZM14.919 29.4823C14.919 29.8512 14.6199 30.1503 14.2509 30.1503H5.51309C5.1441 30.1503 4.845 29.8512 4.845 29.4823V27.5606C4.845 27.1917 5.1441 26.8926 5.51309 26.8926H14.2509C14.6199 26.8926 14.919 27.1917 14.919 27.5606V29.4823ZM14.919 23.4692C14.919 23.8382 14.6199 24.1373 14.2509 24.1373H5.51309C5.1441 24.1373 4.845 23.8382 4.845 23.4692V21.5476C4.845 21.1786 5.1441 20.8795 5.51309 20.8795H14.2509C14.6199 20.8795 14.919 21.1786 14.919 21.5476V23.4692ZM14.919 17.4561C14.919 17.8251 14.6199 18.1242 14.2509 18.1242H5.51309C5.1441 18.1242 4.845 17.8251 4.845 17.4561V15.5345C4.845 15.1655 5.1441 14.8664 5.51309 14.8664H14.2509C14.6199 14.8664 14.919 15.1655 14.919 15.5345V17.4561Z" fill="#49AF62"/>
<path d="M7.53857 7.5C7.53857 6.94772 7.98629 6.5 8.53857 6.5H11.5386C12.0909 6.5 12.5386 6.94772 12.5386 7.5V9.5H7.53857V7.5Z" fill="#49AF62"/>
<rect x="21.6694" y="24.1855" width="8.11714" height="0.811714" rx="0.405857" fill="#49AF62"/>
<path fill-rule="evenodd" clip-rule="evenodd" d="M20.1929 13.2797C19.6609 13.2149 19.2344 13.6658 19.2344 14.2017V17.5032C19.2344 18.0555 19.6821 18.5032 20.2344 18.5032H31.2218C31.7741 18.5032 32.2218 18.0555 32.2218 17.5032V16.2282C32.2218 15.2968 31.0221 14.8545 30.3055 15.4494C30.0065 15.6976 29.7215 15.9043 29.4487 16.0739C29.6404 16.1063 29.7864 16.2732 29.7864 16.4741C29.7864 16.6983 29.6047 16.88 29.3806 16.88H22.0751C21.851 16.88 21.6693 16.6983 21.6693 16.4741C21.6693 16.25 21.851 16.0683 22.0751 16.0683H25.4567C25.0484 15.8204 24.6436 15.5234 24.2251 15.2164C23.0935 14.3862 21.8622 13.4829 20.1929 13.2797Z" fill="#49AF62"/>
<path fill-rule="evenodd" clip-rule="evenodd" d="M19.2344 22.75C19.2344 22.1977 19.6821 21.75 20.2344 21.75H31.2218C31.7741 21.75 32.2218 22.1977 32.2218 22.75V28.0554C32.2218 28.6077 31.7741 29.0554 31.2218 29.0554H20.2344C19.6821 29.0554 19.2344 28.6077 19.2344 28.0554V22.75ZM20.8577 24.3735C20.8577 23.8212 21.3054 23.3735 21.8577 23.3735H29.5983C30.1506 23.3735 30.5983 23.8212 30.5983 24.3735V24.8086C30.5983 25.3609 30.1506 25.8086 29.5983 25.8086H21.8577C21.3054 25.8086 20.8577 25.3609 20.8577 24.8086V24.3735ZM22.0751 26.6204C21.851 26.6204 21.6693 26.8021 21.6693 27.0263C21.6693 27.2504 21.851 27.4321 22.0751 27.4321H29.3806C29.6047 27.4321 29.7864 27.2504 29.7864 27.0263C29.7864 26.8021 29.6047 26.6204 29.3806 26.6204H22.0751Z" fill="#49AF62"/>
<path d="M11.0386 4C10.7624 4 10.5386 4.22386 10.5386 4.5V8.53486H9.53857V4.5C9.53857 3.67157 10.2101 3 11.0386 3L22.1641 3.01195L21.2774 4.0109L11.0386 4Z" fill="#49AF62"/>
<path fill-rule="evenodd" clip-rule="evenodd" d="M25.5386 22.3624V17.5H26.5386V22.3624H25.5386Z" fill="#49AF62"/>
<path d="M27.5 1C22.8038 1 19 4.80375 19 9.5C19 14.1962 22.8038 18 27.5 18C32.1962 18 36 14.1962 36 9.5C36 4.80375 32.1962 1 27.5 1ZM27.5 3.55C28.9067 3.55 30.05 4.69325 30.05 6.1C30.05 7.511 28.9067 8.65 27.5 8.65C26.0932 8.65 24.95 7.511 24.95 6.1C24.95 4.69325 26.0932 3.55 27.5 3.55ZM27.5 15.62C25.3707 15.62 23.5007 14.532 22.4 12.883C22.4212 11.1957 25.8042 10.265 27.5 10.265C29.1957 10.265 32.5745 11.1957 32.6 12.883C31.4992 14.532 29.6292 15.62 27.5 15.62Z" fill="#49AF62"/>
</svg>
