<svg width="36" height="36" viewBox="0 0 36 36" fill="none" xmlns="http://www.w3.org/2000/svg">
<path fill-rule="evenodd" clip-rule="evenodd" d="M1.33314 24.2156C2.21327 26.3405 3.50331 28.2712 5.12959 29.8974L17.5135 17.5135L29.8974 5.1296C28.2712 3.50332 26.3405 2.21328 24.2157 1.33314C22.0908 0.453003 19.8134 0 17.5135 0C15.2136 0 12.9362 0.452998 10.8114 1.33313C8.68655 2.21327 6.75588 3.5033 5.12959 5.12958C3.50331 6.75586 2.21328 8.68654 1.33314 10.8114C0.453002 12.9362 0 15.2136 0 17.5135C0 19.8134 0.453 22.0908 1.33314 24.2156ZM11.4096 7.67732C11.7072 7.65087 11.9399 7.61355 12.1045 7.56523C12.3447 7.48558 12.5861 7.32634 12.8263 7.08887C13.1067 6.81128 13.3141 6.50724 13.447 6.17671C13.5761 5.84619 13.6408 5.54694 13.6408 5.27817C13.6408 5.26276 13.64 5.2449 13.6389 5.22363C13.6388 5.21973 13.6386 5.21572 13.6384 5.21159C13.6359 5.18514 13.6348 5.16285 13.6348 5.14541C13.6298 5.13216 13.6238 5.10809 13.6177 5.07299C13.6116 5.0379 13.6053 5.01262 13.6005 5C12.8166 5.1803 12.2606 5.50663 11.9314 5.97892C11.5961 6.45428 11.423 7.02067 11.4096 7.67732ZM14.6369 10.7247C14.6369 11.271 14.7906 11.7632 15.0977 12.1989C15.405 12.6355 15.7561 12.9129 16.1536 13.0324C15.9793 13.5832 15.705 14.1337 15.3318 14.6845C14.7563 15.5483 14.1847 15.9799 13.6141 15.9799C13.3957 15.9799 13.0836 15.9095 12.6788 15.7683C12.296 15.6277 11.9596 15.5571 11.6704 15.5571C11.3986 15.5571 11.0816 15.6298 10.7208 15.7756C10.361 15.9252 10.066 16 9.83918 16C9.16253 16 8.49198 15.4294 7.82868 14.2882C7.17393 13.1373 6.84593 12.03 6.84593 10.9622C6.84593 9.95859 7.09711 9.13346 7.60063 8.49043C8.10053 7.85584 8.73215 7.53875 9.49903 7.53875C9.81972 7.53875 10.2136 7.60435 10.6816 7.73672C11.145 7.8693 11.4522 7.93488 11.6034 7.93488C11.8034 7.93488 12.1229 7.86086 12.5593 7.71003C13.0128 7.56041 13.3982 7.48561 13.714 7.48561C14.2443 7.48561 14.7186 7.62921 15.138 7.91521C15.3697 8.07447 15.6012 8.2939 15.8329 8.57628C15.4806 8.87169 15.227 9.13105 15.0709 9.35668C14.7809 9.77041 14.6369 10.2265 14.6369 10.7247Z" fill="#49AF62"/>
<path fill-rule="evenodd" clip-rule="evenodd" d="M35.7949 18.3839C35.7949 13.7391 33.9497 9.28442 30.6653 6L18.2814 18.3839L5.89746 30.7679C9.18188 34.0523 13.6365 35.8974 18.2814 35.8974C22.9263 35.8974 27.3809 34.0523 30.6653 30.7678C33.9497 27.4834 35.7949 23.0288 35.7949 18.3839ZM23.0617 28.0787L18.7948 27.4914V24.1994H23.0617V28.0787ZM23.0617 23.6453H18.7948V20.3528L23.0617 19.7656V23.6453ZM29.3701 28.947L23.6448 28.159V24.1994H29.3701V28.947ZM23.6448 23.6453V19.685L29.3701 18.8975V23.6453H23.6448Z" fill="#49AF62"/>
</svg>
