<svg width="36" height="36" viewBox="0 0 36 36" fill="none" xmlns="http://www.w3.org/2000/svg">
<path d="M33.6049 1.38477H2.34961L17.5989 13.0855L33.6049 1.38477Z" fill="#49AF62"/>
<path d="M1.38477 2.38867V23.9213L13.9815 12.0529L1.38477 2.38867Z" fill="#49AF62"/>
<path d="M21.7173 11.7869L34.6154 24.1629V2.36035L21.7173 11.7869Z" fill="#49AF62"/>
<path d="M18.689 27.0203V15.9258H17.3043V16.4072H15.2575V17.7918H17.3043V18.7552H15.649V20.1398H17.3043V27.0209C15.0929 27.3008 13.3892 28.8857 13.3892 30.794C13.3892 32.9056 15.4592 34.6156 17.9999 34.6156C20.5338 34.6156 22.6038 32.9056 22.6038 30.794C22.6038 28.8843 20.8976 27.2985 18.689 27.0203Z" fill="#49AF62"/>
<path d="M17.9492 14.5415H20.074V24.8129H33.2923L20.5822 12.6172L17.9492 14.5415Z" fill="#49AF62"/>
<path d="M15.9199 21.5241H14.2645V19.176H13.8731V15.0222H15.9199V14.5408H17.2246L15.0941 12.9062L2.45752 24.8121H15.9199V21.5241Z" fill="#49AF62"/>
</svg>
