<svg width="36" height="36" viewBox="0 0 36 36" fill="none" xmlns="http://www.w3.org/2000/svg">
<g clip-path="url(#clip0_821_2134)">
<path d="M36.0011 18C35.9989 8.0595 27.9428 0.00225 18 0C8.0595 0.00225 0.00225 8.0595 0 18C0.00225 27.9428 8.0595 36 18 36.0011C19.5525 36.0011 21.051 35.7817 22.4854 35.4071C23.5474 35.784 24.6836 36 25.875 36C31.4674 36 35.9989 31.4685 35.9989 25.8761C35.9989 24.6859 35.784 23.5496 35.4071 22.4888C35.7817 21.0532 36.0011 19.5548 36.0011 18ZM18 33.7489C9.3015 33.7342 2.26688 26.6996 2.25 18C2.26688 9.3015 9.3015 2.26688 18 2.25C26.6996 2.26688 33.7342 9.3015 33.7489 18C33.7477 18.4804 33.7196 18.954 33.6758 19.422C31.8195 17.1799 29.0138 15.7511 25.875 15.7511C25.3699 15.7511 24.8771 15.8006 24.3923 15.8715C23.5001 13.1884 20.9824 11.2511 18 11.2511C14.2718 11.2511 11.2511 14.2718 11.2511 18C11.2511 20.9813 13.1884 23.5001 15.8704 24.3923C15.7995 24.8771 15.75 25.371 15.75 25.8761C15.75 29.0149 17.1787 31.8184 19.4197 33.6758C18.9517 33.7196 18.4792 33.7477 18 33.7489ZM20.1892 17.4982C19.9597 16.4981 19.0687 15.7511 18.0011 15.7511C16.7591 15.7511 15.7511 16.7591 15.7511 18.0011C15.7511 19.0687 16.4981 19.9597 17.4971 20.1892C17.0764 20.808 16.731 21.4785 16.4543 22.1839C14.7375 21.5516 13.5045 19.935 13.5011 17.9989C13.5056 15.5137 15.5149 13.5045 18 13.5C19.9373 13.5034 21.5539 14.7364 22.185 16.4531C21.4785 16.731 20.808 17.0775 20.1892 17.4982ZM25.875 33.75C21.5269 33.741 18.0068 30.2231 18 25.8761C18.0068 21.528 21.5269 18.0079 25.875 18.0011C30.222 18.0079 33.7399 21.528 33.7489 25.8761C33.7399 30.2231 30.222 33.741 25.875 33.75Z" fill="#49AF62"/>
<path d="M29.412 24.7531C29.421 24.6057 29.4278 24.4527 29.4278 24.293C29.421 23.5302 29.3287 22.6145 28.8022 21.7516C28.2881 20.8752 27.1845 20.2216 25.875 20.252C24.5644 20.2216 23.4585 20.8752 22.9444 21.7516C22.4156 22.6145 22.3234 23.5302 22.3189 24.293C22.3189 24.4539 22.3256 24.6057 22.3346 24.7531H21.375V30.3781H30.375V24.7531H29.412ZM24.5666 24.293C24.5621 23.7552 24.6712 23.2152 24.8524 22.9452C25.047 22.6899 25.1561 22.5335 25.875 22.502C26.5916 22.5324 26.6962 22.6876 26.892 22.9452C27.0742 23.2152 27.1834 23.7586 27.1766 24.293C27.1766 24.4561 27.1676 24.608 27.1553 24.7531H24.588C24.5768 24.6057 24.5666 24.4516 24.5666 24.293Z" fill="#49AF62"/>
</g>
<defs>
<clipPath id="clip0_821_2134">
<rect width="36" height="36" fill="white"/>
</clipPath>
</defs>
</svg>
