<svg width="36" height="36" viewBox="0 0 36 36" fill="none" xmlns="http://www.w3.org/2000/svg">
<path d="M33.9235 10.0387V8.65407H29.0806V6.92258H27.3466V2.07715H25.962V6.92258H23.885V2.07715H22.5004V6.92258H20.4235V2.07715H19.0389V6.92258H16.962V2.07715H15.5774V6.92258H13.5004V2.07715H12.1158V6.92258H10.0389V2.07715H8.65427V6.92258H6.92676V29.0764H29.0806V27.3464H33.9235V25.9618H29.0806V23.8848H33.9235V22.5002H29.0806V20.4233H33.9235V19.0387H29.0806V16.9618H33.9235V15.5771H29.0806V13.5002H33.9235V12.1156H29.0806V10.0387H33.9235ZM9.20325 10.182L10.1822 9.20305L11.1723 10.1932L10.1934 11.1721L9.20325 10.182ZM18.0004 25.2695H13.1543C12.009 25.2695 11.0774 24.3378 11.0774 23.1925V18.3464H12.462V23.1925C12.462 23.5742 12.7726 23.8848 13.1543 23.8848H18.0004V25.2695ZM22.8466 12.8079H17.7973V11.4233H22.8466C23.9919 11.4233 24.9235 12.3549 24.9235 13.5002V18.3464H23.5389V13.5002C23.5389 13.1186 23.2282 12.8079 22.8466 12.8079ZM25.8186 26.7974L24.8289 25.8076L25.8078 24.8286L26.7976 25.8184L25.8186 26.7974Z" fill="#49AF62"/>
<path d="M6.9233 8.6543H2.07715V10.0389H6.9233V8.6543Z" fill="#49AF62"/>
<path d="M6.9233 12.1152H2.07715V13.4998H6.9233V12.1152Z" fill="#49AF62"/>
<path d="M6.9233 15.5771H2.07715V16.9618H6.9233V15.5771Z" fill="#49AF62"/>
<path d="M6.9233 19.0391H2.07715V20.4237H6.9233V19.0391Z" fill="#49AF62"/>
<path d="M6.9233 22.5H2.07715V23.8846H6.9233V22.5Z" fill="#49AF62"/>
<path d="M6.9233 25.9619H2.07715V27.3465H6.9233V25.9619Z" fill="#49AF62"/>
<path d="M27.3465 29.0771H25.9619V33.9233H27.3465V29.0771Z" fill="#49AF62"/>
<path d="M23.8846 29.0771H22.5V33.9233H23.8846V29.0771Z" fill="#49AF62"/>
<path d="M20.4232 29.0771H19.0386V33.9233H20.4232V29.0771Z" fill="#49AF62"/>
<path d="M16.9618 29.0771H15.5771V33.9233H16.9618V29.0771Z" fill="#49AF62"/>
<path d="M13.5003 29.0771H12.1157V33.9233H13.5003V29.0771Z" fill="#49AF62"/>
<path d="M10.0389 29.0771H8.6543V33.9233H10.0389V29.0771Z" fill="#49AF62"/>
</svg>
