<svg width="100" height="100" viewBox="0 0 100 100" fill="none" xmlns="http://www.w3.org/2000/svg">
<rect x="0.5" y="0.5" width="99" height="99" rx="11.5" stroke="#49AF62"/>
<path d="M56.4478 51.0207L69.5765 62.2268C69.8558 61.5899 70 60.9024 70.0002 60.2074V42.4277L56.4478 51.0207Z" fill="#49AF62"/>
<path d="M50.4195 50.8043L69.8162 38.5112C69.5321 37.4202 68.8934 36.4535 67.9996 35.7619C67.1059 35.0704 66.0074 34.693 64.8756 34.6885H34.1251C32.9933 34.693 31.8949 35.0704 31.0011 35.7619C30.1074 36.4535 29.4686 37.4202 29.1846 38.5112L48.583 50.8043C48.8578 50.9773 49.1762 51.0691 49.5012 51.0691C49.8263 51.0691 50.1447 50.9773 50.4195 50.8043Z" fill="#49AF62"/>
<path d="M29 42.4277V60.2074C29.0006 60.9012 29.1449 61.5875 29.4237 62.2234L42.5524 51.0207L29 42.4277Z" fill="#49AF62"/>
<path d="M53.4535 52.9148L52.2576 53.6752C51.4342 54.1931 50.4802 54.468 49.5063 54.468C48.5324 54.468 47.5784 54.1931 46.755 53.6752L45.5592 52.9131C45.5335 52.9369 45.5233 52.9692 45.4977 52.9913L31.7642 64.7061C32.4897 65.0966 33.3004 65.3039 34.1251 65.31H64.8756C65.7008 65.3039 66.512 65.0966 67.2382 64.7061L53.515 52.9913C53.4876 52.9692 53.4774 52.9369 53.4535 52.9148Z" fill="#49AF62"/>
<path d="M36.1134 79.2454C26.0042 74.4663 18.7435 64.6767 17.6444 53.0833H13C14.5791 72.0767 30.5247 87 50 87C50.6966 87 51.3623 86.9383 52.0435 86.8921L40.2469 75.1292L36.1134 79.2454ZM50 13C49.3033 13 48.6377 13.0617 47.9565 13.1079L59.7531 24.8708L63.8711 20.77C73.9958 25.5337 81.2565 35.3233 82.3557 46.9167H87C85.4209 27.9233 69.4753 13 50 13Z" fill="#49AF62"/>
</svg>
