<svg width="100" height="100" viewBox="0 0 100 100" fill="none" xmlns="http://www.w3.org/2000/svg">
<rect x="0.5" y="0.5" width="99" height="99" rx="11.5" stroke="#49AF62"/>
<path d="M48.4487 81.6152V87.3332C55.1445 87.3332 60.4622 84.8945 64.5248 81.6152H48.4487Z" fill="#49AF62"/>
<path d="M19.8589 53.0254V58.7433C19.8589 65.8908 25.5768 67.3203 25.5768 67.3203C25.5768 67.3203 31.2948 84.4741 48.4487 84.4741" stroke="#49AF62" stroke-width="4" stroke-miterlimit="10" stroke-linecap="round"/>
<path d="M79.8975 55.8847H71.3206C71.3206 38.0446 62.7436 30.1539 62.7436 30.1539C54.1667 50.1667 25.5769 35.8718 25.5769 55.8847H17C17 55.8847 17 55.5473 17 44.4488C17 24.4359 34.1539 13 48.4488 13C59.8847 13 62.7436 18.718 62.7436 18.718C74.1796 18.718 79.8975 33.0128 79.8975 44.4488V55.8847Z" fill="#49AF62"/>
<path d="M49.8784 67.3203C49.3752 67.3203 47.5226 67.3203 47.0194 67.3203C44.6522 67.3203 42.731 69.2415 42.731 71.6088C42.731 73.976 44.6522 75.8972 47.0194 75.8972C47.5226 75.8972 49.3752 75.8972 49.8784 75.8972C52.2456 75.8972 54.1669 73.976 54.1669 71.6088C54.1669 69.2415 52.2456 67.3203 49.8784 67.3203Z" fill="#49AF62"/>
<path d="M51.3076 73.0382H65.6025C71.918 73.0382 77.0384 67.9178 77.0384 61.6023V53.0254" stroke="#49AF62" stroke-width="4" stroke-miterlimit="10" stroke-linecap="round"/>
<path d="M77.0388 64.4619H71.3208V50.167H77.0388C80.1979 50.167 82.7567 52.7258 82.7567 55.8849V58.7439C82.7567 61.9031 80.1979 64.4619 77.0388 64.4619Z" fill="#49AF62"/>
</svg>
