<svg width="100" height="100" viewBox="0 0 100 100" fill="none" xmlns="http://www.w3.org/2000/svg">
<rect x="0.5" y="0.5" width="99" height="99" rx="11.5" stroke="#49AF62"/>
<path d="M71.1271 31.9889H42.8218V24.6043C42.8218 22.6458 43.595 20.7675 44.9712 19.3826C46.3474 17.9978 48.214 17.2197 50.1602 17.2197C52.1065 17.2197 53.973 17.9978 55.3493 19.3826C56.7255 20.7675 57.4986 22.6458 57.4986 24.6043C57.4986 25.1639 57.7195 25.7005 58.1127 26.0962C58.5059 26.4919 59.0392 26.7142 59.5953 26.7142C60.1514 26.7142 60.6847 26.4919 61.0779 26.0962C61.4711 25.7005 61.692 25.1639 61.692 24.6043C61.692 21.5266 60.477 18.575 58.3144 16.3988C56.1518 14.2226 53.2186 13 50.1602 13C47.1018 13 44.1687 14.2226 42.006 16.3988C39.8434 18.575 38.6285 21.5266 38.6285 24.6043V31.9889H29.1934C28.0812 31.9889 27.0146 32.4334 26.2282 33.2248C25.4418 34.0161 25 35.0895 25 36.2086V65.7468C25 66.866 25.4418 67.9393 26.2282 68.7306C27.0146 69.522 28.0812 69.9666 29.1934 69.9666H71.1271C72.2392 69.9666 73.3058 69.522 74.0922 68.7306C74.8787 67.9393 75.3205 66.866 75.3205 65.7468V36.2086C75.3205 35.0895 74.8787 34.0161 74.0922 33.2248C73.3058 32.4334 72.2392 31.9889 71.1271 31.9889ZM64.837 61.5271H35.4834C34.9274 61.5271 34.3941 61.3048 34.0008 60.9091C33.6076 60.5134 33.3867 59.9768 33.3867 59.4172C33.3867 58.8576 33.6076 58.321 34.0008 57.9253C34.3941 57.5296 34.9274 57.3073 35.4834 57.3073H64.837C65.3931 57.3073 65.9264 57.5296 66.3196 57.9253C66.7128 58.321 66.9337 58.8576 66.9337 59.4172C66.9337 59.9768 66.7128 60.5134 66.3196 60.9091C65.9264 61.3048 65.3931 61.5271 64.837 61.5271ZM64.837 53.0876H35.4834C34.9274 53.0876 34.3941 52.8653 34.0008 52.4696C33.6076 52.0739 33.3867 51.5373 33.3867 50.9777C33.3867 50.4181 33.6076 49.8815 34.0008 49.4858C34.3941 49.0901 34.9274 48.8678 35.4834 48.8678H64.837C65.3931 48.8678 65.9264 49.0901 66.3196 49.4858C66.7128 49.8815 66.9337 50.4181 66.9337 50.9777C66.9337 51.5373 66.7128 52.0739 66.3196 52.4696C65.9264 52.8653 65.3931 53.0876 64.837 53.0876ZM64.837 44.6481H35.4834C34.9274 44.6481 34.3941 44.4258 34.0008 44.0301C33.6076 43.6344 33.3867 43.0978 33.3867 42.5382C33.3867 41.9786 33.6076 41.442 34.0008 41.0463C34.3941 40.6506 34.9274 40.4283 35.4834 40.4283H64.837C65.3931 40.4283 65.9264 40.6506 66.3196 41.0463C66.7128 41.442 66.9337 41.9786 66.9337 42.5382C66.9337 43.0978 66.7128 43.6344 66.3196 44.0301C65.9264 44.4258 65.3931 44.6481 64.837 44.6481Z" fill="#49AF62"/>
<path fill-rule="evenodd" clip-rule="evenodd" d="M27 72.8154C25.8954 72.8154 25 73.7109 25 74.8154V85.0571C25 86.1616 25.8954 87.0571 27 87.0571H73.3205C74.425 87.0571 75.3205 86.1616 75.3205 85.0571V74.8154C75.3205 73.7109 74.425 72.8154 73.3205 72.8154H27ZM36.0599 77.4053C36.3093 77.5866 36.4504 77.841 36.4832 78.1684H38.1888C38.1806 77.6732 38.0463 77.2375 37.786 76.8613C37.5257 76.4851 37.1613 76.1915 36.6928 75.9804C36.2271 75.7693 35.6818 75.6638 35.0572 75.6638C34.4434 75.6638 33.8955 75.7693 33.4133 75.9804C32.9311 76.1915 32.5516 76.4851 32.2749 76.8613C32.0009 77.2375 31.8653 77.6772 31.868 78.1806C31.8653 78.7949 32.0694 79.2834 32.4804 79.646C32.8913 80.0087 33.4516 80.2752 34.1612 80.4457L35.0777 80.6731C35.3846 80.7461 35.6435 80.8273 35.8545 80.9166C36.0682 81.0059 36.2298 81.1142 36.3394 81.2414C36.4517 81.3686 36.5079 81.5255 36.5079 81.7123C36.5079 81.9125 36.4463 82.0898 36.323 82.244C36.1997 82.3983 36.0257 82.5187 35.801 82.6053C35.5791 82.6919 35.3174 82.7352 35.0161 82.7352C34.7092 82.7352 34.4339 82.6892 34.19 82.5972C33.9489 82.5025 33.7558 82.3631 33.6105 82.1791C33.4681 81.9924 33.3872 81.7596 33.3681 81.4809H31.6461C31.6598 82.079 31.8064 82.581 32.0858 82.9869C32.368 83.3901 32.7598 83.6946 33.2612 83.9003C33.7653 84.1059 34.3571 84.2088 35.0366 84.2088C35.7216 84.2088 36.3065 84.1073 36.7915 83.9043C37.2792 83.6986 37.6518 83.4104 37.9093 83.0397C38.1696 82.6662 38.3011 82.2251 38.3039 81.7163C38.3011 81.3699 38.2367 81.0628 38.1107 80.7948C37.9874 80.5269 37.8134 80.2942 37.5888 80.0966C37.3641 79.8991 37.0983 79.7326 36.7915 79.5973C36.4846 79.462 36.1476 79.3538 35.7805 79.2726L35.0243 79.094C34.8407 79.0534 34.6681 79.0047 34.5065 78.9478C34.3448 78.8883 34.2023 78.8193 34.079 78.7408C33.9558 78.6596 33.8585 78.5635 33.7873 78.4526C33.7188 78.3416 33.6873 78.2117 33.6927 78.0629C33.6927 77.8843 33.7448 77.7246 33.8489 77.5839C33.9558 77.4431 34.1092 77.3335 34.3092 77.2551C34.5092 77.1739 34.7544 77.1333 35.0448 77.1333C35.4722 77.1333 35.8106 77.2239 36.0599 77.4053ZM52.1678 78.1684C52.1349 77.841 51.9938 77.5866 51.7445 77.4053C51.4952 77.2239 51.1568 77.1333 50.7294 77.1333C50.439 77.1333 50.1938 77.1739 49.9938 77.2551C49.7938 77.3335 49.6403 77.4431 49.5335 77.5839C49.4294 77.7246 49.3773 77.8843 49.3773 78.0629C49.3718 78.2117 49.4033 78.3416 49.4718 78.4526C49.5431 78.5635 49.6403 78.6596 49.7636 78.7408C49.8869 78.8193 50.0294 78.8883 50.191 78.9478C50.3527 79.0047 50.5253 79.0534 50.7089 79.094L51.4651 79.2726C51.8322 79.3538 52.1692 79.462 52.4761 79.5973C52.7829 79.7326 53.0487 79.8991 53.2733 80.0966C53.498 80.2942 53.672 80.5269 53.7953 80.7948C53.9213 81.0628 53.9857 81.3699 53.9884 81.7163C53.9857 82.2251 53.8542 82.6662 53.5939 83.0397C53.3364 83.4104 52.9637 83.6986 52.4761 83.9043C51.9911 84.1073 51.4062 84.2088 50.7212 84.2088C50.0417 84.2088 49.4499 84.1059 48.9458 83.9003C48.4444 83.6946 48.0526 83.3901 47.7704 82.9869C47.4909 82.581 47.3444 82.079 47.3307 81.4809H49.0526C49.0718 81.7596 49.1527 81.9924 49.2951 82.1791C49.4403 82.3631 49.6335 82.5025 49.8746 82.5972C50.1184 82.6892 50.3938 82.7352 50.7006 82.7352C51.002 82.7352 51.2637 82.6919 51.4856 82.6053C51.7103 82.5187 51.8843 82.3983 52.0075 82.244C52.1308 82.0898 52.1925 81.9125 52.1925 81.7123C52.1925 81.5255 52.1363 81.3686 52.024 81.2414C51.9144 81.1142 51.7527 81.0059 51.539 80.9166C51.3281 80.8273 51.0692 80.7461 50.7623 80.6731L49.8458 80.4457C49.1362 80.2752 48.5759 80.0087 48.1649 79.646C47.754 79.2834 47.5499 78.7949 47.5526 78.1806C47.5499 77.6772 47.6855 77.2375 47.9595 76.8613C48.2362 76.4851 48.6156 76.1915 49.0979 75.9804C49.5801 75.7693 50.128 75.6638 50.7417 75.6638C51.3664 75.6638 51.9116 75.7693 52.3774 75.9804C52.8459 76.1915 53.2103 76.4851 53.4706 76.8613C53.7309 77.2375 53.8651 77.6732 53.8734 78.1684H52.1678ZM63.2865 84.0911V75.7775H65.066V82.6419H68.6744V84.0911H63.2865Z" fill="#49AF62"/>
</svg>
