<svg width="100" height="100" viewBox="0 0 100 100" fill="none" xmlns="http://www.w3.org/2000/svg">
<rect x="0.5" y="0.5" width="99" height="99" rx="11.5" stroke="#49AF62"/>
<path d="M48.8523 13.1786L18.6347 22.8175C17.8699 23.0615 17.2024 23.5423 16.7288 24.1905C16.2552 24.8387 16 25.6206 16 26.4234V49.1159C16 55.3695 17.6829 61.5078 20.8723 66.8869C24.0616 72.266 28.6398 76.6877 34.1266 79.688L48.1886 87.3776C48.744 87.6813 49.3669 87.8405 49.9999 87.8405C50.633 87.8405 51.2558 87.6813 51.8113 87.3776L65.874 79.688C71.3605 76.6879 75.9386 72.2666 79.1278 66.8878C82.3171 61.509 84 55.3711 84 49.1179V26.413C84 25.6132 83.7457 24.8342 83.2739 24.1884C82.8021 23.5427 82.1372 23.0637 81.3753 22.8206L51.1477 13.1786C50.4011 12.9405 49.5989 12.9405 48.8523 13.1786ZM62.5013 52.4827C62.5397 52.4954 62.5796 52.4897 62.6172 52.5054L66.4067 54.0752L66.5971 53.6151C66.6802 53.4128 66.8025 53.2289 66.9568 53.074C67.1111 52.919 67.2945 52.796 67.4964 52.712C67.6984 52.628 67.9149 52.5847 68.1336 52.5845C68.3523 52.5844 68.5689 52.6273 68.7709 52.711C68.973 52.7946 69.1566 52.9174 69.3111 53.0721C69.4657 53.2268 69.5882 53.4105 69.6717 53.6126C69.7552 53.8148 69.798 54.0314 69.7976 54.2501C69.7972 54.4688 69.7537 54.6853 69.6695 54.8871L68.8438 56.8805C68.8431 56.8816 68.8438 56.8827 68.8431 56.8838L68.8409 56.8877L68.0152 58.8804C67.8465 59.2878 67.5229 59.6116 67.1156 59.7804C66.7082 59.9492 66.2504 59.9493 65.843 59.7806C65.4356 59.6119 65.1119 59.2883 64.943 58.8809C64.7742 58.4736 64.7741 58.0158 64.9428 57.6084L65.1339 57.1472L61.3451 55.5778C61.3067 55.5619 61.2831 55.5298 61.2469 55.5117C60.1031 57.5191 58.4408 59.1822 56.434 60.3269C56.4517 60.3627 56.4834 60.3863 56.4989 60.424L58.0683 64.2128L58.5295 64.0217C58.7312 63.9382 58.9474 63.8952 59.1658 63.8952C59.3841 63.8953 59.6003 63.9383 59.802 64.0219C60.0037 64.1055 60.187 64.228 60.3414 64.3824C60.4957 64.5368 60.6182 64.7201 60.7017 64.9219C60.7852 65.1236 60.8282 65.3398 60.8282 65.5582C60.8281 65.7765 60.7851 65.9927 60.7015 66.1944C60.6179 66.3961 60.4954 66.5794 60.341 66.7338C60.1866 66.8881 60.0033 67.0106 59.8015 67.0941L57.8078 67.9202C57.8064 67.9205 57.8064 67.9216 57.8049 67.922C57.8037 67.9222 57.8024 67.9224 57.8012 67.9228L55.8082 68.7484C55.401 68.9162 54.9437 68.9156 54.5369 68.7466C54.1301 68.5777 53.807 68.2542 53.6385 67.8472C53.47 67.4402 53.4699 66.983 53.6382 66.5759C53.8065 66.1688 54.1295 65.8452 54.5362 65.676L54.9958 65.4855L53.4264 61.6961C53.4109 61.6588 53.4169 61.6197 53.4043 61.5821C51.1758 62.1917 48.8244 62.191 46.5962 61.5802C46.5836 61.6186 46.5888 61.6581 46.5733 61.6961L45.0039 65.4849L45.4651 65.676C45.6685 65.7583 45.8537 65.8801 46.0099 66.0343C46.1661 66.1885 46.2902 66.3721 46.375 66.5746C46.4599 66.777 46.5038 66.9942 46.5043 67.2137C46.5048 67.4332 46.4619 67.6506 46.3779 67.8534C46.2939 68.0562 46.1707 68.2403 46.0152 68.3953C45.8597 68.5502 45.6751 68.6728 45.4719 68.756C45.2688 68.8392 45.0513 68.8813 44.8318 68.88C44.6123 68.8787 44.3952 68.834 44.1931 68.7483L42.2001 67.9231C42.1979 67.9223 42.1965 67.9227 42.195 67.922C42.1935 67.9212 42.1928 67.9199 42.1906 67.9194L40.1984 67.0941C39.7909 66.9254 39.4672 66.6018 39.2984 66.1944C39.1296 65.787 39.1295 65.3293 39.2982 64.9219C39.4669 64.5144 39.7905 64.1907 40.1979 64.0219C40.6052 63.8531 41.063 63.853 41.4704 64.0217L41.9316 64.2126L43.501 60.424C43.5172 60.3858 43.5489 60.3618 43.5674 60.3254C41.5599 59.1818 39.8968 57.5194 38.7523 55.5123C38.7161 55.5302 38.6925 55.5621 38.6549 55.5778L34.8661 57.1475L35.0572 57.6083C35.1407 57.8101 35.1837 58.0263 35.1836 58.2446C35.1836 58.463 35.1406 58.6792 35.057 58.8809C34.9734 59.0826 34.8509 59.2659 34.6965 59.4202C34.542 59.5746 34.3587 59.697 34.157 59.7806C33.9553 59.8641 33.739 59.9071 33.5207 59.907C33.3024 59.907 33.0862 59.8639 32.8844 59.7803C32.6827 59.6968 32.4995 59.5743 32.3451 59.4198C32.1907 59.2654 32.0683 59.0821 31.9848 58.8804L30.3305 54.8871C30.2463 54.6853 30.2028 54.4688 30.2024 54.2501C30.202 54.0314 30.2448 53.8148 30.3283 53.6126C30.4117 53.4105 30.5343 53.2268 30.6888 53.0721C30.8434 52.9174 31.027 52.7946 31.2291 52.711C31.4311 52.6273 31.6477 52.5844 31.8664 52.5845C32.0851 52.5847 32.3016 52.628 32.5036 52.712C32.7055 52.796 32.8889 52.919 33.0432 53.074C33.1975 53.2289 33.3198 53.4128 33.4029 53.6151L33.5933 54.0755L37.3828 52.5054C37.4204 52.4899 37.4595 52.4958 37.4979 52.4832C36.8881 50.2549 36.8886 47.9036 37.4994 45.6755C37.461 45.6628 37.4212 45.6679 37.3828 45.6523L33.594 44.0832L33.4029 44.544C33.3196 44.7461 33.1973 44.9298 33.0429 45.0845C32.8886 45.2393 32.7053 45.3621 32.5034 45.446C32.3015 45.5298 32.0851 45.573 31.8666 45.5732C31.648 45.5733 31.4315 45.5303 31.2296 45.4467C31.0276 45.3631 30.8442 45.2405 30.6896 45.0859C30.5351 44.9313 30.4126 44.7478 30.3291 44.5458C30.2456 44.3438 30.2027 44.1273 30.203 43.9087C30.2032 43.6901 30.2465 43.4738 30.3305 43.272L31.9847 39.2773C32.0682 39.0755 32.1907 38.8922 32.3451 38.7378C32.4994 38.5834 32.6827 38.4609 32.8844 38.3773C33.0861 38.2937 33.3023 38.2507 33.5207 38.2506C33.739 38.2506 33.9552 38.2936 34.157 38.3771C34.3587 38.4606 34.542 38.5831 34.6964 38.7374C34.8508 38.8918 34.9733 39.0751 35.0569 39.2768C35.1405 39.4785 35.1836 39.6947 35.1836 39.913C35.1836 40.1314 35.1407 40.3476 35.0571 40.5493L34.866 41.0109L38.6549 42.5799C38.6932 42.5958 38.7176 42.6282 38.7537 42.6465C39.8965 40.6409 41.5569 38.979 43.5615 37.8344C43.5438 37.7987 43.5165 37.7712 43.5011 37.7337L41.931 33.9452L41.4705 34.1359C41.2687 34.2199 41.0523 34.2632 40.8338 34.2635C40.6152 34.2637 40.3987 34.2208 40.1967 34.1373C39.9947 34.0538 39.8112 33.9313 39.6566 33.7768C39.502 33.6223 39.3794 33.4388 39.2958 33.2368C39.2122 33.0349 39.1692 32.8184 39.1693 32.5998C39.1694 32.3813 39.2127 32.1649 39.2965 31.963C39.3804 31.7612 39.5032 31.5778 39.6579 31.4235C39.8127 31.2691 39.9964 31.1468 40.1985 31.0636L44.1932 29.4093C44.6004 29.2415 45.0577 29.2421 45.4645 29.4111C45.8713 29.58 46.1944 29.9035 46.3629 30.3105C46.5314 30.7175 46.5315 31.1747 46.3632 31.5818C46.1949 31.9889 45.872 32.3125 45.4652 32.4817L45.0033 32.6728L46.5735 36.4616C46.589 36.4993 46.5831 36.5387 46.5956 36.5768C48.8241 35.9671 51.1755 35.9677 53.4037 36.5784C53.4163 36.5398 53.4105 36.5 53.4266 36.4617L54.9967 32.6724L54.5363 32.4817C54.3342 32.3984 54.1506 32.2761 53.9958 32.1218C53.841 31.9674 53.7182 31.7841 53.6344 31.5822C53.5505 31.3804 53.5073 31.164 53.5072 30.9454C53.507 30.7268 53.55 30.5104 53.6336 30.3084C53.7172 30.1065 53.8399 29.923 53.9944 29.7685C54.149 29.614 54.3326 29.4914 54.5346 29.4079C54.7366 29.3244 54.953 29.2815 55.1716 29.2818C55.3902 29.282 55.6066 29.3253 55.8084 29.4093L59.8016 31.0635C60.0037 31.1468 60.1874 31.2691 60.3421 31.4235C60.4969 31.5778 60.6197 31.7611 60.7036 31.963C60.7874 32.1649 60.8306 32.3813 60.8308 32.5998C60.8309 32.8184 60.7879 33.0349 60.7043 33.2368C60.6207 33.4388 60.4981 33.6222 60.3435 33.7767C60.1889 33.9313 60.0053 34.0538 59.8034 34.1373C59.6014 34.2208 59.3849 34.2637 59.1663 34.2634C58.9477 34.2632 58.7314 34.2199 58.5295 34.1359L58.0691 33.9452L56.499 37.7336C56.4835 37.7716 56.4554 37.7995 56.437 37.8356C58.4424 38.9791 60.1039 40.6402 61.2477 42.6453C61.2839 42.6275 61.3075 42.5953 61.3451 42.5799L65.1339 41.0112L64.9428 40.5493C64.7741 40.1419 64.7742 39.6841 64.943 39.2768C65.1118 38.8694 65.4356 38.5458 65.843 38.3771C66.2504 38.2084 66.7082 38.2085 67.1156 38.3773C67.5229 38.5461 67.8465 38.8698 68.0152 39.2773L68.8416 41.2737C68.8423 41.2742 68.8431 41.2746 68.8431 41.2754V41.2772L69.6695 43.272C69.7534 43.4738 69.7967 43.6902 69.797 43.9087C69.7972 44.1273 69.7544 44.3438 69.6708 44.5458C69.5873 44.7478 69.4648 44.9313 69.3103 45.0859C69.1558 45.2405 68.9723 45.3631 68.7704 45.4467C68.5684 45.5303 68.352 45.5733 68.1334 45.5732C67.9148 45.5731 67.6984 45.5298 67.4966 45.446C67.2947 45.3622 67.1114 45.2393 66.957 45.0846C66.8027 44.9298 66.6804 44.7461 66.5971 44.544L66.4067 44.0836L62.6172 45.6523C62.5796 45.6678 62.5405 45.6626 62.5028 45.6751C63.1123 47.9035 63.1118 50.2546 62.5013 52.4827Z" fill="#49AF62"/>
<path fill-rule="evenodd" clip-rule="evenodd" d="M50.0695 43.6485C48.5269 43.6485 47.2764 44.899 47.2764 46.4415C47.2764 47.9841 48.5269 49.2346 50.0695 49.2346C51.612 49.2346 52.8625 47.9841 52.8625 46.4415C52.8625 44.899 51.612 43.6485 50.0695 43.6485ZM44.4834 46.4415C44.4834 43.3564 46.9844 40.8555 50.0695 40.8555C53.1546 40.8555 55.6556 43.3564 55.6556 46.4415C55.6556 49.5266 53.1546 52.0276 50.0695 52.0276C46.9844 52.0276 44.4834 49.5266 44.4834 46.4415Z" fill="#49AF62"/>
<path fill-rule="evenodd" clip-rule="evenodd" d="M50.0694 49.2344C50.8406 49.2344 51.4659 49.8596 51.4659 50.6309V56.3915C51.4659 57.1628 50.8406 57.7881 50.0694 57.7881C49.2981 57.7881 48.6729 57.1628 48.6729 56.3915V50.6309C48.6729 49.8596 49.2981 49.2344 50.0694 49.2344Z" fill="#49AF62"/>
</svg>
