<svg width="100" height="100" viewBox="0 0 100 100" fill="none" xmlns="http://www.w3.org/2000/svg">
<rect x="0.5" y="0.5" width="99" height="99" rx="11.5" stroke="#49AF62"/>
<path d="M64.0297 17.1686C64.2613 16.6672 64.8563 16.4472 65.351 16.6929C72.9164 20.4496 78.8997 26.7956 82.2008 34.5945C85.6319 42.7009 85.9188 51.795 83.0054 60.1015C80.092 68.4079 74.1874 75.3305 66.4444 79.5176C58.7015 83.7047 49.676 84.8559 41.1299 82.7463L43.8407 71.7646C49.6552 73.1999 55.7959 72.4167 61.064 69.5679C66.3321 66.7191 70.3494 62.0092 72.3316 56.3577C74.3138 50.7062 74.1186 44.5189 71.7841 39.0035C69.5799 33.7958 65.6177 29.5403 60.6054 26.9678C60.114 26.7157 59.8941 26.1233 60.1256 25.6219L64.0297 17.1686Z" fill="#49AF62"/>
<path d="M28.5626 78.223C28.0573 77.9212 28.0573 77.1893 28.5626 76.8875L43.1846 68.1544C43.703 67.8447 44.3612 68.2182 44.3612 68.8221L44.3612 86.2884C44.3612 86.8923 43.703 87.2658 43.1846 86.9562L28.5626 78.223Z" fill="#49AF62"/>
<rect x="46.8892" y="13" width="4.66667" height="10.1111" rx="2" fill="#49AF62"/>
<rect x="30.5557" y="18.4443" width="4.66667" height="10.1111" rx="2" transform="rotate(-30 30.5557 18.4443)" fill="#49AF62"/>
<rect x="18.8887" y="31.8193" width="4.66667" height="10.1111" rx="2" transform="rotate(-60 18.8887 31.8193)" fill="#49AF62"/>
<rect x="15" y="49.5557" width="4.66667" height="10.1111" rx="2" transform="rotate(-90 15 49.5557)" fill="#49AF62"/>
<rect x="20.4443" y="66.4297" width="4.66667" height="10.1111" rx="2" transform="rotate(-120 20.4443 66.4297)" fill="#49AF62"/>
<path d="M51.3794 54.9117C50.8271 54.9117 50.3794 54.464 50.3794 53.9117V51.4349C50.3794 51.2451 50.4334 51.0592 50.5351 50.899L59.5308 36.7268C59.7143 36.4378 60.0328 36.2627 60.3751 36.2627H63.0735V41.4773H61.1512L55.1963 50.9013V51.078H67.6196C68.1719 51.078 68.6196 51.5258 68.6196 52.078V53.9117C68.6196 54.464 68.1719 54.9117 67.6196 54.9117H51.3794ZM62.2396 58.889C61.6873 58.889 61.2396 58.4412 61.2396 57.889V53.7627L61.3279 52.0944V36.2627H64.8134C65.3657 36.2627 65.8134 36.7104 65.8134 37.2627V57.889C65.8134 58.4412 65.3657 58.889 64.8134 58.889H62.2396Z" fill="#49AF62"/>
<path d="M32.6116 58.8887C32.0593 58.8887 31.6116 58.441 31.6116 57.8887V55.8787C31.6116 55.6001 31.7278 55.3342 31.9322 55.1449L39.6656 47.9844C40.3505 47.3215 40.925 46.7249 41.389 46.1946C41.8604 45.6643 42.2176 45.145 42.4607 44.6368C42.7038 44.1213 42.8253 43.5652 42.8253 42.9686C42.8253 42.3057 42.6743 41.7349 42.3723 41.2562C42.0703 40.77 41.6579 40.3981 41.1349 40.1403C40.612 39.8752 40.0191 39.7426 39.3562 39.7426C38.6639 39.7426 38.0599 39.8825 37.5443 40.1624C37.0288 40.4423 36.631 40.8437 36.3512 41.3666C36.2089 41.6324 36.1029 41.9238 36.0329 42.2408C35.9139 42.7802 35.4836 43.2337 34.9313 43.2337H32.3906C31.8383 43.2337 31.3833 42.7845 31.4447 42.2356C31.564 41.1679 31.8811 40.2154 32.396 39.378C33.0662 38.2879 34.0053 37.4446 35.2132 36.848C36.4211 36.2514 37.8132 35.9531 39.3894 35.9531C41.0097 35.9531 42.4202 36.2404 43.6207 36.8149C44.8287 37.382 45.7677 38.1701 46.438 39.1791C47.1082 40.1882 47.4433 41.3445 47.4433 42.6482C47.4433 43.5026 47.2739 44.3459 46.9351 45.1782C46.6037 46.0105 46.0108 46.9348 45.1564 47.9512C44.302 48.9603 43.0978 50.1719 41.5437 51.586L38.2404 54.8231V54.9777H46.7416C47.2939 54.9777 47.7416 55.4255 47.7416 55.9777V57.8887C47.7416 58.441 47.2939 58.8887 46.7416 58.8887H32.6116Z" fill="#49AF62"/>
</svg>
