<svg width="100" height="100" viewBox="0 0 100 100" fill="none" xmlns="http://www.w3.org/2000/svg">
<rect x="0.5" y="0.5" width="99" height="99" rx="11.5" stroke="#49AF62"/>
<path d="M78.16 39.152L72.4 35.3867V21.2C72.4 20.3513 72.0629 19.5374 71.4628 18.9373C70.8626 18.3371 70.0487 18 69.2 18H30.8C29.9513 18 29.1374 18.3371 28.5373 18.9373C27.9372 19.5374 27.6 20.3513 27.6 21.2V35.3867L21.776 39.2053C20.5998 40.1029 19.647 41.2603 18.992 42.587C18.337 43.9136 17.9975 45.3738 18 46.8533V72.4C18.0169 74.9501 19.0411 77.3902 20.8493 79.1884C22.6575 80.9866 25.1032 81.9972 27.6533 82H72.4C74.9409 81.9832 77.373 80.9664 79.1697 79.1697C80.9664 77.373 81.9832 74.9409 82 72.4V46.8533C82.0033 45.3594 81.6579 43.8853 80.9913 42.5483C80.3247 41.2113 79.3552 40.0484 78.16 39.152ZM72.4 45.4667L77.232 41.2C77.7843 41.6573 78.2628 42.1969 78.6507 42.8L72.4 48.3147V45.4667ZM22.7573 41.2L27.6 45.4667V48.3253L21.3493 42.7573C21.7366 42.157 22.2111 41.6178 22.7573 41.1573V41.2ZM21.808 77.072C21.3604 76.5071 21.0007 75.8778 20.7413 75.2053L37.616 60.0587L39.216 61.4773L21.808 77.072ZM56.1653 57.296C54.4645 55.7903 52.2715 54.9591 50 54.9591C47.7285 54.9591 45.5355 55.7903 43.8347 57.296L40.7413 60.0267L29.7333 50.224V21.2C29.7333 20.9171 29.8457 20.6458 30.0458 20.4458C30.2458 20.2457 30.5171 20.1333 30.8 20.1333H69.2C69.4829 20.1333 69.7542 20.2457 69.9543 20.4458C70.1543 20.6458 70.2667 20.9171 70.2667 21.2V50.224L59.312 59.984L56.1653 57.296ZM78.4373 76.7307L60.8907 61.424L62.5014 59.9947L79.4507 74.7787C79.2281 75.4829 78.8852 76.1434 78.4373 76.7307Z" fill="#49AF62"/>
<path d="M50.0005 23.334C47.2579 23.334 44.5769 24.1473 42.2966 25.6709C40.0162 27.1946 38.2389 29.3603 37.1893 31.8941C36.1398 34.4279 35.8652 37.216 36.4002 39.9059C36.9353 42.5958 38.256 45.0666 40.1952 47.0059C42.1345 48.9452 44.6053 50.2658 47.2952 50.8009C49.9851 51.3359 52.7732 51.0613 55.307 50.0118C57.8408 48.9622 60.0065 47.1849 61.5302 44.9046C63.0539 42.6242 63.8671 39.9432 63.8671 37.2007C63.8671 33.523 62.4062 29.9959 59.8057 27.3954C57.2052 24.7949 53.6781 23.334 50.0005 23.334ZM41.9151 37.2007C41.9151 35.0563 42.767 32.9998 44.2833 31.4835C45.7996 29.9672 47.8561 29.1153 50.0005 29.1153C51.137 29.1103 52.2612 29.3504 53.2965 29.8193L42.6298 40.486C42.1587 39.4548 41.915 38.3343 41.9151 37.2007ZM50.0005 45.286C48.864 45.291 47.7397 45.0509 46.7045 44.582L57.3711 33.9153C57.8422 34.9465 58.0859 36.067 58.0858 37.2007C58.0858 39.345 57.2339 41.4016 55.7177 42.9178C54.2014 44.4341 52.1448 45.286 50.0005 45.286Z" fill="#49AF62"/>
</svg>
