<svg width="108" height="108" viewBox="0 0 108 108" fill="none" xmlns="http://www.w3.org/2000/svg">
<g filter="url(#filter0_d_821_2485)">
<rect x="4.5" y="0.5" width="99" height="99" rx="11.5" stroke="#49AF62" shape-rendering="crispEdges"/>
<path d="M69.1665 46.5H38.8332C38.5238 46.5 38.227 46.6229 38.0082 46.8417C37.7894 47.0605 37.6665 47.3572 37.6665 47.6667C37.6665 47.9761 37.7894 48.2728 38.0082 48.4916C38.227 48.7104 38.5238 48.8333 38.8332 48.8333H69.1665C69.4759 48.8333 69.7727 48.7104 69.9915 48.4916C70.2103 48.2728 70.3332 47.9761 70.3332 47.6667C70.3332 47.3572 70.2103 47.0605 69.9915 46.8417C69.7727 46.6229 69.4759 46.5 69.1665 46.5Z" fill="#49AF62"/>
<path d="M84.8 38.135L78.5 34.0167V18.5C78.5 17.5717 78.1313 16.6815 77.4749 16.0251C76.8185 15.3687 75.9283 15 75 15H33C32.0718 15 31.1815 15.3687 30.5251 16.0251C29.8688 16.6815 29.5 17.5717 29.5 18.5V34.0167L23.13 38.1933C21.8435 39.1751 20.8014 40.4409 20.085 41.892C19.3686 43.343 18.9972 44.9401 19 46.5583V74.5C19.0185 77.2892 20.1387 79.958 22.1164 81.9248C24.0941 83.8916 26.7691 84.997 29.5583 85H78.5C81.2791 84.9817 83.9392 83.8695 85.9044 81.9043C87.8695 79.9392 88.9817 77.2791 89 74.5V46.5583C89.0036 44.9243 88.6259 43.312 87.8967 41.8497C87.1676 40.3874 86.1072 39.1154 84.8 38.135ZM78.5 45.0417L83.785 40.375C84.3891 40.8751 84.9125 41.4654 85.3367 42.125L78.5 48.1567V45.0417ZM24.2033 40.375L29.5 45.0417V48.1683L22.6633 42.0783C23.0869 41.4217 23.6059 40.8319 24.2033 40.3283V40.375ZM23.165 79.61C22.6754 78.9922 22.2821 78.3038 21.9983 77.5683L40.455 61.0017L42.205 62.5533L23.165 79.61ZM60.7433 57.98C58.8831 56.3332 56.4845 55.424 54 55.424C51.5155 55.424 49.1169 56.3332 47.2567 57.98L43.8733 60.9667L31.8333 50.245V18.5C31.8333 18.1906 31.9563 17.8938 32.1751 17.675C32.3939 17.4562 32.6906 17.3333 33 17.3333H75C75.3094 17.3333 75.6062 17.4562 75.825 17.675C76.0438 17.8938 76.1667 18.1906 76.1667 18.5V50.245L64.185 60.92L60.7433 57.98ZM85.1033 79.2367L65.9117 62.495L67.6733 60.9317L86.2117 77.1017C85.9682 77.872 85.5932 78.5943 85.1033 79.2367Z" fill="#49AF62"/>
<path d="M53.8826 30.8824C56.6115 30.8824 58.8238 28.6701 58.8238 25.9412C58.8238 23.2122 56.6115 21 53.8826 21C51.1536 21 48.9414 23.2122 48.9414 25.9412C48.9414 28.6701 51.1536 30.8824 53.8826 30.8824Z" fill="#49AF62"/>
<path d="M63.7647 39.529V40.7642C63.7647 41.0919 63.6346 41.4061 63.4029 41.6377C63.1712 41.8694 62.857 41.9995 62.5294 41.9995H45.2353C44.9077 41.9995 44.5935 41.8694 44.3618 41.6377C44.1301 41.4061 44 41.0919 44 40.7642V39.529C44 37.5632 44.7809 35.678 46.1709 34.288C47.5608 32.8981 49.446 32.1172 51.4118 32.1172H56.3529C58.3187 32.1172 60.2039 32.8981 61.5939 34.288C62.9838 35.678 63.7647 37.5632 63.7647 39.529Z" fill="#49AF62"/>
</g>
<defs>
<filter id="filter0_d_821_2485" x="0" y="0" width="108" height="108" filterUnits="userSpaceOnUse" color-interpolation-filters="sRGB">
<feFlood flood-opacity="0" result="BackgroundImageFix"/>
<feColorMatrix in="SourceAlpha" type="matrix" values="0 0 0 0 0 0 0 0 0 0 0 0 0 0 0 0 0 0 127 0" result="hardAlpha"/>
<feOffset dy="4"/>
<feGaussianBlur stdDeviation="2"/>
<feComposite in2="hardAlpha" operator="out"/>
<feColorMatrix type="matrix" values="0 0 0 0 0 0 0 0 0 0 0 0 0 0 0 0 0 0 0.25 0"/>
<feBlend mode="normal" in2="BackgroundImageFix" result="effect1_dropShadow_821_2485"/>
<feBlend mode="normal" in="SourceGraphic" in2="effect1_dropShadow_821_2485" result="shape"/>
</filter>
</defs>
</svg>
