<svg width="100" height="100" viewBox="0 0 100 100" fill="none" xmlns="http://www.w3.org/2000/svg">
<rect x="0.5" y="0.5" width="99" height="99" rx="11.5" stroke="#49AF62"/>
<path fill-rule="evenodd" clip-rule="evenodd" d="M15.7853 62.5935C17.6242 67.0329 20.3194 71.0666 23.7172 74.4644L49.5908 48.5908L75.4644 22.7172C72.0666 19.3194 68.0329 16.6242 63.5935 14.7853C59.1541 12.9465 54.396 12 49.5908 12C44.7856 12 40.0275 12.9464 35.5881 14.7853C31.1487 16.6242 27.115 19.3194 23.7172 22.7172C20.3194 26.1149 17.6242 30.1487 15.7853 34.5881C13.9465 39.0275 13 43.7856 13 48.5908C13 53.3959 13.9464 58.1541 15.7853 62.5935ZM36.837 28.0403C37.4587 27.985 37.9449 27.907 38.2888 27.8061C38.7907 27.6396 39.2951 27.307 39.797 26.8108C40.3828 26.2308 40.816 25.5956 41.0938 24.905C41.3636 24.2145 41.4987 23.5893 41.4987 23.0277C41.4987 22.9955 41.4969 22.9582 41.4948 22.9137C41.4944 22.9056 41.494 22.8972 41.4936 22.8886C41.4885 22.8334 41.486 22.7868 41.486 22.7504C41.4757 22.7227 41.463 22.6724 41.4503 22.5991C41.4377 22.5257 41.4246 22.4729 41.4144 22.4466C39.7766 22.8232 38.6149 23.505 37.9272 24.4918C37.2266 25.485 36.865 26.6683 36.837 28.0403ZM43.5798 34.4071C43.5798 35.5486 43.9008 36.5769 44.5425 37.4871C45.1846 38.3993 45.9181 38.9789 46.7486 39.2286C46.3844 40.3793 45.8114 41.5295 45.0317 42.6802C43.8293 44.485 42.635 45.3868 41.4428 45.3868C40.9866 45.3868 40.3344 45.2397 39.4887 44.9447C38.689 44.6509 37.986 44.5035 37.382 44.5035C36.8141 44.5035 36.1517 44.6552 35.3979 44.9598C34.6461 45.2724 34.0299 45.4287 33.5559 45.4287C32.1422 45.4287 30.7413 44.2365 29.3554 41.8522C27.9875 39.4478 27.3022 37.1343 27.3022 34.9033C27.3022 32.8065 27.827 31.0825 28.879 29.7391C29.9234 28.4132 31.243 27.7507 32.8453 27.7507C33.5153 27.7507 34.3382 27.8878 35.3161 28.1644C36.2842 28.4413 36.9259 28.5784 37.2419 28.5784C37.6598 28.5784 38.3274 28.4237 39.2391 28.1086C40.1866 27.796 40.9917 27.6397 41.6516 27.6397C42.7595 27.6397 43.7505 27.9397 44.6268 28.5373C45.1108 28.87 45.5945 29.3285 46.0786 29.9184C45.3426 30.5356 44.8127 31.0775 44.4866 31.5489C43.8806 32.4133 43.5798 33.3663 43.5798 34.4071Z" fill="#49AF62"/>
<path fill-rule="evenodd" clip-rule="evenodd" d="M87.7861 50.4097C87.7861 40.7052 83.931 31.3982 77.0689 24.5361L51.1954 50.4097L25.3218 76.2833C32.1839 83.1454 41.4909 87.0005 51.1954 87.0005C60.8998 87.0005 70.2068 83.1454 77.0689 76.2833C83.931 69.4212 87.7861 60.1142 87.7861 50.4097ZM61.1824 70.665L52.2677 69.438V62.5601H61.1824V70.665ZM61.1824 61.4023H52.2677V54.5235L61.1824 53.2965V61.4023ZM74.3626 72.4792L62.4008 70.8329V62.5601H74.3626V72.4792ZM62.4008 61.4023V53.1283L74.3626 51.4828V61.4023H62.4008Z" fill="#49AF62"/>
</svg>
