<svg width="100" height="100" viewBox="0 0 100 100" fill="none" xmlns="http://www.w3.org/2000/svg">
<rect x="0.5" y="0.5" width="99" height="99" rx="11.5" stroke="#49AF62"/>
<path d="M38.6488 47.2378C39.7303 46.3567 40.2204 44.6439 39.6188 43.2613L34.5423 31.4257C33.8785 29.9108 32.06 29.0736 30.6437 29.4397L19.6617 31.9697C18.1082 32.3247 17.0164 33.6961 17.0144 35.2964C17.0255 62.788 39.4143 85.1748 66.903 85.1849C68.5024 85.1858 69.8676 84.1001 70.2229 82.5469L72.7519 71.5619C73.119 69.9713 72.2928 68.3191 70.7767 67.6645L58.9501 62.5926C57.5567 61.9891 55.9198 62.394 54.9736 63.5686L50.1751 69.4323C42.6321 65.7224 36.489 59.5793 32.7865 52.0377L38.6488 47.2378Z" fill="#49AF62"/>
<path d="M47.6152 47.7298C47.5758 46.7132 48.3867 45.7515 49.4174 45.5778C51.6856 45.2098 53.825 45.8361 55.2964 47.3074C56.7678 48.7788 57.3961 50.9197 57.0233 53.1865C56.9493 53.6328 56.7241 54.041 56.4111 54.354C56.0045 54.7606 55.4462 55.0108 54.8712 54.9887C53.8524 54.9547 53.1636 54.0901 53.3341 53.0562C53.5216 51.9186 53.2127 50.8481 52.4839 50.1193C51.7557 49.3911 50.6846 49.0816 49.547 49.2691C48.5123 49.4411 47.6489 48.7535 47.6152 47.7298Z" fill="#49AF62"/>
<path d="M47.3129 40.3427C47.2809 39.3218 48.0928 38.3623 49.1201 38.1921C53.7034 37.4914 57.8956 38.6608 60.8743 41.6396C63.853 44.6183 65.1149 48.9029 64.3241 53.3961C64.2501 53.8458 64.0267 54.2522 63.7118 54.567C63.3052 54.9736 62.7487 55.222 62.1735 55.2033C61.1547 55.1693 60.4659 54.3048 60.6346 53.2726C61.1905 49.8602 60.256 46.6481 58.0621 44.4541C55.8681 42.2602 52.655 41.3236 49.2436 41.8816C48.2113 42.0502 47.3469 41.3615 47.3129 40.3427Z" fill="#49AF62"/>
<path d="M61.7375 16.86C61.7375 15.5176 61.1932 14.3027 60.3145 13.424C59.4349 12.5443 58.2199 12 56.8776 12C55.5352 12 54.3202 12.5443 53.4406 13.424C52.5619 14.3027 52.0176 15.5176 52.0176 16.86C52.0176 18.2023 52.5619 19.4173 53.4406 20.296C54.3202 21.1756 55.5352 21.7199 56.8776 21.7199C58.2199 21.7199 59.4349 21.1756 60.3145 20.296C61.1932 19.4173 61.7375 18.2023 61.7375 16.86Z" fill="#49AF62"/>
<path d="M51.0457 26.5804C51.0457 27.5524 53.2326 28.5243 56.8776 28.5243C60.2971 28.5243 62.7096 27.5524 62.7096 26.5804C62.7096 24.6364 60.4215 22.6924 56.8776 22.6924C53.2326 22.6924 51.0457 24.6364 51.0457 26.5804Z" fill="#49AF62"/>
<path d="M83.7556 41.498C83.7556 40.0973 83.1876 38.8295 82.2707 37.9126C81.3528 36.9947 80.085 36.4268 78.6843 36.4268C77.2836 36.4268 76.0158 36.9947 75.0979 37.9126C74.181 38.8295 73.613 40.0973 73.613 41.498C73.613 42.8987 74.181 44.1665 75.0979 45.0834C76.0158 46.0013 77.2836 46.5693 78.6843 46.5693C80.085 46.5693 81.3528 46.0013 82.2707 45.0834C83.1876 44.1665 83.7556 42.8987 83.7556 41.498Z" fill="#49AF62"/>
<path d="M72.5986 51.641C72.5986 52.6553 74.8807 53.6695 78.6842 53.6695C82.2523 53.6695 84.7697 52.6553 84.7697 51.641C84.7697 49.6125 82.3821 47.584 78.6842 47.584C74.8807 47.584 72.5986 49.6125 72.5986 51.641Z" fill="#49AF62"/>
<path fill-rule="evenodd" clip-rule="evenodd" d="M48.7223 24.8153C49.1835 25.1193 49.3109 25.7395 49.0069 26.2006L47.3401 31.2155C47.0362 31.6766 46.416 31.8041 45.9548 31.5001C45.4937 31.1962 45.3663 30.576 45.6702 30.1148L45.9548 27.197C44.6861 27.5455 43.6299 27.9427 42.6608 28.47C41.3556 29.1801 40.1614 30.1526 38.8173 31.6449C38.4476 32.0553 37.8184 32.1122 37.3955 31.7569V31.7569C36.9727 31.4017 36.9163 30.7692 37.2849 30.3579C38.7549 28.7177 40.1344 27.5677 41.7049 26.7132C42.9093 26.0578 44.1974 25.5923 45.6737 25.2013L41.5 23.5001C41.0389 23.1962 40.9114 22.576 41.2154 22.1148C41.5193 21.6537 42.1395 21.5263 42.6007 21.8302L48.7223 24.8153Z" fill="#49AF62"/>
<path fill-rule="evenodd" clip-rule="evenodd" d="M77.0125 33.4297C76.9339 33.9764 76.427 34.3558 75.8803 34.2772L70.0022 33.8867C69.4556 33.808 69.0761 33.3012 69.1547 32.7545C69.2334 32.2078 69.7403 31.8284 70.2869 31.907L73.679 31.94C72.8234 30.9405 72.0142 30.154 71.1244 29.5017C69.926 28.6232 68.5376 27.9569 66.6149 27.3763C66.0862 27.2166 65.7667 26.6715 65.9081 26.1376V26.1376C66.0494 25.6037 66.5977 25.2834 67.1268 25.4417C69.2368 26.0732 70.8648 26.8316 72.3068 27.8887C73.4127 28.6993 74.3824 29.6665 75.365 30.8357L76.0767 27.5425C76.1553 26.9958 76.6622 26.6164 77.2088 26.695C77.7555 26.7736 78.1349 27.2805 78.0563 27.8272L77.0125 33.4297Z" fill="#49AF62"/>
<path fill-rule="evenodd" clip-rule="evenodd" d="M69.7875 64.7095C69.2362 64.6769 68.8158 64.2035 68.8484 63.6522L68.2885 58.247C68.3212 57.6957 68.7946 57.2752 69.3459 57.3079C69.8972 57.3405 70.3177 57.8139 70.285 58.3653L70.9963 61.214C71.5011 60.664 71.9107 60.1345 72.2531 59.5746C72.8057 58.6711 73.2082 57.6468 73.5207 56.2633C73.6423 55.7246 74.1576 55.3606 74.7014 55.4568V55.4568C75.2452 55.5531 75.6112 56.073 75.492 56.6122C75.1421 58.1956 74.6658 59.4629 73.9593 60.6181C73.4746 61.4106 72.8939 62.1297 72.2045 62.8492L74.9074 63.2505C75.4587 63.2831 75.8792 63.7565 75.8466 64.3078C75.8139 64.8592 75.3405 65.2796 74.7892 65.247L69.7875 64.7095Z" fill="#49AF62"/>
</svg>
