<svg width="100" height="100" viewBox="0 0 100 100" fill="none" xmlns="http://www.w3.org/2000/svg">
<rect x="0.5" y="0.5" width="99" height="99" rx="11.5" stroke="#49AF62"/>
<path d="M45 21.8181C44.498 21.8181 44.091 22.2251 44.091 22.7272C44.091 23.2293 44.498 23.6363 45 23.6363H62.2728C62.7749 23.6363 63.1819 23.2293 63.1819 22.7272C63.1819 22.2251 62.7748 21.8181 62.2728 21.8181H45Z" fill="#49AF62"/>
<path d="M64.5453 22.7272C64.5453 22.2251 64.9523 21.8181 65.4544 21.8181H76.818C77.3201 21.8181 77.7271 22.2251 77.7271 22.7272C77.7271 23.2293 77.3201 23.6363 76.818 23.6363H65.4544C64.9523 23.6363 64.5453 23.2293 64.5453 22.7272Z" fill="#49AF62"/>
<path d="M26.5543 47.159H28.1074C28.9615 47.159 29.6604 47.8579 29.6604 48.712C29.6604 49.5662 28.9615 50.265 28.1074 50.265H26.5543C25.7002 50.265 25.0013 49.5662 25.0013 48.712C25.0013 47.8579 25.7002 47.159 26.5543 47.159Z" fill="#49AF62"/>
<path d="M34.3193 45.606H32.7663C31.9121 45.606 31.2133 46.3049 31.2133 47.159V48.7121C31.2133 49.5662 31.9121 50.2651 32.7663 50.2651H34.3193C35.1735 50.2651 35.8723 49.5662 35.8723 48.7121V47.159C35.8723 46.3049 35.1735 45.606 34.3193 45.606Z" fill="#49AF62"/>
<path d="M38.9782 42.4999H40.5313C41.3854 42.4999 42.0843 43.1988 42.0843 44.053V48.712C42.0843 49.5662 41.3854 50.2651 40.5313 50.2651H38.9782C38.1241 50.2651 37.4252 49.5662 37.4252 48.712V44.053C37.4252 43.1988 38.1241 42.4999 38.9782 42.4999Z" fill="#49AF62"/>
<path d="M41.3081 34.7348H36.1831C35.4843 34.7348 35.1737 35.5889 35.6396 36.0549L37.1149 37.5302C34.2418 40.7916 30.1263 43.2764 25.7778 43.2764C25.3119 43.2764 25.0013 43.5871 25.0013 44.053C25.0013 44.5189 25.3119 44.8295 25.7778 44.8295C30.9805 44.8295 35.7949 43.3541 39.2892 39.7045L40.6869 41.1022C41.1528 41.5681 42.007 41.2575 42.007 40.5586V35.5113C42.0846 35.0454 41.774 34.7348 41.3081 34.7348Z" fill="#49AF62"/>
<path d="M32.3633 67.909C32.4087 67.8636 32.4997 67.8636 32.5906 67.909C32.6815 67.9545 32.7269 68 32.7269 68.0909V73.1818C32.7269 73.2727 32.6815 73.3181 32.5906 73.3636C32.4997 73.409 32.4087 73.409 32.3633 73.3636L30.7724 72.1363V72.6818C30.7724 73.409 30.1815 74 29.4542 74H23.5906C22.8633 74 22.2724 73.409 22.2724 72.6818V68.5909C22.2724 67.8636 22.8633 67.2727 23.5906 67.2727H29.4542C30.1815 67.2727 30.7724 67.8636 30.7724 68.5909V69.1363L32.3633 67.909Z" fill="#49AF62"/>
<path d="M38.9293 70.5028V66.6C38.9293 65.4655 39.8711 64.5454 41.0327 64.5454C42.1943 64.5454 43.1361 65.4655 43.1361 66.6V70.5028C43.1361 71.6373 42.1943 72.5574 41.0327 72.5574C39.8711 72.5574 38.9293 71.6373 38.9293 70.5028Z" fill="#49AF62"/>
<path d="M37.1108 70.5083L37.1135 70.1392C37.1135 69.857 37.3523 69.6263 37.64 69.6263C37.9304 69.6263 38.1692 69.857 38.1692 70.1392V70.5083C38.1692 71.2791 38.4841 71.9767 39.0025 72.4842C39.5209 72.9917 40.2238 73.3038 41.0163 73.3038C41.8088 73.3038 42.5172 72.989 43.0383 72.4842C43.5567 71.9767 43.8688 71.2819 43.8688 70.5083V70.1392C43.8688 69.8542 44.1104 69.6263 44.3981 69.6263C44.6858 69.6263 44.9273 69.857 44.9273 70.1392V70.5083C44.9273 72.2888 43.6788 73.7815 41.9934 74.2049C41.9554 74.2076 41.9201 74.2185 41.8875 74.2293C41.7274 74.2836 41.6161 74.4139 41.5618 74.574V76.1699C41.5618 76.4658 41.323 76.7046 41.0217 76.7046H41.019C40.7178 76.7046 40.4762 76.4658 40.4762 76.1699V74.5768C40.4219 74.4166 40.3079 74.2836 40.1478 74.2293C40.1152 74.2185 40.08 74.2076 40.0447 74.2049C38.3592 73.7815 37.1135 72.2888 37.1108 70.5083Z" fill="#49AF62"/>
<path d="M23.182 55.9091C22.4289 55.9091 21.8184 56.5197 21.8184 57.2728C21.8184 58.0259 22.4289 58.6364 23.182 58.6364H44.0911C44.8443 58.6364 45.4548 58.0259 45.4548 57.2728C45.4548 56.5197 44.8443 55.9091 44.0911 55.9091H23.182Z" fill="#49AF62"/>
<path fill-rule="evenodd" clip-rule="evenodd" d="M15 19.058C15 16.8168 16.8168 15 19.058 15H80.942C83.1832 15 85 16.8168 85 19.058V80.942C85 83.1832 83.1832 85 80.942 85H19.058C16.8168 85 15 83.1832 15 80.942V19.058ZM18.6362 22.7273C18.6362 21.7232 19.4502 20.9091 20.4544 20.9091C21.4585 20.9091 22.2726 21.7232 22.2726 22.7273C22.2726 23.7315 21.4585 24.5455 20.4544 24.5455C19.4502 24.5455 18.6362 23.7315 18.6362 22.7273ZM26.8179 20.9091C25.8138 20.9091 24.9997 21.7232 24.9997 22.7273C24.9997 23.7315 25.8138 24.5455 26.8179 24.5455C27.8221 24.5455 28.6361 23.7315 28.6361 22.7273C28.6361 21.7232 27.8221 20.9091 26.8179 20.9091ZM31.3633 22.7273C31.3633 21.7232 32.1773 20.9091 33.1815 20.9091C34.1856 20.9091 34.9997 21.7232 34.9997 22.7273C34.9997 23.7315 34.1856 24.5455 33.1815 24.5455C32.1773 24.5455 31.3633 23.7315 31.3633 22.7273ZM42.4837 18.6363C41.3632 18.6363 40.4548 19.5447 40.4548 20.6653V24.7891C40.4548 25.9097 41.3632 26.8181 42.4837 26.8181H79.3349C80.4554 26.8181 81.3639 25.9097 81.3639 24.7891V20.6653C81.3639 19.5447 80.4554 18.6363 79.3349 18.6363H42.4837ZM18.6362 32.4836C18.6362 31.363 19.5446 30.4546 20.6652 30.4546H46.6072C47.7278 30.4546 48.6362 31.363 48.6362 32.4836V79.3347C48.6362 80.4553 47.7278 81.3637 46.6072 81.3637H20.6652C19.5446 81.3637 18.6362 80.4553 18.6362 79.3347V32.4836ZM53.8475 57.7272C52.7269 57.7272 51.8185 58.6356 51.8185 59.7562V79.3346C51.8185 80.4552 52.7269 81.3636 53.8475 81.3636H58.2307C57.9704 79.5665 57.9139 78.4891 59.0715 76.9084C49.7197 63.2839 73.3765 55.4513 73.3765 72.3388C73.8046 74.9826 74.5962 76.081 76.754 77.5046L70.9923 77.7033C72.191 78.3124 72.387 79.2427 72.212 81.3636H79.7895C80.9101 81.3636 81.8185 80.4552 81.8185 79.3346V59.7562C81.8185 58.6356 80.9101 57.7272 79.7895 57.7272H53.8475ZM51.8185 32.4836C51.8185 31.363 52.7269 30.4546 53.8475 30.4546H79.7895C80.9101 30.4546 81.8185 31.363 81.8185 32.4836V52.062C81.8185 53.1825 80.9101 54.091 79.7895 54.091H74.2262C74.1051 51.1132 73.7483 49.5124 70.6348 48.3073C72.0831 47.56 72.0787 45.9219 72.071 43.0257C72.0684 42.0391 72.0653 40.9062 72.1192 39.6131C71.4797 35.171 68.1084 35.2714 61.9406 35.5841L61.9384 35.6344C61.5971 43.3986 61.4055 47.7581 62.7887 48.0954C59.9046 49.1461 59.1452 50.5476 59.1778 54.091H53.8475C52.7269 54.091 51.8185 53.1825 51.8185 52.062V32.4836ZM63.4175 41.3921H70.2033V44.785C70.2033 46.6588 68.6843 48.1779 66.8104 48.1779C64.9366 48.1779 63.4175 46.6588 63.4175 44.785V41.3921ZM60.86 70.9483L63.4428 68.3654C65.4503 70.3164 66.8446 70.7018 69.8006 70.1536C69.8006 76.9086 62.2392 78.4786 60.86 70.9483Z" fill="#49AF62"/>
</svg>
