<svg width="100" height="100" viewBox="0 0 100 100" fill="none" xmlns="http://www.w3.org/2000/svg">
<rect x="0.5" y="0.5" width="99" height="99" rx="11.5" stroke="#49AF62"/>
<path d="M50.5625 51.3134C50.6785 51.3134 50.7898 51.2674 50.8718 51.1853C50.9539 51.1033 51 50.992 51 50.8759V47.376C51 46.9118 50.8156 46.4667 50.4874 46.1385C50.1592 45.8103 49.7141 45.626 49.25 45.626H45.75C45.2859 45.626 44.8407 45.8103 44.5126 46.1385C44.1844 46.4667 44 46.9118 44 47.376V50.8759C44 50.992 44.0461 51.1033 44.1281 51.1853C44.2102 51.2674 44.3215 51.3134 44.4375 51.3134H50.5625Z" fill="#49AF62"/>
<path d="M61.0625 51.3134C61.1785 51.3134 61.2898 51.2673 61.3718 51.1853C61.4539 51.1032 61.5 50.9919 61.5 50.8759V38.626C61.5 38.1618 61.3156 37.7167 60.9874 37.3885C60.6592 37.0604 60.2141 36.876 59.75 36.876H56.25C55.7859 36.876 55.3407 37.0604 55.0126 37.3885C54.6844 37.7167 54.5 38.1618 54.5 38.626V50.8759C54.5 50.9919 54.5461 51.1032 54.6281 51.1853C54.7102 51.2673 54.8215 51.3134 54.9375 51.3134H61.0625Z" fill="#49AF62"/>
<path d="M71.5625 51.3134C71.6785 51.3134 71.7898 51.2673 71.8718 51.1853C71.9539 51.1032 72 50.992 72 50.8759V42.126C72 41.6618 71.8156 41.2167 71.4874 40.8885C71.1592 40.5604 70.7141 40.376 70.25 40.376H66.75C66.2859 40.376 65.8407 40.5604 65.5126 40.8885C65.1844 41.2167 65 41.6618 65 42.126V50.8759C65 50.992 65.0461 51.1032 65.1281 51.1853C65.2102 51.2673 65.3215 51.3134 65.4375 51.3134H71.5625Z" fill="#49AF62"/>
<path d="M82.0625 51.3134C82.1785 51.3134 82.2898 51.2673 82.3718 51.1852C82.4539 51.1032 82.5 50.9919 82.5 50.8759V29.876C82.5 29.4118 82.3156 28.9667 81.9874 28.6385C81.6592 28.3104 81.2141 28.126 80.75 28.126H77.25C76.7859 28.126 76.3407 28.3104 76.0126 28.6385C75.6844 28.9667 75.5 29.4118 75.5 29.876V50.8759C75.5 50.9919 75.5461 51.1032 75.6281 51.1852C75.7102 51.2673 75.8215 51.3134 75.9375 51.3134H82.0625Z" fill="#49AF62"/>
<path d="M48.375 38.6259C49.3032 38.6259 50.1935 38.2572 50.8498 37.6008C51.5062 36.9444 51.875 36.0542 51.875 35.126C51.871 34.769 51.812 34.4149 51.7 34.076L57.2422 29.456C57.9377 29.839 58.7449 29.9681 59.5252 29.8212C60.3055 29.6744 61.0104 29.2606 61.5192 28.651L65.8941 30.1105C65.9826 30.9943 66.4037 31.8114 67.0722 32.3962C67.7407 32.981 68.6065 33.2898 69.4942 33.26C70.3819 33.2302 71.2251 32.864 71.8528 32.2356C72.4806 31.6072 72.8459 30.7637 72.8749 29.876C72.8714 29.3191 72.7327 28.7714 72.4706 28.28L78.2228 21.5688C78.8967 21.928 79.6697 22.0562 80.4234 21.9339C81.1772 21.8115 81.87 21.4453 82.3956 20.8914C82.9212 20.3375 83.2506 19.6265 83.3333 18.8674C83.4159 18.1083 83.2474 17.343 82.8533 16.6889C82.4593 16.0348 81.8616 15.528 81.1519 15.2463C80.4422 14.9645 79.6597 14.9233 78.9243 15.129C78.1889 15.3347 77.5413 15.7759 77.0808 16.385C76.6203 16.9941 76.3723 17.7375 76.3748 18.501C76.3794 18.8403 76.4343 19.1771 76.5376 19.5003L70.4774 26.572C69.822 26.3384 69.1105 26.3128 68.4399 26.4985C67.7694 26.6842 67.1725 27.0723 66.7306 27.6097L62.3557 26.152C62.3281 25.6562 62.1951 25.172 61.9656 24.7316C61.736 24.2913 61.4152 23.905 61.0245 23.5986C60.6337 23.2921 60.1821 23.0725 59.6998 22.9545C59.2175 22.8364 58.7155 22.8226 58.2274 22.914C57.7393 23.0053 57.2763 23.1998 56.8694 23.4843C56.4624 23.7688 56.1208 24.1369 55.8674 24.5639C55.614 24.991 55.4546 25.4672 55.3998 25.9607C55.3451 26.4543 55.3963 26.9538 55.5499 27.426L50.013 32.053C49.5108 31.7771 48.9479 31.6303 48.375 31.626C47.4467 31.626 46.5565 31.9947 45.9001 32.6511C45.2437 33.3075 44.875 34.1977 44.875 35.126C44.875 36.0542 45.2437 36.9444 45.9001 37.6008C46.5565 38.2572 47.4467 38.6259 48.375 38.6259Z" fill="#49AF62"/>
<path d="M82.4998 53.501H44C43.5381 53.5082 43.0972 53.6949 42.7705 54.0215C42.4439 54.3482 42.2572 54.7891 42.25 55.251C42.25 55.7151 42.4344 56.1602 42.7626 56.4884C43.0907 56.8166 43.5359 57.001 44 57.001H82.4998C82.9639 57.001 83.409 56.8166 83.7372 56.4884C84.0654 56.1602 84.2498 55.7151 84.2498 55.251C84.243 54.789 84.0565 54.3478 83.7297 54.021C83.403 53.6943 82.9618 53.5078 82.4998 53.501Z" fill="#49AF62"/>
<path d="M68.4227 72.182L66.0384 82.5173C65.7035 83.9784 64.4192 85.0007 62.9148 85.0007C37.0429 84.9986 16 63.9588 16 38.0896C16 36.5865 17.0223 35.3007 18.4837 34.9675L28.8206 32.5836C30.326 32.2348 31.8642 33.0161 32.4898 34.4415L37.2603 45.5664C37.818 46.8768 37.4418 48.4035 36.3394 49.3037L30.8182 53.7362C34.3028 60.8336 40.0742 66.6042 47.1747 70.0903L51.695 64.574C52.5859 63.4687 54.1244 63.0863 55.4349 63.6538L66.5614 68.4226C67.8997 69.1265 68.7713 70.685 68.4227 72.182Z" fill="#49AF62"/>
</svg>
