<svg width="100" height="100" viewBox="0 0 100 100" fill="none" xmlns="http://www.w3.org/2000/svg">
<rect x="0.5" y="0.5" width="99" height="99" rx="11.5" stroke="#49AF62"/>
<path d="M85 49.999C85 30.6696 69.3301 15 50 15C30.67 15 15 30.6696 15 49.999L15.0323 51.514L15.1433 53.1852C15.5439 57.6209 16.7789 61.8925 18.7699 65.8155L19.0469 66.3391L15.0653 82.2799L15.005 82.6461L15.0057 83.0022C15.1147 84.2844 16.3618 85.2714 17.7173 84.9328L33.6637 80.9512L34.1918 81.2325C39.0446 83.6934 44.4297 84.998 50 84.998C69.3301 84.998 85 69.3285 85 49.999ZM32.5 41.2492C32.5 38.8331 34.4588 36.8744 36.875 36.8744H50C52.4163 36.8744 54.375 38.8331 54.375 41.2492V58.7487C54.375 61.165 52.4163 63.1236 50 63.1236H36.875C34.4588 63.1236 32.5 61.165 32.5 58.7487V41.2492ZM63.7655 40.6085C65.1436 39.2305 67.5 40.2065 67.5 42.1553V57.8427C67.5 59.7913 65.1436 60.7673 63.7655 59.3892L58.75 54.3739V45.6241L63.7655 40.6085Z" fill="#49AF62"/>
</svg>
