<svg width="100" height="100" viewBox="0 0 100 100" fill="none" xmlns="http://www.w3.org/2000/svg">
<rect x="0.5" y="0.5" width="99" height="99" rx="11.5" stroke="#49AF62"/>
<path d="M84.2485 46.243C82.6588 46.243 81.3009 47.2339 80.7545 48.6321H73.7827V42.0123H77.6018C78.3561 42.0123 78.9677 41.4 78.9677 40.6445C78.9677 39.889 78.3561 39.2767 77.6018 39.2767H73.7827V32.6569H77.6018C78.3561 32.6569 78.9677 32.0445 78.9677 31.2891C78.9677 30.5337 78.3561 29.9213 77.6018 29.9213H73.7827V29.5048C73.7827 27.6917 72.3151 26.222 70.5046 26.222H70.0341V22.3427C70.0341 21.5872 69.4227 20.9749 68.6683 20.9749C67.9139 20.9749 67.3024 21.5872 67.3024 22.3427V26.222H60.6922V19.2559C62.0884 18.7088 63.0779 17.349 63.0779 15.7569C63.0779 13.682 61.3982 12 59.3263 12C57.2544 12 55.5748 13.6821 55.5748 15.7569C55.5748 17.349 56.5642 18.7089 57.9605 19.2559V26.222H51.3502V22.3427C51.3502 21.5872 50.7386 20.9749 49.9843 20.9749C49.2299 20.9749 48.6185 21.5872 48.6185 22.3427V26.222H42.0082V19.2559C43.4044 18.7088 44.3938 17.349 44.3938 15.7569C44.3938 13.682 42.7142 12 40.6423 12C38.5704 12 36.8908 13.6821 36.8908 15.7569C36.8908 17.349 37.8803 18.7089 39.2765 19.2559V26.222H32.6662V22.3427C32.6662 21.5872 32.0547 20.9749 31.3004 20.9749C30.546 20.9749 29.9345 21.5872 29.9345 22.3427V26.222H29.464C27.6535 26.222 26.1859 27.6917 26.1859 29.5048V29.9213H22.3668C21.6124 29.9213 21.001 30.5337 21.001 31.2891C21.001 32.0445 21.6124 32.6569 22.3668 32.6569H26.1859V39.2767H22.3668C21.6124 39.2767 21.001 39.889 21.001 40.6445C21.001 41.4 21.6124 42.0123 22.3668 42.0123H26.1859V48.6321H19.2455C18.6992 47.2339 17.3414 46.243 15.7515 46.243C13.6796 46.243 12 47.9251 12 49.9999C12 52.0749 13.6797 53.7569 15.7515 53.7569C17.3412 53.7569 18.6992 52.766 19.2455 51.3678H26.1859V57.9876H22.3668C21.6124 57.9876 21.001 58.5999 21.001 59.3554C21.001 60.1109 21.6124 60.7232 22.3668 60.7232H26.1859V67.343H22.3668C21.6124 67.343 21.001 67.9555 21.001 68.7108C21.001 69.4663 21.6124 70.0786 22.3668 70.0786H26.1859V70.6046C26.1859 72.4177 27.6535 73.8874 29.464 73.8874H29.9345V77.6573C29.9345 78.4127 30.546 79.0251 31.3004 79.0251C32.0547 79.0251 32.6662 78.4127 32.6662 77.6573V73.8874H39.2765V80.7441C37.8803 81.2911 36.8908 82.651 36.8908 84.2431C36.8908 86.318 38.5704 88 40.6423 88C42.7143 88 44.3938 86.3179 44.3938 84.2431C44.3938 82.651 43.4044 81.2911 42.0082 80.7441V73.8874H48.6185V77.6573C48.6185 78.4127 49.2299 79.0251 49.9843 79.0251C50.7387 79.0251 51.3502 78.4127 51.3502 77.6573V73.8874H57.9605V80.7441C56.5642 81.2911 55.5748 82.651 55.5748 84.2431C55.5748 86.318 57.2545 88 59.3263 88C61.3982 88 63.0779 86.3179 63.0779 84.2431C63.0779 82.651 62.0885 81.2911 60.6922 80.7441V73.8874H67.3024V77.6573C67.3024 78.4127 67.9139 79.0251 68.6683 79.0251C69.4227 79.0251 70.0341 78.4127 70.0341 77.6573V73.8874H70.5046C72.3151 73.8874 73.7827 72.4177 73.7827 70.6046V70.0786H77.6018C78.3561 70.0786 78.9677 69.4663 78.9677 68.7108C78.9677 67.9555 78.3561 67.343 77.6018 67.343H73.7827V60.7232H77.6018C78.3561 60.7232 78.9677 60.1109 78.9677 59.3554C78.9677 58.5999 78.3561 57.9876 77.6018 57.9876H73.7827V51.3678H80.7545C81.3009 52.766 82.6586 53.7569 84.2485 53.7569C86.3204 53.7569 88 52.0748 88 49.9999C88 47.925 86.3204 46.243 84.2485 46.243ZM47.6918 33.2121H62.3295C63.0838 33.2121 63.6954 33.8245 63.6954 34.5799C63.6954 35.3354 63.0838 35.9478 62.3295 35.9478H47.6918C46.9374 35.9478 46.3259 35.3354 46.3259 34.5799C46.3259 33.8245 46.9375 33.2121 47.6918 33.2121ZM56.5326 46.4599C55.9992 45.9257 55.9992 45.0597 56.5326 44.5255C57.0661 43.9913 57.9308 43.9913 58.4642 44.5255L63.0743 49.1422C63.6076 49.6764 63.6076 50.5424 63.0743 51.0766L58.4642 55.6934C57.9308 56.2275 57.066 56.2275 56.5326 55.6934C55.9992 55.1591 55.9992 54.2931 56.5326 53.7589L60.177 50.1094L56.5326 46.4599ZM37.6391 33.2121H42.1514C42.9058 33.2121 43.5173 33.8245 43.5173 34.5799C43.5173 35.3354 42.9058 35.9478 42.1514 35.9478H37.6391C36.8847 35.9478 36.2733 35.3354 36.2733 34.5799C36.2733 33.8245 36.8848 33.2121 37.6391 33.2121ZM31.0082 29.8177C31.7626 29.8177 32.374 30.4302 32.374 31.1856C32.374 31.941 31.7626 32.5534 31.0082 32.5534C30.2538 32.5534 29.6423 31.941 29.6423 31.1856C29.6423 30.4302 30.2538 29.8177 31.0082 29.8177ZM31.0082 67.5559C31.7626 67.5559 32.374 68.1684 32.374 68.9238C32.374 69.6792 31.7626 70.2916 31.0082 70.2916C30.2538 70.2916 29.6423 69.6792 29.6423 68.9238C29.6423 68.1684 30.2538 67.5559 31.0082 67.5559ZM34.9188 56.094H31.9154C31.161 56.094 30.5496 55.4816 30.5496 54.7261C30.5496 53.9707 31.161 53.3583 31.9154 53.3583H34.9188C35.6732 53.3583 36.2846 53.9707 36.2846 54.7261C36.2846 55.4816 35.6732 56.094 34.9188 56.094ZM42.1514 66.8973H37.6391C36.8847 66.8973 36.2733 66.285 36.2733 65.5295C36.2733 64.774 36.8847 64.1617 37.6391 64.1617H42.1514C42.9058 64.1617 43.5173 64.774 43.5173 65.5295C43.5173 66.2849 42.9058 66.8973 42.1514 66.8973ZM43.4361 53.7589C43.9696 54.293 43.9696 55.1591 43.4361 55.6934C42.9027 56.2275 42.0379 56.2275 41.5046 55.6934L36.8944 51.0766C36.3611 50.5425 36.3611 49.6764 36.8944 49.1422L41.5046 44.5255C42.0379 43.9913 42.9028 43.9913 43.4361 44.5255C43.9696 45.0596 43.9696 45.9257 43.4361 46.4599L39.7919 50.1094L43.4361 53.7589ZM46.3943 56.6413L50.9802 42.7203C51.2165 42.0029 51.9888 41.6133 52.7052 41.8498C53.4216 42.0865 53.8107 42.8599 53.5744 43.5773L48.9886 57.4983C48.7522 58.2157 47.9799 58.6054 47.2635 58.3688C46.5472 58.1322 46.1581 57.3587 46.3943 56.6413ZM62.3296 66.8973H47.6918C46.9374 66.8973 46.3259 66.285 46.3259 65.5295C46.3259 64.774 46.9374 64.1617 47.6918 64.1617H62.3295C63.0838 64.1617 63.6954 64.774 63.6954 65.5295C63.6955 66.2849 63.0839 66.8973 62.3296 66.8973ZM63.6841 54.7261C63.6841 53.9707 64.2956 53.3583 65.05 53.3583H68.0533C68.8077 53.3583 69.4192 53.9707 69.4192 54.7261C69.4192 55.4816 68.8077 56.094 68.0533 56.094H65.05C64.2956 56.094 63.6841 55.4816 63.6841 54.7261ZM68.9606 70.2916C68.2062 70.2916 67.5947 69.6792 67.5947 68.9238C67.5947 68.1684 68.2062 67.5559 68.9606 67.5559C69.715 67.5559 70.3264 68.1684 70.3264 68.9238C70.3264 69.6792 69.715 70.2916 68.9606 70.2916ZM68.9606 32.5534C68.2062 32.5534 67.5947 31.941 67.5947 31.1856C67.5947 30.4302 68.2062 29.8177 68.9606 29.8177C69.715 29.8177 70.3264 30.4302 70.3264 31.1856C70.3264 31.941 69.715 32.5534 68.9606 32.5534Z" fill="#49AF62"/>
</svg>
