<svg width="100" height="100" viewBox="0 0 100 100" fill="none" xmlns="http://www.w3.org/2000/svg">
<rect x="0.5" y="0.5" width="99" height="99" rx="11.5" stroke="#49AF62"/>
<path fill-rule="evenodd" clip-rule="evenodd" d="M33.6857 17C41.0015 17 47.0193 22.799 47.5832 30.1424C49.82 30.8082 51.729 32.1704 53.0972 33.9714H49.5567C47.0197 33.9714 46.2632 36.0041 46.0378 37.2556C46.0187 37.1716 45.9928 37.0884 45.9598 37.007C45.7213 36.4155 45.1544 36.0286 44.5286 36.0286H42.8402C42.0982 31.5362 38.2815 28.1 33.6857 28.1C32.3923 28.1 31.1376 28.368 29.962 28.8944C29.1782 29.2449 28.8204 30.1805 29.1642 30.9828C29.5066 31.7836 30.4174 32.1483 31.2042 31.7995C31.9865 31.449 32.8214 31.2714 33.6857 31.2714C36.5653 31.2714 38.9693 33.3011 39.6617 36.0286H38.3327C37.7069 36.0286 37.1399 36.4155 36.9014 37.007C36.6613 37.6 36.7945 38.2819 37.2375 38.7354L40.3355 41.9068C40.6375 42.216 41.0341 42.3714 41.4306 42.3714C41.8272 42.3714 42.2237 42.216 42.5257 41.9068L45.6237 38.7354C45.7598 38.5961 45.8666 38.4352 45.9424 38.262V46.7C45.9424 46.7 46.0381 50.4713 48.9876 50.9028C47.6267 51.534 46.1169 51.8857 44.5286 51.8857H24.3918C17.5593 51.8857 12 46.1946 12 39.2C12 33.7816 15.3783 28.9864 20.3211 27.2294C22.056 21.1609 27.4278 17 33.6857 17ZM24.8457 33.3218L21.7477 36.4932C21.3047 36.9467 21.1715 37.6286 21.4116 38.2216C21.6501 38.8147 22.2171 39.2 22.8429 39.2H24.5312C25.2732 43.6923 29.0899 47.1286 33.6857 47.1286C34.976 47.1286 36.2276 46.8622 37.4017 46.3357C38.1855 45.9869 38.5449 45.0513 38.201 44.2489C37.8587 43.4481 36.9448 43.0755 36.1625 43.4307C35.3803 43.7795 34.5469 43.9571 33.6857 43.9571C30.8062 43.9571 28.4021 41.929 27.7098 39.2H29.0388C29.6646 39.2 30.2315 38.8147 30.47 38.2216C30.7101 37.6286 30.5769 36.9467 30.1339 36.4932L27.0359 33.3218C26.4303 32.7017 25.4513 32.7017 24.8457 33.3218Z" fill="#49AF62"/>
<path d="M47.8282 39.2248V45.9595C47.8282 45.9595 47.9264 49.3268 51.1282 49.3268C54.3299 49.3268 80.8861 49.3268 84.1281 49.3268C87.3701 49.3268 87.4281 45.9595 87.4281 45.9595V39.2248C87.4281 39.2248 87.4023 35.8574 84.1281 35.8574C80.8539 35.8574 53.7853 35.8574 51.1282 35.8574C47.7814 35.8574 47.8282 39.2248 47.8282 39.2248ZM47.8282 56.0615V62.7962C47.8282 62.7962 47.9264 66.1635 51.1282 66.1635C54.3299 66.1635 80.8861 66.1635 84.1281 66.1635C87.3701 66.1635 87.4281 62.7962 87.4281 62.7962V56.0615C87.4281 56.0615 87.4023 52.6942 84.1281 52.6942C80.8539 52.6942 53.7853 52.6942 51.1282 52.6942C47.7814 52.6942 47.8282 56.0615 47.8282 56.0615ZM47.8282 72.8982V79.6329C47.8282 79.6329 47.9264 83.0003 51.1282 83.0003C54.3299 83.0003 80.8861 83.0003 84.1281 83.0003C87.3701 83.0003 87.4281 79.6329 87.4281 79.6329V72.8982C87.4281 72.8982 87.4023 69.5309 84.1281 69.5309C80.8539 69.5309 53.7853 69.5309 51.1282 69.5309C47.7814 69.5309 47.8282 72.8982 47.8282 72.8982ZM51.1282 62.7962V56.0615H54.4282V62.7962H51.1282ZM57.7282 62.7962V56.0615H61.0281V62.7962H57.7282ZM64.3281 62.7962V56.0615H67.6281V62.7962H64.3281ZM70.9281 62.7962V56.0615H74.2281V62.7962H70.9281ZM80.8281 59.4288V56.0615H84.1281V59.4288H80.8281ZM51.1282 45.9595V39.2248H54.4282V45.9595H51.1282ZM57.7282 45.9595V39.2248H61.0281V45.9595H57.7282ZM64.3281 45.9595V39.2248H67.6281V45.9595H64.3281ZM70.9281 45.9595V39.2248H74.2281V45.9595H70.9281ZM80.8281 42.5921V39.2248H84.1281V42.5921H80.8281ZM51.1282 79.6329V72.8982H54.4282V79.6329H51.1282ZM57.7282 79.6329V72.8982H61.0281V79.6329H57.7282ZM64.3281 79.6329V72.8982H67.6281V79.6329H64.3281ZM70.9281 79.6329V72.8982H74.2281V79.6329H70.9281ZM80.8281 76.2656V72.8982H84.1281V76.2656H80.8281Z" fill="#49AF62"/>
<path d="M18.5996 66.2378V70.4283C18.5996 70.4283 18.6628 72.5235 20.7211 72.5235C22.7793 72.5235 39.8512 72.5235 41.9353 72.5235C44.0195 72.5235 44.0568 70.4283 44.0568 70.4283V66.2378C44.0568 66.2378 44.0402 64.1426 41.9353 64.1426C39.8305 64.1426 22.4292 64.1426 20.7211 64.1426C18.5696 64.1426 18.5996 66.2378 18.5996 66.2378ZM18.5996 76.714V80.9045C18.5996 80.9045 18.6628 82.9997 20.7211 82.9997C22.7793 82.9997 39.8512 82.9997 41.9353 82.9997C44.0195 82.9997 44.0568 80.9045 44.0568 80.9045V76.714C44.0568 76.714 44.0402 74.6188 41.9353 74.6188C39.8305 74.6188 22.4292 74.6188 20.7211 74.6188C18.5696 74.6188 18.5996 76.714 18.5996 76.714ZM20.7211 70.4283V66.2378H22.8425V70.4283H20.7211ZM24.9639 70.4283V66.2378H27.0853V70.4283H24.9639ZM29.2068 70.4283V66.2378H31.3282V70.4283H29.2068ZM33.4496 70.4283V66.2378H35.571V70.4283H33.4496ZM39.8139 68.3331V66.2378H41.9353V68.3331H39.8139ZM20.7211 80.9045V76.714H22.8425V80.9045H20.7211ZM24.9639 80.9045V76.714H27.0853V80.9045H24.9639ZM29.2068 80.9045V76.714H31.3282V80.9045H29.2068ZM33.4496 80.9045V76.714H35.571V80.9045H33.4496ZM39.8139 78.8092V76.714H41.9353V78.8092H39.8139Z" fill="#49AF62"/>
</svg>
