<svg width="100" height="100" viewBox="0 0 100 100" fill="none" xmlns="http://www.w3.org/2000/svg">
<rect x="0.5" y="0.5" width="99" height="99" rx="11.5" stroke="#49AF62"/>
<path d="M59.5008 19.4466C59.1734 19.4466 58.9079 19.712 58.9079 20.0395C58.9079 20.3669 59.1734 20.6323 59.5008 20.6323H70.7656C71.0931 20.6323 71.3585 20.3669 71.3585 20.0395C71.3585 19.712 71.0931 19.4466 70.7656 19.4466H59.5008Z" fill="#49AF62"/>
<path d="M72.2477 20.0395C72.2477 19.712 72.5131 19.4466 72.8406 19.4466H80.2517C80.5791 19.4466 80.8445 19.712 80.8445 20.0395C80.8445 20.3669 80.5791 20.6323 80.2517 20.6323H72.8406C72.5131 20.6323 72.2477 20.3669 72.2477 20.0395Z" fill="#49AF62"/>
<path d="M47.471 35.9733H48.4838C49.0409 35.9733 49.4967 36.429 49.4967 36.9861C49.4967 37.5432 49.0409 37.9989 48.4838 37.9989H47.471C46.9139 37.9989 46.4581 37.5432 46.4581 36.9861C46.4581 36.429 46.9139 35.9733 47.471 35.9733Z" fill="#49AF62"/>
<path d="M52.5351 34.9604H51.5223C50.9652 34.9604 50.5094 35.4162 50.5094 35.9733V36.9861C50.5094 37.5432 50.9652 37.999 51.5223 37.999H52.5351C53.0922 37.999 53.5479 37.5432 53.5479 36.9861V35.9733C53.5479 35.4162 53.0922 34.9604 52.5351 34.9604Z" fill="#49AF62"/>
<path d="M55.5735 32.9347H56.5864C57.1434 32.9347 57.5992 33.3905 57.5992 33.9476V36.9861C57.5992 37.5432 57.1434 37.999 56.5864 37.999H55.5735C55.0165 37.999 54.5607 37.5432 54.5607 36.9861V33.9476C54.5607 33.3905 55.0165 32.9347 55.5735 32.9347Z" fill="#49AF62"/>
<path d="M57.093 27.8705H53.7506C53.2949 27.8705 53.0923 28.4276 53.3961 28.7314L54.3583 29.6936C52.4846 31.8206 49.8005 33.4412 46.9646 33.4412C46.6607 33.4412 46.4581 33.6437 46.4581 33.9476C46.4581 34.2514 46.6607 34.454 46.9646 34.454C50.3576 34.454 53.4974 33.4918 55.7763 31.1116L56.6879 32.0232C56.9917 32.327 57.5488 32.1245 57.5488 31.6687V28.3769C57.5994 28.0731 57.3969 27.8705 57.093 27.8705Z" fill="#49AF62"/>
<path d="M51.2594 49.5059C51.2891 49.4763 51.3484 49.4763 51.4077 49.5059C51.4669 49.5355 51.4966 49.5652 51.4966 49.6245V52.9446C51.4966 53.0039 51.4669 53.0336 51.4077 53.0632C51.3484 53.0929 51.2891 53.0929 51.2594 53.0632L50.2219 52.2628V52.6185C50.2219 53.0929 49.8365 53.4782 49.3622 53.4782H45.5381C45.0638 53.4782 44.6784 53.0929 44.6784 52.6185V49.9506C44.6784 49.4763 45.0638 49.0909 45.5381 49.0909H49.3622C49.8365 49.0909 50.2219 49.4763 50.2219 49.9506V50.3063L51.2594 49.5059Z" fill="#49AF62"/>
<path d="M55.5416 51.1975V48.6522C55.5416 47.9123 56.1558 47.3122 56.9134 47.3122C57.671 47.3122 58.2852 47.9123 58.2852 48.6522V51.1975C58.2852 51.9374 57.671 52.5374 56.9134 52.5374C56.1558 52.5374 55.5416 51.9374 55.5416 51.1975Z" fill="#49AF62"/>
<path d="M54.3556 51.2011L54.3574 50.9604C54.3574 50.7763 54.5131 50.6258 54.7008 50.6258C54.8902 50.6258 55.0459 50.7763 55.0459 50.9604V51.2011C55.0459 51.7038 55.2512 52.1587 55.5893 52.4897C55.9274 52.8207 56.3859 53.0242 56.9027 53.0242C57.4196 53.0242 57.8815 52.8189 58.2214 52.4897C58.5595 52.1587 58.763 51.7056 58.763 51.2011V50.9604C58.763 50.7745 58.9206 50.6258 59.1082 50.6258C59.2958 50.6258 59.4534 50.7763 59.4534 50.9604V51.2011C59.4534 52.3622 58.6391 53.3358 57.5399 53.6119C57.5151 53.6137 57.4921 53.6208 57.4709 53.6278C57.3665 53.6632 57.2939 53.7482 57.2585 53.8526V54.8934C57.2585 55.0864 57.1027 55.2421 56.9062 55.2421H56.9045C56.708 55.2421 56.5505 55.0864 56.5505 54.8934V53.8544C56.5151 53.75 56.4407 53.6632 56.3363 53.6278C56.3151 53.6208 56.292 53.6137 56.269 53.6119C55.1698 53.3358 54.3574 52.3622 54.3556 51.2011Z" fill="#49AF62"/>
<path d="M45.2717 41.6799C44.7805 41.6799 44.3823 42.078 44.3823 42.5692C44.3823 43.0604 44.7805 43.4585 45.2717 43.4585H58.908C59.3992 43.4585 59.7974 43.0604 59.7974 42.5692C59.7974 42.078 59.3992 41.6799 58.908 41.6799H45.2717Z" fill="#49AF62"/>
<path fill-rule="evenodd" clip-rule="evenodd" d="M39.9355 17.6465C39.9355 16.1849 41.1204 15 42.582 15H82.9412C84.4028 15 85.5877 16.1849 85.5877 17.6465V58.0057C85.5877 59.4673 84.4028 60.6522 82.9412 60.6522H42.582C41.1204 60.6522 39.9355 59.4673 39.9355 58.0057V17.6465ZM42.307 20.0396C42.307 19.3847 42.8379 18.8538 43.4927 18.8538C44.1476 18.8538 44.6785 19.3847 44.6785 20.0396C44.6785 20.6944 44.1476 21.2253 43.4927 21.2253C42.8379 21.2253 42.307 20.6944 42.307 20.0396ZM47.6429 18.8538C46.988 18.8538 46.4571 19.3847 46.4571 20.0396C46.4571 20.6944 46.988 21.2253 47.6429 21.2253C48.2978 21.2253 48.8287 20.6944 48.8287 20.0396C48.8287 19.3847 48.2978 18.8538 47.6429 18.8538ZM50.6073 20.0396C50.6073 19.3847 51.1382 18.8538 51.793 18.8538C52.4479 18.8538 52.9788 19.3847 52.9788 20.0396C52.9788 20.6944 52.4479 21.2253 51.793 21.2253C51.1382 21.2253 50.6073 20.6944 50.6073 20.0396ZM57.8597 17.3715C57.1289 17.3715 56.5365 17.9639 56.5365 18.6948V21.3842C56.5365 22.115 57.1289 22.7075 57.8597 22.7075H81.8931C82.6239 22.7075 83.2163 22.115 83.2163 21.3842V18.6948C83.2163 17.9639 82.6239 17.3715 81.8931 17.3715H57.8597ZM42.307 26.4023C42.307 25.6715 42.8994 25.0791 43.6302 25.0791H60.5489C61.2798 25.0791 61.8722 25.6715 61.8722 26.4023V56.9574C61.8722 57.6882 61.2798 58.2807 60.5489 58.2807H43.6302C42.8994 58.2807 42.307 57.6882 42.307 56.9574V26.4023ZM65.2709 42.8656C64.5401 42.8656 63.9476 43.458 63.9476 44.1888V56.9574C63.9476 57.6882 64.5401 58.2806 65.2709 58.2806H68.1295C67.9597 57.1086 67.9229 56.406 68.6778 55.3751C62.5789 46.4895 78.0072 41.3813 78.0072 52.3949C78.2863 54.1191 78.8026 54.8355 80.2099 55.7639L76.4523 55.8934C77.234 56.2907 77.3619 56.8974 77.2477 58.2806H82.1896C82.9204 58.2806 83.5128 57.6882 83.5128 56.9574V44.1888C83.5128 43.458 82.9204 42.8656 82.1896 42.8656H65.2709ZM63.9476 26.4023C63.9476 25.6715 64.5401 25.0791 65.2709 25.0791H82.1896C82.9204 25.0791 83.5128 25.6715 83.5128 26.4023V39.1708C83.5128 39.9017 82.9204 40.4941 82.1896 40.4941H78.5613C78.4824 38.5521 78.2497 37.5081 76.2191 36.7221C77.1637 36.2348 77.1608 35.1665 77.1558 33.2776C77.154 32.6342 77.1521 31.8953 77.1872 31.052C76.7701 28.155 74.5715 28.2205 70.549 28.4244L70.5475 28.4572C70.325 33.5208 70.2 36.364 71.1021 36.5839C69.2212 37.2692 68.7259 38.1832 68.7472 40.4941H65.2709C64.5401 40.4941 63.9476 39.9017 63.9476 39.1708V26.4023ZM71.5122 32.2122H75.9377V34.425C75.9377 35.6471 74.947 36.6377 73.7249 36.6377C72.5029 36.6377 71.5122 35.6471 71.5122 34.425V32.2122ZM69.8443 51.488L71.5287 49.8035C72.8379 51.0759 73.7473 51.3273 75.675 50.9697C75.675 55.3752 70.7437 56.3991 69.8443 51.488Z" fill="#49AF62"/>
<path fill-rule="evenodd" clip-rule="evenodd" d="M16.7356 85.0003H32.9926C33.9477 85.0003 34.7282 84.2064 34.7282 83.235V66.6988C34.7282 65.7273 33.9477 64.9334 32.9926 64.9334H16.7356C15.7805 64.9334 15 65.7273 15 66.6988V83.235C15 84.2064 15.7805 85.0003 16.7356 85.0003ZM16.7356 56.3716H32.9926C33.9477 56.3716 34.7282 55.5777 34.7282 54.6062V38.0701C34.7282 37.0986 33.9477 36.3047 32.9926 36.3047H16.7356C15.7805 36.3047 15 37.0986 15 38.0701V54.6062C15 55.5777 15.7805 56.3716 16.7356 56.3716ZM46.8789 85.0003H63.136C64.091 85.0003 64.8715 84.2064 64.8715 83.235V66.6988C64.8715 65.7273 64.091 64.9334 63.136 64.9334H46.8789C45.9238 64.9334 45.1433 65.7273 45.1433 66.6988V83.235C45.1433 84.2064 45.9238 85.0003 46.8789 85.0003Z" fill="#49AF62"/>
<path d="M31.6472 43.2553C31.5326 43.1936 31.4179 43.1936 31.3605 43.2553L29.3536 44.921V44.1807C29.3536 43.1936 28.6082 42.3916 27.6907 42.3916H20.2937C19.3763 42.3916 18.6309 43.1936 18.6309 44.1807V49.733C18.6309 50.72 19.3763 51.522 20.2937 51.522H27.6907C28.6082 51.522 29.3536 50.72 29.3536 49.733V48.9927L31.3605 50.6583C31.4179 50.72 31.5326 50.72 31.6472 50.6583C31.7619 50.5967 31.8193 50.535 31.8193 50.4116V43.5021C31.8193 43.3787 31.7619 43.317 31.6472 43.2553Z" fill="white"/>
<path d="M56.2747 69.7822C53.5326 69.7822 51.3098 72.0035 51.3098 74.744C51.3098 77.4631 53.4988 79.67 56.2114 79.7041V81.8149L59.604 78.4248C60.6087 77.5169 61.2402 76.2041 61.2402 74.744C61.2397 72.0035 59.0167 69.7822 56.2747 69.7822Z" fill="white"/>
<path d="M52.1106 79.5386V78.9364L51.6158 78.9304C50.2031 78.9128 49.054 77.75 49.054 76.338C49.054 75.175 49.824 74.1884 50.8811 73.8606C50.9425 73.4856 51.0425 73.1232 51.1765 72.7777C49.4161 73.0098 48.0518 74.5159 48.0518 76.3378C48.0518 78.1271 49.3835 79.6282 51.1084 79.8909V81.9561L53.5817 79.4845C53.2858 79.3152 53.0074 79.1199 52.7491 78.9006L52.1106 79.5386Z" fill="white"/>
<path d="M29.7755 77.4501L29.3148 79.4473C29.2501 79.7296 29.0019 79.9272 28.7112 79.9272C23.7118 79.9268 19.6455 75.8611 19.6455 70.8622C19.6455 70.5717 19.8431 70.3232 20.1255 70.2589L22.1229 69.7982C22.4138 69.7308 22.7111 69.8818 22.832 70.1572L23.7538 72.307C23.8616 72.5602 23.7889 72.8552 23.5759 73.0292L22.5089 73.8857C23.1823 75.2572 24.2976 76.3723 25.6696 77.0459L26.5431 75.9799C26.7153 75.7664 27.0126 75.6925 27.2658 75.8021L29.4159 76.7236C29.6745 76.8597 29.8429 77.1608 29.7755 77.4501Z" fill="white"/>
</svg>
