<svg width="100" height="100" viewBox="0 0 100 100" fill="none" xmlns="http://www.w3.org/2000/svg">
<rect x="0.5" y="0.5" width="99" height="99" rx="11.5" stroke="#49AF62"/>
<path d="M28.0076 64.5616L28 65.6545C28.0076 70.9259 31.5139 75.3455 36.2576 76.5991C36.3569 76.6071 36.4562 76.6393 36.5479 76.6714C36.9986 76.8321 37.3194 77.2259 37.4722 77.7V82.417C37.4722 83.2929 38.1521 84 39 84H39.0076C39.8556 84 40.5278 83.2929 40.5278 82.417V77.692C40.6806 77.2179 40.9937 76.8321 41.4444 76.6714C41.5361 76.6393 41.6354 76.6071 41.7424 76.5991C46.4861 75.3455 50 70.9259 50 65.6545V64.5616C50 63.7259 49.3201 63.0429 48.5104 63.0429C47.7007 63.0429 47.0208 63.7179 47.0208 64.5616V65.6545C47.0208 67.9446 46.1424 70.0018 44.6833 71.5045C43.2167 72.9991 41.2229 73.9312 38.9924 73.9312C36.7618 73.9312 34.7833 73.0071 33.3243 71.5045C31.8653 70.0018 30.9792 67.9366 30.9792 65.6545V64.5616C30.9792 63.7259 30.3069 63.0429 29.4896 63.0429C28.6799 63.0429 28.0076 63.7259 28.0076 64.5616Z" fill="#49AF62"/>
<path d="M33.1181 54.083V65.6384C33.1181 68.9973 35.7687 71.7214 39.0382 71.7214C42.3076 71.7214 44.9583 68.9973 44.9583 65.6384V54.083C44.9583 50.7241 42.3076 48 39.0382 48C35.7687 48 33.1181 50.7241 33.1181 54.083Z" fill="#49AF62"/>
<path d="M59 15C54.0261 15 50 19.0253 50 24C50 28.9739 54.0253 33 59 33C60.7475 33 62.46 32.4869 63.914 31.5403C64.3497 31.2567 64.4447 30.6589 64.1155 30.2566L63.7462 29.8054C63.4678 29.4654 62.9776 29.382 62.6076 29.6193C61.5374 30.3057 60.2816 30.6774 59 30.6774C55.3181 30.6774 52.3226 27.6819 52.3226 24C52.3226 20.3181 55.3181 17.3226 59 17.3226C62.6341 17.3226 65.6774 19.4136 65.6774 23.129C65.6774 24.5366 64.9119 26.0229 63.5664 26.1663C62.9368 26.1498 62.9527 25.6997 63.0774 25.0767L63.9278 20.6816C64.0318 20.1442 63.62 19.6452 63.0727 19.6452H61.4403C61.3198 19.6452 61.2035 19.6895 61.1136 19.7698C61.0237 19.8501 60.9665 19.9606 60.9529 20.0804L60.9525 20.0837C60.4191 19.4341 59.4846 19.2935 58.7761 19.2935C56.0696 19.2935 53.7742 21.552 53.7742 24.79C53.7742 27.1599 55.1091 28.6321 57.2581 28.6321C58.2373 28.6321 59.34 28.0646 59.9795 27.241C60.3251 28.4786 61.4534 28.4786 62.5456 28.4786C66.4979 28.4786 68 25.8798 68 23.129C68 18.181 64.0089 15 59 15ZM58.2132 26.0479C57.4058 26.0479 56.9042 25.4809 56.9042 24.5683C56.9042 22.9355 58.0212 21.9289 59.0319 21.9289C59.8409 21.9289 60.3239 22.482 60.3239 23.4085C60.3239 25.0437 59.0946 26.0479 58.2132 26.0479Z" fill="#49AF62"/>
<path fill-rule="evenodd" clip-rule="evenodd" d="M59 36C65.6274 36 71 30.6274 71 24C71 22.9641 70.8687 21.9589 70.6219 21H77.5757C78.9062 21.0053 80.1976 21.449 81.2483 22.262C82.299 23.075 83.05 24.2114 83.3839 25.494L60.5807 39.9462C60.2576 40.1495 59.8833 40.2575 59.5012 40.2575C59.119 40.2575 58.7447 40.1495 58.4217 39.9462L35.6164 25.494C35.9504 24.2114 36.7013 23.075 37.752 22.262C38.8027 21.449 40.0941 21.0053 41.4247 21H47.3781C47.1313 21.9589 47 22.9641 47 24C47 30.6274 52.3726 36 59 36ZM67.6671 40.2007L83.1016 53.3749C83.4299 52.6261 83.5995 51.8179 83.5997 51.0008V30.0986L67.6671 40.2007ZM49 52.206V57H77.5762C78.5464 56.9929 79.5001 56.7491 80.3538 56.29L64.2204 42.5179C64.2031 42.5039 64.1916 42.4864 64.1803 42.4692C64.1706 42.4544 64.1611 42.4399 64.1481 42.4279L62.7422 43.3219C61.7742 43.9307 60.6527 44.2539 59.5077 44.2539C58.3628 44.2539 57.2413 43.9307 56.2732 43.3219L54.8673 42.4259C54.8527 42.4395 54.8423 42.4555 54.832 42.4714C54.8212 42.4881 54.8105 42.5045 54.795 42.5179L47.9897 48.3229C48.6343 49.479 49 50.8013 49 52.206ZM40.5 44C42.2565 44 43.8886 44.5145 45.2435 45.3959L51.332 40.2007L35.3994 30.0986V45.6413C36.8202 44.6108 38.5863 44 40.5 44Z" fill="#49AF62"/>
</svg>
