<?xml version="1.0" encoding="UTF-8"?>
<svg xmlns="http://www.w3.org/2000/svg" xmlns:xlink="http://www.w3.org/1999/xlink" viewBox="0 0 500 500">
  <defs>
    <style>
      .cls-1 {
        stroke-miterlimit: 10;
      }

      .cls-1, .cls-2, .cls-3, .cls-4, .cls-5, .cls-6, .cls-7, .cls-8 {
        stroke: #263238;
      }

      .cls-1, .cls-9, .cls-10, .cls-5 {
        fill: #fff;
      }

      .cls-2 {
        fill: #757575;
      }

      .cls-2, .cls-11, .cls-12, .cls-3, .cls-4, .cls-5, .cls-6, .cls-7, .cls-8, .cls-13, .cls-14, .cls-15 {
        stroke-linejoin: round;
      }

      .cls-2, .cls-12, .cls-3, .cls-4, .cls-5, .cls-6, .cls-7, .cls-8 {
        stroke-linecap: round;
      }

      .cls-11 {
        stroke-dasharray: 0 0 5.74 5.74;
      }

      .cls-11, .cls-12, .cls-6, .cls-13, .cls-14, .cls-15 {
        fill: none;
      }

      .cls-11, .cls-13, .cls-14, .cls-15 {
        stroke: #92e3a9;
        stroke-width: 3px;
      }

      .cls-9 {
        opacity: .4;
      }

      .cls-16 {
        clip-path: url(#clippath-2);
      }

      .cls-17 {
        opacity: .2;
      }

      .cls-12 {
        stroke: #fff;
      }

      .cls-18 {
        clip-path: url(#clippath-1);
      }

      .cls-19 {
        clip-path: url(#clippath-4);
      }

      .cls-10 {
        opacity: .7;
      }

      .cls-3 {
        fill: #999;
      }

      .cls-4, .cls-20 {
        fill: #92e3a9;
      }

      .cls-21 {
        opacity: .3;
      }

      .cls-22 {
        clip-path: url(#clippath);
      }

      .cls-23 {
        clip-path: url(#clippath-3);
      }

      .cls-7, .cls-24 {
        fill: #263238;
      }

      .cls-8 {
        fill: #bfbfbf;
      }

      .cls-25 {
        clip-path: url(#clippath-5);
      }

      .cls-14 {
        stroke-dasharray: 0 0 7.68 7.68;
      }

      .cls-15 {
        stroke-dasharray: 0 0 7.07 7.07;
      }
    </style>
    <clipPath id="clippath">
      <path class="cls-4" d="m390.5,442.34c-2.46,0-4.45-1.99-4.45-4.45v-27.35c0-2.35,1.83-4.25,4.13-4.42l1.08-2.78c.2-.52.7-.86,1.26-.86h11.36c.56,0,1.06.34,1.26.86l1.07,2.75h19.02c1.96,0,3.62,1.27,4.22,3.02"/>
    </clipPath>
    <clipPath id="clippath-1">
      <path class="cls-4" d="m188.09,442.34c-2.46,0-4.45-1.99-4.45-4.45v-27.35c0-2.35,1.83-4.25,4.13-4.42l1.08-2.78c.2-.52.7-.86,1.26-.86h11.36c.56,0,1.06.34,1.26.86l1.07,2.75h19.02c1.96,0,3.62,1.27,4.22,3.02"/>
    </clipPath>
    <clipPath id="clippath-2">
      <path class="cls-4" d="m326.34,197.12s-9.38,3.27-15.67,8.72c-6.29,5.45-16.32,13.59-16.32,13.59,0,0,5.68,13.52,12.21,19.1l13.97-5.6,5.81-35.81Z"/>
    </clipPath>
    <clipPath id="clippath-3">
      <path class="cls-4" d="m320.53,232.93c5.45,13.34,13.97,30.02,13.97,30.02l3.77,18.59s14.16,10.79,30.4,6.27c19.04-5.31,22.12-17.34,22.12-17.34l-7.25-14.55c-2.48-13.98-5.72-47.05-16.87-54.6-11.15-7.55-30.29-8.19-38.01-5.13-6.87,2.72-10.67,4.79-12.54,7.3"/>
    </clipPath>
    <clipPath id="clippath-4">
      <path class="cls-4" d="m361.35,209.26c-1.88,6.55-2.67,13.6.47,19.08,1.57,4.7,10.69,9.19,13.83,13.1,9.83-2.4,13.99-14.88,13.99-14.88,0,0-5.69-8.07-11.37-16.53-5.69-8.47-17.09-11.65-17.09-11.65"/>
    </clipPath>
    <clipPath id="clippath-5">
      <path class="cls-4" d="m368.85,297.83c-2.45.2-4.6-1.63-4.8-4.08l-2.2-27.26c-.19-2.34,1.48-4.39,3.77-4.74l.85-2.86c.16-.54.63-.92,1.19-.96l11.32-.91c.56-.05,1.09.26,1.33.76l1.29,2.65,18.96-1.53c1.95-.16,3.71.97,4.45,2.68"/>
    </clipPath>
  </defs>
  <g id="Background_Simple" data-name="Background Simple">
    <path class="cls-10" d="m67.93,167.09s-27.88,71.99,11.3,144.5c39.17,72.52,119.88,110.8,184.47,143.55,64.59,32.75,131.66,16.8,163.53-36.84,31.87-53.64-11.85-91.93-11.9-168.42-.05-76.49,11.45-96.74-29.96-161.36C343.96,23.89,242.31,9.59,165.47,57.52c-76.84,47.93-97.54,109.56-97.54,109.56Z"/>
    <g>
      <path class="cls-20" d="m66.52,95.24c3.37-4.03,7.04-7.78,10.99-11.2,28.47-24.66,69.16-29.36,104.32-18.3,35.17,11.06,65.25,36.15,89.62,65.39,11.13,13.36,21.71,28.08,36.61,36.25,19.21,10.54,41.46,8.33,62.23,11.43,75.52,11.27,100.13,117.19,48.53,172.3-20.34,21.73-48.73,33.98-75.65,43.17-37.28,12.74-76.28,21.09-115.4,19.53-39.12-1.56-78.48-13.5-109.98-38.31-41.26-32.49-66.07-84.67-76.39-138.3-5.23-27.14-7.08-55.37-1.9-82.52,4.17-21.82,13.18-42.94,27.02-59.46Z"/>
      <path class="cls-10" d="m370.29,178.81c-20.77-3.1-43.02-.89-62.23-11.43-14.9-8.17-25.47-22.89-36.61-36.25-24.37-29.25-54.45-54.34-89.62-65.39-35.17-11.06-75.85-6.36-104.32,18.3-3.95,3.42-7.61,7.17-10.99,11.2-13.84,16.51-22.85,37.63-27.02,59.46-5.18,27.15-3.33,55.38,1.9,82.52,10.33,53.62,35.13,105.81,76.39,138.3,31.5,24.81,70.86,36.75,109.98,38.31,39.12,1.56,78.12-6.79,115.4-19.53,26.91-9.2,55.31-21.45,75.65-43.17,51.6-55.11,26.99-161.03-48.53-172.3Z"/>
    </g>
  </g>
  <g id="Floor">
    <line class="cls-6" x1="36.42" y1="442.34" x2="464.8" y2="442.34"/>
  </g>
  <g id="Line">
    <g>
      <line class="cls-13" x1="251.55" y1="119.79" x2="251.55" y2="123.29"/>
      <line class="cls-14" x1="251.55" y1="130.98" x2="251.55" y2="142.51"/>
      <polyline class="cls-13" points="251.55 146.35 251.55 149.85 248.05 149.85"/>
      <line class="cls-15" x1="240.98" y1="149.85" x2="131.42" y2="149.85"/>
      <polyline class="cls-13" points="127.89 149.85 124.39 149.85 124.39 153.35"/>
      <line class="cls-11" x1="124.39" y1="159.09" x2="124.39" y2="167.7"/>
      <line class="cls-13" x1="124.39" y1="170.57" x2="124.39" y2="174.07"/>
    </g>
  </g>
  <g id="Clouds">
    <g>
      <line class="cls-6" x1="142.16" y1="136.41" x2="156.37" y2="136.41"/>
      <path class="cls-6" d="m145.29,102.26c-4.33,2.06-7.32,6.47-7.32,11.58,0,1.46.25,2.85.7,4.16-.23-.02-.47-.04-.7-.04-5.1,0-9.23,4.13-9.23,9.23s4.13,9.23,9.23,9.23"/>
      <path class="cls-6" d="m173.28,91.48c-1.75-.55-3.62-.85-5.56-.85-7.31,0-13.63,4.25-16.63,10.41-.1,0-.2-.02-.3-.02"/>
      <path class="cls-6" d="m188.32,106.52c-.78,0-1.54.06-2.29.17-.63-4.83-3.12-9.07-6.73-11.98"/>
      <path class="cls-6" d="m165.29,136.41h23.03c8.26,0,14.95-6.69,14.95-14.95"/>
    </g>
    <g>
      <line class="cls-6" x1="321.35" y1="137.24" x2="330.99" y2="137.24"/>
      <path class="cls-6" d="m323.47,114.07c-2.93,1.4-4.96,4.39-4.96,7.86,0,.99.17,1.93.48,2.82-.16-.01-.32-.02-.48-.02-3.46,0-6.26,2.8-6.26,6.26s2.8,6.26,6.26,6.26"/>
      <path class="cls-6" d="m342.46,106.75c-1.19-.38-2.46-.58-3.77-.58-4.96,0-9.25,2.88-11.28,7.06-.07,0-.13-.01-.2-.01"/>
      <path class="cls-6" d="m352.67,116.96c-.53,0-1.05.04-1.55.12-.43-3.27-2.12-6.15-4.56-8.13"/>
      <path class="cls-6" d="m337.04,137.24h15.63c5.6,0,10.14-4.54,10.14-10.14"/>
    </g>
    <g>
      <path class="cls-1" d="m285.06,70.91c-1.22,0-2.42.09-3.6.27-1.86-14.24-14.03-25.24-28.78-25.24-11.49,0-21.42,6.67-26.12,16.35-.16,0-.31-.02-.47-.02-11.12,0-20.14,9.02-20.14,20.14,0,2.29.4,4.48,1.1,6.53-.37-.03-.73-.06-1.1-.06-8,0-14.49,6.49-14.49,14.49s6.49,14.49,14.49,14.49h79.11c12.97,0,23.48-10.51,23.48-23.48s-10.51-23.48-23.48-23.48Z"/>
      <g>
        <line class="cls-6" x1="251.67" y1="94.71" x2="251.67" y2="77.9"/>
        <polyline class="cls-6" points="261 83.62 251.67 74.29 242.35 83.62"/>
        <line class="cls-6" x1="251.67" y1="98.47" x2="251.67" y2="102.26"/>
        <line class="cls-6" x1="251.67" y1="106.69" x2="251.67" y2="109.59"/>
      </g>
    </g>
  </g>
  <g id="Folders">
    <g>
      <path class="cls-6" d="m221.7,442.34h-19.81c-4.87,0-8.2-3.94-7.42-8.8l7.67-48.08c.78-4.86,5.35-8.8,10.23-8.8h60.76"/>
      <path class="cls-6" d="m210.63,363.32h17.8c1.11,0,2.1.68,2.51,1.71l2.12,5.45h37.7c3.88,0,7.18,2.51,8.36,5.99l2.11.18c4.87,0,8.2,3.94,7.42,8.8l-7.67,48.08c-.77,4.86-5.35,8.8-10.23,8.8h-37.57"/>
      <path class="cls-6" d="m193.07,400.32v-21.01c0-4.66,3.62-8.43,8.19-8.76l2.14-5.51c.4-1.03,1.4-1.71,2.51-1.71"/>
      <path class="cls-6" d="m201.89,442.34c-4.87,0-8.82-3.95-8.82-8.82v-19.51"/>
    </g>
    <g>
      <g>
        <path class="cls-20" d="m390.5,442.34c-2.46,0-4.45-1.99-4.45-4.45v-27.35c0-2.35,1.83-4.25,4.13-4.42l1.08-2.78c.2-.52.7-.86,1.26-.86h11.36c.56,0,1.06.34,1.26.86l1.07,2.75h19.02c1.96,0,3.62,1.27,4.22,3.02"/>
        <g class="cls-22">
          <path class="cls-21" d="m390.5,442.34c-2.46,0-4.45-1.99-4.45-4.45v-27.35c0-2.35,1.83-4.25,4.13-4.42l1.08-2.78c.2-.52.7-.86,1.26-.86h11.36c.56,0,1.06.34,1.26.86l1.07,2.75h19.02c1.96,0,3.62,1.27,4.22,3.02"/>
        </g>
        <path class="cls-6" d="m390.5,442.34c-2.46,0-4.45-1.99-4.45-4.45v-27.35c0-2.35,1.83-4.25,4.13-4.42l1.08-2.78c.2-.52.7-.86,1.26-.86h11.36c.56,0,1.06.34,1.26.86l1.07,2.75h19.02c1.96,0,3.62,1.27,4.22,3.02"/>
      </g>
      <path class="cls-4" d="m390.5,442.34h34.74c2.46,0,4.77-1.99,5.16-4.44l3.87-24.26c.39-2.45-1.29-4.44-3.74-4.44h-34.74c-2.46,0-4.77,1.99-5.16,4.44l-3.87,24.26c-.39,2.45,1.29,4.44,3.74,4.44Z"/>
    </g>
    <g>
      <g>
        <path class="cls-20" d="m188.09,442.34c-2.46,0-4.45-1.99-4.45-4.45v-27.35c0-2.35,1.83-4.25,4.13-4.42l1.08-2.78c.2-.52.7-.86,1.26-.86h11.36c.56,0,1.06.34,1.26.86l1.07,2.75h19.02c1.96,0,3.62,1.27,4.22,3.02"/>
        <g class="cls-18">
          <path class="cls-21" d="m188.09,442.34c-2.46,0-4.45-1.99-4.45-4.45v-27.35c0-2.35,1.83-4.25,4.13-4.42l1.08-2.78c.2-.52.7-.86,1.26-.86h11.36c.56,0,1.06.34,1.26.86l1.07,2.75h19.02c1.96,0,3.62,1.27,4.22,3.02"/>
        </g>
        <path class="cls-6" d="m188.09,442.34c-2.46,0-4.45-1.99-4.45-4.45v-27.35c0-2.35,1.83-4.25,4.13-4.42l1.08-2.78c.2-.52.7-.86,1.26-.86h11.36c.56,0,1.06.34,1.26.86l1.07,2.75h19.02c1.96,0,3.62,1.27,4.22,3.02"/>
      </g>
      <path class="cls-4" d="m188.09,442.34h34.74c2.46,0,4.77-1.99,5.16-4.44l3.87-24.26c.39-2.45-1.29-4.44-3.74-4.44h-34.74c-2.46,0-4.77,1.99-5.16,4.44l-3.87,24.26c-.39,2.45,1.29,4.44,3.74,4.44Z"/>
    </g>
  </g>
  <g id="Character">
    <g>
      <g>
        <path class="cls-4" d="m310.35,428.21s1.57,9.63,0,14.13h-31.88s-1.35-3.37,0-5.5c1.35-2.13,11.45-3.34,14.59-6.21,3.14-2.87,6.51-7.81,6.51-7.81l10.78,5.39Z"/>
        <polygon class="cls-5" points="277.88 440.65 310.77 440.65 311.05 442.34 277.88 442.34 277.88 440.65"/>
        <path class="cls-6" d="m302.69,427.04s-3,.73-3.34.84c-.34.11-3.25,4.6-6.17,5.39-2.92.79-5.84.63-5.39,2.06"/>
        <line class="cls-6" x1="296.05" y1="427.04" x2="299.47" y2="429.56"/>
        <line class="cls-6" x1="294.47" y1="429.24" x2="297.76" y2="431.66"/>
        <line class="cls-6" x1="292.36" y1="431.18" x2="295.22" y2="433.94"/>
        <line class="cls-6" x1="289.48" y1="432.58" x2="290.71" y2="435.32"/>
        <path class="cls-24" d="m310.87,432.58s-5.23-.64-10.95,1.37c-5.72,2-7.7,3.76-7.55,4.28.15.53.82,2.09.82,2.09h2.87s-1.04-1.83-.83-2.09c.21-.26,9.99-4.08,15.65-3.4v-2.25Z"/>
      </g>
      <path class="cls-4" d="m364.38,442.34s1.23-4.69-.21-6.43c-2.58-3.12.31-5.74-2.27-6.82l-1.08,1.26c-.21-1.28.39-5.16-4.41-5.67-5.8-.61-5.91,3.61-6.23,5l.1-1.94c-2.47,0-1.19,2.47-4.94,6.51-2.86,3.08-2.87,7.04-2.71,8.09h21.76Z"/>
      <path class="cls-24" d="m385.4,263.94c2.68,1.56,9.59,16.28,5.56,45.49-4.03,29.21-16.11,86.34-18.14,95.08s-9.12,29.75-9.12,29.75c0,0-2.71-9.12-15.74-4.24-.48.18-.98-.25-.88-.75l2.86-14.89s.2-10.89,1.14-13.62c3.53-10.29,5.3-50.01,6.46-55.55,1.16-5.54-1.12-21.49-1.12-21.49,0,0-16.31,39.04-16.84,42.87-.53,3.83-10.48,19.77-10.48,19.77l-1.71,14.65s-13.24,22.68-15.57,29.45l-15.76-3.42.44-11.21,4.25-1.45,7.42-25.49s2.8-11.28,8.63-26.02c3.51-8.87,13.46-43.19,13.46-43.19,3.09-3.36,6-21.94,6-21.94l4.78-23.44,44.38-10.35Z"/>
      <path class="cls-5" d="m319.22,202l-32.4,24.4-20.85-32.89-7.8,1.01s15.52,42.43,24.11,46.65,40.97-19.23,40.97-19.23"/>
      <g>
        <path class="cls-20" d="m326.34,197.12s-9.38,3.27-15.67,8.72c-6.29,5.45-16.32,13.59-16.32,13.59,0,0,5.68,13.52,12.21,19.1l13.97-5.6,5.81-35.81Z"/>
        <g class="cls-16">
          <path class="cls-9" d="m306.47,238.46l5.12-4.55c-3.54-1.19-3.96-8.41-1.98-6.33s5.34,2.77,5.34,2.77c-2.57-7.12-1.53-13.91-1.53-13.91,0,0,1.71,4.77,2.69,9.57.65,3.2,3.04,5.35,4.01,6.49l6.22-35.37s-9.38,3.27-15.67,8.72c-6.29,5.45-16.32,13.59-16.32,13.59,0,0,5.63,13.4,12.12,19.02Z"/>
        </g>
        <path class="cls-6" d="m326.34,197.12s-9.38,3.27-15.67,8.72c-6.29,5.45-16.32,13.59-16.32,13.59,0,0,5.68,13.52,12.21,19.1l13.97-5.6,5.81-35.81Z"/>
      </g>
      <g>
        <path class="cls-20" d="m320.53,232.93c5.45,13.34,13.97,30.02,13.97,30.02l3.77,18.59s14.16,10.79,30.4,6.27c19.04-5.31,22.12-17.34,22.12-17.34l-7.25-14.55c-2.48-13.98-5.72-47.05-16.87-54.6-11.15-7.55-30.29-8.19-38.01-5.13-6.87,2.72-10.67,4.79-12.54,7.3"/>
        <g class="cls-23">
          <path class="cls-9" d="m379.87,274.95c-17.17,5.54-15.27,1.58-11.35-5.34,3.55-6.26,1.04-13.57,1.09-15.54-.77,1.52-3.69,5.96-7.31,7.7-4.66,2.24-3.02,2.97,1.07-4.81,4.09-7.78,5.14-16.62,5.14-16.62-4.58-4.55-8.19-15.65-8.19-15.65l15.03-9.19c-2.21-6.43-5.02-11.69-8.7-14.17-11.15-7.55-30.29-8.19-38.01-5.13-6.87,2.72-10.67,4.79-12.54,7.3l4.42,29.45c5.45,13.34,13.97,30.02,13.97,30.02l3.77,18.59s14.16,10.79,30.4,6.27c19.04-5.31,22.12-17.34,22.12-17.34l-.28-.55c-3.15,2-6.7,3.77-10.63,5.04Z"/>
        </g>
        <path class="cls-6" d="m320.53,232.93c5.45,13.34,13.97,30.02,13.97,30.02l3.77,18.59s14.16,10.79,30.4,6.27c19.04-5.31,22.12-17.34,22.12-17.34l-7.25-14.55c-2.48-13.98-5.72-47.05-16.87-54.6-11.15-7.55-30.29-8.19-38.01-5.13-6.87,2.72-10.67,4.79-12.54,7.3"/>
      </g>
      <g>
        <path class="cls-5" d="m346.71,198.76s-4.18,7.76-11.61,7.04c-6.18-.61-6-5.59-6-5.59,0,0,1.34-1.02,1.86-2.83.16-.54.24-1.16.19-1.83-.1-1.54-.88-3.42-3.02-5.57l-.1-.1c-.46-.46-.83-.93-1.09-1.4-3.41-6.03,8.49-12.79,17.47-7.8,0,0-6.96,5.37,2.3,18.08Z"/>
        <path class="cls-24" d="m333.59,188.23s-.17,4.67-2.44,7.32c-.1-1.54-.88-3.42-3.02-5.57,1.2-1.32,3.01-2.16,5.46-1.75Z"/>
        <path class="cls-5" d="m345.82,174.91c3.37-14.43-3.61-20.69-8.18-22.58-7.32-3.03-16.84,1.73-19,9.75-2.16,8.02-.21,9.84-.31,13.12-.07,2.3-1.49,3.43.07,9.21,1.03,3.81,2.75,9.92,9.26,8.82,1.3-.22,3.4-.73,5.76-1.87"/>
        <path class="cls-6" d="m326.82,170.22s2.71-1.01,4.15,2.17"/>
        <path class="cls-6" d="m317.61,168.54s2.83-.61,4.03,1.44"/>
        <path class="cls-6" d="m322.37,174.07s-2.78,4.82-2.74,5.48c.14,2.06,2.76,1.13,2.76,1.13"/>
        <path class="cls-7" d="m327.35,174.73c0,.67.3,1.21.67,1.21s.67-.54.67-1.21-.3-1.21-.67-1.21-.67.54-.67,1.21Z"/>
        <path class="cls-7" d="m319.63,174.07c0,.67.3,1.21.67,1.21s.67-.54.67-1.21-.3-1.21-.67-1.21-.67.54-.67,1.21Z"/>
        <path class="cls-6" d="m327.35,182.66s-2.95,1.64-5.71.92"/>
        <path class="cls-6" d="m326.82,183.21s-.32,2.13-2.32,2.34-2.11-1.79-2.11-1.79"/>
        <path class="cls-24" d="m345.84,156.49s-.44-7.74-14.87-7.46c-14.43.28-18.64,11.43-11.34,14.45s11.84,1.7,11.84,1.7c0,0-2.7-.8-5.13-3.52,0,0,5.05,2.96,9.34,3.81,0,0-1.65,2.16,0,5.75,1.65,3.6.84,5.14.84,5.14,0,0,6.61,1.88,5.5,8.96,0,0,6.08-.11,8.54-14.1s-4.73-14.74-4.73-14.74Z"/>
        <path class="cls-5" d="m337.64,177.44s2.65-4.93,5.41-3.73c2.77,1.2.84,7.1-1.56,9.02-2.41,1.92-3.85,0-3.85,0"/>
      </g>
      <path class="cls-6" d="m313.42,216.43c1.61,6.48,2.45,11.59,7.11,16.5"/>
      <path class="cls-6" d="m312.41,211.27c.13,1.01.31,2.01.52,3.01"/>
      <path class="cls-5" d="m368.53,228.87s19.3,20.86,24.04,20.08c4.75-.78,7.21-8.48,6.17-10.61-1.04-2.12-18.43-22.34-18.43-22.34l-11.78,12.87Z"/>
      <g>
        <path class="cls-20" d="m361.35,209.26c-1.88,6.55-2.67,13.6.47,19.08,1.57,4.7,10.69,9.19,13.83,13.1,9.83-2.4,13.99-14.88,13.99-14.88,0,0-5.69-8.07-11.37-16.53-5.69-8.47-17.09-11.65-17.09-11.65"/>
        <g class="cls-19">
          <path class="cls-9" d="m361.35,209.26c-1.88,6.55-2.67,13.6.47,19.08,1.57,4.7,10.69,9.19,13.83,13.1,9.83-2.4,13.99-14.88,13.99-14.88,0,0-5.69-8.07-11.37-16.53-5.69-8.47-17.09-11.65-17.09-11.65"/>
        </g>
        <path class="cls-6" d="m361.35,209.26c-1.88,6.55-2.67,13.6.47,19.08,1.57,4.7,10.69,9.19,13.83,13.1,9.83-2.4,13.99-14.88,13.99-14.88,0,0-5.69-8.07-11.37-16.53-5.69-8.47-17.09-11.65-17.09-11.65"/>
      </g>
      <path class="cls-5" d="m266.21,193.88s-3.2-7.52-5.21-9.86c-1.92-2.24-4.02-4.01-4.56-4.08-1.39-.17-5.91,2.35-5.91,2.35,0,0,0,1.41,2.45,1.21,0,0-3.54,2.2-3.71,3.94-.17,1.73,2.03,4.18,2.46,5.14.43.96,1.27.41,1.27.41,0,0,3.82,5.2,7.51,5.56"/>
      <path class="cls-6" d="m252.99,192.97s.43-.41.5-1.41c0,0,1.53,0,1.61-1.34,0,0,2.25.14,1.31-2.72"/>
      <path class="cls-6" d="m255.1,190.21s-2.55-2.74-2.7-3.8"/>
      <path class="cls-6" d="m253.49,191.55s-2.8-2.5-2.64-3.64"/>
      <path class="cls-6" d="m256.03,181.8s-1.06,1.39-2.79,1.46"/>
      <path class="cls-6" d="m255.41,182.42s.73.55,1.3,1.26"/>
      <path class="cls-6" d="m362.31,207.19c.61-1.03,1.42-1.94,2.43-2.6"/>
      <polygon class="cls-5" points="342.59 440.65 364.86 440.65 364.38 442.34 342.61 442.34 342.59 440.65"/>
      <path class="cls-6" d="m349.74,434.06s7.31-2.42,10.84.61"/>
      <path class="cls-6" d="m349.74,432.46s6.43-2.03,10.84.68"/>
      <path class="cls-6" d="m350.12,430.89s6.05-2.28,10.46.84"/>
      <path class="cls-24" d="m345.32,434.26l.72.71c.2.2.24.51.08.75-.52.81-1.59,2.77-1.49,4.93h-1.07s.37-2.87,1.54-4.91l-.55-.55.76-.93Z"/>
      <path class="cls-6" d="m370.79,252.2c-1.26,1.76-18.38,22.43-26.38,21.31"/>
      <path class="cls-6" d="m326.34,234.53s9.56,14.74,24.73,14.44"/>
      <g class="cls-17">
        <path class="cls-12" d="m351.07,307.39c.87.2,17.68,6.33,21.05,12.46"/>
        <path class="cls-12" d="m355.16,316.29c-.84,1.19-7.98,23.54-11.04,29.67-3.06,6.13-13.34,33.63-15.72,35.21,0,0-3.16,16.02-5.14,18.59-1.98,2.57-12.21,23.06-12.21,23.06"/>
        <line class="cls-12" x1="299.58" y1="422.82" x2="311.99" y2="425.48"/>
        <path class="cls-12" d="m350.12,424.15s9.93-.89,13.3,2.89"/>
        <path class="cls-12" d="m361.6,318.86c.83,4.75,13.29,31.06,16.26,28.09"/>
        <path class="cls-12" d="m356.77,321.24s-1.46-6.53-.08-9.49c.53-1.13-10.68,2.77-14.44,1.88"/>
        <path class="cls-12" d="m355.16,288.91s1.96,5.62,2.44,7.4c.48,1.78-3.57,8.7-2.44,10.09"/>
        <path class="cls-12" d="m382.41,283.65s2.77,4.24,2.77,7.36,3.76,4.51,3.76,4.51"/>
        <path class="cls-12" d="m388.31,279.02s3.39,12.74.62,28.37c-2.77,15.63-7.32,47.47-9.1,55.58-1.78,8.11-5.93,26.31-5.93,28.88s-4.17,17.21-4.17,17.21"/>
        <path class="cls-12" d="m370.74,386.91c-.59,0-11.67,10.68-14.44,10.88"/>
        <path class="cls-12" d="m322.27,380.38c-.59.2-9.89,4.75-10.29,3.36"/>
      </g>
      <g>
        <g>
          <path class="cls-20" d="m368.85,297.83c-2.45.2-4.6-1.63-4.8-4.08l-2.2-27.26c-.19-2.34,1.48-4.39,3.77-4.74l.85-2.86c.16-.54.63-.92,1.19-.96l11.32-.91c.56-.05,1.09.26,1.33.76l1.29,2.65,18.96-1.53c1.95-.16,3.71.97,4.45,2.68"/>
          <g class="cls-25">
            <path class="cls-21" d="m368.85,297.83c-2.45.2-4.6-1.63-4.8-4.08l-2.2-27.26c-.19-2.34,1.48-4.39,3.77-4.74l.85-2.86c.16-.54.63-.92,1.19-.96l11.32-.91c.56-.05,1.09.26,1.33.76l1.29,2.65,18.96-1.53c1.95-.16,3.71.97,4.45,2.68"/>
          </g>
          <path class="cls-6" d="m368.85,297.83c-2.45.2-4.6-1.63-4.8-4.08l-2.2-27.26c-.19-2.34,1.48-4.39,3.77-4.74l.85-2.86c.16-.54.63-.92,1.19-.96l11.32-.91c.56-.05,1.09.26,1.33.76l1.29,2.65,18.96-1.53c1.95-.16,3.71.97,4.45,2.68"/>
        </g>
        <path class="cls-4" d="m368.85,297.83l34.63-2.79c2.45-.2,4.59-2.36,4.79-4.84l1.91-24.49c.19-2.48-1.64-4.32-4.09-4.12l-34.63,2.79c-2.45.2-4.59,2.36-4.79,4.84l-1.91,24.49c-.19,2.48,1.64,4.32,4.09,4.12Z"/>
      </g>
      <path class="cls-5" d="m395.64,234.35c3.58,3.44,5.43,6.13,5.16,17.31-.26,11.18-2.28,27.35-3.61,38.28l-9.51,1.45s1.49-17.2,0-28.53c-1.62-12.35-.34-19.28,1.15-20.17"/>
      <path class="cls-5" d="m388.23,281.87c-.2,3.2-6.05,4.18-6.48,6.2-.14.66-2.15,5.08-2.15,5.08,0,0-.14,2.37.27,3.79.5,1.72,2.05.72,2.05.72l.49,1.23c.79,1.98,2.28.15,4.79,1.38,2.52,1.24,3.74-.4,4.71,0,.98.4,4.14-.59,4.73-1.78.59-1.19-.35-6.45.55-8.54.9-2.09.92-6.31.92-8.07"/>
      <path class="cls-5" d="m381.91,297.66s.04-3.22,2.08-4.51"/>
    </g>
    <g>
      <rect class="cls-3" x="163.3" y="181.45" width="88.95" height="18.38"/>
      <rect class="cls-3" x="163.3" y="205.34" width="88.95" height="18.38"/>
      <rect class="cls-3" x="163.3" y="229.23" width="88.95" height="18.38"/>
      <rect class="cls-3" x="163.3" y="253.12" width="88.95" height="18.38"/>
      <rect class="cls-3" x="163.3" y="277.01" width="88.95" height="18.38"/>
      <rect class="cls-8" x="179.75" y="179.38" width="75.24" height="22.5" rx="1.98" ry="1.98"/>
      <rect class="cls-8" x="179.75" y="203.27" width="75.24" height="22.5" rx="1.98" ry="1.98"/>
      <rect class="cls-8" x="179.75" y="227.17" width="75.24" height="22.5" rx="1.98" ry="1.98"/>
      <rect class="cls-8" x="179.75" y="251.06" width="75.24" height="22.5" rx="1.98" ry="1.98"/>
      <rect class="cls-8" x="179.75" y="274.95" width="75.24" height="22.5" rx="1.98" ry="1.98"/>
    </g>
    <path class="cls-5" d="m262.08,194.16s-5.16-2.31-4.97-5.96c.06-1.19-.7-2.71-.7-2.71,0,0-5-1.18-4.3-3.18l6.84.65s3.47,1.89,4.96,6.02"/>
    <g>
      <rect class="cls-2" x="68.5" y="178.94" width="104.88" height="263.4"/>
      <g>
        <rect class="cls-3" x="63.88" y="179.39" width="75.24" height="22.5" rx="1.98" ry="1.98"/>
        <rect class="cls-8" x="102.75" y="179.39" width="75.24" height="22.5" rx="1.98" ry="1.98"/>
        <path class="cls-24" d="m104.74,198.53v-15.79c.01-.75.63-1.36,1.38-1.36l68.53.02c.75,0,1.36.61,1.36,1.37v15.78c-.01.75-.63,1.36-1.38,1.36h-68.53c-.75,0-1.37-.61-1.36-1.37Z"/>
        <rect class="cls-4" x="109.18" y="192.6" width="40.22" height="6.46" rx="1.32" ry="1.32"/>
        <rect class="cls-4" x="117.05" y="185.48" width="40.22" height="6.46" rx="1.32" ry="1.32"/>
      </g>
      <g>
        <rect class="cls-3" x="63.88" y="298.85" width="75.24" height="22.5" rx="1.98" ry="1.98"/>
        <rect class="cls-8" x="102.75" y="298.85" width="75.24" height="22.5" rx="1.98" ry="1.98"/>
        <rect class="cls-2" x="112.61" y="308.31" width="44.66" height="3.57"/>
        <path class="cls-4" d="m165.11,310.1c0,1-.81,1.81-1.81,1.81s-1.81-.81-1.81-1.81.81-1.81,1.81-1.81,1.81.81,1.81,1.81Z"/>
        <path class="cls-2" d="m171.55,310.1c0,1-.81,1.81-1.81,1.81s-1.81-.81-1.81-1.81.81-1.81,1.81-1.81,1.81.81,1.81,1.81Z"/>
        <rect class="cls-20" x="114.24" y="309.5" width="26.13" height="1.19"/>
      </g>
      <g>
        <rect class="cls-3" x="63.88" y="322.74" width="75.24" height="22.5" rx="1.98" ry="1.98"/>
        <rect class="cls-8" x="102.75" y="322.74" width="75.24" height="22.5" rx="1.98" ry="1.98"/>
        <rect class="cls-2" x="112.61" y="332.2" width="44.66" height="3.57"/>
        <circle class="cls-4" cx="163.3" cy="333.99" r="1.81"/>
        <path class="cls-2" d="m171.55,333.99c0,1-.81,1.81-1.81,1.81s-1.81-.81-1.81-1.81.81-1.81,1.81-1.81,1.81.81,1.81,1.81Z"/>
        <rect class="cls-20" x="114.24" y="333.4" width="26.13" height="1.18"/>
      </g>
      <g>
        <rect class="cls-3" x="63.88" y="346.63" width="75.24" height="22.5" rx="1.98" ry="1.98"/>
        <rect class="cls-8" x="102.75" y="346.63" width="75.24" height="22.5" rx="1.98" ry="1.98"/>
        <rect class="cls-2" x="112.61" y="356.09" width="44.66" height="3.57"/>
        <circle class="cls-4" cx="163.3" cy="357.88" r="1.81"/>
        <path class="cls-2" d="m171.55,357.88c0,1-.81,1.81-1.81,1.81s-1.81-.81-1.81-1.81.81-1.81,1.81-1.81,1.81.81,1.81,1.81Z"/>
        <rect class="cls-20" x="114.24" y="357.29" width="26.13" height="1.18"/>
      </g>
      <g>
        <rect class="cls-3" x="63.88" y="370.52" width="75.24" height="22.5" rx="1.98" ry="1.98"/>
        <rect class="cls-8" x="102.75" y="370.52" width="75.24" height="22.5" rx="1.98" ry="1.98"/>
        <rect class="cls-2" x="112.61" y="379.98" width="44.66" height="3.57"/>
        <path class="cls-4" d="m165.11,381.77c0,1-.81,1.81-1.81,1.81s-1.81-.81-1.81-1.81.81-1.81,1.81-1.81,1.81.81,1.81,1.81Z"/>
        <path class="cls-2" d="m171.55,381.77c0,1-.81,1.81-1.81,1.81s-1.81-.81-1.81-1.81.81-1.81,1.81-1.81,1.81.81,1.81,1.81Z"/>
        <rect class="cls-20" x="114.24" y="381.18" width="26.13" height="1.19"/>
      </g>
      <g>
        <rect class="cls-3" x="63.88" y="394.41" width="75.24" height="22.5" rx="1.98" ry="1.98"/>
        <rect class="cls-8" x="102.75" y="394.41" width="75.24" height="22.5" rx="1.98" ry="1.98"/>
        <rect class="cls-2" x="112.61" y="403.88" width="44.66" height="3.57"/>
        <circle class="cls-4" cx="163.3" cy="405.66" r="1.81"/>
        <path class="cls-2" d="m171.55,405.66c0,1-.81,1.81-1.81,1.81s-1.81-.81-1.81-1.81.81-1.81,1.81-1.81,1.81.81,1.81,1.81Z"/>
        <rect class="cls-20" x="114.24" y="405.07" width="26.13" height="1.18"/>
      </g>
      <g>
        <rect class="cls-3" x="63.88" y="418.3" width="75.24" height="22.5" rx="1.98" ry="1.98"/>
        <rect class="cls-8" x="102.75" y="418.3" width="75.24" height="22.5" rx="1.98" ry="1.98"/>
        <rect class="cls-2" x="112.61" y="427.77" width="44.66" height="3.57"/>
        <circle class="cls-4" cx="163.3" cy="429.56" r="1.81"/>
        <path class="cls-2" d="m171.55,429.56c0,1-.81,1.81-1.81,1.81s-1.81-.81-1.81-1.81.81-1.81,1.81-1.81,1.81.81,1.81,1.81Z"/>
        <rect class="cls-20" x="114.24" y="428.96" width="26.13" height="1.18"/>
      </g>
      <g>
        <rect class="cls-3" x="63.88" y="274.95" width="75.24" height="22.5" rx="1.98" ry="1.98"/>
        <rect class="cls-8" x="102.75" y="274.95" width="75.24" height="22.5" rx="1.98" ry="1.98"/>
        <path class="cls-24" d="m104.74,294.09v-15.79c.01-.75.63-1.36,1.38-1.36l68.53.02c.75,0,1.36.61,1.36,1.37v15.78c-.01.75-.63,1.36-1.38,1.36h-68.53c-.75,0-1.37-.61-1.36-1.37Z"/>
        <rect class="cls-4" x="109.18" y="288.16" width="40.22" height="6.46" rx="1.32" ry="1.32"/>
        <rect class="cls-4" x="151.39" y="288.16" width="20.22" height="6.46" rx="1.32" ry="1.32"/>
        <rect class="cls-4" x="113.51" y="281.65" width="20.22" height="6.46" rx="1.32" ry="1.32"/>
      </g>
      <g>
        <rect class="cls-3" x="63.88" y="251.06" width="75.24" height="22.5" rx="1.98" ry="1.98"/>
        <rect class="cls-8" x="102.75" y="251.06" width="75.24" height="22.5" rx="1.98" ry="1.98"/>
        <path class="cls-24" d="m104.74,270.2v-15.79c.01-.75.63-1.36,1.38-1.36l68.53.02c.75,0,1.36.61,1.36,1.37v15.78c-.01.75-.63,1.36-1.38,1.36h-68.53c-.75,0-1.37-.61-1.36-1.37Z"/>
        <rect class="cls-4" x="129.79" y="264.27" width="20.22" height="6.46" rx="1.32" ry="1.32"/>
        <rect class="cls-4" x="151.39" y="264.27" width="20.22" height="6.46" rx="1.32" ry="1.32"/>
        <rect class="cls-4" x="108.57" y="264.27" width="20.22" height="6.46" rx="1.32" ry="1.32"/>
        <rect class="cls-4" x="124.39" y="257.35" width="20.22" height="6.46" rx="1.32" ry="1.32"/>
      </g>
      <g>
        <rect class="cls-3" x="63.88" y="227.17" width="75.24" height="22.5" rx="1.98" ry="1.98"/>
        <rect class="cls-8" x="102.75" y="227.17" width="75.24" height="22.5" rx="1.98" ry="1.98"/>
        <path class="cls-24" d="m104.74,246.31v-15.79c.01-.75.63-1.36,1.38-1.36l68.53.02c.75,0,1.36.61,1.36,1.37v15.78c-.01.75-.63,1.36-1.38,1.36h-68.53c-.75,0-1.37-.61-1.36-1.37Z"/>
        <rect class="cls-4" x="122.18" y="240.38" width="40.22" height="6.46" rx="1.32" ry="1.32"/>
        <path class="cls-4" d="m155.96,239.72h-37.58c-.73,0-1.32-.59-1.32-1.32v.18c0-.73.59-1.32,1.32-1.32h37.58c.73,0,1.32.59,1.32,1.32v-.18c0,.73-.59,1.32-1.32,1.32Z"/>
      </g>
      <g>
        <rect class="cls-3" x="63.88" y="203.28" width="75.24" height="22.5" rx="1.98" ry="1.98"/>
        <rect class="cls-8" x="102.75" y="203.28" width="75.24" height="22.5" rx="1.98" ry="1.98"/>
        <path class="cls-24" d="m104.74,222.42v-15.79c.01-.75.63-1.36,1.38-1.36l68.53.02c.75,0,1.36.61,1.36,1.37v15.78c-.01.75-.63,1.36-1.38,1.36h-68.53c-.75,0-1.37-.61-1.36-1.37Z"/>
        <rect class="cls-4" x="129.18" y="216.49" width="40.22" height="6.46" rx="1.32" ry="1.32"/>
        <rect class="cls-4" x="137.05" y="209.37" width="20.22" height="6.46" rx="1.32" ry="1.32"/>
      </g>
      <g>
        <g>
          <line class="cls-6" x1="68.16" y1="193.65" x2="68.16" y2="199.06"/>
          <line class="cls-6" x1="69.88" y1="193.65" x2="69.88" y2="199.06"/>
          <line class="cls-6" x1="71.59" y1="193.65" x2="71.59" y2="199.06"/>
          <line class="cls-6" x1="73.31" y1="193.65" x2="73.31" y2="199.06"/>
          <line class="cls-6" x1="75.02" y1="193.65" x2="75.02" y2="199.06"/>
        </g>
        <g>
          <line class="cls-6" x1="68.16" y1="432.65" x2="68.16" y2="438.06"/>
          <line class="cls-6" x1="69.88" y1="432.65" x2="69.88" y2="438.06"/>
          <line class="cls-6" x1="71.59" y1="432.65" x2="71.59" y2="438.06"/>
          <line class="cls-6" x1="73.31" y1="432.65" x2="73.31" y2="438.06"/>
          <line class="cls-6" x1="75.02" y1="432.65" x2="75.02" y2="438.06"/>
        </g>
        <g>
          <line class="cls-6" x1="68.16" y1="408.75" x2="68.16" y2="414.16"/>
          <line class="cls-6" x1="69.88" y1="408.75" x2="69.88" y2="414.16"/>
          <line class="cls-6" x1="71.59" y1="408.75" x2="71.59" y2="414.16"/>
          <line class="cls-6" x1="73.31" y1="408.75" x2="73.31" y2="414.16"/>
          <line class="cls-6" x1="75.02" y1="408.75" x2="75.02" y2="414.16"/>
        </g>
        <g>
          <line class="cls-6" x1="68.16" y1="384.85" x2="68.16" y2="390.26"/>
          <line class="cls-6" x1="69.88" y1="384.85" x2="69.88" y2="390.26"/>
          <line class="cls-6" x1="71.59" y1="384.85" x2="71.59" y2="390.26"/>
          <line class="cls-6" x1="73.31" y1="384.85" x2="73.31" y2="390.26"/>
          <line class="cls-6" x1="75.02" y1="384.85" x2="75.02" y2="390.26"/>
        </g>
        <g>
          <line class="cls-6" x1="68.16" y1="360.95" x2="68.16" y2="366.36"/>
          <line class="cls-6" x1="69.88" y1="360.95" x2="69.88" y2="366.36"/>
          <line class="cls-6" x1="71.59" y1="360.95" x2="71.59" y2="366.36"/>
          <line class="cls-6" x1="73.31" y1="360.95" x2="73.31" y2="366.36"/>
          <line class="cls-6" x1="75.02" y1="360.95" x2="75.02" y2="366.36"/>
        </g>
        <g>
          <line class="cls-6" x1="68.16" y1="337.05" x2="68.16" y2="342.46"/>
          <line class="cls-6" x1="69.88" y1="337.05" x2="69.88" y2="342.46"/>
          <line class="cls-6" x1="71.59" y1="337.05" x2="71.59" y2="342.46"/>
          <line class="cls-6" x1="73.31" y1="337.05" x2="73.31" y2="342.46"/>
          <line class="cls-6" x1="75.02" y1="337.05" x2="75.02" y2="342.46"/>
        </g>
        <g>
          <line class="cls-6" x1="68.16" y1="313.15" x2="68.16" y2="318.56"/>
          <line class="cls-6" x1="69.88" y1="313.15" x2="69.88" y2="318.56"/>
          <line class="cls-6" x1="71.59" y1="313.15" x2="71.59" y2="318.56"/>
          <line class="cls-6" x1="73.31" y1="313.15" x2="73.31" y2="318.56"/>
          <line class="cls-6" x1="75.02" y1="313.15" x2="75.02" y2="318.56"/>
        </g>
        <g>
          <line class="cls-6" x1="68.16" y1="289.25" x2="68.16" y2="294.66"/>
          <line class="cls-6" x1="69.88" y1="289.25" x2="69.88" y2="294.66"/>
          <line class="cls-6" x1="71.59" y1="289.25" x2="71.59" y2="294.66"/>
          <line class="cls-6" x1="73.31" y1="289.25" x2="73.31" y2="294.66"/>
          <line class="cls-6" x1="75.02" y1="289.25" x2="75.02" y2="294.66"/>
        </g>
        <g>
          <line class="cls-6" x1="68.16" y1="265.35" x2="68.16" y2="270.76"/>
          <line class="cls-6" x1="69.88" y1="265.35" x2="69.88" y2="270.76"/>
          <line class="cls-6" x1="71.59" y1="265.35" x2="71.59" y2="270.76"/>
          <line class="cls-6" x1="73.31" y1="265.35" x2="73.31" y2="270.76"/>
          <line class="cls-6" x1="75.02" y1="265.35" x2="75.02" y2="270.76"/>
        </g>
        <g>
          <line class="cls-6" x1="68.16" y1="241.45" x2="68.16" y2="246.86"/>
          <line class="cls-6" x1="69.88" y1="241.45" x2="69.88" y2="246.86"/>
          <line class="cls-6" x1="71.59" y1="241.45" x2="71.59" y2="246.86"/>
          <line class="cls-6" x1="73.31" y1="241.45" x2="73.31" y2="246.86"/>
          <line class="cls-6" x1="75.02" y1="241.45" x2="75.02" y2="246.86"/>
        </g>
        <g>
          <line class="cls-6" x1="68.16" y1="217.55" x2="68.16" y2="222.96"/>
          <line class="cls-6" x1="69.88" y1="217.55" x2="69.88" y2="222.96"/>
          <line class="cls-6" x1="71.59" y1="217.55" x2="71.59" y2="222.96"/>
          <line class="cls-6" x1="73.31" y1="217.55" x2="73.31" y2="222.96"/>
          <line class="cls-6" x1="75.02" y1="217.55" x2="75.02" y2="222.96"/>
        </g>
      </g>
    </g>
  </g>
</svg>