<svg width="536" height="535" viewBox="0 0 536 535" fill="none" xmlns="http://www.w3.org/2000/svg">
<g clip-path="url(#clip0_1423_2531)">
<g opacity="0.35">
<path d="M239.139 215.081C238.65 215.081 238.162 214.755 238.081 214.185L235.883 202.778L225.545 209.052C225.056 209.377 224.405 209.215 224.08 208.726C223.754 208.237 223.917 207.585 224.405 207.259L236.046 200.17C236.371 200.007 236.697 199.926 237.022 200.089C237.348 200.252 237.592 200.496 237.674 200.904L240.116 213.859C240.197 214.429 239.871 215 239.22 215.163C239.302 215.081 239.22 215.081 239.139 215.081Z" fill="#939598"/>
</g>
<g opacity="0.35">
<path d="M151.224 311.96C151.061 311.96 150.898 311.96 150.817 311.878C150.328 311.634 150.084 311.064 150.328 310.493L170.109 267.472C170.272 267.065 170.679 266.82 171.086 266.902C171.493 266.902 171.818 267.146 171.981 267.554L176.214 278.309L188.18 243.273C188.343 242.866 188.75 242.54 189.238 242.621C189.726 242.621 190.052 242.947 190.133 243.436L194.611 265.924L206.251 224.777C206.332 224.37 206.739 224.044 207.228 224.044C207.635 224.044 208.042 224.288 208.205 224.696L215.449 244.251L231.241 209.948C231.485 209.459 232.055 209.215 232.625 209.459C233.113 209.703 233.358 210.274 233.113 210.844L216.263 247.265C216.1 247.673 215.693 247.836 215.286 247.836C214.879 247.836 214.472 247.591 214.391 247.184L207.391 228.281L195.425 270.487C195.262 270.976 194.855 271.22 194.366 271.22C193.878 271.22 193.471 270.894 193.39 270.405L188.831 247.51L177.191 281.568C177.028 281.976 176.702 282.22 176.214 282.301C175.807 282.301 175.4 282.057 175.237 281.65L170.841 270.487L152.038 311.308C151.956 311.716 151.549 311.96 151.224 311.96Z" fill="#939598"/>
</g>
<g opacity="0.35">
<path d="M435.963 367.894C435.222 367.894 434.481 367.399 434.357 366.533L431.021 349.217L415.327 358.741C414.586 359.235 413.597 358.988 413.103 358.246C412.609 357.504 412.856 356.514 413.597 356.019L431.268 345.259C431.762 345.011 432.256 344.887 432.751 345.135C433.245 345.382 433.616 345.753 433.739 346.372L437.446 366.038C437.57 366.904 437.076 367.77 436.087 368.017C436.211 367.894 436.087 367.894 435.963 367.894Z" fill="#939598"/>
</g>
<g opacity="0.35">
<path d="M302.505 514.96C302.258 514.96 302.01 514.96 301.887 514.836C301.145 514.465 300.775 513.599 301.145 512.734L331.173 447.426C331.42 446.807 332.038 446.436 332.656 446.56C333.274 446.56 333.768 446.931 334.015 447.549L340.441 463.876L358.606 410.69C358.853 410.072 359.471 409.577 360.212 409.701C360.954 409.701 361.448 410.195 361.571 410.937L368.368 445.076L386.038 382.613C386.162 381.994 386.78 381.499 387.521 381.499C388.139 381.499 388.757 381.871 389.004 382.489L400.002 412.174L423.975 360.101C424.345 359.359 425.21 358.988 426.075 359.359C426.817 359.73 427.188 360.596 426.817 361.462L401.238 416.751C400.991 417.369 400.373 417.617 399.755 417.617C399.137 417.617 398.519 417.246 398.396 416.627L387.768 387.931L369.604 452.002C369.356 452.744 368.739 453.115 367.997 453.115C367.256 453.115 366.638 452.621 366.514 451.879L359.594 417.122L341.924 468.824C341.677 469.442 341.182 469.813 340.441 469.937C339.823 469.937 339.205 469.566 338.958 468.948L332.285 452.002L303.74 513.97C303.617 514.589 302.999 514.96 302.505 514.96Z" fill="#939598"/>
</g>
<path d="M490.502 129.715L519.362 143.232C526.549 146.508 534.666 140.01 532.414 132.418C531.806 130.145 530.241 128.018 527.491 126.43C520.42 122.348 515.01 127.787 515.01 127.787C515.01 127.787 523.759 110.819 511.275 108.855C498.53 106.739 499.727 122.809 499.727 122.809C499.727 122.809 489.164 119.331 487.514 123.097C486.146 126.676 490.502 129.715 490.502 129.715Z" fill="#939598"/>
<path d="M121.649 40.5326L144.445 51.2472C150.116 53.8225 156.519 48.7811 154.785 42.7122C154.287 40.8522 153.094 39.2896 150.999 38.0801C145.369 34.8293 141.108 39.1849 141.108 39.1849C141.108 39.1849 147.945 25.8312 138.217 24.2342C128.152 22.6171 129.085 35.2139 129.085 35.2139C129.085 35.2139 120.713 32.4776 119.386 35.3812C118.134 38.1537 121.649 40.5326 121.649 40.5326Z" fill="#939598"/>
<path d="M429.046 325.664L508.131 342.467C508.131 342.467 523.608 336.117 520.262 325.819C515.171 310.354 489.575 316.5 487.099 317.56C484.624 318.62 495.45 288.148 468.813 286.494C440.676 284.595 447.122 319.54 446.584 314.538C445.982 306.856 440.054 303.857 433.468 305.07C426.697 306.389 419.745 318.314 429.046 325.664Z" fill="#939598"/>
<path d="M158.002 77.034C158.002 77.034 169.191 73.5531 175.843 66.5912C183.403 58.57 182.95 53.5757 182.95 53.5757L205.176 64.3211C205.176 64.3211 205.176 68.4074 199.279 77.488C193.08 87.0226 186.125 90.3522 181.74 92.017C180.682 92.471 179.926 92.6224 179.926 92.6224L158.002 77.034Z" fill="#C5FFF4"/>
<path d="M183.672 86.2088L168.162 76.2143L167.589 77.105L183.099 87.0996L183.672 86.2088Z" fill="white"/>
<path d="M188.318 82.9079L173.016 73.1499L172.447 74.0434L187.749 83.8014L188.318 82.9079Z" fill="white"/>
<path d="M192.247 78.7844L177.48 69.887L176.935 70.7946L191.701 79.692L192.247 78.7844Z" fill="white"/>
<path d="M196.016 74.1756L182.016 66.0609L181.485 66.9777L195.486 75.0924L196.016 74.1756Z" fill="white"/>
<path d="M199.662 68.5452L185.197 61.6357L184.741 62.5919L199.206 69.5013L199.662 68.5452Z" fill="white"/>
<path d="M166.471 143.625C166.471 143.625 178.264 143.474 186.429 138.631C195.803 133.031 196.862 128.188 196.862 128.188L215.308 144.685C215.308 144.685 214.098 148.62 205.934 155.733C197.315 163.149 189.755 164.511 185.068 164.813C183.859 164.965 183.103 164.965 183.103 164.965L166.471 143.625Z" fill="#C5FFF4"/>
<path d="M188.682 159.444L176.562 145.524L175.765 146.22L187.884 160.14L188.682 159.444Z" fill="white"/>
<path d="M193.943 157.785L181.957 144.149L181.162 144.849L193.148 158.484L193.943 157.785Z" fill="white"/>
<path d="M198.894 154.764L187.184 142.103L186.407 142.823L198.118 155.484L198.894 154.764Z" fill="white"/>
<path d="M203.796 151.427L192.604 139.734L191.839 140.467L203.031 152.16L203.796 151.427Z" fill="white"/>
<path d="M208.798 147.081L196.826 136.415L196.122 137.206L208.095 147.873L208.798 147.081Z" fill="white"/>
<path d="M133.509 102.46C133.509 102.46 137.592 113.508 144.849 119.713C153.165 126.826 158.155 126.069 158.155 126.069L148.78 148.922C148.78 148.922 144.698 149.074 135.324 143.625C125.496 137.874 121.716 131.215 119.75 126.977C119.297 125.918 118.994 125.161 118.994 125.161L133.509 102.46Z" fill="#C5FFF4"/>
<path d="M125.873 128.76L134.973 112.7L134.052 112.178L124.953 128.237L125.873 128.76Z" fill="white"/>
<path d="M129.327 133.204L138.203 117.363L137.28 116.845L128.404 132.685L129.327 133.204Z" fill="white"/>
<path d="M133.671 137.005L141.719 121.748L140.783 121.254L132.735 136.511L133.671 137.005Z" fill="white"/>
<path d="M138.48 140.449L145.789 126.002L144.845 125.524L137.536 139.97L138.48 140.449Z" fill="white"/>
<path d="M144.197 143.759L150.279 128.917L149.3 128.515L143.218 143.357L144.197 143.759Z" fill="white"/>
<path d="M156.793 451.912C156.34 450.55 155.886 449.188 155.281 447.826C156.037 448.28 156.793 448.734 157.549 449.037C157.398 450.096 157.096 451.004 156.793 451.912Z" fill="url(#paint0_linear_1423_2531)"/>
<path d="M452.689 522.439C452.236 513.963 445.583 506.85 437.116 505.942C428.195 505.034 420.484 510.634 418.216 518.504C410.505 514.417 401.584 512.147 392.21 512.147C391 512.147 389.791 512.147 388.581 512.298V512.147C388.581 494.289 374.217 479.911 356.376 479.911C352.293 479.911 348.362 480.668 344.885 482.03C345.036 481.273 345.036 480.668 345.036 479.911C345.036 469.922 336.72 461.901 326.741 462.204C317.518 462.506 309.958 470.376 309.806 479.608C309.806 486.873 314.191 493.229 320.39 495.953C320.239 495.953 320.088 495.953 319.937 495.953C314.947 495.953 310.26 497.315 306.178 499.737C305.119 492.321 301.793 485.208 296.199 479.608C291.511 474.917 285.766 471.738 279.718 470.225C279.718 469.014 279.869 467.803 279.869 466.744C279.869 450.399 273.519 435.567 263.237 424.368C244.489 404.088 239.045 374.727 249.629 349.301C249.781 349.15 249.781 348.847 249.932 348.696C264.598 314.492 296.652 278.472 303.456 269.24C304.363 268.181 304.212 266.516 303.154 265.608C301.793 264.549 300.13 264.851 299.071 266.214C293.023 274.235 266.866 304.958 230.578 329.173C218.482 337.194 200.943 340.221 184.311 340.675C164.202 341.431 144.697 334.47 128.519 322.362C118.842 315.098 106.746 310.709 93.5921 310.709C88.4513 310.709 83.4618 311.314 78.7746 312.676C78.9258 311.465 78.9258 310.103 78.9258 308.893C78.9258 292.547 67.2835 278.926 52.0124 275.748C52.1636 274.537 52.3148 273.327 52.3148 272.116C52.3148 256.074 38.4045 243.209 21.9238 245.025C12.0959 246.236 3.77997 252.593 0 261.219V410.849C0 479.332 55.5167 534.849 124 534.849H241.011C241.616 531.822 242.069 528.644 242.372 525.465C243.43 526.979 244.64 528.492 246.001 529.854C247.966 531.822 250.083 533.487 252.351 534.849H289.697C291.209 533.941 292.57 533.033 293.931 531.822C294.233 532.881 294.687 533.789 295.14 534.849H448.456C451.177 531.67 452.841 527.281 452.689 522.439Z" fill="url(#paint1_linear_1423_2531)"/>
<path d="M25.8548 237.61C31.0321 237.61 35.2291 233.409 35.2291 228.226C35.2291 223.044 31.0321 218.843 25.8548 218.843C20.6775 218.843 16.4805 223.044 16.4805 228.226C16.4805 233.409 20.6775 237.61 25.8548 237.61Z" fill="black"/>
<path d="M93.5931 305.109C98.7704 305.109 102.967 300.908 102.967 295.726C102.967 290.543 98.7704 286.342 93.5931 286.342C88.4158 286.342 84.2188 290.543 84.2188 295.726C84.2188 300.908 88.4158 305.109 93.5931 305.109Z" fill="black"/>
<path d="M100.397 359.441C108.497 359.441 115.063 352.869 115.063 344.761C115.063 336.653 108.497 330.081 100.397 330.081C92.2968 330.081 85.7305 336.653 85.7305 344.761C85.7305 352.869 92.2968 359.441 100.397 359.441Z" fill="black"/>
<path d="M355.317 535C355.317 534.395 355.469 533.638 355.469 532.881C355.469 522.59 347.153 514.266 336.871 514.266C330.823 514.266 325.38 517.141 321.902 521.682C320.995 520.471 320.088 519.26 319.03 518.201C310.562 509.726 297.711 508.061 287.58 513.509C288.185 510.785 288.336 508.061 288.336 505.337C288.336 482.181 269.588 463.414 246.454 463.414C246.152 463.414 246.001 463.414 245.698 463.414C250.083 461.447 253.258 456.907 253.258 451.761C253.258 444.648 247.513 438.897 240.406 438.897C233.3 438.897 227.554 444.648 227.554 451.761C227.554 457.966 231.939 463.112 237.685 464.322C225.589 466.895 215.458 474.614 209.562 485.057C208.957 484.754 208.352 484.451 207.747 484.148C208.352 482.181 208.654 479.911 208.654 477.792C208.654 470.83 205.63 464.625 200.943 460.236C218.482 453.274 230.881 436.021 230.881 416.044C230.881 409.839 229.671 403.936 227.554 398.488C223.774 376.997 230.427 358.079 249.478 332.956C277.904 295.12 288.185 282.407 288.185 282.407C288.185 282.407 258.701 314.038 234.358 332.956C210.015 351.874 187.638 353.842 187.638 353.842C178.717 354.901 171.308 360.349 167.226 367.765C162.69 359.139 153.618 353.236 143.185 353.236C132.904 353.236 124.134 358.836 119.447 367.311C117.028 365.798 114.306 364.89 111.282 364.89C103.874 364.89 97.6745 370.187 96.1625 377.148C95.5577 377.148 95.1041 377.148 94.4993 377.3C94.4993 377.148 94.4993 377.149 94.4993 376.997C94.4993 362.165 82.5546 350.209 67.7371 350.209C62.4451 350.209 57.4556 351.723 53.3732 354.447C52.0124 344.912 46.8717 336.588 39.4629 331.14C43.6965 326.448 46.2669 320.243 46.2669 313.281C46.2669 298.45 34.3221 286.494 19.5047 286.494C11.9447 286.494 5.14076 289.672 0.302398 294.666L0.172596 397.828C0.077309 473.558 61.4422 535 137.172 535H355.317Z" fill="#0F9D87"/>
<path d="M305.725 245.934L313.436 255.166L323.868 261.068C325.985 262.279 326.741 265.154 325.38 267.122L301.945 301.174C301.945 301.174 291.814 290.731 287.581 287.25C283.347 283.618 270.646 275.143 270.646 275.143L299.677 245.631C301.34 243.815 304.061 244.117 305.725 245.934Z" fill="#00898D"/>
<path d="M345.489 216.573C344.431 237.61 326.136 265.911 326.136 265.911C316.005 261.371 307.236 253.955 300.885 244.874C300.734 244.723 325.984 220.962 345.489 216.573Z" fill="#0F9D87"/>
<path d="M326.136 265.911C326.136 265.911 330.672 259.403 323.868 269.543C305.573 297.088 301.944 301.174 301.944 301.174C301.944 301.174 294.838 292.699 287.58 287.25C287.58 287.25 297.106 276.051 310.714 259.857C311.318 259.1 311.923 258.344 312.528 257.587C316.61 260.917 321.297 263.641 326.136 265.911Z" fill="#004345"/>
<path d="M312.527 257.436C325.53 241.393 337.778 219.448 338.685 218.54C340.953 217.632 343.221 216.876 345.337 216.422C345.337 216.573 345.337 216.724 345.337 217.027C345.186 219.297 343.977 228.529 338.382 242.301C332.788 255.317 325.984 265.76 325.984 265.76C321.297 263.641 316.61 260.917 312.527 257.436Z" fill="url(#paint2_linear_1423_2531)"/>
<path d="M270.646 274.991C269.89 275.9 276.391 282.407 285.01 289.521C293.628 296.785 301.188 301.931 301.944 301.023C302.7 300.115 296.198 293.607 287.58 286.494C278.962 279.38 271.402 274.235 270.646 274.991Z" fill="#004345"/>
<path d="M337.906 199.652L363.611 221.255L402.791 174.548L377.086 152.944L337.906 199.652Z" fill="#0F9D87"/>
<path d="M371.192 193.72C371.192 193.72 372.553 192.055 371.797 190.693C371.041 189.331 358.945 178.586 358.945 178.586C358.945 178.586 373.914 187.969 377.089 190.693C380.264 193.417 382.684 198.866 382.684 198.866L380.416 201.438L371.192 193.72Z" fill="url(#paint3_linear_1423_2531)"/>
<path d="M349.572 166.478L389.64 199.925L394.176 204.163L427.44 164.511L382.685 126.977L349.572 166.478Z" fill="url(#paint4_linear_1423_2531)"/>
<path d="M307.84 235.491L333.544 257.133L380.264 201.438L354.56 179.796L307.84 235.491Z" fill="url(#paint5_linear_1423_2531)"/>
<path opacity="0.32" d="M365.296 188.877C365.296 188.877 364.691 195.839 360.155 202.952C355.619 210.216 320.541 246.236 320.541 246.236L333.393 257.133L380.113 201.438L365.296 188.877Z" fill="#00898D"/>
<path d="M423.055 90.2009L438.175 107.908L458.133 119.713C462.366 122.134 463.878 127.28 461.459 130.761L420.031 190.693C420.031 190.693 400.526 170.716 392.21 163.754C383.894 156.792 359.854 139.993 359.854 139.993L411.866 88.6874C414.739 85.9632 420.031 86.5686 423.055 90.2009Z" fill="url(#paint6_linear_1423_2531)"/>
<path d="M494.873 45.2518C491.697 82.9364 462.365 128.642 462.365 128.642C443.011 119.108 426.38 105.033 413.83 87.628C413.83 87.628 455.107 50.0948 490.186 41.1655C492.756 40.4088 495.175 42.5276 494.873 45.2518Z" fill="url(#paint7_linear_1423_2531)"/>
<path d="M420.031 190.844L408.842 186.758C408.842 186.758 398.712 176.315 388.128 167.689C374.369 156.338 364.087 149.225 364.087 149.225L359.854 140.296L362.424 141.809C384.197 154.673 403.701 171.321 420.031 190.844Z" fill="#004345"/>
<path d="M382.684 198.866C382.684 198.866 378.45 194.023 371.042 187.818C361.214 179.645 356.98 177.223 356.98 177.223L354.107 170.262C367.413 178.434 379.66 188.574 390.093 200.228L382.684 198.866Z" fill="#004345"/>
<path opacity="0.32" d="M458.888 126.675C439.384 161.484 420.03 190.844 420.03 190.844C420.03 190.844 411.11 180.704 405.818 175.407C398.106 167.689 394.629 164.965 394.629 164.965C394.629 164.965 415.343 147.56 441.047 115.475C446.641 119.562 452.689 123.345 458.888 126.675Z" fill="#00898D"/>
<path d="M448.757 105.638C463.272 86.4173 486.406 49.6407 492.605 44.9491C493.21 44.4951 494.117 44.9491 493.966 45.7058C493.361 51.4569 489.127 79.6068 465.389 116.837C463.272 120.167 461.156 123.496 459.039 126.675C452.688 123.345 446.792 119.713 441.197 115.475C443.465 112.297 446.036 108.967 448.757 105.638Z" fill="#0F9D87"/>
<path d="M414.739 157.851C427.515 157.851 437.872 147.484 437.872 134.696C437.872 121.907 427.515 111.54 414.739 111.54C401.963 111.54 391.605 121.907 391.605 134.696C391.605 147.484 401.963 157.851 414.739 157.851Z" fill="url(#paint8_linear_1423_2531)"/>
<path opacity="0.32" d="M376.031 186.304C376.031 186.304 381.172 178.283 380.567 169.656C380.114 163.603 374.671 157.7 371.495 154.673C370.135 153.311 369.076 152.706 369.076 152.706C369.076 152.706 384.952 164.662 392.814 171.624C400.677 178.737 408.69 186.758 408.69 186.758L394.024 204.163C394.175 204.163 382.23 191.752 376.031 186.304Z" fill="#00898D"/>
<path d="M423.829 172.831L452.514 139.637L448.854 136.469L420.169 169.663L423.829 172.831Z" fill="#004345"/>
<path d="M448.286 142.956L450.957 139.866L447.641 136.995L444.97 140.085L448.286 142.956Z" fill="#FFD400"/>
<path d="M444.765 146.928L447.436 143.837L444.119 140.966L441.449 144.057L444.765 146.928Z" fill="#FFD400"/>
<path d="M441.152 151.026L443.822 147.935L440.506 145.064L437.835 148.155L441.152 151.026Z" fill="#FFD400"/>
<path d="M437.738 155.087L440.408 151.996L437.092 149.125L434.421 152.216L437.738 155.087Z" fill="#FFD400"/>
<path d="M434.216 159.059L436.887 155.968L433.571 153.097L430.9 156.187L434.216 159.059Z" fill="#FFD400"/>
<path d="M430.808 163.13L433.479 160.039L430.162 157.168L427.492 160.259L430.808 163.13Z" fill="#FFD400"/>
<path d="M427.292 167.111L429.963 164.02L426.647 161.149L423.976 164.239L427.292 167.111Z" fill="#FFD400"/>
<path d="M423.884 171.182L426.555 168.092L423.238 165.22L420.568 168.311L423.884 171.182Z" fill="#FFD400"/>
<path opacity="0.66" d="M485.801 47.2193C485.801 47.2193 458.736 59.7808 440.895 73.2504C423.053 86.72 418.366 93.2278 418.366 93.2278L414.889 88.2334C414.889 88.2334 436.057 67.802 460.4 55.9972C484.591 44.1924 492 41.1655 491.244 42.8303C490.488 44.6464 485.801 47.2193 485.801 47.2193Z" fill="url(#paint9_linear_1423_2531)"/>
<path opacity="0.66" d="M419.275 97.314C419.275 97.314 405.214 110.784 395.235 121.075C385.255 131.366 372.706 146.349 372.706 146.349L363.785 140.296C363.785 140.296 384.802 119.259 398.107 106.395C410.052 94.7412 414.588 90.8062 414.588 90.8062L419.275 97.314Z" fill="url(#paint10_linear_1423_2531)"/>
<path d="M354.108 180.402L379.812 202.044C380.114 202.347 380.568 202.347 380.87 201.893C381.173 201.59 381.173 201.136 380.719 200.833L355.015 179.191C354.713 178.888 354.259 178.888 353.957 179.342C353.654 179.645 353.654 180.099 354.108 180.402Z" fill="#004345"/>
<path d="M306.631 231.556L337.627 257.587L378.148 209.308L347.152 183.277L306.631 231.556Z" fill="url(#paint11_linear_1423_2531)"/>
<path opacity="0.32" d="M360.156 194.174C360.156 194.174 360.761 200.984 357.132 207.492C353.503 214 322.205 244.571 322.205 244.571L337.779 257.587L378.3 209.308L360.156 194.174Z" fill="#00898D"/>
<path d="M346.547 183.883L377.694 210.065C378.148 210.368 378.602 210.368 379.055 209.914C379.358 209.46 379.358 209.006 378.904 208.552L347.757 182.521C347.303 182.218 346.85 182.218 346.396 182.672C346.094 182.975 346.094 183.58 346.547 183.883Z" fill="#004345"/>
<path d="M302.549 234.129L335.813 262.127L371.344 219.902L337.929 191.904L302.549 234.129Z" fill="url(#paint12_linear_1423_2531)"/>
<path opacity="0.32" d="M351.99 203.557C351.99 203.557 353.199 210.216 350.175 215.967C347.151 221.87 319.18 248.052 319.18 248.052L335.812 262.127L371.343 219.902L351.99 203.557Z" fill="#00898D"/>
<path d="M304.212 235.642C303.456 236.55 309.958 243.058 318.576 250.171C327.194 257.436 334.754 262.581 335.51 261.673C336.266 260.765 329.765 254.257 321.146 247.144C312.528 239.88 304.968 234.734 304.212 235.642Z" fill="#004345"/>
<path d="M337.325 192.661L370.74 220.659C371.193 220.962 371.798 220.962 372.1 220.508C372.403 220.054 372.403 219.448 371.949 219.146L338.685 190.996C338.232 190.693 337.627 190.693 337.325 191.147C336.871 191.601 336.871 192.207 337.325 192.661Z" fill="#004345"/>
<path d="M411.562 122.891C415.947 117.14 422.146 117.897 426.984 122.286C431.974 126.675 433.788 133.031 429.403 138.782C429.101 139.236 428.647 139.69 428.345 139.993C427.438 141.052 426.379 141.809 425.17 142.414C424.716 142.566 424.414 142.868 423.96 143.02C421.843 143.928 416.551 145.593 414.586 146.652C411.713 148.165 408.84 151.192 407.631 152.403C407.328 152.857 406.875 153.16 406.421 153.311L405.816 153.614C405.06 153.917 404.304 153.765 403.699 153.311L399.012 149.528C398.256 148.922 398.256 147.711 399.012 147.106C401.583 144.836 406.875 139.993 407.631 136.815C408.689 132.426 408.387 127.583 410.655 124.405C410.806 123.95 411.259 123.345 411.562 122.891Z" fill="white"/>
<path d="M408.841 120.47C413.226 114.719 419.425 115.475 424.264 119.864C429.253 124.253 431.068 130.61 426.683 136.361C426.38 136.815 425.927 137.269 425.624 137.571C424.717 138.631 423.659 139.388 422.449 139.993C421.996 140.144 421.693 140.447 421.24 140.598C419.123 141.506 416.855 142.112 414.889 143.171C411.109 144.987 410.958 146.047 410.958 146.047L407.027 142.566L403.096 139.085C403.096 139.085 404.003 138.782 404.91 134.393C405.968 130.004 405.666 125.161 407.934 121.983C408.085 121.529 408.388 120.924 408.841 120.47Z" fill="#FFD400"/>
<path d="M403.549 138.177C403.549 138.177 404.456 140.447 406.875 142.566C409.294 144.685 411.562 145.29 411.562 145.29C411.562 145.29 412.016 147.56 411.26 147.711C410.655 147.863 410.504 147.711 410.504 147.711C410.504 147.711 407.328 152.403 405.363 152.554C403.549 152.706 401.281 150.587 400.978 150.284C400.676 149.982 398.408 148.165 398.257 146.198C398.105 144.079 401.734 139.842 401.734 139.842C401.734 139.842 401.583 139.842 401.583 139.085C401.432 138.177 403.549 138.177 403.549 138.177Z" fill="url(#paint13_linear_1423_2531)"/>
<path d="M408.99 144.382C409.444 143.777 412.317 140.447 415.038 137.571C414.736 137.117 414.585 136.512 414.433 135.755C414.131 135.907 413.677 135.907 413.375 135.907C412.921 135.907 412.468 135.604 412.165 135.301L412.921 134.847C413.073 134.999 413.224 135.15 413.375 135.15C413.677 135.15 413.98 135.15 414.282 134.999C414.282 134.393 414.433 133.788 414.887 133.182C415.492 132.274 416.55 130.912 417.457 130.912C417.609 130.912 417.911 131.064 418.062 131.215C418.516 131.972 417.457 133.637 416.701 134.545C416.248 134.999 415.794 135.301 415.341 135.604C415.341 136.058 415.492 136.663 415.794 137.117C417.609 135.301 419.272 133.788 420.179 133.485C421.389 133.031 421.842 133.637 421.993 133.939C422.598 135.15 421.086 137.269 418.516 138.934C417.609 139.539 416.853 139.388 416.399 139.085C416.097 138.934 415.945 138.782 415.643 138.48C413.375 140.901 410.956 143.625 409.746 145.139L408.99 144.382ZM420.33 134.091C419.574 134.393 417.911 135.755 416.248 137.571C416.399 137.723 416.55 137.874 416.701 138.025C417.155 138.177 417.457 138.177 418.062 137.874C420.633 136.209 421.389 134.393 421.237 134.091C421.237 134.091 421.237 134.091 421.086 134.091C420.935 133.939 420.633 133.939 420.33 134.091ZM415.794 133.485C415.643 133.788 415.492 133.939 415.492 134.242C415.643 134.091 415.945 133.939 416.097 133.637C416.853 132.88 417.155 132.123 417.306 131.669C417.004 132.123 416.399 132.728 415.794 133.485Z" fill="black"/>
<path d="M404.455 140.447C405.513 138.782 407.63 135.755 409.445 132.88C409.293 132.728 408.991 132.577 408.84 132.426C408.537 131.972 408.084 131.215 408.537 130.004C409.445 127.129 411.259 125.161 412.469 125.464C412.922 125.464 413.376 125.918 413.225 127.28C413.073 128.339 412.015 130.307 410.805 132.577C411.259 132.728 411.713 132.728 412.166 132.728C412.317 132.274 412.469 131.669 412.771 131.215C413.376 130.156 414.888 128.794 415.644 129.096C415.795 129.248 415.946 129.399 416.097 129.55C416.249 130.307 415.039 131.972 414.434 132.577C413.981 133.031 413.527 133.485 412.922 133.637C412.922 134.091 412.922 134.393 412.922 134.696C412.922 134.847 413.073 135.15 413.225 135.15L412.771 135.907C412.469 135.755 412.166 135.301 412.015 134.847C411.864 134.545 411.864 134.091 411.864 133.637C411.259 133.637 410.654 133.485 410.201 133.334C407.933 136.966 405.362 140.75 405.06 141.052L404.455 140.447ZM412.317 126.221C411.864 126.069 410.503 127.431 409.445 130.156C409.293 130.761 409.293 131.366 409.596 131.82C409.747 131.972 409.747 131.972 409.898 132.123C411.259 130.004 412.166 128.037 412.317 127.129C412.469 126.372 412.317 126.221 412.317 126.221ZM413.527 131.518C413.376 131.82 413.225 132.123 413.073 132.274C413.225 132.123 413.527 131.972 413.678 131.82C414.434 130.912 414.888 130.307 415.039 129.853C414.737 130.004 414.132 130.61 413.527 131.518Z" fill="black"/>
<path d="M410.202 147.863C410.353 147.863 410.656 147.863 410.656 147.56C410.807 147.257 410.656 147.106 410.353 146.955C410.353 146.955 408.388 146.198 405.817 143.928C403.247 141.658 402.037 139.388 402.037 139.388C401.886 139.236 401.584 139.085 401.433 139.236C401.281 139.388 401.13 139.69 401.281 139.842C401.281 139.993 402.491 142.263 405.364 144.685C408.085 146.955 410.051 147.863 410.202 147.863Z" fill="black"/>
<path d="M407.63 149.074C407.781 149.074 408.084 149.074 408.084 148.771C408.235 148.62 408.084 148.317 407.781 148.166C407.781 148.166 405.513 147.106 403.85 145.441C402.187 143.625 401.582 142.414 401.582 142.414C401.431 142.263 401.28 142.112 400.978 142.263C400.826 142.414 400.675 142.566 400.826 142.868C400.826 142.868 401.431 144.231 403.245 146.198C405.211 148.014 407.479 148.922 407.63 149.074Z" fill="black"/>
<path d="M406.874 149.982C407.026 149.982 407.328 149.982 407.328 149.679C407.479 149.528 407.328 149.225 407.026 149.074C407.026 149.074 404.758 148.014 403.094 146.349C401.431 144.533 400.826 143.322 400.826 143.322C400.675 143.171 400.524 143.02 400.222 143.171C400.07 143.322 399.919 143.474 400.07 143.777C400.07 143.777 400.675 145.139 402.49 147.106C404.455 148.922 406.723 149.83 406.874 149.982Z" fill="black"/>
<path d="M406.271 150.89C406.422 150.89 406.724 150.89 406.724 150.587C406.876 150.436 406.724 150.133 406.422 149.982C406.422 149.982 404.154 148.922 402.491 147.257C400.828 145.441 400.223 144.231 400.223 144.231C400.072 144.079 399.92 143.928 399.618 144.079C399.467 144.231 399.316 144.382 399.467 144.685C399.467 144.685 400.072 146.047 401.886 148.014C403.7 149.83 406.12 150.89 406.271 150.89Z" fill="black"/>
<path d="M406.875 127.583C406.875 127.583 409.445 116.535 418.215 118.653C425.019 120.318 426.531 126.372 426.531 126.372C426.531 126.372 422.448 123.648 418.215 123.042C410.201 121.983 408.085 126.372 406.875 127.583Z" fill="url(#paint14_linear_1423_2531)"/>
<path d="M433.033 109.724C433.789 110.33 434.394 110.935 435.15 111.54C454.352 127.28 461.912 129.248 462.215 129.248C462.668 129.399 462.971 129.096 463.122 128.642C463.273 128.188 462.971 127.885 462.517 127.734C462.517 127.734 454.957 125.767 436.057 110.33C417.309 94.8925 414.436 87.3253 414.436 87.3253C414.285 86.8713 413.831 86.72 413.377 86.8713C412.924 87.0226 412.773 87.4767 412.924 87.7794C413.075 88.082 415.645 95.1952 433.033 109.724Z" fill="#004345"/>
<path d="M323.113 266.819L330.975 275.294L341.105 279.986C343.222 281.045 344.129 283.618 342.92 285.737L322.659 321.908C322.659 321.908 312.529 312.676 308.295 309.649C304.062 306.622 291.814 299.358 291.814 299.358L317.367 266.97C318.879 265.154 321.449 265.003 323.113 266.819Z" fill="url(#paint15_linear_1423_2531)"/>
<path d="M358.795 233.372C358.946 254.409 343.221 284.375 343.221 284.375C333.393 280.894 324.775 274.538 318.273 266.062C318.425 266.062 340.651 239.728 358.795 233.372Z" fill="url(#paint16_linear_1423_2531)"/>
<path d="M284.707 229.74L291.057 238.82L300.431 244.874C302.397 246.085 302.699 248.809 301.187 250.625L273.669 281.348C273.669 281.348 265.202 271.057 261.573 267.576C257.793 263.943 246.756 255.317 246.756 255.317L278.961 229.134C280.776 227.621 283.497 227.924 284.707 229.74Z" fill="url(#paint17_linear_1423_2531)"/>
<path d="M327.496 204.163C323.565 223.989 301.943 249.414 301.943 249.414C292.569 244.571 285.009 237.307 280.171 228.378C280.019 228.378 307.84 207.341 327.496 204.163Z" fill="url(#paint18_linear_1423_2531)"/>
<path opacity="0.32" d="M343.372 284.375C343.372 284.375 349.117 273.175 353.653 259.706C351.083 267.727 347.152 277.413 341.406 288.158C325.682 317.519 322.506 321.908 322.506 321.908C322.506 321.908 315.4 314.19 308.143 309.649C308.143 309.649 316.459 297.542 328.403 279.986C329.008 279.229 329.462 278.321 330.066 277.564C334.149 280.44 338.685 282.71 343.372 284.375Z" fill="#00898D"/>
<path d="M330.217 277.564C341.557 260.311 351.838 237.156 352.745 236.248C354.862 235.037 356.828 234.129 358.945 233.372C358.945 233.523 358.945 233.675 358.945 233.977C358.945 236.248 358.34 245.631 353.804 259.857C349.268 273.327 343.522 284.526 343.522 284.526C338.684 282.71 334.148 280.44 330.217 277.564Z" fill="#0F9D87"/>
<path opacity="0.58" d="M280.776 229.588C280.776 229.588 280.776 229.588 277.147 232.161C250.536 251.382 246.756 255.317 246.756 255.317C246.756 255.317 255.374 261.068 260.515 266.819C260.515 266.819 271.099 256.83 286.219 242.453C286.975 241.847 288.336 240.788 289.092 240.182C285.916 237.004 282.741 233.523 280.776 229.588Z" fill="#00898D"/>
<path d="M289.092 240.182C300.734 229.588 313.738 220.054 319.332 215.816C320.995 214.605 322.356 213.092 323.263 211.427C324.321 209.762 322.809 207.795 320.844 208.098C317.669 208.703 312.074 210.368 302.7 215.362C290.604 222.021 280.625 229.588 280.625 229.588C282.742 233.523 285.917 237.004 289.092 240.182Z" fill="#0F9D87"/>
<path d="M246.605 255.468C245.849 256.225 251.141 262.581 258.55 269.846C265.959 276.959 272.611 282.256 273.367 281.348C274.123 280.591 268.831 274.235 261.423 266.97C254.014 259.857 247.361 254.711 246.605 255.468Z" fill="black"/>
<path d="M291.663 299.509C291.058 300.417 297.408 306.168 306.027 312.373C314.494 318.579 321.903 322.968 322.507 321.908C323.112 321 316.762 315.249 308.144 309.044C299.676 302.99 292.268 298.601 291.663 299.509Z" fill="black"/>
<path opacity="0.58" d="M388.58 262.733C388.58 262.581 388.58 262.43 388.58 262.127C388.731 262.127 388.731 262.43 388.58 262.733Z" fill="#00898D"/>
<path d="M304.665 289.975C304.967 290.126 305.421 290.126 305.723 289.823C305.874 289.672 315.854 275.597 325.077 265.457C334.3 255.468 343.069 250.474 343.069 250.323C343.372 250.171 343.523 249.566 343.372 249.263C343.221 248.96 342.616 248.809 342.313 248.96C342.162 248.96 333.241 254.106 323.867 264.397C314.493 274.538 304.514 288.764 304.362 288.915C304.06 289.218 304.211 289.823 304.665 289.975C304.514 289.975 304.514 289.975 304.665 289.975Z" fill="white"/>
<path d="M426.985 80.5149C427.287 80.8176 427.741 80.8176 428.043 80.5149C451.781 57.9647 487.011 46.0085 487.313 45.8572C487.767 45.7058 487.918 45.2518 487.767 44.9491C487.615 44.4951 487.162 44.3437 486.859 44.4951C486.557 44.6464 451.025 56.6026 426.985 79.4555C426.531 79.7582 426.531 80.2122 426.985 80.5149C426.834 80.5149 426.834 80.5149 426.985 80.5149Z" fill="white"/>
<path d="M354.561 167.083C354.863 167.386 355.468 167.235 355.619 166.932C359.248 162.392 365.447 154.825 366.203 154.219C366.657 154.068 366.657 153.614 366.506 153.16C366.355 152.706 365.75 152.706 365.447 152.857C364.54 153.311 358.19 161.181 354.41 165.873C354.259 166.327 354.259 166.781 354.561 167.083Z" fill="white"/>
<path opacity="0.58" d="M354.259 170.564L369.984 154.068L367.565 152.1L349.572 166.478L354.259 170.564Z" fill="#00898D"/>
<path d="M271.704 114.567C271.704 114.567 270.041 131.669 272.007 143.777C273.821 155.884 276.24 177.526 273.065 190.844C270.041 204.163 263.086 232.464 262.179 233.221C261.271 233.977 273.065 231.253 273.065 231.253C273.065 231.253 290.906 197.958 293.023 181.007C294.989 164.057 294.535 134.999 296.954 131.669C299.374 128.339 306.782 125.464 308.748 118.351C311.167 109.119 304.363 99.1301 304.363 99.1301C304.363 99.1301 273.821 109.27 271.704 114.567Z" fill="url(#paint19_linear_1423_2531)"/>
<path d="M295.897 109.119C295.897 109.119 291.966 113.81 287.883 116.383C283.65 118.956 279.87 126.221 279.114 130.458C278.358 134.696 283.045 168.9 283.348 171.321C283.499 173.894 289.849 176.467 288.488 176.921C287.128 177.375 279.114 179.796 280.928 179.796C282.743 179.796 288.639 180.856 286.825 182.066C285.011 183.126 277.451 185.396 278.812 186.001C280.172 186.607 286.069 188.12 283.045 188.877C280.172 189.634 274.88 208.854 273.217 215.967C271.554 223.081 273.368 230.951 273.368 230.951L262.18 233.372C262.18 233.372 273.973 188.877 274.276 183.731C274.578 178.586 271.252 143.02 270.344 135.453C269.286 126.523 269.891 122.134 269.891 122.134C269.891 122.134 284.104 109.119 288.791 108.211C293.478 107.454 295.897 109.119 295.897 109.119Z" fill="url(#paint20_linear_1423_2531)"/>
<path d="M202.331 98.0576L201.102 97.4729L199.479 100.89L200.708 101.475L202.331 98.0576Z" fill="black"/>
<path d="M217.286 107.067L216.057 106.483L215.018 108.67L216.247 109.255L217.286 107.067Z" fill="black"/>
<path d="M225.812 114.396L186.346 95.6232L174.34 120.911L213.807 139.684L225.812 114.396Z" fill="#0F9D87"/>
<path d="M227.496 113.21L186.254 93.589L179.244 108.352L220.486 127.973L227.496 113.21Z" fill="url(#paint21_linear_1423_2531)"/>
<path d="M176.752 115.627C176.752 115.627 182.498 119.259 196.105 122.437C207.597 125.161 211.83 123.799 211.83 123.799L180.078 108.665L176.752 115.627Z" fill="white"/>
<path d="M204.217 116.618L199.438 114.344L196.646 120.222L201.426 122.496L204.217 116.618Z" fill="black"/>
<path d="M199.734 114.416C199.734 114.416 198.978 116.686 199.432 119.107C199.886 121.529 201.549 122.286 201.549 122.286L204.27 116.535L199.734 114.416Z" fill="white"/>
<path d="M220.901 102.914L201.698 93.8331L199.279 98.8274L202.454 100.341L203.966 97.314L216.667 103.368L215.155 106.395L218.482 107.908L220.901 102.914Z" fill="url(#paint22_linear_1423_2531)"/>
<path d="M201.532 102.583L214.232 108.624L214.687 107.667L201.986 101.626L201.532 102.583Z" fill="url(#paint23_linear_1423_2531)"/>
<path d="M304.969 103.519L313.285 73.7044L313.738 100.19L304.969 103.519Z" fill="#020023"/>
<path d="M305.725 102.611C305.725 102.611 312.982 86.4173 315.25 67.1966C317.518 47.8246 305.573 45.2518 304.666 44.9491C298.618 42.0736 275.031 43.7383 273.67 46.6139C270.344 53.727 282.742 69.6181 283.196 86.4173C283.498 98.0707 268.832 121.983 266.413 124.405C262.331 128.339 274.729 128.037 286.825 111.086C288.186 109.27 289.698 111.238 294.385 109.27C295.897 108.665 297.257 107.454 298.467 106.546C301.793 103.973 305.725 102.611 305.725 102.611Z" fill="url(#paint24_linear_1423_2531)"/>
<path d="M301.189 50.2461L310.563 67.348L300.887 44.7978L301.189 50.2461Z" fill="#17574D"/>
<path d="M283.045 108.665C283.045 108.665 294.838 90.9576 298.467 80.6662C302.096 70.3748 300.584 60.2348 299.979 57.662C299.374 55.0891 300.13 50.5488 300.13 50.5488L294.99 48.2787L289.395 48.1273C289.395 48.1273 283.801 104.579 283.045 108.665Z" fill="#17574D"/>
<path d="M287.883 43.587C287.883 43.587 293.024 32.5389 293.175 28.604C293.326 24.669 293.175 16.6478 299.374 15.4371C305.573 14.3776 307.236 20.2801 307.69 22.7016C307.992 25.123 308.597 31.4795 308.143 31.6308C307.69 31.7822 306.48 30.7228 306.48 30.7228C306.48 30.7228 306.631 34.809 304.968 36.0198C303.305 37.2305 301.037 36.7765 301.037 36.7765C301.037 36.7765 298.769 42.2249 299.072 44.041C299.374 45.7058 301.188 49.6407 301.188 49.6407C301.188 49.6407 289.244 49.9434 287.883 43.587Z" fill="#FFB68E"/>
<path d="M286.975 42.8303C286.975 42.8303 295.895 54.9378 298.012 63.1103C300.129 71.2829 284.707 109.724 279.263 114.416C273.82 119.107 265.051 121.378 265.051 121.378C265.051 121.378 273.972 91.4116 275.03 76.1259C276.088 60.8402 270.645 49.9434 274.425 45.5545C278.356 41.0141 286.975 42.8303 286.975 42.8303Z" fill="#19437F"/>
<path d="M300.432 42.9816C300.432 42.9816 304.968 55.6945 309.201 62.505C313.435 69.3154 313.586 100.19 313.586 100.19L315.098 99.2815C315.098 99.2815 318.273 63.413 317.517 56.6026C316.761 49.7921 312.225 44.4951 309.957 44.3437C307.689 44.1924 300.432 42.9816 300.432 42.9816Z" fill="#19437F"/>
<path d="M265.051 121.378C265.051 121.378 277.449 119.562 281.834 110.784C286.37 102.006 291.208 76.5799 290.452 69.6181C289.696 62.6563 288.94 62.0509 288.94 62.0509L293.325 61.1429L288.335 58.7214C288.335 58.7214 288.638 56.4512 285.765 52.2136C282.892 47.976 278.054 43.2843 278.054 43.2843C278.054 43.2843 272.006 43.133 273.216 51.6082C274.274 59.9321 274.425 74.7638 274.123 80.0608C273.518 85.5092 267.168 116.989 265.051 121.378Z" fill="url(#paint25_linear_1423_2531)"/>
<path d="M306.631 44.041C306.631 44.041 313.132 55.6945 314.04 57.2079C314.947 58.7214 310.864 58.7214 310.864 58.7214L314.644 59.7808C314.644 59.7808 316.005 64.7751 316.459 68.5587C316.761 72.3423 314.191 85.8119 314.191 85.8119L313.586 100.19L316.308 98.9788C316.308 98.9788 319.936 64.0184 318.273 55.8458C316.61 47.6733 312.376 45.1004 311.167 44.7977C309.957 44.3437 306.631 44.041 306.631 44.041Z" fill="url(#paint26_linear_1423_2531)"/>
<path d="M317.821 59.0241C317.821 59.0241 348.06 64.3211 350.933 58.7214C353.806 53.1216 349.572 29.3607 348.514 27.5446C347.456 25.7284 346.095 26.0311 346.095 26.0311L341.559 27.6959C341.559 27.6959 342.164 47.3706 341.71 48.43C341.257 49.6407 318.879 44.3437 311.168 44.7977C311.168 44.7977 316.762 58.57 317.821 59.0241Z" fill="url(#paint27_linear_1423_2531)"/>
<path d="M276.391 43.8897C276.391 43.8897 237.986 58.2673 229.217 70.3748C220.447 82.6337 215.307 90.0495 215.307 90.0495L221.052 95.1952C221.052 95.1952 234.963 78.0934 244.639 71.7369C254.165 65.3805 275.635 60.9915 278.961 56.6026C282.288 52.3649 276.391 43.8897 276.391 43.8897Z" fill="url(#paint28_linear_1423_2531)"/>
<path d="M215.459 90.0495C215.459 90.0495 222.868 88.6874 227.253 84.1471C233.754 77.1853 237.08 75.2178 236.173 74.1584C235.115 72.9477 234.056 69.9208 235.568 70.6775C237.08 71.2829 241.012 74.3098 240.86 72.9477C240.709 71.5856 236.627 66.5912 238.744 67.6506C240.86 68.5587 244.187 71.4342 243.884 70.2235C243.582 69.0127 241.465 64.0184 243.733 66.1372C246.152 68.256 252.956 64.3211 258.551 62.2023C264.145 60.0835 275.031 50.3975 275.031 50.3975C275.031 50.3975 276.392 58.8727 273.822 59.9321C266.111 63.1103 249.781 68.5587 244.489 71.8883C239.197 75.2178 220.902 95.3465 220.902 95.3465L215.459 90.0495Z" fill="#020023"/>
<path d="M318.576 59.7808C318.576 59.7808 317.517 56.7539 316.005 52.9703C314.644 49.7921 312.83 47.2192 312.83 47.2192C312.83 47.2192 323.868 53.273 327.799 54.4837C331.73 55.6945 340.499 58.116 342.616 58.116C344.733 58.116 343.372 55.8458 342.314 53.5757C341.104 51.3055 344.582 55.0891 345.943 55.5432C347.303 56.1485 342.011 49.3381 343.523 49.4894C344.884 49.6407 349.269 54.0297 349.118 52.819C348.967 51.6082 345.035 47.5219 345.791 47.8246C346.547 48.1273 349.571 48.7327 349.571 48.7327C349.571 48.7327 347.001 33.7497 346.094 31.1768C345.035 28.604 341.86 27.5446 341.86 27.5446C341.86 27.5446 345.791 24.9717 347.606 25.5771C349.269 26.3338 348.815 27.3932 348.815 27.3932C348.815 27.3932 352.142 40.5601 352.595 48.1273C353.049 55.5431 351.839 57.3593 351.083 59.1754C349.118 62.505 325.531 62.0509 318.576 59.7808Z" fill="#020023"/>
<path d="M220.146 94.2871C220.146 94.2871 219.39 98.3734 217.878 101.552C216.215 104.73 215.459 103.67 215.912 101.4C216.366 99.1301 216.215 97.768 216.215 97.768C216.215 97.768 214.4 99.1301 213.947 100.644C213.644 101.249 215.156 102.157 214.854 102.46C213.04 103.67 211.074 101.249 211.074 101.249C211.074 101.249 210.318 102.46 209.562 102.308C207.899 102.006 209.109 100.19 209.109 100.19C209.109 100.19 207.748 101.4 207.294 100.038C206.992 98.6761 207.143 98.6761 207.143 98.6761C207.143 98.6761 203.363 101.552 203.514 99.7355C203.665 97.9194 215.912 90.0495 215.912 90.0495L220.146 94.2871Z" fill="#FFB68E"/>
<path d="M300.433 42.9816L299.828 43.587C299.828 43.587 307.086 58.116 308.749 62.505C311.47 69.6181 311.47 71.7369 312.226 75.3692C312.378 76.4286 312.831 80.9689 312.831 80.9689L313.738 99.8869C313.738 99.8869 316.006 79.6068 312.226 68.1047C310.563 63.5644 300.433 42.9816 300.433 42.9816Z" fill="#020023"/>
<path d="M217.424 90.8062L216.971 90.5035C217.575 89.5955 231.788 68.4074 234.963 66.7426H235.115C236.475 66.2886 244.187 61.7482 252.502 56.9052C264.901 49.6407 273.217 44.9491 274.124 44.9491C274.275 44.9491 274.426 44.9491 274.577 45.1004C275.333 46.0085 275.938 52.0623 275.485 54.3324L275.031 54.1811C275.485 51.7596 274.729 45.8572 274.124 45.4031C273.217 45.5545 261.877 52.0623 252.805 57.3593C244.489 62.2023 236.627 66.7426 235.417 67.1966H235.266C232.695 68.7101 221.507 84.7525 217.424 90.8062Z" fill="#020023"/>
<path d="M270.494 95.4979L278.357 93.9844L279.264 91.2603L270.948 93.3791L270.494 95.4979Z" fill="#020023"/>
<path d="M271.855 93.5304H271.704C271.553 93.5304 271.553 93.3791 271.553 93.2277C271.553 93.0764 276.693 80.3635 278.054 73.2503C279.415 66.2885 279.113 63.5644 279.113 63.413C279.113 63.2617 279.264 63.1103 279.415 63.1103C279.566 63.1103 279.717 63.2617 279.717 63.413C279.717 63.5644 279.869 66.1372 278.659 73.4017C277.147 80.3635 272.006 93.2277 271.855 93.5304C272.006 93.3791 272.006 93.3791 271.855 93.5304Z" fill="#020023"/>
<path d="M274.426 79.9095C274.124 79.9095 273.973 79.7582 273.973 79.6068L275.485 64.1698C275.485 64.0184 275.636 63.8671 275.787 63.8671C275.938 63.8671 276.089 64.0184 276.089 64.1698L274.577 79.6068C274.577 79.7582 274.577 79.7582 274.426 79.9095Z" fill="#020023"/>
<path d="M296.502 63.1103C296.502 63.1103 296.351 63.1103 296.199 63.1103L288.035 59.0241V58.8727C288.035 58.8727 287.732 57.2079 285.464 52.5163C283.196 47.8246 277.904 43.7383 277.904 43.7383C277.753 43.587 277.753 43.4357 277.904 43.4357C278.056 43.2843 278.207 43.2843 278.207 43.4357C278.207 43.4357 283.499 47.5219 285.918 52.3649C287.884 56.4512 288.488 58.2673 288.488 58.7214L296.502 62.8076C296.653 62.6563 296.804 62.8076 296.502 63.1103C296.653 63.1103 296.653 63.1103 296.502 63.1103Z" fill="#020023"/>
<path d="M287.277 94.2871H287.126C286.975 94.2871 286.975 94.1358 286.975 93.9844C286.975 93.8331 289.545 84.6011 289.999 76.4286C290.452 68.256 289.243 62.0509 289.243 62.0509C289.243 61.8996 289.243 61.7482 289.394 61.7482C289.545 61.7482 289.696 61.7482 289.696 61.8996C289.696 61.8996 290.906 68.1047 290.452 76.4286C289.999 84.6011 287.428 93.9844 287.428 93.9844C287.428 94.1358 287.428 94.1358 287.277 94.2871Z" fill="#020023"/>
<path d="M313.888 58.2673C313.132 58.7214 311.318 58.8727 310.713 58.8727C310.562 58.8727 310.411 58.7214 310.411 58.57C310.411 58.4187 310.562 58.2673 310.713 58.2673C312.225 58.116 313.737 57.8133 313.888 57.5106C313.586 56.7539 307.538 45.8571 307.387 45.7058C307.387 45.5545 307.387 45.4031 307.538 45.4031C307.689 45.4031 307.84 45.4031 307.84 45.5545C308.143 46.0085 313.888 56.6025 314.342 57.3593C314.342 57.5106 314.342 57.6619 314.342 57.8133C314.342 58.116 314.191 58.116 313.888 58.2673Z" fill="#020023"/>
<path d="M315.401 81.4229H315.25C315.099 81.4229 314.948 81.2716 315.099 81.1202C315.099 81.1202 316.157 74.0071 316.157 69.7694C316.157 65.5318 314.494 60.2348 314.494 60.2348C314.494 60.0834 314.494 59.9321 314.645 59.9321C314.797 59.9321 314.948 59.9321 314.948 60.0834C314.948 60.0834 316.611 65.5318 316.611 69.7694C316.611 74.0071 315.553 81.1202 315.553 81.1202C315.553 81.4229 315.553 81.4229 315.401 81.4229Z" fill="#020023"/>
<path d="M291.663 33.447C291.663 33.447 294.687 31.6308 295.897 29.512C297.106 27.3932 297.409 26.1825 296.955 25.1231C296.048 23.1556 297.257 19.2207 298.013 20.4314C298.769 21.4908 298.316 24.3663 299.072 23.6096C299.828 22.8529 299.525 19.2207 301.793 18.3126C303.91 17.4045 305.271 19.0693 307.69 18.7666C310.412 18.3126 314.04 17.1018 315.401 16.1938C319.635 13.1669 321.147 9.83735 319.635 7.2645C317.216 3.17822 312.528 3.7836 306.027 6.05375C299.374 8.32391 290.756 12.8642 291.058 14.8317C291.361 16.7992 294.838 18.7666 293.024 18.7666C291.058 18.7666 290 19.9774 290.151 21.4908C290.302 24.8204 293.024 29.512 291.663 33.447Z" fill="#172755"/>
<path d="M286.068 41.4682C286.37 41.4682 289.092 42.2249 292.721 43.8897C296.349 45.7058 298.92 48.1273 298.92 48.1273C298.92 48.1273 298.617 48.7327 299.524 49.6407C300.432 50.5488 300.129 50.5488 300.129 50.5488C300.129 50.5488 299.222 51.1542 298.768 50.8515C298.315 50.5488 297.105 49.4894 297.105 49.4894L295.744 52.2136C295.744 52.2136 292.267 50.0948 288.941 47.3706C286.37 45.2518 282.893 42.5276 282.893 42.5276L286.068 41.4682Z" fill="url(#paint29_linear_1423_2531)"/>
<path d="M299.071 42.3763H302.397C302.397 42.3763 303.909 43.8897 304.061 45.8572C304.212 47.976 303.002 50.5488 302.851 50.3975C302.851 50.2461 301.49 48.43 301.339 48.7327C301.188 49.0354 301.188 49.9434 301.188 49.9434C301.188 49.9434 299.071 45.1004 299.071 44.041C298.92 43.133 299.071 42.3763 299.071 42.3763Z" fill="url(#paint30_linear_1423_2531)"/>
<path d="M299.072 51.0028L302.55 54.6351L302.096 49.4894C302.096 49.4894 300.131 50.5488 299.072 51.0028Z" fill="#77F7E4"/>
<path d="M277.449 100.038L281.683 93.2277C281.683 93.2277 291.662 83.0877 296.954 72.7963C302.246 62.5049 301.339 52.6676 301.339 52.6676L302.548 54.181C302.548 54.181 304.06 70.2235 297.559 82.785C291.057 95.1952 285.614 98.3734 277.449 100.038Z" fill="url(#paint31_linear_1423_2531)"/>
<path d="M300.885 36.9279L297.408 34.355C297.408 34.355 297.105 39.0467 297.105 41.4682C297.105 43.8897 299.373 45.8572 299.373 45.8572C299.373 45.8572 298.92 44.7978 299.071 43.133C299.373 41.3169 300.885 36.9279 300.885 36.9279Z" fill="#EF8B59"/>
<path d="M297.107 26.1825C297.107 26.1825 294.687 24.3663 293.327 22.3989C291.966 20.4314 291.815 18.7666 291.815 18.7666C291.815 18.7666 289.698 19.0693 290 21.4908C290.303 24.0637 291.663 27.8473 291.815 29.9661C291.966 31.9335 291.663 33.447 291.663 33.447C291.663 33.447 297.258 30.5714 297.107 26.1825Z" fill="#020023"/>
<path d="M304.06 17.7072C303.909 17.7072 303.758 17.7072 303.758 17.5559C303.758 17.4045 303.758 17.2532 303.909 17.2532C304.06 17.2532 310.259 15.4371 312.981 11.0481C313.435 10.14 313.586 9.38332 313.283 8.92929C312.376 7.56719 308.445 7.71854 306.933 7.86988C306.782 7.86988 306.631 7.71854 306.631 7.56719C306.631 7.41585 306.782 7.26451 306.933 7.26451C307.235 7.26451 312.527 6.50779 313.737 8.47526C314.191 9.23197 314.039 9.98869 313.435 11.1994C310.713 15.8911 304.514 17.5559 304.06 17.7072Z" fill="#020023"/>
<path d="M302.549 17.8586C302.397 17.8586 302.397 17.8586 302.246 17.8586C302.095 17.7072 302.095 17.5559 302.246 17.5559C305.27 13.6209 307.538 9.98868 307.085 9.53465C306.631 8.92928 304.665 9.53465 303.456 9.98868C303.305 9.98868 303.153 9.98868 303.153 9.83734C303.153 9.686 303.153 9.53465 303.305 9.53465C303.607 9.38331 306.631 8.02122 307.538 9.23197C308.294 10.2914 304.061 16.0424 302.549 17.8586Z" fill="#020023"/>
<path d="M299.375 21.3395C299.224 21.3395 299.224 21.3395 299.375 21.3395C299.224 21.3395 299.072 21.1881 299.072 21.0368C299.072 21.0368 299.224 19.372 297.258 16.9505C295.292 14.529 292.42 14.8317 292.42 14.8317C292.268 14.8317 292.117 14.6803 292.117 14.529C292.117 14.3777 292.268 14.2263 292.42 14.2263C292.571 14.2263 295.595 13.9236 297.712 16.4965C299.828 19.0693 299.677 20.8854 299.677 21.0368C299.526 21.3395 299.375 21.3395 299.375 21.3395Z" fill="#020023"/>
<path d="M313.132 16.3451C309.957 18.0099 306.933 18.3126 306.631 18.464C306.479 18.464 306.328 18.3126 306.328 18.1613C306.328 18.0099 306.479 17.8586 306.631 17.8586C306.631 17.8586 313.737 16.9505 316.912 12.5615C317.668 11.5021 317.97 10.5941 317.819 9.9887C317.517 9.38333 316.005 9.38333 316.005 9.38333C315.854 9.38333 315.702 9.23198 315.702 9.08064C315.702 8.9293 315.854 8.77795 316.005 8.77795C316.005 8.77795 317.819 8.77795 318.273 9.83736C318.575 10.5941 318.424 11.6535 317.366 12.8642C316.307 14.529 314.795 15.5884 313.132 16.3451Z" fill="#020023"/>
<path d="M357.487 14.2544L312.867 22.4179L313.547 26.1398L358.167 17.9763L357.487 14.2544Z" fill="url(#paint32_linear_1423_2531)"/>
<path d="M374.519 17.4045L329.613 24.5177L328.555 18.1612L373.007 8.77792L374.519 17.4045Z" fill="url(#paint33_linear_1423_2531)"/>
<path d="M392.058 16.7992L353.503 22.0962L351.537 11.8048L389.639 3.02689L392.058 16.7992Z" fill="url(#paint34_linear_1423_2531)"/>
<path d="M388.28 3.17822L353.504 22.0962L390.85 16.9505L388.28 3.17822Z" fill="#0F9D87"/>
<path d="M351.688 13.3182L353.2 20.7341L329.613 24.5177L351.688 13.3182Z" fill="#0F9D87"/>
<path d="M328.706 19.6747L329.462 23.1556L314.947 25.7284L328.706 19.6747Z" fill="#0F9D87"/>
<path d="M391.873 -0.0722631L387.857 0.662445L391.473 20.4631L395.489 19.7283L391.873 -0.0722631Z" fill="url(#paint35_linear_1423_2531)"/>
<path d="M314.244 21.1124L311.27 21.6563L312.329 27.4625L315.304 26.9185L314.244 21.1124Z" fill="#0F9D87"/>
<path d="M340.5 15.8911C340.5 15.8911 341.861 18.7666 342.466 19.0693C343.071 19.2207 342.919 18.0099 342.919 18.0099C342.919 18.0099 343.524 19.5234 344.129 19.2207C344.734 19.0693 344.582 17.8586 344.582 17.8586C344.582 17.8586 345.036 19.0693 345.49 18.6153C345.943 18.3126 345.943 17.1019 345.943 17.1019C345.943 17.1019 346.095 18.1613 346.699 18.1613C347.304 18.1613 347.153 16.6478 346.699 15.2857C346.246 13.9236 345.792 13.4696 345.49 13.4696C345.187 13.4696 345.036 13.7723 345.036 13.7723C345.036 13.7723 344.28 13.1669 343.978 13.4696C343.524 13.7723 343.524 14.075 343.524 14.075C343.524 14.075 342.466 13.3183 342.012 13.621C341.559 13.9236 341.559 14.3777 341.559 14.3777C341.559 14.3777 340.651 13.7723 340.349 14.075C340.047 14.529 339.744 15.5884 339.744 15.5884L340.5 15.8911Z" fill="#FFB68E"/>
<path d="M342.164 27.2419C342.164 27.2419 337.93 23.1556 337.779 22.0962C337.628 21.0368 339.291 17.8586 339.745 17.4045C340.198 16.9505 340.198 21.0368 340.198 21.9448C340.198 22.8529 341.862 22.3989 343.676 22.3989C346.095 22.2475 347.154 22.0962 347.456 22.3989C347.758 22.7016 346.398 26.0311 346.398 26.0311L342.164 27.2419Z" fill="#FFB68E"/>
<path d="M346.246 25.8798C346.246 25.8798 344.734 26.0311 343.07 25.2744C341.256 24.5177 340.5 22.3989 340.5 22.3989C340.5 22.3989 342.919 21.4908 344.885 21.6422C346.85 21.6422 347.606 21.7935 347.606 21.7935C347.606 21.7935 347.606 24.0637 346.246 25.8798Z" fill="#EF8B59"/>
<path opacity="0.66" d="M353.352 11.5021C353.352 11.5021 360.912 11.1994 367.715 10.8967C374.519 10.7454 382.533 4.69165 382.533 4.69165L353.352 11.5021Z" fill="url(#paint36_linear_1423_2531)"/>
<path opacity="0.66" d="M387.824 0.756726C387.824 0.756726 390.243 8.02122 391.755 11.1994C393.116 14.3777 394.931 16.4965 394.931 16.4965L391.907 -0.151337L387.824 0.756726Z" fill="url(#paint37_linear_1423_2531)"/>
<path d="M305.723 102.611C310.259 99.2815 354.258 89.8982 358.189 96.5573C362.12 103.216 355.014 152.706 355.014 152.706L344.884 155.733C344.884 155.733 345.337 145.744 345.035 134.393C344.581 116.081 344.733 113.659 344.733 113.659C341.86 112.146 293.93 129.702 293.93 129.702C293.93 129.702 300.431 106.395 305.723 102.611Z" fill="#19437F"/>
<path d="M296.955 131.518C295.594 131.82 300.886 126.826 300.432 120.621C299.979 114.416 300.735 110.33 300.584 110.784C300.432 111.238 303.91 119.107 304.817 118.351C305.724 117.594 313.738 111.086 335.511 105.335C344.734 102.914 346.094 104.73 347.002 104.578C347.909 104.427 355.015 98.9788 353.806 100.644C352.596 102.308 347.606 108.967 348.665 108.362C349.723 107.908 354.562 105.789 352.596 108.059C350.63 110.481 346.397 115.324 347.758 114.719C349.118 114.113 352.142 113.356 350.933 115.021C349.723 116.686 349.723 134.847 350.933 139.539C351.991 144.382 355.166 152.403 355.166 152.403L345.036 155.43C345.036 155.43 345.187 114.416 343.222 113.659C340.047 112.6 311.924 122.437 308.144 124.405C304.817 126.372 302.7 130.156 296.955 131.518Z" fill="url(#paint38_linear_1423_2531)"/>
<path d="M271.554 238.518C271.554 238.518 270.042 238.215 270.042 236.096C270.042 233.826 270.344 231.859 270.344 231.859L262.936 233.372C262.936 233.372 263.692 243.815 266.564 244.42C268.379 244.723 269.588 240.485 271.554 238.518Z" fill="white"/>
<path d="M263.994 243.663C263.994 243.663 266.111 246.539 268.228 245.177C270.344 243.815 286.069 233.675 285.313 233.372C284.708 232.918 284.255 231.707 283.952 232.01C283.499 232.161 276.09 236.248 273.671 235.34C271.1 234.431 270.949 232.313 270.949 232.313L267.472 234.583C267.472 234.583 269.588 237.156 269.437 238.669C269.437 239.88 263.994 243.663 263.994 243.663Z" fill="#050023"/>
<path d="M355.922 159.668C355.922 159.668 354.41 159.516 354.258 157.397C354.107 155.127 354.258 153.16 354.258 153.16L346.85 155.127C346.85 155.127 348.362 165.57 351.234 165.873C353.2 166.024 354.107 161.786 355.922 159.668Z" fill="white"/>
<path d="M348.664 165.116C348.664 165.116 350.932 167.84 353.049 166.327C355.166 164.965 370.134 153.765 369.378 153.463C368.622 153.16 368.32 151.949 367.866 152.1C367.413 152.403 360.306 156.792 357.736 156.035C355.166 155.279 354.863 153.16 354.863 153.16L351.537 155.733C351.537 155.733 353.805 158.154 353.805 159.668C353.805 161.03 348.664 165.116 348.664 165.116Z" fill="#050023"/>
<path d="M266.715 126.675C266.564 126.675 266.564 126.675 266.564 126.675C266.413 126.675 266.262 126.523 266.262 126.372C266.262 126.221 266.413 126.069 266.564 126.069C266.564 126.069 269.134 126.221 274.729 122.74C278.509 120.318 282.44 115.627 284.859 112.751C286.22 111.086 286.825 110.33 287.278 110.178C287.581 110.027 288.034 110.027 288.79 110.027C290.756 109.876 293.931 109.573 295.745 108.059C297.711 106.546 299.828 105.335 301.34 104.579C301.793 104.276 302.398 104.124 302.701 103.822C304.213 102.914 305.725 102.308 305.725 102.308C305.876 102.157 306.027 102.308 306.178 102.46C306.329 102.611 306.178 102.762 306.027 102.914C306.027 102.914 304.515 103.67 303.003 104.427C302.549 104.579 302.096 104.881 301.642 105.184C300.13 105.941 298.165 107 296.199 108.513C294.233 110.178 290.907 110.481 288.942 110.632C288.337 110.632 287.883 110.784 287.581 110.784C287.278 110.935 286.371 111.994 285.464 113.205C283.045 116.081 279.114 120.924 275.182 123.345C270.042 126.523 267.32 126.675 266.715 126.675Z" fill="#020023"/>
<path d="M283.347 112.751C283.196 112.751 283.196 112.751 283.347 112.751C283.045 112.751 283.045 112.448 283.045 112.297C283.045 112.146 284.255 108.362 286.825 105.033C289.849 101.098 292.268 99.2815 292.419 99.1301C292.57 98.9788 292.722 98.9788 292.873 99.1301C293.024 99.2815 293.024 99.4328 292.873 99.5842C292.873 99.5842 290.302 101.552 287.43 105.335C284.859 108.665 283.801 112.448 283.801 112.448C283.499 112.6 283.499 112.751 283.347 112.751Z" fill="#020023"/>
<path d="M291.662 110.027C291.511 110.027 291.36 109.876 291.36 109.724C291.36 109.724 291.209 108.362 291.965 106.697C292.57 105.033 294.989 101.249 295.14 101.098C295.291 100.946 295.442 100.946 295.594 100.946C295.745 101.098 295.745 101.249 295.745 101.4C295.745 101.4 293.326 105.335 292.721 107C292.116 108.513 292.116 109.876 292.116 109.876C291.965 109.876 291.814 110.027 291.662 110.027Z" fill="#020023"/>
<path d="M272.611 132.426L272.309 129.096L272.611 128.945C272.611 128.945 278.508 126.675 281.381 125.161C284.102 123.648 284.707 123.042 284.707 123.042L285.16 122.437L285.765 125.918L285.614 126.069C285.614 126.069 282.137 128.339 279.566 129.853C276.996 131.215 273.216 132.274 273.065 132.426H272.611ZM273.065 129.399L273.216 131.518C274.274 131.215 277.298 130.307 279.264 129.096C281.381 127.885 284.253 126.069 285.009 125.464L284.707 123.648C284.253 123.951 283.346 124.556 281.683 125.464C279.113 127.129 274.123 128.945 273.065 129.399Z" fill="#020023"/>
<path d="M282.894 188.423C281.987 188.423 280.777 188.12 278.963 187.212C275.031 185.245 273.973 184.185 273.973 184.034L273.822 183.883V183.731C273.822 183.731 273.822 179.948 273.519 176.315C273.368 172.683 270.647 142.263 269.891 135.604C269.286 129.096 269.739 125.615 269.739 125.464C269.739 125.313 269.891 125.161 270.042 125.161C270.193 125.161 270.344 125.313 270.344 125.464C270.344 125.464 269.891 129.096 270.495 135.453C271.251 142.112 273.973 172.532 274.124 176.164C274.275 179.494 274.427 182.823 274.427 183.58C274.729 183.883 276.09 184.942 279.265 186.455C282.894 188.272 284.103 187.212 284.103 187.212C284.255 187.061 284.406 187.061 284.557 187.212C284.708 187.364 284.708 187.515 284.557 187.666C284.557 187.969 284.103 188.423 282.894 188.423Z" fill="#020023"/>
<path d="M283.952 182.52C281.533 181.764 275.938 179.796 275.787 178.737C275.787 178.586 275.787 178.434 275.938 178.283C276.543 177.526 284.103 176.467 287.429 176.164C287.581 176.164 287.732 176.315 287.732 176.467C287.732 176.618 287.581 176.769 287.429 176.769C282.742 177.375 277.45 178.132 276.543 178.586C277.299 179.191 280.928 180.704 284.103 181.764C284.254 181.764 284.405 182.066 284.254 182.218C284.254 182.369 284.103 182.52 283.952 182.52Z" fill="#020023"/>
<path d="M285.821 173.522L285.623 172.951L278.195 175.53L278.394 176.102L285.821 173.522Z" fill="#020023"/>
<path d="M262.482 233.372C262.18 233.372 262.18 233.069 262.18 232.918L263.692 227.621L273.973 226.864C274.124 226.864 274.276 227.016 274.276 227.167C274.276 227.318 274.124 227.47 273.973 227.47L264.145 228.075L262.784 232.918C262.784 233.221 262.633 233.372 262.482 233.372Z" fill="#020023"/>
<path d="M296.955 131.82C296.652 131.669 296.652 131.518 296.652 131.366C296.652 131.366 298.013 128.339 299.525 124.859C300.584 122.286 300.281 120.47 300.13 119.259C300.13 118.805 299.979 118.502 299.979 118.048C299.979 116.535 300.13 110.935 300.13 110.784C300.13 110.632 300.281 110.481 300.432 110.481C300.584 110.481 300.735 110.632 300.735 110.784C300.735 110.784 300.432 116.686 300.584 118.048C300.584 118.351 300.735 118.653 300.735 119.107C301.037 120.47 301.34 122.437 300.13 125.161C298.618 128.642 297.257 131.669 297.257 131.669C297.257 131.82 297.106 131.82 296.955 131.82Z" fill="#020023"/>
<path d="M296.955 131.82C296.804 131.82 296.652 131.669 296.652 131.518C296.652 131.366 296.804 131.215 296.955 131.064C296.955 131.064 301.793 130.307 304.666 126.675C306.783 124.102 309.353 123.345 314.645 121.68C317.367 120.772 320.844 119.713 325.38 118.048C333.998 114.87 337.93 114.113 340.349 113.659C341.407 113.508 342.163 113.356 342.919 113.054C344.734 112.448 348.362 105.789 349.723 103.368C349.874 103.216 350.026 103.216 350.177 103.216C350.328 103.368 350.328 103.519 350.328 103.67C349.874 104.578 345.49 112.751 343.222 113.659C342.466 113.962 341.558 114.113 340.5 114.264C338.081 114.719 334.15 115.324 325.531 118.653C320.995 120.318 317.518 121.378 314.796 122.286C309.655 123.95 307.085 124.707 305.119 127.129C302.096 131.064 297.257 131.82 296.955 131.82C297.106 131.82 297.106 131.82 296.955 131.82Z" fill="#020023"/>
<path d="M345.943 115.929C345.187 115.929 345.187 115.778 345.187 115.627C344.884 115.021 347.152 112.146 351.991 107.151C352.142 107 352.293 107 352.444 107.151C352.596 107.303 352.596 107.454 352.444 107.605C349.42 110.784 346.245 114.416 345.943 115.324C346.699 115.475 350.025 114.567 352.898 113.508C353.049 113.508 353.2 113.508 353.352 113.659C353.352 113.81 353.352 113.962 353.2 114.113C348.816 115.475 346.85 115.929 345.943 115.929Z" fill="#020023"/>
<path d="M344.432 156.187L344.734 149.83L348.514 148.771L355.923 147.409L355.167 153.008H355.016C355.016 153.008 353.352 153.463 351.992 153.917C350.631 154.371 345.188 155.884 344.885 156.035L344.432 156.187ZM345.339 150.284L345.036 155.279C346.397 154.825 350.48 153.765 351.689 153.311C352.748 152.857 354.108 152.554 354.562 152.403L355.167 148.166L348.665 149.376L345.339 150.284Z" fill="#020023"/>
<path d="M314.04 99.2815H313.436C313.436 99.1301 314.343 86.8713 315.099 81.2716C315.25 80.0608 315.25 80.0608 315.552 80.0608C315.704 80.0608 315.704 80.0608 315.855 80.5149C315.855 80.5149 315.855 80.6662 315.855 80.8175C315.855 81.8769 315.552 84.1471 315.099 89.8982C314.494 94.5898 314.04 99.2815 314.04 99.2815Z" fill="#020023"/>
<path d="M302.246 127.129C301.944 126.977 301.793 126.826 301.944 126.675C301.944 126.675 304.061 122.134 305.27 118.805C306.329 115.627 306.178 112.6 306.178 112.6C306.178 112.448 306.329 112.297 306.48 112.297C306.631 112.297 306.782 112.448 306.782 112.6C306.782 112.751 307.085 115.778 305.875 119.107C304.666 122.437 302.549 126.977 302.549 126.977C302.549 126.977 302.398 127.129 302.246 127.129Z" fill="#020023"/>
<path d="M308.445 26.7878C308.294 26.7878 308.143 26.7878 307.992 26.7878H307.689L307.387 23.3069L307.689 23.1556C308.143 23.0042 308.748 22.8529 309.201 23.0042C309.352 23.0042 309.352 23.1556 309.503 23.3069C309.655 23.6096 309.503 26.4852 309.05 26.7878C308.899 26.6365 308.596 26.7878 308.445 26.7878ZM308.294 26.0311C308.445 26.0311 308.445 26.0311 308.294 26.0311C308.596 25.5771 308.747 23.9123 308.747 23.4583C308.596 23.4583 308.294 23.4583 308.143 23.6096L308.294 26.0311Z" fill="#020023"/>
<path d="M301.188 27.0905C300.734 27.0905 300.583 26.9392 300.583 26.9392L300.432 26.7878V26.6365C300.432 26.1825 300.734 24.215 300.734 24.0636V23.761H301.036C306.782 22.8529 306.782 22.8529 306.933 23.3069C307.084 23.6096 306.631 25.1231 306.177 25.8798C306.026 26.1825 305.724 26.4851 305.572 26.4851C303.002 26.9392 301.792 27.0905 301.188 27.0905ZM301.188 26.4851C301.792 26.4851 303.456 26.1825 305.421 25.8798C305.724 25.8798 306.177 24.5177 306.177 23.761C305.421 23.761 303.304 24.0636 301.339 24.5177C301.339 25.1231 301.188 26.0311 301.188 26.4851Z" fill="#020023"/>
<path d="M307.841 25.4258L306.177 25.2744C306.026 25.2744 305.875 25.1231 305.875 24.9717C305.875 24.8204 306.026 24.669 306.177 24.669L307.841 24.8204C307.992 24.8204 308.143 24.9717 308.143 25.1231C308.143 25.2744 307.992 25.4258 307.841 25.4258Z" fill="#020023"/>
<path d="M301.037 24.215C301.037 24.215 298.315 20.2801 297.559 20.1287C296.652 19.9774 295.291 21.3395 295.291 21.3395L295.593 21.6421C295.593 21.6421 296.803 20.5827 297.257 21.1881C297.71 21.7935 300.583 27.0905 300.583 27.0905L301.037 24.215Z" fill="#020023"/>
</g>
<defs>
<linearGradient id="paint0_linear_1423_2531" x1="155.62" y1="450.377" x2="157.741" y2="448.616" gradientUnits="userSpaceOnUse">
<stop offset="0.0615079" stop-color="white"/>
<stop offset="0.4255" stop-color="white"/>
<stop offset="1" stop-color="white"/>
</linearGradient>
<linearGradient id="paint1_linear_1423_2531" x1="226.349" y1="244.854" x2="226.349" y2="534.849" gradientUnits="userSpaceOnUse">
<stop stop-color="#1A1A1A"/>
<stop offset="1" stop-color="#0F9D87"/>
</linearGradient>
<linearGradient id="paint2_linear_1423_2531" x1="317" y1="260" x2="344" y2="230" gradientUnits="userSpaceOnUse">
<stop stop-color="#1A1A1A"/>
<stop offset="1" stop-color="#0F9D87"/>
</linearGradient>
<linearGradient id="paint3_linear_1423_2531" x1="370.814" y1="178.586" x2="370.814" y2="201.438" gradientUnits="userSpaceOnUse">
<stop stop-color="#1A1A1A"/>
<stop offset="1" stop-color="#0F9D87"/>
</linearGradient>
<linearGradient id="paint4_linear_1423_2531" x1="410.788" y1="184.34" x2="366.052" y2="146.813" gradientUnits="userSpaceOnUse">
<stop offset="0.0892857" stop-color="#9CD9C7"/>
<stop offset="0.8737" stop-color="#DAFFC8"/>
</linearGradient>
<linearGradient id="paint5_linear_1423_2531" x1="344.576" y1="212.51" x2="347.186" y2="182.827" gradientUnits="userSpaceOnUse">
<stop offset="0.0892857" stop-color="#9CD9C7"/>
<stop offset="0.8737" stop-color="#DAFFC8"/>
</linearGradient>
<linearGradient id="paint6_linear_1423_2531" x1="420.179" y1="139.291" x2="390.053" y2="114.02" gradientUnits="userSpaceOnUse">
<stop offset="0.0892857" stop-color="#9CD9C7"/>
<stop offset="0.8737" stop-color="#DAFFC8"/>
</linearGradient>
<linearGradient id="paint7_linear_1423_2531" x1="454.364" y1="41.0105" x2="454.364" y2="128.642" gradientUnits="userSpaceOnUse">
<stop stop-color="#1A1A1A"/>
<stop offset="1" stop-color="#0F9D87"/>
</linearGradient>
<linearGradient id="paint8_linear_1423_2531" x1="414.739" y1="111.54" x2="414.739" y2="157.851" gradientUnits="userSpaceOnUse">
<stop stop-color="#1A1A1A"/>
<stop offset="1" stop-color="#0F9D87"/>
</linearGradient>
<linearGradient id="paint9_linear_1423_2531" x1="453.481" y1="67.0894" x2="449.111" y2="46.6915" gradientUnits="userSpaceOnUse">
<stop offset="0.0615079" stop-color="white"/>
<stop offset="0.4255" stop-color="white"/>
<stop offset="1" stop-color="white"/>
</linearGradient>
<linearGradient id="paint10_linear_1423_2531" x1="391.205" y1="117.899" x2="385.429" y2="90.9431" gradientUnits="userSpaceOnUse">
<stop offset="0.0615079" stop-color="white"/>
<stop offset="0.4255" stop-color="white"/>
<stop offset="1" stop-color="white"/>
</linearGradient>
<linearGradient id="paint11_linear_1423_2531" x1="342.907" y1="214.765" x2="345.388" y2="186.559" gradientUnits="userSpaceOnUse">
<stop offset="0.0892857" stop-color="#9CD9C7"/>
<stop offset="0.8737" stop-color="#DAFFC8"/>
</linearGradient>
<linearGradient id="paint12_linear_1423_2531" x1="337.373" y1="221.684" x2="339.696" y2="195.268" gradientUnits="userSpaceOnUse">
<stop offset="0.0892857" stop-color="#9CD9C7"/>
<stop offset="0.8737" stop-color="#DAFFC8"/>
</linearGradient>
<linearGradient id="paint13_linear_1423_2531" x1="421.216" y1="146.637" x2="396.907" y2="144.752" gradientUnits="userSpaceOnUse">
<stop offset="0.1687" stop-color="#E0F3F4"/>
<stop offset="0.7907" stop-color="#4D98A0"/>
</linearGradient>
<linearGradient id="paint14_linear_1423_2531" x1="421.998" y1="112.133" x2="412.782" y2="127.972" gradientUnits="userSpaceOnUse">
<stop offset="0.0615079" stop-color="white"/>
<stop offset="1" stop-color="white"/>
</linearGradient>
<linearGradient id="paint15_linear_1423_2531" x1="318.09" y1="293.177" x2="307.503" y2="261.988" gradientUnits="userSpaceOnUse">
<stop offset="0.0892857" stop-color="#9CD9C7"/>
<stop offset="0.8737" stop-color="#DAFFC8"/>
</linearGradient>
<linearGradient id="paint16_linear_1423_2531" x1="338.535" y1="233.372" x2="338.535" y2="284.375" gradientUnits="userSpaceOnUse">
<stop stop-color="#1A1A1A"/>
<stop offset="1" stop-color="#0F9D87"/>
</linearGradient>
<linearGradient id="paint17_linear_1423_2531" x1="289.216" y1="265.781" x2="255.838" y2="232.35" gradientUnits="userSpaceOnUse">
<stop offset="0.2492" stop-color="#9CD9C7"/>
<stop offset="0.6206" stop-color="#DAFFC8"/>
</linearGradient>
<linearGradient id="paint18_linear_1423_2531" x1="303.833" y1="204.163" x2="303.833" y2="249.414" gradientUnits="userSpaceOnUse">
<stop stop-color="#1A1A1A"/>
<stop offset="1" stop-color="#0F9D87"/>
</linearGradient>
<linearGradient id="paint19_linear_1423_2531" x1="257.816" y1="167.79" x2="312.747" y2="164.071" gradientUnits="userSpaceOnUse">
<stop offset="0.121" stop-color="#0A2D51"/>
<stop offset="0.8552" stop-color="#19437F"/>
<stop offset="1" stop-color="#0A2D51"/>
</linearGradient>
<linearGradient id="paint20_linear_1423_2531" x1="257.935" y1="172.087" x2="299.891" y2="169.247" gradientUnits="userSpaceOnUse">
<stop offset="0.121" stop-color="#0A2D51"/>
<stop offset="1" stop-color="#0A2D51"/>
</linearGradient>
<linearGradient id="paint21_linear_1423_2531" x1="206.875" y1="103.4" x2="199.854" y2="118.157" gradientUnits="userSpaceOnUse">
<stop stop-color="#1A1A1A"/>
<stop offset="1" stop-color="#0F9D87"/>
</linearGradient>
<linearGradient id="paint22_linear_1423_2531" x1="210.09" y1="93.8331" x2="210.09" y2="107.908" gradientUnits="userSpaceOnUse">
<stop stop-color="#1A1A1A"/>
<stop offset="1" stop-color="#0F9D87"/>
</linearGradient>
<linearGradient id="paint23_linear_1423_2531" x1="207.882" y1="105.604" x2="208.337" y2="104.647" gradientUnits="userSpaceOnUse">
<stop stop-color="#1A1A1A"/>
<stop offset="1" stop-color="#0F9D87"/>
</linearGradient>
<linearGradient id="paint24_linear_1423_2531" x1="262.879" y1="85.8699" x2="316.913" y2="82.2122" gradientUnits="userSpaceOnUse">
<stop stop-color="#0F9D87"/>
<stop offset="0.47"/>
<stop offset="0.7979" stop-color="#0F9D87"/>
</linearGradient>
<linearGradient id="paint25_linear_1423_2531" x1="267.596" y1="88.5142" x2="321.786" y2="37.6322" gradientUnits="userSpaceOnUse">
<stop offset="0.121" stop-color="#0A2D51"/>
<stop offset="0.4862" stop-color="#19437F"/>
</linearGradient>
<linearGradient id="paint26_linear_1423_2531" x1="308.6" y1="72.188" x2="319.399" y2="71.4571" gradientUnits="userSpaceOnUse">
<stop offset="0.121" stop-color="#0A2D51"/>
<stop offset="1" stop-color="#0A2D51"/>
</linearGradient>
<linearGradient id="paint27_linear_1423_2531" x1="311.186" y1="45.7615" x2="351.342" y2="43.0433" gradientUnits="userSpaceOnUse">
<stop offset="0.121" stop-color="#0A2D51"/>
<stop offset="1" stop-color="#0A2D51"/>
</linearGradient>
<linearGradient id="paint28_linear_1423_2531" x1="228.401" y1="79.6207" x2="288.016" y2="42.5236" gradientUnits="userSpaceOnUse">
<stop offset="0.121" stop-color="#0A2D51"/>
<stop offset="0.4862" stop-color="#19437F"/>
</linearGradient>
<linearGradient id="paint29_linear_1423_2531" x1="295.485" y1="42.0351" x2="284.575" y2="54.5593" gradientUnits="userSpaceOnUse">
<stop offset="0.1072" stop-color="#78F8E4"/>
<stop offset="0.4147" stop-color="#0F9D87"/>
</linearGradient>
<linearGradient id="paint30_linear_1423_2531" x1="302.697" y1="42.7998" x2="296.533" y2="45.5781" gradientUnits="userSpaceOnUse">
<stop offset="0.1072" stop-color="#78F8E4"/>
<stop offset="0.4147" stop-color="#0F9D87"/>
</linearGradient>
<linearGradient id="paint31_linear_1423_2531" x1="295.845" y1="55.1671" x2="263.574" y2="67.4429" gradientUnits="userSpaceOnUse">
<stop offset="0.1072" stop-color="#78F8E4"/>
<stop offset="0.4147" stop-color="#0F9D87"/>
</linearGradient>
<linearGradient id="paint32_linear_1423_2531" x1="335.177" y1="18.3361" x2="335.858" y2="22.0578" gradientUnits="userSpaceOnUse">
<stop stop-color="#1A1A1A"/>
<stop offset="1" stop-color="#0F9D87"/>
</linearGradient>
<linearGradient id="paint33_linear_1423_2531" x1="351.537" y1="8.77792" x2="351.537" y2="24.5177" gradientUnits="userSpaceOnUse">
<stop stop-color="#1A1A1A"/>
<stop offset="1" stop-color="#0F9D87"/>
</linearGradient>
<linearGradient id="paint34_linear_1423_2531" x1="371.798" y1="3.02689" x2="371.798" y2="22.0962" gradientUnits="userSpaceOnUse">
<stop stop-color="#1A1A1A"/>
<stop offset="1" stop-color="#0F9D87"/>
</linearGradient>
<linearGradient id="paint35_linear_1423_2531" x1="389.865" y1="0.295091" x2="393.488" y2="20.0945" gradientUnits="userSpaceOnUse">
<stop stop-color="#1A1A1A"/>
<stop offset="1" stop-color="#0F9D87"/>
</linearGradient>
<linearGradient id="paint36_linear_1423_2531" x1="353.211" y1="9.26988" x2="382.775" y2="7.26862" gradientUnits="userSpaceOnUse">
<stop offset="0.0615079" stop-color="white"/>
<stop offset="0.4255" stop-color="white"/>
<stop offset="1" stop-color="white"/>
</linearGradient>
<linearGradient id="paint37_linear_1423_2531" x1="388.403" y1="8.62357" x2="394.318" y2="8.22316" gradientUnits="userSpaceOnUse">
<stop offset="0.0615079" stop-color="white"/>
<stop offset="0.4255" stop-color="white"/>
<stop offset="1" stop-color="white"/>
</linearGradient>
<linearGradient id="paint38_linear_1423_2531" x1="296.788" y1="131.543" x2="355.685" y2="127.556" gradientUnits="userSpaceOnUse">
<stop offset="0.121" stop-color="#0A2D51"/>
<stop offset="1" stop-color="#0A2D51"/>
</linearGradient>
<clipPath id="clip0_1423_2531">
<rect width="536" height="535" fill="white"/>
</clipPath>
</defs>
</svg>
