<svg width="206" height="43" viewBox="0 0 206 43" fill="none" xmlns="http://www.w3.org/2000/svg">
<g clip-path="url(#clip0_1435_12)">
<path d="M16.2894 10.4656H28.3003L26.4402 17.5751C26.1561 18.566 25.6245 19.3619 24.846 19.9627C24.0663 20.5649 23.1627 20.8651 22.1357 20.8651H16.5552C15.2796 20.8651 14.1542 21.2361 13.1804 21.9792C12.2052 22.722 11.5238 23.7297 11.1342 25.0035C10.886 25.9584 10.8594 26.8604 11.0546 27.7093C11.249 28.5581 11.5944 29.3102 12.0907 29.9638C12.5866 30.6189 13.2243 31.1405 14.0044 31.5295C14.7829 31.9193 15.6336 32.1126 16.5552 32.1126H19.9562C20.5943 32.1126 21.1165 32.3697 21.5242 32.882C21.9311 33.3954 22.0467 33.9696 21.8695 34.6063L19.7441 42.4589H16.024C13.4728 42.4589 11.1252 41.9016 8.98171 40.7875C6.83787 39.6733 5.05741 38.1972 3.64069 36.3571C2.22323 34.5186 1.25736 32.4229 0.744205 30.0706C0.230299 27.7183 0.292614 25.3041 0.930397 22.8277L1.14287 22.0321C1.59202 20.3577 2.31949 18.7704 3.29496 17.3364C4.26947 15.9041 5.42078 14.6839 6.74965 13.6758C8.07815 12.6677 9.55755 11.8807 11.1875 11.3148C12.8167 10.7493 14.5172 10.4656 16.2894 10.4656ZM22.3478 42.4585L32.8173 3.30365C33.1004 2.31355 33.6319 1.51794 34.412 0.916084C35.1905 0.314601 36.0937 0.0136719 37.1223 0.0136719H48.23C50.7807 0.0136719 53.1273 0.570934 55.2715 1.68508C57.4146 2.79923 59.195 4.27652 60.6125 6.11507C62.0292 7.95475 63.0041 10.0504 63.5356 12.4024C64.0672 14.7551 63.9955 17.1692 63.3228 19.6445L63.1107 20.4405C62.6497 22.1381 61.9414 23.7035 60.9849 25.1362C60.0277 26.5685 58.8853 27.7981 57.5569 28.8234C56.228 29.8495 54.7482 30.6455 53.119 31.2106C51.4891 31.7772 49.7882 32.0598 48.0171 32.0598H38.3978L40.3108 24.8971C40.5942 23.9422 41.1254 23.1646 41.9054 22.5624C42.6844 21.9616 43.5876 21.6607 44.6157 21.6607H47.6984C48.9736 21.6607 50.1163 21.2717 51.1257 20.4933C52.1359 19.7157 52.7999 18.7076 53.119 17.4691C53.3668 16.5854 53.3931 15.7182 53.199 14.8694C53.0038 14.0205 52.6584 13.2692 52.1622 12.6145C51.6659 11.9605 51.0281 11.4302 50.2492 11.0229C49.4695 10.6166 48.6193 10.4128 47.6984 10.4128H41.7455L33.9863 39.2225C33.7021 40.1774 33.1706 40.9558 32.3916 41.5569C31.6123 42.1587 30.726 42.4589 29.7343 42.4589L22.3478 42.4585ZM88.6198 21.5546L88.7793 20.9708C88.8499 20.6882 88.806 20.4499 88.6464 20.255C88.4869 20.0609 88.2654 19.9627 87.982 19.9627H70.7097C69.9657 19.9627 69.2922 19.8038 68.6901 19.4852C68.0876 19.1667 67.5917 18.7515 67.2024 18.2384C66.812 17.7265 66.5463 17.1336 66.4051 16.461C66.2628 15.7898 66.2805 15.0998 66.4577 14.3919L67.5208 10.3596H90.9052C92.3579 10.3596 93.6864 10.6781 94.891 11.3148C96.0953 11.9511 97.0968 12.7827 97.8941 13.8084C98.6914 14.8345 99.2399 16.0101 99.5413 17.3364C99.842 18.663 99.8153 20.0343 99.4617 21.4486L95.263 37.0471C94.8381 38.639 93.9788 39.9304 92.6856 40.9202C91.392 41.911 89.913 42.4061 88.2478 42.4061L70.9755 42.3528C69.4514 42.3528 68.0523 42.0261 66.7771 41.371C65.5012 40.7174 64.4561 39.851 63.6411 38.7717C62.8262 37.6931 62.2597 36.4549 61.9406 35.0578C61.6219 33.6608 61.6576 32.2371 62.0469 30.7864L62.2597 29.9904C62.5071 29.001 62.9241 28.0806 63.5082 27.2318C64.0931 26.3826 64.7748 25.6578 65.5545 25.0564C66.3413 24.4512 67.2206 23.9764 68.1585 23.6503C69.1154 23.3145 70.1256 23.1462 71.1883 23.1462H85.697L84.6339 27.1258C84.3501 28.0806 83.8186 28.859 83.0393 29.4601C82.26 30.062 81.3741 30.3618 80.3823 30.3618H73.8982C73.2957 30.3618 72.9061 30.6631 72.7293 31.2642C72.623 31.6539 72.6936 31.9987 72.9417 32.2985C73.1895 32.5994 73.5082 32.7494 73.8982 32.7494H84.3678C84.7578 32.7494 85.0942 32.6433 85.378 32.4312C85.661 32.2187 85.8378 31.9365 85.9095 31.5824L86.0157 31.1578L88.6198 21.5546ZM119.551 10.4656C122.136 10.4656 124.502 11.0229 126.645 12.137C128.789 13.2512 130.569 14.7285 131.987 16.5674C133.404 18.4067 134.369 20.5117 134.883 22.8809C135.396 25.2512 135.317 27.6744 134.644 30.1497L131.987 40.1245C131.809 40.8321 131.429 41.3976 130.845 41.8222C130.26 42.2468 129.612 42.4589 128.904 42.4589H123.164C122.491 42.4589 121.96 42.2029 121.57 41.6895C121.18 41.1772 121.074 40.6016 121.251 39.9653L124.44 27.9214C124.688 27.0377 124.714 26.1705 124.52 25.3217C124.324 24.4725 123.979 23.7215 123.484 23.0668C122.987 22.4125 122.349 21.8822 121.57 21.4748C120.79 21.0686 119.94 20.8651 119.019 20.8651H113.067L107.911 40.1245C107.734 40.8321 107.354 41.3976 106.769 41.8222C106.184 42.2468 105.52 42.4589 104.776 42.4589H99.0897C98.4519 42.4589 97.929 42.2029 97.5221 41.6895C97.1152 41.1772 96.9996 40.6016 97.1764 39.9653L105.042 10.4656H119.551ZM150.853 20.5728C150.428 20.9097 150.126 21.3425 149.949 21.8732L147.558 30.8924C147.416 31.3882 147.505 31.8477 147.824 32.2719C148.143 32.6965 148.568 32.909 149.1 32.909H171.102L169.401 39.2225C169.117 40.1774 168.586 40.9558 167.807 41.5569C167.027 42.1587 166.141 42.4589 165.149 42.4589H145.114C143.66 42.4589 142.332 42.1497 141.128 41.5303C139.923 40.9119 138.922 40.0807 138.124 39.0366C137.327 37.9941 136.777 36.8083 136.478 35.4821C136.176 34.1554 136.22 32.8026 136.61 31.4231L139.852 19.3792C140.206 18.0713 140.755 16.8683 141.5 15.7714C142.244 14.6756 143.121 13.738 144.13 12.9596C145.14 12.1816 146.273 11.5719 147.531 11.1289C148.786 10.6873 150.107 10.463 151.438 10.4656H165.628C167.08 10.4656 168.409 10.7842 169.613 11.4209C170.818 12.0576 171.82 12.8892 172.617 13.9145C173.414 14.9406 173.953 16.1256 174.237 17.4691C174.52 18.8137 174.485 20.1748 174.131 21.5546L173.174 25.1624C172.749 26.7544 171.89 28.0368 170.597 29.0093C169.303 29.9822 167.842 30.4682 166.212 30.4682H150.162L151.225 26.5419C151.473 25.587 151.986 24.8094 152.766 24.2072C153.545 23.6064 154.448 23.3055 155.477 23.3055H161.961C162.563 23.3055 162.952 23.0053 163.13 22.4035L163.342 21.6075C163.449 21.2189 163.377 20.8647 163.13 20.5465C162.881 20.228 162.563 20.0691 162.173 20.0691H152.288C151.757 20.0691 151.278 20.237 150.853 20.5728ZM171.048 42.4585L181.73 2.40087C181.907 1.69408 182.288 1.1192 182.873 0.67699C183.457 0.234778 184.121 0.0136719 184.866 0.0136719H190.552C191.225 0.0136719 191.765 0.270754 192.173 0.783046C192.58 1.29646 192.695 1.87059 192.518 2.5073L184.547 32.0598C184.156 33.6169 183.528 35.0309 182.66 36.3043C181.791 37.5777 180.764 38.6652 179.577 39.5673C178.39 40.4693 177.07 41.1772 175.618 41.6895C174.165 42.2029 172.642 42.4585 171.048 42.4585Z" fill="#FF6C2C"/>
</g>
<path d="M199.602 0.131104H200.684L202.567 4.71788H202.636L204.518 0.131104H205.601V6.03168H204.752V1.76183H204.697L202.954 6.02304H202.249L200.505 1.75895H200.45V6.03168H199.602V0.131104Z" fill="#FF6C2C"/>
<path d="M194.012 0.897487V0.131104H198.588V0.897487H196.743V6.03168H195.854V0.897487H194.012Z" fill="#FF6C2C"/>
<defs>
<clipPath id="clip0_1435_12">
<rect width="192.198" height="42.7498" fill="white" transform="translate(0.400391)"/>
</clipPath>
</defs>
</svg>
