<svg width="100" height="100" viewBox="0 0 100 100" fill="none" xmlns="http://www.w3.org/2000/svg">
<path d="M48.6026 59.14C47.8637 58.0585 47.5257 56.753 47.6469 55.4489C47.7682 54.1448 48.3411 52.924 49.2666 51.9973L52.2174 49.0472C53.1438 48.1211 54.3647 47.5479 55.669 47.4267C56.9733 47.3056 58.279 47.6441 59.3601 48.3837L62.3835 50.4518C62.4177 50.2986 62.4652 50.1486 62.5254 50.0036C62.9284 49.1598 64.8273 44.9278 65.1591 44.3864C65.6599 43.5684 66.3622 42.8925 67.1988 42.4234C68.0354 41.9543 68.9783 41.7077 69.9374 41.7072H74.1093C74.4104 41.7094 74.7109 41.7361 75.0077 41.7868C75.0466 41.5907 75.0666 41.3912 75.0676 41.1912V35.4082C75.0673 34.6732 74.8102 33.9614 74.3407 33.3958C73.8712 32.8302 73.2189 32.4464 72.4965 32.3107L65.7948 31.0534C65.3021 30.9653 64.8411 30.7495 64.4578 30.4277C64.0745 30.1058 63.7823 29.6891 63.6104 29.219C63.294 28.3266 62.9319 27.4511 62.5254 26.5959C62.3164 26.1417 62.2297 25.6407 62.2738 25.1427C62.318 24.6446 62.4916 24.1667 62.7773 23.7564L66.624 18.1314C67.0383 17.5244 67.2278 16.7918 67.1598 16.0601C67.0919 15.3283 66.7707 14.6432 66.2516 14.1229L62.1623 10.0343C61.6423 9.51482 60.9572 9.19321 60.2253 9.12509C59.4934 9.05696 58.7608 9.24659 58.1538 9.66121L52.5288 13.5095C52.1185 13.7955 51.6405 13.9691 51.1423 14.0129C50.6441 14.0568 50.1431 13.9694 49.6891 13.7595C48.8335 13.353 47.9574 12.9914 47.0641 12.6761C46.5943 12.5032 46.1779 12.2104 45.8564 11.8267C45.5348 11.443 45.3193 10.9818 45.2312 10.489L43.9738 3.78887C43.8389 3.06637 43.4556 2.41382 42.8901 1.94426C42.3247 1.47469 41.6129 1.21769 40.8779 1.21777H35.0948C34.3598 1.21811 33.6481 1.47515 33.0825 1.94449C32.517 2.41382 32.1331 3.06597 31.9973 3.78824L30.7399 10.489C30.6517 10.9818 30.436 11.4429 30.1143 11.8265C29.7926 12.2101 29.3761 12.5029 28.9062 12.6756C28.0135 12.9905 27.1379 13.3521 26.2832 13.759C25.8289 13.9686 25.3278 14.0557 24.8294 14.0119C24.3311 13.968 23.8528 13.7947 23.4421 13.509L17.8171 9.66074C17.21 9.24649 16.4774 9.05709 15.7456 9.12521C15.0138 9.19332 14.3287 9.51469 13.8085 10.0339L9.72086 14.1229C9.20162 14.6431 8.88017 15.3281 8.81193 16.0598C8.7437 16.7916 8.93298 17.5242 9.34711 18.1314L13.1954 23.7564C13.4812 24.1669 13.6546 24.645 13.6984 25.1432C13.7423 25.6415 13.6551 26.1426 13.4454 26.5967C13.0383 27.4517 12.6761 28.3275 12.3605 29.2204C12.1882 29.6902 11.8958 30.1067 11.5125 30.4283C11.1291 30.7499 10.6682 30.9654 10.1755 31.0534L3.47555 32.3107C2.75306 32.4463 2.10065 32.83 1.63113 33.3956C1.16162 33.9613 0.904519 34.6732 0.904297 35.4082V41.1912C0.904513 41.9263 1.16161 42.6382 1.63112 43.2039C2.10063 43.7695 2.75305 44.1533 3.47555 44.2889L10.1741 45.5454C10.6673 45.6335 11.1287 45.8493 11.5124 46.1714C11.8961 46.4935 12.1886 46.9106 12.3607 47.3811C12.6766 48.2734 13.0387 49.1486 13.4455 50.0032C13.6552 50.4574 13.7424 50.9585 13.6986 51.4567C13.6547 51.955 13.4813 52.4332 13.1955 52.8437L9.34726 58.4687C8.93272 59.0756 8.74319 59.8082 8.81144 60.5399C8.87968 61.2717 9.2014 61.9566 9.72101 62.4764L13.8088 66.5657C14.3288 67.0853 15.014 67.4069 15.746 67.4748C16.4779 67.5428 17.2106 67.353 17.8174 66.9381L23.4424 63.0906C23.8534 62.8055 24.3316 62.6325 24.8298 62.5886C25.328 62.5448 25.8291 62.6316 26.2835 62.8406C27.1381 63.2481 28.0136 63.61 28.9065 63.9248C29.3765 64.0975 29.7931 64.3902 30.1149 64.7738C30.4366 65.1574 30.6524 65.6185 30.7407 66.1114L31.998 72.8123C32.1339 73.5346 32.5178 74.1867 33.0833 74.656C33.6489 75.1253 34.3606 75.3823 35.0955 75.3826H40.8787C41.2928 75.3804 41.7024 75.296 42.0837 75.1342C41.985 74.727 41.9326 74.31 41.9274 73.8911V69.7192C41.9277 68.7793 42.1638 67.8544 42.614 67.0293C43.0642 66.2042 43.7141 65.5052 44.5043 64.9962C46.6 64.0477 48.7587 63.245 50.9651 62.594L48.6026 59.14ZM37.9859 50.1868C35.6348 50.1869 33.3365 49.4897 31.3816 48.1835C29.4267 46.8774 27.9031 45.0208 27.0034 42.8487C26.1037 40.6766 25.8682 38.2865 26.3269 35.9806C26.7856 33.6747 27.9178 31.5565 29.5802 29.8941C31.2427 28.2316 33.3608 27.0995 35.6668 26.6408C37.9727 26.1822 40.3628 26.4176 42.5349 27.3174C44.707 28.2172 46.5635 29.7408 47.8697 31.6957C49.1758 33.6506 49.8729 35.9489 49.8729 38.3C49.8728 41.4525 48.6203 44.4759 46.3911 46.7051C44.1619 48.9343 41.1384 50.1868 37.9859 50.1868Z" fill="#49AF62"/>
<path d="M96.8196 68.0364L91.9849 67.1302C91.532 67.0486 91.1085 66.8496 90.7567 66.5531C90.4048 66.2565 90.137 65.8728 89.9799 65.4403C89.7594 64.8147 89.5061 64.2011 89.2208 63.6022C89.0269 63.1856 88.9455 62.7255 88.9847 62.2676C89.024 61.8098 89.1826 61.3703 89.4447 60.9928L92.221 56.9345C92.4462 56.6053 92.5492 56.2078 92.5123 55.8106C92.4754 55.4135 92.3008 55.0417 92.0188 54.7597L89.0685 51.8095C88.7865 51.5275 88.4148 51.3529 88.0176 51.316C87.6205 51.2791 87.223 51.3821 86.8938 51.6073L82.8354 54.3833C82.458 54.6455 82.0184 54.8042 81.5606 54.8434C81.1027 54.8827 80.6425 54.8013 80.226 54.6072C79.627 54.3223 79.0135 54.069 78.388 53.8483C77.9555 53.6912 77.5717 53.4234 77.2752 53.0715C76.9786 52.7196 76.7796 52.296 76.6982 51.8431L75.791 47.0083C75.7174 46.6163 75.5091 46.2623 75.2022 46.0076C74.8953 45.7529 74.509 45.6134 74.1102 45.6133H69.9379C69.539 45.6134 69.1527 45.7529 68.8458 46.0076C68.5389 46.2623 68.3307 46.6163 68.2571 47.0083L67.3499 51.8431C67.2684 52.296 67.0695 52.7195 66.773 53.0714C66.4765 53.4232 66.0928 53.6911 65.6604 53.8481C65.0348 54.069 64.4212 54.3224 63.8221 54.6072C63.4055 54.8013 62.9454 54.8827 62.4875 54.8434C62.0297 54.8041 61.5901 54.6455 61.2127 54.3833L57.1546 51.6073C56.8254 51.3821 56.4278 51.2791 56.0306 51.316C55.6334 51.3529 55.2616 51.5275 54.9796 51.8095L52.0294 54.7592C51.7474 55.0413 51.5729 55.413 51.5359 55.8102C51.499 56.2073 51.6021 56.6049 51.8272 56.9341L54.6035 60.9922C54.8656 61.3696 55.0242 61.8092 55.0635 62.267C55.1028 62.7248 55.0214 63.185 54.8274 63.6016C54.5422 64.2005 54.2888 64.814 54.0683 65.4397C53.9112 65.8723 53.6433 66.256 53.2913 66.5525C52.9394 66.8491 52.5158 67.048 52.0629 67.1295L47.2282 68.0358C46.8361 68.1094 46.4821 68.3177 46.2273 68.6246C45.9726 68.9316 45.8331 69.318 45.833 69.7169V73.8888C45.833 74.2877 45.9725 74.674 46.2273 74.981C46.482 75.2879 46.8361 75.4962 47.2282 75.5697L52.0629 76.4759C52.5157 76.5575 52.9393 76.7565 53.2911 77.0531C53.643 77.3497 53.9108 77.7334 54.0679 78.1659C54.2883 78.7915 54.5417 79.405 54.8269 80.0039C55.021 80.4205 55.1024 80.8806 55.0631 81.3385C55.0238 81.7963 54.8652 82.2359 54.603 82.6133L51.8268 86.6716C51.6016 87.0008 51.4985 87.3983 51.5355 87.7955C51.5724 88.1926 51.7469 88.5644 52.0289 88.8464L54.9793 91.7967C55.2613 92.0788 55.6331 92.2534 56.0303 92.2903C56.4275 92.3272 56.825 92.2242 57.1543 91.9989L61.2124 89.223C61.5898 88.9608 62.0293 88.8021 62.4872 88.7628C62.945 88.7234 63.4052 88.8049 63.8218 88.9989C64.4208 89.2839 65.0344 89.5372 65.66 89.758C66.0925 89.9151 66.4762 90.183 66.7727 90.5348C67.0692 90.8867 67.2681 91.3103 67.3496 91.7631L68.2568 96.5978C68.3303 96.9898 68.5385 97.3438 68.8455 97.5985C69.1524 97.8532 69.5387 97.9926 69.9375 97.9927H74.1094C74.5082 97.9927 74.8945 97.8533 75.2014 97.5986C75.5084 97.3439 75.7166 96.99 75.7902 96.598L76.6974 91.763C76.7789 91.3101 76.9778 90.8866 77.2743 90.5348C77.5708 90.1829 77.9544 89.9151 78.3869 89.758C79.0126 89.5373 79.6262 89.284 80.2252 88.9989C80.6418 88.8049 81.1019 88.7234 81.5598 88.7628C82.0176 88.8021 82.4572 88.9608 82.8346 89.223L86.8935 91.9998C87.2227 92.225 87.6203 92.3281 88.0175 92.2912C88.4146 92.2542 88.7864 92.0797 89.0685 91.7977L92.0188 88.8473C92.3008 88.5653 92.4754 88.1936 92.5123 87.7965C92.5492 87.3994 92.4462 87.0018 92.221 86.6727L89.4447 82.6142C89.1826 82.2368 89.024 81.7972 88.9848 81.3394C88.9455 80.8815 89.027 80.4214 89.2211 80.0048C89.5061 79.4059 89.7594 78.7924 89.9799 78.1669C90.137 77.7345 90.4049 77.3509 90.7567 77.0544C91.1085 76.758 91.532 76.559 91.9847 76.4775L96.8194 75.5713C97.2115 75.4978 97.5656 75.2896 97.8204 74.9826C98.0752 74.6756 98.2146 74.2892 98.2146 73.8903V69.7184C98.2148 69.3194 98.0755 68.9328 97.8207 68.6256C97.566 68.3184 97.2118 68.11 96.8196 68.0364ZM72.0241 81.5106C70.1042 81.5106 68.2275 80.9413 66.6312 79.8746C65.0349 78.808 63.7908 77.292 63.0561 75.5182C62.3214 73.7445 62.1292 71.7928 62.5038 69.9098C62.8783 68.0268 63.8028 66.2972 65.1604 64.9397C66.5179 63.5821 68.2475 62.6576 70.1305 62.2831C72.0134 61.9085 73.9652 62.1008 75.7389 62.8354C77.5126 63.5701 79.0287 64.8143 80.0953 66.4106C81.1619 68.0068 81.7313 69.8836 81.7313 71.8034C81.7313 73.0782 81.4802 74.3405 80.9924 75.5182C80.5045 76.696 79.7895 77.7661 78.8881 78.6675C77.9867 79.5689 76.9166 80.2839 75.7389 80.7717C74.5612 81.2595 73.2989 81.5106 72.0241 81.5106Z" fill="#1A1A1A"/>
</svg>
