<svg width="36" height="36" viewBox="0 0 36 36" fill="none" xmlns="http://www.w3.org/2000/svg">
<path d="M12.9629 18.0007C12.4106 18.0007 11.9629 17.553 11.9629 17.0007V10.7207C11.9629 10.1684 12.4106 9.7207 12.9629 9.7207H23.0644C23.6167 9.7207 24.0644 10.1684 24.0644 10.7207V17.0007C24.0644 17.553 23.6167 18.0007 23.0644 18.0007H12.9629Z" fill="#49AF62"/>
<path d="M10.1582 2.07715C9.11647 2.07715 8.11745 2.49655 7.38086 3.24309C6.64428 3.98963 6.23047 5.00215 6.23047 6.05792V29.9425C6.23047 30.9983 6.64428 32.0108 7.38086 32.7574C8.11745 33.5039 9.11647 33.9233 10.1582 33.9233H25.8689C26.9106 33.9233 27.9096 33.5039 28.6462 32.7574C29.3828 32.0108 29.7966 30.9983 29.7966 29.9425V6.05792C29.7966 5.00215 29.3828 3.98963 28.6462 3.24309C27.9096 2.49655 26.9106 2.07715 25.8689 2.07715H10.1582ZM10.1582 5.06273C10.1582 5.32667 10.0547 5.5798 9.87056 5.76643C9.68642 5.95307 9.43666 6.05792 9.17624 6.05792C8.91582 6.05792 8.66606 5.95307 8.48191 5.76643C8.29777 5.5798 8.19431 5.32667 8.19431 5.06273C8.19431 4.79878 8.29777 4.54565 8.48191 4.35902C8.66606 4.17238 8.91582 4.06753 9.17624 4.06753C9.43666 4.06753 9.68642 4.17238 9.87056 4.35902C10.0547 4.54565 10.1582 4.79878 10.1582 5.06273ZM27.8328 5.06273C27.8328 5.32667 27.7293 5.5798 27.5452 5.76643C27.361 5.95307 27.1113 6.05792 26.8509 6.05792C26.5904 6.05792 26.3407 5.95307 26.1565 5.76643C25.9724 5.5798 25.8689 5.32667 25.8689 5.06273C25.8689 4.79878 25.9724 4.54565 26.1565 4.35902C26.3407 4.17238 26.5904 4.06753 26.8509 4.06753C27.1113 4.06753 27.361 4.17238 27.5452 4.35902C27.7293 4.54565 27.8328 4.79878 27.8328 5.06273ZM9.17624 23.9714C9.43666 23.9714 9.68642 23.8665 9.87056 23.6799C10.0547 23.4933 10.1582 23.2401 10.1582 22.9762C10.1582 22.7122 10.0547 22.4591 9.87056 22.2725C9.68642 22.0858 9.43666 21.981 9.17624 21.981C8.91582 21.981 8.66606 22.0858 8.48191 22.2725C8.29777 22.4591 8.19431 22.7122 8.19431 22.9762C8.19431 23.2401 8.29777 23.4933 8.48191 23.6799C8.66606 23.8665 8.91582 23.9714 9.17624 23.9714ZM27.8328 22.9762C27.8328 23.2401 27.7293 23.4933 27.5452 23.6799C27.361 23.8665 27.1113 23.9714 26.8509 23.9714C26.5904 23.9714 26.3407 23.8665 26.1565 23.6799C25.9724 23.4933 25.8689 23.2401 25.8689 22.9762C25.8689 22.7122 25.9724 22.4591 26.1565 22.2725C26.3407 22.0858 26.5904 21.981 26.8509 21.981C27.1113 21.981 27.361 22.0858 27.5452 22.2725C27.7293 22.4591 27.8328 22.7122 27.8328 22.9762ZM11.631 8.0483H24.396C24.7867 8.0483 25.1613 8.20558 25.4375 8.48553C25.7138 8.76548 25.8689 9.14518 25.8689 9.54109V18.4978C25.8689 18.8937 25.7138 19.2734 25.4375 19.5534C25.1613 19.8333 24.7867 19.9906 24.396 19.9906H11.631C11.2404 19.9906 10.8658 19.8333 10.5896 19.5534C10.3133 19.2734 10.1582 18.8937 10.1582 18.4978V9.54109C10.1582 9.14518 10.3133 8.76548 10.5896 8.48553C10.8658 8.20558 11.2404 8.0483 11.631 8.0483ZM12.122 25.9618H23.9051C24.4259 25.9618 24.9254 26.1715 25.2937 26.5447C25.662 26.918 25.8689 27.4243 25.8689 27.9521V31.9329H23.9051V27.9521H22.4322V31.9329H20.4684V27.9521H18.9955V31.9329H17.0316V27.9521H15.5587V31.9329H13.5949V27.9521H12.122V31.9329H10.1582V27.9521C10.1582 27.4243 10.3651 26.918 10.7334 26.5447C11.1017 26.1715 11.6012 25.9618 12.122 25.9618Z" fill="#49AF62"/>
</svg>
