<svg width="36" height="36" viewBox="0 0 36 36" fill="none" xmlns="http://www.w3.org/2000/svg">
<path fill-rule="evenodd" clip-rule="evenodd" d="M3 7C3 6.44772 3.44772 6 4 6H32C32.5523 6 33 6.44772 33 7V11H3V7ZM24.2498 9.37523C24.7331 9.37523 25.1248 8.98348 25.1248 8.50023C25.1248 8.01698 24.7331 7.62523 24.2498 7.62523C23.7666 7.62523 23.3748 8.01698 23.3748 8.50023C23.3748 8.98348 23.7666 9.37523 24.2498 9.37523ZM24.2498 10.3752C25.2854 10.3752 26.1248 9.53577 26.1248 8.50023C26.1248 7.4647 25.2854 6.62523 24.2498 6.62523C23.2143 6.62523 22.3748 7.4647 22.3748 8.50023C22.3748 9.53577 23.2143 10.3752 24.2498 10.3752ZM29.5005 8.50023C29.5005 8.98348 29.1087 9.37523 28.6255 9.37523C28.1422 9.37523 27.7505 8.98348 27.7505 8.50023C27.7505 8.01698 28.1422 7.62523 28.6255 7.62523C29.1087 7.62523 29.5005 8.01698 29.5005 8.50023ZM30.5005 8.50023C30.5005 9.53577 29.661 10.3752 28.6255 10.3752C27.59 10.3752 26.7505 9.53577 26.7505 8.50023C26.7505 7.4647 27.59 6.62523 28.6255 6.62523C29.661 6.62523 30.5005 7.4647 30.5005 8.50023Z" fill="#49AF62"/>
<path fill-rule="evenodd" clip-rule="evenodd" d="M3 11.625H33V28.75C33 29.3023 32.5523 29.75 32 29.75H4C3.44772 29.75 3 29.3023 3 28.75V11.625ZM24.0438 16.1795L25.6313 16.8599C25.7416 16.9071 25.8132 17.0156 25.8132 17.1356V23.615C25.8132 23.735 25.7416 23.8434 25.6313 23.8907L24.0438 24.5711C23.8459 24.6559 23.6257 24.5107 23.6257 24.2953V16.4552C23.6257 16.2399 23.8459 16.0947 24.0438 16.1795ZM19.4165 17.7924L22.5665 16.2174C22.766 16.1176 23.0007 16.2627 23.0007 16.4857V18.2461C23.0007 18.3928 22.8946 18.518 22.75 18.5421L19.6 19.0671C19.4171 19.0975 19.2507 18.9565 19.2507 18.7711V18.0607C19.2507 17.9471 19.3149 17.8432 19.4165 17.7924ZM19.5257 19.7274L22.6757 19.4649C22.8506 19.4503 23.0007 19.5883 23.0007 19.7638V21.2711C23.0007 21.4565 22.8342 21.5975 22.6513 21.5671L19.5013 21.0421C19.3567 21.018 19.2507 20.8928 19.2507 20.7461V20.0263C19.2507 19.8703 19.3702 19.7403 19.5257 19.7274ZM22.4907 22.8035L19.6532 21.7717C19.4575 21.7005 19.2507 21.8454 19.2507 22.0536V22.6972C19.2507 22.807 19.3106 22.908 19.407 22.9606L22.2445 24.5083C22.4444 24.6173 22.6882 24.4726 22.6882 24.2449V23.0854C22.6882 22.9593 22.6092 22.8466 22.4907 22.8035ZM27.9128 18.4124L27.2628 17.7624C27.0738 17.5734 26.7507 17.7073 26.7507 17.9745V23.0149C26.7507 23.2379 26.9853 23.3829 27.1848 23.2832L27.8348 22.9582C27.9365 22.9074 28.0007 22.8035 28.0007 22.6899V18.6245C28.0007 18.545 27.969 18.4687 27.9128 18.4124ZM7.41914 19.8007L5.93745 18.319V17.5003L9.77078 20.3753L5.93745 23.2503V22.4315L7.41914 20.9498C7.73644 20.6325 7.73644 20.118 7.41914 19.8007ZM5.60978 18.6101C5.53946 18.5398 5.49995 18.4444 5.49995 18.3449V17.3753C5.49995 17.0662 5.85273 16.8898 6.09995 17.0753L10.0999 20.0753C10.2999 20.2253 10.2999 20.5253 10.0999 20.6753L6.09995 23.6753C5.85273 23.8607 5.49995 23.6843 5.49995 23.3753V22.4056C5.49995 22.3061 5.53946 22.2107 5.60978 22.1404L7.10978 20.6404C7.25623 20.494 7.25623 20.2565 7.10978 20.1101L5.60978 18.6101ZM11.1251 20.6879C11.1251 20.5154 11.265 20.3754 11.4376 20.3754H14.5626C14.7352 20.3754 14.8751 20.5154 14.8751 20.6879C14.8751 20.8605 14.7352 21.0004 14.5626 21.0004H11.4376C11.265 21.0004 11.1251 20.8605 11.1251 20.6879ZM29.8752 20.3751C29.8752 24.1721 26.7972 27.2501 23.0002 27.2501C19.2033 27.2501 16.1252 24.1721 16.1252 20.3751C16.1252 16.5781 19.2033 13.5001 23.0002 13.5001C26.7972 13.5001 29.8752 16.5781 29.8752 20.3751ZM30.5002 20.3751C30.5002 24.5172 27.1424 27.8751 23.0002 27.8751C18.8581 27.8751 15.5002 24.5172 15.5002 20.3751C15.5002 16.233 18.8581 12.8751 23.0002 12.8751C27.1424 12.8751 30.5002 16.233 30.5002 20.3751Z" fill="#49AF62"/>
</svg>
