<svg width="32" height="32" viewBox="0 0 32 32" fill="none" xmlns="http://www.w3.org/2000/svg">
<path d="M31.9235 8.03869V6.65407H27.0806V4.92258H25.3466V0.0771484H23.962V4.92258H21.885V0.0771484H20.5004V4.92258H18.4235V0.0771484H17.0389V4.92258H14.962V0.0771484H13.5774V4.92258H11.5004V0.0771484H10.1158V4.92258H8.03889V0.0771484H6.65427V4.92258H4.92676V27.0764H27.0806V25.3464H31.9235V23.9618H27.0806V21.8848H31.9235V20.5002H27.0806V18.4233H31.9235V17.0387H27.0806V14.9618H31.9235V13.5771H27.0806V11.5002H31.9235V10.1156H27.0806V8.03869H31.9235ZM7.20325 8.18202L8.18222 7.20305L9.17234 8.19317L8.19337 9.17214L7.20325 8.18202ZM16.0004 23.2695H11.1543C10.009 23.2695 9.07735 22.3378 9.07735 21.1925V16.3464H10.462V21.1925C10.462 21.5742 10.7726 21.8848 11.1543 21.8848H16.0004V23.2695ZM20.8466 10.8079H15.7973V9.4233H20.8466C21.9919 9.4233 22.9235 10.3549 22.9235 11.5002V16.3464H21.5389V11.5002C21.5389 11.1186 21.2282 10.8079 20.8466 10.8079ZM23.8186 24.7974L22.8289 23.8076L23.8078 22.8286L24.7976 23.8184L23.8186 24.7974Z" fill="#49AF62"/>
<path d="M4.9233 6.6543H0.0771484V8.03891H4.9233V6.6543Z" fill="#49AF62"/>
<path d="M4.9233 10.1152H0.0771484V11.4998H4.9233V10.1152Z" fill="#49AF62"/>
<path d="M4.9233 13.5771H0.0771484V14.9618H4.9233V13.5771Z" fill="#49AF62"/>
<path d="M4.9233 17.0391H0.0771484V18.4237H4.9233V17.0391Z" fill="#49AF62"/>
<path d="M4.9233 20.5H0.0771484V21.8846H4.9233V20.5Z" fill="#49AF62"/>
<path d="M4.9233 23.9619H0.0771484V25.3465H4.9233V23.9619Z" fill="#49AF62"/>
<path d="M25.3465 27.0771H23.9619V31.9233H25.3465V27.0771Z" fill="#49AF62"/>
<path d="M21.8846 27.0771H20.5V31.9233H21.8846V27.0771Z" fill="#49AF62"/>
<path d="M18.4237 27.0771H17.0391V31.9233H18.4237V27.0771Z" fill="#49AF62"/>
<path d="M14.9618 27.0771H13.5771V31.9233H14.9618V27.0771Z" fill="#49AF62"/>
<path d="M11.4998 27.0771H10.1152V31.9233H11.4998V27.0771Z" fill="#49AF62"/>
<path d="M8.03891 27.0771H6.6543V31.9233H8.03891V27.0771Z" fill="#49AF62"/>
</svg>
