<svg width="36" height="36" viewBox="0 0 36 36" fill="none" xmlns="http://www.w3.org/2000/svg">
<path d="M28.125 11.2503H27.7819C27.6655 11.2503 27.552 11.2143 27.457 11.1471C27.362 11.0799 27.2902 10.9849 27.2514 10.8751C26.8981 9.87226 26.2531 8.99782 25.3994 8.36401C24.5456 7.7302 23.5219 7.36593 22.4597 7.31794C21.3974 7.26994 20.3451 7.54041 19.4376 8.09464C18.5302 8.64887 17.809 9.46159 17.3666 10.4285C17.3286 10.5111 17.2711 10.5832 17.1991 10.6387C17.1271 10.6942 17.0428 10.7314 16.9533 10.7471C16.8637 10.7629 16.7717 10.7567 16.6851 10.7292C16.5985 10.7016 16.5199 10.6534 16.4559 10.5888C15.7111 9.83565 14.7593 9.3208 13.7213 9.10969C12.6833 8.89858 11.6059 9.00072 10.6261 9.40314C9.64626 9.80557 8.80813 10.4901 8.21814 11.3699C7.62815 12.2496 7.31293 13.2848 7.3125 14.3441V16.3128C7.3125 16.462 7.25324 16.6051 7.14775 16.7106C7.04226 16.8161 6.89918 16.8753 6.75 16.8753H5.0625C4.31658 16.8753 3.60121 17.1717 3.07376 17.6991C2.54632 18.2265 2.25 18.9419 2.25 19.6878C2.25 20.4338 2.54632 21.1491 3.07376 21.6766C3.60121 22.204 4.31658 22.5003 5.0625 22.5003H9.06413C9.74723 20.6828 10.9683 19.1168 12.5645 18.0113C14.1606 16.9057 16.056 16.3132 17.9976 16.3127C19.9392 16.3122 21.8349 16.9038 23.4316 18.0085C25.0283 19.1133 26.2502 20.6787 26.9342 22.4958L28.125 22.5003C29.6168 22.5003 31.0476 21.9077 32.1025 20.8528C33.1574 19.7979 33.75 18.3672 33.75 16.8753C33.75 15.3835 33.1574 13.9528 32.1025 12.8979C31.0476 11.843 29.6168 11.2503 28.125 11.2503ZM31.5 18.5628H30.375V17.4378H31.5V18.5628ZM30.375 16.3128C30.375 15.7161 30.1379 15.1438 29.716 14.7218C29.294 14.2999 28.7217 14.0628 28.125 14.0628V12.9378C29.0198 12.9387 29.8778 13.2946 30.5105 13.9273C31.1432 14.5601 31.4991 15.418 31.5 16.3128H30.375Z" fill="#49AF62"/>
<path d="M18 17.4375C15.8604 17.4402 13.8015 18.2546 12.2389 19.7162C10.6764 21.1778 9.72649 23.1778 9.58105 25.3125H10.7061C10.8468 23.4752 11.6761 21.7588 13.0279 20.5066C14.3797 19.2544 16.1545 18.5587 17.9972 18.5587C19.8399 18.5587 21.6146 19.2544 22.9664 20.5066C24.3183 21.7588 25.1475 23.4752 25.2883 25.3125H26.4133C26.2679 23.1788 25.3189 21.1796 23.7575 19.7181C22.1961 18.2567 20.1386 17.4417 18 17.4375Z" fill="#49AF62"/>
<path d="M12.9375 25.3125H11.25V26.4375H12.9375V25.3125Z" fill="#49AF62"/>
<path d="M24.75 25.3125H23.0625V26.4375H24.75V25.3125Z" fill="#49AF62"/>
<path d="M13.6842 20.6469L12.8887 21.4424L13.9813 22.535L14.7768 21.7395L13.6842 20.6469Z" fill="#49AF62"/>
<path d="M22.3748 20.7051L21.3232 21.7568L22.1188 22.5522L23.1704 21.5005L22.3748 20.7051Z" fill="#49AF62"/>
<path d="M18.5625 19.125H17.4375V20.7889H18.5625V19.125Z" fill="#49AF62"/>
<path d="M20.882 23.7178L20.0867 22.9219L18.6753 24.3315C18.3041 24.1629 17.885 24.1313 17.4927 24.2424C17.1003 24.3535 16.76 24.6 16.5323 24.9383C16.3045 25.2765 16.204 25.6845 16.2486 26.0899C16.2933 26.4952 16.4801 26.8716 16.776 27.1522C17.0719 27.4328 17.4576 27.5994 17.8648 27.6225C18.2719 27.6456 18.674 27.5236 18.9997 27.2783C19.3254 27.0329 19.5536 26.68 19.6438 26.2823C19.7339 25.8847 19.6802 25.4679 19.4921 25.1061L20.882 23.7178Z" fill="#49AF62"/>
<path d="M12.9375 28.6875H11.8125V29.8125H12.9375V28.6875Z" fill="#49AF62"/>
<path d="M15.1875 28.6875H14.0625V29.8125H15.1875V28.6875Z" fill="#49AF62"/>
<path d="M17.4375 28.6875H16.3125V29.8125H17.4375V28.6875Z" fill="#49AF62"/>
<path d="M19.6875 28.6875H18.5625V29.8125H19.6875V28.6875Z" fill="#49AF62"/>
<path d="M21.9375 28.6875H20.8125V29.8125H21.9375V28.6875Z" fill="#49AF62"/>
<path d="M24.1875 28.6875H23.0625V29.8125H24.1875V28.6875Z" fill="#49AF62"/>
</svg>
