<svg width="36" height="36" viewBox="0 0 36 36" fill="none" xmlns="http://www.w3.org/2000/svg">
<path d="M1.38477 13.8457V27.6919H4.154V23.5365H5.53861V27.6919H7.07704V23.5365H8.46165V27.6919H10.0001V23.5365H11.3847V27.6919H12.9231V23.5365H14.3077V27.6919H15.8462V23.5365H17.2308V27.6919H18.7692V23.5365H20.1538V27.6919H21.6926V23.5365H23.0772V27.6919H24.6156V23.5365H26.0002V27.6919H27.5387V23.5365H28.9233V27.6919H30.4617V23.5365H31.8463V27.6919H34.6155V13.8457H1.38477ZM8.30784 20.7688H4.154V15.2303H8.30784V20.7688ZM14.0263 20.7688H9.87247V15.2303H14.0263V20.7688ZM20.0771 20.7688H15.9232V15.2303H20.0771V20.7688ZM25.9548 20.7688H21.8009V15.2303H25.9548V20.7688ZM31.8463 20.7688H27.6925V15.2303H31.8463V20.7688Z" fill="#49AF62"/>
<path d="M1.38477 22.1533V8.30717H4.154V12.4625H5.53861V8.30717H7.07704V12.4625H8.46165V8.30717H10.0001V12.4625H11.3847V8.30717H12.9231V12.4625H14.3077V8.30717H15.8462V12.4625H17.2308V8.30717H18.7692V12.4625H20.1538V8.30717H21.6926V12.4625H23.0772V8.30717H24.6156V12.4625H26.0002V8.30717H27.5387V12.4625H28.9233V8.30717H30.4617V12.4625H31.8463V8.30717H34.6155V22.1533H1.38477ZM8.30784 15.2302H4.154V20.7687H8.30784V15.2302ZM14.0263 15.2302H9.87247V20.7687H14.0263V15.2302ZM20.0771 15.2302H15.9232V20.7687H20.0771V15.2302ZM25.9548 15.2302H21.8009V20.7687H25.9548V15.2302ZM31.8463 15.2302H27.6925V20.7687H31.8463V15.2302Z" fill="#49AF62"/>
</svg>
