<svg width="36" height="36" viewBox="0 0 36 36" fill="none" xmlns="http://www.w3.org/2000/svg">
<path d="M13.2903 15.9219H6.47403C6.15722 15.9219 5.90039 16.1787 5.90039 16.4955C5.90039 16.8123 6.15722 17.0692 6.47403 17.0692H13.2903C13.6071 17.0692 13.8639 16.8123 13.8639 16.4955C13.8639 16.1787 13.6071 15.9219 13.2903 15.9219Z" fill="#49AF62"/>
<path d="M13.8639 27.9483C13.8639 27.9483 13.8639 27.9482 13.8638 27.9482H6.47403C6.15722 27.9482 5.90039 28.2051 5.90039 28.5219C5.90039 28.8387 6.15722 29.0955 6.47403 29.0955H13.3372C13.6281 29.0955 13.8639 28.8597 13.8639 28.5688V28.0421C13.8639 28.0421 13.8639 28.0421 13.8639 28.0421C13.8639 28.0421 13.8639 28.0421 13.8639 28.0421V27.9484C13.8639 27.9484 13.8639 27.9484 13.8639 27.9484C13.8639 27.9484 13.8639 27.9484 13.8639 27.9484V27.9483Z" fill="#49AF62"/>
<path d="M13.2903 21.9346H6.47403C6.15722 21.9346 5.90039 22.1914 5.90039 22.5082C5.90039 22.825 6.15722 23.0819 6.47403 23.0819H13.2903C13.6071 23.0819 13.8639 22.825 13.8639 22.5082C13.8639 22.1914 13.6071 21.9346 13.2903 21.9346Z" fill="#49AF62"/>
<path d="M15.4977 8.69434H4.26627C3.56687 8.69434 3 9.2612 3 9.96061V31.4641C3 32.163 3.56687 32.7303 4.26627 32.7303H15.4977C16.1971 32.7303 16.764 32.163 16.764 31.4641V9.96061C16.764 9.2612 16.1971 8.69434 15.4977 8.69434ZM8.10414 11.2743H9.35438C9.64575 11.2743 9.88199 11.5106 9.88199 11.802C9.88199 12.0934 9.64575 12.3296 9.35438 12.3296H8.10414C7.81277 12.3296 7.57653 12.0934 7.57653 11.802C7.57653 11.5105 7.81277 11.2743 8.10414 11.2743ZM5.37266 11.2743H6.20275C6.49412 11.2743 6.73036 11.5106 6.73036 11.802C6.73036 12.0934 6.49412 12.3296 6.20275 12.3296H5.37266C5.08125 12.3296 4.845 12.0934 4.845 11.802C4.845 11.5105 5.08125 11.2743 5.37266 11.2743ZM14.919 29.4823C14.919 29.8512 14.6199 30.1503 14.2509 30.1503H5.51309C5.1441 30.1503 4.845 29.8512 4.845 29.4823V27.5606C4.845 27.1917 5.1441 26.8926 5.51309 26.8926H14.2509C14.6199 26.8926 14.919 27.1917 14.919 27.5606V29.4823ZM14.919 23.4692C14.919 23.8382 14.6199 24.1373 14.2509 24.1373H5.51309C5.1441 24.1373 4.845 23.8382 4.845 23.4692V21.5476C4.845 21.1786 5.1441 20.8795 5.51309 20.8795H14.2509C14.6199 20.8795 14.919 21.1786 14.919 21.5476V23.4692ZM14.919 17.4561C14.919 17.8251 14.6199 18.1242 14.2509 18.1242H5.51309C5.1441 18.1242 4.845 17.8251 4.845 17.4561V15.5345C4.845 15.1655 5.1441 14.8664 5.51309 14.8664H14.2509C14.6199 14.8664 14.919 15.1655 14.919 15.5345V17.4561Z" fill="#49AF62"/>
<path d="M7.53906 7.5C7.53906 6.94772 7.98678 6.5 8.53906 6.5H11.5391C12.0913 6.5 12.5391 6.94772 12.5391 7.5V9.5H7.53906V7.5Z" fill="#49AF62"/>
<rect x="21.6689" y="13.6328" width="8.11714" height="0.811714" rx="0.405857" fill="#49AF62"/>
<rect x="21.6689" y="24.1855" width="8.11714" height="0.811714" rx="0.405857" fill="#49AF62"/>
<path fill-rule="evenodd" clip-rule="evenodd" d="M19.2344 12.1982C19.2344 11.646 19.6821 11.1982 20.2344 11.1982H31.2218C31.7741 11.1982 32.2218 11.646 32.2218 12.1982V17.5037C32.2218 18.056 31.7741 18.5037 31.2218 18.5037H20.2344C19.6821 18.5037 19.2344 18.056 19.2344 17.5037V12.1982ZM20.8577 13.8219C20.8577 13.2697 21.3054 12.8219 21.8577 12.8219H29.5983C30.1506 12.8219 30.5983 13.2697 30.5983 13.8219V14.2571C30.5983 14.8094 30.1506 15.2571 29.5983 15.2571H21.8577C21.3054 15.2571 20.8577 14.8094 20.8577 14.2571V13.8219ZM22.0751 16.0687C21.851 16.0687 21.6693 16.2504 21.6693 16.4746C21.6693 16.6987 21.851 16.8804 22.0751 16.8804H29.3806C29.6047 16.8804 29.7864 16.6987 29.7864 16.4746C29.7864 16.2504 29.6047 16.0687 29.3806 16.0687H22.0751Z" fill="#49AF62"/>
<path fill-rule="evenodd" clip-rule="evenodd" d="M19.2344 22.75C19.2344 22.1977 19.6821 21.75 20.2344 21.75H31.2218C31.7741 21.75 32.2218 22.1977 32.2218 22.75V28.0554C32.2218 28.6077 31.7741 29.0554 31.2218 29.0554H20.2344C19.6821 29.0554 19.2344 28.6077 19.2344 28.0554V22.75ZM20.8577 24.3735C20.8577 23.8212 21.3054 23.3735 21.8577 23.3735H29.5983C30.1506 23.3735 30.5983 23.8212 30.5983 24.3735V24.8086C30.5983 25.3609 30.1506 25.8086 29.5983 25.8086H21.8577C21.3054 25.8086 20.8577 25.3609 20.8577 24.8086V24.3735ZM22.0751 26.6204C21.851 26.6204 21.6693 26.8021 21.6693 27.0263C21.6693 27.2504 21.851 27.4321 22.0751 27.4321H29.3806C29.6047 27.4321 29.7864 27.2504 29.7864 27.0263C29.7864 26.8021 29.6047 26.6204 29.3806 26.6204H22.0751Z" fill="#49AF62"/>
<path fill-rule="evenodd" clip-rule="evenodd" d="M11.0381 4C10.7619 4 10.5381 4.22386 10.5381 4.5V8.53486H9.53809V4.5C9.53809 3.67157 10.2097 3 11.0381 3L25.0381 3.01652C25.8665 3.01652 26.5381 3.68809 26.5381 4.51652V12H25.5381V4.51652C25.5381 4.24038 25.3142 4.01652 25.0381 4.01652L11.0381 4Z" fill="#49AF62"/>
<path fill-rule="evenodd" clip-rule="evenodd" d="M25.5391 22.3624V17.5H26.5391V22.3624H25.5391Z" fill="#49AF62"/>
</svg>
