<svg width="36" height="36" viewBox="0 0 36 36" fill="none" xmlns="http://www.w3.org/2000/svg">
<path fill-rule="evenodd" clip-rule="evenodd" d="M3.38281 22.9283C2.72687 23.2746 2.31641 23.9553 2.31641 24.6971V27.6731C2.31641 28.4148 2.72687 29.0956 3.38281 29.4418L8 31.8789H19.398V20.4912H8L3.38281 22.9283ZM15.6016 22.2051C14.7731 22.2051 14.1016 22.8767 14.1016 23.7051V28.6643C14.1016 29.4928 14.7732 30.1644 15.6016 30.1643L17.7648 30.1642L17.7648 29.1642L15.6016 29.1643C15.3254 29.1644 15.1016 28.9405 15.1016 28.6643V23.7051C15.1016 23.4289 15.3254 23.2051 15.6016 23.2051H16.9482V27.4499H17.9482V22.3887H17.1322V22.2051H15.6016ZM19.3984 23.0213H26.6107C26.6456 23.0213 26.6739 23.0496 26.6739 23.0846V24.6029H20.6637V25.2356H29.7739C29.8089 25.2356 29.8372 25.2639 29.8372 25.2989V26.7539C29.8372 26.7889 29.8089 26.8172 29.7739 26.8172H19.3984V27.4499H28.2556V29.2846C28.2556 29.3195 28.2272 29.3478 28.1923 29.3478H19.3984V29.9805H28.1923C28.5766 29.9805 28.8882 29.6689 28.8882 29.2846V27.4499H29.7739C30.1583 27.4499 30.4698 27.1383 30.4698 26.7539V26.1846H32.3045C32.6889 26.1846 33.0004 25.873 33.0004 25.4886V24.3499C33.0004 23.9655 32.6889 23.654 32.3045 23.654H27.3066V23.0846C27.3066 22.7002 26.995 22.3887 26.6107 22.3887H19.3984V23.0213ZM29.7739 24.6029H27.3066V24.2866H32.3045C32.3395 24.2866 32.3678 24.3149 32.3678 24.3499V25.4886C32.3678 25.5236 32.3395 25.5519 32.3045 25.5519H30.4698V25.2989C30.4698 24.9145 30.1583 24.6029 29.7739 24.6029Z" fill="#49AF62"/>
<path fill-rule="evenodd" clip-rule="evenodd" d="M31.6168 7.4371C32.2727 7.78334 32.6831 8.46412 32.6831 9.20579V12.1819C32.6831 12.9236 32.2727 13.6044 31.6168 13.9506L27 16.3877H15.6015V14.4903H6.80819C6.42385 14.4903 6.11228 14.1787 6.11228 13.7943V11.9596H5.22656C4.84222 11.9596 4.53065 11.6481 4.53065 11.2637V10.6943H2.69596C2.31161 10.6943 2.00004 10.3828 2.00004 9.99841V8.85964C2.00004 8.47529 2.31161 8.16372 2.69596 8.16372H7.69391V7.59435C7.69391 7.21001 8.00548 6.89844 8.38982 6.89844H15.6015V5H27L31.6168 7.4371ZM15.6015 7.53109V11.327H5.22656C5.19162 11.327 5.1633 11.2987 5.1633 11.2637V9.80862C5.1633 9.77368 5.19162 9.74535 5.22656 9.74535H14.3367V9.1127H8.32656V7.59435C8.32656 7.55941 8.35488 7.53109 8.38982 7.53109H15.6015ZM15.6015 11.9596H6.74493V13.7943C6.74493 13.8293 6.77325 13.8576 6.80819 13.8576H15.6015V11.9596ZM19.3975 6.7146C20.2259 6.7146 20.8975 7.38617 20.8975 8.2146V13.1739C20.8975 14.0023 20.2258 14.6739 19.3974 14.6739L17.2342 14.6738L17.2342 13.6738L19.3974 13.6739C19.6736 13.6739 19.8975 13.45 19.8975 13.1739V8.2146C19.8975 7.93846 19.6736 7.7146 19.3975 7.7146H18.0498V11.9597H17.0498V6.89844H17.8669V6.7146H19.3975ZM5.22656 9.1127H7.69391V8.79637H2.69596C2.66102 8.79637 2.63269 8.8247 2.63269 8.85964V9.99841C2.63269 10.0334 2.66102 10.0617 2.69596 10.0617H4.53065V9.80862C4.53065 9.42427 4.84222 9.1127 5.22656 9.1127Z" fill="#49AF62"/>
</svg>
