<svg width="743" height="499" viewBox="0 0 743 499" fill="none" xmlns="http://www.w3.org/2000/svg">
<g opacity="0.5">
<path d="M201.254 332.283L367.405 391.586L565.382 336.719L397.593 276.483L201.254 332.283Z" fill="#0F9D87"/>
</g>
<g opacity="0.2">
<path d="M138.771 453.923L263.034 498.284L410.932 457.192L285.499 412.132L138.771 453.923Z" fill="#0F9D87"/>
</g>
<g opacity="0.2">
<path d="M472.478 421.471L576.381 458.593L699.941 424.039L595.102 386.449L472.478 421.471Z" fill="#0F9D87"/>
</g>
<g opacity="0.1">
<path d="M-9.15527e-05 294.227L166.151 353.53L364.128 298.43L196.339 238.193L-9.15527e-05 294.227Z" fill="#0F9D87"/>
</g>
<g opacity="0.2">
<path d="M131.517 377.344L297.668 436.88L495.645 381.78L327.856 321.544L131.517 377.344Z" fill="#0F9D87"/>
</g>
<g opacity="0.5">
<path d="M262.098 373.141L479.966 450.888L739.256 378.745L519.515 300.064L262.098 373.141Z" fill="#0F9D87"/>
</g>
<g opacity="0.1">
<path d="M384.722 294.461L539.874 349.794L724.513 298.43L567.956 242.396L384.722 294.461Z" fill="#0F9D87"/>
</g>
<g opacity="0.1">
<path d="M632.545 357.032L682.858 375.009L743 358.433L691.985 339.988L632.545 357.032Z" fill="#0F9D87"/>
</g>
<path d="M208.742 334.618V349.56L313.113 386.683L312.879 371.507L208.742 334.618Z" fill="#E6E7E8"/>
<path d="M312.879 371.507L313.113 386.683L437.141 352.129V336.719L312.879 371.507Z" fill="#D1D3D4"/>
<path d="M208.742 334.618L312.879 371.507L437.141 336.719L330.664 299.364L208.742 334.618Z" fill="white"/>
<path d="M329.494 262.708L420.526 295.628L421.462 329.015L313.113 359.133L222.081 326.213L221.145 292.826L329.494 262.708Z" fill="white"/>
<path d="M221.145 292.826L222.081 326.213L313.113 359.133L312.177 325.746L221.145 292.826Z" fill="#E6E7E8"/>
<path d="M312.177 325.746L313.113 359.133L421.462 329.015L420.526 295.628L312.177 325.746Z" fill="#D1D3D4"/>
<path d="M221.145 292.826L312.177 325.746L420.526 295.628L329.494 262.708L221.145 292.826Z" fill="white"/>
<path d="M410.23 313.839V318.508L350.79 335.085L350.556 330.416L410.23 313.839Z" fill="#939598"/>
<path d="M337.451 338.821L332.537 340.222V335.552L337.451 334.151V338.821Z" fill="black"/>
<path d="M312.645 341.155L329.494 336.486V340.922L312.645 345.591V341.155Z" fill="#939598"/>
<path d="M340.493 333.217L345.875 331.817V336.486L340.493 337.887V333.217Z" fill="#0F9D87"/>
<path d="M329.494 209.943L420.526 242.863L421.462 276.25L313.113 306.368L222.081 273.448L221.145 240.061L329.494 209.943Z" fill="white"/>
<path d="M221.145 240.061L222.081 273.448L313.113 306.368L312.177 272.981L221.145 240.061Z" fill="#E6E7E8"/>
<path d="M312.177 272.981L313.113 306.368L421.462 276.25L420.526 242.863L312.177 272.981Z" fill="#D1D3D4"/>
<path d="M221.145 240.061L312.177 272.981L420.526 242.863L329.494 209.943L221.145 240.061Z" fill="white"/>
<path d="M410.23 260.84V265.51L350.79 282.086L350.556 277.417L410.23 260.84Z" fill="#939598"/>
<path d="M337.451 286.055L332.537 287.223V282.553L337.451 281.386V286.055Z" fill="black"/>
<path d="M312.645 288.157L329.494 283.487V288.157L312.645 292.826V288.157Z" fill="#939598"/>
<path d="M340.493 280.452L345.875 279.051V283.487L340.493 285.122V280.452Z" fill="#0F9D87"/>
<path d="M329.494 156.944L420.526 189.864L421.462 223.485L313.113 253.603L222.081 220.449L221.145 187.063L329.494 156.944Z" fill="white"/>
<path d="M221.145 187.063L222.081 220.449L313.113 253.603L312.177 219.982L221.145 187.063Z" fill="#E6E7E8"/>
<path d="M312.177 219.982L313.113 253.603L421.462 223.485L420.526 189.864L312.177 219.982Z" fill="#D1D3D4"/>
<path d="M221.145 187.063L312.177 219.982L420.526 189.864L329.494 156.944L221.145 187.063Z" fill="white"/>
<path d="M410.23 208.075V212.745L350.79 229.321L350.556 224.652L410.23 208.075Z" fill="#939598"/>
<path d="M337.451 233.057L332.537 234.458V229.788L337.451 228.388V233.057Z" fill="black"/>
<path d="M312.645 235.392L329.494 230.722V235.392L312.645 240.061V235.392Z" fill="#939598"/>
<path d="M340.493 227.454L345.875 226.053V230.722L340.493 232.123V227.454Z" fill="#0F9D87"/>
<path d="M329.494 104.179L420.526 137.099L421.462 170.486L313.113 200.604L222.081 167.684L221.145 134.297L329.494 104.179Z" fill="white"/>
<path d="M221.145 134.297L222.081 167.684L313.113 200.604L312.177 167.217L221.145 134.297Z" fill="#E6E7E8"/>
<path d="M312.177 167.217L313.113 200.604L421.462 170.486L420.526 137.099L312.177 167.217Z" fill="#D1D3D4"/>
<path d="M221.145 134.297L312.177 167.217L420.526 137.099L329.494 104.179L221.145 134.297Z" fill="white"/>
<path d="M410.23 155.31V159.746L350.79 176.323L350.556 171.653L410.23 155.31Z" fill="#939598"/>
<path d="M337.451 180.292L332.537 181.693V177.023L337.451 175.622V180.292Z" fill="black"/>
<path d="M312.645 182.393L329.494 177.724V182.393L312.645 187.063V182.393Z" fill="#939598"/>
<path d="M340.493 174.689L345.875 173.288V177.957L340.493 179.358V174.689Z" fill="#0F9D87"/>
<g opacity="0.2">
<path d="M207.806 106.748L208.742 339.288L312.879 377.11L311.943 144.57L207.806 106.748Z" fill="url(#paint0_linear_80_210)"/>
</g>
<g opacity="0.3">
<path d="M311.943 144.57L312.879 377.11L436.907 342.556L435.971 110.016L311.943 144.57Z" fill="url(#paint1_linear_80_210)"/>
</g>
<path d="M207.572 95.0739L207.806 110.016L311.943 147.839V132.196L207.572 95.0739Z" fill="#E6E7E8"/>
<path d="M311.943 132.196V147.839L435.971 113.285V97.8755L311.943 132.196Z" fill="#D1D3D4"/>
<path d="M207.572 95.0738L311.943 132.196L435.971 97.8755L330.664 60.0527L207.572 95.0738Z" fill="white"/>
<path d="M383.552 95.7743L397.827 100.911L414.91 96.2413L400.401 91.1049L383.552 95.7743Z" fill="#E6E7E8"/>
<path d="M360.618 86.9023L374.893 92.0387L392.21 87.3692L377.701 82.2328L360.618 86.9023Z" fill="#E6E7E8"/>
<g opacity="0.7">
<path d="M322.24 17.794C303.752 22.4635 288.775 45.3439 289.009 69.1583C289.009 92.9726 303.986 108.382 322.474 103.712C340.961 99.0429 355.938 76.1625 355.704 52.3481C355.704 28.5338 340.727 13.1245 322.24 17.794Z" fill="white"/>
<path d="M323.176 72.4269C320.368 73.1273 318.027 76.6294 318.027 80.365C318.027 84.1006 320.368 86.4353 323.176 85.7349C325.984 85.0345 328.324 81.5324 328.324 77.7968C328.324 74.0612 325.984 71.7265 323.176 72.4269ZM323.878 39.2736C331.834 37.4058 339.323 39.2736 345.407 43.4761L341.195 52.5816C336.281 49.0795 330.43 47.6786 323.878 49.0795C323.644 49.0795 323.41 49.0795 323.176 49.313C316.389 50.9473 309.837 55.6167 304.922 61.9205L300.944 54.6829C307.263 46.9782 314.985 41.6083 323.176 39.507C323.176 39.2736 323.644 39.2736 323.878 39.2736ZM323.644 55.1498C329.26 53.9824 334.174 55.1498 338.387 58.185L334.174 67.2905C331.366 64.9557 327.622 64.0218 323.644 64.9557C323.41 64.9557 323.41 64.9557 323.176 64.9557C318.729 66.1231 314.517 69.1582 311.475 73.5942L307.497 66.3566C311.709 60.7532 317.325 56.7841 323.176 55.1498C323.176 55.3833 323.41 55.1498 323.644 55.1498Z" fill="url(#paint2_linear_80_210)"/>
</g>
<path d="M346.811 411.665C344.705 412.132 343.067 414.7 343.067 417.501C343.067 420.07 344.705 421.937 346.811 421.47C348.917 421.004 350.555 418.435 350.555 415.634C350.555 412.832 348.917 411.198 346.811 411.665ZM347.513 387.617C353.364 386.449 358.746 387.617 362.958 390.652L359.916 397.189C356.406 394.621 352.194 393.687 347.513 394.621C347.279 394.621 347.279 394.621 347.045 394.854C342.131 396.022 337.451 399.524 333.94 403.96L331.132 398.823C335.578 393.454 341.195 389.485 347.279 387.85C347.045 387.85 347.279 387.617 347.513 387.617ZM347.279 399.29C351.257 398.357 355.002 399.29 357.81 401.392L354.768 407.929C352.662 406.295 350.087 405.594 347.045 406.295H346.811C343.535 406.995 340.727 409.33 338.387 412.598L335.344 407.229C338.387 403.26 342.365 400.224 346.577 399.29C347.045 399.29 347.045 399.29 347.279 399.29Z" fill="white"/>
<path d="M481.37 149.24C478.094 150.174 475.286 154.376 475.286 158.579L475.52 246.832C475.52 251.034 478.328 254.07 481.604 253.136L510.856 245.898C514.132 244.964 516.941 240.762 516.941 236.559L516.707 148.306C516.707 144.103 513.898 141.068 510.622 142.002L507.58 142.702C507.58 142.936 507.58 142.936 507.58 142.936C507.58 145.037 506.176 147.138 504.538 147.605L487.221 151.808C485.583 152.275 484.178 150.874 484.178 148.773C484.178 148.539 484.178 148.539 484.178 148.306L481.37 149.24ZM503.368 199.203L485.583 188.697L503.368 169.319V199.203ZM497.517 246.131C496.113 246.365 495.177 245.431 495.177 243.563C495.177 241.929 496.113 240.295 497.517 239.828C498.921 239.594 499.858 240.528 499.858 242.396C499.858 244.264 498.687 245.898 497.517 246.131Z" fill="#0F9D87"/>
<path d="M490.497 148.072C490.263 148.072 490.029 148.539 490.029 148.773C490.029 149.24 490.263 149.473 490.497 149.24L501.496 146.438C501.73 146.438 501.964 145.971 501.964 145.738C501.964 145.271 501.73 145.037 501.496 145.271L490.497 148.072Z" fill="#8B8B8C"/>
<path d="M481.37 147.605C477.392 148.539 474.116 153.676 474.116 158.812L474.35 247.065C474.35 252.202 477.626 255.704 481.604 254.537L510.856 247.299C514.835 246.365 518.111 241.229 518.111 236.092L517.877 147.839C517.877 142.703 514.601 139.2 510.622 140.368L481.37 147.605ZM475.52 246.832L475.286 158.579C475.286 154.376 478.094 150.174 481.37 149.24L484.413 148.539C484.413 148.773 484.413 148.773 484.413 149.006C484.413 151.108 485.817 152.508 487.455 152.041L504.772 147.839C506.41 147.372 507.814 145.271 507.814 143.169C507.814 142.936 507.814 142.936 507.814 142.936L510.856 142.236C514.133 141.302 516.941 144.337 516.941 148.539L517.175 236.793C517.175 240.995 514.367 245.198 511.09 246.132L481.838 253.369C478.094 253.836 475.52 251.034 475.52 246.832ZM501.496 145.504C501.73 145.504 501.964 145.738 501.964 145.971C501.964 146.438 501.73 146.672 501.496 146.672L490.497 149.473C490.263 149.473 490.029 149.24 490.029 149.006C490.029 148.539 490.263 148.306 490.497 148.306L501.496 145.504Z" fill="white"/>
<path d="M503.368 169.552L485.583 188.93L503.368 199.203V169.552Z" fill="white"/>
<path opacity="0.3" d="M475.286 199.904L516.005 240.528C516.473 239.361 516.941 237.96 516.941 236.326V212.511L503.368 198.97V199.203L485.583 188.697L489.327 184.728L475.52 170.953L475.286 199.904ZM503.368 182.16V169.552L497.283 176.089L475.988 154.843C476.924 152.042 479.03 149.707 481.37 149.006L484.412 148.306C484.412 148.539 484.412 148.539 484.412 148.773C484.412 150.874 485.817 152.275 487.455 151.808L504.772 147.606C506.41 147.139 507.814 145.037 507.814 142.936C507.814 142.703 507.814 142.703 507.814 142.703L510.856 142.002C511.558 141.769 512.494 141.769 513.196 142.002L516.239 145.037C516.473 145.971 516.707 146.905 516.707 148.072V195.701L503.368 182.16Z" fill="white"/>
<path d="M455.161 327.847V382.714L528.875 364.269L528.641 309.403L455.161 327.847Z" fill="#0F9D87"/>
<path d="M457.735 322.011C454.224 322.945 451.416 327.381 451.416 331.817V381.08C451.416 385.516 454.224 388.551 457.969 387.85L530.514 369.873C534.024 368.939 536.832 364.503 536.832 360.067V310.804C536.832 306.134 534.024 303.333 530.28 304.033L457.735 322.011ZM455.161 382.714V327.847L528.641 309.403V364.269L455.161 382.714ZM532.854 339.054C531.45 339.521 530.28 338.12 530.28 336.486C530.28 334.618 531.45 332.984 532.854 332.517C534.258 332.283 535.428 333.451 535.428 335.085C535.428 336.953 534.258 338.821 532.854 339.054Z" fill="white"/>
<path opacity="0.3" d="M499.858 371.507L523.025 365.67L479.03 321.777L455.863 327.614L499.858 371.507ZM528.875 354.697L492.369 318.275L528.641 309.17L528.875 354.697Z" fill="white"/>
<path d="M228.165 372.207C223.251 373.375 219.039 378.978 217.869 385.282C217.635 385.282 217.167 385.282 216.933 385.515C212.486 386.683 208.742 392.286 208.742 398.123C208.742 403.96 212.486 407.695 216.933 406.528C218.337 406.295 219.507 405.594 220.443 404.66C221.613 405.127 222.783 405.127 223.953 404.894C226.059 404.427 228.165 402.793 229.569 400.691C230.974 402.092 233.08 402.793 235.186 402.092C239.632 400.925 243.376 395.321 243.376 389.485C243.376 385.049 241.27 381.78 238.228 381.079C237.76 374.776 233.314 371.04 228.165 372.207Z" fill="white"/>
<path d="M187.447 66.3566C182.532 67.524 178.32 73.1274 177.15 79.4312C176.916 79.4312 176.448 79.4312 176.214 79.6646C171.768 80.832 168.023 86.4354 168.023 92.2722C168.023 98.1091 171.768 101.845 176.214 100.677C177.618 100.444 178.788 99.7434 179.724 98.8095C180.894 99.2764 182.064 99.2764 183.234 99.043C185.34 98.576 187.447 96.9417 188.851 94.8404C190.255 96.2413 192.361 96.9417 194.467 96.2413C198.913 95.0739 202.658 89.4705 202.658 83.6337C202.658 79.1977 200.551 75.929 197.509 75.2286C197.041 68.9248 192.829 65.1892 187.447 66.3566Z" fill="white"/>
<path d="M472.478 50.9473C467.095 52.3482 462.415 58.4185 461.245 65.1892C461.011 65.1892 460.543 65.1892 460.309 65.4227C455.395 66.5901 451.416 72.8939 451.416 79.1977C451.416 85.5015 455.395 89.704 460.309 88.5366C461.713 88.0697 463.117 87.3693 464.287 86.4354C465.457 86.9023 466.861 86.9023 468.265 86.6689C470.606 85.9684 472.712 84.3341 474.35 81.9994C475.988 83.6337 478.094 84.1006 480.434 83.6337C485.349 82.4663 489.327 76.1625 489.327 69.8587C489.327 65.1892 486.987 61.4537 483.711 60.5198C482.774 53.5155 478.094 49.5465 472.478 50.9473Z" fill="white"/>
<path d="M224.421 47.4452C222.315 47.9121 220.677 50.4804 220.677 53.2821C220.677 55.8503 222.315 57.7181 224.421 57.2511C226.527 56.7842 228.165 54.2159 228.165 51.4143C228.165 48.6126 226.527 46.9783 224.421 47.4452ZM224.889 23.3974C230.739 22.23 236.122 23.3974 240.334 26.4325L237.292 32.9698C233.782 30.4016 229.569 29.4677 224.889 30.4016C224.655 30.4016 224.655 30.4016 224.421 30.6351C219.507 31.8024 214.826 35.3045 211.316 39.7406L208.508 34.6041C212.954 29.2342 218.571 25.2652 224.655 23.6308C224.421 23.6308 224.655 23.3974 224.889 23.3974ZM224.889 35.0711C228.867 34.1372 232.612 35.0711 235.42 37.1723L232.378 43.7096C230.271 42.0753 227.697 41.3749 224.655 42.0753H224.421C221.145 42.7757 218.337 45.1105 215.996 48.3791L212.954 43.0092C215.996 39.0401 219.975 36.005 224.187 35.0711C224.421 35.0711 224.655 35.0711 224.889 35.0711Z" fill="white"/>
<path d="M420.526 45.5774L415.846 46.7447L423.334 56.3172L430.589 43.0092L425.909 44.41V38.1062L420.526 39.507V45.5774Z" fill="white"/>
<path d="M182.298 202.705L177.384 203.873L184.872 213.212L192.361 200.137L187.447 201.305V195.234L182.298 196.635V202.705Z" fill="white"/>
<path d="M456.331 200.838L461.011 199.67L453.522 190.098L446.034 203.406L450.948 202.238V208.309L456.331 206.908V200.838Z" fill="white"/>
<path d="M269.118 11.0232L273.798 9.85588L266.31 0.283447L258.821 13.5915L263.736 12.1906V18.2609L269.118 17.0936V11.0232Z" fill="white"/>
<path d="M181.362 247.299C179.958 247.766 178.788 249.4 178.788 251.268V301.231V326.447L195.871 300.298L249.929 286.756C251.333 286.523 252.503 284.655 252.503 282.787V232.824C252.503 230.956 251.333 229.788 249.929 230.255L181.362 247.299ZM211.082 273.681V262.008L220.209 259.673V271.347L211.082 273.681ZM197.509 276.95V265.276L206.636 262.942V274.615L197.509 276.95ZM224.655 270.179V258.506L233.782 256.171V267.845L224.655 270.179Z" fill="#0F9D87"/>
<path d="M220.209 271.347V259.673L211.082 261.774V273.681L220.209 271.347Z" fill="white"/>
<g opacity="0.3">
<path d="M197.509 265.276V276.016L178.788 257.338V251.268C178.788 249.4 179.958 247.766 181.362 247.299L194.467 244.03L212.018 261.541L211.082 261.774V273.448L220.209 271.113V269.712L239.632 289.091L216.465 294.928L198.211 276.717L206.636 274.615V262.942L197.509 265.276Z" fill="white"/>
<path d="M233.782 256.171L225.357 258.272L207.806 240.762L248.057 230.722L252.503 235.158V282.787C252.503 283.487 252.269 284.188 252.035 284.655L233.782 266.444V256.171Z" fill="white"/>
</g>
<defs>
<linearGradient id="paint0_linear_80_210" x1="354.374" y1="335.708" x2="166.721" y2="147.62" gradientUnits="userSpaceOnUse">
<stop stop-color="#1A1A1A"/>
<stop offset="0.8878" stop-color="#0F9D87"/>
</linearGradient>
<linearGradient id="paint1_linear_80_210" x1="455.366" y1="324.219" x2="293.923" y2="162.402" gradientUnits="userSpaceOnUse">
<stop stop-color="#1A1A1A"/>
<stop offset="0.8878" stop-color="#0F9D87"/>
</linearGradient>
<linearGradient id="paint2_linear_80_210" x1="339.155" y1="70.8418" x2="311.614" y2="43.2367" gradientUnits="userSpaceOnUse">
<stop stop-color="#1A1A1A"/>
<stop offset="1" stop-color="#0F9D87"/>
</linearGradient>
</defs>
</svg>
