<svg width="112" height="186" viewBox="0 0 112 186" fill="none" xmlns="http://www.w3.org/2000/svg">
<path d="M56 186C53.4925 186 50.9851 185.443 49.1741 184.329L2.92537 157.601C0.975124 156.488 0 154.956 0 153.425C0 151.754 1.11443 150.362 2.92537 149.249L49.0348 122.52C52.796 120.293 59.0647 120.293 62.8259 122.52L109.075 149.249C111.025 150.362 112 151.894 112 153.425C112 155.095 110.886 156.488 109.075 157.601L62.9652 184.329C60.8756 185.443 58.3682 186 56 186ZM55.7214 121.685C53.3532 121.685 50.9851 122.242 49.3134 123.216L3.20398 149.945C1.53234 150.919 0.696517 152.172 0.696517 153.425C0.696517 154.678 1.53234 155.931 3.20398 156.905L49.4527 183.633C53.0746 185.722 58.7861 185.722 62.408 183.633L108.517 156.905C110.189 155.931 111.025 154.678 111.025 153.425C111.025 152.172 110.05 150.919 108.517 149.945L62.1293 123.216C60.3184 122.103 58.0896 121.685 55.7214 121.685Z" fill="url(#paint0_linear_83_655)"/>
<path d="M111.52 139.005V116.757L83.6214 120.535L62.6625 108.361C59.0537 106.262 53.0852 106.262 49.3376 108.361L46.1452 110.46L0.757324 116.617V139.145V139.285C0.757324 140.684 1.72893 141.944 3.53334 143.063L49.6152 169.929C53.224 172.028 59.1925 172.028 62.9401 169.929L108.883 143.063C110.549 141.804 111.382 140.404 111.52 139.005Z" fill="url(#paint1_linear_83_655)"/>
<path d="M108.744 112.559L62.5236 85.6923C58.9148 83.5934 52.9464 83.5934 49.1987 85.6923L3.39448 112.699C-0.214339 114.797 -0.214339 118.296 3.39448 120.395L49.4763 147.261C53.0852 149.36 59.0536 149.36 62.8012 147.261L108.744 120.395C112.353 118.156 112.353 114.797 108.744 112.559Z" fill="url(#paint2_radial_83_655)"/>
<path d="M108.744 118.995L62.8012 145.861C59.1924 147.96 53.2239 147.96 49.4763 145.861L3.39444 118.995C1.86763 118.156 1.03483 117.036 0.757227 115.777C0.479625 117.456 1.31243 119.135 3.39444 120.255L49.4763 147.121C53.0851 149.22 59.0536 149.22 62.8012 147.121L108.744 120.255C110.826 118.995 111.798 117.316 111.381 115.777C111.104 117.036 110.271 118.156 108.744 118.995Z" fill="white"/>
<path d="M69.0474 153.138L66.8265 154.537V151.878L69.0474 150.619V153.138Z" fill="white"/>
<path d="M73.6278 150.479L71.407 151.879V149.22L73.6278 147.961V150.479Z" fill="white"/>
<path d="M78.2081 147.821L75.9873 149.22V146.561L78.2081 145.302V147.821Z" fill="white"/>
<path d="M74.4606 155.237L72.2397 156.496V153.977L74.4606 152.718V155.237Z" fill="white"/>
<path d="M78.4858 152.858L76.265 154.117V151.599L78.4858 150.339V152.858Z" fill="white"/>
<path d="M92.7823 139.425L90.5615 140.684V138.026L92.7823 136.766V139.425Z" fill="white"/>
<path d="M105.413 132.009L103.192 133.268V130.749L105.413 129.49V132.009Z" fill="white"/>
<path d="M82.7887 145.162L80.5679 146.561V143.903L82.7887 142.643V145.162Z" fill="white"/>
<path opacity="0.4" d="M53.5016 135.927L22.4102 117.876C21.161 117.176 21.2998 115.917 22.8266 115.077L53.224 97.4463C54.612 96.6067 56.8328 96.4668 58.082 97.3064L89.1734 115.357C90.4226 116.057 90.2838 117.316 88.757 118.156L58.3596 135.787C56.8328 136.486 54.7508 136.626 53.5016 135.927Z" fill="#06033E"/>
<path d="M41.2872 155.517L15.6091 140.544C15.0539 140.125 14.4987 139.285 14.4987 138.445V136.486C14.4987 135.647 15.0539 135.227 15.6091 135.647L41.2872 150.619C41.8424 151.039 42.3976 151.879 42.3976 152.718V154.677C42.2588 155.377 41.8424 155.796 41.2872 155.517Z" fill="white"/>
<path d="M111.52 97.1665V74.9179L83.4826 78.556L62.5237 66.3822C58.9149 64.2833 52.9464 64.2833 49.1988 66.3822L46.0064 68.4812L0.61853 74.638V97.1665V97.3064C0.61853 98.7057 1.59014 99.9651 3.39455 101.085L49.4764 127.951C53.0852 130.05 59.0537 130.05 62.8013 127.951L108.744 100.945C110.549 99.9651 111.382 98.5658 111.52 97.1665Z" fill="url(#paint3_linear_83_655)"/>
<path d="M108.744 70.72L62.5237 43.8537C58.9149 41.7548 52.9465 41.7548 49.1989 43.8537L3.3946 70.8599C-0.214217 72.9589 -0.214217 76.4571 3.3946 78.556L49.4765 105.422C53.0853 107.521 59.0537 107.521 62.8013 105.422L108.744 78.556C112.353 76.3171 112.353 72.9589 108.744 70.72Z" fill="url(#paint4_radial_83_655)"/>
<path opacity="0.4" d="M86.6751 72.3992L59.8866 56.7272C57.8046 55.4678 54.3345 55.4678 52.1137 56.7272L25.3252 72.3992C23.2432 73.6585 23.2432 75.6175 25.3252 76.8769L52.2525 92.5489C54.3345 93.8082 57.8046 93.8082 60.0254 92.5489L86.8139 76.8769C88.8959 75.6175 88.8959 73.6585 86.6751 72.3992Z" fill="#06033E"/>
<path d="M108.744 77.1568L62.8014 104.023C59.1926 106.122 53.2242 106.122 49.4765 104.023L3.39469 77.1568C1.86788 76.3172 1.03507 75.1978 0.757471 73.9384C0.479869 75.6176 1.31267 77.2967 3.39469 78.4161L49.4765 105.282C53.0854 107.381 59.0538 107.381 62.8014 105.282L108.744 78.5561C110.826 77.2967 111.798 75.6176 111.382 74.0783C111.104 75.1978 110.271 76.3172 108.744 77.1568Z" fill="white"/>
<path d="M69.0474 111.299L66.8265 112.698V110.04L69.0474 108.78V111.299Z" fill="white"/>
<path d="M73.6278 108.64L71.407 110.04V107.381L73.6278 106.122V108.64Z" fill="white"/>
<path d="M78.2081 105.982L75.9873 107.381V104.723L78.2081 103.463V105.982Z" fill="white"/>
<path d="M74.4606 113.398L72.2397 114.657V112.139L74.4606 110.879V113.398Z" fill="white"/>
<path d="M78.4858 111.019L76.265 112.279V109.76L78.4858 108.501V111.019Z" fill="white"/>
<path d="M92.7823 97.5864L90.5615 98.8457V96.1871L92.7823 94.9277V97.5864Z" fill="white"/>
<path d="M105.413 90.1701L103.192 91.4294V88.9107L105.413 87.6514V90.1701Z" fill="white"/>
<path d="M82.7887 103.323L80.5679 104.723V102.064L82.7887 100.805V103.323Z" fill="white"/>
<path d="M111.52 54.887V32.6384L83.6214 36.4164L62.6625 24.2427C59.0537 22.1437 53.0852 22.1437 49.3376 24.2427L46.1452 26.3416L0.757324 32.4984V55.0269V55.1669C0.757324 56.5661 1.72893 57.8255 3.53334 58.9449L49.6152 85.8112C53.224 87.9101 59.1925 87.9101 62.9401 85.8112L108.883 58.9449C110.549 57.6856 111.382 56.2863 111.52 54.887Z" fill="url(#paint5_linear_83_655)"/>
<path d="M108.312 28.6308L62.4098 1.58473C58.8258 -0.528244 52.8985 -0.528244 49.1767 1.58473L3.68797 28.7717C0.10401 30.8847 0.10401 34.4063 3.68797 36.5193L49.4524 63.5654C53.0363 65.6783 58.9637 65.6783 62.6855 63.5654L108.312 36.5193C111.896 34.2654 111.896 30.8847 108.312 28.6308Z" fill="url(#paint6_radial_83_655)"/>
<path d="M108.744 34.8772L62.8012 61.7435C59.1924 63.8424 53.2239 63.8424 49.4763 61.7435L3.39444 34.8772C1.86763 34.0377 1.03483 32.9182 0.757227 31.6589C0.479625 33.338 1.31243 35.0172 3.39444 36.1366L49.4763 63.0029C53.0851 65.1018 59.0536 65.1018 62.8012 63.0029L108.744 36.1366C110.826 34.8772 111.798 33.1981 111.381 31.6589C111.104 32.9182 110.271 34.0377 108.744 34.8772Z" fill="white"/>
<path d="M69.0474 69.1596L66.8265 70.4189V67.7603L69.0474 66.5009V69.1596Z" fill="white"/>
<path d="M73.6278 66.3611L71.407 67.7603V65.1017L73.6278 63.8423V66.3611Z" fill="white"/>
<path d="M78.2081 63.7024L75.9873 65.1017V62.4431L78.2081 61.1837V63.7024Z" fill="white"/>
<path d="M74.4606 71.1186L72.2397 72.378V69.8593L74.4606 68.5999V71.1186Z" fill="white"/>
<path d="M78.4858 68.7398L76.265 69.9992V67.4805L78.4858 66.2211V68.7398Z" fill="white"/>
<path d="M92.7823 55.3068L90.5615 56.5661V53.9075L92.7823 52.6481V55.3068Z" fill="white"/>
<path d="M105.413 47.8905L103.192 49.1498V46.6311L105.413 45.3718V47.8905Z" fill="white"/>
<path d="M82.7887 61.0438L80.5679 62.4431V59.7844L82.7887 58.5251V61.0438Z" fill="white"/>
<path d="M41.2872 114.518L15.6091 99.6851C15.0539 99.2653 14.4987 98.4258 14.4987 97.5862V95.6272C14.4987 94.7876 15.0539 94.3678 15.6091 94.7876L41.2872 109.76C41.8424 110.18 42.3976 111.019 42.3976 111.859V113.818C42.2588 114.518 41.8424 114.937 41.2872 114.518Z" fill="white"/>
<path d="M41.2872 73.6585L15.6091 58.6862C15.0539 58.2664 14.4987 57.4268 14.4987 56.5872V54.7682C14.4987 53.9286 15.0539 53.5088 15.6091 53.9286L41.2872 68.761C41.8424 69.1808 42.3976 70.0204 42.3976 70.8599V72.8189C42.2588 73.6585 41.8424 74.0783 41.2872 73.6585Z" fill="white"/>
<defs>
<linearGradient id="paint0_linear_83_655" x1="-6.8706" y1="153.253" x2="72.1601" y2="153.253" gradientUnits="userSpaceOnUse">
<stop stop-color="#0F9D87"/>
<stop offset="1" stop-color="#1A1A1A"/>
</linearGradient>
<linearGradient id="paint1_linear_83_655" x1="-6.03739" y1="138.975" x2="72.1205" y2="138.975" gradientUnits="userSpaceOnUse">
<stop stop-color="#0F9D87"/>
<stop offset="1" stop-color="#1A1A1A"/>
</linearGradient>
<radialGradient id="paint2_radial_83_655" cx="0" cy="0" r="1" gradientUnits="userSpaceOnUse" gradientTransform="translate(-19.8966 79.8906) scale(174.543 175.961)">
<stop stop-color="#0F9D87"/>
<stop offset="1" stop-color="#1A1A1A"/>
</radialGradient>
<linearGradient id="paint3_linear_83_655" x1="-6.1847" y1="96.9959" x2="72.0711" y2="96.9959" gradientUnits="userSpaceOnUse">
<stop stop-color="#0F9D87"/>
<stop offset="1" stop-color="#1A1A1A"/>
</linearGradient>
<radialGradient id="paint4_radial_83_655" cx="0" cy="0" r="1" gradientUnits="userSpaceOnUse" gradientTransform="translate(-19.8964 38.052) scale(174.543 175.961)">
<stop stop-color="#0F9D87"/>
<stop offset="1" stop-color="#1A1A1A"/>
</radialGradient>
<linearGradient id="paint5_linear_83_655" x1="-6.03739" y1="54.8564" x2="72.1205" y2="54.8564" gradientUnits="userSpaceOnUse">
<stop stop-color="#0F9D87"/>
<stop offset="1" stop-color="#1A1A1A"/>
</linearGradient>
<radialGradient id="paint6_radial_83_655" cx="0" cy="0" r="1" gradientUnits="userSpaceOnUse" gradientTransform="translate(-19.4426 -4.25581) scale(173.34 177.138)">
<stop stop-color="#0F9D87"/>
<stop offset="1" stop-color="#1A1A1A"/>
</radialGradient>
</defs>
</svg>
