<svg width="160" height="187" viewBox="0 0 160 187" fill="none" xmlns="http://www.w3.org/2000/svg">
<path opacity="0.6" d="M133.221 90.5272L86.5547 63.6851C84.6543 62.5272 83.0706 63.7904 83.0706 66.3167V79.3694C83.0706 81.8957 84.6543 84.9483 86.5547 86.0009L133.116 112.843C135.016 114.001 136.6 112.738 136.6 110.211V97.2641C136.705 94.6325 135.122 91.6851 133.221 90.5272Z" fill="#49AF62" fill-opacity="0.3"/>
<path d="M134.594 113.685C134.066 113.685 133.538 113.58 133.01 113.264L86.4492 86.422C84.4432 85.2641 82.7539 82.1062 82.7539 79.3693V66.3167C82.7539 64.843 83.2818 63.6851 84.1264 63.1588C84.8655 62.7378 85.8157 62.7378 86.766 63.3693L133.327 90.2114C135.333 91.3693 137.022 94.5272 137.022 97.2641V110.211C137.022 111.685 136.494 112.843 135.65 113.369C135.333 113.58 135.016 113.685 134.594 113.685ZM85.1822 63.6851C84.9711 63.6851 84.6544 63.7904 84.4432 63.8956C83.8097 64.3167 83.3874 65.1588 83.3874 66.422V79.4746C83.3874 81.8956 84.8655 84.7377 86.6604 85.7904L133.221 112.632C133.96 113.054 134.594 113.159 135.122 112.843C135.755 112.422 136.177 111.58 136.177 110.317V97.2641C136.177 94.843 134.699 92.0009 132.904 90.9483L86.4492 64.0009C86.0269 63.7904 85.6046 63.6851 85.1822 63.6851Z" fill="url(#paint0_linear_100_353)"/>
<path opacity="0.6" d="M25.635 90.5273L72.1959 63.6852C74.0963 62.5273 75.68 63.7905 75.68 66.3168V79.3694C75.68 81.8957 74.0963 84.9484 72.1959 86.001L25.635 112.843C23.7346 114.001 22.1509 112.738 22.1509 110.212V97.2641C22.1509 94.6326 23.629 91.6852 25.635 90.5273Z" fill="#49AF62" fill-opacity="0.3"/>
<path d="M24.2624 113.685C23.8401 113.685 23.5234 113.58 23.2066 113.369C22.2564 112.843 21.7285 111.685 21.7285 110.211V97.2641C21.7285 94.5273 23.4178 91.4746 25.4238 90.2115L71.9847 63.3694C72.9349 62.8431 73.8851 62.7378 74.6242 63.1589C75.4688 63.6852 75.9967 64.8431 75.9967 66.3167V79.3694C75.9967 82.1062 74.3074 85.1589 72.3014 86.422L25.8461 113.159C25.2127 113.475 24.6848 113.685 24.2624 113.685ZM25.8461 90.8431C24.0513 91.8957 22.5732 94.7378 22.5732 97.1588V110.211C22.5732 111.475 22.9955 112.317 23.629 112.738C24.1569 113.054 24.7903 112.948 25.5294 112.527L72.0903 85.6852C73.8851 84.6325 75.3633 81.7904 75.3633 79.3694V66.3167C75.3633 65.0536 74.9409 64.2115 74.3074 63.7904C73.7795 63.4746 73.1461 63.5799 72.407 64.001L25.8461 90.8431Z" fill="url(#paint1_linear_100_353)"/>
<path d="M79.3749 132.106C77.1577 132.106 75.0461 131.58 73.3568 130.633L32.6029 107.264C30.9136 106.317 29.9634 104.948 29.9634 103.58C29.9634 102.211 30.9136 100.843 32.6029 99.8957L73.0401 76.422C76.4187 74.5273 81.8032 74.5273 85.1818 76.422L125.83 99.7904C127.519 100.738 128.47 102.106 128.47 103.475C128.47 104.843 127.519 106.211 125.83 107.159L85.393 130.633C83.7037 131.58 81.4865 132.106 79.3749 132.106ZM79.0582 75.6852C77.0521 75.6852 74.9405 76.1062 73.3568 77.0536L33.0252 100.527C31.5471 101.369 30.808 102.422 30.808 103.58C30.808 104.738 31.6527 105.79 33.0252 106.633L73.6736 130.001C76.841 131.79 81.9088 131.79 84.9707 130.001L125.408 106.527C126.886 105.685 127.625 104.633 127.625 103.475C127.625 102.317 126.78 101.264 125.408 100.422L84.7595 77.0536C83.1758 76.1062 81.1698 75.6852 79.0582 75.6852Z" fill="url(#paint2_linear_100_353)"/>
<path d="M128.259 90.7378V71.2641L103.659 74.5273L85.1824 63.8957C81.9094 62.001 76.7359 62.001 73.463 63.8957L70.6123 65.6852L30.5974 71.0536V90.7378V90.8431C30.5974 92.001 31.4421 93.1589 33.0258 94.1062L73.6741 117.475C76.9471 119.369 82.1205 119.369 85.3935 117.475L125.831 94.001C127.414 93.0536 128.153 91.8957 128.259 90.7378Z" fill="url(#paint3_linear_100_353)"/>
<path d="M125.831 67.7904L85.1824 44.3167C81.9094 42.422 76.736 42.422 73.463 44.3167L33.0258 67.7904C29.7528 69.6852 29.7528 72.6325 33.0258 74.5273L73.6742 97.8957C76.9471 99.7904 82.1206 99.7904 85.3936 97.8957L125.831 74.422C129.104 72.6325 129.104 69.5799 125.831 67.7904Z" fill="url(#paint4_radial_100_353)"/>
<path d="M125.831 73.2641L85.3933 96.7378C82.1203 98.6325 76.9469 98.6325 73.6739 96.7378L33.0255 73.3694C31.653 72.6325 30.9139 71.5799 30.7028 70.6325C30.386 72.001 31.2307 73.4747 33.0255 74.6325L73.6739 98.001C76.9469 99.8957 82.1203 99.8957 85.3933 98.001L125.831 74.5273C127.731 73.4746 128.47 72.001 128.153 70.5273C127.942 71.5799 127.203 72.5273 125.831 73.2641Z" fill="white"/>
<path d="M90.8841 103.159L88.8779 104.212V102.001L90.8841 100.948V103.159Z" fill="white"/>
<path d="M94.8971 100.843L92.9966 101.896V99.6852L94.8971 98.6326V100.843Z" fill="white"/>
<path d="M98.9086 98.5273L97.0081 99.5799V97.3694L98.9086 96.3168V98.5273Z" fill="white"/>
<path d="M95.6359 104.843L93.7354 106.001V103.79L95.6359 102.633V104.843Z" fill="white"/>
<path d="M99.1198 102.843L97.2192 103.896V101.685L99.1198 100.633V102.843Z" fill="white"/>
<path d="M111.789 91.0536L109.889 92.1062V89.8957L111.789 88.8431V91.0536Z" fill="white"/>
<path d="M122.875 84.6325L120.974 85.7904V83.5799L122.875 82.422V84.6325Z" fill="white"/>
<path d="M102.921 96.2115L101.02 97.2641V95.0536L102.921 94.001V96.2115Z" fill="white"/>
<path d="M66.3889 105.054L43.7947 92.1062C43.2668 91.7904 42.8445 90.9483 42.8445 90.2114V88.5272C42.8445 87.7904 43.2668 87.4746 43.7947 87.7904L66.3889 100.738C66.9168 101.054 67.3391 101.896 67.3391 102.632V104.317C67.3391 105.054 66.9168 105.369 66.3889 105.054Z" fill="white"/>
<path opacity="0.6" d="M86.5547 132.948L133.116 106.106C135.016 104.948 136.6 106.211 136.6 108.738V121.79C136.6 124.317 135.016 127.369 133.116 128.422L86.5547 155.264C84.6543 156.422 83.0706 155.159 83.0706 152.633V139.58C83.0706 137.054 84.6543 134.001 86.5547 132.948Z" fill="#49AF62" fill-opacity="0.3"/>
<path d="M85.1822 156.106C84.7599 156.106 84.4432 156.001 84.1264 155.79C83.2818 155.264 82.7539 154.106 82.7539 152.633V139.58C82.7539 136.843 84.4432 133.79 86.4492 132.527L133.01 105.685C133.96 105.159 134.911 105.054 135.65 105.475C136.494 106.001 137.022 107.159 137.022 108.633V121.79C137.022 124.527 135.333 127.58 133.327 128.843L86.766 155.685C86.2381 155.896 85.7102 156.106 85.1822 156.106ZM86.766 133.264C84.9711 134.317 83.493 137.159 83.493 139.58V152.633C83.493 153.896 83.9153 154.738 84.5488 155.159C85.0767 155.475 85.7102 155.369 86.4492 154.948L133.01 128.106C134.805 127.054 136.283 124.211 136.283 121.79V108.738C136.283 107.475 135.861 106.633 135.227 106.211C134.699 105.896 134.066 106.001 133.327 106.422L86.766 133.264Z" fill="url(#paint5_linear_100_353)"/>
<path opacity="0.6" d="M72.1959 133.264L25.635 106.422C23.7346 105.264 22.1509 106.527 22.1509 109.054V122.106C22.1509 124.632 23.7346 127.685 25.635 128.738L72.1959 155.58C74.0963 156.738 75.68 155.475 75.68 152.948V139.896C75.68 137.369 74.2019 134.317 72.1959 133.264Z" fill="#49AF62" fill-opacity="0.3"/>
<path d="M73.5684 156.317C73.0405 156.317 72.5126 156.211 71.9847 155.896L25.4238 129.054C23.4178 127.896 21.7285 124.738 21.7285 122.001V109.054C21.7285 107.58 22.2564 106.422 23.1011 105.896C23.8401 105.475 24.7903 105.475 25.7406 106.106L72.407 132.843C74.413 134.001 76.1023 137.159 76.1023 139.896V152.948C76.1023 154.422 75.5744 155.58 74.7298 156.106C74.413 156.211 73.9907 156.317 73.5684 156.317ZM24.2624 106.317C24.0513 106.317 23.7345 106.422 23.5234 106.527C22.8899 106.948 22.4676 107.79 22.4676 109.054V122.106C22.4676 124.527 23.9457 127.369 25.7406 128.422L72.407 155.264C73.1461 155.685 73.7795 155.79 74.3074 155.475C74.9409 155.054 75.3633 154.211 75.3633 152.948V139.896C75.3633 137.475 73.8851 134.632 72.0903 133.58L25.4238 106.738C25.0015 106.527 24.5792 106.317 24.2624 106.317Z" fill="url(#paint6_linear_100_353)"/>
<path opacity="0.4" d="M113.715 66.4953L84.0513 48.8903C81.6838 47.4589 77.9237 47.4589 75.5563 48.8903L46.1716 66.4953C43.8041 67.9266 43.8041 70.2167 46.1716 71.5049L75.8348 89.11C78.2023 90.5413 81.9624 90.5413 84.3299 89.11L113.715 71.5049C116.082 70.2167 116.082 67.9266 113.715 66.4953Z" fill="black"/>
<path d="M129.297 58.6519V39.1782L104.696 42.4414L86.22 31.8098C82.947 29.915 77.7735 29.915 74.5006 31.8098L71.6499 33.5993L31.635 38.9677V58.6519V58.7571C31.635 59.915 32.4797 61.0729 34.0634 62.0203L74.7117 85.3887C77.9847 87.2835 83.1581 87.2835 86.4311 85.3887L126.868 61.915C128.452 60.9677 129.191 59.8098 129.297 58.6519Z" fill="url(#paint7_linear_100_353)"/>
<path d="M126.868 35.7045L86.22 12.2308C82.947 10.3361 77.7736 10.3361 74.5006 12.2308L34.0634 35.7045C30.7904 37.5992 30.7904 40.5466 34.0634 42.4413L74.7118 65.8097C77.9847 67.7045 83.1582 67.7045 86.4312 65.8097L126.868 42.3361C130.141 40.5466 130.141 37.494 126.868 35.7045Z" fill="url(#paint8_radial_100_353)"/>
<path d="M126.868 41.1782L86.4312 64.6519C83.1582 66.5466 77.9847 66.5466 74.7118 64.6519L34.0634 41.2835C32.6908 40.5466 31.9518 39.494 31.7406 38.5466C31.4239 39.915 32.2685 41.3887 34.0634 42.5466L74.7118 65.915C77.9847 67.8098 83.1582 67.8098 86.4312 65.915L126.868 42.4413C128.769 41.3887 129.508 39.915 129.191 38.4413C128.98 39.494 128.241 40.4413 126.868 41.1782Z" fill="white"/>
<path d="M91.9219 71.073L89.9158 72.1256V69.9151L91.9219 68.8624V71.073Z" fill="white"/>
<path d="M95.9345 68.7572L94.0339 69.8098V67.5993L95.9345 66.5466V68.7572Z" fill="white"/>
<path d="M99.946 66.4414L98.0454 67.494V65.2835L99.946 64.2308V66.4414Z" fill="white"/>
<path d="M96.6735 72.7572L94.7729 73.915V71.7045L96.6735 70.5466V72.7572Z" fill="white"/>
<path d="M100.157 70.7572L98.2566 71.8098V69.5993L100.157 68.5466V70.7572Z" fill="white"/>
<path d="M112.827 58.9677L110.926 60.0203V57.8098L112.827 56.7571V58.9677Z" fill="white"/>
<path d="M123.913 52.5466L122.012 53.7045V51.494L123.913 50.3361V52.5466Z" fill="white"/>
<path d="M103.958 64.1256L102.057 65.1782V62.9677L103.958 61.915V64.1256Z" fill="white"/>
<path d="M67.4267 72.9676L44.8325 60.0202C44.3046 59.7045 43.8823 58.8623 43.8823 58.1255V56.4413C43.8823 55.7045 44.3046 55.3887 44.8325 55.7045L67.4267 68.6518C67.9546 68.9676 68.3769 69.8097 68.3769 70.5466V72.2308C68.3769 72.9676 67.9546 73.2834 67.4267 72.9676Z" fill="white"/>
<path opacity="0.6" d="M126.868 25.3887L86.22 2.0203C82.947 0.125559 77.7736 0.125559 74.5006 2.0203L34.0634 25.3887C30.7904 27.2834 30.7904 30.2308 34.0634 32.1256L74.7118 55.494C77.9847 57.3887 83.1582 57.3887 86.4312 55.494L126.868 32.0203C130.141 30.2308 130.141 27.2834 126.868 25.3887Z" fill="#49AF62" fill-opacity="0.3"/>
<path d="M80.5188 57.3887C78.3017 57.3887 76.1901 56.8624 74.5008 55.915L33.8524 32.5466C32.1631 31.494 31.2129 30.2308 31.2129 28.8624C31.2129 27.494 32.1631 26.1255 33.8524 25.1782L74.2896 1.7045C77.6682 -0.190237 83.0528 -0.190237 86.4313 1.7045L127.08 25.0729C128.769 26.0203 129.719 27.3887 129.719 28.7571C129.719 30.1255 128.769 31.494 127.08 32.4413L86.6425 55.915C84.9532 56.8624 82.736 57.3887 80.5188 57.3887ZM80.3077 0.967658C78.3017 0.967658 76.19 1.38871 74.6063 2.33608L34.2747 25.8098C32.7966 26.6519 32.0575 27.7045 32.0575 28.8624C32.0575 30.0203 32.9022 31.0729 34.2747 31.915L74.9231 55.2834C78.0905 57.0729 83.1583 57.0729 86.2202 55.2834L126.657 31.8098C128.136 30.9677 128.875 29.915 128.875 28.7571C128.875 27.5992 128.03 26.5466 126.657 25.7045L86.009 2.33608C84.4253 1.38871 82.4193 0.967658 80.3077 0.967658Z" fill="url(#paint9_linear_100_353)"/>
<path d="M26.0272 186.283C24.8494 186.283 23.7305 186.05 22.8472 185.524L1.35228 173.203C0.468923 172.678 -0.00219727 171.977 -0.00219727 171.276C-0.00219727 170.517 0.468923 169.816 1.35228 169.349L22.7294 157.028C24.4961 156.035 27.3817 156.035 29.1484 157.028L50.6433 169.349C51.5267 169.875 51.9978 170.575 51.9978 171.276C51.9978 172.035 51.5267 172.736 50.6433 173.203L29.2662 185.524C28.324 186.05 27.2051 186.283 26.0272 186.283ZM25.9095 156.619C24.8494 156.619 23.7305 156.853 22.9061 157.32L1.52895 169.641C0.763376 170.05 0.351145 170.634 0.351145 171.218C0.351145 171.802 0.763376 172.386 1.52895 172.794L23.0239 185.116C24.6728 186.05 27.3817 186.05 29.0306 185.116L50.4078 172.794C51.1733 172.386 51.5856 171.802 51.5856 171.218C51.5856 170.634 51.1733 170.05 50.4078 169.641L28.9129 157.32C28.0884 156.911 27.0284 156.619 25.9095 156.619Z" fill="#0F9D87"/>
<path d="M51.9511 164.413V154.124L38.9186 155.829L29.1884 150.185C27.4783 149.186 24.7066 149.186 22.9965 150.185L21.4632 151.126L0.292725 153.948V164.413V164.472C0.292725 165.119 0.764491 165.706 1.59008 166.177L23.1144 178.582C24.8246 179.581 27.5962 179.581 29.3063 178.582L50.7127 166.177C51.5383 165.706 51.9511 165.06 52.0101 164.472V164.413H51.9511Z" fill="url(#paint10_linear_100_353)"/>
<path d="M50.6538 152.243L29.1295 139.838C27.4193 138.839 24.6477 138.839 22.9375 139.838L1.53115 152.243C-0.179003 153.243 -0.179003 154.83 1.53115 155.829L23.0555 168.234C24.7656 169.234 27.5373 169.234 29.2474 168.234L50.6538 155.829C52.364 154.83 52.364 153.243 50.6538 152.243Z" fill="url(#paint11_radial_100_353)"/>
<path d="M50.654 155.183L29.2476 167.588C27.5375 168.587 24.7659 168.587 23.0557 167.588L1.53137 155.183C0.823717 154.771 0.410921 154.242 0.292979 153.713C0.116067 154.477 0.528863 155.241 1.53137 155.829L23.0557 168.234C24.7659 169.234 27.5375 169.234 29.2476 168.234L50.654 155.829C51.6565 155.241 52.0693 154.477 51.8924 153.713C51.7745 154.242 51.3617 154.771 50.654 155.183Z" fill="white"/>
<path d="M32.1378 170.939L31.1343 171.527V170.351L32.1378 169.763V170.939Z" fill="white"/>
<path d="M34.3201 169.704L33.2576 170.292V169.116L34.3201 168.587V169.704Z" fill="white"/>
<path d="M36.4426 168.528L35.3801 169.116V167.941L36.4426 167.353V168.528Z" fill="white"/>
<path d="M34.6731 171.88L33.6697 172.467V171.292L34.6731 170.704V171.88Z" fill="white"/>
<path d="M36.5608 170.821L35.5574 171.409V170.233L36.5608 169.645V170.821Z" fill="white"/>
<path d="M43.2834 164.589L42.2209 165.177V164.001L43.2834 163.414V164.589Z" fill="white"/>
<path d="M49.1214 161.179L48.1179 161.767V160.592L49.1214 160.004V161.179Z" fill="white"/>
<path d="M38.5657 167.294L37.5623 167.882V166.706L38.5657 166.118V167.294Z" fill="white"/>
<path opacity="0.4" d="M24.8829 163.002L10.435 154.654C9.84532 154.301 9.9043 153.713 10.6119 153.36L24.7649 145.247C25.4726 144.835 26.4751 144.835 27.0648 145.129L41.5126 153.478C42.1023 153.831 42.0434 154.418 41.3357 154.771L27.1827 162.884C26.5341 163.296 25.4726 163.296 24.8829 163.002Z" fill="black"/>
<path d="M19.2227 171.997L7.25098 165.119C6.95611 164.942 6.72021 164.531 6.72021 164.119V163.237C6.72021 162.884 6.95611 162.708 7.25098 162.826L19.2227 169.704C19.5176 169.881 19.7535 170.292 19.7535 170.704V171.586C19.6945 171.997 19.4586 172.174 19.2227 171.997Z" fill="white"/>
<path d="M51.9511 145.549V135.261L38.9186 136.966L29.1884 131.322C27.4783 130.322 24.7066 130.322 22.9965 131.322L21.4632 132.262L0.292725 135.084V145.49V145.549C0.292725 146.196 0.764491 146.784 1.59008 147.254L23.1144 159.659C24.8246 160.659 27.5962 160.659 29.3063 159.659L50.7127 147.254C51.5383 146.784 51.9511 146.137 52.0101 145.549H51.9511Z" fill="url(#paint12_linear_100_353)"/>
<path d="M50.6538 133.438L29.1295 121.033C27.4193 120.034 24.6477 120.034 22.9375 121.033L1.53115 133.438C-0.179003 134.438 -0.179003 136.025 1.53115 137.024L23.0555 149.429C24.7656 150.429 27.5373 150.429 29.2474 149.429L50.6538 137.024C52.364 136.025 52.364 134.379 50.6538 133.438Z" fill="url(#paint13_radial_100_353)"/>
<path d="M50.6538 133.438L29.1295 121.033C27.4193 120.034 24.6477 120.034 22.9375 121.033L1.53115 133.438C-0.179003 134.438 -0.179003 136.025 1.53115 137.024L23.0555 149.429C24.7656 150.429 27.5373 150.429 29.2474 149.429L50.6538 137.024C52.364 136.025 52.364 134.379 50.6538 133.438Z" fill="#0F9D87"/>
<path d="M26.1226 145.373C25.356 145.373 24.5304 145.196 23.9407 144.844L9.66974 136.613C9.02106 136.26 8.66724 135.731 8.66724 135.202C8.66724 134.673 9.02106 134.144 9.66974 133.791L23.8227 125.56C25.0611 124.855 27.0071 124.855 28.1866 125.56L42.4575 133.791C43.1062 134.144 43.46 134.673 43.46 135.202C43.46 135.731 43.1062 136.26 42.4575 136.613L28.3045 144.844C27.7148 145.196 26.9482 145.373 26.1226 145.373ZM26.0636 125.619C25.356 125.619 24.6483 125.795 24.1766 126.089L10.0236 134.32C9.5518 134.555 9.31591 134.908 9.31591 135.261C9.31591 135.613 9.5518 135.966 10.0236 136.201L24.2945 144.432C25.356 145.02 27.0661 145.02 28.1276 144.432L42.2806 136.201C42.7523 135.966 42.9882 135.613 42.9882 135.261C42.9882 134.908 42.7523 134.555 42.2806 134.32L28.0097 126.089C27.4789 125.736 26.7713 125.619 26.0636 125.619Z" fill="#1A1A1A"/>
<path d="M50.654 136.378L29.2476 148.783C27.5375 149.782 24.7659 149.782 23.0557 148.783L1.53137 136.378C0.823717 135.966 0.410921 135.437 0.292979 134.908C0.116067 135.672 0.528863 136.437 1.53137 137.024L23.0557 149.429C24.7659 150.429 27.5375 150.429 29.2476 149.429L50.654 137.024C51.6565 136.437 52.0693 135.672 51.8924 134.908C51.7745 135.437 51.3617 135.966 50.654 136.378Z" fill="white"/>
<path d="M32.1378 152.134L31.1343 152.722V151.546L32.1378 150.958V152.134Z" fill="white"/>
<path d="M34.3201 150.899L33.2576 151.487V150.311L34.3201 149.723V150.899Z" fill="white"/>
<path d="M36.4426 149.665L35.3801 150.253V149.077L36.4426 148.489V149.665Z" fill="white"/>
<path d="M34.6731 153.075L33.6697 153.663V152.487L34.6731 151.899V153.075Z" fill="white"/>
<path d="M36.5608 151.958L35.5574 152.545V151.37L36.5608 150.841V151.958Z" fill="white"/>
<path d="M43.2834 145.726L42.2209 146.313V145.138L43.2834 144.609V145.726Z" fill="white"/>
<path d="M49.1214 142.375L48.1179 142.962V141.787L49.1214 141.199V142.375Z" fill="white"/>
<path d="M38.5657 148.43L37.5623 149.018V147.901L38.5657 147.313V148.43Z" fill="white"/>
<path d="M134.036 186.283C132.859 186.283 131.74 186.05 130.857 185.524L109.365 173.203C108.482 172.678 108.011 171.977 108.011 171.276C108.011 170.517 108.482 169.816 109.365 169.349L130.739 157.028C132.505 156.035 135.39 156.035 137.157 157.028L158.648 169.349C159.531 169.875 160.002 170.575 160.002 171.276C160.002 172.035 159.531 172.736 158.648 173.203L137.275 185.524C136.333 186.05 135.214 186.283 134.036 186.283ZM133.918 156.619C132.859 156.619 131.74 156.853 130.916 157.32L109.542 169.641C108.777 170.05 108.365 170.634 108.365 171.218C108.365 171.802 108.777 172.386 109.542 172.794L131.033 185.116C132.682 186.05 135.39 186.05 137.039 185.116L158.413 172.794C159.178 172.386 159.59 171.802 159.59 171.218C159.59 170.634 159.178 170.05 158.413 169.641L136.921 157.32C136.097 156.911 135.037 156.619 133.918 156.619Z" fill="#0F9D87"/>
<path d="M159.921 164.413V154.124L146.889 155.829L137.158 150.185C135.448 149.186 132.677 149.186 130.966 150.185L129.433 151.126L108.263 153.948V164.413V164.472C108.263 165.118 108.734 165.706 109.56 166.177L131.084 178.582C132.795 179.581 135.566 179.581 137.276 178.582L158.683 166.177C159.508 165.706 159.921 165.06 159.98 164.472V164.413H159.921Z" fill="url(#paint14_linear_100_353)"/>
<path d="M158.624 152.243L137.099 139.838C135.389 138.839 132.618 138.839 130.908 139.838L109.501 152.243C107.791 153.243 107.791 154.83 109.501 155.829L131.025 168.234C132.736 169.234 135.507 169.234 137.217 168.234L158.624 155.829C160.334 154.83 160.334 153.243 158.624 152.243Z" fill="url(#paint15_radial_100_353)"/>
<path d="M158.624 155.183L137.217 167.588C135.507 168.587 132.735 168.587 131.025 167.588L109.501 155.183C108.793 154.771 108.38 154.242 108.262 153.713C108.086 154.477 108.498 155.241 109.501 155.829L131.025 168.234C132.735 169.234 135.507 169.234 137.217 168.234L158.624 155.829C159.626 155.241 160.039 154.477 159.862 153.713C159.744 154.242 159.331 154.771 158.624 155.183Z" fill="white"/>
<path d="M140.108 170.939L139.104 171.527V170.351L140.108 169.763V170.939Z" fill="white"/>
<path d="M142.29 169.704L141.228 170.292V169.116L142.29 168.587V169.704Z" fill="white"/>
<path d="M144.413 168.528L143.35 169.116V167.94L144.413 167.353V168.528Z" fill="white"/>
<path d="M142.643 171.879L141.64 172.467V171.292L142.643 170.704V171.879Z" fill="white"/>
<path d="M144.531 170.821L143.527 171.409V170.233L144.531 169.645V170.821Z" fill="white"/>
<path d="M151.254 164.589L150.191 165.177V164.001L151.254 163.414V164.589Z" fill="white"/>
<path d="M157.091 161.179L156.088 161.767V160.591L157.091 160.004V161.179Z" fill="white"/>
<path d="M146.536 167.294L145.532 167.882V166.706L146.536 166.118V167.294Z" fill="white"/>
<path opacity="0.4" d="M132.853 163.002L118.405 154.654C117.815 154.301 117.874 153.713 118.582 153.36L132.735 145.247C133.443 144.835 134.445 144.835 135.035 145.129L149.483 153.478C150.072 153.83 150.013 154.418 149.306 154.771L135.153 162.884C134.504 163.296 133.443 163.296 132.853 163.002Z" fill="black"/>
<path d="M127.192 171.997L115.221 165.119C114.926 164.942 114.69 164.531 114.69 164.119V163.237C114.69 162.884 114.926 162.708 115.221 162.826L127.192 169.704C127.487 169.881 127.723 170.292 127.723 170.704V171.586C127.664 171.997 127.428 172.174 127.192 171.997Z" fill="white"/>
<path d="M159.921 145.549V135.261L146.889 136.966L137.158 131.322C135.448 130.322 132.677 130.322 130.966 131.322L129.433 132.262L108.263 135.084V145.49V145.549C108.263 146.196 108.734 146.784 109.56 147.254L131.084 159.659C132.795 160.659 135.566 160.659 137.276 159.659L158.683 147.254C159.508 146.784 159.921 146.137 159.98 145.549H159.921Z" fill="url(#paint16_linear_100_353)"/>
<path d="M158.624 133.438L137.099 121.033C135.389 120.034 132.618 120.034 130.908 121.033L109.501 133.438C107.791 134.438 107.791 136.025 109.501 137.024L131.025 149.429C132.736 150.429 135.507 150.429 137.217 149.429L158.624 137.024C160.334 136.025 160.334 134.379 158.624 133.438Z" fill="url(#paint17_radial_100_353)"/>
<path d="M158.624 133.438L137.099 121.033C135.389 120.034 132.618 120.034 130.908 121.033L109.501 133.438C107.791 134.438 107.791 136.025 109.501 137.024L131.025 149.429C132.736 150.429 135.507 150.429 137.217 149.429L158.624 137.024C160.334 136.025 160.334 134.379 158.624 133.438Z" fill="#0F9D87"/>
<path d="M134.092 145.373C133.326 145.373 132.5 145.196 131.91 144.844L117.639 136.613C116.991 136.26 116.637 135.731 116.637 135.202C116.637 134.673 116.991 134.144 117.639 133.791L131.792 125.56C133.031 124.855 134.977 124.855 136.156 125.56L150.427 133.791C151.076 134.144 151.43 134.673 151.43 135.202C151.43 135.731 151.076 136.26 150.427 136.613L136.274 144.844C135.685 145.196 134.918 145.373 134.092 145.373ZM134.033 125.619C133.326 125.619 132.618 125.795 132.146 126.089L117.993 134.32C117.522 134.555 117.286 134.908 117.286 135.261C117.286 135.613 117.522 135.966 117.993 136.201L132.264 144.432C133.326 145.02 135.036 145.02 136.097 144.432L150.25 136.201C150.722 135.966 150.958 135.613 150.958 135.261C150.958 134.908 150.722 134.555 150.25 134.32L135.979 126.089C135.449 125.736 134.741 125.619 134.033 125.619Z" fill="#1A1A1A"/>
<path d="M158.624 136.378L137.217 148.783C135.507 149.782 132.735 149.782 131.025 148.783L109.501 136.378C108.793 135.966 108.38 135.437 108.262 134.908C108.086 135.672 108.498 136.436 109.501 137.024L131.025 149.429C132.735 150.429 135.507 150.429 137.217 149.429L158.624 137.024C159.626 136.436 160.039 135.672 159.862 134.908C159.744 135.437 159.331 135.966 158.624 136.378Z" fill="white"/>
<path d="M140.108 152.134L139.104 152.722V151.546L140.108 150.958V152.134Z" fill="white"/>
<path d="M142.29 150.899L141.228 151.487V150.311L142.29 149.723V150.899Z" fill="white"/>
<path d="M144.413 149.665L143.35 150.253V149.077L144.413 148.489V149.665Z" fill="white"/>
<path d="M142.643 153.075L141.64 153.663V152.487L142.643 151.899V153.075Z" fill="white"/>
<path d="M144.531 151.957L143.527 152.545V151.37L144.531 150.84V151.957Z" fill="white"/>
<path d="M151.254 145.726L150.191 146.313V145.138L151.254 144.609V145.726Z" fill="white"/>
<path d="M157.091 142.374L156.088 142.962V141.787L157.091 141.199V142.374Z" fill="white"/>
<path d="M146.536 148.43L145.532 149.018V147.901L146.536 147.313V148.43Z" fill="white"/>
<defs>
<linearGradient id="paint0_linear_100_353" x1="79.4909" y1="88.337" x2="117.729" y2="88.337" gradientUnits="userSpaceOnUse">
<stop stop-color="#1A1A1A"/>
<stop offset="1" stop-color="#0F9D87"/>
</linearGradient>
<linearGradient id="paint1_linear_100_353" x1="18.4655" y1="88.3538" x2="56.7038" y2="88.3538" gradientUnits="userSpaceOnUse">
<stop stop-color="#1A1A1A"/>
<stop offset="1" stop-color="#0F9D87"/>
</linearGradient>
<linearGradient id="paint2_linear_100_353" x1="24.0404" y1="103.623" x2="93.4496" y2="103.623" gradientUnits="userSpaceOnUse">
<stop stop-color="#0F9D87"/>
<stop offset="1" stop-color="#1A1A1A"/>
</linearGradient>
<linearGradient id="paint3_linear_100_353" x1="24.7252" y1="90.7538" x2="93.5393" y2="90.7538" gradientUnits="userSpaceOnUse">
<stop stop-color="#0F9D87"/>
<stop offset="1" stop-color="#1A1A1A"/>
</linearGradient>
<radialGradient id="paint4_radial_100_353" cx="0" cy="0" r="1" gradientUnits="userSpaceOnUse" gradientTransform="translate(12.4487 39.2957) scale(153.847 152.819)">
<stop stop-color="#0F9D87"/>
<stop offset="1" stop-color="#1A1A1A"/>
</radialGradient>
<linearGradient id="paint5_linear_100_353" x1="79.4909" y1="130.722" x2="117.729" y2="130.722" gradientUnits="userSpaceOnUse">
<stop stop-color="#0F9D87"/>
<stop offset="1" stop-color="#1A1A1A"/>
</linearGradient>
<linearGradient id="paint6_linear_100_353" x1="18.4591" y1="131.021" x2="56.7718" y2="131.021" gradientUnits="userSpaceOnUse">
<stop stop-color="#0F9D87"/>
<stop offset="1" stop-color="#1A1A1A"/>
</linearGradient>
<linearGradient id="paint7_linear_100_353" x1="25.7628" y1="58.6678" x2="94.5769" y2="58.6678" gradientUnits="userSpaceOnUse">
<stop stop-color="#0F9D87"/>
<stop offset="1" stop-color="#1A1A1A"/>
</linearGradient>
<radialGradient id="paint8_radial_100_353" cx="0" cy="0" r="1" gradientUnits="userSpaceOnUse" gradientTransform="translate(13.4863 7.20976) scale(153.847 152.819)">
<stop stop-color="#0F9D87"/>
<stop offset="1" stop-color="#1A1A1A"/>
</radialGradient>
<linearGradient id="paint9_linear_100_353" x1="25.2899" y1="28.9055" x2="94.6991" y2="28.9055" gradientUnits="userSpaceOnUse">
<stop stop-color="#0F9D87"/>
<stop offset="1" stop-color="#1A1A1A"/>
</linearGradient>
<linearGradient id="paint10_linear_100_353" x1="-2.81692" y1="164.42" x2="33.624" y2="164.42" gradientUnits="userSpaceOnUse">
<stop stop-color="#0F9D87"/>
<stop offset="1" stop-color="#1A1A1A"/>
</linearGradient>
<radialGradient id="paint11_radial_100_353" cx="0" cy="0" r="1" gradientUnits="userSpaceOnUse" gradientTransform="translate(-9.33764 137.181) scale(81.3801 80.9735)">
<stop stop-color="#0F9D87"/>
<stop offset="1" stop-color="#1A1A1A"/>
</radialGradient>
<linearGradient id="paint12_linear_100_353" x1="-2.81692" y1="145.527" x2="33.624" y2="145.527" gradientUnits="userSpaceOnUse">
<stop stop-color="#0F9D87"/>
<stop offset="1" stop-color="#1A1A1A"/>
</linearGradient>
<radialGradient id="paint13_radial_100_353" cx="0" cy="0" r="1" gradientUnits="userSpaceOnUse" gradientTransform="translate(-9.29405 118.333) scale(81.3801 81.1328)">
<stop stop-color="#0F9D87"/>
<stop offset="1" stop-color="#1A1A1A"/>
</radialGradient>
<linearGradient id="paint14_linear_100_353" x1="105.153" y1="164.42" x2="141.594" y2="164.42" gradientUnits="userSpaceOnUse">
<stop stop-color="#0F9D87"/>
<stop offset="1" stop-color="#1A1A1A"/>
</linearGradient>
<radialGradient id="paint15_radial_100_353" cx="0" cy="0" r="1" gradientUnits="userSpaceOnUse" gradientTransform="translate(98.6323 137.181) scale(81.3802 80.9736)">
<stop stop-color="#0F9D87"/>
<stop offset="1" stop-color="#1A1A1A"/>
</radialGradient>
<linearGradient id="paint16_linear_100_353" x1="105.153" y1="145.527" x2="141.594" y2="145.527" gradientUnits="userSpaceOnUse">
<stop stop-color="#0F9D87"/>
<stop offset="1" stop-color="#1A1A1A"/>
</linearGradient>
<radialGradient id="paint17_radial_100_353" cx="0" cy="0" r="1" gradientUnits="userSpaceOnUse" gradientTransform="translate(98.6759 118.333) scale(81.3802 81.1329)">
<stop stop-color="#0F9D87"/>
<stop offset="1" stop-color="#1A1A1A"/>
</radialGradient>
</defs>
</svg>
