<svg width="252" height="187" viewBox="0 0 252 187" fill="none" xmlns="http://www.w3.org/2000/svg">
<path opacity="0.4" d="M101.31 94.5493C101.959 94.5493 102.485 94.0261 102.485 93.3807C102.485 92.7353 101.959 92.2121 101.31 92.2121C100.661 92.2121 100.134 92.7353 100.134 93.3807C100.134 94.0261 100.661 94.5493 101.31 94.5493Z" fill="#1A1A1A"/>
<path opacity="0.4" d="M114.755 80.8914C117.311 80.8914 119.384 78.8313 119.384 76.29C119.384 73.7488 117.311 71.6887 114.755 71.6887C112.199 71.6887 110.126 73.7488 110.126 76.29C110.126 78.8313 112.199 80.8914 114.755 80.8914Z" fill="#1A1A1A"/>
<path opacity="0.8" d="M114.755 78.189C115.81 78.189 116.665 77.3388 116.665 76.29C116.665 75.2412 115.81 74.3911 114.755 74.3911C113.7 74.3911 112.845 75.2412 112.845 76.29C112.845 77.3388 113.7 78.189 114.755 78.189Z" fill="#1A1A1A"/>
<path opacity="0.4" d="M175.957 136.911C177.621 136.911 178.969 135.57 178.969 133.916C178.969 132.262 177.621 130.922 175.957 130.922C174.293 130.922 172.945 132.262 172.945 133.916C172.945 135.57 174.293 136.911 175.957 136.911Z" fill="#0F9D87"/>
<path opacity="0.8" d="M175.957 135.377C176.769 135.377 177.427 134.723 177.427 133.916C177.427 133.109 176.769 132.455 175.957 132.455C175.146 132.455 174.488 133.109 174.488 133.916C174.488 134.723 175.146 135.377 175.957 135.377Z" fill="#0F9D87"/>
<path opacity="0.4" d="M96.6077 71.9078C97.9062 71.9078 98.9588 70.8614 98.9588 69.5706C98.9588 68.2799 97.9062 67.2335 96.6077 67.2335C95.3092 67.2335 94.2566 68.2799 94.2566 69.5706C94.2566 70.8614 95.3092 71.9078 96.6077 71.9078Z" fill="#0F9D87"/>
<path opacity="0.8" d="M96.6077 70.7392C97.2569 70.7392 97.7832 70.216 97.7832 69.5706C97.7832 68.9252 97.2569 68.402 96.6077 68.402C95.9584 68.402 95.4321 68.9252 95.4321 69.5706C95.4321 70.216 95.9584 70.7392 96.6077 70.7392Z" fill="#0F9D87"/>
<path opacity="0.4" d="M175.369 94.8414C175.775 94.8414 176.104 94.5144 176.104 94.111C176.104 93.7076 175.775 93.3806 175.369 93.3806C174.963 93.3806 174.634 93.7076 174.634 94.111C174.634 94.5144 174.963 94.8414 175.369 94.8414Z" fill="#0F9D87"/>
<path d="M122.338 121.879C120.663 121.879 119.07 121.545 117.814 120.796L87.2285 103.22C85.9716 102.47 85.3013 101.47 85.3013 100.471C85.3013 99.388 85.9716 98.3884 87.2285 97.722L117.646 80.146C120.16 78.7299 124.266 78.7299 126.78 80.146L157.365 97.722C158.621 98.4717 159.292 99.4713 159.292 100.471C159.292 101.554 158.621 102.553 157.365 103.22L126.947 120.796C125.69 121.462 124.014 121.879 122.338 121.879ZM122.171 79.5629C120.663 79.5629 119.07 79.8961 117.897 80.5625L87.5637 98.1385C86.4744 98.7216 85.8878 99.5546 85.8878 100.388C85.8878 101.221 86.4744 102.054 87.5637 102.637L118.149 120.213C120.495 121.545 124.349 121.545 126.696 120.213L157.113 102.637C158.202 102.054 158.789 101.221 158.789 100.388C158.789 99.5546 158.202 98.7216 157.113 98.1385L126.528 80.5625C125.271 79.8961 123.763 79.5629 122.171 79.5629Z" fill="#0F9D87"/>
<path d="M159.124 90.8082V76.231L140.605 78.6466L126.779 70.6499C124.349 69.2339 120.411 69.2339 117.981 70.6499L115.802 71.9827L85.7197 75.9811V90.7249V90.8082C85.7197 91.7245 86.3901 92.5575 87.5632 93.2239L118.148 110.8C120.578 112.216 124.517 112.216 126.947 110.8L157.364 93.2239C158.537 92.5575 159.124 91.6412 159.207 90.8082H159.124Z" fill="url(#paint0_linear_83_413)"/>
<path d="M157.365 73.6487L126.78 56.0727C124.35 54.6567 120.411 54.6567 117.981 56.0727L87.5637 73.6487C85.1337 75.0648 85.1337 77.3139 87.5637 78.73L118.149 96.306C120.579 97.722 124.517 97.722 126.947 96.306L157.365 78.73C159.795 77.3139 159.795 74.9815 157.365 73.6487Z" fill="url(#paint1_linear_83_413)"/>
<path d="M157.364 77.8136L126.947 95.3896C124.517 96.8057 120.579 96.8057 118.149 95.3896L87.5636 77.8136C86.558 77.2305 85.9715 76.4808 85.8039 75.7311C85.5525 76.814 86.1391 77.8969 87.5636 78.7299L118.149 96.3059C120.579 97.722 124.517 97.722 126.947 96.3059L157.364 78.7299C158.789 77.8969 159.375 76.814 159.124 75.7311C158.956 76.4808 158.37 77.2305 157.364 77.8136Z" fill="white"/>
<path d="M131.053 100.138L129.545 100.971V99.3047L131.053 98.4717V100.138Z" fill="white"/>
<path d="M134.07 98.3884L132.645 99.2214V97.5555L134.07 96.7225V98.3884Z" fill="white"/>
<path d="M137.086 96.6392L135.662 97.4722V95.8062L137.086 94.9732V96.6392Z" fill="white"/>
<path d="M134.572 101.471L133.148 102.304V100.638L134.572 99.8046V101.471Z" fill="white"/>
<path d="M137.254 99.8878L135.829 100.721V99.0548L137.254 98.2219V99.8878Z" fill="white"/>
<path d="M146.806 91.0582L145.382 91.8912V90.2252L146.806 89.3922V91.0582Z" fill="white"/>
<path d="M155.102 86.3101L153.677 87.1431V85.4771L155.102 84.6441V86.3101Z" fill="white"/>
<path d="M140.102 94.8899L138.678 95.7229V94.0569L140.102 93.2239V94.8899Z" fill="white"/>
<path opacity="0.4" d="M120.662 88.809L100.133 77.0639C99.2947 76.5641 99.3785 75.7311 100.384 75.2314L120.495 63.7361C121.5 63.1531 122.925 63.1531 123.763 63.5696L144.292 75.398C145.13 75.8977 145.046 76.7307 144.041 77.2305L123.93 88.7257C123.008 89.2255 121.5 89.3088 120.662 88.809Z" fill="black"/>
<path d="M112.618 101.637L95.6077 91.8911C95.1887 91.6412 94.8535 91.0581 94.8535 90.475V89.2256C94.8535 88.7258 95.1887 88.4759 95.6077 88.6425L112.618 98.3884C113.037 98.6383 113.372 99.2214 113.372 99.8045V101.054C113.372 101.637 113.037 101.887 112.618 101.637Z" fill="white"/>
<path d="M159.124 63.4862V48.9089L140.605 51.3246L126.779 43.3279C124.349 41.9119 120.411 41.9119 117.981 43.3279L115.802 44.6607L85.7197 48.659V63.4029V63.4862C85.7197 64.4025 86.3901 65.2355 87.5632 65.9018L118.148 83.4779C120.578 84.8939 124.517 84.8939 126.947 83.4779L157.364 65.9018C158.537 65.2355 159.124 64.3192 159.207 63.4862H159.124Z" fill="url(#paint2_linear_83_413)"/>
<path d="M157.365 46.2435L126.78 28.6675C124.35 27.2514 120.411 27.2514 117.981 28.6675L87.5637 46.3268C85.1337 47.7428 85.1337 49.9919 87.5637 51.408L118.149 68.984C120.579 70.4001 124.517 70.4001 126.947 68.984L157.365 51.408C159.795 49.9086 159.795 47.6595 157.365 46.2435Z" fill="url(#paint3_radial_83_413)"/>
<path opacity="0.4" d="M142.784 47.3263L124.936 37.0806C123.511 36.2476 121.249 36.2476 119.824 37.0806L102.144 47.3263C100.719 48.1593 100.719 49.4921 102.144 50.2418L119.992 60.4875C121.416 61.3205 123.679 61.3205 125.103 60.4875L142.784 50.3251C144.208 49.4921 144.208 48.1593 142.784 47.3263Z" fill="black"/>
<path d="M157.364 50.4916L126.947 68.0677C124.517 69.4837 120.579 69.4837 118.149 68.0677L87.5636 50.4916C86.558 49.9086 85.9715 49.1589 85.8039 48.4092C85.5525 49.4921 86.1391 50.5749 87.5636 51.4079L118.149 68.9839C120.579 70.4 124.517 70.4 126.947 68.9839L157.364 51.4079C158.789 50.5749 159.375 49.4921 159.124 48.4092C158.956 49.1589 158.37 49.9086 157.364 50.4916Z" fill="white"/>
<path d="M131.053 72.8157L129.545 73.6487V71.9827L131.053 71.1497V72.8157Z" fill="white"/>
<path d="M134.07 71.0664L132.645 71.8994V70.2334L134.07 69.4005V71.0664Z" fill="white"/>
<path d="M137.086 69.3172L135.662 70.1501V68.4842L137.086 67.6512V69.3172Z" fill="white"/>
<path d="M134.572 74.1485L133.148 74.9814V73.3155L134.572 72.4825V74.1485Z" fill="white"/>
<path d="M137.254 72.5658L135.829 73.3987V71.7328L137.254 70.8998V72.5658Z" fill="white"/>
<path d="M146.806 63.7362L145.382 64.5691V62.9032L146.806 62.0702V63.7362Z" fill="white"/>
<path d="M155.102 58.9881L153.677 59.821V58.1551L155.102 57.3221V58.9881Z" fill="white"/>
<path d="M140.102 67.5678L138.678 68.4008V66.7348L140.102 65.9019V67.5678Z" fill="white"/>
<path d="M159.124 36.1643V21.587L140.605 24.0027L126.779 16.006C124.349 14.59 120.411 14.59 117.981 16.006L115.802 17.3388L85.7197 21.3371V36.1643V36.2476C85.7197 37.1639 86.3901 37.9969 87.5632 38.6632L118.148 56.2393C120.578 57.6553 124.517 57.6553 126.947 56.2393L157.364 38.6632C158.537 37.9969 159.124 37.0806 159.207 36.2476V36.1643H159.124Z" fill="url(#paint4_linear_83_413)"/>
<path d="M157.365 18.9215L126.78 1.3455C124.35 -0.0705718 120.411 -0.0705718 117.981 1.3455L87.5637 19.0048C85.1337 20.4209 85.1337 22.6699 87.5637 24.086L118.149 41.662C120.579 43.0781 124.517 43.0781 126.947 41.662L157.365 24.086C159.795 22.5866 159.795 20.3376 157.365 18.9215Z" fill="url(#paint5_radial_83_413)"/>
<path d="M157.364 23.0864L126.947 40.6625C124.517 42.0785 120.579 42.0785 118.149 40.6625L87.5636 23.1697C86.558 22.5867 85.9715 21.837 85.8039 21.0873C85.5525 22.1702 86.1391 23.253 87.5636 24.086L118.149 41.662C120.579 43.0781 124.517 43.0781 126.947 41.662L157.364 24.086C158.789 23.253 159.375 22.1702 159.124 21.0873C158.956 21.837 158.37 22.5034 157.364 23.0864Z" fill="white"/>
<path d="M131.053 45.4937L129.545 46.3267V44.6607L131.053 43.8278V45.4937Z" fill="white"/>
<path d="M134.07 43.7445L132.645 44.5774V42.9115L134.07 42.0785V43.7445Z" fill="white"/>
<path d="M137.086 41.9952L135.662 42.8282V41.1622L137.086 40.3292V41.9952Z" fill="white"/>
<path d="M134.572 46.7433L133.148 47.5762V45.9936L134.572 45.1606V46.7433Z" fill="white"/>
<path d="M137.254 45.2439L135.829 46.0768V44.4109L137.254 43.5779V45.2439Z" fill="white"/>
<path d="M146.806 36.4142L145.382 37.2472V35.5812L146.806 34.7482V36.4142Z" fill="white"/>
<path d="M155.102 31.6662L153.677 32.4992V30.8332L155.102 30.0002V31.6662Z" fill="white"/>
<path d="M140.102 40.2459L138.678 41.0789V39.4129L140.102 38.58V40.2459Z" fill="white"/>
<path d="M68.2908 152.949C66.6149 152.949 65.0228 152.616 63.7659 151.866L33.1809 134.29C31.924 133.54 31.2537 132.541 31.2537 131.541C31.2537 130.458 31.924 129.459 33.1809 128.792L63.5983 111.216C66.1122 109.8 70.2181 109.8 72.7319 111.216L103.317 128.792C104.574 129.542 105.244 130.542 105.244 131.541C105.244 132.624 104.574 133.624 103.317 134.29L72.8995 151.866C71.5588 152.616 69.9667 152.949 68.2908 152.949ZM68.1232 110.633C66.6149 110.633 65.0228 110.966 63.8497 111.633L33.4323 129.209C32.343 129.792 31.7564 130.625 31.7564 131.458C31.7564 132.291 32.343 133.124 33.4323 133.707L64.0173 151.283C66.3635 152.616 70.2181 152.616 72.5643 151.283L102.982 133.707C104.071 133.124 104.658 132.291 104.658 131.458C104.658 130.625 104.071 129.792 102.982 129.209L72.3967 111.633C71.2236 111.05 69.7153 110.633 68.1232 110.633Z" fill="#0F9D87"/>
<path d="M105.077 121.962V107.385L86.5582 109.8L72.7321 101.804C70.3021 100.387 66.3638 100.387 63.9337 101.804L61.7551 103.136L31.6729 107.135V121.962V122.045C31.6729 122.961 32.3432 123.794 33.5163 124.461L64.1013 142.037C66.5313 143.453 70.4697 143.453 72.8997 142.037L103.317 124.461C104.49 123.794 105.077 122.878 105.161 122.045V121.962H105.077Z" fill="url(#paint6_linear_83_413)"/>
<path d="M103.233 104.719L72.6482 87.1431C70.2182 85.727 66.2798 85.727 63.8498 87.1431L33.4324 104.719C31.0024 106.135 31.0024 108.384 33.4324 109.8L64.0174 127.376C66.4474 128.792 70.3858 128.792 72.8158 127.376L103.233 109.8C105.663 108.384 105.663 106.135 103.233 104.719Z" fill="url(#paint7_radial_83_413)"/>
<path d="M103.233 108.884L72.8156 126.46C70.3856 127.876 66.4472 127.876 64.0172 126.46L33.4322 108.884C32.4267 108.301 31.8401 107.551 31.6725 106.801C31.4211 107.884 32.0077 108.967 33.4322 109.8L64.0172 127.376C66.4472 128.792 70.3856 128.792 72.8156 127.376L103.233 109.8C104.658 108.967 105.244 107.884 104.993 106.801C104.825 107.551 104.239 108.301 103.233 108.884Z" fill="white"/>
<path d="M76.9221 131.208L75.4976 132.041V130.375L76.9221 129.542V131.208Z" fill="white"/>
<path d="M80.0222 129.459L78.5139 130.292V128.626L80.0222 127.876V129.459Z" fill="white"/>
<path d="M83.0386 127.793L81.5303 128.626V126.96L83.0386 126.127V127.793Z" fill="white"/>
<path d="M80.5251 132.541L79.1006 133.374V131.708L80.5251 130.875V132.541Z" fill="white"/>
<path d="M83.206 131.041L81.7815 131.874V130.208L83.206 129.375V131.041Z" fill="white"/>
<path d="M92.759 122.212L91.2507 123.045V121.379L92.759 120.546V122.212Z" fill="white"/>
<path d="M101.055 117.38L99.6301 118.213V116.547L101.055 115.714V117.38Z" fill="white"/>
<path d="M86.0554 126.043L84.6309 126.876V125.21L86.0554 124.378V126.043Z" fill="white"/>
<path opacity="0.4" d="M66.6146 119.963L46.085 108.134C45.2471 107.635 45.3308 106.802 46.3364 106.302L66.4471 94.8065C67.4526 94.2234 68.8771 94.2234 69.715 94.6399L90.2447 106.468C91.0826 106.968 90.9988 107.801 89.9933 108.301L69.8826 119.796C68.9609 120.379 67.4526 120.379 66.6146 119.963Z" fill="black"/>
<path d="M58.5706 132.708L41.5603 122.962C41.1413 122.712 40.8062 122.129 40.8062 121.546V120.296C40.8062 119.796 41.1413 119.546 41.5603 119.713L58.5706 129.459C58.9896 129.709 59.3247 130.292 59.3247 130.875V132.124C59.2409 132.708 58.9058 132.957 58.5706 132.708Z" fill="white"/>
<path d="M105.077 94.5566V79.9794L86.5582 82.395L72.7321 74.3984C70.3021 72.9823 66.3638 72.9823 63.9337 74.3984L61.7551 75.7311L31.6729 79.7295V94.4733V94.5566C31.6729 95.4729 32.3432 96.3059 33.5163 96.9723L64.1013 114.548C66.5313 115.964 70.4697 115.964 72.8997 114.548L103.317 96.9723C104.49 96.3059 105.077 95.3896 105.161 94.5566H105.077Z" fill="url(#paint8_linear_83_413)"/>
<path d="M103.233 77.3972L72.6482 59.8212C70.2182 58.4051 66.2798 58.4051 63.8498 59.8212L33.4324 77.3972C31.0024 78.8132 31.0024 81.0623 33.4324 82.4784L64.0174 100.054C66.4474 101.47 70.3858 101.47 72.8158 100.054L103.233 82.4784C105.663 81.0623 105.663 78.8132 103.233 77.3972Z" fill="url(#paint9_radial_83_413)"/>
<path opacity="0.4" d="M88.653 78.48L70.8048 68.2343C69.3803 67.4013 67.1179 67.4013 65.6933 68.2343L48.0127 78.48C46.5882 79.313 46.5882 80.6458 48.0127 81.3955L65.8609 91.6412C67.2854 92.4742 69.5479 92.4742 70.9724 91.6412L88.653 81.3955C90.0775 80.5625 90.0775 79.2297 88.653 78.48Z" fill="black"/>
<path d="M103.233 81.5621L72.8156 99.1381C70.3856 100.554 66.4472 100.554 64.0172 99.1381L33.4322 81.5621C32.4267 80.979 31.8401 80.2293 31.6725 79.4796C31.4211 80.5625 32.0077 81.6454 33.4322 82.4784L64.0172 100.054C66.4472 101.47 70.3856 101.47 72.8156 100.054L103.233 82.4784C104.658 81.6454 105.244 80.5625 104.993 79.4796C104.825 80.2293 104.239 80.979 103.233 81.5621Z" fill="white"/>
<path d="M76.9221 103.886L75.4976 104.719V103.053L76.9221 102.22V103.886Z" fill="white"/>
<path d="M80.0222 102.137L78.5139 102.97V101.304L80.0222 100.471V102.137Z" fill="white"/>
<path d="M83.0386 100.388L81.5303 101.221V99.6379L83.0386 98.8049V100.388Z" fill="white"/>
<path d="M80.5251 105.219L79.1006 106.052V104.386L80.5251 103.553V105.219Z" fill="white"/>
<path d="M83.206 103.72L81.7815 104.553V102.887L83.206 102.054V103.72Z" fill="white"/>
<path d="M92.759 94.8899L91.2507 95.7229V94.0569L92.759 93.2239V94.8899Z" fill="white"/>
<path d="M101.055 90.0586L99.6301 90.8915V89.2256L101.055 88.3926V90.0586Z" fill="white"/>
<path d="M86.0554 98.7216L84.6309 99.5546V97.8887L86.0554 97.0557V98.7216Z" fill="white"/>
<path d="M105.077 67.2349V52.6576L86.5582 55.0732L72.7321 47.0766C70.3021 45.6605 66.3638 45.6605 63.9337 47.0766L61.7551 48.4094L31.6729 52.4077V67.1515V67.2349C31.6729 68.1511 32.3432 68.9841 33.5163 69.6505L64.1013 87.2265C66.5313 88.6426 70.4697 88.6426 72.8997 87.2265L103.317 69.6505C104.49 68.9841 105.077 68.0678 105.161 67.2349H105.077Z" fill="url(#paint10_linear_83_413)"/>
<path d="M103.233 50.0753L72.6482 32.4993C70.2182 31.0832 66.2798 31.0832 63.8498 32.4993L33.4324 50.0753C31.0024 51.4913 31.0024 53.7404 33.4324 55.1565L64.0174 72.7325C66.4474 74.1486 70.3858 74.1486 72.8158 72.7325L103.233 55.1565C105.663 53.7404 105.663 51.408 103.233 50.0753Z" fill="url(#paint11_radial_83_413)"/>
<path d="M103.233 50.0753L72.6482 32.4993C70.2182 31.0832 66.2798 31.0832 63.8498 32.4993L33.4324 50.0753C31.0024 51.4913 31.0024 53.7404 33.4324 55.1565L64.0174 72.7325C66.4474 74.1486 70.3858 74.1486 72.8158 72.7325L103.233 55.1565C105.663 53.7404 105.663 51.408 103.233 50.0753Z" fill="#0F9D87"/>
<path d="M68.3747 66.9849C67.2854 66.9849 66.1122 66.735 65.2743 66.2352L44.996 54.5734C44.0743 54.0736 43.5715 53.3239 43.5715 52.5742C43.5715 51.8245 44.0743 51.0749 44.996 50.5751L65.1067 38.9133C66.8664 37.9137 69.6316 37.9137 71.3075 38.9133L91.5858 50.5751C92.5075 51.0749 93.0103 51.8245 93.0103 52.5742C93.0103 53.3239 92.5075 54.0736 91.5858 54.5734L71.4751 66.2352C70.6371 66.735 69.5478 66.9849 68.3747 66.9849ZM68.2909 38.9966C67.2854 38.9966 66.2798 39.2465 65.6095 39.6629L45.4988 51.3247C44.8285 51.6579 44.4933 52.1577 44.4933 52.6575C44.4933 53.1573 44.8285 53.6571 45.4988 53.9903L65.7771 65.6521C67.2854 66.4851 69.7154 66.4851 71.2237 65.6521L91.3344 53.9903C92.0047 53.6571 92.3399 53.1573 92.3399 52.6575C92.3399 52.1577 92.0047 51.6579 91.3344 51.3247L71.0561 39.6629C70.302 39.1632 69.2964 38.9966 68.2909 38.9966Z" fill="#1A1A1A"/>
<path d="M103.233 54.2402L72.8156 71.8163C70.3856 73.2323 66.4472 73.2323 64.0172 71.8163L33.4322 54.2402C32.4267 53.6572 31.8401 52.9075 31.6725 52.1578C31.4211 53.2407 32.0077 54.3235 33.4322 55.1565L64.0172 72.7325C66.4472 74.1486 70.3856 74.1486 72.8156 72.7325L103.233 55.1565C104.658 54.3235 105.244 53.2407 104.993 52.1578C104.825 52.9075 104.239 53.6572 103.233 54.2402Z" fill="white"/>
<path d="M76.9221 76.5642L75.4976 77.3972V75.7312L76.9221 74.8983V76.5642Z" fill="white"/>
<path d="M80.0222 74.815L78.5139 75.6479V73.982L80.0222 73.149V74.815Z" fill="white"/>
<path d="M83.0386 73.0658L81.5303 73.8987V72.2328L83.0386 71.3998V73.0658Z" fill="white"/>
<path d="M80.5251 77.8971L79.1006 78.7301V77.0641L80.5251 76.2311V77.8971Z" fill="white"/>
<path d="M83.206 76.3144L81.7815 77.1473V75.4814L83.206 74.7317V76.3144Z" fill="white"/>
<path d="M92.759 67.4847L91.2507 68.3176V66.6517L92.759 65.902V67.4847Z" fill="white"/>
<path d="M101.055 62.7367L99.6301 63.5697V61.9037L101.055 61.0707V62.7367Z" fill="white"/>
<path d="M86.0554 71.3164L84.6309 72.1494V70.5668L86.0554 69.7338V71.3164Z" fill="white"/>
<path d="M176.218 152.866C174.542 152.866 172.95 152.532 171.693 151.783L141.108 134.207C139.851 133.457 139.181 132.457 139.181 131.458C139.181 130.375 139.851 129.375 141.108 128.709L171.526 111.133C174.039 109.717 178.145 109.717 180.659 111.133L211.244 128.709C212.501 129.459 213.171 130.458 213.171 131.458C213.171 132.541 212.501 133.54 211.244 134.207L180.827 151.783C179.57 152.532 177.894 152.866 176.218 152.866ZM176.05 110.633C174.542 110.633 172.95 110.966 171.777 111.633L141.36 129.209C140.27 129.792 139.684 130.625 139.684 131.458C139.684 132.291 140.27 133.124 141.36 133.707L171.945 151.283C174.291 152.616 178.145 152.616 180.492 151.283L210.909 133.707C211.998 133.124 212.585 132.291 212.585 131.458C212.585 130.625 211.998 129.792 210.909 129.209L180.324 111.633C179.151 110.966 177.643 110.633 176.05 110.633Z" fill="#0F9D87"/>
<path d="M213.004 121.879V107.301L194.485 109.717L180.659 101.72C178.229 100.304 174.291 100.304 171.86 101.72L169.682 103.053L139.6 107.051V121.795V121.879C139.6 122.795 140.27 123.628 141.443 124.294L172.028 141.87C174.458 143.286 178.396 143.286 180.826 141.87L211.244 124.294C212.417 123.628 213.004 122.712 213.087 121.879H213.004Z" fill="url(#paint12_linear_83_413)"/>
<path d="M211.16 104.719L180.575 87.1431C178.145 85.727 174.207 85.727 171.777 87.1431L141.359 104.719C138.929 106.135 138.929 108.384 141.359 109.8L171.944 127.376C174.374 128.792 178.313 128.792 180.743 127.376L211.16 109.8C213.59 108.384 213.59 106.052 211.16 104.719Z" fill="url(#paint13_radial_83_413)"/>
<path d="M211.16 108.884L180.743 126.46C178.313 127.876 174.375 127.876 171.945 126.46L141.36 108.884C140.354 108.301 139.768 107.551 139.6 106.802C139.349 107.884 139.935 108.967 141.36 109.8L171.945 127.376C174.375 128.792 178.313 128.792 180.743 127.376L211.16 109.8C212.585 108.967 213.172 107.884 212.92 106.802C212.836 107.551 212.25 108.301 211.16 108.884Z" fill="white"/>
<path d="M184.933 131.208L183.424 132.041V130.375L184.933 129.542V131.208Z" fill="white"/>
<path d="M187.949 129.459L186.441 130.292V128.626L187.949 127.793V129.459Z" fill="white"/>
<path d="M190.966 127.709L189.541 128.542V126.876L190.966 126.043V127.709Z" fill="white"/>
<path d="M188.452 132.541L187.027 133.374V131.708L188.452 130.875V132.541Z" fill="white"/>
<path d="M191.134 130.958L189.709 131.791V130.125L191.134 129.292V130.958Z" fill="white"/>
<path d="M200.686 122.128L199.178 122.961V121.296L200.686 120.463V122.128Z" fill="white"/>
<path d="M208.981 117.38L207.557 118.213V116.547L208.981 115.714V117.38Z" fill="white"/>
<path d="M193.982 125.96L192.558 126.793V125.127L193.982 124.294V125.96Z" fill="white"/>
<path opacity="0.4" d="M174.542 119.879L154.012 108.051C153.174 107.551 153.258 106.718 154.263 106.218L174.374 94.7232C175.38 94.1401 176.804 94.1401 177.642 94.5566L198.172 106.385C199.01 106.885 198.926 107.718 197.92 108.218L177.81 119.713C176.888 120.296 175.38 120.379 174.542 119.879Z" fill="black"/>
<path d="M166.498 132.707L149.487 122.962C149.068 122.712 148.733 122.129 148.733 121.545V120.296C148.733 119.796 149.068 119.546 149.487 119.713L166.498 129.459C166.917 129.709 167.252 130.292 167.252 130.875V132.124C167.252 132.707 166.917 132.874 166.498 132.707Z" fill="white"/>
<path d="M213.004 94.5567V79.9794L194.485 82.3951L180.659 74.3984C178.229 72.9823 174.291 72.9823 171.86 74.3984L169.682 75.7312L139.6 79.7295V94.4734V94.5567C139.6 95.473 140.27 96.306 141.443 96.9723L172.028 114.548C174.458 115.964 178.396 115.964 180.826 114.548L211.244 96.9723C212.417 96.306 213.004 95.3897 213.087 94.5567H213.004Z" fill="url(#paint14_linear_83_413)"/>
<path d="M211.16 77.3138L180.575 59.7378C178.145 58.3218 174.207 58.3218 171.777 59.7378L141.359 77.3138C138.929 78.7299 138.929 80.979 141.359 82.3951L171.944 99.9711C174.374 101.387 178.313 101.387 180.743 99.9711L211.16 82.3951C213.59 80.979 213.59 78.7299 211.16 77.3138Z" fill="url(#paint15_radial_83_413)"/>
<path opacity="0.4" d="M196.664 78.3968L178.816 68.151C177.391 67.3181 175.129 67.3181 173.704 68.151L156.023 78.3968C154.599 79.2298 154.599 80.5625 156.023 81.3122L173.872 91.558C175.296 92.3909 177.559 92.3909 178.983 91.558L196.664 81.3122C198.088 80.5625 198.088 79.2298 196.664 78.3968Z" fill="black"/>
<path d="M211.16 81.5621L180.743 99.1381C178.313 100.554 174.375 100.554 171.945 99.1381L141.36 81.5621C140.354 80.979 139.768 80.2293 139.6 79.4796C139.349 80.5625 139.935 81.6454 141.36 82.4784L171.945 100.054C174.375 101.47 178.313 101.47 180.743 100.054L211.16 82.4784C212.585 81.6454 213.172 80.5625 212.92 79.4796C212.836 80.2293 212.25 80.979 211.16 81.5621Z" fill="white"/>
<path d="M184.933 103.886L183.424 104.719V103.053L184.933 102.22V103.886Z" fill="white"/>
<path d="M187.949 102.137L186.441 102.97V101.304L187.949 100.471V102.137Z" fill="white"/>
<path d="M190.966 100.388L189.541 101.221V99.5546L190.966 98.7216V100.388Z" fill="white"/>
<path d="M188.452 105.219L187.027 106.052V104.386L188.452 103.553V105.219Z" fill="white"/>
<path d="M191.134 103.636L189.709 104.469V102.803L191.134 101.97V103.636Z" fill="white"/>
<path d="M200.686 94.8066L199.178 95.6396V93.9736L200.686 93.1406V94.8066Z" fill="white"/>
<path d="M208.981 90.0586L207.557 90.8915V89.2256L208.981 88.3926V90.0586Z" fill="white"/>
<path d="M193.982 98.6383L192.558 99.4713V97.8053L193.982 96.9724V98.6383Z" fill="white"/>
<path d="M213.004 67.2347V52.6574L194.485 55.0731L180.659 47.0764C178.229 45.6603 174.291 45.6603 171.86 47.0764L169.682 48.4092L139.6 52.4075V67.1514V67.2347C139.6 68.151 140.27 68.9839 141.443 69.6503L172.028 87.2263C174.458 88.6424 178.396 88.6424 180.826 87.2263L211.244 69.6503C212.417 68.9839 213.004 68.0677 213.087 67.2347H213.004Z" fill="url(#paint16_linear_83_413)"/>
<path d="M211.16 49.9919L180.575 32.4159C178.145 30.9998 174.207 30.9998 171.777 32.4159L141.359 49.9919C138.929 51.408 138.929 53.657 141.359 55.0731L171.944 72.6491C174.374 74.0652 178.313 74.0652 180.743 72.6491L211.16 55.0731C213.59 53.657 213.59 51.408 211.16 49.9919Z" fill="url(#paint17_radial_83_413)"/>
<path d="M211.16 54.1568L180.743 71.7328C178.313 73.1489 174.375 73.1489 171.945 71.7328L141.36 54.1568C140.354 53.5737 139.768 52.824 139.6 52.0743C139.349 53.1572 139.935 54.2401 141.36 55.0731L171.945 72.6491C174.375 74.0652 178.313 74.0652 180.743 72.6491L211.16 55.0731C212.585 54.2401 213.172 53.1572 212.92 52.0743C212.836 52.9073 212.25 53.5737 211.16 54.1568Z" fill="white"/>
<path d="M184.933 76.564L183.424 77.397V75.7311L184.933 74.8981V76.564Z" fill="white"/>
<path d="M187.949 74.8148L186.441 75.6478V73.9819L187.949 73.1489V74.8148Z" fill="white"/>
<path d="M190.966 73.0656L189.541 73.8986V72.2326L190.966 71.3996V73.0656Z" fill="white"/>
<path d="M188.452 77.8136L187.027 78.6466V76.9806L188.452 76.2309V77.8136Z" fill="white"/>
<path d="M191.134 76.3142L189.709 77.1472V75.4812L191.134 74.6482V76.3142Z" fill="white"/>
<path d="M200.686 67.4845L199.178 68.3175V66.6515L200.686 65.8185V67.4845Z" fill="white"/>
<path d="M208.981 62.7365L207.557 63.5695V61.9035L208.981 61.0706V62.7365Z" fill="white"/>
<path d="M193.982 71.3162L192.558 72.1492V70.4833L193.982 69.6503V71.3162Z" fill="white"/>
<path d="M122.171 184.019C120.495 184.019 118.903 183.686 117.646 182.936L87.0608 165.36C85.8039 164.611 85.1335 163.611 85.1335 162.612C85.1335 161.529 85.8039 160.529 87.0608 159.863L117.478 142.287C119.992 140.871 124.098 140.871 126.612 142.287L157.197 159.863C158.454 160.612 159.124 161.612 159.124 162.612C159.124 163.694 158.454 164.694 157.197 165.36L126.779 182.936C125.439 183.686 123.847 184.019 122.171 184.019ZM122.003 141.704C120.495 141.704 118.903 142.037 117.73 142.703L87.3122 160.279C86.2229 160.862 85.6363 161.695 85.6363 162.528C85.6363 163.361 86.2229 164.194 87.3122 164.777L117.897 182.353C120.243 183.686 124.098 183.686 126.444 182.353L156.862 164.777C157.951 164.194 158.537 163.361 158.537 162.528C158.537 161.695 157.951 160.862 156.862 160.279L126.277 142.786C125.104 142.037 123.511 141.704 122.003 141.704Z" fill="#0F9D87"/>
<path opacity="0.2" d="M149.404 160.612L125.439 146.868C123.511 145.785 120.411 145.785 118.568 146.868L94.7699 160.612C92.8426 161.695 92.8426 163.445 94.7699 164.611L118.735 178.355C120.662 179.438 123.763 179.438 125.606 178.355L149.404 164.611C151.331 163.445 151.331 161.695 149.404 160.612Z" fill="#0F9D87"/>
<path d="M158.957 152.949V138.372L140.439 140.787L126.613 132.791C124.182 131.375 120.244 131.375 117.814 132.791L115.635 134.124L85.5532 138.122V152.866V152.949C85.5532 153.865 86.2236 154.698 87.3967 155.365L117.982 172.941C120.412 174.357 124.35 174.357 126.78 172.941L157.198 155.365C158.371 154.698 158.957 153.782 159.041 152.949H158.957Z" fill="url(#paint18_linear_83_413)"/>
<path d="M157.114 135.789L126.529 118.213C124.099 116.797 120.16 116.797 117.73 118.213L87.3128 135.789C84.8827 137.206 84.8827 139.455 87.3128 140.871L117.898 158.447C120.328 159.863 124.266 159.863 126.696 158.447L157.114 140.871C159.544 139.455 159.544 137.206 157.114 135.789Z" fill="url(#paint19_radial_83_413)"/>
<path d="M157.113 139.954L126.696 157.53C124.266 158.946 120.328 158.946 117.898 157.53L87.3126 139.954C86.307 139.371 85.7205 138.622 85.5529 137.872C85.3015 138.955 85.8881 140.038 87.3126 140.871L117.898 158.447C120.328 159.863 124.266 159.863 126.696 158.447L157.113 140.871C158.538 140.038 159.124 138.955 158.873 137.872C158.705 138.622 158.119 139.371 157.113 139.954Z" fill="white"/>
<path d="M130.801 162.278L129.377 163.111V161.445L130.801 160.612V162.278Z" fill="white"/>
<path d="M133.819 160.529L132.394 161.362V159.696L133.819 158.863V160.529Z" fill="white"/>
<path d="M136.919 158.863L135.41 159.696V158.03L136.919 157.197V158.863Z" fill="white"/>
<path d="M134.405 163.611L132.981 164.444V162.778L134.405 161.945V163.611Z" fill="white"/>
<path d="M137.086 162.112L135.662 162.945V161.279L137.086 160.446V162.112Z" fill="white"/>
<path d="M146.555 153.282L145.131 154.115V152.449L146.555 151.616V153.282Z" fill="white"/>
<path d="M154.935 148.451L153.51 149.284V147.618L154.935 146.785V148.451Z" fill="white"/>
<path d="M139.935 157.114L138.427 157.947V156.281L139.935 155.448V157.114Z" fill="white"/>
<path opacity="0.4" d="M120.495 151.033L99.9654 139.205C99.1274 138.705 99.2112 137.872 100.217 137.372L120.327 125.877C121.333 125.294 122.757 125.294 123.595 125.71L144.125 137.539C144.963 138.039 144.879 138.872 143.874 139.371L123.763 150.867C122.841 151.45 121.333 151.45 120.495 151.033Z" fill="black"/>
<path d="M112.451 163.778L95.4407 154.032C95.0217 153.782 94.6865 153.199 94.6865 152.616V151.366C94.6865 150.866 95.0217 150.617 95.4407 150.783L112.451 160.529C112.87 160.779 113.205 161.362 113.205 161.945V163.195C113.121 163.778 112.786 164.028 112.451 163.778Z" fill="white"/>
<path d="M158.957 125.627V111.05L140.439 113.465L126.613 105.469C124.182 104.053 120.244 104.053 117.814 105.469L115.635 106.801L85.5532 110.8V125.544V125.627C85.5532 126.543 86.2236 127.376 87.3967 128.043L117.982 145.619C120.412 147.035 124.35 147.035 126.78 145.619L157.198 128.043C158.371 127.376 158.957 126.46 159.041 125.627H158.957Z" fill="url(#paint20_linear_83_413)"/>
<path d="M157.114 108.467L126.529 90.8914C124.099 89.4753 120.16 89.4753 117.73 90.8914L87.3128 108.467C84.8827 109.883 84.8827 112.133 87.3128 113.549L117.898 131.125C120.328 132.541 124.266 132.541 126.696 131.125L157.114 113.549C159.544 112.133 159.544 109.883 157.114 108.467Z" fill="url(#paint21_radial_83_413)"/>
<path opacity="0.4" d="M142.533 109.55L124.685 99.3046C123.26 98.4716 120.998 98.4716 119.573 99.3046L101.893 109.55C100.468 110.383 100.468 111.716 101.893 112.466L119.741 122.712C121.165 123.545 123.428 123.545 124.852 122.712L142.533 112.466C143.957 111.633 143.957 110.3 142.533 109.55Z" fill="black"/>
<path d="M157.113 112.632L126.696 130.208C124.266 131.624 120.328 131.624 117.898 130.208L87.3126 112.632C86.307 112.049 85.7205 111.3 85.5529 110.55C85.3015 111.633 85.8881 112.716 87.3126 113.549L117.898 131.125C120.328 132.541 124.266 132.541 126.696 131.125L157.113 113.549C158.538 112.716 159.124 111.633 158.873 110.55C158.705 111.3 158.119 112.049 157.113 112.632Z" fill="white"/>
<path d="M130.801 134.956L129.377 135.789V134.123L130.801 133.29V134.956Z" fill="white"/>
<path d="M133.819 133.207L132.394 134.04V132.374L133.819 131.541V133.207Z" fill="white"/>
<path d="M136.919 131.458L135.41 132.291V130.625L136.919 129.792V131.458Z" fill="white"/>
<path d="M134.405 136.289L132.981 137.122V135.456L134.405 134.623V136.289Z" fill="white"/>
<path d="M137.086 134.79L135.662 135.623V133.957L137.086 133.124V134.79Z" fill="white"/>
<path d="M146.555 125.96L145.131 126.793V125.127L146.555 124.294V125.96Z" fill="white"/>
<path d="M154.935 121.129L153.51 121.962V120.296L154.935 119.463V121.129Z" fill="white"/>
<path d="M139.935 129.792L138.427 130.625V128.959L139.935 128.126V129.792Z" fill="white"/>
<path d="M158.957 98.305V83.7278L140.439 86.1434L126.613 78.1468C124.182 76.7307 120.244 76.7307 117.814 78.1468L115.635 79.4796L85.5532 83.4779V98.2217V98.305C85.5532 99.2213 86.2236 100.054 87.3967 100.721L117.982 118.297C120.412 119.713 124.35 119.713 126.78 118.297L157.198 100.721C158.371 100.054 158.957 99.138 159.041 98.305H158.957Z" fill="url(#paint22_linear_83_413)"/>
<path d="M157.114 81.1456L126.529 63.5696C124.099 62.1535 120.16 62.1535 117.73 63.5696L87.3128 81.1456C84.8827 82.5616 84.8827 84.8107 87.3128 86.2268L117.898 103.803C120.328 105.219 124.266 105.219 126.696 103.803L157.114 86.1435C159.544 84.8107 159.544 82.4783 157.114 81.1456Z" fill="url(#paint23_radial_83_413)"/>
<path d="M157.113 85.3105L126.696 102.887C124.266 104.303 120.328 104.303 117.898 102.887L87.3126 85.3105C86.307 84.7274 85.7205 83.9778 85.5529 83.2281C85.3015 84.311 85.8881 85.3938 87.3126 86.2268L117.898 103.803C120.328 105.219 124.266 105.219 126.696 103.803L157.113 86.1435C158.538 85.3105 159.124 84.2277 158.873 83.1448C158.705 83.9778 158.119 84.7274 157.113 85.3105Z" fill="white"/>
<path d="M130.801 107.634L129.377 108.467V106.801L130.801 105.969V107.634Z" fill="white"/>
<path d="M133.819 105.885L132.394 106.718V105.052L133.819 104.219V105.885Z" fill="white"/>
<path d="M136.919 104.136L135.41 104.969V103.303L136.919 102.47V104.136Z" fill="white"/>
<path d="M134.405 108.967L132.981 109.8V108.134L134.405 107.301V108.967Z" fill="white"/>
<path d="M137.086 107.385L135.662 108.218V106.552L137.086 105.719V107.385Z" fill="white"/>
<path d="M146.555 98.5549L145.131 99.3879V97.722L146.555 96.889V98.5549Z" fill="white"/>
<path d="M154.935 93.807L153.51 94.6399V92.974L154.935 92.141V93.807Z" fill="white"/>
<path d="M139.935 102.387L138.427 103.22V101.554L139.935 100.804V102.387Z" fill="white"/>
<path d="M232.409 174.553L186.28 148.077L186.022 148.52L232.152 174.996L232.409 174.553Z" fill="#0F9D87"/>
<path d="M251.78 163.788L237.012 155.316C235.689 154.513 233.853 154.001 232.016 153.855L216.219 152.614C214.236 152.467 212.399 151.956 211.003 151.153L196.235 142.754L196.456 142.315L211.223 150.788C212.546 151.591 214.383 152.102 216.219 152.248L232.016 153.49C234 153.636 235.836 154.147 237.232 154.951L252 163.423L251.78 163.788Z" fill="#0F9D87"/>
<path d="M212.619 186.284L197.851 177.811C196.382 177.008 195.5 175.912 195.206 174.744L193.076 165.687C192.855 164.665 191.974 163.642 190.651 162.912L175.883 154.439L176.104 154.001L190.872 162.473C192.341 163.277 193.223 164.372 193.516 165.541L195.647 174.598C195.868 175.62 196.749 176.643 198.072 177.373L212.84 185.845L212.619 186.284Z" fill="#0F9D87"/>
<path d="M222.391 180.66L206.668 171.676C205.86 171.238 205.199 170.654 204.758 170.069L198.439 161.962C197.999 161.451 197.411 160.94 196.676 160.501L180.953 151.518L181.174 151.08L196.896 160.063C197.705 160.501 198.366 161.086 198.807 161.67L205.125 169.777C205.566 170.288 206.154 170.8 206.889 171.238L222.612 180.221L222.391 180.66Z" fill="#0F9D87"/>
<path d="M242.008 169.412L226.285 160.428C225.55 159.99 224.669 159.625 223.714 159.406L209.607 155.754C208.579 155.462 207.697 155.097 206.889 154.659L191.166 145.675L191.386 145.237L207.109 154.22C207.844 154.659 208.725 155.024 209.681 155.243L223.787 158.895C224.816 159.187 225.697 159.552 226.506 159.99L242.229 168.974L242.008 169.412Z" fill="#0F9D87"/>
<path d="M47.9348 142.536L47.678 142.093L-0.000206155 169.412L0.256636 169.855L47.9348 142.536Z" fill="#0F9D87"/>
<path d="M54.6926 146.416L54.4358 145.973L6.75761 173.293L7.01445 173.736L54.6926 146.416Z" fill="#0F9D87"/>
<path d="M61.5505 150.323L61.2937 149.88L13.6155 177.2L13.8724 177.643L61.5505 150.323Z" fill="#0F9D87"/>
<path d="M68.3455 154.267L68.0886 153.824L20.4104 181.144L20.6673 181.587L68.3455 154.267Z" fill="#0F9D87"/>
<defs>
<linearGradient id="paint0_linear_83_413" x1="81.3011" y1="90.8388" x2="133.082" y2="90.8388" gradientUnits="userSpaceOnUse">
<stop stop-color="#0F9D87"/>
<stop offset="1" stop-color="#1A1A1A"/>
</linearGradient>
<linearGradient id="paint1_linear_83_413" x1="81.3251" y1="76.2408" x2="133.076" y2="76.2408" gradientUnits="userSpaceOnUse">
<stop stop-color="#0F9D87"/>
<stop offset="1" stop-color="#1A1A1A"/>
</linearGradient>
<linearGradient id="paint2_linear_83_413" x1="81.3011" y1="63.4543" x2="133.082" y2="63.4543" gradientUnits="userSpaceOnUse">
<stop stop-color="#0F9D87"/>
<stop offset="1" stop-color="#1A1A1A"/>
</linearGradient>
<radialGradient id="paint3_radial_83_413" cx="0" cy="0" r="1" gradientUnits="userSpaceOnUse" gradientTransform="translate(72.1197 24.8974) scale(115.637 114.953)">
<stop stop-color="#0F9D87"/>
<stop offset="1" stop-color="#1A1A1A"/>
</radialGradient>
<linearGradient id="paint4_linear_83_413" x1="81.3011" y1="36.1741" x2="133.082" y2="36.1741" gradientUnits="userSpaceOnUse">
<stop stop-color="#0F9D87"/>
<stop offset="1" stop-color="#1A1A1A"/>
</linearGradient>
<radialGradient id="paint5_radial_83_413" cx="0" cy="0" r="1" gradientUnits="userSpaceOnUse" gradientTransform="translate(72.1197 -2.42451) scale(115.637 114.953)">
<stop stop-color="#0F9D87"/>
<stop offset="1" stop-color="#1A1A1A"/>
</radialGradient>
<linearGradient id="paint6_linear_83_413" x1="27.2542" y1="121.972" x2="79.0349" y2="121.972" gradientUnits="userSpaceOnUse">
<stop stop-color="#0F9D87"/>
<stop offset="1" stop-color="#1A1A1A"/>
</linearGradient>
<radialGradient id="paint7_radial_83_413" cx="0" cy="0" r="1" gradientUnits="userSpaceOnUse" gradientTransform="translate(17.9884 83.3783) scale(115.637 114.727)">
<stop stop-color="#0F9D87"/>
<stop offset="1" stop-color="#1A1A1A"/>
</radialGradient>
<linearGradient id="paint8_linear_83_413" x1="27.2542" y1="94.5247" x2="79.0349" y2="94.5247" gradientUnits="userSpaceOnUse">
<stop stop-color="#0F9D87"/>
<stop offset="1" stop-color="#1A1A1A"/>
</linearGradient>
<radialGradient id="paint9_radial_83_413" cx="0" cy="0" r="1" gradientUnits="userSpaceOnUse" gradientTransform="translate(17.9884 56.0564) scale(115.637 114.727)">
<stop stop-color="#0F9D87"/>
<stop offset="1" stop-color="#1A1A1A"/>
</radialGradient>
<linearGradient id="paint10_linear_83_413" x1="27.2542" y1="67.2029" x2="79.0349" y2="67.2029" gradientUnits="userSpaceOnUse">
<stop stop-color="#0F9D87"/>
<stop offset="1" stop-color="#1A1A1A"/>
</linearGradient>
<radialGradient id="paint11_radial_83_413" cx="0" cy="0" r="1" gradientUnits="userSpaceOnUse" gradientTransform="translate(18.0503 28.6732) scale(115.637 114.953)">
<stop stop-color="#0F9D87"/>
<stop offset="1" stop-color="#1A1A1A"/>
</radialGradient>
<linearGradient id="paint12_linear_83_413" x1="135.181" y1="121.847" x2="186.962" y2="121.847" gradientUnits="userSpaceOnUse">
<stop stop-color="#0F9D87"/>
<stop offset="1" stop-color="#1A1A1A"/>
</linearGradient>
<radialGradient id="paint13_radial_83_413" cx="0" cy="0" r="1" gradientUnits="userSpaceOnUse" gradientTransform="translate(125.915 83.3783) scale(115.637 114.727)">
<stop stop-color="#0F9D87"/>
<stop offset="1" stop-color="#1A1A1A"/>
</radialGradient>
<linearGradient id="paint14_linear_83_413" x1="135.181" y1="94.5248" x2="186.962" y2="94.5248" gradientUnits="userSpaceOnUse">
<stop stop-color="#0F9D87"/>
<stop offset="1" stop-color="#1A1A1A"/>
</linearGradient>
<radialGradient id="paint15_radial_83_413" cx="0" cy="0" r="1" gradientUnits="userSpaceOnUse" gradientTransform="translate(125.915 55.9731) scale(115.637 114.727)">
<stop stop-color="#0F9D87"/>
<stop offset="1" stop-color="#1A1A1A"/>
</radialGradient>
<linearGradient id="paint16_linear_83_413" x1="135.181" y1="67.2027" x2="186.962" y2="67.2027" gradientUnits="userSpaceOnUse">
<stop stop-color="#0F9D87"/>
<stop offset="1" stop-color="#1A1A1A"/>
</linearGradient>
<radialGradient id="paint17_radial_83_413" cx="0" cy="0" r="1" gradientUnits="userSpaceOnUse" gradientTransform="translate(125.915 28.6512) scale(115.637 114.727)">
<stop stop-color="#0F9D87"/>
<stop offset="1" stop-color="#1A1A1A"/>
</radialGradient>
<linearGradient id="paint18_linear_83_413" x1="81.1346" y1="152.917" x2="132.915" y2="152.917" gradientUnits="userSpaceOnUse">
<stop stop-color="#0F9D87"/>
<stop offset="1" stop-color="#1A1A1A"/>
</linearGradient>
<radialGradient id="paint19_radial_83_413" cx="0" cy="0" r="1" gradientUnits="userSpaceOnUse" gradientTransform="translate(71.8688 114.449) scale(115.637 114.727)">
<stop stop-color="#0F9D87"/>
<stop offset="1" stop-color="#1A1A1A"/>
</radialGradient>
<linearGradient id="paint20_linear_83_413" x1="81.1346" y1="125.595" x2="132.915" y2="125.595" gradientUnits="userSpaceOnUse">
<stop stop-color="#0F9D87"/>
<stop offset="1" stop-color="#1A1A1A"/>
</linearGradient>
<radialGradient id="paint21_radial_83_413" cx="0" cy="0" r="1" gradientUnits="userSpaceOnUse" gradientTransform="translate(71.8688 87.1267) scale(115.637 114.727)">
<stop stop-color="#0F9D87"/>
<stop offset="1" stop-color="#1A1A1A"/>
</radialGradient>
<linearGradient id="paint22_linear_83_413" x1="81.1346" y1="98.2731" x2="132.915" y2="98.2731" gradientUnits="userSpaceOnUse">
<stop stop-color="#0F9D87"/>
<stop offset="1" stop-color="#1A1A1A"/>
</linearGradient>
<radialGradient id="paint23_radial_83_413" cx="0" cy="0" r="1" gradientUnits="userSpaceOnUse" gradientTransform="translate(71.8688 59.8049) scale(115.637 114.727)">
<stop stop-color="#0F9D87"/>
<stop offset="1" stop-color="#1A1A1A"/>
</radialGradient>
</defs>
</svg>
