<svg width="168" height="187" viewBox="0 0 168 187" fill="none" xmlns="http://www.w3.org/2000/svg">
<path opacity="0.4" d="M62.7155 75.035C62.7155 75.5489 62.2725 75.9893 61.7557 75.9893C61.2389 75.9893 60.7959 75.5489 60.7959 75.035C60.7959 74.5211 61.2389 74.0807 61.7557 74.0807C62.2725 74.0807 62.7155 74.5211 62.7155 75.035Z" fill="#172F78"/>
<path opacity="0.4" d="M76.4364 61.2341C76.4364 63.2896 74.7394 64.978 72.6735 64.978C70.6076 64.978 68.9106 63.2896 68.9106 61.2341C68.9106 59.1786 70.6076 57.4902 72.6735 57.4902C74.7394 57.4902 76.4364 59.1786 76.4364 61.2341Z" fill="#172F78"/>
<path opacity="0.8" d="M74.223 61.2341C74.223 62.115 73.5588 62.7757 72.6733 62.7757C71.7877 62.7757 71.1235 62.115 71.1235 61.2341C71.1235 60.3532 71.7877 59.6925 72.6733 59.6925C73.5588 59.6925 74.223 60.3532 74.223 61.2341Z" fill="#172F78"/>
<path opacity="0.4" d="M57.9937 57.637C59.0533 57.637 59.9124 56.7825 59.9124 55.7284C59.9124 54.6743 59.0533 53.8198 57.9937 53.8198C56.934 53.8198 56.075 54.6743 56.075 55.7284C56.075 56.7825 56.934 57.637 57.9937 57.637Z" fill="#03A7D3"/>
<path opacity="0.8" d="M57.9935 56.6827C58.5236 56.6827 58.9533 56.2554 58.9533 55.7284C58.9533 55.2013 58.5236 54.774 57.9935 54.774C57.4634 54.774 57.0337 55.2013 57.0337 55.7284C57.0337 56.2554 57.4634 56.6827 57.9935 56.6827Z" fill="#03A7D3"/>
<path opacity="0.4" d="M43.683 121.943C43.683 122.237 43.3877 122.531 43.0924 122.531C42.797 122.531 42.5017 122.237 42.5017 121.943C42.5017 121.65 42.797 121.356 43.0924 121.356C43.3877 121.356 43.683 121.65 43.683 121.943Z" fill="#03A7D3"/>
<path opacity="0.6" d="M38.1041 20.6389C50.9397 16.8951 66.2096 14.8396 82.4385 14.9864C84.5778 14.9864 86.717 15.0598 88.7825 15.1332C103.02 16.4546 108.11 31.4301 99.5526 37.9635C95.5691 40.9732 90.848 40.9732 88.7825 40.8998C86.717 40.8264 84.5778 40.753 82.4385 40.753C66.2096 40.6062 50.9397 42.7351 38.1041 46.4055C25.121 49.5621 24.3833 36.4219 28.8832 28.3469C30.4323 25.7776 33.2355 22.1805 38.1041 20.6389Z" fill="#49AF62" fill-opacity="0.3"/>
<path d="M34.4895 47.213C31.0225 47.213 29.1045 45.7448 27.998 44.35C24.8997 40.2391 26.0063 33.045 28.6619 28.3468C30.211 25.6307 33.088 22.0336 38.0304 20.4187C51.3823 16.6014 66.726 14.6193 82.4385 14.7662C84.5778 14.7662 86.7171 14.8396 88.7826 14.913C95.938 15.5737 101.692 19.9048 103.462 25.9977C104.864 30.6959 103.389 35.3941 99.6264 38.2571C95.5692 41.3402 90.7743 41.2668 88.7088 41.2668C86.5695 41.1934 84.4303 41.12 82.3648 41.12C66.6523 40.9732 51.3823 42.9552 38.1042 46.7725C36.7763 47.0661 35.5223 47.213 34.4895 47.213ZM38.1779 20.9325C33.383 22.4741 30.6536 25.9243 29.1045 28.5671C26.5226 33.1184 25.4161 40.0923 28.3668 43.983C30.2848 46.4789 33.6043 47.213 37.9566 46.1852C51.2348 42.368 66.6523 40.3859 82.3648 40.5327C84.504 40.5327 86.6433 40.6061 88.7088 40.6796C90.7005 40.6796 95.4216 40.753 99.2576 37.7432C102.798 35.0271 104.2 30.5491 102.872 26.0711C101.176 20.1984 95.5692 16.0141 88.635 15.4268C86.5695 15.3534 84.4303 15.28 82.291 15.28C66.726 15.1332 51.4561 17.1152 38.1779 20.9325Z" fill="url(#paint0_radial_102_355)"/>
<path d="M82.0558 159.675C79.8828 159.675 77.7097 159.205 76.1035 158.265L36.0432 135.229C34.3425 134.289 33.4922 132.973 33.4922 131.562C33.4922 130.152 34.437 128.836 36.0432 127.895L75.9145 104.86C79.2214 102.98 84.5124 102.98 87.8192 104.86L127.88 127.895C129.58 128.836 130.431 130.152 130.431 131.562C130.431 132.973 129.486 134.289 127.88 135.229L88.0082 158.265C86.3075 159.205 84.2289 159.675 82.0558 159.675ZM81.8669 104.202C79.8828 104.202 77.8042 104.672 76.2924 105.518L36.4211 128.554C35.0039 129.4 34.248 130.434 34.248 131.562C34.248 132.691 35.0039 133.725 36.4211 134.571L76.4814 157.607C79.5993 159.393 84.6068 159.393 87.6303 157.607L127.502 134.571C128.919 133.725 129.675 132.691 129.675 131.562C129.675 130.434 128.919 129.4 127.502 128.554L87.4413 105.518C85.8351 104.672 83.851 104.202 81.8669 104.202Z" fill="url(#paint1_radial_102_355)"/>
<path d="M82.0558 172.932C79.8828 172.932 77.7097 172.462 76.1035 171.522L36.0432 148.486C34.3425 147.546 33.4922 146.23 33.4922 144.82C33.4922 143.409 34.437 142.093 36.0432 141.153L75.9145 118.117C79.2214 116.237 84.5124 116.237 87.8192 118.117L127.88 141.153C129.58 142.093 130.431 143.409 130.431 144.82C130.431 146.23 129.486 147.546 127.88 148.486L88.0082 171.522C86.3075 172.462 84.2289 172.932 82.0558 172.932ZM81.8669 117.553C79.8828 117.553 77.8042 118.023 76.2924 118.869L36.4211 141.905C35.0039 142.751 34.248 143.785 34.248 144.914C34.248 146.042 35.0039 147.076 36.4211 147.922L76.4814 170.958C79.5993 172.744 84.6068 172.744 87.6303 170.958L127.502 147.922C128.919 147.076 129.675 146.042 129.675 144.914C129.675 143.785 128.919 142.751 127.502 141.905L87.4413 118.869C85.8351 117.929 83.851 117.553 81.8669 117.553Z" fill="url(#paint2_radial_102_355)"/>
<path d="M82.0558 186.283C79.8828 186.283 77.7097 185.813 76.1035 184.873L36.0432 161.838C34.3425 160.897 33.4922 159.581 33.4922 158.171C33.4922 156.76 34.437 155.444 36.0432 154.504L75.9145 131.468C79.2214 129.588 84.5124 129.588 87.8192 131.468L127.88 154.504C129.58 155.444 130.431 156.76 130.431 158.171C130.431 159.581 129.486 160.897 127.88 161.838L88.0082 184.873C86.3075 185.813 84.2289 186.283 82.0558 186.283ZM81.8669 130.81C79.8828 130.81 77.8042 131.28 76.2924 132.126L36.4211 155.162C35.0039 156.008 34.248 157.042 34.248 158.171C34.248 159.299 35.0039 160.333 36.4211 161.179L76.4814 184.215C79.5993 186.001 84.6068 186.001 87.6303 184.215L127.502 161.179C128.919 160.333 129.675 159.299 129.675 158.171C129.675 157.042 128.919 156.008 127.502 155.162L87.4413 132.126C85.8351 131.28 83.851 130.81 81.8669 130.81Z" fill="url(#paint3_radial_102_355)"/>
<path d="M130.242 118.963V99.8768L105.96 103.074L87.8195 92.6371C84.6071 90.8506 79.5051 90.8506 76.2927 92.6371L73.4582 94.4235L34.0593 99.6888V119.057V119.151C34.0593 120.28 34.9097 121.502 36.4214 122.348L76.4817 145.384C79.694 147.17 84.796 147.17 88.0084 145.384L127.88 122.348C129.391 121.502 130.242 120.28 130.242 119.151V118.963Z" fill="url(#paint4_linear_102_355)"/>
<path d="M127.879 96.398L87.8191 73.3625C84.6067 71.576 79.5047 71.576 76.2923 73.3625L36.421 96.398C33.2086 98.1844 33.2086 101.193 36.421 103.074L76.4813 126.109C79.6937 127.896 84.7957 127.896 88.0081 126.109L127.879 103.074C130.997 101.193 130.997 98.2784 127.879 96.398Z" fill="url(#paint5_radial_102_355)"/>
<path d="M127.88 101.851L88.0083 124.887C84.7959 126.673 79.6939 126.673 76.4815 124.887L36.4212 101.851C35.0985 101.099 34.3427 100.159 34.0592 99.1246C33.7758 100.535 34.5316 101.945 36.4212 102.98L76.4815 126.015C79.6939 127.801 84.7959 127.801 88.0083 126.015L127.88 102.98C129.769 101.945 130.525 100.441 130.242 99.1246C129.958 100.159 129.202 101.099 127.88 101.851Z" fill="white"/>
<path d="M93.3954 131.186L91.5042 132.315V130.058L93.3954 129.024V131.186Z" fill="white"/>
<path d="M97.3639 128.93L95.4727 129.964V127.802L97.3639 126.767V128.93Z" fill="white"/>
<path d="M101.332 126.673L99.4409 127.707V125.545L101.332 124.417V126.673Z" fill="white"/>
<path d="M98.1198 132.879L96.2285 134.007V131.844L98.1198 130.716V132.879Z" fill="white"/>
<path d="M101.615 130.904L99.7239 132.032V129.776L101.615 128.742V130.904Z" fill="white"/>
<path d="M114.087 119.339L112.196 120.374V118.211L114.087 117.177V119.339Z" fill="white"/>
<path d="M124.953 113.04L123.061 114.168V111.912L124.953 110.877V113.04Z" fill="white"/>
<path d="M105.3 124.323L103.409 125.451V123.288L105.3 122.16V124.323Z" fill="white"/>
<path opacity="0.4" d="M79.8838 116.331L52.956 100.817C51.8222 100.159 52.0112 99.1245 53.2395 98.3724L79.6003 83.2348C80.8286 82.4826 82.8127 82.3885 83.8521 83.0467L110.78 98.5604C111.914 99.2186 111.725 100.253 110.496 101.005L84.1355 116.143C82.9072 116.895 80.9231 116.989 79.8838 116.331Z" fill="black"/>
<path d="M69.3018 133.161L47.0977 120.374C46.5308 120.092 46.1528 119.245 46.1528 118.587V116.989C46.1528 116.331 46.6253 115.955 47.0977 116.237L69.3018 129.024C69.8687 129.306 70.2467 130.152 70.2467 130.81V132.409C70.2467 133.067 69.7742 133.443 69.3018 133.161Z" fill="white"/>
<path d="M130.242 83.1408V64.0542L105.96 67.251L87.8195 56.8145C84.6071 55.0281 79.5051 55.0281 76.2927 56.8145L73.4582 58.6009L34.0593 63.8662V83.2348V83.3288C34.0593 84.4571 34.9097 85.6794 36.4214 86.5256L76.4817 109.561C79.694 111.348 84.796 111.348 88.0084 109.561L127.88 86.5256C129.391 85.6794 130.242 84.4571 130.242 83.3288V83.1408Z" fill="url(#paint6_linear_102_355)"/>
<path d="M127.879 60.5754L87.8191 37.5399C84.6067 35.7535 79.5047 35.7535 76.2923 37.5399L36.421 60.5754C33.2086 62.3618 33.2086 65.3706 36.421 67.251L76.4813 90.2865C79.6937 92.073 84.7957 92.073 88.0081 90.2865L127.879 67.251C130.997 65.3706 130.997 62.3618 127.879 60.5754Z" fill="url(#paint7_radial_102_355)"/>
<path opacity="0.4" d="M108.795 61.8917L85.4578 48.4465C83.5682 47.4123 80.5447 47.4123 78.7495 48.4465L55.5066 61.9858C53.6169 63.02 53.6169 64.8064 55.5066 65.8407L78.844 79.2859C80.7337 80.3201 83.7571 80.3201 85.5523 79.2859L108.795 65.8407C110.59 64.7124 110.59 63.02 108.795 61.8917Z" fill="black"/>
<path d="M127.88 66.0288L88.0083 89.0643C84.7959 90.8507 79.6939 90.8507 76.4815 89.0643L36.4212 66.0288C35.0985 65.2766 34.3427 64.3364 34.0592 63.3021C33.7758 64.7125 34.5316 66.1228 36.4212 67.157L76.4815 90.1926C79.6939 91.979 84.7959 91.979 88.0083 90.1926L127.88 67.157C129.769 66.1228 130.525 64.6184 130.242 63.3021C129.958 64.2423 129.202 65.2766 127.88 66.0288Z" fill="white"/>
<path d="M93.3954 95.3638L91.5042 96.398V94.2355L93.3954 93.2012V95.3638Z" fill="white"/>
<path d="M97.3639 93.0132L95.4727 94.1415V91.979L97.3639 90.8507V93.0132Z" fill="white"/>
<path d="M101.332 90.7566L99.4409 91.8849V89.7224L101.332 88.5941V90.7566Z" fill="white"/>
<path d="M98.1198 97.0562L96.2285 98.1845V95.9279L98.1198 94.8937V97.0562Z" fill="white"/>
<path d="M101.615 95.0817L99.7239 96.1159V93.9534L101.615 92.8251V95.0817Z" fill="white"/>
<path d="M114.087 83.4229L112.196 84.5512V82.3886L114.087 81.2604V83.4229Z" fill="white"/>
<path d="M124.953 77.2174L123.061 78.2517V76.0891L124.953 74.9609V77.2174Z" fill="white"/>
<path d="M105.3 88.5001L103.409 89.6284V87.3718L105.3 86.3376V88.5001Z" fill="white"/>
<path d="M130.242 47.2242V28.1376L105.96 31.3344L87.8195 20.8979C84.6071 19.1114 79.5051 19.1114 76.2927 20.8979L73.4582 22.6843L34.0593 27.9496V47.3182V47.4122C34.0593 48.5405 34.9097 49.7628 36.4214 50.609L76.4817 73.6445C79.694 75.4309 84.796 75.4309 88.0084 73.6445L127.88 50.609C129.391 49.7628 130.242 48.5405 130.242 47.4122V47.2242Z" fill="url(#paint8_linear_102_355)"/>
<path d="M127.879 24.6588L87.8191 1.62327C84.6067 -0.16316 79.5047 -0.16316 76.2923 1.62327L36.421 24.7528C33.2086 26.5392 33.2086 29.548 36.421 31.4284L76.4813 54.4639C79.6937 56.2503 84.7957 56.2503 88.0081 54.4639L127.879 31.4284C130.997 29.4539 130.997 26.5392 127.879 24.6588Z" fill="url(#paint9_radial_102_355)"/>
<path d="M127.879 24.6588L87.8191 1.62327C84.6067 -0.16316 79.5047 -0.16316 76.2923 1.62327L36.421 24.7528C33.2086 26.5392 33.2086 29.548 36.421 31.4284L76.4813 54.4639C79.6937 56.2503 84.7957 56.2503 88.0081 54.4639L127.879 31.4284C130.997 29.4539 130.997 26.5392 127.879 24.6588Z" fill="#0F9D87"/>
<path d="M82.2454 46.9421C80.7337 46.9421 79.3165 46.66 78.1827 46.0019L51.5388 30.6762C50.3105 30.0181 49.6492 29.0778 49.6492 28.0436C49.6492 27.0093 50.3105 26.0691 51.5388 25.411L77.8992 10.1793C80.1668 8.863 83.7571 8.863 86.0247 10.1793L112.574 25.411C113.802 26.0691 114.464 27.0093 114.464 28.0436C114.464 29.0778 113.802 30.0181 112.574 30.6762L86.2136 45.9079C85.1743 46.566 83.6626 46.9421 82.2454 46.9421ZM82.0564 10.1793C80.7337 10.1793 79.5054 10.4614 78.4661 11.0255L52.1057 26.2572C51.2554 26.7273 50.7829 27.3854 50.7829 28.0436C50.7829 28.7017 51.2554 29.2659 52.1057 29.83L78.6551 45.0617C80.6392 46.1899 83.8516 46.1899 85.7412 45.0617L112.102 29.83C112.952 29.3599 113.424 28.7017 113.424 28.0436C113.424 27.3854 112.952 26.8213 112.102 26.2572L85.6467 11.0255C84.6074 10.4614 83.3792 10.1793 82.0564 10.1793Z" fill="black"/>
<path d="M127.88 30.2062L88.0083 53.2417C84.7959 55.0281 79.6939 55.0281 76.4815 53.2417L36.4212 30.2062C35.0985 29.454 34.3427 28.5138 34.0592 27.4796C33.7758 28.8899 34.5316 30.3002 36.4212 31.3345L76.4815 54.37C79.6939 56.1564 84.7959 56.1564 88.0083 54.37L127.88 31.3345C129.769 30.3002 130.525 28.7959 130.242 27.4796C129.958 28.4198 129.202 29.36 127.88 30.2062Z" fill="white"/>
<path d="M93.3954 59.4471L91.5042 60.5754V58.4129L93.3954 57.2846V59.4471Z" fill="white"/>
<path d="M97.3639 57.1906L95.4727 58.3189V56.1564L97.3639 55.0281V57.1906Z" fill="white"/>
<path d="M101.332 54.9341L99.4409 55.9683V53.8058L101.332 52.7715V54.9341Z" fill="white"/>
<path d="M98.1198 61.2336L96.2285 62.2678V60.1053L98.1198 58.9771V61.2336Z" fill="white"/>
<path d="M101.615 59.1651L99.7239 60.2934V58.1308L101.615 57.0026V59.1651Z" fill="white"/>
<path d="M114.087 47.6003L112.196 48.7286V46.5661L114.087 45.4378V47.6003Z" fill="white"/>
<path d="M124.953 41.3008L123.061 42.4291V40.2666L124.953 39.1383V41.3008Z" fill="white"/>
<path d="M105.3 52.6776L103.409 53.7118V51.5493L105.3 50.421V52.6776Z" fill="white"/>
<path opacity="0.6" d="M84.7735 102.417C82.708 102.491 80.6425 102.491 78.577 102.491C62.2743 102.344 47.152 99.9949 34.5377 96.0308C21.9234 92.654 21.1857 105.794 25.6118 113.869C28.71 119.669 32.9886 121.21 34.5377 121.797C47.152 125.761 62.2743 128.111 78.577 128.257C80.6425 128.257 82.708 128.257 84.7735 128.184C99.6008 127.083 103.437 112.988 96.5025 106.381C94.6583 104.546 91.0437 102.344 84.7735 102.417Z" fill="#49AF62" fill-opacity="0.3"/>
<g opacity="0.3">
<path d="M167.347 84.358L167.126 83.9175C166.904 83.477 166.683 82.8898 166.388 82.1557C163.658 74.1541 155.617 66.8866 143.15 61.1607C134.519 56.2423 132.38 49.195 131.863 46.4055C131.273 43.1021 131.937 38.4039 134.814 35.908C136.88 34.0727 139.757 33.7057 143.298 34.8802C155.912 40.6796 164.101 48.0205 166.831 56.1689C167.421 58.4446 167.863 60.2798 167.863 68.3548V82.0823C167.863 83.2568 167.863 83.3302 167.494 83.9175L167.347 84.358ZM132.453 46.2586C132.97 48.9748 134.962 55.8752 143.445 60.6468C156.06 66.4461 164.175 73.7871 166.978 81.9355C167.126 82.3759 167.273 82.8164 167.421 83.11C167.421 82.8898 167.421 82.6695 167.421 82.0823V68.3548C167.421 60.2798 166.978 58.518 166.388 56.3157C163.658 48.3141 155.617 41.12 143.15 35.3941C139.83 34.293 137.175 34.66 135.183 36.3484C132.527 38.6241 131.863 43.1021 132.453 46.2586Z" fill="url(#paint10_radial_102_355)"/>
<path d="M0.608389 88.2834H-0.00146484V62.1542C-0.00146484 61.9315 -0.00146484 61.7088 -0.00146484 61.4862C0.150999 57.1808 1.8281 52.9496 5.02983 48.9412L5.18229 48.7927C5.79215 48.1989 6.6307 47.3823 7.46925 47.3081C8.61272 47.1596 9.67997 47.6792 10.4423 48.9412C13.1104 53.0239 12.8817 64.8265 5.48722 75.3673C1.21824 80.9346 0.913316 84.2008 0.608389 88.2834ZM7.8504 47.7535C7.77417 47.7535 7.69794 47.7535 7.54548 47.7535C6.85939 47.9019 6.09707 48.6442 5.56345 49.1639L5.48722 49.2381C2.43795 53.1723 0.760853 57.255 0.608389 61.4862C0.608389 61.7088 0.608389 61.9315 0.608389 62.1542V83.8296C1.14201 81.3058 2.28549 78.6335 5.10606 74.9219C12.2718 64.6038 12.5768 53.0981 9.98489 49.0896C9.5275 48.4958 8.84142 47.7535 7.8504 47.7535Z" fill="url(#paint11_radial_102_355)"/>
</g>
<path d="M6.43417 101.283C5.7819 101.283 4.9122 100.919 3.89756 99.6068C0.56372 95.0143 0.273821 90.6405 0.0563965 87.9433L0.0563965 62.2834H0.636194C0.636194 66.147 1.86826 70.0105 4.33241 73.6554C9.76801 82.6947 10.4203 91.5881 9.91296 95.4517C9.55058 98.5863 8.31851 100.846 6.86902 101.211C6.72407 101.283 6.57912 101.283 6.43417 101.283ZM0.636194 66.7302V87.8704C0.853618 90.4218 1.14352 94.7956 4.33241 99.2423C4.9122 100.044 5.7819 100.919 6.72407 100.627C7.95614 100.336 9.04326 98.2218 9.40563 95.3059C9.84048 91.5152 9.26069 82.7676 3.89756 73.8741C2.30311 71.6143 1.21599 69.2087 0.636194 66.7302Z" fill="url(#paint12_radial_102_355)"/>
<path d="M80.1106 128.499C79.668 128.499 79.1516 128.499 78.709 128.499C62.9227 128.352 47.6528 126.15 34.5959 122.039C32.973 121.452 28.6207 119.837 25.4487 113.964C22.7931 109.119 21.7603 101.778 24.9323 97.8142C26.3339 96.0524 29.1371 94.2172 34.7434 95.6854C47.8003 99.7963 62.9965 101.999 78.709 102.145C80.7745 102.145 82.84 102.145 84.9055 102.072C91.2495 102.072 94.8641 104.274 96.8558 106.109C100.102 109.193 101.134 114.111 99.5115 118.662C97.446 124.242 92.0609 127.912 84.9792 128.426C83.2826 128.499 81.6597 128.499 80.1106 128.499ZM30.9075 95.7588C28.4732 95.7588 26.629 96.5663 25.3012 98.1813C22.2767 101.999 23.3095 109.046 25.8913 113.744C28.9896 119.397 33.1206 120.938 34.6697 121.525C47.6528 125.563 62.8489 127.839 78.6352 127.912C80.7007 127.912 82.7662 127.912 84.8317 127.839C91.6921 127.325 96.9296 123.801 98.9213 118.442C100.47 114.111 99.5115 109.413 96.4132 106.477C94.569 104.715 91.0282 102.586 85.053 102.586C84.9792 102.586 84.9055 102.586 84.8317 102.586C82.7662 102.659 80.7007 102.659 78.6352 102.659C62.8489 102.512 47.579 100.31 34.5221 96.1992C33.2681 95.9056 32.014 95.7588 30.9075 95.7588Z" fill="url(#paint13_radial_102_355)"/>
<path d="M137.266 117.283C134.742 117.283 132.589 116.336 131.178 114.586C128.357 111.158 128.283 104.961 131.03 99.8564C134.148 94.0959 138.974 91.5439 140.755 90.596C153.748 85.1272 162.434 78.0543 165.849 70.1793C166.22 69.3772 166.517 68.7939 166.814 68.4293L166.888 68.3564L167.556 68.2834L167.63 68.5022C167.853 69.1584 167.927 69.3772 168.002 72.4397V80.3147C167.927 91.4709 167.259 93.5126 166.443 96.0647C162.953 104.086 154.193 111.231 141.052 116.773C139.716 117.065 138.454 117.283 137.266 117.283ZM167.185 68.8668C166.962 69.2314 166.665 69.7418 166.368 70.398C162.879 78.4189 154.119 85.5647 141.052 91.1064C139.271 92.0543 134.594 94.4605 131.55 100.148C128.877 105.106 128.951 111.013 131.624 114.294C133.034 115.971 135.781 117.721 140.83 116.263C153.822 110.794 162.434 103.721 165.849 95.846C166.665 93.3668 167.333 91.3251 167.408 80.3147V72.4397C167.333 69.8876 167.333 69.3043 167.185 68.8668Z" fill="url(#paint14_radial_102_355)"/>
<defs>
<radialGradient id="paint0_radial_102_355" cx="0" cy="0" r="1" gradientUnits="userSpaceOnUse" gradientTransform="translate(11.682 12.6878) scale(122.588 87.9045)">
<stop stop-color="#0F9D87"/>
<stop offset="1" stop-color="#1A1A1A"/>
</radialGradient>
<radialGradient id="paint1_radial_102_355" cx="0" cy="0" r="1" gradientUnits="userSpaceOnUse" gradientTransform="translate(33.6811 103.356) scale(96.3714 96.1598)">
<stop stop-color="#0F9D87"/>
<stop offset="1" stop-color="#1A1A1A"/>
</radialGradient>
<radialGradient id="paint2_radial_102_355" cx="0" cy="0" r="1" gradientUnits="userSpaceOnUse" gradientTransform="translate(33.6811 113.119) scale(96.3714 96.1598)">
<stop stop-color="#0F9D87"/>
<stop offset="1" stop-color="#1A1A1A"/>
</radialGradient>
<radialGradient id="paint3_radial_102_355" cx="0" cy="0" r="1" gradientUnits="userSpaceOnUse" gradientTransform="translate(33.6811 126.47) scale(96.3714 96.1598)">
<stop stop-color="#0F9D87"/>
<stop offset="1" stop-color="#1A1A1A"/>
</radialGradient>
<linearGradient id="paint4_linear_102_355" x1="28.2761" y1="119.078" x2="96.0479" y2="119.078" gradientUnits="userSpaceOnUse">
<stop stop-color="#0F9D87"/>
<stop offset="1" stop-color="#1A1A1A"/>
</linearGradient>
<radialGradient id="paint5_radial_102_355" cx="0" cy="0" r="1" gradientUnits="userSpaceOnUse" gradientTransform="translate(16.1691 68.4861) scale(151.472 150.125)">
<stop stop-color="#0F9D87"/>
<stop offset="1" stop-color="#1A1A1A"/>
</radialGradient>
<linearGradient id="paint6_linear_102_355" x1="28.2761" y1="83.2552" x2="96.0479" y2="83.2552" gradientUnits="userSpaceOnUse">
<stop stop-color="#0F9D87"/>
<stop offset="1" stop-color="#1A1A1A"/>
</linearGradient>
<radialGradient id="paint7_radial_102_355" cx="0" cy="0" r="1" gradientUnits="userSpaceOnUse" gradientTransform="translate(16.1691 32.6636) scale(151.472 150.125)">
<stop stop-color="#0F9D87"/>
<stop offset="1" stop-color="#1A1A1A"/>
</radialGradient>
<linearGradient id="paint8_linear_102_355" x1="28.2761" y1="47.3385" x2="96.0479" y2="47.3385" gradientUnits="userSpaceOnUse">
<stop stop-color="#0F9D87"/>
<stop offset="1" stop-color="#1A1A1A"/>
</linearGradient>
<radialGradient id="paint9_radial_102_355" cx="0" cy="0" r="1" gradientUnits="userSpaceOnUse" gradientTransform="translate(16.1964 -3.35533) scale(151.54 150.803)">
<stop stop-color="#01C8EF"/>
<stop offset="0.1396" stop-color="#03BAE4"/>
<stop offset="0.4033" stop-color="#0895C8"/>
<stop offset="0.76" stop-color="#115A9A"/>
<stop offset="1" stop-color="#172F78"/>
</radialGradient>
<radialGradient id="paint10_radial_102_355" cx="0" cy="0" r="1" gradientUnits="userSpaceOnUse" gradientTransform="translate(124.953 31.0049) scale(56.9909 135.842)">
<stop stop-color="#0F9D87"/>
<stop offset="1" stop-color="#1A1A1A"/>
</radialGradient>
<radialGradient id="paint11_radial_102_355" cx="0" cy="0" r="1" gradientUnits="userSpaceOnUse" gradientTransform="translate(8.38402 45.4523) rotate(94.4599) scale(29.4102 182.254)">
<stop stop-color="#0F9D87"/>
<stop offset="1" stop-color="#1A1A1A"/>
</radialGradient>
<radialGradient id="paint12_radial_102_355" cx="0" cy="0" r="1" gradientUnits="userSpaceOnUse" gradientTransform="translate(-0.668354 62.6479) rotate(73.9752) scale(34.13 226.609)">
<stop stop-color="#0F9D87"/>
<stop offset="1" stop-color="#1A1A1A"/>
</radialGradient>
<radialGradient id="paint13_radial_102_355" cx="0" cy="0" r="1" gradientUnits="userSpaceOnUse" gradientTransform="translate(8.63081 93.0228) scale(121.707 90.3264)">
<stop stop-color="#0F9D87"/>
<stop offset="1" stop-color="#1A1A1A"/>
</radialGradient>
<radialGradient id="paint14_radial_102_355" cx="0" cy="0" r="1" gradientUnits="userSpaceOnUse" gradientTransform="translate(126.13 105.471) rotate(-36.3022) scale(56.654 124.069)">
<stop stop-color="#0F9D87"/>
<stop offset="1" stop-color="#1A1A1A"/>
</radialGradient>
</defs>
</svg>
