<svg width="1193" height="761" viewBox="0 0 1193 761" fill="none" xmlns="http://www.w3.org/2000/svg">
<path d="M702.054 93.1679C697.144 93.1679 687.325 98.0715 687.325 107.879V215.757C687.325 225.564 692.235 230.468 702.054 230.468H810.062C819.881 230.468 824.79 225.564 824.79 215.757V107.879C824.79 98.0715 819.881 93.1679 810.062 93.1679H702.054Z" fill="#49AF62" fill-opacity="0.1"/>
<path d="M829.7 107.879V215.757C829.7 225.564 819.881 230.468 814.971 230.468H706.963C697.144 230.468 692.235 220.661 692.235 215.757V107.879C692.235 98.0715 702.054 93.1679 706.963 93.1679H814.971C824.79 93.1679 829.7 98.0715 829.7 107.879ZM814.971 93.1679H706.963C697.144 93.1679 687.325 98.0715 687.325 107.879V215.757C687.325 225.564 692.235 230.468 702.054 230.468H810.062C819.881 230.468 824.79 225.564 824.79 215.757V107.879C829.7 98.0715 819.881 93.1679 814.971 93.1679Z" fill="#49AF62" fill-opacity="0.1"/>
<path d="M510.585 294.214C500.766 294.214 495.856 299.118 495.856 308.925V416.804C495.856 426.611 500.766 431.515 510.585 431.515H618.593C628.412 431.515 633.322 426.611 633.322 416.804V308.925C633.322 299.118 628.412 294.214 618.593 294.214H510.585Z" fill="#49AF62" fill-opacity="0.1"/>
<path d="M633.322 308.925V416.804C633.322 426.611 628.412 431.514 618.593 431.514H510.585C500.766 431.514 495.857 426.611 495.857 416.804V308.925C495.857 299.118 500.766 294.214 510.585 294.214H618.593C623.503 289.311 633.322 299.118 633.322 308.925ZM613.684 294.214H505.676C495.857 294.214 490.947 299.118 490.947 308.925V416.804C490.947 426.611 495.857 431.514 505.676 431.514H613.684C623.503 431.514 628.412 426.611 628.412 416.804V308.925C628.412 299.118 623.503 294.214 613.684 294.214Z" fill="#49AF62" fill-opacity="0.1"/>
<path d="M132.555 348.154C127.646 348.154 122.736 353.057 122.736 357.961V411.9C122.736 416.804 127.646 421.707 132.555 421.707H186.559C191.469 421.707 196.378 416.804 196.378 411.9V357.961C196.378 353.057 191.469 348.154 186.559 348.154H132.555Z" fill="#49AF62" fill-opacity="0.1"/>
<path d="M196.378 357.961V411.9C196.378 416.804 191.469 421.707 186.559 421.707H132.555C127.646 421.707 122.736 416.804 122.736 411.9V357.961C122.736 353.057 127.646 348.154 132.555 348.154H186.559C191.469 348.154 196.378 353.057 196.378 357.961ZM186.559 348.154H132.555C127.646 348.154 127.646 353.057 127.646 353.057V406.997C127.646 411.9 132.555 411.9 132.555 411.9H186.559C191.469 416.804 196.378 416.804 196.378 411.9V357.961C196.378 353.057 191.469 348.154 186.559 348.154Z" fill="#49AF62" fill-opacity="0.1"/>
<path d="M127.647 495.261C122.738 495.261 117.828 500.165 117.828 505.068V559.007C117.828 563.911 122.738 568.815 127.647 568.815H181.651C186.561 568.815 191.47 563.911 191.47 559.007V505.068C191.47 500.165 186.561 495.261 181.651 495.261H127.647Z" fill="#49AF62" fill-opacity="0.1"/>
<path d="M186.561 500.165V554.104C186.561 559.007 181.651 563.911 176.742 563.911H127.647C122.738 563.911 117.828 559.007 117.828 554.104V500.165C117.828 495.261 122.738 490.357 127.647 490.357H181.651C181.651 495.261 186.561 495.261 186.561 500.165ZM181.651 495.261H127.647C122.738 495.261 122.738 500.165 122.738 500.165V554.104C122.738 559.007 127.647 559.007 127.647 559.007H181.651C186.561 559.007 186.561 554.104 186.561 554.104V500.165C186.561 495.261 181.651 495.261 181.651 495.261Z" fill="#49AF62" fill-opacity="0.1"/>
<path d="M800.243 539.393C795.333 539.393 790.424 544.297 790.424 549.2V603.139C790.424 608.043 795.333 612.947 800.243 612.947H854.247C859.156 612.947 864.066 608.043 864.066 603.139V549.2C864.066 544.297 859.156 539.393 854.247 539.393H800.243Z" fill="#49AF62" fill-opacity="0.1"/>
<path d="M864.066 544.297V598.236C864.066 603.139 859.156 608.043 854.247 608.043H800.243C795.333 608.043 790.424 603.139 790.424 598.236V544.297C790.424 539.393 795.333 534.489 800.243 534.489H854.247C859.156 539.393 864.066 544.297 864.066 544.297ZM854.247 539.393H800.243C795.333 539.393 795.333 544.297 795.333 544.297V598.236C795.333 603.139 800.243 603.139 800.243 603.139H854.247C859.156 603.139 859.156 598.236 859.156 598.236V544.297C859.156 544.297 859.156 539.393 854.247 539.393Z" fill="#49AF62" fill-opacity="0.1"/>
<path d="M790.423 681.597C785.514 681.597 785.514 686.5 785.514 691.404V745.343C785.514 750.247 790.423 755.15 795.333 755.15H849.337C854.246 755.15 859.156 750.247 859.156 745.343V691.404C859.156 686.5 854.246 681.597 849.337 681.597H790.423Z" fill="#49AF62" fill-opacity="0.1"/>
<path d="M854.247 691.404V745.343C854.247 750.246 849.337 755.15 844.428 755.15H790.423C785.514 755.15 780.604 750.246 780.604 745.343V691.404C780.604 686.5 785.514 681.596 790.423 681.596H844.428C849.337 681.596 854.247 686.5 854.247 691.404ZM844.428 681.596H790.423C785.514 681.596 785.514 686.5 785.514 691.404V745.343C785.514 750.246 790.423 750.246 790.423 750.246H844.428C849.337 750.246 849.337 745.343 849.337 745.343V691.404C854.246 686.5 849.337 681.596 844.428 681.596Z" fill="#49AF62" fill-opacity="0.1"/>
<path d="M687.325 446.225C687.325 451.129 692.235 451.129 692.235 451.129H736.42C741.329 451.129 741.329 446.225 741.329 446.225V402.093C741.329 397.189 736.42 397.189 736.42 397.189H692.235C687.325 397.189 687.325 402.093 687.325 402.093V446.225Z" fill="#49AF62" fill-opacity="0.1"/>
<path d="M692.235 397.189H736.42C741.329 397.189 741.329 402.093 741.329 402.093V446.225C741.329 451.129 736.42 451.129 736.42 451.129H692.235C687.325 451.129 687.325 446.225 687.325 446.225V402.093L692.235 397.189ZM687.325 402.093V446.225C687.325 451.129 692.235 451.129 692.235 451.129H736.42C741.329 451.129 741.329 446.225 741.329 446.225V402.093C741.329 397.189 736.42 397.189 736.42 397.189H692.235L687.325 402.093Z" fill="#49AF62" fill-opacity="0.1"/>
<path d="M805.151 451.129C805.151 456.032 810.061 456.032 810.061 456.032H854.246C859.156 456.032 859.156 451.129 859.156 451.129V411.9C859.156 406.996 854.246 406.996 854.246 406.996H810.061C805.151 406.996 805.151 411.9 805.151 411.9V451.129Z" fill="#49AF62" fill-opacity="0.1"/>
<path d="M810.061 402.093H854.246C859.156 402.093 859.156 406.997 859.156 406.997V451.129C859.156 456.032 854.246 456.032 854.246 456.032H810.061C805.152 456.032 805.152 451.129 805.152 451.129V411.9C800.242 406.997 805.152 402.093 810.061 402.093ZM805.152 411.9V456.032C805.152 460.936 810.061 460.936 810.061 460.936H854.246C859.156 460.936 859.156 456.032 859.156 456.032V411.9C859.156 406.997 859.156 406.997 854.246 406.997H810.061C805.152 406.997 805.152 406.997 805.152 411.9Z" fill="#49AF62" fill-opacity="0.1"/>
<path d="M1035.9 6.10352e-05C1026.08 6.10352e-05 1021.17 4.90363 1021.17 14.7108V122.589C1021.17 132.397 1026.08 137.3 1035.9 137.3H1143.91C1153.73 137.3 1158.64 132.397 1158.64 122.589V14.7108C1158.64 4.90363 1153.73 6.10352e-05 1143.91 6.10352e-05H1035.9Z" fill="#49AF62" fill-opacity="0.1"/>
<path d="M1158.64 14.7108V122.589C1158.64 132.397 1153.73 137.3 1143.91 137.3H1035.9C1026.08 137.3 1021.17 132.397 1021.17 122.589V14.7108C1021.17 4.90363 1026.08 6.10352e-05 1035.9 6.10352e-05H1143.91C1148.82 6.10352e-05 1158.64 4.90363 1158.64 14.7108ZM1143.91 6.10352e-05H1035.9C1026.08 6.10352e-05 1021.17 4.90363 1021.17 14.7108V122.589C1021.17 132.397 1026.08 137.3 1035.9 137.3H1143.91C1153.73 137.3 1158.64 132.397 1158.64 122.589V14.7108C1153.73 9.80721 1148.82 6.10352e-05 1143.91 6.10352e-05Z" fill="#49AF62" fill-opacity="0.1"/>
<path d="M991.713 254.986C981.894 254.986 972.075 264.793 972.075 274.6V431.514C972.075 441.321 981.894 451.129 991.713 451.129H1148.82C1158.63 451.129 1168.45 441.321 1168.45 431.514V279.504C1168.45 269.696 1158.63 259.889 1148.82 259.889H991.713V254.986Z" fill="#49AF62" fill-opacity="0.1"/>
<path d="M1173.36 279.504V436.418C1173.36 451.129 1163.54 460.936 1148.82 460.936H991.713C976.985 460.936 967.166 451.129 967.166 436.418V279.504C967.166 264.793 976.985 254.986 991.713 254.986H1148.82C1163.54 254.986 1173.36 264.793 1173.36 279.504ZM1148.82 259.889H991.713C981.894 259.889 972.075 269.697 972.075 279.504V436.418C972.075 446.225 981.894 456.032 991.713 456.032H1148.82C1158.64 456.032 1168.45 446.225 1168.45 436.418V279.504C1173.36 264.793 1163.54 259.889 1148.82 259.889Z" fill="#49AF62" fill-opacity="0.1"/>
<path d="M0 549.2C0 559.007 4.90947 563.911 14.7284 563.911H122.737C132.556 563.911 137.465 559.007 137.465 549.2V441.322C137.465 431.514 132.556 426.611 122.737 426.611H14.7284C9.81894 426.611 0 431.514 0 441.322V549.2Z" fill="#49AF62" fill-opacity="0.1"/>
<path d="M14.7284 426.611H122.737C132.556 426.611 137.465 431.514 137.465 441.322V549.2C137.465 559.007 127.646 563.911 122.737 563.911H14.7284C4.90947 563.911 0 554.104 0 549.2V441.322C0 431.514 4.90947 426.611 14.7284 426.611ZM0 441.322V549.2C0 559.007 4.90947 563.911 14.7284 563.911H122.737C132.556 563.911 137.465 559.007 137.465 549.2V441.322C137.465 431.514 132.556 426.611 122.737 426.611H14.7284C9.81894 426.611 0 431.514 0 441.322Z" fill="#49AF62" fill-opacity="0.1"/>
<path d="M289.659 563.911C289.659 573.718 294.569 578.622 304.388 578.622H412.396C422.215 578.622 427.124 573.718 427.124 563.911V456.032C422.215 451.129 417.305 441.322 407.486 441.322H304.388C294.569 441.322 289.659 451.129 289.659 456.032V563.911Z" fill="#49AF62" fill-opacity="0.1"/>
<path d="M304.386 441.322H412.394C422.213 441.322 427.123 446.225 427.123 456.032V563.911C427.123 573.718 422.213 578.622 412.394 578.622H304.386C294.567 578.622 289.657 573.718 289.657 563.911V456.032C284.748 451.129 294.567 441.322 304.386 441.322ZM289.657 456.032V563.911C289.657 573.718 294.567 578.622 304.386 578.622H412.394C422.213 578.622 427.123 573.718 427.123 563.911V456.032C422.213 451.129 417.304 441.322 407.485 441.322H304.386C294.567 441.322 289.657 451.129 289.657 456.032Z" fill="#49AF62" fill-opacity="0.1"/>
<path d="M1065.35 490.357C1055.53 490.357 1050.62 495.261 1050.62 505.068V612.947C1050.62 622.754 1055.53 627.657 1065.35 627.657H1173.36C1183.18 627.657 1188.09 622.754 1188.09 612.947V505.068C1188.09 495.261 1183.18 490.357 1173.36 490.357H1065.35Z" fill="#49AF62" fill-opacity="0.1"/>
<path d="M1193 505.068V612.947C1193 622.754 1183.18 627.657 1178.27 627.657H1070.26C1060.44 627.657 1055.53 617.85 1055.53 612.947V505.068C1055.53 495.261 1065.35 490.357 1070.26 490.357H1178.27C1183.18 485.454 1193 495.261 1193 505.068ZM1173.36 490.357H1065.35C1055.53 490.357 1050.62 495.261 1050.62 505.068V612.947C1050.62 622.754 1055.53 627.657 1065.35 627.657H1173.36C1183.18 627.657 1188.09 622.754 1188.09 612.947V505.068C1188.09 495.261 1183.18 490.357 1173.36 490.357Z" fill="#49AF62" fill-opacity="0.1"/>
<path d="M309.297 166.721C299.478 166.721 294.568 176.529 294.568 181.432V289.311C294.568 299.118 299.478 304.021 309.297 304.021H417.305C427.124 304.021 432.033 299.118 432.033 289.311V181.432C432.033 171.625 427.124 166.721 417.305 166.721H309.297Z" fill="#49AF62" fill-opacity="0.1"/>
<path d="M432.033 181.432V289.311C432.033 299.118 427.124 304.021 417.305 304.021H309.297C299.478 304.021 294.568 299.118 294.568 289.311V181.432C294.568 171.625 299.478 166.721 309.297 166.721H417.305C422.215 166.721 432.033 176.529 432.033 181.432ZM412.396 171.625H309.297C299.478 171.625 294.568 176.529 294.568 181.432V289.311C294.568 299.118 299.478 304.021 309.297 304.021H417.305C427.124 304.021 432.033 299.118 432.033 289.311V181.432C427.124 176.529 422.215 171.625 412.396 171.625Z" fill="#49AF62" fill-opacity="0.1"/>
<path d="M510.583 500.165C500.764 500.165 495.854 505.068 495.854 514.875V622.754C495.854 632.561 500.764 637.465 510.583 637.465H618.591C628.41 637.465 633.32 632.561 633.32 622.754V514.875C633.32 505.068 628.41 500.165 618.591 500.165H510.583Z" fill="#49AF62" fill-opacity="0.1"/>
<path d="M638.229 519.779V627.657C638.229 637.464 628.41 642.368 623.501 642.368H515.492C505.673 642.368 500.764 632.561 500.764 627.657V519.779C500.764 509.972 510.583 505.068 515.492 505.068H623.501C628.41 500.164 638.229 509.972 638.229 519.779ZM618.591 505.068H510.583C500.764 505.068 495.854 509.972 495.854 519.779V627.657C495.854 637.464 500.764 642.368 510.583 642.368H618.591C628.41 642.368 633.32 637.464 633.32 627.657V519.779C633.32 509.972 628.41 505.068 618.591 505.068Z" fill="#49AF62" fill-opacity="0.1"/>
<path d="M898.432 617.85C888.614 617.85 883.704 622.754 883.704 632.561V740.439C883.704 750.247 888.614 755.15 898.432 755.15H1006.44C1016.26 755.15 1021.17 750.247 1021.17 740.439V632.561C1021.17 622.754 1016.26 617.85 1006.44 617.85H898.432Z" fill="#49AF62" fill-opacity="0.1"/>
<path d="M1021.17 632.561V740.439C1021.17 750.247 1016.26 755.15 1006.44 755.15H898.432C888.614 755.15 883.704 750.247 883.704 740.439V632.561C883.704 622.754 888.614 617.85 898.432 617.85H1006.44C1016.26 617.85 1021.17 627.657 1021.17 632.561ZM1006.44 622.754H898.432C888.614 622.754 883.704 627.657 883.704 637.464V745.343C883.704 755.15 888.614 760.054 898.432 760.054H1006.44C1016.26 760.054 1021.17 755.15 1021.17 745.343V637.464C1021.17 627.657 1011.35 622.754 1006.44 622.754Z" fill="#49AF62" fill-opacity="0.1"/>
<path d="M486.036 93.1678C495.855 93.1678 500.765 98.0714 500.765 107.879V215.757C500.765 225.564 495.855 230.468 486.036 230.468H378.028C368.209 230.468 363.3 225.564 363.3 215.757V107.879C363.3 98.0714 368.209 93.1678 378.028 93.1678H486.036Z" fill="#49AF62" fill-opacity="0.1"/>
<path d="M363.3 107.879C363.3 98.0714 368.209 93.1678 378.028 93.1678H486.036C495.855 93.1678 500.765 102.975 500.765 107.879V215.757C500.765 225.564 490.946 230.468 486.036 230.468H378.028C368.209 230.468 363.3 220.661 363.3 215.757V107.879ZM378.028 93.1678C368.209 93.1678 363.3 98.0714 363.3 107.879V215.757C363.3 225.564 368.209 230.468 378.028 230.468H486.036C495.855 230.468 500.765 225.564 500.765 215.757V107.879C500.765 98.0714 495.855 93.1678 486.036 93.1678H378.028Z" fill="#49AF62" fill-opacity="0.1"/>
<path d="M682.415 294.214C692.234 294.214 697.144 299.118 697.144 308.925V416.803C697.144 426.611 692.234 431.514 682.415 431.514H574.407C564.588 431.514 559.679 426.611 559.679 416.803V308.925C559.679 299.118 564.588 294.214 574.407 294.214H682.415Z" fill="#49AF62" fill-opacity="0.1"/>
<path d="M559.679 308.925C559.679 299.118 564.588 294.214 574.407 294.214H682.415C692.234 294.214 697.144 299.118 697.144 308.925V416.803C697.144 426.611 692.234 431.514 682.415 431.514H574.407C564.588 431.514 559.679 426.611 559.679 416.803V308.925ZM574.407 294.214C564.588 294.214 559.679 299.118 559.679 308.925V416.803C559.679 426.611 564.588 431.514 574.407 431.514H682.415C692.234 431.514 697.144 426.611 697.144 416.803V308.925C697.144 299.118 692.234 294.214 682.415 294.214H574.407Z" fill="#49AF62" fill-opacity="0.1"/>
<path d="M1060.44 348.154C1065.35 348.154 1070.26 353.057 1070.26 357.961V411.9C1070.26 416.804 1065.35 421.707 1060.44 421.707H1006.44C1001.53 421.707 996.621 416.804 996.621 411.9V357.961C996.621 353.057 1001.53 348.154 1006.44 348.154H1060.44Z" fill="#49AF62" fill-opacity="0.1"/>
<path d="M996.621 357.961C996.621 353.057 1001.53 348.154 1006.44 348.154H1060.44C1065.35 348.154 1070.26 353.057 1070.26 357.961V411.9C1070.26 416.804 1065.35 421.707 1060.44 421.707H1006.44C1001.53 421.707 996.621 416.804 996.621 411.9V357.961ZM1006.44 348.154C1001.53 348.154 1001.53 353.057 1001.53 353.057V406.996C1001.53 411.9 1006.44 411.9 1006.44 411.9H1060.44C1065.35 411.9 1065.35 406.996 1065.35 406.996V357.961C1065.35 353.057 1060.44 353.057 1060.44 353.057H1006.44V348.154Z" fill="#49AF62" fill-opacity="0.1"/>
<path d="M1065.35 495.261C1070.26 495.261 1075.17 500.164 1075.17 505.068V559.007C1075.17 563.911 1070.26 568.814 1065.35 568.814H1011.35C1006.44 568.814 1001.53 563.911 1001.53 559.007V505.068C1001.53 500.164 1006.44 495.261 1011.35 495.261H1065.35Z" fill="#49AF62" fill-opacity="0.1"/>
<path d="M1006.44 500.164C1006.44 495.261 1011.35 490.357 1016.26 490.357H1070.26C1075.17 490.357 1080.08 495.261 1080.08 500.164V554.104C1080.08 559.007 1075.17 563.911 1070.26 563.911H1016.26C1011.35 563.911 1006.44 559.007 1006.44 554.104V500.164ZM1011.35 495.261C1006.44 495.261 1006.44 500.164 1006.44 500.164V554.104C1006.44 559.007 1011.35 559.007 1011.35 559.007H1065.35C1070.26 559.007 1070.26 554.104 1070.26 554.104V500.164C1070.26 495.261 1065.35 495.261 1065.35 495.261H1011.35Z" fill="#49AF62" fill-opacity="0.1"/>
<path d="M392.757 539.393C397.666 539.393 402.576 544.297 402.576 549.2V603.14C402.576 608.043 397.666 612.947 392.757 612.947H338.753C333.843 612.947 328.934 608.043 328.934 603.14V549.2C328.934 544.297 333.843 539.393 338.753 539.393H392.757Z" fill="#49AF62" fill-opacity="0.1"/>
<path d="M328.934 544.297C328.934 539.393 333.843 534.49 338.753 534.49H392.757C397.666 534.49 402.576 539.393 402.576 544.297V598.236C402.576 603.14 397.666 608.043 392.757 608.043H338.753C333.843 608.043 328.934 603.14 328.934 598.236V544.297ZM338.753 539.393C333.843 539.393 333.843 544.297 333.843 544.297V598.236C333.843 603.14 338.753 603.14 338.753 603.14H392.757C397.666 603.14 397.666 598.236 397.666 598.236V544.297C402.576 544.297 397.666 539.393 392.757 539.393H338.753Z" fill="#49AF62" fill-opacity="0.1"/>
<path d="M397.667 681.597C402.576 681.597 407.485 686.5 407.485 691.404V745.343C407.485 750.247 402.576 755.15 397.667 755.15H348.572C343.662 755.15 338.753 750.247 338.753 745.343V691.404C338.753 686.5 343.662 681.597 348.572 681.597H397.667Z" fill="#49AF62" fill-opacity="0.1"/>
<path d="M338.753 691.404C338.753 686.5 343.662 681.597 348.572 681.597H402.576C407.485 681.597 412.395 686.5 412.395 691.404V745.343C412.395 750.247 407.485 755.15 402.576 755.15H348.572C343.662 755.15 338.753 750.247 338.753 745.343V691.404ZM348.572 681.597C343.662 681.597 343.662 686.5 343.662 686.5V740.44C343.662 745.343 348.572 745.343 348.572 745.343H402.576C407.485 745.343 407.485 740.44 407.485 740.44V686.5C407.485 681.597 402.576 681.597 402.576 681.597H348.572Z" fill="#49AF62" fill-opacity="0.1"/>
<path d="M505.674 446.225C505.674 451.129 500.765 451.129 500.765 451.129H451.67C446.761 451.129 446.761 446.225 446.761 446.225V402.093C446.761 397.19 451.67 397.19 451.67 397.19H495.855C500.765 397.19 500.765 402.093 500.765 402.093V446.225H505.674Z" fill="#49AF62" fill-opacity="0.1"/>
<path d="M495.855 397.19C500.765 397.19 500.765 402.093 500.765 402.093V446.225C500.765 451.129 495.855 451.129 495.855 451.129H451.67C446.761 451.129 446.761 446.225 446.761 446.225V402.093C446.761 397.19 451.67 397.19 451.67 397.19H495.855ZM505.674 402.093C505.674 397.19 500.765 397.19 500.765 397.19H451.67C446.761 397.19 446.761 402.093 446.761 402.093V446.225C446.761 451.129 451.67 451.129 451.67 451.129H495.855C500.765 451.129 500.765 446.225 500.765 446.225V402.093H505.674Z" fill="#49AF62" fill-opacity="0.1"/>
<path d="M387.847 451.129C387.847 456.032 382.937 456.032 382.937 456.032H338.752C333.843 456.032 333.843 451.129 333.843 451.129V411.9C333.843 406.997 338.752 406.997 338.752 406.997H382.937C387.847 406.997 387.847 411.9 387.847 411.9V451.129Z" fill="#49AF62" fill-opacity="0.1"/>
<path d="M382.937 402.093C387.847 402.093 387.847 406.997 387.847 406.997V451.129C387.847 456.033 382.937 456.033 382.937 456.033H338.752C333.843 456.033 333.843 451.129 333.843 451.129V411.9C333.843 406.997 338.752 406.997 338.752 406.997H382.937V402.093ZM387.847 411.9C387.847 406.997 382.937 406.997 382.937 406.997H338.752C333.843 406.997 333.843 411.9 333.843 411.9V456.033C333.843 460.936 338.752 460.936 338.752 460.936H382.937C387.847 460.936 387.847 456.033 387.847 456.033V411.9Z" fill="#49AF62" fill-opacity="0.1"/>
<path d="M157.104 6.10352e-05C166.923 6.10352e-05 171.832 4.90363 171.832 14.7108V122.589C171.832 132.397 166.923 137.3 157.104 137.3H49.0956C39.2767 137.3 34.3672 132.397 34.3672 122.589V14.7108C34.3672 9.80721 44.1861 6.10352e-05 49.0956 6.10352e-05H157.104Z" fill="#49AF62" fill-opacity="0.1"/>
<path d="M34.3672 14.7108C34.3672 4.90363 39.2767 6.10352e-05 49.0956 6.10352e-05H157.104C166.923 6.10352e-05 171.832 4.90363 171.832 14.7108V122.589C171.832 132.397 166.923 137.3 157.104 137.3H49.0956C39.2767 137.3 34.3672 132.397 34.3672 122.589V14.7108ZM49.0956 6.10352e-05C44.1861 6.10352e-05 34.3672 9.80721 34.3672 14.7108V122.589C34.3672 132.397 39.2767 137.3 49.0956 137.3H157.104C166.923 137.3 171.832 132.397 171.832 122.589V14.7108C171.832 9.80721 162.013 6.10352e-05 157.104 6.10352e-05H49.0956Z" fill="#49AF62" fill-opacity="0.1"/>
<path d="M196.378 254.986C206.196 254.986 216.015 264.793 216.015 274.6V431.514C216.015 441.321 206.196 451.128 196.378 451.128H39.2746C29.4557 451.128 19.6367 441.321 19.6367 431.514V279.503C19.6367 269.696 29.4557 259.889 39.2746 259.889H196.378V254.986Z" fill="#49AF62" fill-opacity="0.1"/>
<path d="M14.7285 279.503C14.7285 264.793 24.5475 254.986 39.2759 254.986H196.379C211.107 254.986 220.926 264.793 220.926 279.503V436.418C220.926 451.128 211.107 460.936 196.379 460.936H39.2759C24.5475 460.936 14.7285 451.128 14.7285 436.418V279.503ZM39.2759 259.889C29.4569 259.889 19.638 269.696 19.638 279.503V436.418C19.638 446.225 29.4569 456.032 39.2759 456.032H196.379C206.198 456.032 216.017 446.225 216.017 436.418V279.503C216.017 269.696 206.198 259.889 196.379 259.889H39.2759Z" fill="#49AF62" fill-opacity="0.1"/>
<path d="M1193 549.2C1193 559.008 1188.09 563.911 1178.27 563.911H1070.26C1060.44 563.911 1055.53 559.008 1055.53 549.2V441.322C1055.53 431.515 1060.44 426.611 1070.26 426.611H1178.27C1188.09 426.611 1193 431.515 1193 441.322V549.2Z" fill="#49AF62" fill-opacity="0.1"/>
<path d="M1173.36 426.611C1183.18 426.611 1188.09 431.515 1188.09 441.322V549.2C1188.09 559.008 1178.27 563.911 1173.36 563.911H1065.35C1055.53 563.911 1050.62 554.104 1050.62 549.2V441.322C1050.62 431.515 1060.44 426.611 1065.35 426.611H1173.36ZM1188.09 441.322C1188.09 431.515 1183.18 426.611 1173.36 426.611H1065.35C1055.53 426.611 1050.62 431.515 1050.62 441.322V549.2C1050.62 559.008 1055.53 563.911 1065.35 563.911H1173.36C1183.18 563.911 1188.09 559.008 1188.09 549.2V441.322Z" fill="#49AF62" fill-opacity="0.1"/>
<path d="M903.341 563.911C903.341 573.718 898.432 578.622 888.613 578.622H785.514C775.695 578.622 770.785 573.718 770.785 563.911V456.033C765.876 451.129 775.695 441.322 785.514 441.322H893.522C903.341 441.322 908.25 446.225 908.25 456.033V563.911H903.341Z" fill="#49AF62" fill-opacity="0.1"/>
<path d="M888.613 441.322C898.432 441.322 903.341 446.225 903.341 456.033V563.911C903.341 573.718 898.432 578.622 888.613 578.622H785.514C775.695 578.622 770.785 573.718 770.785 563.911V456.033C765.876 451.129 775.695 441.322 785.514 441.322H888.613ZM903.341 456.033C903.341 446.225 898.432 441.322 888.613 441.322H785.514C775.695 441.322 770.785 446.225 770.785 456.033V563.911C770.785 573.718 775.695 578.622 785.514 578.622H893.522C903.341 578.622 908.25 573.718 908.25 563.911V456.033H903.341Z" fill="#49AF62" fill-opacity="0.1"/>
<path d="M127.646 490.357C137.465 490.357 142.375 495.261 142.375 505.068V612.946C142.375 622.754 137.465 627.657 127.646 627.657H14.7284C4.90947 627.657 0 622.754 0 612.946V505.068C0 495.261 9.81894 490.357 14.7284 490.357H127.646Z" fill="#49AF62" fill-opacity="0.1"/>
<path d="M0 505.068C0 495.261 4.90947 490.357 14.7284 490.357H122.737C132.556 490.357 137.465 500.164 137.465 505.068V612.946C137.465 622.754 127.646 627.657 122.737 627.657H14.7284C4.90947 627.657 0 617.85 0 612.946V505.068ZM14.7284 490.357C9.81894 490.357 0 495.261 0 505.068V612.946C0 622.754 4.90947 627.657 14.7284 627.657H122.737C132.556 627.657 137.465 622.754 137.465 612.946V505.068C137.465 495.261 132.556 490.357 122.737 490.357H14.7284Z" fill="#49AF62" fill-opacity="0.1"/>
<path d="M883.703 166.721C893.522 166.721 898.432 171.625 898.432 181.432V289.311C898.432 299.118 893.522 304.021 883.703 304.021H775.695C765.876 304.021 760.967 299.118 760.967 289.311V181.432C760.967 171.625 765.876 166.721 775.695 166.721H883.703Z" fill="#49AF62" fill-opacity="0.1"/>
<path d="M760.967 181.432C760.967 171.625 765.876 166.721 775.695 166.721H883.703C893.522 166.721 898.432 171.625 898.432 181.432V289.311C898.432 299.118 893.522 304.021 883.703 304.021H775.695C765.876 304.021 760.967 299.118 760.967 289.311V181.432ZM775.695 171.625C765.876 171.625 760.967 176.529 760.967 186.336V294.214C760.967 304.021 765.876 308.925 775.695 308.925H883.703C893.522 308.925 898.432 304.021 898.432 294.214V181.432C898.432 171.625 893.522 166.721 883.703 166.721H775.695V171.625Z" fill="#49AF62" fill-opacity="0.1"/>
<path d="M682.414 500.165C692.233 500.165 697.143 505.068 697.143 514.875V622.754C697.143 632.561 692.233 637.465 682.414 637.465H574.406C564.587 637.465 559.678 632.561 559.678 622.754V514.875C559.678 505.068 564.587 500.165 574.406 500.165H682.414Z" fill="#49AF62" fill-opacity="0.1"/>
<path d="M554.77 519.779C554.77 509.972 564.588 505.068 569.498 505.068H677.506C687.325 505.068 692.235 514.875 692.235 519.779V627.658C692.235 637.465 687.325 642.368 677.506 642.368H569.498C559.679 642.368 554.77 632.561 554.77 627.658V519.779ZM569.498 505.068C559.679 505.068 554.77 509.972 554.77 519.779V627.658C554.77 637.465 559.679 642.368 569.498 642.368H677.506C687.325 642.368 692.235 637.465 692.235 627.658V519.779C692.235 509.972 687.325 505.068 677.506 505.068H569.498Z" fill="#49AF62" fill-opacity="0.1"/>
<path d="M294.569 617.85C304.388 617.85 309.297 622.754 309.297 632.561V740.439C309.297 750.247 304.388 755.15 294.569 755.15H186.56C176.741 755.15 171.832 750.247 171.832 740.439V632.561C171.832 622.754 176.741 617.85 186.56 617.85H294.569Z" fill="#49AF62" fill-opacity="0.1"/>
<path d="M171.832 632.561C171.832 622.754 176.741 617.85 186.56 617.85H294.569C304.388 617.85 309.297 622.754 309.297 632.561V740.439C309.297 750.247 304.388 755.15 294.569 755.15H186.56C176.741 755.15 171.832 750.247 171.832 740.439V632.561ZM186.56 622.754C176.741 622.754 171.832 627.657 171.832 637.464V745.343C171.832 755.15 176.741 760.054 186.56 760.054H294.569C304.388 760.054 309.297 755.15 309.297 745.343V637.464C309.297 627.657 304.388 622.754 294.569 622.754H186.56Z" fill="#49AF62" fill-opacity="0.1"/>
</svg>
