<svg width="100" height="101" viewBox="0 0 100 101" fill="none" xmlns="http://www.w3.org/2000/svg">
<rect x="0.5" y="0.783447" width="99" height="99" rx="11.5" stroke="#49AF62"/>
<path d="M71.1271 32.2723H42.8218V24.8877C42.8218 22.9292 43.595 21.051 44.9712 19.6661C46.3474 18.2812 48.214 17.5032 50.1602 17.5032C52.1065 17.5032 53.973 18.2812 55.3493 19.6661C56.7255 21.051 57.4986 22.9292 57.4986 24.8877C57.4986 25.4473 57.7195 25.984 58.1127 26.3797C58.5059 26.7753 59.0392 26.9976 59.5953 26.9976C60.1514 26.9976 60.6847 26.7753 61.0779 26.3797C61.4711 25.984 61.692 25.4473 61.692 24.8877C61.692 21.8101 60.477 18.8585 58.3144 16.6823C56.1518 14.506 53.2186 13.2834 50.1602 13.2834C47.1018 13.2834 44.1687 14.506 42.006 16.6823C39.8434 18.8585 38.6285 21.8101 38.6285 24.8877V32.2723H29.1934C28.0812 32.2723 27.0146 32.7169 26.2282 33.5082C25.4418 34.2996 25 35.3729 25 36.492V66.0303C25 67.1494 25.4418 68.2227 26.2282 69.0141C27.0146 69.8054 28.0812 70.25 29.1934 70.25H71.1271C72.2392 70.25 73.3058 69.8054 74.0922 69.0141C74.8787 68.2227 75.3205 67.1494 75.3205 66.0303V36.492C75.3205 35.3729 74.8787 34.2996 74.0922 33.5082C73.3058 32.7169 72.2392 32.2723 71.1271 32.2723ZM64.837 61.8105H35.4834C34.9274 61.8105 34.3941 61.5882 34.0008 61.1926C33.6076 60.7969 33.3867 60.2602 33.3867 59.7006C33.3867 59.1411 33.6076 58.6044 34.0008 58.2087C34.3941 57.8131 34.9274 57.5908 35.4834 57.5908H64.837C65.3931 57.5908 65.9264 57.8131 66.3196 58.2087C66.7128 58.6044 66.9337 59.1411 66.9337 59.7006C66.9337 60.2602 66.7128 60.7969 66.3196 61.1926C65.9264 61.5882 65.3931 61.8105 64.837 61.8105ZM64.837 53.371H35.4834C34.9274 53.371 34.3941 53.1487 34.0008 52.7531C33.6076 52.3574 33.3867 51.8207 33.3867 51.2612C33.3867 50.7016 33.6076 50.1649 34.0008 49.7692C34.3941 49.3736 34.9274 49.1513 35.4834 49.1513H64.837C65.3931 49.1513 65.9264 49.3736 66.3196 49.7692C66.7128 50.1649 66.9337 50.7016 66.9337 51.2612C66.9337 51.8207 66.7128 52.3574 66.3196 52.7531C65.9264 53.1487 65.3931 53.371 64.837 53.371ZM64.837 44.9315H35.4834C34.9274 44.9315 34.3941 44.7092 34.0008 44.3136C33.6076 43.9179 33.3867 43.3812 33.3867 42.8217C33.3867 42.2621 33.6076 41.7254 34.0008 41.3298C34.3941 40.9341 34.9274 40.7118 35.4834 40.7118H64.837C65.3931 40.7118 65.9264 40.9341 66.3196 41.3298C66.7128 41.7254 66.9337 42.2621 66.9337 42.8217C66.9337 43.3812 66.7128 43.9179 66.3196 44.3136C65.9264 44.7092 65.3931 44.9315 64.837 44.9315Z" fill="#49AF62"/>
<path fill-rule="evenodd" clip-rule="evenodd" d="M27 73.0984C25.8954 73.0984 25 73.9938 25 75.0984V85.34C25 86.4446 25.8954 87.34 27 87.34H73.3205C74.425 87.34 75.3205 86.4446 75.3205 85.34V75.0984C75.3205 73.9938 74.425 73.0984 73.3205 73.0984H27ZM36.0599 77.6882C36.3093 77.8695 36.4504 78.1239 36.4832 78.4514H38.1888C38.1806 77.9561 38.0463 77.5204 37.786 77.1443C37.5257 76.7681 37.1613 76.4745 36.6928 76.2634C36.2271 76.0523 35.6818 75.9467 35.0572 75.9467C34.4434 75.9467 33.8955 76.0523 33.4133 76.2634C32.9311 76.4745 32.5516 76.7681 32.2749 77.1443C32.0009 77.5204 31.8653 77.9602 31.868 78.4636C31.8653 79.0779 32.0694 79.5664 32.4804 79.929C32.8913 80.2916 33.4516 80.5582 34.1612 80.7287L35.0777 80.956C35.3846 81.0291 35.6435 81.1103 35.8545 81.1996C36.0682 81.2889 36.2298 81.3971 36.3394 81.5243C36.4517 81.6515 36.5079 81.8085 36.5079 81.9952C36.5079 82.1955 36.4463 82.3727 36.323 82.527C36.1997 82.6812 36.0257 82.8017 35.801 82.8883C35.5791 82.9749 35.3174 83.0182 35.0161 83.0182C34.7092 83.0182 34.4339 82.9722 34.19 82.8802C33.9489 82.7854 33.7558 82.6461 33.6105 82.462C33.4681 82.2753 33.3872 82.0426 33.3681 81.7638H31.6461C31.6598 82.3619 31.8064 82.8639 32.0858 83.2699C32.368 83.6731 32.7598 83.9775 33.2612 84.1832C33.7653 84.3889 34.3571 84.4917 35.0366 84.4917C35.7216 84.4917 36.3065 84.3902 36.7915 84.1873C37.2792 83.9816 37.6518 83.6934 37.9093 83.3226C38.1696 82.9492 38.3011 82.508 38.3039 81.9993C38.3011 81.6529 38.2367 81.3457 38.1107 81.0778C37.9874 80.8099 37.8134 80.5771 37.5888 80.3796C37.3641 80.182 37.0983 80.0156 36.7915 79.8803C36.4846 79.745 36.1476 79.6367 35.7805 79.5555L35.0243 79.3769C34.8407 79.3363 34.6681 79.2876 34.5065 79.2308C34.3448 79.1712 34.2023 79.1022 34.079 79.0238C33.9558 78.9426 33.8585 78.8465 33.7873 78.7355C33.7188 78.6246 33.6873 78.4947 33.6927 78.3458C33.6927 78.1672 33.7448 78.0076 33.8489 77.8668C33.9558 77.7261 34.1092 77.6165 34.3092 77.538C34.5092 77.4568 34.7544 77.4162 35.0448 77.4162C35.4722 77.4162 35.8106 77.5069 36.0599 77.6882ZM52.1678 78.4514C52.1349 78.1239 51.9938 77.8695 51.7445 77.6882C51.4952 77.5069 51.1568 77.4162 50.7294 77.4162C50.439 77.4162 50.1938 77.4568 49.9938 77.538C49.7938 77.6165 49.6403 77.7261 49.5335 77.8668C49.4294 78.0076 49.3773 78.1672 49.3773 78.3458C49.3718 78.4947 49.4033 78.6246 49.4718 78.7355C49.5431 78.8465 49.6403 78.9426 49.7636 79.0238C49.8869 79.1022 50.0294 79.1712 50.191 79.2308C50.3527 79.2876 50.5253 79.3363 50.7089 79.3769L51.4651 79.5555C51.8322 79.6367 52.1692 79.745 52.4761 79.8803C52.7829 80.0156 53.0487 80.182 53.2733 80.3796C53.498 80.5771 53.672 80.8099 53.7953 81.0778C53.9213 81.3457 53.9857 81.6529 53.9884 81.9993C53.9857 82.508 53.8542 82.9492 53.5939 83.3226C53.3364 83.6934 52.9637 83.9816 52.4761 84.1873C51.9911 84.3902 51.4062 84.4917 50.7212 84.4917C50.0417 84.4917 49.4499 84.3889 48.9458 84.1832C48.4444 83.9775 48.0526 83.6731 47.7704 83.2699C47.4909 82.8639 47.3444 82.3619 47.3307 81.7638H49.0526C49.0718 82.0426 49.1527 82.2753 49.2951 82.462C49.4403 82.6461 49.6335 82.7854 49.8746 82.8802C50.1184 82.9722 50.3938 83.0182 50.7006 83.0182C51.002 83.0182 51.2637 82.9749 51.4856 82.8883C51.7103 82.8017 51.8843 82.6812 52.0075 82.527C52.1308 82.3727 52.1925 82.1955 52.1925 81.9952C52.1925 81.8085 52.1363 81.6515 52.024 81.5243C51.9144 81.3971 51.7527 81.2889 51.539 81.1996C51.3281 81.1103 51.0692 81.0291 50.7623 80.956L49.8458 80.7287C49.1362 80.5582 48.5759 80.2916 48.1649 79.929C47.754 79.5664 47.5499 79.0779 47.5526 78.4636C47.5499 77.9602 47.6855 77.5204 47.9595 77.1443C48.2362 76.7681 48.6156 76.4745 49.0979 76.2634C49.5801 76.0523 50.128 75.9467 50.7417 75.9467C51.3664 75.9467 51.9116 76.0523 52.3774 76.2634C52.8459 76.4745 53.2103 76.7681 53.4706 77.1443C53.7309 77.5204 53.8651 77.9561 53.8734 78.4514H52.1678ZM63.2865 84.374V76.0604H65.066V82.9248H68.6744V84.374H63.2865Z" fill="#49AF62"/>
</svg>
