<svg width="100" height="101" viewBox="0 0 100 101" fill="none" xmlns="http://www.w3.org/2000/svg">
<rect x="0.5" y="0.783447" width="99" height="99" rx="11.5" stroke="#49AF62"/>
<path d="M51.984 60.888C50.0856 60.2578 49.3035 59.6712 48.4632 58.2476C48.3935 58.1294 48.1719 58.1294 48.1022 58.2476C47.2618 59.6712 46.4797 60.2578 44.5813 60.888C44.4237 60.9403 44.4237 61.1064 44.5813 61.1587C46.4797 61.7889 47.2618 62.3754 48.1022 63.7991C48.1719 63.9173 48.3935 63.9173 48.4632 63.7991C49.3035 62.3754 50.0856 61.7889 51.984 61.1587C52.1407 61.1064 52.1407 60.9403 51.984 60.888Z" fill="#49AF62"/>
<path d="M14.0128 30.1503C15.6738 30.8856 16.3581 31.5698 17.0933 33.2308C17.1543 33.3687 17.3481 33.3687 17.4091 33.2308C18.1444 31.5698 18.8286 30.8856 20.4896 30.1503C20.6275 30.0893 20.6275 29.8955 20.4896 29.8345C18.8286 29.0993 18.1444 28.415 17.4091 26.754C17.3481 26.6162 17.1543 26.6162 17.0933 26.754C16.3581 28.415 15.6738 29.0993 14.0128 29.8345C13.875 29.8955 13.875 30.0893 14.0128 30.1503Z" fill="#49AF62"/>
<path d="M61.1719 44.7918C63.0174 44.7918 64.5137 43.1718 64.5137 41.1736V27.6055H57.8301V41.1736C57.8301 43.1718 59.3264 44.7918 61.1719 44.7918Z" fill="#49AF62"/>
<path d="M27.7541 66.7519C36.4548 66.7519 43.5083 59.4847 43.5083 50.5204C43.5083 41.556 36.4548 34.2888 27.7541 34.2888C19.0535 34.2888 12 41.556 12 50.5204C12 59.4847 19.0535 66.7519 27.7541 66.7519ZM19.6206 52.5881L24.213 57.3196L36.7253 42.7094L38.0381 43.9024L24.9096 59.2322C24.7495 59.4188 24.5219 59.5289 24.2804 59.537C24.2707 59.537 24.262 59.537 24.2532 59.537C24.0213 59.537 23.7981 59.4423 23.6344 59.2728L18.3831 53.8623L19.6206 52.5881Z" fill="#49AF62"/>
<path d="M43.7362 45.7465H60.6945L60.6703 45.6491C58.6464 45.2208 57.1217 43.4065 57.1217 41.2378V13.2834H33.0054V34.9129C38.0555 36.6163 42.049 40.648 43.7362 45.7465ZM53.5489 41.2378H43.7237V39.4343H53.5489V41.2378ZM53.5489 35.8273H41.0441V34.0237H53.5489V35.8273ZM46.4033 17.7922H53.5489V19.5957H46.4033V17.7922ZM46.4033 23.2027H53.5489V25.0062H46.4033V23.2027ZM36.5782 17.7922H43.7237V25.0062H36.5782V17.7922ZM36.5782 28.6132H53.5489V30.4167H36.5782V28.6132Z" fill="#49AF62"/>
<path d="M76.2347 69.5085H86.1827C86.6403 69.5085 87.0117 69.8816 87.0117 70.3375V86.9176C87.0117 87.3735 86.6403 87.7466 86.1827 87.7466H76.2347C75.7771 87.7466 75.4057 87.3735 75.4057 86.9176V70.3375C75.4057 69.8799 75.7771 69.5085 76.2347 69.5085Z" fill="#49AF62"/>
<path d="M57.1679 72.8245C57.6238 72.8245 57.9969 72.4515 57.9969 71.9955C57.9969 71.5396 57.6238 71.1665 57.1679 71.1665H48.4186C48.2959 70.6724 48.2826 70.1916 48.2826 69.9197C48.2826 66.1925 51.3367 66.1925 52.6382 66.1925H60.5452C59.2089 60.4094 60.8138 57.4101 62.8565 56.5263C64.3918 55.8664 66.131 56.4169 66.9982 57.8411C67.0761 57.9705 67.1192 58.1197 67.1192 58.2722V62.2183C67.1192 62.5084 67.2436 62.8616 67.3629 63.2048C68.172 65.5194 69.777 67.5985 72.2673 69.5616C72.4563 69.7075 72.6321 69.8782 72.7863 70.0689C73.035 70.369 73.3732 70.6094 73.7512 70.7951V86.1797C73.3019 86.2925 72.8841 86.513 72.5425 86.8429C71.9291 87.4315 71.1183 87.7466 70.1965 87.7466H56.6207C54.7919 87.7466 53.25 87.0336 52.2718 85.7453C51.6152 84.8832 51.277 83.7955 51.2803 82.7725H57.1679C57.6238 82.7725 57.9969 82.3995 57.9969 81.9435C57.9969 81.4876 57.6238 81.1145 57.1679 81.1145H49.9489C49.8196 80.904 49.7068 80.6801 49.6157 80.4447C49.299 79.6091 49.236 78.6574 49.3951 77.7985H57.1679C57.6238 77.7985 57.9969 77.4255 57.9969 76.9695C57.9969 76.5136 57.6238 76.1405 57.1679 76.1405H48.8065C48.4932 75.484 48.334 74.7312 48.4119 73.952C48.4484 73.5408 48.5645 73.171 48.712 72.8262L57.1679 72.8245Z" fill="#49AF62"/>
</svg>
