<svg width="100" height="101" viewBox="0 0 100 101" fill="none" xmlns="http://www.w3.org/2000/svg">
<rect x="0.5" y="0.783447" width="99" height="99" rx="11.5" stroke="#49AF62"/>
<path d="M64.0299 17.4523C64.2614 16.9509 64.8565 16.7309 65.3511 16.9765C72.9165 20.7333 78.8999 27.0793 82.2009 34.8782C85.6321 42.9846 85.9189 52.0787 83.0055 60.3852C80.0921 68.6916 74.1875 75.6142 66.4446 79.8013C58.7016 83.9884 49.6761 85.1396 41.13 83.03L43.8408 72.0483C49.6553 73.4836 55.796 72.7004 61.0641 69.8516C66.3322 67.0028 70.3495 62.2929 72.3317 56.6414C74.3139 50.9899 74.1187 44.8026 71.7842 39.2872C69.58 34.0795 65.6178 29.824 60.6055 27.2515C60.1141 26.9994 59.8942 26.407 60.1258 25.9056L64.0299 17.4523Z" fill="#49AF62"/>
<path d="M28.5624 78.5069C28.0572 78.2052 28.0572 77.4732 28.5624 77.1714L43.1845 68.4383C43.7029 68.1287 44.3611 68.5022 44.3611 69.106L44.3611 86.5723C44.3611 87.1762 43.7029 87.5497 43.1845 87.2401L28.5624 78.5069Z" fill="#49AF62"/>
<rect x="46.8889" y="13.2834" width="4.66667" height="10.1111" rx="2" fill="#49AF62"/>
<rect x="30.5555" y="18.7278" width="4.66667" height="10.1111" rx="2" transform="rotate(-30 30.5555 18.7278)" fill="#49AF62"/>
<rect x="18.8889" y="32.1028" width="4.66667" height="10.1111" rx="2" transform="rotate(-60 18.8889 32.1028)" fill="#49AF62"/>
<rect x="15" y="49.8391" width="4.66667" height="10.1111" rx="2" transform="rotate(-90 15 49.8391)" fill="#49AF62"/>
<rect x="20.4445" y="66.7136" width="4.66667" height="10.1111" rx="2" transform="rotate(-120 20.4445 66.7136)" fill="#49AF62"/>
<path d="M51.3795 55.1949C50.8272 55.1949 50.3795 54.7472 50.3795 54.1949V51.7181C50.3795 51.5283 50.4335 51.3424 50.5352 51.1822L59.531 37.01C59.7144 36.721 60.0329 36.5459 60.3752 36.5459H63.0736V41.7605H61.1513L55.1964 51.1845V51.3612H67.6197C68.172 51.3612 68.6197 51.809 68.6197 52.3612V54.1949C68.6197 54.7472 68.172 55.1949 67.6197 55.1949H51.3795ZM62.2397 59.1722C61.6874 59.1722 61.2397 58.7244 61.2397 58.1722V54.0459L61.3281 52.3777V36.5459H64.8135C65.3658 36.5459 65.8135 36.9936 65.8135 37.5459V58.1722C65.8135 58.7244 65.3658 59.1722 64.8135 59.1722H62.2397Z" fill="#49AF62"/>
<path d="M32.6117 59.1724C32.0594 59.1724 31.6117 58.7247 31.6117 58.1724V56.1624C31.6117 55.8838 31.7279 55.6179 31.9323 55.4286L39.6657 48.2681C40.3507 47.6052 40.9252 47.0086 41.3892 46.4783C41.8605 45.948 42.2178 45.4287 42.4608 44.9205C42.7039 44.405 42.8254 43.8489 42.8254 43.2523C42.8254 42.5894 42.6744 42.0186 42.3724 41.5398C42.0705 41.0537 41.658 40.6818 41.1351 40.424C40.6121 40.1588 40.0192 40.0263 39.3563 40.0263C38.664 40.0263 38.06 40.1662 37.5445 40.4461C37.0289 40.726 36.6312 41.1274 36.3513 41.6503C36.2091 41.9161 36.103 42.2075 36.033 42.5245C35.914 43.0638 35.4838 43.5174 34.9315 43.5174H32.3907C31.8385 43.5174 31.3834 43.0682 31.4448 42.5193C31.5641 41.4516 31.8813 40.499 32.3961 39.6617C33.0664 38.5716 34.0054 37.7283 35.2133 37.1317C36.4213 36.5351 37.8133 36.2368 39.3895 36.2368C41.0099 36.2368 42.4203 36.5241 43.6209 37.0986C44.8288 37.6657 45.7679 38.4538 46.4381 39.4628C47.1083 40.4719 47.4435 41.6282 47.4435 42.9319C47.4435 43.7863 47.2741 44.6296 46.9353 45.4619C46.6038 46.2942 46.0109 47.2185 45.1565 48.2349C44.3022 49.244 43.0979 50.4556 41.5438 51.8697L38.2405 55.1068V55.2614H46.7418C47.294 55.2614 47.7418 55.7092 47.7418 56.2614V58.1724C47.7418 58.7247 47.294 59.1724 46.7418 59.1724H32.6117Z" fill="#49AF62"/>
</svg>
