<svg width="100" height="101" viewBox="0 0 100 101" fill="none" xmlns="http://www.w3.org/2000/svg">
<rect x="0.5" y="0.783447" width="99" height="99" rx="11.5" stroke="#49AF62"/>
<path d="M44.9871 50.2872C44.9871 53.5213 47.6113 56.1441 50.844 56.1441C53.1153 56.1441 55.0617 54.8386 56.0334 52.9498L56.0497 52.9646L66.7416 33.6748L47.9716 45.1849L47.9894 45.2026C46.2069 46.2083 44.9871 48.0956 44.9871 50.2872Z" fill="#49AF62"/>
<path d="M74.4402 22.379C68.4386 17.1334 60.684 13.7841 51.8232 13.2834V22.184C59.2072 22.6537 63.5578 24.9988 67.9261 28.6583L74.4402 22.379Z" fill="#49AF62"/>
<path d="M78.621 47.5125H87.5113C86.9146 38.6518 83.4486 31.3712 78.0672 25.405L71.7776 31.6563C75.567 35.998 78.0598 41.6054 78.621 47.5125Z" fill="#49AF62"/>
<path d="M78.6623 51.9425C77.7216 66.7104 65.4864 78.4227 50.5414 78.4227C34.9834 78.4227 21.8607 65.8051 21.8607 50.2486C21.8607 35.4394 34.1018 23.3224 47.3929 22.1853V13.2847C28.1946 14.4351 13 30.5882 13 50.287C13 70.7302 29.8649 87.2835 50.308 87.2835C70.1442 87.2835 86.6222 71.1407 87.5688 51.9425H78.6623Z" fill="#49AF62"/>
</svg>
