<svg width="100" height="101" viewBox="0 0 100 101" fill="none" xmlns="http://www.w3.org/2000/svg">
<rect x="0.5" y="0.783447" width="99" height="99" rx="11.5" stroke="#49AF62"/>
<path d="M50.0935 13.2834C46.1306 13.2833 42.2565 14.4582 38.9614 16.6598C35.6662 18.8613 33.0979 21.9906 31.5812 25.6518C30.0645 29.3131 29.6675 33.3418 30.4406 37.2287C31.2136 41.1155 33.1218 44.6858 35.924 47.4881C38.7261 50.2904 42.2964 52.1988 46.1832 52.972C50.0699 53.7453 54.0987 53.3485 57.76 51.832C61.4214 50.3155 64.5507 47.7473 66.7525 44.4523C68.9542 41.1572 70.1293 37.2832 70.1293 33.3203C70.1293 28.0064 68.0185 22.9101 64.261 19.1525C60.5036 15.3948 55.4074 13.2837 50.0935 13.2834ZM48.5247 31.9016H51.6051C52.9856 31.9003 54.3102 32.4475 55.2873 33.4227C56.2644 34.398 56.814 35.7215 56.8153 37.102C56.8166 38.4826 56.2694 39.8071 55.2941 40.7842C54.3189 41.7613 52.9954 42.3109 51.6148 42.3122V44.8767C51.6203 45.1012 51.5808 45.3244 51.4987 45.5333C51.4166 45.7423 51.2935 45.9327 51.1367 46.0933C50.98 46.254 50.7926 46.3816 50.5857 46.4688C50.3789 46.556 50.1567 46.6009 49.9322 46.6009C49.7077 46.6009 49.4855 46.556 49.2786 46.4688C49.0717 46.3816 48.8844 46.254 48.7276 46.0933C48.5708 45.9327 48.4477 45.7423 48.3656 45.5333C48.2835 45.3244 48.244 45.1012 48.2495 44.8767V42.3128H44.7381C44.2917 42.3128 43.8635 42.1355 43.5479 41.8199C43.2322 41.5042 43.0549 41.0761 43.0549 40.6297C43.0549 40.1833 43.2322 39.7552 43.5479 39.4395C43.8635 39.1239 44.2917 38.9465 44.7381 38.9465H51.6051C51.8484 38.9494 52.0899 38.9039 52.3155 38.8127C52.5411 38.7216 52.7463 38.5866 52.9194 38.4155C53.0924 38.2445 53.2298 38.0408 53.3236 37.8163C53.4174 37.5917 53.4657 37.3508 53.4657 37.1075C53.4657 36.8642 53.4174 36.6233 53.3236 36.3988C53.2298 36.1742 53.0924 35.9706 52.9194 35.7995C52.7463 35.6285 52.5411 35.4934 52.3155 35.4023C52.0899 35.3112 51.8484 35.2657 51.6051 35.2685H48.5247C47.0985 35.2717 45.7277 34.7166 44.7055 33.722C43.6833 32.7275 43.0909 31.3724 43.055 29.9467C43.019 28.521 43.5424 27.1378 44.5132 26.093C45.4839 25.0482 46.825 24.4248 48.2495 24.356V21.7641C48.244 21.5397 48.2835 21.3164 48.3656 21.1075C48.4477 20.8986 48.5708 20.7082 48.7276 20.5475C48.8844 20.3869 49.0717 20.2592 49.2786 20.172C49.4855 20.0849 49.7077 20.0399 49.9322 20.0399C50.1567 20.0399 50.3789 20.0849 50.5857 20.172C50.7926 20.2592 50.98 20.3869 51.1367 20.5475C51.2935 20.7082 51.4166 20.8986 51.4987 21.1075C51.5808 21.3164 51.6203 21.5397 51.6148 21.7641V24.3276H55.4489C55.8953 24.3276 56.3235 24.5049 56.6391 24.8206C56.9548 25.1362 57.1321 25.5644 57.1321 26.0108C57.1321 26.4572 56.9548 26.8853 56.6391 27.2009C56.3235 27.5166 55.8953 27.6939 55.4489 27.6939H48.5247C47.9667 27.6939 47.4317 27.9156 47.0371 28.3101C46.6426 28.7046 46.421 29.2397 46.421 29.7976C46.421 30.3556 46.6426 30.8906 47.0371 31.2852C47.4317 31.6797 47.9667 31.9016 48.5247 31.9016Z" fill="#49AF62"/>
<path d="M28.4772 57.532H20.301C20.1301 57.532 19.9609 57.5656 19.803 57.631C19.6451 57.6965 19.5016 57.7923 19.3808 57.9132C19.26 58.0341 19.1642 58.1776 19.0988 58.3355C19.0335 58.4935 18.9999 58.6627 19 58.8336V86.7381C19 87.0831 19.1371 87.414 19.3811 87.6579C19.6251 87.9019 19.956 88.0389 20.301 88.0389H28.4772C29.2292 88.0388 29.9504 87.74 30.4821 87.2082C31.0138 86.6764 31.3125 85.9552 31.3125 85.2031V60.3672C31.3123 59.6153 31.0136 58.8942 30.4819 58.3625C29.9502 57.8309 29.2291 57.5321 28.4772 57.532Z" fill="#49AF62"/>
<path d="M79.8721 60.809C79.4398 60.1508 78.8505 59.6107 78.1574 59.2372C77.4642 58.8638 76.689 58.6687 75.9016 58.6697H72.6973C71.3225 58.6668 69.978 59.0736 68.8354 59.8382C67.6928 60.6027 66.8038 61.6903 66.282 62.9623C65.9722 63.7017 65.5406 64.3839 65.0051 64.9804C64.095 66.3778 62.8637 67.537 61.4139 68.3611C59.9642 69.1852 58.3383 69.6502 56.672 69.7172L47.1811 69.7179C46.7347 69.7179 46.3066 69.5405 45.991 69.2249C45.6753 68.9092 45.498 68.4811 45.498 68.0347C45.498 67.5883 45.6753 67.1602 45.991 66.8445C46.3066 66.5289 46.7347 66.3515 47.1811 66.3515H56.627C57.8406 66.3204 59.0197 65.941 60.0238 65.2586V65.2016C60.0271 64.3451 59.8613 63.4963 59.5358 62.704C59.2103 61.9117 58.7316 61.1915 58.1271 60.5846C57.5227 59.9777 56.8043 59.4962 56.0133 59.1676C55.2223 58.839 54.3742 58.6698 53.5177 58.6697H46.5531C45.2805 58.666 44.0198 58.9142 42.8435 59.3999C41.6673 59.8857 40.5988 60.5994 39.6996 61.4999L39.5218 61.6771C38.204 62.9928 36.5119 63.8692 34.677 64.1865V82.7781H60.0758C63.8416 82.7804 67.5254 81.6775 70.6703 79.606C73.8152 77.5345 76.283 74.5856 77.7677 71.1247L80.2697 65.3011C80.5817 64.5782 80.7087 63.789 80.6393 63.0047C80.5699 62.2204 80.3062 61.4658 79.8721 60.809Z" fill="#49AF62"/>
</svg>
