<svg width="100" height="101" viewBox="0 0 100 101" fill="none" xmlns="http://www.w3.org/2000/svg">
<rect x="0.5" y="0.783447" width="99" height="99" rx="11.5" stroke="#49AF62"/>
<path d="M48.3404 53.6674C48.3404 54.77 49.2342 55.6638 50.3367 55.6638C51.4393 55.6638 52.3331 54.77 52.3331 53.6674C52.3331 52.5649 51.4393 51.6711 50.3367 51.6711C49.2342 51.6711 48.3404 52.5649 48.3404 53.6674Z" fill="#49AF62"/>
<path fill-rule="evenodd" clip-rule="evenodd" d="M43.0359 48.8002C43.0359 47.8594 43.7986 47.0967 44.7394 47.0967H82.217C83.1579 47.0967 83.9206 47.8594 83.9206 48.8002V58.5347C83.9206 59.4755 83.1579 60.2382 82.217 60.2382H44.7394C43.7986 60.2382 43.0359 59.4755 43.0359 58.5347V48.8002ZM53.9871 53.6674C53.9871 55.6835 52.3528 57.3179 50.3367 57.3179C48.3207 57.3179 46.6863 55.6835 46.6863 53.6674C46.6863 51.6514 48.3207 50.017 50.3367 50.017C52.3528 50.017 53.9871 51.6514 53.9871 53.6674ZM69.4406 50.017C68.9702 50.017 68.5888 50.3984 68.5888 50.8688V56.4661C68.5888 56.9365 68.9702 57.3179 69.4406 57.3179H70.6574C71.1278 57.3179 71.5091 56.9365 71.5091 56.4661V50.8688C71.5091 50.3984 71.1278 50.017 70.6574 50.017H69.4406ZM72.9693 50.8688C72.9693 50.3984 73.3507 50.017 73.8211 50.017H75.0379C75.5083 50.017 75.8896 50.3984 75.8896 50.8688V56.4661C75.8896 56.9365 75.5083 57.3179 75.0379 57.3179H73.8211C73.3507 57.3179 72.9693 56.9365 72.9693 56.4661V50.8688ZM78.2016 50.017C77.7312 50.017 77.3498 50.3984 77.3498 50.8688V56.4661C77.3498 56.9365 77.7312 57.3179 78.2016 57.3179H79.4184C79.8888 57.3179 80.2701 56.9365 80.2701 56.4661V50.8688C80.2701 50.3984 79.8888 50.017 79.4184 50.017H78.2016Z" fill="#49AF62"/>
<path d="M48.3404 67.539C48.3404 68.6416 49.2342 69.5354 50.3367 69.5354C51.4393 69.5354 52.3331 68.6416 52.3331 67.539C52.3331 66.4365 51.4393 65.5427 50.3367 65.5427C49.2342 65.5427 48.3404 66.4365 48.3404 67.539Z" fill="#49AF62"/>
<path fill-rule="evenodd" clip-rule="evenodd" d="M43.0359 62.6718C43.0359 61.731 43.7986 60.9683 44.7394 60.9683H82.217C83.1579 60.9683 83.9206 61.731 83.9206 62.6718V72.4062C83.9206 73.3471 83.1579 74.1098 82.217 74.1098H44.7394C43.7986 74.1098 43.0359 73.3471 43.0359 72.4062V62.6718ZM53.9871 67.539C53.9871 69.5551 52.3528 71.1894 50.3367 71.1894C48.3207 71.1894 46.6863 69.5551 46.6863 67.539C46.6863 65.5229 48.3207 63.8886 50.3367 63.8886C52.3528 63.8886 53.9871 65.5229 53.9871 67.539ZM69.4406 63.8886C68.9702 63.8886 68.5888 64.2699 68.5888 64.7404V70.3377C68.5888 70.8081 68.9702 71.1894 69.4406 71.1894H70.6574C71.1278 71.1894 71.5091 70.8081 71.5091 70.3377V64.7404C71.5091 64.2699 71.1278 63.8886 70.6574 63.8886H69.4406ZM72.9693 64.7404C72.9693 64.2699 73.3507 63.8886 73.8211 63.8886H75.0379C75.5083 63.8886 75.8896 64.2699 75.8896 64.7404V70.3377C75.8896 70.8081 75.5083 71.1894 75.0379 71.1894H73.8211C73.3507 71.1894 72.9693 70.8081 72.9693 70.3377V64.7404ZM78.2016 63.8886C77.7312 63.8886 77.3498 64.2699 77.3498 64.7404V70.3377C77.3498 70.8081 77.7312 71.1894 78.2016 71.1894H79.4184C79.8888 71.1894 80.2701 70.8081 80.2701 70.3377V64.7404C80.2701 64.2699 79.8888 63.8886 79.4184 63.8886H78.2016Z" fill="#49AF62"/>
<path d="M48.3404 81.4108C48.3404 82.5134 49.2342 83.4072 50.3367 83.4072C51.4393 83.4072 52.3331 82.5134 52.3331 81.4108C52.3331 80.3083 51.4393 79.4145 50.3367 79.4145C49.2342 79.4145 48.3404 80.3083 48.3404 81.4108Z" fill="#49AF62"/>
<path fill-rule="evenodd" clip-rule="evenodd" d="M43.0359 76.5436C43.0359 75.6028 43.7986 74.8401 44.7394 74.8401H82.217C83.1579 74.8401 83.9206 75.6028 83.9206 76.5436V86.2781C83.9206 87.2189 83.1579 87.9816 82.217 87.9816H44.7394C43.7986 87.9816 43.0359 87.2189 43.0359 86.2781V76.5436ZM53.9871 81.4108C53.9871 83.4269 52.3528 85.0613 50.3367 85.0613C48.3207 85.0613 46.6863 83.4269 46.6863 81.4108C46.6863 79.3948 48.3207 77.7604 50.3367 77.7604C52.3528 77.7604 53.9871 79.3948 53.9871 81.4108ZM69.4406 77.7604C68.9702 77.7604 68.5888 78.1418 68.5888 78.6122V84.2095C68.5888 84.6799 68.9702 85.0613 69.4406 85.0613H70.6574C71.1278 85.0613 71.5091 84.6799 71.5091 84.2095V78.6122C71.5091 78.1418 71.1278 77.7604 70.6574 77.7604H69.4406ZM72.9693 78.6122C72.9693 78.1418 73.3507 77.7604 73.8211 77.7604H75.0379C75.5083 77.7604 75.8896 78.1418 75.8896 78.6122V84.2095C75.8896 84.6799 75.5083 85.0613 75.0379 85.0613H73.8211C73.3507 85.0613 72.9693 84.6799 72.9693 84.2095V78.6122ZM78.2016 77.7604C77.7312 77.7604 77.3498 78.1418 77.3498 78.6122V84.2095C77.3498 84.6799 77.7312 85.0613 78.2016 85.0613H79.4184C79.8888 85.0613 80.2701 84.6799 80.2701 84.2095V78.6122C80.2701 78.1418 79.8888 77.7604 79.4184 77.7604H78.2016Z" fill="#49AF62"/>
<path d="M50.3993 36.5431C50.6065 37.3162 50.6593 38.1225 50.5549 38.9161C50.4504 39.7096 50.1906 40.4748 49.7905 41.1679C49.3903 41.8611 48.8575 42.4686 48.2225 42.9559C47.5875 43.4431 46.8628 43.8005 46.0897 44.0077C45.3165 44.2148 44.5102 44.2677 43.7167 44.1632C42.9231 44.0587 42.1579 43.799 41.4648 43.3988C40.7716 42.9986 40.1641 42.4658 39.6769 41.8308C39.1896 41.1958 38.8322 40.4711 38.6251 39.698L50.3993 36.5431Z" fill="#49AF62"/>
<path fill-rule="evenodd" clip-rule="evenodd" d="M43.7482 14.6636L33.4457 17.4242C33.0393 17.5331 32.7981 17.9508 32.907 18.3572L33.3013 19.829L29.5021 19.0516C28.9473 18.938 28.4669 19.4481 28.6135 19.9951L30.1677 25.7954C30.2297 26.027 30.3972 26.2159 30.6198 26.3053L35.5689 28.2918L38.4281 38.9622L50.2023 35.8073L47.3432 25.1369L50.636 20.9419C50.7841 20.7533 50.8347 20.506 50.7726 20.2743L49.2185 14.4741C49.0719 13.927 48.4008 13.7255 47.9771 14.1012L45.0756 16.6741L44.6812 15.2023C44.5723 14.7959 44.1546 14.5547 43.7482 14.6636ZM45.5324 32.6913C45.8976 34.0545 45.0887 35.4556 43.7255 35.8209C42.3623 36.1862 40.9612 35.3772 40.5959 34.014C40.2306 32.6509 41.0396 31.2497 42.4028 30.8845C43.7659 30.5192 45.1671 31.3282 45.5324 32.6913ZM41.9619 29.239C42.8706 28.9955 43.4099 28.0614 43.1664 27.1526C42.9229 26.2438 41.9888 25.7045 41.0801 25.948C40.1713 26.1915 39.632 27.1256 39.8755 28.0344C40.119 28.9432 41.0531 29.4825 41.9619 29.239Z" fill="#49AF62"/>
<path d="M31.9923 43.5129C32.1325 44.0361 32.168 44.5818 32.0966 45.119C32.0253 45.6561 31.8487 46.1742 31.5767 46.6435C31.3047 47.1129 30.9428 47.5244 30.5116 47.8545C30.0804 48.1846 29.5884 48.4269 29.0636 48.5675C28.5388 48.7081 27.9916 48.7443 27.4531 48.674C26.9146 48.6038 26.3955 48.4283 25.9253 48.1578C25.4551 47.8873 25.043 47.527 24.7127 47.0975C24.3823 46.668 24.1402 46.1776 24 45.6545L31.9923 43.5129Z" fill="#49AF62"/>
<path fill-rule="evenodd" clip-rule="evenodd" d="M27.4899 28.7075L20.4966 30.5814C20.2208 30.6553 20.0569 30.9382 20.1306 31.2132L20.3974 32.2092L17.8195 31.6849C17.443 31.6084 17.1167 31.9539 17.2159 32.3241L18.2676 36.2491C18.3096 36.4058 18.4232 36.5336 18.5742 36.5939L21.9319 37.9359L23.8667 45.1566L31.859 43.0151L29.9242 35.7944L32.1611 32.9533C32.2617 32.8256 32.2962 32.6581 32.2542 32.5014L31.2025 28.5764C31.1033 28.2062 30.648 28.0701 30.3602 28.3247L28.3898 30.0676L28.1229 29.0717C28.0492 28.7966 27.7658 28.6336 27.4899 28.7075ZM28.6913 40.9085C28.9385 41.8309 28.3888 42.7797 27.4635 43.0276C26.5382 43.2756 25.5877 42.7288 25.3405 41.8063C25.0933 40.8839 25.6431 39.9351 26.5684 39.6872C27.4937 39.4392 28.4442 39.986 28.6913 40.9085ZM26.27 38.5737C26.8869 38.4084 27.2534 37.7758 27.0886 37.1609C26.9238 36.5459 26.2902 36.1814 25.6733 36.3467C25.0564 36.512 24.6899 37.1445 24.8547 37.7594C25.0195 38.3744 25.6531 38.7389 26.27 38.5737Z" fill="#49AF62"/>
<path d="M65.7248 34.4744C65.8649 34.9975 65.9004 35.5433 65.8291 36.0804C65.7578 36.6176 65.5811 37.1356 65.3091 37.605C65.0372 38.0743 64.6753 38.4858 64.2441 38.8159C63.8129 39.1461 63.3208 39.3883 62.796 39.529C62.2713 39.6696 61.724 39.7058 61.1855 39.6355C60.647 39.5652 60.1279 39.3898 59.6577 39.1193C59.1875 38.8488 58.7754 38.4885 58.4451 38.0589C58.1148 37.6294 57.8726 37.1391 57.7324 36.6159L65.7248 34.4744Z" fill="#49AF62"/>
<path fill-rule="evenodd" clip-rule="evenodd" d="M61.2224 19.669L54.2291 21.5428C53.9532 21.6167 53.7893 21.8996 53.863 22.1746L54.1298 23.1706L51.5519 22.6464C51.1754 22.5698 50.8491 22.9153 50.9483 23.2855L52 27.2105C52.042 27.3673 52.1556 27.495 52.3066 27.5554L55.6643 28.8973L57.5991 36.118L65.5914 33.9765L63.6567 26.7558L65.8936 23.9147C65.9942 23.787 66.0286 23.6196 65.9866 23.4628L64.9349 19.5378C64.8357 19.1676 64.3804 19.0315 64.0927 19.2861L62.1222 21.0291L61.8553 20.0331C61.7816 19.7581 61.4982 19.595 61.2224 19.669ZM62.4238 31.8699C62.6709 32.7923 62.1212 33.7411 61.1959 33.9891C60.2706 34.237 59.3201 33.6902 59.0729 32.7678C58.8258 31.8453 59.3755 30.8965 60.3008 30.6486C61.2261 30.4006 62.1766 30.9474 62.4238 31.8699ZM60.0024 29.5351C60.6193 29.3698 60.9858 28.7373 60.821 28.1223C60.6563 27.5073 60.0226 27.1428 59.4057 27.3081C58.7889 27.4734 58.4224 28.1059 58.5871 28.7209C58.7519 29.3358 59.3856 29.7004 60.0024 29.5351Z" fill="#49AF62"/>
</svg>
