<svg width="100" height="101" viewBox="0 0 100 101" fill="none" xmlns="http://www.w3.org/2000/svg">
<rect x="0.5" y="0.783447" width="99" height="99" rx="11.5" stroke="#49AF62"/>
<path d="M48.8523 13.4621L18.6347 23.101C17.8699 23.3449 17.2024 23.8258 16.7288 24.4739C16.2552 25.1221 16 25.9041 16 26.7068V49.3994C16 55.6529 17.6829 61.7912 20.8723 67.1703C24.0616 72.5494 28.6398 76.9711 34.1266 79.9715L48.1886 87.661C48.744 87.9648 49.3669 88.1239 49.9999 88.1239C50.633 88.1239 51.2558 87.9648 51.8113 87.661L65.874 79.9715C71.3605 76.9714 75.9386 72.55 79.1278 67.1713C82.3171 61.7925 84 55.6545 84 49.4013V26.6964C84 25.8967 83.7457 25.1176 83.2739 24.4719C82.8021 23.8261 82.1372 23.3471 81.3753 23.1041L51.1477 13.4621C50.4011 13.2239 49.5989 13.2239 48.8523 13.4621ZM62.5013 52.7661C62.5397 52.7789 62.5796 52.7731 62.6172 52.7888L66.4067 54.3586L66.5971 53.8986C66.6802 53.6963 66.8025 53.5124 66.9568 53.3574C67.1111 53.2024 67.2945 53.0794 67.4964 52.9955C67.6984 52.9115 67.9149 52.8682 68.1336 52.868C68.3523 52.8678 68.5689 52.9108 68.7709 52.9944C68.973 53.0781 69.1566 53.2008 69.3111 53.3555C69.4657 53.5102 69.5882 53.6939 69.6717 53.8961C69.7552 54.0982 69.798 54.3149 69.7976 54.5336C69.7972 54.7523 69.7537 54.9687 69.6695 55.1706L68.8438 57.1639C68.8431 57.165 68.8438 57.1661 68.8431 57.1673L68.8409 57.1711L68.0152 59.1639C67.8465 59.5713 67.5229 59.895 67.1156 60.0638C66.7082 60.2327 66.2504 60.2327 65.843 60.0641C65.4356 59.8954 65.1119 59.5718 64.943 59.1644C64.7742 58.757 64.7741 58.2993 64.9428 57.8918L65.1339 57.4307L61.3451 55.8612C61.3067 55.8454 61.2831 55.8133 61.2469 55.7952C60.1031 57.8026 58.4408 59.4656 56.434 60.6104C56.4517 60.6462 56.4834 60.6698 56.4989 60.7074L58.0683 64.4962L58.5295 64.3051C58.7312 64.2216 58.9474 64.1786 59.1658 64.1787C59.3841 64.1787 59.6003 64.2218 59.802 64.3053C60.0037 64.3889 60.187 64.5114 60.3414 64.6659C60.4957 64.8203 60.6182 65.0036 60.7017 65.2053C60.7852 65.4071 60.8282 65.6233 60.8282 65.8416C60.8281 66.06 60.7851 66.2762 60.7015 66.4779C60.6179 66.6796 60.4954 66.8629 60.341 67.0172C60.1866 67.1716 60.0033 67.294 59.8015 67.3775L57.8078 68.2036C57.8064 68.204 57.8064 68.2051 57.8049 68.2055C57.8037 68.2056 57.8024 68.2059 57.8012 68.2062L55.8082 69.0319C55.401 69.1997 54.9437 69.1991 54.5369 69.0301C54.1301 68.8611 53.807 68.5376 53.6385 68.1306C53.47 67.7237 53.4699 67.2664 53.6382 66.8594C53.8065 66.4523 54.1295 66.1286 54.5362 65.9595L54.9958 65.7689L53.4264 61.9795C53.4109 61.9423 53.4169 61.9031 53.4043 61.8655C51.1758 62.4751 48.8244 62.4745 46.5962 61.8637C46.5836 61.9021 46.5888 61.9415 46.5733 61.9795L45.0039 65.7684L45.4651 65.9595C45.6685 66.0418 45.8537 66.1635 46.0099 66.3178C46.1661 66.472 46.2902 66.6556 46.375 66.858C46.4599 67.0604 46.5038 67.2776 46.5043 67.4971C46.5048 67.7166 46.4619 67.934 46.3779 68.1368C46.2939 68.3396 46.1707 68.5238 46.0152 68.6787C45.8597 68.8336 45.6751 68.9562 45.4719 69.0394C45.2688 69.1226 45.0513 69.1648 44.8318 69.1635C44.6123 69.1622 44.3952 69.1174 44.1931 69.0318L42.2001 68.2065C42.1979 68.2058 42.1965 68.2061 42.195 68.2054C42.1935 68.2047 42.1928 68.2034 42.1906 68.2028L40.1984 67.3775C39.7909 67.2089 39.4672 66.8852 39.2984 66.4779C39.1296 66.0705 39.1295 65.6127 39.2982 65.2053C39.4669 64.7979 39.7905 64.4742 40.1979 64.3053C40.6052 64.1365 41.063 64.1365 41.4704 64.3051L41.9316 64.4961L43.501 60.7074C43.5172 60.6692 43.5489 60.6453 43.5674 60.6089C41.5599 59.4652 39.8968 57.8028 38.7523 55.7957C38.7161 55.8136 38.6925 55.8455 38.6549 55.8612L34.8661 57.431L35.0572 57.8918C35.1407 58.0935 35.1837 58.3097 35.1836 58.5281C35.1836 58.7464 35.1406 58.9626 35.057 59.1643C34.9734 59.366 34.8509 59.5493 34.6965 59.7037C34.542 59.858 34.3587 59.9805 34.157 60.064C33.9553 60.1475 33.739 60.1905 33.5207 60.1905C33.3024 60.1904 33.0862 60.1474 32.8844 60.0638C32.6827 59.9802 32.4995 59.8577 32.3451 59.7033C32.1907 59.5489 32.0683 59.3656 31.9848 59.1638L30.3305 55.1706C30.2463 54.9687 30.2028 54.7523 30.2024 54.5336C30.202 54.3149 30.2448 54.0982 30.3283 53.8961C30.4117 53.6939 30.5343 53.5102 30.6888 53.3555C30.8434 53.2008 31.027 53.0781 31.2291 52.9944C31.4311 52.9108 31.6477 52.8678 31.8664 52.868C32.0851 52.8682 32.3016 52.9115 32.5036 52.9955C32.7055 53.0794 32.8889 53.2024 33.0432 53.3574C33.1975 53.5124 33.3198 53.6963 33.4029 53.8986L33.5933 54.359L37.3828 52.7888C37.4204 52.7733 37.4595 52.7792 37.4979 52.7667C36.8881 50.5383 36.8886 48.187 37.4994 45.9589C37.461 45.9462 37.4212 45.9514 37.3828 45.9357L33.594 44.3667L33.4029 44.8275C33.3196 45.0295 33.1973 45.2132 33.0429 45.368C32.8886 45.5228 32.7053 45.6456 32.5034 45.7294C32.3015 45.8133 32.0851 45.8565 31.8666 45.8566C31.648 45.8567 31.4315 45.8138 31.2296 45.7302C31.0276 45.6465 30.8442 45.5239 30.6896 45.3693C30.5351 45.2147 30.4126 45.0312 30.3291 44.8292C30.2456 44.6272 30.2027 44.4107 30.203 44.1922C30.2032 43.9736 30.2465 43.7572 30.3305 43.5554L31.9847 39.5607C32.0682 39.359 32.1907 39.1756 32.3451 39.0212C32.4994 38.8668 32.6827 38.7443 32.8844 38.6607C33.0861 38.5771 33.3023 38.5341 33.5207 38.5341C33.739 38.534 33.9552 38.577 34.157 38.6605C34.3587 38.7441 34.542 38.8665 34.6964 39.0209C34.8508 39.1752 34.9733 39.3585 35.0569 39.5602C35.1405 39.7619 35.1836 39.9781 35.1836 40.1965C35.1836 40.4148 35.1407 40.631 35.0571 40.8328L34.866 41.2943L38.6549 42.8633C38.6932 42.8792 38.7176 42.9117 38.7537 42.9299C39.8965 40.9243 41.5569 39.2624 43.5615 38.1179C43.5438 38.0821 43.5165 38.0546 43.5011 38.0171L41.931 34.2287L41.4705 34.4194C41.2687 34.5033 41.0523 34.5467 40.8338 34.5469C40.6152 34.5471 40.3987 34.5043 40.1967 34.4208C39.9947 34.3372 39.8112 34.2147 39.6566 34.0602C39.502 33.9057 39.3794 33.7222 39.2958 33.5203C39.2122 33.3183 39.1692 33.1019 39.1693 32.8833C39.1694 32.6647 39.2127 32.4483 39.2965 32.2465C39.3804 32.0446 39.5032 31.8613 39.6579 31.7069C39.8127 31.5526 39.9964 31.4303 40.1985 31.347L44.1932 29.6928C44.6004 29.5249 45.0577 29.5256 45.4645 29.6945C45.8713 29.8635 46.1944 30.187 46.3629 30.594C46.5314 31.001 46.5315 31.4582 46.3632 31.8652C46.1949 32.2723 45.872 32.596 45.4652 32.7651L45.0033 32.9562L46.5735 36.7451C46.589 36.7827 46.5831 36.8222 46.5956 36.8602C48.8241 36.2506 51.1755 36.2511 53.4037 36.8619C53.4163 36.8233 53.4105 36.7835 53.4266 36.7451L54.9967 32.9559L54.5363 32.7651C54.3342 32.6818 54.1506 32.5595 53.9958 32.4052C53.841 32.2509 53.7182 32.0675 53.6344 31.8657C53.5505 31.6638 53.5073 31.4474 53.5072 31.2288C53.507 31.0103 53.55 30.7938 53.6336 30.5919C53.7172 30.3899 53.8399 30.2064 53.9944 30.0519C54.149 29.8974 54.3326 29.7749 54.5346 29.6914C54.7366 29.6079 54.953 29.565 55.1716 29.5652C55.3902 29.5655 55.6066 29.6088 55.8084 29.6927L59.8016 31.347C60.0037 31.4303 60.1874 31.5526 60.3421 31.7069C60.4969 31.8613 60.6197 32.0446 60.7036 32.2464C60.7874 32.4483 60.8306 32.6647 60.8308 32.8833C60.8309 33.1018 60.7879 33.3183 60.7043 33.5203C60.6207 33.7222 60.4981 33.9057 60.3435 34.0602C60.1889 34.2147 60.0053 34.3372 59.8034 34.4207C59.6014 34.5043 59.3849 34.5471 59.1663 34.5469C58.9477 34.5466 58.7314 34.5033 58.5295 34.4194L58.0691 34.2287L56.499 38.0171C56.4835 38.0551 56.4554 38.0829 56.437 38.1191C58.4424 39.2625 60.1039 40.9236 61.2477 42.9288C61.2839 42.9109 61.3075 42.8788 61.3451 42.8633L65.1339 41.2946L64.9428 40.8327C64.7741 40.4253 64.7742 39.9676 64.943 39.5602C65.1118 39.1528 65.4356 38.8292 65.843 38.6605C66.2504 38.4918 66.7082 38.4919 67.1156 38.6607C67.5229 38.8295 67.8465 39.1533 68.0152 39.5607L68.8416 41.5571C68.8423 41.5577 68.8431 41.5581 68.8431 41.5588V41.5607L69.6695 43.5554C69.7534 43.7572 69.7967 43.9736 69.797 44.1922C69.7972 44.4108 69.7544 44.6272 69.6708 44.8292C69.5873 45.0312 69.4648 45.2148 69.3103 45.3694C69.1558 45.5239 68.9723 45.6466 68.7704 45.7302C68.5684 45.8138 68.352 45.8568 68.1334 45.8566C67.9148 45.8565 67.6984 45.8133 67.4966 45.7294C67.2947 45.6456 67.1114 45.5228 66.957 45.368C66.8027 45.2132 66.6804 45.0296 66.5971 44.8275L66.4067 44.3671L62.6172 45.9357C62.5796 45.9512 62.5405 45.946 62.5028 45.9586C63.1123 48.1869 63.1118 50.5381 62.5013 52.7661Z" fill="#49AF62"/>
<path fill-rule="evenodd" clip-rule="evenodd" d="M50.0696 43.9317C48.527 43.9317 47.2766 45.1822 47.2766 46.7247C47.2766 48.2673 48.527 49.5178 50.0696 49.5178C51.6121 49.5178 52.8626 48.2673 52.8626 46.7247C52.8626 45.1822 51.6121 43.9317 50.0696 43.9317ZM44.4835 46.7247C44.4835 43.6396 46.9845 41.1387 50.0696 41.1387C53.1547 41.1387 55.6557 43.6396 55.6557 46.7247C55.6557 49.8099 53.1547 52.3108 50.0696 52.3108C46.9845 52.3108 44.4835 49.8099 44.4835 46.7247Z" fill="#49AF62"/>
<path fill-rule="evenodd" clip-rule="evenodd" d="M50.0696 49.5178C50.8409 49.5178 51.4661 50.1431 51.4661 50.9143V56.675C51.4661 57.4463 50.8409 58.0715 50.0696 58.0715C49.2983 58.0715 48.6731 57.4463 48.6731 56.675V50.9143C48.6731 50.1431 49.2983 49.5178 50.0696 49.5178Z" fill="#49AF62"/>
</svg>
