<svg width="100" height="101" viewBox="0 0 100 101" fill="none" xmlns="http://www.w3.org/2000/svg">
<rect x="0.5" y="0.783447" width="99" height="99" rx="11.5" stroke="#49AF62"/>
<path d="M48.4487 81.8989V87.6169C55.1445 87.6169 60.4622 85.1782 64.5248 81.8989H48.4487Z" fill="#49AF62"/>
<path d="M19.8591 53.3091V59.027C19.8591 66.1745 25.5771 67.604 25.5771 67.604C25.5771 67.604 31.295 84.7578 48.4489 84.7578" stroke="#49AF62" stroke-width="4" stroke-miterlimit="10" stroke-linecap="round"/>
<path d="M79.8975 56.1681H71.3206C71.3206 38.3281 62.7436 30.4373 62.7436 30.4373C54.1667 50.4502 25.5769 36.1553 25.5769 56.1681H17C17 56.1681 17 55.8307 17 44.7322C17 24.7194 34.1539 13.2834 48.4488 13.2834C59.8847 13.2834 62.7436 19.0014 62.7436 19.0014C74.1796 19.0014 79.8975 33.2963 79.8975 44.7322V56.1681Z" fill="#49AF62"/>
<path d="M49.8782 67.604C49.375 67.604 47.5224 67.604 47.0192 67.604C44.6519 67.604 42.7307 69.5252 42.7307 71.8925C42.7307 74.2597 44.6519 76.1809 47.0192 76.1809C47.5224 76.1809 49.375 76.1809 49.8782 76.1809C52.2454 76.1809 54.1666 74.2597 54.1666 71.8925C54.1666 69.5252 52.2454 67.604 49.8782 67.604Z" fill="#49AF62"/>
<path d="M51.3076 73.3219H65.6025C71.918 73.3219 77.0384 68.2015 77.0384 61.886V53.3091" stroke="#49AF62" stroke-width="4" stroke-miterlimit="10" stroke-linecap="round"/>
<path d="M77.0388 64.7451H71.3208V50.4502H77.0388C80.1979 50.4502 82.7567 53.009 82.7567 56.1682V59.0271C82.7567 62.1863 80.1979 64.7451 77.0388 64.7451Z" fill="#49AF62"/>
</svg>
