<svg width="100" height="101" viewBox="0 0 100 101" fill="none" xmlns="http://www.w3.org/2000/svg">
<rect x="0.5" y="1.28345" width="99.0001" height="99" rx="11.5" fill="#E4F3E8"/>
<rect x="0.5" y="1.28345" width="99.0001" height="99" rx="11.5" stroke="#49AF62"/>
<path d="M14.0001 15.712V27.5692C14.0001 27.5692 14.1788 33.4977 20.0001 33.4977C25.8214 33.4977 74.1055 33.4977 80 33.4977C85.8945 33.4977 86 27.5692 86 27.5692V15.712C86 15.712 85.9531 9.78345 80 9.78345C74.0469 9.78345 24.8312 9.78345 20.0001 9.78345C13.9151 9.78345 14.0001 15.712 14.0001 15.712ZM14.0001 45.3549V57.212C14.0001 57.212 14.1788 63.1406 20.0001 63.1406C25.8214 63.1406 74.1055 63.1406 80 63.1406C85.8945 63.1406 86 57.212 86 57.212V45.3549C86 45.3549 85.9531 39.4263 80 39.4263C74.0469 39.4263 24.8312 39.4263 20.0001 39.4263C13.9151 39.4263 14.0001 45.3549 14.0001 45.3549ZM14.0001 74.9977V86.8549C14.0001 86.8549 14.1788 92.7834 20.0001 92.7834C25.8214 92.7834 74.1055 92.7834 80 92.7834C85.8945 92.7834 86 86.8549 86 86.8549V74.9977C86 74.9977 85.9531 69.0692 80 69.0692C74.0469 69.0692 24.8312 69.0692 20.0001 69.0692C13.9151 69.0692 14.0001 74.9977 14.0001 74.9977ZM20.0001 57.212V45.3549H26.0001V57.212H20.0001ZM32 57.212V45.3549H38V57.212H32ZM44 57.212V45.3549H50V57.212H44ZM56 57.212V45.3549H62V57.212H56ZM74 51.2834V45.3549H80V51.2834H74ZM20.0001 27.5692V15.712H26.0001V27.5692H20.0001ZM32 27.5692V15.712H38V27.5692H32ZM44 27.5692V15.712H50V27.5692H44ZM56 27.5692V15.712H62V27.5692H56ZM74 21.6406V15.712H80V21.6406H74ZM20.0001 86.8549V74.9977H26.0001V86.8549H20.0001ZM32 86.8549V74.9977H38V86.8549H32ZM44 86.8549V74.9977H50V86.8549H44ZM56 86.8549V74.9977H62V86.8549H56ZM74 80.9263V74.9977H80V80.9263H74Z" fill="#49AF62"/>
</svg>
