<svg width="100" height="101" viewBox="0 0 100 101" fill="none" xmlns="http://www.w3.org/2000/svg">
<rect x="0.5" y="1.28345" width="99" height="99" rx="11.5" fill="#E4F3E8"/>
<rect x="0.5" y="1.28345" width="99" height="99" rx="11.5" stroke="#49AF62"/>
<path d="M34.1618 37.6986L28.6655 43.1948L33.0325 47.5618L38.5288 42.0656L34.1618 37.6986Z" fill="#49AF62"/>
<path d="M12.4342 23.2334L9.73924 25.9284C8.75359 26.914 8.75359 28.511 9.73924 29.5092L12.0849 31.8548L16.564 27.3632L12.4342 23.2334Z" fill="#49AF62"/>
<path d="M24.5698 22.8874L20.0881 27.3691L23.9082 31.1892L28.3899 26.7075L24.5698 22.8874Z" fill="#49AF62"/>
<path d="M18.3345 29.1304L13.8528 33.6121L17.6728 37.4321L22.1545 32.9504L18.3345 29.1304Z" fill="#49AF62"/>
<path d="M23.9252 34.7119L19.4336 39.191L21.7667 41.5242C22.7524 42.5098 24.3494 42.5098 25.3475 41.5242L28.0425 38.8292L23.9252 34.7119Z" fill="#49AF62"/>
<path d="M18.3231 25.5916L22.8147 21.1L20.4816 18.7668C19.4959 17.7812 17.8989 17.7812 16.9008 18.7668L14.2058 21.4618L18.3231 25.5916Z" fill="#49AF62"/>
<path d="M32.4966 34.3751C33.4822 33.3895 33.4822 31.7925 32.4966 30.7943L30.1634 28.4612L25.6843 32.9528L29.8016 37.0701L32.4966 34.3751Z" fill="#49AF62"/>
<path d="M24.1497 68.1618L26.0088 66.3027L34.73 75.0239L32.8709 76.8829C30.4629 79.2909 26.5577 79.2909 24.1497 76.8829C21.7418 74.475 21.7418 70.5698 24.1497 68.1618Z" fill="#49AF62"/>
<path d="M79.2966 42.385C73.4825 48.1991 64.0751 48.1866 58.2734 42.385C52.4593 36.5709 52.4593 27.1759 58.2734 21.3618L79.2966 42.385Z" fill="#49AF62"/>
<path d="M90.8751 27.0512H88.3798C88.3798 18.9039 81.7547 12.2788 73.6074 12.2788V9.78345C83.1271 9.78345 90.8751 17.5315 90.8751 27.0512Z" fill="#49AF62"/>
<path d="M84.4743 27.0513H81.979C81.979 22.4349 78.2235 18.6919 73.6196 18.6919V16.1966C79.596 16.1841 84.4743 21.0625 84.4743 27.0513Z" fill="#49AF62"/>
<path d="M73.6071 30.2577C75.378 30.2577 76.8136 28.8221 76.8136 27.0512C76.8136 25.2803 75.378 23.8447 73.6071 23.8447C71.8362 23.8447 70.4006 25.2803 70.4006 27.0512C70.4006 28.8221 71.8362 30.2577 73.6071 30.2577Z" fill="#49AF62"/>
<path d="M58.9579 62.5069L53.4617 68.0032L57.8287 72.3702L63.3249 66.8739L58.9579 62.5069Z" fill="#49AF62"/>
<path d="M62.191 72.9902L59.4961 75.6852C58.5104 76.6709 58.5104 78.2679 59.4961 79.266L61.8417 81.6116L66.3208 77.12L62.191 72.9902Z" fill="#49AF62"/>
<path d="M74.3257 72.6465L69.844 77.1282L73.664 80.9482L78.1457 76.4665L74.3257 72.6465Z" fill="#49AF62"/>
<path d="M68.0903 78.8857L63.6086 83.3674L67.4287 87.1875L71.9104 82.7058L68.0903 78.8857Z" fill="#49AF62"/>
<path d="M73.6823 84.4688L69.1907 88.9479L71.5238 91.281C72.5095 92.2667 74.1065 92.2667 75.1046 91.281L77.7996 88.586L73.6823 84.4688Z" fill="#49AF62"/>
<path d="M68.0802 75.3484L72.5718 70.8568L70.2387 68.5237C69.253 67.538 67.656 67.538 66.6579 68.5237L63.9629 71.2186L68.0802 75.3484Z" fill="#49AF62"/>
<path d="M82.2661 84.1444C83.2518 83.1587 83.2518 81.5617 82.2661 80.5636L79.933 78.2305L75.4539 82.7221L79.5712 86.8394L82.2661 84.1444Z" fill="#49AF62"/>
<path d="M61.4051 50.0332L50.9995 39.6276C49.6146 38.2302 47.3563 38.2302 45.9714 39.6276L27.6682 57.9309C26.2708 59.3158 26.2708 61.5741 27.6682 62.959L38.0737 73.3645C39.4586 74.7619 41.7169 74.7619 43.1018 73.3645L61.4051 55.0613C62.8025 53.6764 62.8025 51.4181 61.4051 50.0332ZM34.3307 61.0002L32.272 58.9415L45.8716 45.3419L47.9303 47.4006L34.3307 61.0002Z" fill="#49AF62"/>
</svg>
