<svg width="100" height="101" viewBox="0 0 100 101" fill="none" xmlns="http://www.w3.org/2000/svg">
<rect x="0.5" y="1.28345" width="99" height="99" rx="11.5" fill="#E4F3E8"/>
<rect x="0.5" y="1.28345" width="99" height="99" rx="11.5" stroke="#49AF62"/>
<path d="M88.2871 79.592C88.8394 79.592 89.2871 80.0398 89.2871 80.592V82.4983C89.2871 83.0506 88.8394 83.4983 88.2871 83.4983H29.3457C28.4277 87.7366 24.6484 90.9202 20.1367 90.9202C14.9414 90.9202 10.7129 86.6917 10.7129 81.4963C10.7129 76.301 14.9414 72.0725 20.1367 72.0725C24.6777 72.0725 28.4863 75.3049 29.3652 79.592H88.2871Z" fill="#49AF62"/>
<path d="M88.2871 48.8303C88.8394 48.8303 89.2871 49.278 89.2871 49.8303V51.7366C89.2871 52.2889 88.8394 52.7366 88.2871 52.7366H75.4297C74.5313 56.9944 70.7324 60.2073 66.2109 60.2073C61.6895 60.2073 57.8906 57.0042 56.9922 52.7366H13.1387C12.5864 52.7366 12.1387 52.2889 12.1387 51.7366V49.8303C12.1387 49.278 12.5864 48.8303 13.1387 48.8303H56.9922C57.8906 44.5725 61.6895 41.3596 66.2109 41.3596C70.7324 41.3596 74.5313 44.5627 75.4297 48.8303H88.2871Z" fill="#49AF62"/>
<path d="M88.2871 18.0686C88.8394 18.0686 89.2871 18.5163 89.2871 19.0686V20.9749C89.2871 21.5271 88.8394 21.9749 88.2871 21.9749H46.123C45.2441 26.262 41.4355 29.4944 36.8945 29.4944C32.3535 29.4944 28.5547 26.262 27.666 21.9749H13.1387C12.5864 21.9749 12.1387 21.5271 12.1387 20.9749V19.0686C12.1387 18.5163 12.5864 18.0686 13.1387 18.0686H27.6855C28.6035 13.8303 32.3828 10.6467 36.8945 10.6467C41.4062 10.6467 45.1855 13.8303 46.1035 18.0686H88.2871Z" fill="#49AF62"/>
</svg>
