<svg width="60" height="61" viewBox="0 0 60 61" fill="none" xmlns="http://www.w3.org/2000/svg">
<path fill-rule="evenodd" clip-rule="evenodd" d="M33.3333 20.2832H26.6667V26.9499H33.3333V20.2832ZM46.6667 20.2832H40V26.9499H46.6667V20.2832ZM56.6667 41.9499C52.6667 41.9499 48.6667 41.2832 44.6667 39.9499C43.6667 39.6165 42.3333 39.9499 41.3333 40.6165L34 47.9499C24.6667 43.2832 17 35.2832 12 25.9499L19.3333 18.6165C20.3333 17.6165 20.6667 16.2832 20 15.2832C19 11.6165 18.3333 7.61654 18.3333 3.61654C18.3333 1.61654 17 0.283203 15 0.283203H3.33333C1.33333 0.283203 0 1.61654 0 3.61654C0 34.9499 25.3333 60.2832 56.6667 60.2832C58.6667 60.2832 60 58.9499 60 56.9499V45.2832C60 43.2832 58.6667 41.9499 56.6667 41.9499ZM53.3333 20.2832V26.9499H60V20.2832H53.3333Z" fill="#49AF62"/>
</svg>
