<svg width="64" height="61" viewBox="0 0 64 61" fill="none" xmlns="http://www.w3.org/2000/svg">
<path d="M51.8521 46.8116V46.3817V35.1406C51.8521 34.0361 50.9566 33.1406 49.8521 33.1406H1.99988C0.895309 33.1406 -0.00012207 34.0361 -0.00012207 35.1406V58.0537C-0.00012207 59.1583 0.895309 60.0537 1.99988 60.0537H49.8521C50.9566 60.0537 51.8521 59.1583 51.8521 58.0537V56.4223V55.9923C51.8521 55.8303 51.907 55.6731 52.008 55.5462L55.8069 50.7734C56.8498 49.4631 55.9167 47.5279 54.242 47.5279H52.5685C52.1728 47.528 51.8521 47.2073 51.8521 46.8116ZM16.3313 52.1152C16.3313 52.5109 16.0105 52.8316 15.6148 52.8316H6.70074C6.30522 52.8316 5.9843 52.5109 5.9843 52.1152C5.9843 52.0398 5.99913 51.9686 6.02084 51.9004C5.99913 51.8322 5.9843 51.7609 5.9843 51.6856C5.9843 51.2899 6.30522 50.9691 6.70074 50.9691H15.615C16.0107 50.9691 16.3314 51.2899 16.3314 51.6856C16.3314 51.7609 16.3166 51.8322 16.295 51.9004C16.3165 51.9686 16.3313 52.0398 16.3313 52.1152ZM16.3313 46.6813C16.3313 47.077 16.0105 47.3978 15.6148 47.3978H6.70074C6.30522 47.3978 5.9843 47.077 5.9843 46.6813C5.9843 46.606 5.99913 46.5347 6.02084 46.4665C5.99913 46.3983 5.9843 46.3271 5.9843 46.2517C5.9843 45.856 6.30522 45.5353 6.70074 45.5353H15.615C16.0107 45.5353 16.3314 45.856 16.3314 46.2517C16.3314 46.3271 16.3166 46.3983 16.295 46.4665C16.3165 46.5347 16.3313 46.606 16.3313 46.6813ZM16.3447 41.1033C16.3447 41.499 16.0241 41.8197 15.6284 41.8197H6.71297C6.31745 41.8197 5.99653 41.499 5.99653 41.1033C5.99653 41.0279 6.01136 40.9567 6.03307 40.8885C6.01136 40.8203 5.99653 40.749 5.99653 40.6737C5.99653 40.2778 6.31745 39.9572 6.71297 39.9572H15.6284C16.0241 39.9572 16.3447 40.2778 16.3447 40.6737C16.3447 40.749 16.3299 40.8203 16.3083 40.8885C16.3299 40.9567 16.3447 41.0278 16.3447 41.1033ZM45.6473 52.1152C45.6473 52.5109 45.3266 52.8316 44.9309 52.8316H20.89C20.4945 52.8316 20.1736 52.5109 20.1736 52.1152C20.1736 52.0398 20.1884 51.9686 20.2101 51.9004C20.1884 51.8322 20.1736 51.7609 20.1736 51.6856C20.1736 51.2899 20.4945 50.9691 20.89 50.9691H44.931C45.3267 50.9691 45.6475 51.2899 45.6475 51.6856C45.6475 51.7609 45.6327 51.8322 45.6113 51.9004C45.6327 51.9686 45.6473 52.0398 45.6473 52.1152ZM45.6473 46.6813C45.6473 47.077 45.3266 47.3978 44.9309 47.3978H20.89C20.4945 47.3978 20.1736 47.077 20.1736 46.6813C20.1736 46.606 20.1884 46.5347 20.2101 46.4665C20.1884 46.3983 20.1736 46.3271 20.1736 46.2517C20.1736 45.856 20.4945 45.5353 20.89 45.5353H44.931C45.3267 45.5353 45.6475 45.856 45.6475 46.2517C45.6475 46.3271 45.6327 46.3983 45.6113 46.4665C45.6327 46.5347 45.6473 46.606 45.6473 46.6813ZM45.6597 41.1033C45.6597 41.499 45.339 41.8197 44.9433 41.8197H20.9022C20.5067 41.8197 20.1859 41.499 20.1859 41.1033C20.1859 41.0279 20.2008 40.9567 20.2223 40.8885C20.2006 40.8203 20.1859 40.749 20.1859 40.6737C20.1859 40.2778 20.5067 39.9572 20.9022 39.9572H44.9434C45.3391 39.9572 45.6599 40.2778 45.6599 40.6737C45.6599 40.749 45.645 40.8203 45.6236 40.8885C45.645 40.9567 45.6597 41.0278 45.6597 41.1033Z" fill="#49AF62"/>
<path d="M13.3916 0C12.287 0 11.3916 0.895431 11.3916 2V12.4922V12.922C11.3916 13.3176 11.071 13.6384 10.6751 13.6384H9.00214C7.32753 13.6384 6.39444 15.5734 7.43719 16.8838L11.2356 21.657C11.3367 21.7838 11.3916 21.9409 11.3916 22.103V22.5328V24.9138C11.3916 26.0184 12.287 26.9138 13.3916 26.9138H61.2452C62.3497 26.9138 63.2452 26.0184 63.2452 24.9138V2C63.2452 0.895432 62.3497 0 61.2452 0H13.3916ZM17.3526 8.0969C17.3526 7.70122 17.6735 7.38046 18.0691 7.38046H42.1102C42.5059 7.38046 42.8267 7.70122 42.8267 8.0969C42.8267 8.17228 42.8119 8.24352 42.7903 8.31187C42.812 8.38006 42.8267 8.4513 42.8267 8.52668C42.8267 8.92236 42.5059 9.24312 42.1102 9.24312H18.0689C17.6734 9.24312 17.3525 8.92236 17.3525 8.52668C17.3525 8.4513 17.3673 8.38006 17.389 8.31187C17.3674 8.24352 17.3526 8.17228 17.3526 8.0969ZM42.8388 19.1087C42.8388 19.5043 42.518 19.8251 42.1223 19.8251H18.0813C17.6858 19.8251 17.3648 19.5043 17.3648 19.1087C17.3648 19.0333 17.3797 18.962 17.4014 18.8937C17.3797 18.8255 17.3648 18.7543 17.3648 18.6789C17.3648 18.2832 17.6858 17.9624 18.0813 17.9624H42.1225C42.5182 17.9624 42.8389 18.283 42.8389 18.6789C42.8389 18.7543 42.8239 18.8255 42.8025 18.8937C42.8239 18.962 42.8388 19.0333 42.8388 19.1087ZM42.8388 13.8182C42.8388 14.2139 42.518 14.5346 42.1223 14.5346H18.0813C17.6858 14.5346 17.3648 14.2139 17.3648 13.8182C17.3648 13.7428 17.3797 13.6716 17.4014 13.6032C17.3797 13.535 17.3648 13.4638 17.3648 13.3884C17.3648 12.9927 17.6858 12.672 18.0813 12.672H42.1225C42.5182 12.672 42.8389 12.9926 42.8389 13.3884C42.8389 13.4638 42.8239 13.535 42.8025 13.6032C42.8239 13.6716 42.8388 13.7428 42.8388 13.8182ZM46.6691 8.0969C46.6691 7.70122 46.9897 7.38046 47.3854 7.38046H56.2998C56.6955 7.38046 57.0163 7.70122 57.0163 8.0969C57.0163 8.17228 57.0013 8.24352 56.9799 8.31187C57.0014 8.38006 57.0163 8.4513 57.0163 8.52668C57.0163 8.92236 56.6955 9.24312 56.2998 9.24312H47.3854C46.9897 9.24312 46.6691 8.92236 46.6691 8.52668C46.6691 8.4513 46.6838 8.38006 46.7054 8.31187C46.6838 8.24352 46.6691 8.17228 46.6691 8.0969ZM57.0296 19.1087C57.0296 19.5043 56.7088 19.8251 56.3131 19.8251H47.3975C47.0018 19.8251 46.6811 19.5043 46.6811 19.1087C46.6811 19.0333 46.6959 18.962 46.7174 18.8937C46.6957 18.8255 46.6811 18.7543 46.6811 18.6789C46.6811 18.2832 47.0018 17.9624 47.3975 17.9624H56.3131C56.7088 17.9624 57.0296 18.283 57.0296 18.6789C57.0296 18.7543 57.0146 18.8255 56.9932 18.8937C57.0146 18.962 57.0296 19.0333 57.0296 19.1087ZM57.0296 13.8182C57.0296 14.2139 56.7088 14.5346 56.3131 14.5346H47.3975C47.0018 14.5346 46.6811 14.2139 46.6811 13.8182C46.6811 13.7428 46.6959 13.6716 46.7174 13.6032C46.6957 13.535 46.6811 13.4638 46.6811 13.3884C46.6811 12.9927 47.0018 12.672 47.3975 12.672H56.3131C56.7088 12.672 57.0296 12.9926 57.0296 13.3884C57.0296 13.4638 57.0146 13.535 56.9932 13.6032C57.0146 13.6716 57.0296 13.7428 57.0296 13.8182Z" fill="#49AF62"/>
</svg>
