<svg width="64" height="61" viewBox="0 0 64 61" fill="none" xmlns="http://www.w3.org/2000/svg">
<path d="M14.1824 24.7951C14.1824 23.5791 13.2096 22.5679 11.9936 22.5679C11.9808 22.5679 11.9808 22.5679 11.968 22.5679C5.3632 22.5679 0 27.9311 0 34.5359C0 41.1407 5.3632 46.5039 11.968 46.5039C11.9808 46.5039 11.9808 46.5039 11.9936 46.5039C13.2096 46.5039 14.1824 45.4927 14.1824 44.2767V24.7951Z" fill="#49AF62"/>
<path d="M49.8176 24.7951C49.8176 23.5791 50.7904 22.5679 52.0064 22.5679C52.0192 22.5679 52.0192 22.5679 52.032 22.5679C58.6368 22.5679 64 27.9311 64 34.5359C64 41.1407 58.6368 46.5039 52.032 46.5039C52.0192 46.5039 52.0192 46.5039 52.0064 46.5039C50.7904 46.5039 49.8176 45.4927 49.8176 44.2767V24.7951Z" fill="#49AF62"/>
<path d="M58.2015 32.2576C56.9727 32.2576 55.9743 31.2208 55.9743 29.928C55.9743 16.1424 45.2351 6.7216 32.0255 6.7216C18.8159 6.7216 8.07671 16.1552 8.07671 29.928C8.07671 31.208 7.07831 32.2576 5.84951 32.2576C4.62071 32.2576 3.62231 31.2208 3.62231 29.928C3.62231 13.5824 16.3711 0.283203 32.0255 0.283203C47.6799 0.283203 60.4287 13.5824 60.4287 29.928C60.4287 31.2208 59.4303 32.2576 58.2015 32.2576Z" fill="#49AF62"/>
<path d="M37.6961 57.1917C36.9537 57.1917 36.1729 57.1533 35.3665 57.0893L35.6225 54.1197C49.9841 55.3741 53.1585 43.4573 53.2865 42.9453L56.1793 43.6621C56.1409 43.8157 55.2193 47.4765 52.1857 50.9453C49.6385 53.8893 45.1073 57.1917 37.6961 57.1917Z" fill="#49AF62"/>
<path d="M35.0977 60.3667C37.6709 60.3667 39.7569 58.2807 39.7569 55.7075C39.7569 53.1343 37.6709 51.0483 35.0977 51.0483C32.5245 51.0483 30.4385 53.1343 30.4385 55.7075C30.4385 58.2807 32.5245 60.3667 35.0977 60.3667Z" fill="#49AF62"/>
</svg>
