<svg width="66" height="61" viewBox="0 0 66 61" fill="none" xmlns="http://www.w3.org/2000/svg">
<path d="M63.4951 19.9536L33.4233 40.691C33.2138 40.835 32.9651 40.9135 32.7294 40.9135C32.4938 40.9135 32.245 40.835 32.0356 40.691L1.96377 19.9536C0.772414 20.8962 0 22.3494 0 23.999V55.3799C0 58.2209 2.30415 60.525 5.14507 60.525H60.3007C63.1416 60.525 65.4458 58.2209 65.4458 55.3799V23.9859C65.4588 22.3494 64.6864 20.8962 63.4951 19.9536ZM23.7092 40.1149L8.50965 55.3145C8.39182 55.4323 8.23472 55.4978 8.07762 55.4978C7.92052 55.4978 7.76342 55.4323 7.64559 55.3145C7.40994 55.0788 7.40994 54.6861 7.64559 54.4504L22.8451 39.2509C23.0808 39.0152 23.4735 39.0152 23.7092 39.2509C23.9579 39.4865 23.9579 39.8793 23.7092 40.1149ZM57.8133 55.3145C57.6954 55.4323 57.5383 55.4978 57.3812 55.4978C57.2241 55.4978 57.067 55.4323 56.9492 55.3145L41.7497 40.1149C41.514 39.8793 41.514 39.4865 41.7497 39.2509C41.9853 39.0152 42.3781 39.0152 42.6137 39.2509L57.8133 54.4504C58.0489 54.6861 58.0489 55.0788 57.8133 55.3145Z" fill="#49AF62"/>
<path d="M46.8686 24.2739H18.5903V26.1068H46.8686V24.2739Z" fill="#49AF62"/>
<path d="M18.5903 28.4372L20.4625 29.7332H44.9964L46.8686 28.4372V27.9004H18.5903V28.4372Z" fill="#49AF62"/>
<path d="M46.8686 20.6475H18.5903V22.4803H46.8686V20.6475Z" fill="#49AF62"/>
<path d="M59.9604 18.3302L34.6933 0.89197C33.5019 0.0802807 31.944 0.0802807 30.7526 0.89197L5.49861 18.3302C5.11895 18.592 5.11895 19.1419 5.49861 19.4037L13.8773 25.1903V15.0049H51.5816V25.1903L59.9604 19.4037C60.34 19.1419 60.34 18.592 59.9604 18.3302Z" fill="#49AF62"/>
<path d="M23.0544 31.5137L25.7121 33.3465H39.7465L42.4041 31.5137H23.0544Z" fill="#49AF62"/>
<path d="M37.1546 35.1401H28.3176L30.7658 36.829C30.8443 36.8813 30.9098 36.9206 30.9883 36.973H34.4838C34.5624 36.9337 34.6279 36.8813 34.7064 36.829L37.1546 35.1401Z" fill="#49AF62"/>
</svg>
