<svg width="38" height="29" viewBox="0 0 38 29" fill="none" xmlns="http://www.w3.org/2000/svg">
<path d="M15.9929 0.283203H0V13.3726H9.09672C9.01284 21.5232 0.893581 23.0627 0.893581 23.0627C0.893581 23.0627 0.850785 23.3357 0.893581 28.2832C14.43 25.8543 15.8713 16.3299 15.9886 13.3726H15.992V13.2909C16.01 12.7849 15.992 12.4679 15.992 12.4679V0.283203H15.9929Z" fill="#49AF62"/>
<path d="M37.9923 12.4671V0.283203H23V13.3726H31.5288C31.4502 21.5232 23.8385 23.0627 23.8385 23.0627C23.8385 23.0627 23.7984 23.3357 23.8385 28.2832C36.5287 25.8543 37.8799 16.3299 37.9899 13.3726H37.9931V13.2909C38.0091 12.7849 37.9923 12.4671 37.9923 12.4671Z" fill="#49AF62"/>
</svg>
