<svg width="499" height="544" viewBox="0 0 499 544" fill="none" xmlns="http://www.w3.org/2000/svg">
<g filter="url(#filter0_f_860_931)">
<ellipse cx="249.5" cy="516.5" rx="224.5" ry="2.5" fill="black"/>
</g>
<path d="M338.486 268.764H259.327V468.419H338.486V268.764Z" fill="url(#paint0_linear_860_931)" fill-opacity="0.3"/>
<path d="M336.966 256.814H261.064V268.872H336.966V256.814Z" fill="url(#paint1_linear_860_931)" fill-opacity="0.3"/>
<path d="M338.377 267.46H259.544C258.241 267.46 257.264 268.546 257.264 269.741C257.264 271.045 258.35 272.022 259.544 272.022H338.268C339.571 272.022 340.549 270.936 340.549 269.741C340.657 268.438 339.571 267.46 338.377 267.46Z" fill="url(#paint2_linear_860_931)" fill-opacity="0.3"/>
<path d="M334.359 256.815H263.453C263.453 241.716 275.723 229.441 290.817 229.441H306.887C322.089 229.333 334.359 241.607 334.359 256.815Z" fill="url(#paint3_linear_860_931)" fill-opacity="0.3"/>
<path d="M271.054 288.099H263.779C263.019 288.099 262.476 287.556 262.476 286.796V280.278C262.476 277.562 264.647 275.281 267.471 275.281C270.185 275.281 272.465 277.454 272.465 280.278V286.796C272.357 287.447 271.705 288.099 271.054 288.099Z" fill="url(#paint4_linear_860_931)"/>
<path d="M283.65 288.099H276.374C275.614 288.099 275.071 287.556 275.071 286.796V280.278C275.071 277.562 277.243 275.281 280.066 275.281C282.781 275.281 285.061 277.454 285.061 280.278V286.796C284.953 287.447 284.41 288.099 283.65 288.099Z" fill="url(#paint5_linear_860_931)"/>
<path d="M296.245 288.099H288.97C288.21 288.099 287.667 287.556 287.667 286.796V280.278C287.667 277.562 289.839 275.281 292.662 275.281C295.377 275.281 297.657 277.454 297.657 280.278V286.796C297.548 287.447 297.005 288.099 296.245 288.099Z" fill="url(#paint6_linear_860_931)"/>
<path d="M308.95 288.099H301.675C300.915 288.099 300.372 287.556 300.372 286.796V280.278C300.372 277.562 302.544 275.281 305.367 275.281C308.082 275.281 310.362 277.454 310.362 280.278V286.796C310.253 287.447 309.602 288.099 308.95 288.099Z" fill="url(#paint7_linear_860_931)"/>
<path d="M321.546 288.099H314.271C313.511 288.099 312.968 287.556 312.968 286.796V280.278C312.968 277.562 315.139 275.281 317.963 275.281C320.677 275.281 322.958 277.454 322.958 280.278V286.796C322.849 287.447 322.198 288.099 321.546 288.099Z" fill="url(#paint8_linear_860_931)"/>
<path d="M334.142 288.099H326.867C326.106 288.099 325.563 287.556 325.563 286.796V280.278C325.563 277.562 327.735 275.281 330.558 275.281C333.273 275.281 335.553 277.454 335.553 280.278V286.796C335.445 287.447 334.902 288.099 334.142 288.099Z" fill="url(#paint9_linear_860_931)"/>
<path d="M271.054 307.109H263.779C263.019 307.109 262.476 306.566 262.476 305.805V299.288C262.476 296.572 264.647 294.291 267.471 294.291C270.185 294.291 272.465 296.464 272.465 299.288V305.805C272.357 306.457 271.705 307.109 271.054 307.109Z" fill="url(#paint10_linear_860_931)"/>
<path d="M283.65 307.109H276.374C275.614 307.109 275.071 306.566 275.071 305.805V299.288C275.071 296.572 277.243 294.291 280.066 294.291C282.781 294.291 285.061 296.464 285.061 299.288V305.805C284.953 306.457 284.41 307.109 283.65 307.109Z" fill="url(#paint11_linear_860_931)"/>
<path d="M296.245 307.109H288.97C288.21 307.109 287.667 306.566 287.667 305.805V299.288C287.667 296.572 289.839 294.291 292.662 294.291C295.377 294.291 297.657 296.464 297.657 299.288V305.805C297.548 306.457 297.005 307.109 296.245 307.109Z" fill="url(#paint12_linear_860_931)"/>
<path d="M308.95 307.109H301.675C300.915 307.109 300.372 306.566 300.372 305.805V299.288C300.372 296.572 302.544 294.291 305.367 294.291C308.082 294.291 310.362 296.464 310.362 299.288V305.805C310.253 306.457 309.602 307.109 308.95 307.109Z" fill="url(#paint13_linear_860_931)"/>
<path d="M321.546 307.109H314.271C313.511 307.109 312.968 306.566 312.968 305.805V299.288C312.968 296.572 315.139 294.291 317.963 294.291C320.677 294.291 322.958 296.464 322.958 299.288V305.805C322.849 306.457 322.198 307.109 321.546 307.109Z" fill="url(#paint14_linear_860_931)"/>
<path d="M334.142 307.109H326.867C326.106 307.109 325.563 306.566 325.563 305.805V299.288C325.563 296.572 327.735 294.291 330.558 294.291C333.273 294.291 335.553 296.464 335.553 299.288V305.805C335.445 306.457 334.902 307.109 334.142 307.109Z" fill="url(#paint15_linear_860_931)"/>
<path d="M271.054 326.01H263.779C263.019 326.01 262.476 325.467 262.476 324.707V318.189C262.476 315.474 264.647 313.192 267.471 313.192C270.185 313.192 272.465 315.365 272.465 318.189V324.707C272.357 325.467 271.705 326.01 271.054 326.01Z" fill="url(#paint16_linear_860_931)"/>
<path d="M283.65 326.01H276.374C275.614 326.01 275.071 325.467 275.071 324.707V318.189C275.071 315.474 277.243 313.192 280.066 313.192C282.781 313.192 285.061 315.365 285.061 318.189V324.707C284.953 325.467 284.41 326.01 283.65 326.01Z" fill="url(#paint17_linear_860_931)"/>
<path d="M296.245 326.01H288.97C288.21 326.01 287.667 325.467 287.667 324.707V318.189C287.667 315.474 289.839 313.192 292.662 313.192C295.377 313.192 297.657 315.365 297.657 318.189V324.707C297.548 325.467 297.005 326.01 296.245 326.01Z" fill="url(#paint18_linear_860_931)"/>
<path d="M308.95 326.01H301.675C300.915 326.01 300.372 325.467 300.372 324.707V318.189C300.372 315.474 302.544 313.192 305.367 313.192C308.082 313.192 310.362 315.365 310.362 318.189V324.707C310.253 325.467 309.602 326.01 308.95 326.01Z" fill="url(#paint19_linear_860_931)"/>
<path d="M321.546 326.01H314.271C313.511 326.01 312.968 325.467 312.968 324.707V318.189C312.968 315.474 315.139 313.192 317.963 313.192C320.677 313.192 322.958 315.365 322.958 318.189V324.707C322.849 325.467 322.198 326.01 321.546 326.01Z" fill="url(#paint20_linear_860_931)"/>
<path d="M334.142 326.01H326.867C326.106 326.01 325.563 325.467 325.563 324.707V318.189C325.563 315.474 327.735 313.192 330.558 313.192C333.273 313.192 335.553 315.365 335.553 318.189V324.707C335.445 325.467 334.902 326.01 334.142 326.01Z" fill="url(#paint21_linear_860_931)"/>
<path d="M271.054 345.019H263.779C263.019 345.019 262.476 344.476 262.476 343.716V337.198C262.476 334.482 264.647 332.201 267.471 332.201C270.185 332.201 272.465 334.374 272.465 337.198V343.716C272.357 344.476 271.705 345.019 271.054 345.019Z" fill="url(#paint22_linear_860_931)"/>
<path d="M283.65 345.019H276.374C275.614 345.019 275.071 344.476 275.071 343.716V337.198C275.071 334.482 277.243 332.201 280.066 332.201C282.781 332.201 285.061 334.374 285.061 337.198V343.716C284.953 344.476 284.41 345.019 283.65 345.019Z" fill="url(#paint23_linear_860_931)"/>
<path d="M296.245 345.019H288.97C288.21 345.019 287.667 344.476 287.667 343.716V337.198C287.667 334.482 289.839 332.201 292.662 332.201C295.377 332.201 297.657 334.374 297.657 337.198V343.716C297.548 344.476 297.005 345.019 296.245 345.019Z" fill="url(#paint24_linear_860_931)"/>
<path d="M308.95 345.019H301.675C300.915 345.019 300.372 344.476 300.372 343.716V337.198C300.372 334.482 302.544 332.201 305.367 332.201C308.082 332.201 310.362 334.374 310.362 337.198V343.716C310.253 344.476 309.602 345.019 308.95 345.019Z" fill="url(#paint25_linear_860_931)"/>
<path d="M321.546 345.019H314.271C313.511 345.019 312.968 344.476 312.968 343.716V337.198C312.968 334.482 315.139 332.201 317.963 332.201C320.677 332.201 322.958 334.374 322.958 337.198V343.716C322.849 344.476 322.198 345.019 321.546 345.019Z" fill="url(#paint26_linear_860_931)"/>
<path d="M334.142 345.019H326.867C326.106 345.019 325.563 344.476 325.563 343.716V337.198C325.563 334.482 327.735 332.201 330.558 332.201C333.273 332.201 335.553 334.374 335.553 337.198V343.716C335.445 344.476 334.902 345.019 334.142 345.019Z" fill="url(#paint27_linear_860_931)"/>
<path d="M271.054 364.029H263.779C263.019 364.029 262.476 363.486 262.476 362.725V356.208C262.476 353.492 264.647 351.211 267.471 351.211C270.185 351.211 272.465 353.383 272.465 356.208V362.725C272.357 363.486 271.705 364.029 271.054 364.029Z" fill="url(#paint28_linear_860_931)"/>
<path d="M283.65 364.029H276.374C275.614 364.029 275.071 363.486 275.071 362.725V356.208C275.071 353.492 277.243 351.211 280.066 351.211C282.781 351.211 285.061 353.383 285.061 356.208V362.725C284.953 363.486 284.41 364.029 283.65 364.029Z" fill="url(#paint29_linear_860_931)"/>
<path d="M296.245 364.029H288.97C288.21 364.029 287.667 363.486 287.667 362.725V356.208C287.667 353.492 289.839 351.211 292.662 351.211C295.377 351.211 297.657 353.383 297.657 356.208V362.725C297.548 363.486 297.005 364.029 296.245 364.029Z" fill="url(#paint30_linear_860_931)"/>
<path d="M308.95 364.029H301.675C300.915 364.029 300.372 363.486 300.372 362.725V356.208C300.372 353.492 302.544 351.211 305.367 351.211C308.082 351.211 310.362 353.383 310.362 356.208V362.725C310.253 363.486 309.602 364.029 308.95 364.029Z" fill="url(#paint31_linear_860_931)"/>
<path d="M321.546 364.029H314.271C313.511 364.029 312.968 363.486 312.968 362.725V356.208C312.968 353.492 315.139 351.211 317.963 351.211C320.677 351.211 322.958 353.383 322.958 356.208V362.725C322.849 363.486 322.198 364.029 321.546 364.029Z" fill="url(#paint32_linear_860_931)"/>
<path d="M334.142 364.029H326.867C326.106 364.029 325.563 363.486 325.563 362.725V356.208C325.563 353.492 327.735 351.211 330.558 351.211C333.273 351.211 335.553 353.383 335.553 356.208V362.725C335.445 363.486 334.902 364.029 334.142 364.029Z" fill="url(#paint33_linear_860_931)"/>
<path d="M271.054 383.039H263.779C263.019 383.039 262.476 382.495 262.476 381.735V375.218C262.476 372.502 264.647 370.221 267.471 370.221C270.185 370.221 272.465 372.393 272.465 375.218V381.735C272.357 382.495 271.705 383.039 271.054 383.039Z" fill="url(#paint34_linear_860_931)"/>
<path d="M283.65 383.039H276.374C275.614 383.039 275.071 382.495 275.071 381.735V375.218C275.071 372.502 277.243 370.221 280.066 370.221C282.781 370.221 285.061 372.393 285.061 375.218V381.735C284.953 382.495 284.41 383.039 283.65 383.039Z" fill="url(#paint35_linear_860_931)"/>
<path d="M296.245 383.039H288.97C288.21 383.039 287.667 382.495 287.667 381.735V375.218C287.667 372.502 289.839 370.221 292.662 370.221C295.377 370.221 297.657 372.393 297.657 375.218V381.735C297.548 382.495 297.005 383.039 296.245 383.039Z" fill="url(#paint36_linear_860_931)"/>
<path d="M308.95 383.039H301.675C300.915 383.039 300.372 382.495 300.372 381.735V375.218C300.372 372.502 302.544 370.221 305.367 370.221C308.082 370.221 310.362 372.393 310.362 375.218V381.735C310.253 382.495 309.602 383.039 308.95 383.039Z" fill="url(#paint37_linear_860_931)"/>
<path d="M321.546 383.039H314.271C313.511 383.039 312.968 382.495 312.968 381.735V375.218C312.968 372.502 315.139 370.221 317.963 370.221C320.677 370.221 322.958 372.393 322.958 375.218V381.735C322.849 382.495 322.198 383.039 321.546 383.039Z" fill="url(#paint38_linear_860_931)"/>
<path d="M334.142 383.039H326.867C326.106 383.039 325.563 382.495 325.563 381.735V375.218C325.563 372.502 327.735 370.221 330.558 370.221C333.273 370.221 335.553 372.393 335.553 375.218V381.735C335.445 382.495 334.902 383.039 334.142 383.039Z" fill="url(#paint39_linear_860_931)"/>
<path d="M271.054 402.048H263.779C263.019 402.048 262.476 401.505 262.476 400.745V394.227C262.476 391.512 264.647 389.23 267.471 389.23C270.185 389.23 272.465 391.403 272.465 394.227V400.745C272.357 401.397 271.705 402.048 271.054 402.048Z" fill="url(#paint40_linear_860_931)"/>
<path d="M283.65 402.048H276.374C275.614 402.048 275.071 401.505 275.071 400.745V394.227C275.071 391.512 277.243 389.23 280.066 389.23C282.781 389.23 285.061 391.403 285.061 394.227V400.745C284.953 401.397 284.41 402.048 283.65 402.048Z" fill="url(#paint41_linear_860_931)"/>
<path d="M296.245 402.048H288.97C288.21 402.048 287.667 401.505 287.667 400.745V394.227C287.667 391.512 289.839 389.23 292.662 389.23C295.377 389.23 297.657 391.403 297.657 394.227V400.745C297.548 401.397 297.005 402.048 296.245 402.048Z" fill="url(#paint42_linear_860_931)"/>
<path d="M308.95 402.048H301.675C300.915 402.048 300.372 401.505 300.372 400.745V394.227C300.372 391.512 302.544 389.23 305.367 389.23C308.082 389.23 310.362 391.403 310.362 394.227V400.745C310.253 401.397 309.602 402.048 308.95 402.048Z" fill="url(#paint43_linear_860_931)"/>
<path d="M321.546 402.048H314.271C313.511 402.048 312.968 401.505 312.968 400.745V394.227C312.968 391.512 315.139 389.23 317.963 389.23C320.677 389.23 322.958 391.403 322.958 394.227V400.745C322.849 401.397 322.198 402.048 321.546 402.048Z" fill="url(#paint44_linear_860_931)"/>
<path d="M334.142 402.048H326.867C326.106 402.048 325.563 401.505 325.563 400.745V394.227C325.563 391.512 327.735 389.23 330.558 389.23C333.273 389.23 335.553 391.403 335.553 394.227V400.745C335.445 401.397 334.902 402.048 334.142 402.048Z" fill="url(#paint45_linear_860_931)"/>
<path d="M271.054 421.058H263.779C263.019 421.058 262.476 420.515 262.476 419.755V413.237C262.476 410.521 264.647 408.24 267.471 408.24C270.185 408.24 272.465 410.413 272.465 413.237V419.755C272.357 420.406 271.705 421.058 271.054 421.058Z" fill="url(#paint46_linear_860_931)"/>
<path d="M283.65 421.058H276.374C275.614 421.058 275.071 420.515 275.071 419.755V413.237C275.071 410.521 277.243 408.24 280.066 408.24C282.781 408.24 285.061 410.413 285.061 413.237V419.755C284.953 420.406 284.41 421.058 283.65 421.058Z" fill="url(#paint47_linear_860_931)"/>
<path d="M296.245 421.058H288.97C288.21 421.058 287.667 420.515 287.667 419.755V413.237C287.667 410.521 289.839 408.24 292.662 408.24C295.377 408.24 297.657 410.413 297.657 413.237V419.755C297.548 420.406 297.005 421.058 296.245 421.058Z" fill="url(#paint48_linear_860_931)"/>
<path d="M308.95 421.058H301.675C300.915 421.058 300.372 420.515 300.372 419.755V413.237C300.372 410.521 302.544 408.24 305.367 408.24C308.082 408.24 310.362 410.413 310.362 413.237V419.755C310.253 420.406 309.602 421.058 308.95 421.058Z" fill="url(#paint49_linear_860_931)"/>
<path d="M321.546 421.058H314.271C313.511 421.058 312.968 420.515 312.968 419.755V413.237C312.968 410.521 315.139 408.24 317.963 408.24C320.677 408.24 322.958 410.413 322.958 413.237V419.755C322.849 420.406 322.198 421.058 321.546 421.058Z" fill="url(#paint50_linear_860_931)"/>
<path d="M334.142 421.058H326.867C326.106 421.058 325.563 420.515 325.563 419.755V413.237C325.563 410.521 327.735 408.24 330.558 408.24C333.273 408.24 335.553 410.413 335.553 413.237V419.755C335.445 420.406 334.902 421.058 334.142 421.058Z" fill="url(#paint51_linear_860_931)"/>
<path d="M271.054 440.067H263.779C263.019 440.067 262.476 439.524 262.476 438.763V432.246C262.476 429.53 264.647 427.249 267.471 427.249C270.185 427.249 272.465 429.422 272.465 432.246V438.763C272.357 439.415 271.705 440.067 271.054 440.067Z" fill="url(#paint52_linear_860_931)"/>
<path d="M283.65 440.067H276.374C275.614 440.067 275.071 439.524 275.071 438.763V432.246C275.071 429.53 277.243 427.249 280.066 427.249C282.781 427.249 285.061 429.422 285.061 432.246V438.763C284.953 439.415 284.41 440.067 283.65 440.067Z" fill="url(#paint53_linear_860_931)"/>
<path d="M296.245 440.067H288.97C288.21 440.067 287.667 439.524 287.667 438.763V432.246C287.667 429.53 289.839 427.249 292.662 427.249C295.377 427.249 297.657 429.422 297.657 432.246V438.763C297.548 439.415 297.005 440.067 296.245 440.067Z" fill="url(#paint54_linear_860_931)"/>
<path d="M308.95 440.067H301.675C300.915 440.067 300.372 439.524 300.372 438.763V432.246C300.372 429.53 302.544 427.249 305.367 427.249C308.082 427.249 310.362 429.422 310.362 432.246V438.763C310.253 439.415 309.602 440.067 308.95 440.067Z" fill="url(#paint55_linear_860_931)"/>
<path d="M321.546 440.067H314.271C313.511 440.067 312.968 439.524 312.968 438.763V432.246C312.968 429.53 315.139 427.249 317.963 427.249C320.677 427.249 322.958 429.422 322.958 432.246V438.763C322.849 439.415 322.198 440.067 321.546 440.067Z" fill="url(#paint56_linear_860_931)"/>
<path d="M334.142 440.067H326.867C326.106 440.067 325.563 439.524 325.563 438.763V432.246C325.563 429.53 327.735 427.249 330.558 427.249C333.273 427.249 335.553 429.422 335.553 432.246V438.763C335.445 439.415 334.902 440.067 334.142 440.067Z" fill="url(#paint57_linear_860_931)"/>
<path d="M220.779 261.051H127.83V468.418H220.779V261.051Z" fill="url(#paint58_linear_860_931)" fill-opacity="0.3"/>
<path d="M149.873 266.917H134.997V277.019H149.873V266.917Z" fill="url(#paint59_linear_860_931)"/>
<path d="M149.873 282.994H134.997V293.096H149.873V282.994Z" fill="url(#paint60_linear_860_931)"/>
<path d="M149.873 298.962H134.997V309.064H149.873V298.962Z" fill="url(#paint61_linear_860_931)"/>
<path d="M149.873 314.93H134.997V325.032H149.873V314.93Z" fill="url(#paint62_linear_860_931)"/>
<path d="M149.873 330.897H134.997V341H149.873V330.897Z" fill="url(#paint63_linear_860_931)"/>
<path d="M149.873 346.975H134.997V357.077H149.873V346.975Z" fill="url(#paint64_linear_860_931)"/>
<path d="M149.873 362.942H134.997V373.045H149.873V362.942Z" fill="url(#paint65_linear_860_931)"/>
<path d="M149.873 378.91H134.997V389.012H149.873V378.91Z" fill="url(#paint66_linear_860_931)"/>
<path d="M149.873 394.987H134.997V405.09H149.873V394.987Z" fill="url(#paint67_linear_860_931)"/>
<path d="M149.873 410.955H134.997V421.057H149.873V410.955Z" fill="url(#paint68_linear_860_931)"/>
<path d="M149.873 426.924H134.997V437.026H149.873V426.924Z" fill="url(#paint69_linear_860_931)"/>
<path d="M149.873 442.892H134.997V452.994H149.873V442.892Z" fill="url(#paint70_linear_860_931)"/>
<path d="M171.155 266.917H156.279V277.019H171.155V266.917Z" fill="url(#paint71_linear_860_931)"/>
<path d="M171.155 282.994H156.279V293.096H171.155V282.994Z" fill="url(#paint72_linear_860_931)"/>
<path d="M171.155 298.962H156.279V309.064H171.155V298.962Z" fill="url(#paint73_linear_860_931)"/>
<path d="M171.155 314.93H156.279V325.032H171.155V314.93Z" fill="url(#paint74_linear_860_931)"/>
<path d="M171.155 330.897H156.279V341H171.155V330.897Z" fill="url(#paint75_linear_860_931)"/>
<path d="M171.155 346.975H156.279V357.077H171.155V346.975Z" fill="url(#paint76_linear_860_931)"/>
<path d="M171.155 362.942H156.279V373.045H171.155V362.942Z" fill="url(#paint77_linear_860_931)"/>
<path d="M171.155 378.91H156.279V389.012H171.155V378.91Z" fill="url(#paint78_linear_860_931)"/>
<path d="M171.155 394.987H156.279V405.09H171.155V394.987Z" fill="url(#paint79_linear_860_931)"/>
<path d="M171.155 410.955H156.279V421.057H171.155V410.955Z" fill="url(#paint80_linear_860_931)"/>
<path d="M171.155 426.924H156.279V437.026H171.155V426.924Z" fill="url(#paint81_linear_860_931)"/>
<path d="M171.155 442.892H156.279V452.994H171.155V442.892Z" fill="url(#paint82_linear_860_931)"/>
<path d="M192.439 266.917H177.562V277.019H192.439V266.917Z" fill="url(#paint83_linear_860_931)"/>
<path d="M192.439 282.994H177.562V293.096H192.439V282.994Z" fill="url(#paint84_linear_860_931)"/>
<path d="M192.439 298.962H177.562V309.064H192.439V298.962Z" fill="url(#paint85_linear_860_931)"/>
<path d="M192.439 314.93H177.562V325.032H192.439V314.93Z" fill="url(#paint86_linear_860_931)"/>
<path d="M192.439 330.897H177.562V341H192.439V330.897Z" fill="url(#paint87_linear_860_931)"/>
<path d="M192.439 346.975H177.562V357.077H192.439V346.975Z" fill="url(#paint88_linear_860_931)"/>
<path d="M192.439 362.942H177.562V373.045H192.439V362.942Z" fill="url(#paint89_linear_860_931)"/>
<path d="M192.439 378.91H177.562V389.012H192.439V378.91Z" fill="url(#paint90_linear_860_931)"/>
<path d="M192.439 394.987H177.562V405.09H192.439V394.987Z" fill="url(#paint91_linear_860_931)"/>
<path d="M192.439 410.955H177.562V421.057H192.439V410.955Z" fill="url(#paint92_linear_860_931)"/>
<path d="M192.439 426.924H177.562V437.026H192.439V426.924Z" fill="url(#paint93_linear_860_931)"/>
<path d="M192.439 442.892H177.562V452.994H192.439V442.892Z" fill="url(#paint94_linear_860_931)"/>
<path d="M268.991 265.613H189.724V468.418H268.991V265.613Z" fill="url(#paint95_linear_860_931)"/>
<path d="M269.642 296.246H189.072C187.877 296.246 187.009 295.268 187.009 294.182C187.009 292.987 187.986 292.118 189.072 292.118H269.642C270.837 292.118 271.705 293.096 271.705 294.182C271.705 295.268 270.728 296.246 269.642 296.246Z" fill="url(#paint96_linear_860_931)"/>
<path d="M265.19 255.402H193.415V265.613H265.19V255.402Z" fill="url(#paint97_linear_860_931)"/>
<path d="M263.018 255.402H195.695V247.147L263.018 228.463V255.402Z" fill="url(#paint98_linear_860_931)"/>
<path d="M200.907 288.098H195.369C194.284 288.098 193.523 287.229 193.523 286.252V272.782C193.523 271.696 194.392 270.936 195.369 270.936H200.907C201.993 270.936 202.753 271.805 202.753 272.782V286.143C202.753 287.229 201.885 288.098 200.907 288.098Z" fill="#0F9D87"/>
<path d="M213.503 288.098H207.965C206.879 288.098 206.119 287.229 206.119 286.252V272.782C206.119 271.696 206.988 270.936 207.965 270.936H213.503C214.589 270.936 215.349 271.805 215.349 272.782V286.143C215.349 287.229 214.48 288.098 213.503 288.098Z" fill="#0F9D87"/>
<path d="M226.099 288.098H220.452C219.367 288.098 218.606 287.229 218.606 286.252V272.782C218.606 271.696 219.475 270.936 220.452 270.936H225.99C227.076 270.936 227.836 271.805 227.836 272.782V286.143C227.945 287.229 227.076 288.098 226.099 288.098Z" fill="#0F9D87"/>
<path d="M238.586 288.098H233.048C231.962 288.098 231.202 287.229 231.202 286.252V272.782C231.202 271.696 232.071 270.936 233.048 270.936H238.586C239.672 270.936 240.432 271.805 240.432 272.782V286.143C240.54 287.229 239.672 288.098 238.586 288.098Z" fill="#0F9D87"/>
<path d="M251.183 288.098H245.645C244.559 288.098 243.799 287.229 243.799 286.252V272.782C243.799 271.696 244.668 270.936 245.645 270.936H251.183C252.268 270.936 253.029 271.805 253.029 272.782V286.143C253.137 287.229 252.268 288.098 251.183 288.098Z" fill="#0F9D87"/>
<path d="M263.778 288.098H258.24C257.155 288.098 256.395 287.229 256.395 286.252V272.782C256.395 271.696 257.263 270.936 258.24 270.936H263.778C264.864 270.936 265.624 271.805 265.624 272.782V286.143C265.733 287.229 264.864 288.098 263.778 288.098Z" fill="#0F9D87"/>
<path d="M269.642 325.466H189.072C187.877 325.466 187.009 324.488 187.009 323.402C187.009 322.207 187.986 321.338 189.072 321.338H269.642C270.837 321.338 271.705 322.316 271.705 323.402C271.705 324.488 270.728 325.466 269.642 325.466Z" fill="url(#paint99_linear_860_931)"/>
<path d="M200.907 317.319H195.369C194.284 317.319 193.523 316.45 193.523 315.473V302.003C193.523 300.917 194.392 300.156 195.369 300.156H200.907C201.993 300.156 202.753 301.025 202.753 302.003V315.473C202.753 316.45 201.885 317.319 200.907 317.319Z" fill="#0F9D87"/>
<path d="M213.503 317.319H207.965C206.879 317.319 206.119 316.45 206.119 315.473V302.003C206.119 300.917 206.988 300.156 207.965 300.156H213.503C214.589 300.156 215.349 301.025 215.349 302.003V315.473C215.349 316.45 214.48 317.319 213.503 317.319Z" fill="#0F9D87"/>
<path d="M226.099 317.319H220.452C219.367 317.319 218.606 316.45 218.606 315.473V302.003C218.606 300.917 219.475 300.156 220.452 300.156H225.99C227.076 300.156 227.836 301.025 227.836 302.003V315.473C227.945 316.45 227.076 317.319 226.099 317.319Z" fill="#0F9D87"/>
<path d="M238.586 317.319H233.048C231.962 317.319 231.202 316.45 231.202 315.473V302.003C231.202 300.917 232.071 300.156 233.048 300.156H238.586C239.672 300.156 240.432 301.025 240.432 302.003V315.473C240.54 316.45 239.672 317.319 238.586 317.319Z" fill="#0F9D87"/>
<path d="M251.183 317.319H245.645C244.559 317.319 243.799 316.45 243.799 315.473V302.003C243.799 300.917 244.668 300.156 245.645 300.156H251.183C252.268 300.156 253.029 301.025 253.029 302.003V315.473C253.137 316.45 252.268 317.319 251.183 317.319Z" fill="#0F9D87"/>
<path d="M263.778 317.319H258.24C257.155 317.319 256.395 316.45 256.395 315.473V302.003C256.395 300.917 257.263 300.156 258.24 300.156H263.778C264.864 300.156 265.624 301.025 265.624 302.003V315.473C265.733 316.45 264.864 317.319 263.778 317.319Z" fill="#0F9D87"/>
<path d="M269.642 354.686H189.072C187.877 354.686 187.009 353.709 187.009 352.623C187.009 351.428 187.986 350.559 189.072 350.559H269.642C270.837 350.559 271.705 351.536 271.705 352.623C271.705 353.709 270.728 354.686 269.642 354.686Z" fill="url(#paint100_linear_860_931)"/>
<path d="M200.907 346.54H195.369C194.284 346.54 193.523 345.671 193.523 344.693V331.224C193.523 330.137 194.392 329.377 195.369 329.377H200.907C201.993 329.377 202.753 330.246 202.753 331.224V344.693C202.753 345.671 201.885 346.54 200.907 346.54Z" fill="#0F9D87"/>
<path d="M213.503 346.54H207.965C206.879 346.54 206.119 345.671 206.119 344.693V331.224C206.119 330.137 206.988 329.377 207.965 329.377H213.503C214.589 329.377 215.349 330.246 215.349 331.224V344.693C215.349 345.671 214.48 346.54 213.503 346.54Z" fill="#0F9D87"/>
<path d="M226.099 346.54H220.452C219.367 346.54 218.606 345.671 218.606 344.693V331.224C218.606 330.137 219.475 329.377 220.452 329.377H225.99C227.076 329.377 227.836 330.246 227.836 331.224V344.693C227.945 345.671 227.076 346.54 226.099 346.54Z" fill="#0F9D87"/>
<path d="M238.586 346.54H233.048C231.962 346.54 231.202 345.671 231.202 344.693V331.224C231.202 330.137 232.071 329.377 233.048 329.377H238.586C239.672 329.377 240.432 330.246 240.432 331.224V344.693C240.54 345.671 239.672 346.54 238.586 346.54Z" fill="#0F9D87"/>
<path d="M251.183 346.54H245.645C244.559 346.54 243.799 345.671 243.799 344.693V331.224C243.799 330.137 244.668 329.377 245.645 329.377H251.183C252.268 329.377 253.029 330.246 253.029 331.224V344.693C253.137 345.671 252.268 346.54 251.183 346.54Z" fill="#0F9D87"/>
<path d="M263.778 346.54H258.24C257.155 346.54 256.395 345.671 256.395 344.693V331.224C256.395 330.137 257.263 329.377 258.24 329.377H263.778C264.864 329.377 265.624 330.246 265.624 331.224V344.693C265.733 345.671 264.864 346.54 263.778 346.54Z" fill="#0F9D87"/>
<path d="M269.642 383.907H189.072C187.877 383.907 187.009 382.929 187.009 381.843C187.009 380.648 187.986 379.779 189.072 379.779H269.642C270.837 379.779 271.705 380.757 271.705 381.843C271.705 382.929 270.728 383.907 269.642 383.907Z" fill="url(#paint101_linear_860_931)"/>
<path d="M200.907 375.761H195.369C194.284 375.761 193.523 374.892 193.523 373.914V360.444C193.523 359.358 194.392 358.598 195.369 358.598H200.907C201.993 358.598 202.753 359.467 202.753 360.444V373.914C202.753 375 201.885 375.761 200.907 375.761Z" fill="#0F9D87"/>
<path d="M213.503 375.761H207.965C206.879 375.761 206.119 374.892 206.119 373.914V360.444C206.119 359.358 206.988 358.598 207.965 358.598H213.503C214.589 358.598 215.349 359.467 215.349 360.444V373.914C215.349 375 214.48 375.761 213.503 375.761Z" fill="#0F9D87"/>
<path d="M226.099 375.761H220.452C219.367 375.761 218.606 374.892 218.606 373.914V360.444C218.606 359.358 219.475 358.598 220.452 358.598H225.99C227.076 358.598 227.836 359.467 227.836 360.444V373.914C227.945 375 227.076 375.761 226.099 375.761Z" fill="#0F9D87"/>
<path d="M238.586 375.761H233.048C231.962 375.761 231.202 374.892 231.202 373.914V360.444C231.202 359.358 232.071 358.598 233.048 358.598H238.586C239.672 358.598 240.432 359.467 240.432 360.444V373.914C240.54 375 239.672 375.761 238.586 375.761Z" fill="#0F9D87"/>
<path d="M251.183 375.761H245.645C244.559 375.761 243.799 374.892 243.799 373.914V360.444C243.799 359.358 244.668 358.598 245.645 358.598H251.183C252.268 358.598 253.029 359.467 253.029 360.444V373.914C253.137 375 252.268 375.761 251.183 375.761Z" fill="#0F9D87"/>
<path d="M263.778 375.761H258.24C257.155 375.761 256.395 374.892 256.395 373.914V360.444C256.395 359.358 257.263 358.598 258.24 358.598H263.778C264.864 358.598 265.624 359.467 265.624 360.444V373.914C265.733 375 264.864 375.761 263.778 375.761Z" fill="#0F9D87"/>
<path d="M269.642 413.128H189.072C187.877 413.128 187.009 412.15 187.009 411.064C187.009 409.869 187.986 409 189.072 409H269.642C270.837 409 271.705 409.978 271.705 411.064C271.705 412.259 270.728 413.128 269.642 413.128Z" fill="url(#paint102_linear_860_931)"/>
<path d="M200.907 405.089H195.369C194.284 405.089 193.523 404.22 193.523 403.242V389.772C193.523 388.686 194.392 387.926 195.369 387.926H200.907C201.993 387.926 202.753 388.795 202.753 389.772V403.242C202.753 404.22 201.885 405.089 200.907 405.089Z" fill="#0F9D87"/>
<path d="M213.503 405.089H207.965C206.879 405.089 206.119 404.22 206.119 403.242V389.772C206.119 388.686 206.988 387.926 207.965 387.926H213.503C214.589 387.926 215.349 388.795 215.349 389.772V403.242C215.349 404.22 214.48 405.089 213.503 405.089Z" fill="#0F9D87"/>
<path d="M226.099 405.089H220.452C219.367 405.089 218.606 404.22 218.606 403.242V389.772C218.606 388.686 219.475 387.926 220.452 387.926H225.99C227.076 387.926 227.836 388.795 227.836 389.772V403.242C227.945 404.22 227.076 405.089 226.099 405.089Z" fill="#0F9D87"/>
<path d="M238.586 405.089H233.048C231.962 405.089 231.202 404.22 231.202 403.242V389.772C231.202 388.686 232.071 387.926 233.048 387.926H238.586C239.672 387.926 240.432 388.795 240.432 389.772V403.242C240.54 404.22 239.672 405.089 238.586 405.089Z" fill="#0F9D87"/>
<path d="M251.183 405.089H245.645C244.559 405.089 243.799 404.22 243.799 403.242V389.772C243.799 388.686 244.668 387.926 245.645 387.926H251.183C252.268 387.926 253.029 388.795 253.029 389.772V403.242C253.137 404.22 252.268 405.089 251.183 405.089Z" fill="#0F9D87"/>
<path d="M263.778 405.089H258.24C257.155 405.089 256.395 404.22 256.395 403.242V389.772C256.395 388.686 257.263 387.926 258.24 387.926H263.778C264.864 387.926 265.624 388.795 265.624 389.772V403.242C265.733 404.22 264.864 405.089 263.778 405.089Z" fill="#0F9D87"/>
<path d="M269.642 442.457H189.072C187.877 442.457 187.009 441.479 187.009 440.393C187.009 439.198 187.986 438.329 189.072 438.329H269.642C270.837 438.329 271.705 439.307 271.705 440.393C271.705 441.479 270.728 442.457 269.642 442.457Z" fill="url(#paint103_linear_860_931)"/>
<path d="M200.907 434.309H195.369C194.284 434.309 193.523 433.44 193.523 432.463V418.993C193.523 417.907 194.392 417.146 195.369 417.146H200.907C201.993 417.146 202.753 418.015 202.753 418.993V432.463C202.753 433.44 201.885 434.309 200.907 434.309Z" fill="#0F9D87"/>
<path d="M213.503 434.309H207.965C206.879 434.309 206.119 433.44 206.119 432.463V418.993C206.119 417.907 206.988 417.146 207.965 417.146H213.503C214.589 417.146 215.349 418.015 215.349 418.993V432.463C215.349 433.44 214.48 434.309 213.503 434.309Z" fill="#0F9D87"/>
<path d="M226.099 434.309H220.452C219.367 434.309 218.606 433.44 218.606 432.463V418.993C218.606 417.907 219.475 417.146 220.452 417.146H225.99C227.076 417.146 227.836 418.015 227.836 418.993V432.463C227.945 433.44 227.076 434.309 226.099 434.309Z" fill="#0F9D87"/>
<path d="M238.586 434.309H233.048C231.962 434.309 231.202 433.44 231.202 432.463V418.993C231.202 417.907 232.071 417.146 233.048 417.146H238.586C239.672 417.146 240.432 418.015 240.432 418.993V432.463C240.54 433.44 239.672 434.309 238.586 434.309Z" fill="#0F9D87"/>
<path d="M251.183 434.309H245.645C244.559 434.309 243.799 433.44 243.799 432.463V418.993C243.799 417.907 244.668 417.146 245.645 417.146H251.183C252.268 417.146 253.029 418.015 253.029 418.993V432.463C253.137 433.44 252.268 434.309 251.183 434.309Z" fill="#0F9D87"/>
<path d="M263.778 434.309H258.24C257.155 434.309 256.395 433.44 256.395 432.463V418.993C256.395 417.907 257.263 417.146 258.24 417.146H263.778C264.864 417.146 265.624 418.015 265.624 418.993V432.463C265.733 433.44 264.864 434.309 263.778 434.309Z" fill="#0F9D87"/>
<path d="M361.723 143.192L365.306 135.588V192.943H361.723V143.192Z" fill="url(#paint104_linear_860_931)"/>
<path d="M350.864 156.227L354.448 148.623V192.943H350.864V156.227Z" fill="url(#paint105_linear_860_931)"/>
<path d="M391.149 468.418H325.455V192.182C325.455 191.856 325.781 191.53 326.107 191.53H390.498C390.823 191.53 391.149 191.856 391.149 192.182V468.418Z" fill="url(#paint106_linear_860_931)"/>
<path d="M380.399 176.54H336.096C334.467 176.54 333.056 177.844 333.056 179.582V191.639H383.439V179.582C383.439 177.844 382.136 176.54 380.399 176.54Z" fill="url(#paint107_linear_860_931)"/>
<path d="M385.829 184.035H330.559C328.93 184.035 327.519 185.339 327.519 187.077V191.53H388.761V187.077C388.869 185.339 387.566 184.035 385.829 184.035Z" fill="url(#paint108_linear_860_931)"/>
<path d="M341.417 204.131H325.455V197.396H347.172L341.417 204.131Z" fill="#0F9D87"/>
<path d="M344.783 204.131L350.647 197.396H373.884L368.129 204.131H344.783Z" fill="#0F9D87"/>
<path d="M391.149 197.396H376.924L371.061 204.131H391.149V197.396Z" fill="#0F9D87"/>
<path d="M341.417 215.755H325.455V208.911H347.172L341.417 215.755Z" fill="#0F9D87"/>
<path d="M344.783 215.755L350.647 208.911H373.884L368.129 215.755H344.783Z" fill="#0F9D87"/>
<path d="M391.149 208.911H376.924L371.061 215.755H391.149V208.911Z" fill="#0F9D87"/>
<path d="M341.417 227.269H325.455V220.534H347.172L341.417 227.269Z" fill="#0F9D87"/>
<path d="M344.783 227.269L350.647 220.534H373.884L368.129 227.269H344.783Z" fill="#0F9D87"/>
<path d="M391.149 220.534H376.924L371.061 227.269H391.149V220.534Z" fill="#0F9D87"/>
<path d="M341.417 238.783H325.455V232.048H347.172L341.417 238.783Z" fill="#0F9D87"/>
<path d="M344.783 238.783L350.647 232.048H373.884L368.129 238.783H344.783Z" fill="#0F9D87"/>
<path d="M391.149 232.048H376.924L371.061 238.783H391.149V232.048Z" fill="#0F9D87"/>
<path d="M341.417 250.297H325.455V243.562H347.172L341.417 250.297Z" fill="#0F9D87"/>
<path d="M344.783 250.297L350.647 243.562H373.884L368.129 250.297H344.783Z" fill="#0F9D87"/>
<path d="M391.149 243.562H376.924L371.061 250.297H391.149V243.562Z" fill="#0F9D87"/>
<path d="M341.417 261.812H325.455V255.077H347.172L341.417 261.812Z" fill="#0F9D87"/>
<path d="M344.783 261.812L350.647 255.077H373.884L368.129 261.812H344.783Z" fill="#0F9D87"/>
<path d="M391.149 255.077H376.924L371.061 261.812H391.149V255.077Z" fill="#0F9D87"/>
<path d="M341.417 273.327H325.455V266.592H347.172L341.417 273.327Z" fill="#0F9D87"/>
<path d="M344.783 273.327L350.647 266.592H373.884L368.129 273.327H344.783Z" fill="#0F9D87"/>
<path d="M391.149 266.592H376.924L371.061 273.327H391.149V266.592Z" fill="#0F9D87"/>
<path d="M341.417 284.949H325.455V278.105H347.172L341.417 284.949Z" fill="#0F9D87"/>
<path d="M344.783 284.949L350.647 278.105H373.884L368.129 284.949H344.783Z" fill="#0F9D87"/>
<path d="M391.149 278.105H376.924L371.061 284.949H391.149V278.105Z" fill="#0F9D87"/>
<path d="M341.417 296.463H325.455V289.729H347.172L341.417 296.463Z" fill="#0F9D87"/>
<path d="M344.783 296.463L350.647 289.729H373.884L368.129 296.463H344.783Z" fill="#0F9D87"/>
<path d="M391.149 289.729H376.924L371.061 296.463H391.149V289.729Z" fill="#0F9D87"/>
<path d="M341.417 307.978H325.455V301.243H347.172L341.417 307.978Z" fill="#0F9D87"/>
<path d="M344.783 307.978L350.647 301.243H373.884L368.129 307.978H344.783Z" fill="#0F9D87"/>
<path d="M391.149 301.243H376.924L371.061 307.978H391.149V301.243Z" fill="#0F9D87"/>
<path d="M341.417 319.493H325.455V312.758H347.172L341.417 319.493Z" fill="#0F9D87"/>
<path d="M344.783 319.493L350.647 312.758H373.884L368.129 319.493H344.783Z" fill="#0F9D87"/>
<path d="M391.149 312.758H376.924L371.061 319.493H391.149V312.758Z" fill="#0F9D87"/>
<path d="M341.417 331.006H325.455V324.271H347.172L341.417 331.006Z" fill="#0F9D87"/>
<path d="M344.783 331.006L350.647 324.271H373.884L368.129 331.006H344.783Z" fill="#0F9D87"/>
<path d="M391.149 324.271H376.924L371.061 331.006H391.149V324.271Z" fill="#0F9D87"/>
<path d="M341.417 342.521H325.455V335.786H347.172L341.417 342.521Z" fill="#0F9D87"/>
<path d="M344.783 342.521L350.647 335.786H373.884L368.129 342.521H344.783Z" fill="#0F9D87"/>
<path d="M391.149 335.786H376.924L371.061 342.521H391.149V335.786Z" fill="#0F9D87"/>
<path d="M341.417 354.144H325.455V347.301H347.172L341.417 354.144Z" fill="#0F9D87"/>
<path d="M344.783 354.144L350.647 347.301H373.884L368.129 354.144H344.783Z" fill="#0F9D87"/>
<path d="M391.149 347.301H376.924L371.061 354.144H391.149V347.301Z" fill="#0F9D87"/>
<path d="M341.417 365.659H325.455V358.924H347.172L341.417 365.659Z" fill="#0F9D87"/>
<path d="M344.783 365.659L350.647 358.924H373.884L368.129 365.659H344.783Z" fill="#0F9D87"/>
<path d="M391.149 358.924H376.924L371.061 365.659H391.149V358.924Z" fill="#0F9D87"/>
<path d="M341.417 377.173H325.455V370.438H347.172L341.417 377.173Z" fill="#0F9D87"/>
<path d="M344.783 377.173L350.647 370.438H373.884L368.129 377.173H344.783Z" fill="#0F9D87"/>
<path d="M391.149 370.438H376.924L371.061 377.173H391.149V370.438Z" fill="#0F9D87"/>
<path d="M341.417 388.687H325.455V381.952H347.172L341.417 388.687Z" fill="#0F9D87"/>
<path d="M344.783 388.687L350.647 381.952H373.884L368.129 388.687H344.783Z" fill="#0F9D87"/>
<path d="M391.149 381.952H376.924L371.061 388.687H391.149V381.952Z" fill="#0F9D87"/>
<path d="M341.417 400.202H325.455V393.467H347.172L341.417 400.202Z" fill="#0F9D87"/>
<path d="M344.783 400.202L350.647 393.467H373.884L368.129 400.202H344.783Z" fill="#0F9D87"/>
<path d="M391.149 393.467H376.924L371.061 400.202H391.149V393.467Z" fill="#0F9D87"/>
<path d="M341.417 411.716H325.455V404.981H347.172L341.417 411.716Z" fill="#0F9D87"/>
<path d="M344.783 411.716L350.647 404.981H373.884L368.129 411.716H344.783Z" fill="#0F9D87"/>
<path d="M391.149 404.981H376.924L371.061 411.716H391.149V404.981Z" fill="#0F9D87"/>
<path d="M341.417 423.339H325.455V416.604H347.172L341.417 423.339Z" fill="#0F9D87"/>
<path d="M344.783 423.339L350.647 416.604H373.884L368.129 423.339H344.783Z" fill="#0F9D87"/>
<path d="M391.149 416.604H376.924L371.061 423.339H391.149V416.604Z" fill="#0F9D87"/>
<path d="M137.603 240.521H45.7402V468.636H137.603V240.521Z" fill="url(#paint109_linear_860_931)"/>
<path d="M137.603 245.843H45.7402V253.447H137.603V245.843Z" fill="url(#paint110_linear_860_931)"/>
<path d="M137.603 259.096H45.7402V266.7H137.603V259.096Z" fill="url(#paint111_linear_860_931)"/>
<path d="M137.603 272.348H45.7402V279.951H137.603V272.348Z" fill="url(#paint112_linear_860_931)"/>
<path d="M137.603 285.601H45.7402V293.204H137.603V285.601Z" fill="url(#paint113_linear_860_931)"/>
<path d="M137.603 298.853H45.7402V306.456H137.603V298.853Z" fill="url(#paint114_linear_860_931)"/>
<path d="M137.603 312.104H45.7402V319.708H137.603V312.104Z" fill="url(#paint115_linear_860_931)"/>
<path d="M137.603 325.466H45.7402V333.07H137.603V325.466Z" fill="url(#paint116_linear_860_931)"/>
<path d="M137.603 338.719H45.7402V346.323H137.603V338.719Z" fill="url(#paint117_linear_860_931)"/>
<path d="M137.603 351.971H45.7402V359.575H137.603V351.971Z" fill="url(#paint118_linear_860_931)"/>
<path d="M137.603 365.224H45.7402V372.827H137.603V365.224Z" fill="url(#paint119_linear_860_931)"/>
<path d="M137.603 378.476H45.7402V386.079H137.603V378.476Z" fill="url(#paint120_linear_860_931)"/>
<path d="M137.603 391.728H45.7402V399.331H137.603V391.728Z" fill="url(#paint121_linear_860_931)"/>
<path d="M141.621 225.421H41.8311V240.52H141.621V225.421Z" fill="url(#paint122_linear_860_931)"/>
<path d="M135.323 210.322H48.2373V225.421H135.323V210.322Z" fill="url(#paint123_linear_860_931)"/>
<path d="M130.437 205.217H52.9072V210.322H130.437V205.217Z" fill="url(#paint124_linear_860_931)"/>
<path d="M451.414 245.301H380.399V468.31H451.414V245.301Z" fill="url(#paint125_linear_860_931)"/>
<path d="M452.283 235.633H379.639C378.553 235.633 377.576 236.502 377.576 237.697V247.799C377.576 248.885 378.445 249.863 379.639 249.863H452.283C453.369 249.863 454.346 248.994 454.346 247.799V237.697C454.237 236.502 453.369 235.633 452.283 235.633Z" fill="url(#paint126_linear_860_931)"/>
<path d="M452.283 270.719H379.639C378.553 270.719 377.576 271.588 377.576 272.783V282.885C377.576 283.971 378.445 284.949 379.639 284.949H452.283C453.369 284.949 454.346 284.08 454.346 282.885V272.783C454.237 271.696 453.369 270.719 452.283 270.719Z" fill="url(#paint127_linear_860_931)"/>
<path d="M452.283 305.914H379.639C378.553 305.914 377.576 306.783 377.576 307.978V318.08C377.576 319.166 378.445 320.144 379.639 320.144H452.283C453.369 320.144 454.346 319.275 454.346 318.08V307.978C454.237 306.783 453.369 305.914 452.283 305.914Z" fill="url(#paint128_linear_860_931)"/>
<path d="M452.283 341.108H379.639C378.553 341.108 377.576 341.977 377.576 343.172V353.275C377.576 354.361 378.445 355.338 379.639 355.338H452.283C453.369 355.338 454.346 354.469 454.346 353.275V343.172C454.237 341.977 453.369 341.108 452.283 341.108Z" fill="url(#paint129_linear_860_931)"/>
<path d="M452.283 376.195H379.639C378.553 376.195 377.576 377.064 377.576 378.259V388.361C377.576 389.448 378.445 390.425 379.639 390.425H452.283C453.369 390.425 454.346 389.556 454.346 388.361V378.259C454.237 377.173 453.369 376.195 452.283 376.195Z" fill="url(#paint130_linear_860_931)"/>
<path d="M452.283 411.39H379.639C378.553 411.39 377.576 412.259 377.576 413.454V423.556C377.576 424.642 378.445 425.62 379.639 425.62H452.283C453.369 425.62 454.346 424.751 454.346 423.556V413.454C454.237 412.259 453.369 411.39 452.283 411.39Z" fill="url(#paint131_linear_860_931)"/>
<path d="M414.495 253.013H384.309V258.01H414.495V253.013Z" fill="#0F9D87"/>
<path d="M447.505 253.013H417.318V258.01H447.505V253.013Z" fill="#0F9D87"/>
<path d="M414.495 261.703H384.309V266.7H414.495V261.703Z" fill="#0F9D87"/>
<path d="M447.505 261.703H417.318V266.7H447.505V261.703Z" fill="#0F9D87"/>
<path d="M414.495 288.425H384.309V293.422H414.495V288.425Z" fill="#0F9D87"/>
<path d="M447.505 288.425H417.318V293.422H447.505V288.425Z" fill="#0F9D87"/>
<path d="M414.495 297.115H384.309V302.112H414.495V297.115Z" fill="#0F9D87"/>
<path d="M447.505 297.115H417.318V302.112H447.505V297.115Z" fill="#0F9D87"/>
<path d="M414.495 323.837H384.309V328.834H414.495V323.837Z" fill="#0F9D87"/>
<path d="M447.505 323.837H417.318V328.834H447.505V323.837Z" fill="#0F9D87"/>
<path d="M414.495 332.527H384.309V337.524H414.495V332.527Z" fill="#0F9D87"/>
<path d="M447.505 332.527H417.318V337.524H447.505V332.527Z" fill="#0F9D87"/>
<path d="M414.495 359.249H384.309V364.246H414.495V359.249Z" fill="#0F9D87"/>
<path d="M447.505 359.249H417.318V364.246H447.505V359.249Z" fill="#0F9D87"/>
<path d="M414.495 367.939H384.309V372.936H414.495V367.939Z" fill="#0F9D87"/>
<path d="M447.505 367.939H417.318V372.936H447.505V367.939Z" fill="#0F9D87"/>
<path d="M414.495 394.661H384.309V399.658H414.495V394.661Z" fill="#0F9D87"/>
<path d="M447.505 394.661H417.318V399.658H447.505V394.661Z" fill="#0F9D87"/>
<path d="M414.495 403.352H384.309V408.348H414.495V403.352Z" fill="#0F9D87"/>
<path d="M447.505 403.352H417.318V408.348H447.505V403.352Z" fill="#0F9D87"/>
<path d="M414.495 430.183H384.309V435.179H414.495V430.183Z" fill="#0F9D87"/>
<path d="M447.505 430.183H417.318V435.179H447.505V430.183Z" fill="#0F9D87"/>
<path d="M414.495 438.764H384.309V443.76H414.495V438.764Z" fill="#0F9D87"/>
<path d="M447.505 438.764H417.318V443.76H447.505V438.764Z" fill="#0F9D87"/>
<path d="M249.555 222.598C304.727 222.598 349.453 177.855 349.453 122.662C349.453 67.4685 304.727 22.7256 249.555 22.7256C194.382 22.7256 149.656 67.4685 149.656 122.662C149.656 177.855 194.382 222.598 249.555 222.598Z" stroke="url(#paint132_linear_860_931)" stroke-miterlimit="10"/>
<path d="M249.554 244.323C316.72 244.323 371.169 189.853 371.169 122.661C371.169 55.4696 316.72 1 249.554 1C182.388 1 127.938 55.4696 127.938 122.661C127.938 189.853 182.388 244.323 249.554 244.323Z" stroke="url(#paint133_linear_860_931)" stroke-miterlimit="10"/>
<path d="M249.554 202.828C294.472 202.828 330.884 166.401 330.884 121.466C330.884 76.532 294.472 40.1055 249.554 40.1055C204.636 40.1055 168.224 76.532 168.224 121.466C168.224 166.401 204.636 202.828 249.554 202.828Z" stroke="url(#paint134_linear_860_931)" stroke-miterlimit="10"/>
<path d="M280.392 425.946H218.607L240.433 142.54H258.567L280.392 425.946Z" stroke="url(#paint135_linear_860_931)" stroke-width="2" stroke-miterlimit="10"/>
<path d="M224.037 355.99L279.198 409.869" stroke="url(#paint136_linear_860_931)" stroke-width="2" stroke-miterlimit="10"/>
<path d="M275.071 355.99L219.91 409.869" stroke="url(#paint137_linear_860_931)" stroke-width="2" stroke-miterlimit="10"/>
<path d="M229.357 286.796L273.443 334.7" stroke="url(#paint138_linear_860_931)" stroke-width="2" stroke-miterlimit="10"/>
<path d="M269.751 286.796L225.665 334.7" stroke="url(#paint139_linear_860_931)" stroke-width="2" stroke-miterlimit="10"/>
<path d="M235.004 211.844L267.037 250.515" stroke="url(#paint140_linear_860_931)" stroke-width="2" stroke-miterlimit="10"/>
<path d="M264.105 211.844L232.072 250.515" stroke="url(#paint141_linear_860_931)" stroke-width="2" stroke-miterlimit="10"/>
<path d="M239.238 158.508L262.15 188.163" stroke="url(#paint142_linear_860_931)" stroke-width="2" stroke-miterlimit="10"/>
<path d="M259.87 158.508L236.958 188.163" stroke="#0F9D87" stroke-width="2" stroke-miterlimit="10"/>
<path d="M288.971 447.236H210.138L212.092 425.837C212.309 423.447 213.721 421.709 215.567 421.709H283.541C285.279 421.709 286.799 423.447 287.016 425.837L288.971 447.236Z" fill="url(#paint143_linear_860_931)"/>
<path d="M295.16 468.419H203.84L206.012 449.192C206.337 446.259 208.4 443.869 210.681 443.869H288.319C290.599 443.869 292.663 446.259 292.988 449.192L295.16 468.419Z" fill="url(#paint144_linear_860_931)"/>
<path d="M250.966 71.1729L221.431 90.9428V96.9173V103.652L250.966 120.055" stroke="#0F9D87" stroke-width="2" stroke-miterlimit="10"/>
<path d="M224.796 116.904C229.294 116.904 232.94 108.345 232.94 97.7862C232.94 87.2275 229.294 78.668 224.796 78.668C220.298 78.668 216.652 87.2275 216.652 97.7862C216.652 108.345 220.298 116.904 224.796 116.904Z" fill="url(#paint145_linear_860_931)"/>
<path d="M214.59 130.265H226.425C227.62 130.265 228.597 129.287 228.597 128.093V67.4792C228.597 66.2843 227.62 65.3066 226.425 65.3066H214.59C213.395 65.3066 212.418 66.2843 212.418 67.4792V127.984C212.418 129.287 213.395 130.265 214.59 130.265Z" fill="url(#paint146_linear_860_931)"/>
<path d="M211.549 130.265H223.385C224.579 130.265 225.557 129.287 225.557 128.092V71.8239C225.557 70.629 224.579 69.6514 223.385 69.6514H211.549C210.355 69.6514 209.377 70.629 209.377 71.8239V128.092C209.269 129.287 210.246 130.265 211.549 130.265Z" fill="#0F9D87"/>
<path d="M211.549 125.92H223.385C224.579 125.92 225.557 124.942 225.557 123.748V67.4792C225.557 66.2843 224.579 65.3066 223.385 65.3066H211.549C210.355 65.3066 209.377 66.2843 209.377 67.4792V123.748C209.269 124.942 210.246 125.92 211.549 125.92Z" fill="url(#paint147_linear_860_931)"/>
<path d="M247.925 71.1729L277.46 90.9428V96.9173V103.652L247.925 120.055" stroke="#0F9D87" stroke-width="2" stroke-miterlimit="10"/>
<path d="M274.094 116.904C278.592 116.904 282.238 108.345 282.238 97.7862C282.238 87.2275 278.592 78.668 274.094 78.668C269.596 78.668 265.95 87.2275 265.95 97.7862C265.95 108.345 269.596 116.904 274.094 116.904Z" fill="url(#paint148_linear_860_931)"/>
<path d="M284.301 130.265H272.466C271.271 130.265 270.294 129.287 270.294 128.093V67.4792C270.294 66.2843 271.271 65.3066 272.466 65.3066H284.301C285.496 65.3066 286.473 66.2843 286.473 67.4792V127.984C286.473 129.287 285.496 130.265 284.301 130.265Z" fill="url(#paint149_linear_860_931)"/>
<path d="M287.341 130.265H275.506C274.311 130.265 273.334 129.287 273.334 128.092V71.8239C273.334 70.629 274.311 69.6514 275.506 69.6514H287.341C288.536 69.6514 289.513 70.629 289.513 71.8239V128.092C289.622 129.287 288.536 130.265 287.341 130.265Z" fill="url(#paint150_linear_860_931)"/>
<path d="M287.341 125.92H275.506C274.311 125.92 273.334 124.942 273.334 123.748V67.4792C273.334 66.2843 274.311 65.3066 275.506 65.3066H287.341C288.536 65.3066 289.513 66.2843 289.513 67.4792V123.748C289.622 124.942 288.536 125.92 287.341 125.92Z" fill="url(#paint151_linear_860_931)"/>
<path d="M249.445 115.166L280.826 134.936V140.91V147.537L249.445 163.939" stroke="#0F9D87" stroke-width="2" stroke-miterlimit="10"/>
<path d="M280.827 160.029C285.324 160.029 288.97 151.47 288.97 140.911C288.97 130.352 285.324 121.793 280.827 121.793C276.329 121.793 272.683 130.352 272.683 140.911C272.683 151.47 276.329 160.029 280.827 160.029Z" fill="url(#paint152_linear_860_931)"/>
<path d="M291.033 173.39H279.089C277.894 173.39 276.917 172.412 276.917 171.217V110.713C276.917 109.518 277.894 108.54 279.089 108.54H291.033C292.228 108.54 293.205 109.518 293.205 110.713V171.217C293.205 172.412 292.228 173.39 291.033 173.39Z" fill="url(#paint153_linear_860_931)"/>
<path d="M294.182 173.39H282.347C281.152 173.39 280.175 172.412 280.175 171.217V114.949C280.175 113.754 281.152 112.776 282.347 112.776H294.182C295.377 112.776 296.354 113.754 296.354 114.949V171.217C296.354 172.412 295.377 173.39 294.182 173.39Z" fill="url(#paint154_linear_860_931)"/>
<path d="M294.182 169.045H282.347C281.152 169.045 280.175 168.067 280.175 166.873V110.604C280.175 109.409 281.152 108.432 282.347 108.432H294.182C295.377 108.432 296.354 109.409 296.354 110.604V166.873C296.354 168.067 295.377 169.045 294.182 169.045Z" fill="url(#paint155_linear_860_931)"/>
<path d="M292.336 162.092V159.92L287.992 164.265H290.164C291.358 164.265 292.336 163.287 292.336 162.092Z" fill="url(#paint156_linear_860_931)"/>
<path d="M290.164 113.211H286.255C285.06 113.211 284.083 114.189 284.083 115.383V135.588L292.444 127.224V115.383C292.335 114.189 291.358 113.211 290.164 113.211Z" fill="url(#paint157_linear_860_931)"/>
<path d="M292.336 151.773V132.98L283.975 141.345V160.137L292.336 151.773Z" fill="url(#paint158_linear_860_931)"/>
<path d="M249.554 115.166L218.281 134.936V140.91V147.537L249.554 163.939" stroke="#0F9D87" stroke-width="2" stroke-miterlimit="10"/>
<path d="M218.282 160.029C222.779 160.029 226.425 151.47 226.425 140.911C226.425 130.352 222.779 121.793 218.282 121.793C213.784 121.793 210.138 130.352 210.138 140.911C210.138 151.47 213.784 160.029 218.282 160.029Z" fill="url(#paint159_linear_860_931)"/>
<path d="M208.074 173.39H219.91C221.105 173.39 222.082 172.412 222.082 171.217V110.713C222.082 109.518 221.105 108.54 219.91 108.54H208.074C206.88 108.54 205.903 109.518 205.903 110.713V171.217C205.794 172.412 206.771 173.39 208.074 173.39Z" fill="url(#paint160_linear_860_931)"/>
<path d="M204.925 173.39H216.761C217.956 173.39 218.933 172.412 218.933 171.217V114.949C218.933 113.754 217.956 112.776 216.761 112.776H204.925C203.731 112.776 202.754 113.754 202.754 114.949V171.217C202.645 172.412 203.731 173.39 204.925 173.39Z" fill="black"/>
<path d="M204.925 169.045H216.761C217.956 169.045 218.933 168.067 218.933 166.873V110.604C218.933 109.409 217.956 108.432 216.761 108.432H204.925C203.731 108.432 202.754 109.409 202.754 110.604V166.873C202.645 168.067 203.731 169.045 204.925 169.045Z" fill="url(#paint161_linear_860_931)"/>
<path d="M213.612 111.799H208.182C206.988 111.799 206.011 112.776 206.011 113.971V131.46L215.892 121.575V113.971C215.783 112.776 214.806 111.799 213.612 111.799Z" fill="url(#paint162_linear_860_931)"/>
<path d="M215.784 146.125V127.441L205.902 137.326V156.01L215.784 146.125Z" fill="url(#paint163_linear_860_931)"/>
<path d="M208.074 165.677H213.503C214.698 165.677 215.675 164.699 215.675 163.504V154.38L205.902 164.156C206.337 165.025 207.097 165.677 208.074 165.677Z" fill="url(#paint164_linear_860_931)"/>
<path d="M257.589 126.898H241.41C240.216 126.898 239.238 125.92 239.238 124.725V69.3258C239.238 68.131 240.216 67.1533 241.41 67.1533H257.589C258.784 67.1533 259.761 68.131 259.761 69.3258V124.725C259.761 125.92 258.784 126.898 257.589 126.898Z" fill="url(#paint165_linear_860_931)"/>
<path d="M257.589 122.661H241.41C240.216 122.661 239.238 121.684 239.238 120.489V65.0895C239.238 63.8946 240.216 62.917 241.41 62.917H257.589C258.784 62.917 259.761 63.8946 259.761 65.0895V120.489C259.761 121.684 258.784 122.661 257.589 122.661Z" fill="url(#paint166_linear_860_931)"/>
<path d="M259.761 172.195H239.347C238.152 172.195 237.175 171.218 237.175 170.023V102.24C237.175 101.045 238.152 100.067 239.347 100.067H259.761C260.955 100.067 261.932 101.045 261.932 102.24V170.023C261.932 171.218 260.955 172.195 259.761 172.195Z" fill="black"/>
<path d="M259.761 167.09H239.347C238.152 167.09 237.175 166.112 237.175 164.917V97.1344C237.175 95.9395 238.152 94.9619 239.347 94.9619H259.761C260.955 94.9619 261.932 95.9395 261.932 97.1344V164.917C261.932 166.112 260.955 167.09 259.761 167.09Z" fill="url(#paint167_linear_860_931)"/>
<path d="M242.712 162.093H247.707L257.697 152.1V135.806L241.301 152.208V160.681C241.301 161.441 241.952 162.093 242.712 162.093Z" fill="url(#paint168_linear_860_931)"/>
<path d="M256.286 99.959H242.712C241.952 99.959 241.301 100.611 241.301 101.371V119.512L257.697 103.109V101.371C257.697 100.611 257.046 99.959 256.286 99.959Z" fill="url(#paint169_linear_860_931)"/>
<path d="M257.697 127.55V108.758L241.301 125.16V143.953L257.697 127.55Z" fill="url(#paint170_linear_860_931)"/>
<path d="M469.982 476.457H29.0177C26.8459 476.457 25 474.611 25 472.438C25 470.266 26.8459 468.419 29.0177 468.419H469.982C472.154 468.419 474 470.266 474 472.438C474 474.611 472.263 476.457 469.982 476.457Z" fill="url(#paint171_linear_860_931)"/>
<path d="M395.167 476.457H103.833C101.661 476.457 99.8154 474.611 99.8154 472.438C99.8154 470.266 101.661 468.419 103.833 468.419H395.167C397.339 468.419 399.185 470.266 399.185 472.438C399.185 474.611 397.448 476.457 395.167 476.457Z" fill="url(#paint172_linear_860_931)"/>
<path d="M74.8406 476.457H29.0177C26.8459 476.457 25 474.611 25 472.438C25 470.266 26.8459 468.419 29.0177 468.419H74.8406C77.0123 468.419 78.8583 470.266 78.8583 472.438C78.8583 474.611 77.1209 476.457 74.8406 476.457Z" fill="#0F9D87"/>
<path d="M440.882 476.457H419.925C417.753 476.457 415.907 474.611 415.907 472.438C415.907 470.266 417.753 468.419 419.925 468.419H440.882C443.054 468.419 444.899 470.266 444.899 472.438C444.899 474.611 443.054 476.457 440.882 476.457Z" fill="#0F9D87"/>
<path d="M469.983 476.457H465.965C463.793 476.457 461.947 474.611 461.947 472.438C461.947 470.266 463.793 468.419 465.965 468.419H469.983C472.154 468.419 474 470.266 474 472.438C474 474.611 472.263 476.457 469.983 476.457Z" fill="#0F9D87"/>
<defs>
<filter id="filter0_f_860_931" x="0" y="489" width="499" height="55" filterUnits="userSpaceOnUse" color-interpolation-filters="sRGB">
<feFlood flood-opacity="0" result="BackgroundImageFix"/>
<feBlend mode="normal" in="SourceGraphic" in2="BackgroundImageFix" result="shape"/>
<feGaussianBlur stdDeviation="12.5" result="effect1_foregroundBlur_860_931"/>
</filter>
<linearGradient id="paint0_linear_860_931" x1="298.906" y1="268.764" x2="298.906" y2="468.419" gradientUnits="userSpaceOnUse">
<stop stop-color="#49AF62"/>
<stop offset="1" stop-color="#49AF62" stop-opacity="0"/>
</linearGradient>
<linearGradient id="paint1_linear_860_931" x1="299.015" y1="256.814" x2="299.015" y2="268.872" gradientUnits="userSpaceOnUse">
<stop stop-color="#49AF62"/>
<stop offset="1" stop-color="#49AF62" stop-opacity="0"/>
</linearGradient>
<linearGradient id="paint2_linear_860_931" x1="298.91" y1="267.46" x2="298.91" y2="272.022" gradientUnits="userSpaceOnUse">
<stop stop-color="#49AF62"/>
<stop offset="1" stop-color="#49AF62" stop-opacity="0"/>
</linearGradient>
<linearGradient id="paint3_linear_860_931" x1="298.906" y1="229.44" x2="298.906" y2="256.815" gradientUnits="userSpaceOnUse">
<stop stop-color="#49AF62"/>
<stop offset="1" stop-color="#49AF62" stop-opacity="0"/>
</linearGradient>
<linearGradient id="paint4_linear_860_931" x1="267.471" y1="275.281" x2="267.471" y2="288.099" gradientUnits="userSpaceOnUse">
<stop stop-color="#49AF62"/>
<stop offset="1" stop-color="#49AF62" stop-opacity="0"/>
</linearGradient>
<linearGradient id="paint5_linear_860_931" x1="280.066" y1="275.281" x2="280.066" y2="288.099" gradientUnits="userSpaceOnUse">
<stop stop-color="#49AF62"/>
<stop offset="1" stop-color="#49AF62" stop-opacity="0"/>
</linearGradient>
<linearGradient id="paint6_linear_860_931" x1="292.662" y1="275.281" x2="292.662" y2="288.099" gradientUnits="userSpaceOnUse">
<stop stop-color="#49AF62"/>
<stop offset="1" stop-color="#49AF62" stop-opacity="0"/>
</linearGradient>
<linearGradient id="paint7_linear_860_931" x1="305.367" y1="275.281" x2="305.367" y2="288.099" gradientUnits="userSpaceOnUse">
<stop stop-color="#49AF62"/>
<stop offset="1" stop-color="#49AF62" stop-opacity="0"/>
</linearGradient>
<linearGradient id="paint8_linear_860_931" x1="317.963" y1="275.281" x2="317.963" y2="288.099" gradientUnits="userSpaceOnUse">
<stop stop-color="#49AF62"/>
<stop offset="1" stop-color="#49AF62" stop-opacity="0"/>
</linearGradient>
<linearGradient id="paint9_linear_860_931" x1="330.558" y1="275.281" x2="330.558" y2="288.099" gradientUnits="userSpaceOnUse">
<stop stop-color="#49AF62"/>
<stop offset="1" stop-color="#49AF62" stop-opacity="0"/>
</linearGradient>
<linearGradient id="paint10_linear_860_931" x1="267.471" y1="294.291" x2="267.471" y2="307.109" gradientUnits="userSpaceOnUse">
<stop stop-color="#49AF62"/>
<stop offset="1" stop-color="#49AF62" stop-opacity="0"/>
</linearGradient>
<linearGradient id="paint11_linear_860_931" x1="280.066" y1="294.291" x2="280.066" y2="307.109" gradientUnits="userSpaceOnUse">
<stop stop-color="#49AF62"/>
<stop offset="1" stop-color="#49AF62" stop-opacity="0"/>
</linearGradient>
<linearGradient id="paint12_linear_860_931" x1="292.662" y1="294.291" x2="292.662" y2="307.109" gradientUnits="userSpaceOnUse">
<stop stop-color="#49AF62"/>
<stop offset="1" stop-color="#49AF62" stop-opacity="0"/>
</linearGradient>
<linearGradient id="paint13_linear_860_931" x1="305.367" y1="294.291" x2="305.367" y2="307.109" gradientUnits="userSpaceOnUse">
<stop stop-color="#49AF62"/>
<stop offset="1" stop-color="#49AF62" stop-opacity="0"/>
</linearGradient>
<linearGradient id="paint14_linear_860_931" x1="317.963" y1="294.291" x2="317.963" y2="307.109" gradientUnits="userSpaceOnUse">
<stop stop-color="#49AF62"/>
<stop offset="1" stop-color="#49AF62" stop-opacity="0"/>
</linearGradient>
<linearGradient id="paint15_linear_860_931" x1="330.558" y1="294.291" x2="330.558" y2="307.109" gradientUnits="userSpaceOnUse">
<stop stop-color="#49AF62"/>
<stop offset="1" stop-color="#49AF62" stop-opacity="0"/>
</linearGradient>
<linearGradient id="paint16_linear_860_931" x1="267.471" y1="313.192" x2="267.471" y2="326.01" gradientUnits="userSpaceOnUse">
<stop stop-color="#49AF62"/>
<stop offset="1" stop-color="#49AF62" stop-opacity="0"/>
</linearGradient>
<linearGradient id="paint17_linear_860_931" x1="280.066" y1="313.192" x2="280.066" y2="326.01" gradientUnits="userSpaceOnUse">
<stop stop-color="#49AF62"/>
<stop offset="1" stop-color="#49AF62" stop-opacity="0"/>
</linearGradient>
<linearGradient id="paint18_linear_860_931" x1="292.662" y1="313.192" x2="292.662" y2="326.01" gradientUnits="userSpaceOnUse">
<stop stop-color="#49AF62"/>
<stop offset="1" stop-color="#49AF62" stop-opacity="0"/>
</linearGradient>
<linearGradient id="paint19_linear_860_931" x1="305.367" y1="313.192" x2="305.367" y2="326.01" gradientUnits="userSpaceOnUse">
<stop stop-color="#49AF62"/>
<stop offset="1" stop-color="#49AF62" stop-opacity="0"/>
</linearGradient>
<linearGradient id="paint20_linear_860_931" x1="317.963" y1="313.192" x2="317.963" y2="326.01" gradientUnits="userSpaceOnUse">
<stop stop-color="#49AF62"/>
<stop offset="1" stop-color="#49AF62" stop-opacity="0"/>
</linearGradient>
<linearGradient id="paint21_linear_860_931" x1="330.558" y1="313.192" x2="330.558" y2="326.01" gradientUnits="userSpaceOnUse">
<stop stop-color="#49AF62"/>
<stop offset="1" stop-color="#49AF62" stop-opacity="0"/>
</linearGradient>
<linearGradient id="paint22_linear_860_931" x1="267.471" y1="332.201" x2="267.471" y2="345.019" gradientUnits="userSpaceOnUse">
<stop stop-color="#49AF62"/>
<stop offset="1" stop-color="#49AF62" stop-opacity="0"/>
</linearGradient>
<linearGradient id="paint23_linear_860_931" x1="280.066" y1="332.201" x2="280.066" y2="345.019" gradientUnits="userSpaceOnUse">
<stop stop-color="#49AF62"/>
<stop offset="1" stop-color="#49AF62" stop-opacity="0"/>
</linearGradient>
<linearGradient id="paint24_linear_860_931" x1="292.662" y1="332.201" x2="292.662" y2="345.019" gradientUnits="userSpaceOnUse">
<stop stop-color="#49AF62"/>
<stop offset="1" stop-color="#49AF62" stop-opacity="0"/>
</linearGradient>
<linearGradient id="paint25_linear_860_931" x1="305.367" y1="332.201" x2="305.367" y2="345.019" gradientUnits="userSpaceOnUse">
<stop stop-color="#49AF62"/>
<stop offset="1" stop-color="#49AF62" stop-opacity="0"/>
</linearGradient>
<linearGradient id="paint26_linear_860_931" x1="317.963" y1="332.201" x2="317.963" y2="345.019" gradientUnits="userSpaceOnUse">
<stop stop-color="#49AF62"/>
<stop offset="1" stop-color="#49AF62" stop-opacity="0"/>
</linearGradient>
<linearGradient id="paint27_linear_860_931" x1="330.558" y1="332.201" x2="330.558" y2="345.019" gradientUnits="userSpaceOnUse">
<stop stop-color="#49AF62"/>
<stop offset="1" stop-color="#49AF62" stop-opacity="0"/>
</linearGradient>
<linearGradient id="paint28_linear_860_931" x1="267.471" y1="351.211" x2="267.471" y2="364.029" gradientUnits="userSpaceOnUse">
<stop stop-color="#49AF62"/>
<stop offset="1" stop-color="#49AF62" stop-opacity="0"/>
</linearGradient>
<linearGradient id="paint29_linear_860_931" x1="280.066" y1="351.211" x2="280.066" y2="364.029" gradientUnits="userSpaceOnUse">
<stop stop-color="#49AF62"/>
<stop offset="1" stop-color="#49AF62" stop-opacity="0"/>
</linearGradient>
<linearGradient id="paint30_linear_860_931" x1="292.662" y1="351.211" x2="292.662" y2="364.029" gradientUnits="userSpaceOnUse">
<stop stop-color="#49AF62"/>
<stop offset="1" stop-color="#49AF62" stop-opacity="0"/>
</linearGradient>
<linearGradient id="paint31_linear_860_931" x1="305.367" y1="351.211" x2="305.367" y2="364.029" gradientUnits="userSpaceOnUse">
<stop stop-color="#49AF62"/>
<stop offset="1" stop-color="#49AF62" stop-opacity="0"/>
</linearGradient>
<linearGradient id="paint32_linear_860_931" x1="317.963" y1="351.211" x2="317.963" y2="364.029" gradientUnits="userSpaceOnUse">
<stop stop-color="#49AF62"/>
<stop offset="1" stop-color="#49AF62" stop-opacity="0"/>
</linearGradient>
<linearGradient id="paint33_linear_860_931" x1="330.558" y1="351.211" x2="330.558" y2="364.029" gradientUnits="userSpaceOnUse">
<stop stop-color="#49AF62"/>
<stop offset="1" stop-color="#49AF62" stop-opacity="0"/>
</linearGradient>
<linearGradient id="paint34_linear_860_931" x1="267.471" y1="370.221" x2="267.471" y2="383.039" gradientUnits="userSpaceOnUse">
<stop stop-color="#49AF62"/>
<stop offset="1" stop-color="#49AF62" stop-opacity="0"/>
</linearGradient>
<linearGradient id="paint35_linear_860_931" x1="280.066" y1="370.221" x2="280.066" y2="383.039" gradientUnits="userSpaceOnUse">
<stop stop-color="#49AF62"/>
<stop offset="1" stop-color="#49AF62" stop-opacity="0"/>
</linearGradient>
<linearGradient id="paint36_linear_860_931" x1="292.662" y1="370.221" x2="292.662" y2="383.039" gradientUnits="userSpaceOnUse">
<stop stop-color="#49AF62"/>
<stop offset="1" stop-color="#49AF62" stop-opacity="0"/>
</linearGradient>
<linearGradient id="paint37_linear_860_931" x1="305.367" y1="370.221" x2="305.367" y2="383.039" gradientUnits="userSpaceOnUse">
<stop stop-color="#49AF62"/>
<stop offset="1" stop-color="#49AF62" stop-opacity="0"/>
</linearGradient>
<linearGradient id="paint38_linear_860_931" x1="317.963" y1="370.221" x2="317.963" y2="383.039" gradientUnits="userSpaceOnUse">
<stop stop-color="#49AF62"/>
<stop offset="1" stop-color="#49AF62" stop-opacity="0"/>
</linearGradient>
<linearGradient id="paint39_linear_860_931" x1="330.558" y1="370.221" x2="330.558" y2="383.039" gradientUnits="userSpaceOnUse">
<stop stop-color="#49AF62"/>
<stop offset="1" stop-color="#49AF62" stop-opacity="0"/>
</linearGradient>
<linearGradient id="paint40_linear_860_931" x1="267.471" y1="389.23" x2="267.471" y2="402.048" gradientUnits="userSpaceOnUse">
<stop stop-color="#49AF62"/>
<stop offset="1" stop-color="#49AF62" stop-opacity="0"/>
</linearGradient>
<linearGradient id="paint41_linear_860_931" x1="280.066" y1="389.23" x2="280.066" y2="402.048" gradientUnits="userSpaceOnUse">
<stop stop-color="#49AF62"/>
<stop offset="1" stop-color="#49AF62" stop-opacity="0"/>
</linearGradient>
<linearGradient id="paint42_linear_860_931" x1="292.662" y1="389.23" x2="292.662" y2="402.048" gradientUnits="userSpaceOnUse">
<stop stop-color="#49AF62"/>
<stop offset="1" stop-color="#49AF62" stop-opacity="0"/>
</linearGradient>
<linearGradient id="paint43_linear_860_931" x1="305.367" y1="389.23" x2="305.367" y2="402.048" gradientUnits="userSpaceOnUse">
<stop stop-color="#49AF62"/>
<stop offset="1" stop-color="#49AF62" stop-opacity="0"/>
</linearGradient>
<linearGradient id="paint44_linear_860_931" x1="317.963" y1="389.23" x2="317.963" y2="402.048" gradientUnits="userSpaceOnUse">
<stop stop-color="#49AF62"/>
<stop offset="1" stop-color="#49AF62" stop-opacity="0"/>
</linearGradient>
<linearGradient id="paint45_linear_860_931" x1="330.558" y1="389.23" x2="330.558" y2="402.048" gradientUnits="userSpaceOnUse">
<stop stop-color="#49AF62"/>
<stop offset="1" stop-color="#49AF62" stop-opacity="0"/>
</linearGradient>
<linearGradient id="paint46_linear_860_931" x1="267.471" y1="408.24" x2="267.471" y2="421.058" gradientUnits="userSpaceOnUse">
<stop stop-color="#49AF62"/>
<stop offset="1" stop-color="#49AF62" stop-opacity="0"/>
</linearGradient>
<linearGradient id="paint47_linear_860_931" x1="280.066" y1="408.24" x2="280.066" y2="421.058" gradientUnits="userSpaceOnUse">
<stop stop-color="#49AF62"/>
<stop offset="1" stop-color="#49AF62" stop-opacity="0"/>
</linearGradient>
<linearGradient id="paint48_linear_860_931" x1="292.662" y1="408.24" x2="292.662" y2="421.058" gradientUnits="userSpaceOnUse">
<stop stop-color="#49AF62"/>
<stop offset="1" stop-color="#49AF62" stop-opacity="0"/>
</linearGradient>
<linearGradient id="paint49_linear_860_931" x1="305.367" y1="408.24" x2="305.367" y2="421.058" gradientUnits="userSpaceOnUse">
<stop stop-color="#49AF62"/>
<stop offset="1" stop-color="#49AF62" stop-opacity="0"/>
</linearGradient>
<linearGradient id="paint50_linear_860_931" x1="317.963" y1="408.24" x2="317.963" y2="421.058" gradientUnits="userSpaceOnUse">
<stop stop-color="#49AF62"/>
<stop offset="1" stop-color="#49AF62" stop-opacity="0"/>
</linearGradient>
<linearGradient id="paint51_linear_860_931" x1="330.558" y1="408.24" x2="330.558" y2="421.058" gradientUnits="userSpaceOnUse">
<stop stop-color="#49AF62"/>
<stop offset="1" stop-color="#49AF62" stop-opacity="0"/>
</linearGradient>
<linearGradient id="paint52_linear_860_931" x1="267.471" y1="427.249" x2="267.471" y2="440.067" gradientUnits="userSpaceOnUse">
<stop stop-color="#49AF62"/>
<stop offset="1" stop-color="#49AF62" stop-opacity="0"/>
</linearGradient>
<linearGradient id="paint53_linear_860_931" x1="280.066" y1="427.249" x2="280.066" y2="440.067" gradientUnits="userSpaceOnUse">
<stop stop-color="#49AF62"/>
<stop offset="1" stop-color="#49AF62" stop-opacity="0"/>
</linearGradient>
<linearGradient id="paint54_linear_860_931" x1="292.662" y1="427.249" x2="292.662" y2="440.067" gradientUnits="userSpaceOnUse">
<stop stop-color="#49AF62"/>
<stop offset="1" stop-color="#49AF62" stop-opacity="0"/>
</linearGradient>
<linearGradient id="paint55_linear_860_931" x1="305.367" y1="427.249" x2="305.367" y2="440.067" gradientUnits="userSpaceOnUse">
<stop stop-color="#49AF62"/>
<stop offset="1" stop-color="#49AF62" stop-opacity="0"/>
</linearGradient>
<linearGradient id="paint56_linear_860_931" x1="317.963" y1="427.249" x2="317.963" y2="440.067" gradientUnits="userSpaceOnUse">
<stop stop-color="#49AF62"/>
<stop offset="1" stop-color="#49AF62" stop-opacity="0"/>
</linearGradient>
<linearGradient id="paint57_linear_860_931" x1="330.558" y1="427.249" x2="330.558" y2="440.067" gradientUnits="userSpaceOnUse">
<stop stop-color="#49AF62"/>
<stop offset="1" stop-color="#49AF62" stop-opacity="0"/>
</linearGradient>
<linearGradient id="paint58_linear_860_931" x1="174.305" y1="261.051" x2="174.305" y2="468.418" gradientUnits="userSpaceOnUse">
<stop stop-color="#49AF62"/>
<stop offset="1" stop-color="#49AF62" stop-opacity="0"/>
</linearGradient>
<linearGradient id="paint59_linear_860_931" x1="142.435" y1="266.917" x2="142.435" y2="277.019" gradientUnits="userSpaceOnUse">
<stop stop-color="#49AF62"/>
<stop offset="1" stop-color="#49AF62" stop-opacity="0"/>
</linearGradient>
<linearGradient id="paint60_linear_860_931" x1="142.435" y1="282.994" x2="142.435" y2="293.096" gradientUnits="userSpaceOnUse">
<stop stop-color="#49AF62"/>
<stop offset="1" stop-color="#49AF62" stop-opacity="0"/>
</linearGradient>
<linearGradient id="paint61_linear_860_931" x1="142.435" y1="298.962" x2="142.435" y2="309.064" gradientUnits="userSpaceOnUse">
<stop stop-color="#49AF62"/>
<stop offset="1" stop-color="#49AF62" stop-opacity="0"/>
</linearGradient>
<linearGradient id="paint62_linear_860_931" x1="142.435" y1="314.93" x2="142.435" y2="325.032" gradientUnits="userSpaceOnUse">
<stop stop-color="#49AF62"/>
<stop offset="1" stop-color="#49AF62" stop-opacity="0"/>
</linearGradient>
<linearGradient id="paint63_linear_860_931" x1="142.435" y1="330.897" x2="142.435" y2="341" gradientUnits="userSpaceOnUse">
<stop stop-color="#49AF62"/>
<stop offset="1" stop-color="#49AF62" stop-opacity="0"/>
</linearGradient>
<linearGradient id="paint64_linear_860_931" x1="142.435" y1="346.975" x2="142.435" y2="357.077" gradientUnits="userSpaceOnUse">
<stop stop-color="#49AF62"/>
<stop offset="1" stop-color="#49AF62" stop-opacity="0"/>
</linearGradient>
<linearGradient id="paint65_linear_860_931" x1="142.435" y1="362.942" x2="142.435" y2="373.045" gradientUnits="userSpaceOnUse">
<stop stop-color="#49AF62"/>
<stop offset="1" stop-color="#49AF62" stop-opacity="0"/>
</linearGradient>
<linearGradient id="paint66_linear_860_931" x1="142.435" y1="378.91" x2="142.435" y2="389.012" gradientUnits="userSpaceOnUse">
<stop stop-color="#49AF62"/>
<stop offset="1" stop-color="#49AF62" stop-opacity="0"/>
</linearGradient>
<linearGradient id="paint67_linear_860_931" x1="142.435" y1="394.987" x2="142.435" y2="405.09" gradientUnits="userSpaceOnUse">
<stop stop-color="#49AF62"/>
<stop offset="1" stop-color="#49AF62" stop-opacity="0"/>
</linearGradient>
<linearGradient id="paint68_linear_860_931" x1="142.435" y1="410.955" x2="142.435" y2="421.057" gradientUnits="userSpaceOnUse">
<stop stop-color="#49AF62"/>
<stop offset="1" stop-color="#49AF62" stop-opacity="0"/>
</linearGradient>
<linearGradient id="paint69_linear_860_931" x1="142.435" y1="426.924" x2="142.435" y2="437.026" gradientUnits="userSpaceOnUse">
<stop stop-color="#49AF62"/>
<stop offset="1" stop-color="#49AF62" stop-opacity="0"/>
</linearGradient>
<linearGradient id="paint70_linear_860_931" x1="142.435" y1="442.892" x2="142.435" y2="452.994" gradientUnits="userSpaceOnUse">
<stop stop-color="#49AF62"/>
<stop offset="1" stop-color="#49AF62" stop-opacity="0"/>
</linearGradient>
<linearGradient id="paint71_linear_860_931" x1="163.717" y1="266.917" x2="163.717" y2="277.019" gradientUnits="userSpaceOnUse">
<stop stop-color="#49AF62"/>
<stop offset="1" stop-color="#49AF62" stop-opacity="0"/>
</linearGradient>
<linearGradient id="paint72_linear_860_931" x1="163.717" y1="282.994" x2="163.717" y2="293.096" gradientUnits="userSpaceOnUse">
<stop stop-color="#49AF62"/>
<stop offset="1" stop-color="#49AF62" stop-opacity="0"/>
</linearGradient>
<linearGradient id="paint73_linear_860_931" x1="163.717" y1="298.962" x2="163.717" y2="309.064" gradientUnits="userSpaceOnUse">
<stop stop-color="#49AF62"/>
<stop offset="1" stop-color="#49AF62" stop-opacity="0"/>
</linearGradient>
<linearGradient id="paint74_linear_860_931" x1="163.717" y1="314.93" x2="163.717" y2="325.032" gradientUnits="userSpaceOnUse">
<stop stop-color="#49AF62"/>
<stop offset="1" stop-color="#49AF62" stop-opacity="0"/>
</linearGradient>
<linearGradient id="paint75_linear_860_931" x1="163.717" y1="330.897" x2="163.717" y2="341" gradientUnits="userSpaceOnUse">
<stop stop-color="#49AF62"/>
<stop offset="1" stop-color="#49AF62" stop-opacity="0"/>
</linearGradient>
<linearGradient id="paint76_linear_860_931" x1="163.717" y1="346.975" x2="163.717" y2="357.077" gradientUnits="userSpaceOnUse">
<stop stop-color="#49AF62"/>
<stop offset="1" stop-color="#49AF62" stop-opacity="0"/>
</linearGradient>
<linearGradient id="paint77_linear_860_931" x1="163.717" y1="362.942" x2="163.717" y2="373.045" gradientUnits="userSpaceOnUse">
<stop stop-color="#49AF62"/>
<stop offset="1" stop-color="#49AF62" stop-opacity="0"/>
</linearGradient>
<linearGradient id="paint78_linear_860_931" x1="163.717" y1="378.91" x2="163.717" y2="389.012" gradientUnits="userSpaceOnUse">
<stop stop-color="#49AF62"/>
<stop offset="1" stop-color="#49AF62" stop-opacity="0"/>
</linearGradient>
<linearGradient id="paint79_linear_860_931" x1="163.717" y1="394.987" x2="163.717" y2="405.09" gradientUnits="userSpaceOnUse">
<stop stop-color="#49AF62"/>
<stop offset="1" stop-color="#49AF62" stop-opacity="0"/>
</linearGradient>
<linearGradient id="paint80_linear_860_931" x1="163.717" y1="410.955" x2="163.717" y2="421.057" gradientUnits="userSpaceOnUse">
<stop stop-color="#49AF62"/>
<stop offset="1" stop-color="#49AF62" stop-opacity="0"/>
</linearGradient>
<linearGradient id="paint81_linear_860_931" x1="163.717" y1="426.924" x2="163.717" y2="437.026" gradientUnits="userSpaceOnUse">
<stop stop-color="#49AF62"/>
<stop offset="1" stop-color="#49AF62" stop-opacity="0"/>
</linearGradient>
<linearGradient id="paint82_linear_860_931" x1="163.717" y1="442.892" x2="163.717" y2="452.994" gradientUnits="userSpaceOnUse">
<stop stop-color="#49AF62"/>
<stop offset="1" stop-color="#49AF62" stop-opacity="0"/>
</linearGradient>
<linearGradient id="paint83_linear_860_931" x1="185.001" y1="266.917" x2="185.001" y2="277.019" gradientUnits="userSpaceOnUse">
<stop stop-color="#49AF62"/>
<stop offset="1" stop-color="#49AF62" stop-opacity="0"/>
</linearGradient>
<linearGradient id="paint84_linear_860_931" x1="185.001" y1="282.994" x2="185.001" y2="293.096" gradientUnits="userSpaceOnUse">
<stop stop-color="#49AF62"/>
<stop offset="1" stop-color="#49AF62" stop-opacity="0"/>
</linearGradient>
<linearGradient id="paint85_linear_860_931" x1="185.001" y1="298.962" x2="185.001" y2="309.064" gradientUnits="userSpaceOnUse">
<stop stop-color="#49AF62"/>
<stop offset="1" stop-color="#49AF62" stop-opacity="0"/>
</linearGradient>
<linearGradient id="paint86_linear_860_931" x1="185.001" y1="314.93" x2="185.001" y2="325.032" gradientUnits="userSpaceOnUse">
<stop stop-color="#49AF62"/>
<stop offset="1" stop-color="#49AF62" stop-opacity="0"/>
</linearGradient>
<linearGradient id="paint87_linear_860_931" x1="185.001" y1="330.897" x2="185.001" y2="341" gradientUnits="userSpaceOnUse">
<stop stop-color="#49AF62"/>
<stop offset="1" stop-color="#49AF62" stop-opacity="0"/>
</linearGradient>
<linearGradient id="paint88_linear_860_931" x1="185.001" y1="346.975" x2="185.001" y2="357.077" gradientUnits="userSpaceOnUse">
<stop stop-color="#49AF62"/>
<stop offset="1" stop-color="#49AF62" stop-opacity="0"/>
</linearGradient>
<linearGradient id="paint89_linear_860_931" x1="185.001" y1="362.942" x2="185.001" y2="373.045" gradientUnits="userSpaceOnUse">
<stop stop-color="#49AF62"/>
<stop offset="1" stop-color="#49AF62" stop-opacity="0"/>
</linearGradient>
<linearGradient id="paint90_linear_860_931" x1="185.001" y1="378.91" x2="185.001" y2="389.012" gradientUnits="userSpaceOnUse">
<stop stop-color="#49AF62"/>
<stop offset="1" stop-color="#49AF62" stop-opacity="0"/>
</linearGradient>
<linearGradient id="paint91_linear_860_931" x1="185.001" y1="394.987" x2="185.001" y2="405.09" gradientUnits="userSpaceOnUse">
<stop stop-color="#49AF62"/>
<stop offset="1" stop-color="#49AF62" stop-opacity="0"/>
</linearGradient>
<linearGradient id="paint92_linear_860_931" x1="185.001" y1="410.955" x2="185.001" y2="421.057" gradientUnits="userSpaceOnUse">
<stop stop-color="#49AF62"/>
<stop offset="1" stop-color="#49AF62" stop-opacity="0"/>
</linearGradient>
<linearGradient id="paint93_linear_860_931" x1="185.001" y1="426.924" x2="185.001" y2="437.026" gradientUnits="userSpaceOnUse">
<stop stop-color="#49AF62"/>
<stop offset="1" stop-color="#49AF62" stop-opacity="0"/>
</linearGradient>
<linearGradient id="paint94_linear_860_931" x1="185.001" y1="442.892" x2="185.001" y2="452.994" gradientUnits="userSpaceOnUse">
<stop stop-color="#49AF62"/>
<stop offset="1" stop-color="#49AF62" stop-opacity="0"/>
</linearGradient>
<linearGradient id="paint95_linear_860_931" x1="229.347" y1="231.957" x2="229.347" y2="491.457" gradientUnits="userSpaceOnUse">
<stop stop-color="#0F9D87"/>
<stop offset="1" stop-color="#1A1A1A"/>
</linearGradient>
<linearGradient id="paint96_linear_860_931" x1="229.347" y1="290.015" x2="229.347" y2="306.795" gradientUnits="userSpaceOnUse">
<stop stop-color="#0F9D87"/>
<stop offset="1" stop-color="#1A1A1A"/>
</linearGradient>
<linearGradient id="paint97_linear_860_931" x1="229.294" y1="250.2" x2="229.294" y2="291.709" gradientUnits="userSpaceOnUse">
<stop stop-color="#0F9D87"/>
<stop offset="1" stop-color="#1A1A1A"/>
</linearGradient>
<linearGradient id="paint98_linear_860_931" x1="229.348" y1="214.738" x2="229.348" y2="324.252" gradientUnits="userSpaceOnUse">
<stop stop-color="#0F9D87"/>
<stop offset="1" stop-color="#1A1A1A"/>
</linearGradient>
<linearGradient id="paint99_linear_860_931" x1="229.347" y1="319.235" x2="229.347" y2="336.015" gradientUnits="userSpaceOnUse">
<stop stop-color="#0F9D87"/>
<stop offset="1" stop-color="#1A1A1A"/>
</linearGradient>
<linearGradient id="paint100_linear_860_931" x1="229.347" y1="348.456" x2="229.347" y2="365.236" gradientUnits="userSpaceOnUse">
<stop stop-color="#0F9D87"/>
<stop offset="1" stop-color="#1A1A1A"/>
</linearGradient>
<linearGradient id="paint101_linear_860_931" x1="229.347" y1="377.676" x2="229.347" y2="394.457" gradientUnits="userSpaceOnUse">
<stop stop-color="#0F9D87"/>
<stop offset="1" stop-color="#1A1A1A"/>
</linearGradient>
<linearGradient id="paint102_linear_860_931" x1="229.347" y1="406.897" x2="229.347" y2="423.677" gradientUnits="userSpaceOnUse">
<stop stop-color="#0F9D87"/>
<stop offset="1" stop-color="#1A1A1A"/>
</linearGradient>
<linearGradient id="paint103_linear_860_931" x1="229.347" y1="436.226" x2="229.347" y2="453.006" gradientUnits="userSpaceOnUse">
<stop stop-color="#0F9D87"/>
<stop offset="1" stop-color="#1A1A1A"/>
</linearGradient>
<linearGradient id="paint104_linear_860_931" x1="363.514" y1="135.457" x2="363.514" y2="206.457" gradientUnits="userSpaceOnUse">
<stop stop-color="#0F9D87"/>
<stop offset="1" stop-color="#1A1A1A"/>
</linearGradient>
<linearGradient id="paint105_linear_860_931" x1="352.655" y1="126.043" x2="352.655" y2="306.211" gradientUnits="userSpaceOnUse">
<stop stop-color="#0F9D87"/>
<stop offset="1" stop-color="#1A1A1A"/>
</linearGradient>
<linearGradient id="paint106_linear_860_931" x1="358" y1="222.957" x2="358" y2="529.457" gradientUnits="userSpaceOnUse">
<stop stop-color="#0F9D87"/>
<stop offset="1" stop-color="#1A1A1A"/>
</linearGradient>
<linearGradient id="paint107_linear_860_931" x1="358.241" y1="168.847" x2="358.241" y2="230.228" gradientUnits="userSpaceOnUse">
<stop stop-color="#0F9D87"/>
<stop offset="1" stop-color="#1A1A1A"/>
</linearGradient>
<linearGradient id="paint108_linear_860_931" x1="358.135" y1="180.217" x2="358.135" y2="210.686" gradientUnits="userSpaceOnUse">
<stop stop-color="#0F9D87"/>
<stop offset="1" stop-color="#1A1A1A"/>
</linearGradient>
<linearGradient id="paint109_linear_860_931" x1="91.6718" y1="240.521" x2="91.6718" y2="468.636" gradientUnits="userSpaceOnUse">
<stop stop-color="#1A1A1A"/>
<stop offset="1" stop-color="#0F9D87"/>
</linearGradient>
<linearGradient id="paint110_linear_860_931" x1="91.6605" y1="241.969" x2="91.6605" y2="272.88" gradientUnits="userSpaceOnUse">
<stop stop-color="#0F9D87"/>
<stop offset="1" stop-color="#1A1A1A"/>
</linearGradient>
<linearGradient id="paint111_linear_860_931" x1="91.6605" y1="255.222" x2="91.6605" y2="286.133" gradientUnits="userSpaceOnUse">
<stop stop-color="#0F9D87"/>
<stop offset="1" stop-color="#1A1A1A"/>
</linearGradient>
<linearGradient id="paint112_linear_860_931" x1="91.6605" y1="268.474" x2="91.6605" y2="299.385" gradientUnits="userSpaceOnUse">
<stop stop-color="#0F9D87"/>
<stop offset="1" stop-color="#1A1A1A"/>
</linearGradient>
<linearGradient id="paint113_linear_860_931" x1="91.6605" y1="281.727" x2="91.6605" y2="312.638" gradientUnits="userSpaceOnUse">
<stop stop-color="#0F9D87"/>
<stop offset="1" stop-color="#1A1A1A"/>
</linearGradient>
<linearGradient id="paint114_linear_860_931" x1="91.6605" y1="294.979" x2="91.6605" y2="325.89" gradientUnits="userSpaceOnUse">
<stop stop-color="#0F9D87"/>
<stop offset="1" stop-color="#1A1A1A"/>
</linearGradient>
<linearGradient id="paint115_linear_860_931" x1="91.6605" y1="308.231" x2="91.6605" y2="339.142" gradientUnits="userSpaceOnUse">
<stop stop-color="#0F9D87"/>
<stop offset="1" stop-color="#1A1A1A"/>
</linearGradient>
<linearGradient id="paint116_linear_860_931" x1="91.6605" y1="321.592" x2="91.6605" y2="352.503" gradientUnits="userSpaceOnUse">
<stop stop-color="#0F9D87"/>
<stop offset="1" stop-color="#1A1A1A"/>
</linearGradient>
<linearGradient id="paint117_linear_860_931" x1="91.6605" y1="334.845" x2="91.6605" y2="365.756" gradientUnits="userSpaceOnUse">
<stop stop-color="#0F9D87"/>
<stop offset="1" stop-color="#1A1A1A"/>
</linearGradient>
<linearGradient id="paint118_linear_860_931" x1="91.6605" y1="348.097" x2="91.6605" y2="379.008" gradientUnits="userSpaceOnUse">
<stop stop-color="#0F9D87"/>
<stop offset="1" stop-color="#1A1A1A"/>
</linearGradient>
<linearGradient id="paint119_linear_860_931" x1="91.6605" y1="361.35" x2="91.6605" y2="392.261" gradientUnits="userSpaceOnUse">
<stop stop-color="#0F9D87"/>
<stop offset="1" stop-color="#1A1A1A"/>
</linearGradient>
<linearGradient id="paint120_linear_860_931" x1="91.6605" y1="374.602" x2="91.6605" y2="405.513" gradientUnits="userSpaceOnUse">
<stop stop-color="#0F9D87"/>
<stop offset="1" stop-color="#1A1A1A"/>
</linearGradient>
<linearGradient id="paint121_linear_860_931" x1="91.6605" y1="387.854" x2="91.6605" y2="418.765" gradientUnits="userSpaceOnUse">
<stop stop-color="#0F9D87"/>
<stop offset="1" stop-color="#1A1A1A"/>
</linearGradient>
<linearGradient id="paint122_linear_860_931" x1="91.7137" y1="217.728" x2="91.7137" y2="279.109" gradientUnits="userSpaceOnUse">
<stop stop-color="#0F9D87"/>
<stop offset="1" stop-color="#1A1A1A"/>
</linearGradient>
<linearGradient id="paint123_linear_860_931" x1="91.7134" y1="196.704" x2="91.7134" y2="241.433" gradientUnits="userSpaceOnUse">
<stop stop-color="#0F9D87"/>
<stop offset="1" stop-color="#1A1A1A"/>
</linearGradient>
<linearGradient id="paint124_linear_860_931" x1="91.7142" y1="200.531" x2="91.7142" y2="215.755" gradientUnits="userSpaceOnUse">
<stop stop-color="#0F9D87"/>
<stop offset="1" stop-color="#1A1A1A"/>
</linearGradient>
<linearGradient id="paint125_linear_860_931" x1="415.907" y1="180.012" x2="415.907" y2="487.94" gradientUnits="userSpaceOnUse">
<stop stop-color="#1A1A1A"/>
<stop offset="1" stop-color="#0F9D87"/>
</linearGradient>
<linearGradient id="paint126_linear_860_931" x1="415.952" y1="228.383" x2="415.952" y2="286.231" gradientUnits="userSpaceOnUse">
<stop stop-color="#0F9D87"/>
<stop offset="1" stop-color="#1A1A1A"/>
</linearGradient>
<linearGradient id="paint127_linear_860_931" x1="415.952" y1="263.469" x2="415.952" y2="321.317" gradientUnits="userSpaceOnUse">
<stop stop-color="#0F9D87"/>
<stop offset="1" stop-color="#1A1A1A"/>
</linearGradient>
<linearGradient id="paint128_linear_860_931" x1="415.952" y1="298.664" x2="415.952" y2="356.512" gradientUnits="userSpaceOnUse">
<stop stop-color="#0F9D87"/>
<stop offset="1" stop-color="#1A1A1A"/>
</linearGradient>
<linearGradient id="paint129_linear_860_931" x1="415.952" y1="333.859" x2="415.952" y2="391.707" gradientUnits="userSpaceOnUse">
<stop stop-color="#0F9D87"/>
<stop offset="1" stop-color="#1A1A1A"/>
</linearGradient>
<linearGradient id="paint130_linear_860_931" x1="415.952" y1="368.945" x2="415.952" y2="426.793" gradientUnits="userSpaceOnUse">
<stop stop-color="#0F9D87"/>
<stop offset="1" stop-color="#1A1A1A"/>
</linearGradient>
<linearGradient id="paint131_linear_860_931" x1="415.952" y1="404.14" x2="415.952" y2="461.988" gradientUnits="userSpaceOnUse">
<stop stop-color="#0F9D87"/>
<stop offset="1" stop-color="#1A1A1A"/>
</linearGradient>
<linearGradient id="paint132_linear_860_931" x1="249.522" y1="22.1768" x2="249.522" y2="223.083" gradientUnits="userSpaceOnUse">
<stop stop-color="#0F9D87"/>
<stop offset="1" stop-color="white"/>
</linearGradient>
<linearGradient id="paint133_linear_860_931" x1="249.522" y1="0.456869" x2="249.522" y2="244.802" gradientUnits="userSpaceOnUse">
<stop stop-color="#0F9D87"/>
<stop offset="1" stop-color="white"/>
</linearGradient>
<linearGradient id="paint134_linear_860_931" x1="249.521" y1="203.319" x2="249.521" y2="39.5174" gradientUnits="userSpaceOnUse">
<stop stop-color="white"/>
<stop offset="1" stop-color="#0F9D87"/>
</linearGradient>
<linearGradient id="paint135_linear_860_931" x1="213.5" y1="220.457" x2="280" y2="309.957" gradientUnits="userSpaceOnUse">
<stop stop-color="#0F9D87"/>
<stop offset="1" stop-color="#1A1A1A"/>
</linearGradient>
<linearGradient id="paint136_linear_860_931" x1="221.932" y1="382.99" x2="281.197" y2="382.99" gradientUnits="userSpaceOnUse">
<stop stop-color="#1A1A1A"/>
<stop offset="1" stop-color="#1A1A1A"/>
</linearGradient>
<linearGradient id="paint137_linear_860_931" x1="219.145" y1="382.964" x2="275.79" y2="382.964" gradientUnits="userSpaceOnUse">
<stop stop-color="#1A1A1A"/>
<stop offset="1" stop-color="#1A1A1A"/>
</linearGradient>
<linearGradient id="paint138_linear_860_931" x1="227.675" y1="310.801" x2="275.041" y2="310.801" gradientUnits="userSpaceOnUse">
<stop stop-color="#15554B"/>
<stop offset="1" stop-color="#1A1A1A"/>
</linearGradient>
<linearGradient id="paint139_linear_860_931" x1="224.864" y1="310.754" x2="270.527" y2="310.754" gradientUnits="userSpaceOnUse">
<stop stop-color="#192523"/>
<stop offset="1" stop-color="#173A35"/>
</linearGradient>
<linearGradient id="paint140_linear_860_931" x1="233.781" y1="231.222" x2="268.197" y2="231.222" gradientUnits="userSpaceOnUse">
<stop stop-color="#0F9D87"/>
<stop offset="1" stop-color="#1A1A1A"/>
</linearGradient>
<linearGradient id="paint141_linear_860_931" x1="231.202" y1="231.162" x2="264.902" y2="231.162" gradientUnits="userSpaceOnUse">
<stop stop-color="#127969"/>
<stop offset="1" stop-color="#127F6E"/>
</linearGradient>
<linearGradient id="paint142_linear_860_931" x1="238.364" y1="173.368" x2="262.98" y2="173.368" gradientUnits="userSpaceOnUse">
<stop stop-color="#0F9D87"/>
<stop offset="1" stop-color="#1A1A1A"/>
</linearGradient>
<linearGradient id="paint143_linear_860_931" x1="249.465" y1="442.438" x2="249.465" y2="395.16" gradientUnits="userSpaceOnUse">
<stop stop-color="#1A1A1A"/>
<stop offset="0.45" stop-color="#0F9D87"/>
</linearGradient>
<linearGradient id="paint144_linear_860_931" x1="249.397" y1="463.805" x2="249.397" y2="418.337" gradientUnits="userSpaceOnUse">
<stop stop-color="#1A1A1A"/>
<stop offset="0.45" stop-color="#0F9D87"/>
</linearGradient>
<linearGradient id="paint145_linear_860_931" x1="224.778" y1="109.718" x2="224.778" y2="38.9007" gradientUnits="userSpaceOnUse">
<stop offset="0.17" stop-color="#0F9D87"/>
<stop offset="1" stop-color="#1A1A1A"/>
</linearGradient>
<linearGradient id="paint146_linear_860_931" x1="220.489" y1="118.056" x2="220.489" y2="-2.25249" gradientUnits="userSpaceOnUse">
<stop stop-color="#1A1A1A"/>
<stop offset="0.45" stop-color="#0F9D87"/>
</linearGradient>
<linearGradient id="paint147_linear_860_931" x1="217.445" y1="114.528" x2="217.445" y2="2.26652" gradientUnits="userSpaceOnUse">
<stop stop-color="#1A1A1A"/>
<stop offset="0.45" stop-color="#0F9D87"/>
</linearGradient>
<linearGradient id="paint148_linear_860_931" x1="274.076" y1="109.718" x2="274.076" y2="38.9007" gradientUnits="userSpaceOnUse">
<stop offset="0.17" stop-color="#0F9D87"/>
<stop offset="1" stop-color="#1A1A1A"/>
</linearGradient>
<linearGradient id="paint149_linear_860_931" x1="278.365" y1="118.056" x2="278.365" y2="65.4568" gradientUnits="userSpaceOnUse">
<stop stop-color="#1A1A1A"/>
<stop offset="0.604984" stop-color="#0F9D87"/>
</linearGradient>
<linearGradient id="paint150_linear_860_931" x1="281.423" y1="112.423" x2="281.423" y2="-90.0703" gradientUnits="userSpaceOnUse">
<stop stop-color="#0F9D87"/>
<stop offset="0.4841" stop-color="#9893EB"/>
<stop offset="1" stop-color="#E8F1FF"/>
</linearGradient>
<linearGradient id="paint151_linear_860_931" x1="281.409" y1="114.528" x2="281.409" y2="62.4568" gradientUnits="userSpaceOnUse">
<stop stop-color="#1A1A1A"/>
<stop offset="1" stop-color="#0F9D87"/>
</linearGradient>
<linearGradient id="paint152_linear_860_931" x1="280.808" y1="152.843" x2="281" y2="119.457" gradientUnits="userSpaceOnUse">
<stop offset="0.17" stop-color="#0F9D87"/>
<stop offset="1" stop-color="#1A1A1A"/>
</linearGradient>
<linearGradient id="paint153_linear_860_931" x1="285.073" y1="180.113" x2="285.073" y2="105.457" gradientUnits="userSpaceOnUse">
<stop stop-color="#1A1A1A"/>
<stop offset="1" stop-color="#0F9D87"/>
</linearGradient>
<linearGradient id="paint154_linear_860_931" x1="288.191" y1="179.838" x2="288.191" y2="55.6614" gradientUnits="userSpaceOnUse">
<stop/>
<stop offset="0.4841" stop-color="#9893EB"/>
<stop offset="1" stop-color="#E8F1FF"/>
</linearGradient>
<linearGradient id="paint155_linear_860_931" x1="288.276" y1="175.329" x2="288.276" y2="75.709" gradientUnits="userSpaceOnUse">
<stop stop-color="#0F9D87"/>
<stop offset="1" stop-color="#1A1A1A"/>
</linearGradient>
<linearGradient id="paint156_linear_860_931" x1="219.354" y1="118.423" x2="282.781" y2="157.487" gradientUnits="userSpaceOnUse">
<stop stop-color="white"/>
<stop offset="1" stop-color="white" stop-opacity="0"/>
</linearGradient>
<linearGradient id="paint157_linear_860_931" x1="235.411" y1="92.3508" x2="298.839" y2="131.415" gradientUnits="userSpaceOnUse">
<stop stop-color="white"/>
<stop offset="1" stop-color="white" stop-opacity="0"/>
</linearGradient>
<linearGradient id="paint158_linear_860_931" x1="225.747" y1="108.042" x2="289.175" y2="147.106" gradientUnits="userSpaceOnUse">
<stop stop-color="white"/>
<stop offset="1" stop-color="white" stop-opacity="0"/>
</linearGradient>
<linearGradient id="paint159_linear_860_931" x1="218.263" y1="152.843" x2="218.263" y2="105.457" gradientUnits="userSpaceOnUse">
<stop offset="0.17" stop-color="#0F9D87"/>
<stop offset="1" stop-color="#1A1A1A"/>
</linearGradient>
<linearGradient id="paint160_linear_860_931" x1="213.97" y1="161.201" x2="213.97" y2="41.0939" gradientUnits="userSpaceOnUse">
<stop stop-color="#1A1A1A"/>
<stop offset="0.45" stop-color="#0F9D87"/>
</linearGradient>
<linearGradient id="paint161_linear_860_931" x1="210.851" y1="175.329" x2="210.851" y2="75.709" gradientUnits="userSpaceOnUse">
<stop stop-color="#0F9D87"/>
<stop offset="1" stop-color="#1A1A1A"/>
</linearGradient>
<linearGradient id="paint162_linear_860_931" x1="173.177" y1="101.338" x2="228.186" y2="131.687" gradientUnits="userSpaceOnUse">
<stop stop-color="white"/>
<stop offset="1" stop-color="white" stop-opacity="0"/>
</linearGradient>
<linearGradient id="paint163_linear_860_931" x1="164.895" y1="116.351" x2="219.904" y2="146.7" gradientUnits="userSpaceOnUse">
<stop stop-color="white"/>
<stop offset="1" stop-color="white" stop-opacity="0"/>
</linearGradient>
<linearGradient id="paint164_linear_860_931" x1="157.366" y1="129.996" x2="212.375" y2="160.345" gradientUnits="userSpaceOnUse">
<stop stop-color="white"/>
<stop offset="1" stop-color="white" stop-opacity="0"/>
</linearGradient>
<linearGradient id="paint165_linear_860_931" x1="249.521" y1="89.4647" x2="249.521" y2="55.5329" gradientUnits="userSpaceOnUse">
<stop stop-color="#46226B"/>
<stop offset="0.4841" stop-color="#9893EB"/>
<stop offset="1" stop-color="#E8F1FF"/>
</linearGradient>
<linearGradient id="paint166_linear_860_931" x1="249.476" y1="92.4569" x2="249.476" y2="53.4569" gradientUnits="userSpaceOnUse">
<stop offset="0.17" stop-color="#0F9D87"/>
<stop offset="1" stop-color="#1A1A1A"/>
</linearGradient>
<linearGradient id="paint167_linear_860_931" x1="249.571" y1="174.567" x2="249.571" y2="56.0231" gradientUnits="userSpaceOnUse">
<stop stop-color="#0F9D87"/>
<stop offset="1" stop-color="#1A1A1A"/>
</linearGradient>
<linearGradient id="paint168_linear_860_931" x1="193.537" y1="112.721" x2="257.867" y2="153.889" gradientUnits="userSpaceOnUse">
<stop stop-color="white"/>
<stop offset="1" stop-color="white" stop-opacity="0"/>
</linearGradient>
<linearGradient id="paint169_linear_860_931" x1="211.033" y1="85.3802" x2="275.363" y2="126.548" gradientUnits="userSpaceOnUse">
<stop stop-color="white"/>
<stop offset="1" stop-color="white" stop-opacity="0"/>
</linearGradient>
<linearGradient id="paint170_linear_860_931" x1="203.608" y1="96.9832" x2="267.938" y2="138.151" gradientUnits="userSpaceOnUse">
<stop stop-color="white"/>
<stop offset="1" stop-color="white" stop-opacity="0"/>
</linearGradient>
<linearGradient id="paint171_linear_860_931" x1="247.435" y1="469.331" x2="247.435" y2="478.229" gradientUnits="userSpaceOnUse">
<stop stop-color="#0F9D87"/>
<stop offset="1" stop-color="#1A1A1A"/>
</linearGradient>
<linearGradient id="paint172_linear_860_931" x1="249.5" y1="468.419" x2="249.5" y2="476.457" gradientUnits="userSpaceOnUse">
<stop stop-color="#0F9D87"/>
<stop offset="1" stop-color="#1A1A1A"/>
</linearGradient>
</defs>
</svg>
