<svg width="100" height="74" viewBox="0 0 100 74" fill="none" xmlns="http://www.w3.org/2000/svg">
<path opacity="0.4" d="M40.2018 37.5035C40.4595 37.5035 40.6683 37.2954 40.6683 37.0386C40.6683 36.7818 40.4595 36.5737 40.2018 36.5737C39.9442 36.5737 39.7354 36.7818 39.7354 37.0386C39.7354 37.2954 39.9442 37.5035 40.2018 37.5035Z" fill="#1A1A1A"/>
<path opacity="0.4" d="M45.5365 32.0697C46.5509 32.0697 47.3733 31.2501 47.3733 30.2391C47.3733 29.2281 46.5509 28.4084 45.5365 28.4084C44.5221 28.4084 43.6997 29.2281 43.6997 30.2391C43.6997 31.2501 44.5221 32.0697 45.5365 32.0697Z" fill="#1A1A1A"/>
<path opacity="0.8" d="M45.5378 30.9946C45.9565 30.9946 46.2959 30.6563 46.2959 30.2391C46.2959 29.8218 45.9565 29.4836 45.5378 29.4836C45.1192 29.4836 44.7798 29.8218 44.7798 30.2391C44.7798 30.6563 45.1192 30.9946 45.5378 30.9946Z" fill="#1A1A1A"/>
<path opacity="0.4" d="M69.8233 54.357C70.4835 54.357 71.0187 53.8236 71.0187 53.1656C71.0187 52.5076 70.4835 51.9742 69.8233 51.9742C69.1631 51.9742 68.6279 52.5076 68.6279 53.1656C68.6279 53.8236 69.1631 54.357 69.8233 54.357Z" fill="#0F9D87"/>
<path opacity="0.8" d="M69.8233 53.7468C70.1454 53.7468 70.4064 53.4866 70.4064 53.1656C70.4064 52.8447 70.1454 52.5845 69.8233 52.5845C69.5013 52.5845 69.2402 52.8447 69.2402 53.1656C69.2402 53.4866 69.5013 53.7468 69.8233 53.7468Z" fill="#0F9D87"/>
<path opacity="0.4" d="M38.3358 28.4956C38.8511 28.4956 39.2688 28.0793 39.2688 27.5658C39.2688 27.0522 38.8511 26.6359 38.3358 26.6359C37.8205 26.6359 37.4028 27.0522 37.4028 27.5658C37.4028 28.0793 37.8205 28.4956 38.3358 28.4956Z" fill="#0F9D87"/>
<path opacity="0.8" d="M38.3361 28.0307C38.5937 28.0307 38.8026 27.8226 38.8026 27.5658C38.8026 27.309 38.5937 27.1009 38.3361 27.1009C38.0785 27.1009 37.8696 27.309 37.8696 27.5658C37.8696 27.8226 38.0785 28.0307 38.3361 28.0307Z" fill="#0F9D87"/>
<path opacity="0.4" d="M69.5909 37.6183C69.7519 37.6183 69.8824 37.4885 69.8824 37.3285C69.8824 37.1684 69.7519 37.0386 69.5909 37.0386C69.4298 37.0386 69.2993 37.1684 69.2993 37.3285C69.2993 37.4885 69.4298 37.6183 69.5909 37.6183Z" fill="#0F9D87"/>
<path d="M48.5464 48.3765C47.8813 48.3765 47.2496 48.244 46.7508 47.9457L34.6139 40.9531C34.1151 40.6549 33.8491 40.2572 33.8491 39.8595C33.8491 39.4287 34.1151 39.031 34.6139 38.7659L46.6843 31.7732C47.6818 31.2099 49.3112 31.2099 50.3087 31.7732L62.4456 38.7659C62.9443 39.0641 63.2104 39.4618 63.2104 39.8595C63.2104 40.2903 62.9443 40.688 62.4456 40.9531L50.3752 47.9457C49.8764 48.2108 49.2114 48.3765 48.5464 48.3765ZM48.4799 31.5413C47.8813 31.5413 47.2495 31.6738 46.784 31.9389L34.7469 38.9316C34.3146 39.1635 34.0819 39.4949 34.0819 39.8263C34.0819 40.1577 34.3146 40.4892 34.7469 40.7211L46.8838 47.7137C47.8148 48.244 49.3444 48.244 50.2755 47.7137L62.3458 40.7211C62.7781 40.4892 63.0109 40.1577 63.0109 39.8263C63.0109 39.4949 62.7781 39.1635 62.3458 38.9316L50.209 31.9389C49.7102 31.6738 49.1116 31.5413 48.4799 31.5413Z" fill="#0F9D87"/>
<path d="M63.1441 36.0153V30.2157L55.7955 31.1768L50.309 27.9953C49.3447 27.4319 47.7818 27.4319 46.8175 27.9953L45.953 28.5255L34.0156 30.1163V35.9821V36.0153C34.0156 36.3798 34.2816 36.7112 34.7472 36.9763L46.884 43.9689C47.8483 44.5323 49.4112 44.5323 50.3755 43.9689L62.4458 36.9763C62.9113 36.7112 63.1441 36.3467 63.1774 36.0153H63.1441Z" fill="url(#paint0_linear_678_1680)"/>
<path d="M62.4463 29.1883L50.3094 22.1957C49.3451 21.6323 47.7823 21.6323 46.818 22.1957L34.7476 29.1883C33.7833 29.7517 33.7833 30.6465 34.7476 31.2099L46.8845 38.2025C47.8488 38.7659 49.4116 38.7659 50.3759 38.2025L62.4463 31.2099C63.4106 30.6465 63.4106 29.7186 62.4463 29.1883Z" fill="url(#paint1_linear_678_1680)"/>
<path d="M62.4462 30.8454L50.3759 37.838C49.4116 38.4013 47.8488 38.4013 46.8845 37.838L34.7476 30.8454C34.3486 30.6134 34.1158 30.3151 34.0493 30.0168C33.9495 30.4477 34.1823 30.8785 34.7476 31.2099L46.8845 38.2025C47.8488 38.7659 49.4116 38.7659 50.3759 38.2025L62.4462 31.2099C63.0115 30.8785 63.2443 30.4477 63.1445 30.0168C63.078 30.3151 62.8453 30.6134 62.4462 30.8454Z" fill="white"/>
<path d="M52.0053 39.727L51.4067 40.0584V39.3956L52.0053 39.0641V39.727Z" fill="white"/>
<path d="M53.201 39.031L52.6357 39.3624V38.6996L53.201 38.3682V39.031Z" fill="white"/>
<path d="M54.3988 38.335L53.8335 38.6665V38.0036L54.3988 37.6722V38.335Z" fill="white"/>
<path d="M53.4012 40.2572L52.8359 40.5886V39.9258L53.4012 39.5944V40.2572Z" fill="white"/>
<path d="M54.4642 39.6275L53.8989 39.9589V39.2961L54.4642 38.9647V39.6275Z" fill="white"/>
<path d="M58.2562 36.1146L57.6909 36.446V35.7832L58.2562 35.4518V36.1146Z" fill="white"/>
<path d="M61.5487 34.2257L60.9834 34.5571V33.8943L61.5487 33.5629V34.2257Z" fill="white"/>
<path d="M55.596 37.6391L55.0308 37.9705V37.3077L55.596 36.9763V37.6391Z" fill="white"/>
<path opacity="0.4" d="M47.8817 35.2198L39.735 30.547C39.4025 30.3482 39.4358 30.0168 39.8348 29.818L47.8152 25.2446C48.2142 25.0126 48.7795 25.0126 49.112 25.1783L57.2587 29.8842C57.5912 30.0831 57.5579 30.4145 57.1589 30.6133L49.1785 35.1867C48.8127 35.3855 48.2142 35.4187 47.8817 35.2198Z" fill="black"/>
<path d="M44.689 40.3235L37.9389 36.446C37.7727 36.3466 37.6396 36.1146 37.6396 35.8827V35.3855C37.6396 35.1867 37.7727 35.0873 37.9389 35.1536L44.689 39.031C44.8553 39.1304 44.9883 39.3624 44.9883 39.5944V40.0915C44.9883 40.3235 44.8553 40.4229 44.689 40.3235Z" fill="white"/>
<path d="M63.1441 25.1451V19.3456L55.7955 20.3066L50.309 17.1252C49.3447 16.5618 47.7818 16.5618 46.8175 17.1252L45.953 17.6554L34.0156 19.2462V25.112V25.1451C34.0156 25.5097 34.2816 25.8411 34.7472 26.1062L46.884 33.0988C47.8483 33.6622 49.4112 33.6622 50.3755 33.0988L62.4458 26.1062C62.9113 25.8411 63.1441 25.4765 63.1774 25.1451H63.1441Z" fill="url(#paint2_linear_678_1680)"/>
<path d="M62.4463 18.2851L50.3094 11.2925C49.3451 10.7291 47.7823 10.7291 46.818 11.2925L34.7476 18.3183C33.7833 18.8817 33.7833 19.7765 34.7476 20.3398L46.8845 27.3324C47.8488 27.8958 49.4116 27.8958 50.3759 27.3324L62.4463 20.3398C63.4106 19.7433 63.4106 18.8485 62.4463 18.2851Z" fill="url(#paint3_radial_678_1680)"/>
<path opacity="0.4" d="M56.6609 18.716L49.5783 14.6397C49.013 14.3083 48.1152 14.3083 47.5499 14.6397L40.5338 18.716C39.9685 19.0474 39.9685 19.5776 40.5338 19.8759L47.6164 23.9522C48.1817 24.2836 49.0795 24.2836 49.6448 23.9522L56.6609 19.909C57.2262 19.5776 57.2262 19.0474 56.6609 18.716Z" fill="black"/>
<path d="M62.4462 19.9752L50.3759 26.9678C49.4116 27.5312 47.8488 27.5312 46.8845 26.9678L34.7476 19.9752C34.3486 19.7433 34.1158 19.445 34.0493 19.1467C33.9495 19.5776 34.1823 20.0084 34.7476 20.3398L46.8845 27.3324C47.8488 27.8958 49.4116 27.8958 50.3759 27.3324L62.4462 20.3398C63.0115 20.0084 63.2443 19.5776 63.1445 19.1467C63.078 19.445 62.8453 19.7433 62.4462 19.9752Z" fill="white"/>
<path d="M52.0053 28.8568L51.4067 29.1882V28.5254L52.0053 28.194V28.8568Z" fill="white"/>
<path d="M53.201 28.1609L52.6357 28.4923V27.8295L53.201 27.498V28.1609Z" fill="white"/>
<path d="M54.3988 27.4649L53.8335 27.7963V27.1335L54.3988 26.8021V27.4649Z" fill="white"/>
<path d="M53.4012 29.3871L52.8359 29.7185V29.0557L53.4012 28.7243V29.3871Z" fill="white"/>
<path d="M54.4642 28.7574L53.8989 29.0888V28.426L54.4642 28.0946V28.7574Z" fill="white"/>
<path d="M58.2562 25.2445L57.6909 25.5759V24.9131L58.2562 24.5817V25.2445Z" fill="white"/>
<path d="M61.5487 23.3555L60.9834 23.6869V23.0241L61.5487 22.6927V23.3555Z" fill="white"/>
<path d="M55.596 26.769L55.0308 27.1004V26.4376L55.596 26.1062V26.769Z" fill="white"/>
<path d="M63.1441 14.2751V8.47558L55.7955 9.43665L50.309 6.25518C49.3447 5.6918 47.7818 5.6918 46.8175 6.25518L45.953 6.78543L34.0156 8.37616V14.2751V14.3083C34.0156 14.6728 34.2816 15.0042 34.7472 15.2693L46.884 22.2619C47.8483 22.8253 49.4112 22.8253 50.3755 22.2619L62.4458 15.2693C62.9113 15.0042 63.1441 14.6397 63.1774 14.3083V14.2751H63.1441Z" fill="url(#paint4_linear_678_1680)"/>
<path d="M62.4463 7.41508L50.3094 0.422478C49.3451 -0.140907 47.7823 -0.140907 46.818 0.422478L34.7476 7.44822C33.7833 8.01161 33.7833 8.9064 34.7476 9.46978L46.8845 16.4624C47.8488 17.0258 49.4116 17.0258 50.3759 16.4624L62.4463 9.46978C63.4106 8.87326 63.4106 7.97847 62.4463 7.41508Z" fill="url(#paint5_radial_678_1680)"/>
<path d="M62.4462 9.0721L50.3759 16.0647C49.4116 16.6281 47.8488 16.6281 46.8845 16.0647L34.7476 9.10524C34.3486 8.87326 34.1158 8.575 34.0493 8.27673C33.9495 8.70756 34.1823 9.13838 34.7476 9.46978L46.8845 16.4624C47.8488 17.0258 49.4116 17.0258 50.3759 16.4624L62.4462 9.46978C63.0115 9.13838 63.2443 8.70756 63.1445 8.27673C63.078 8.575 62.8453 8.84012 62.4462 9.0721Z" fill="white"/>
<path d="M52.0053 17.9868L51.4067 18.3182V17.6554L52.0053 17.324V17.9868Z" fill="white"/>
<path d="M53.201 17.2909L52.6357 17.6223V16.9595L53.201 16.6281V17.2909Z" fill="white"/>
<path d="M54.3988 16.5949L53.8335 16.9263V16.2635L54.3988 15.9321V16.5949Z" fill="white"/>
<path d="M53.4012 18.484L52.8359 18.8154V18.1857L53.4012 17.8543V18.484Z" fill="white"/>
<path d="M54.4642 17.8875L53.8989 18.2189V17.5561L54.4642 17.2247V17.8875Z" fill="white"/>
<path d="M58.2562 14.3746L57.6909 14.706V14.0432L58.2562 13.7118V14.3746Z" fill="white"/>
<path d="M61.5487 12.4856L60.9834 12.817V12.1542L61.5487 11.8228V12.4856Z" fill="white"/>
<path d="M55.596 15.899L55.0308 16.2304V15.5676L55.596 15.2362V15.899Z" fill="white"/>
<path d="M27.0996 60.7379C26.4346 60.7379 25.8028 60.6053 25.304 60.307L13.1671 53.3144C12.6684 53.0162 12.4023 52.6185 12.4023 52.2208C12.4023 51.79 12.6684 51.3923 13.1671 51.1272L25.2375 44.1346C26.235 43.5712 27.8644 43.5712 28.8619 44.1346L40.9988 51.1272C41.4976 51.4254 41.7636 51.8231 41.7636 52.2208C41.7636 52.6516 41.4976 53.0493 40.9988 53.3144L28.9284 60.307C28.3964 60.6053 27.7646 60.7379 27.0996 60.7379ZM27.0331 43.9026C26.4346 43.9026 25.8028 44.0352 25.3372 44.3003L13.2669 51.2929C12.8346 51.5249 12.6019 51.8563 12.6019 52.1877C12.6019 52.5191 12.8346 52.8505 13.2669 53.0825L25.4038 60.0751C26.3348 60.6053 27.8644 60.6053 28.7954 60.0751L40.8658 53.0825C41.2981 52.8505 41.5308 52.5191 41.5308 52.1877C41.5308 51.8563 41.2981 51.5249 40.8658 51.2929L28.7289 44.3003C28.2634 44.0683 27.6649 43.9026 27.0331 43.9026Z" fill="#0F9D87"/>
<path d="M41.6973 48.4097V42.6101L34.3487 43.5712L28.8622 40.3897C27.8979 39.8263 26.335 39.8263 25.3707 40.3897L24.5062 40.9199L12.5688 42.5107V48.4097V48.4428C12.5688 48.8073 12.8349 49.1387 13.3004 49.4039L25.4373 56.3965C26.4015 56.9599 27.9644 56.9599 28.9287 56.3965L40.999 49.4039C41.4646 49.1387 41.6973 48.7742 41.7306 48.4428V48.4097H41.6973Z" fill="url(#paint6_linear_678_1680)"/>
<path d="M40.9653 41.5497L28.8285 34.5571C27.8642 33.9937 26.3013 33.9937 25.337 34.5571L13.2667 41.5497C12.3024 42.1131 12.3024 43.0078 13.2667 43.5712L25.4035 50.5638C26.3678 51.1272 27.9307 51.1272 28.895 50.5638L40.9653 43.5712C41.9296 43.0078 41.9296 42.1131 40.9653 41.5497Z" fill="url(#paint7_radial_678_1680)"/>
<path d="M40.9648 43.2066L28.8944 50.1992C27.9301 50.7626 26.3673 50.7626 25.403 50.1992L13.2661 43.2066C12.8671 42.9746 12.6344 42.6764 12.5679 42.3781C12.4681 42.8089 12.7009 43.2398 13.2661 43.5712L25.403 50.5638C26.3673 51.1272 27.9301 51.1272 28.8944 50.5638L40.9648 43.5712C41.5301 43.2398 41.7628 42.8089 41.6631 42.3781C41.5966 42.6764 41.3638 42.9746 40.9648 43.2066Z" fill="white"/>
<path d="M30.5248 52.0883L29.9595 52.4197V51.7569L30.5248 51.4255V52.0883Z" fill="white"/>
<path d="M31.7543 51.3924L31.1558 51.7238V51.061L31.7543 50.7627V51.3924Z" fill="white"/>
<path d="M32.9511 50.7296L32.3525 51.061V50.3982L32.9511 50.0668V50.7296Z" fill="white"/>
<path d="M31.9539 52.6185L31.3887 52.9499V52.2871L31.9539 51.9557V52.6185Z" fill="white"/>
<path d="M33.0174 52.022L32.4521 52.3534V51.6906L33.0174 51.3592V52.022Z" fill="white"/>
<path d="M36.8085 48.5091L36.21 48.8405V48.1777L36.8085 47.8463V48.5091Z" fill="white"/>
<path d="M40.1014 46.587L39.5361 46.9184V46.2556L40.1014 45.9242V46.587Z" fill="white"/>
<path d="M34.1488 50.0336L33.5835 50.365V49.7022L34.1488 49.3708V50.0336Z" fill="white"/>
<path opacity="0.4" d="M26.4339 47.6143L18.2873 42.9084C17.9547 42.7095 17.988 42.3781 18.387 42.1793L26.3674 37.6059C26.7664 37.3739 27.3317 37.3739 27.6642 37.5396L35.8109 42.2456C36.1434 42.4444 36.1102 42.7758 35.7111 42.9747L27.7307 47.548C27.365 47.78 26.7664 47.78 26.4339 47.6143Z" fill="black"/>
<path d="M23.2417 52.6848L16.4916 48.8074C16.3254 48.708 16.1924 48.476 16.1924 48.244V47.7469C16.1924 47.5481 16.3254 47.4487 16.4916 47.515L23.2417 51.3924C23.408 51.4918 23.541 51.7238 23.541 51.9558V52.4529C23.5078 52.6848 23.3747 52.7843 23.2417 52.6848Z" fill="white"/>
<path d="M41.6973 37.5065V31.707L34.3487 32.668L28.8622 29.4866C27.8979 28.9232 26.335 28.9232 25.3707 29.4866L24.5062 30.0168L12.5688 31.6075V37.4734V37.5065C12.5688 37.8711 12.8349 38.2025 13.3004 38.4676L25.4373 45.4602C26.4015 46.0236 27.9644 46.0236 28.9287 45.4602L40.999 38.4676C41.4646 38.2025 41.6973 37.8379 41.7306 37.5065H41.6973Z" fill="url(#paint8_linear_678_1680)"/>
<path d="M40.9653 30.6797L28.8285 23.6871C27.8642 23.1237 26.3013 23.1237 25.337 23.6871L13.2667 30.6797C12.3024 31.2431 12.3024 32.1378 13.2667 32.7012L25.4035 39.6938C26.3678 40.2572 27.9307 40.2572 28.895 39.6938L40.9653 32.7012C41.9296 32.1378 41.9296 31.2431 40.9653 30.6797Z" fill="url(#paint9_radial_678_1680)"/>
<path opacity="0.4" d="M35.1799 31.1105L28.0973 27.0343C27.532 26.7029 26.6343 26.7029 26.069 27.0343L19.0529 31.1105C18.4876 31.4419 18.4876 31.9722 19.0529 32.2704L26.1355 36.3467C26.7008 36.6781 27.5985 36.6781 28.1638 36.3467L35.1799 32.2704C35.7452 31.939 35.7452 31.4088 35.1799 31.1105Z" fill="black"/>
<path d="M40.9648 32.3367L28.8944 39.3293C27.9301 39.8927 26.3673 39.8927 25.403 39.3293L13.2661 32.3367C12.8671 32.1047 12.6344 31.8064 12.5679 31.5082C12.4681 31.939 12.7009 32.3698 13.2661 32.7012L25.403 39.6938C26.3673 40.2572 27.9301 40.2572 28.8944 39.6938L40.9648 32.7012C41.5301 32.3698 41.7628 31.939 41.6631 31.5082C41.5966 31.8064 41.3638 32.1047 40.9648 32.3367Z" fill="white"/>
<path d="M30.5248 41.2183L29.9595 41.5497V40.8869L30.5248 40.5555V41.2183Z" fill="white"/>
<path d="M31.7543 40.5224L31.1558 40.8538V40.191L31.7543 39.8596V40.5224Z" fill="white"/>
<path d="M32.9511 39.8264L32.3525 40.1578V39.5282L32.9511 39.1968V39.8264Z" fill="white"/>
<path d="M31.9539 41.7486L31.3887 42.08V41.4172L31.9539 41.0858V41.7486Z" fill="white"/>
<path d="M33.0174 41.1521L32.4521 41.4835V40.8207L33.0174 40.4893V41.1521Z" fill="white"/>
<path d="M36.8085 37.6391L36.21 37.9705V37.3077L36.8085 36.9763V37.6391Z" fill="white"/>
<path d="M40.1014 35.717L39.5361 36.0484V35.3856L40.1014 35.0542V35.717Z" fill="white"/>
<path d="M34.1488 39.1636L33.5835 39.495V38.8322L34.1488 38.5008V39.1636Z" fill="white"/>
<path d="M41.6973 26.6365V20.837L34.3487 21.798L28.8622 18.6166C27.8979 18.0532 26.335 18.0532 25.3707 18.6166L24.5062 19.1468L12.5688 20.7376V26.6034V26.6365C12.5688 27.0011 12.8349 27.3325 13.3004 27.5976L25.4373 34.5902C26.4015 35.1536 27.9644 35.1536 28.9287 34.5902L40.999 27.5976C41.4646 27.3325 41.6973 26.9679 41.7306 26.6365H41.6973Z" fill="url(#paint10_linear_678_1680)"/>
<path d="M40.9653 19.8096L28.8285 12.8169C27.8642 12.2536 26.3013 12.2536 25.337 12.8169L13.2667 19.8096C12.3024 20.3729 12.3024 21.2677 13.2667 21.8311L25.4035 28.8237C26.3678 29.3871 27.9307 29.3871 28.895 28.8237L40.9653 21.8311C41.9296 21.2677 41.9296 20.3398 40.9653 19.8096Z" fill="url(#paint11_radial_678_1680)"/>
<path d="M40.9653 19.8096L28.8285 12.8169C27.8642 12.2536 26.3013 12.2536 25.337 12.8169L13.2667 19.8096C12.3024 20.3729 12.3024 21.2677 13.2667 21.8311L25.4035 28.8237C26.3678 29.3871 27.9307 29.3871 28.895 28.8237L40.9653 21.8311C41.9296 21.2677 41.9296 20.3398 40.9653 19.8096Z" fill="#0F9D87"/>
<path d="M27.1316 26.5371C26.6993 26.5371 26.2338 26.4377 25.9013 26.2388L17.8543 21.5992C17.4886 21.4004 17.2891 21.1021 17.2891 20.8038C17.2891 20.5056 17.4886 20.2073 17.8543 20.0085L25.8347 15.3688C26.533 14.9711 27.6303 14.9711 28.2954 15.3688L36.3423 20.0085C36.7081 20.2073 36.9076 20.5056 36.9076 20.8038C36.9076 21.1021 36.7081 21.4004 36.3423 21.5992L28.3619 26.2388C28.0294 26.4377 27.5971 26.5371 27.1316 26.5371ZM27.0983 15.402C26.6993 15.402 26.3003 15.5014 26.0343 15.6671L18.0539 20.3067C17.7878 20.4393 17.6548 20.6381 17.6548 20.837C17.6548 21.0358 17.7878 21.2347 18.0539 21.3672L26.1008 26.0069C26.6993 26.3383 27.6636 26.3383 28.2621 26.0069L36.2425 21.3672C36.5085 21.2347 36.6415 21.0358 36.6415 20.837C36.6415 20.6381 36.5085 20.4393 36.2425 20.3067L28.1956 15.6671C27.8964 15.4682 27.4973 15.402 27.0983 15.402Z" fill="#1A1A1A"/>
<path d="M40.9648 21.4666L28.8944 28.4592C27.9301 29.0226 26.3673 29.0226 25.403 28.4592L13.2661 21.4666C12.8671 21.2346 12.6344 20.9364 12.5679 20.6381C12.4681 21.0689 12.7009 21.4998 13.2661 21.8312L25.403 28.8238C26.3673 29.3872 27.9301 29.3872 28.8944 28.8238L40.9648 21.8312C41.5301 21.4998 41.7628 21.0689 41.6631 20.6381C41.5966 20.9364 41.3638 21.2346 40.9648 21.4666Z" fill="white"/>
<path d="M30.5248 30.3482L29.9595 30.6796V30.0168L30.5248 29.6854V30.3482Z" fill="white"/>
<path d="M31.7543 29.6522L31.1558 29.9837V29.3208L31.7543 28.9894V29.6522Z" fill="white"/>
<path d="M32.9516 28.9563L32.353 29.2877V28.6249L32.9516 28.2935V28.9563Z" fill="white"/>
<path d="M31.9539 30.8785L31.3887 31.2099V30.5471L31.9539 30.2157V30.8785Z" fill="white"/>
<path d="M33.0174 30.2488L32.4521 30.5802V29.9174L33.0174 29.6191V30.2488Z" fill="white"/>
<path d="M36.8085 26.7359L36.21 27.0673V26.4045L36.8085 26.1063V26.7359Z" fill="white"/>
<path d="M40.1014 24.8469L39.5361 25.1784V24.5155L40.1014 24.1841V24.8469Z" fill="white"/>
<path d="M34.1493 28.2604L33.584 28.5918V27.9621L34.1493 27.6307V28.2604Z" fill="white"/>
<path d="M69.9277 60.7047C69.2627 60.7047 68.6309 60.5721 68.1321 60.2738L55.9953 53.2812C55.4965 52.983 55.2305 52.5853 55.2305 52.1876C55.2305 51.7568 55.4965 51.3591 55.9953 51.094L68.0656 44.1014C69.0632 43.538 70.6925 43.538 71.6901 44.1014L83.8269 51.094C84.3257 51.3922 84.5917 51.7899 84.5917 52.1876C84.5917 52.6184 84.3257 53.0161 83.8269 53.2812L71.7566 60.2738C71.2578 60.5721 70.5927 60.7047 69.9277 60.7047ZM69.8612 43.9025C69.2627 43.9025 68.6309 44.0351 68.1654 44.3002L56.095 51.2928C55.6627 51.5248 55.43 51.8562 55.43 52.1876C55.43 52.519 55.6627 52.8504 56.095 53.0824L68.2319 60.075C69.1629 60.6052 70.6925 60.6052 71.6235 60.075L83.6939 53.0824C84.1262 52.8504 84.3589 52.519 84.3589 52.1876C84.3589 51.8562 84.1262 51.5248 83.6939 51.2928L71.557 44.3002C71.0915 44.0351 70.493 43.9025 69.8612 43.9025Z" fill="#0F9D87"/>
<path d="M84.5245 48.3765V42.5769L77.1758 43.538L71.6893 40.3565C70.725 39.7931 69.1622 39.7931 68.1979 40.3565L67.3333 40.8867L55.396 42.4775V48.3433V48.3765C55.396 48.741 55.662 49.0724 56.1275 49.3375L68.2644 56.3301C69.2287 56.8935 70.7915 56.8935 71.7558 56.3301L83.8262 49.3375C84.2917 49.0724 84.5245 48.7079 84.5577 48.3765H84.5245Z" fill="url(#paint12_linear_678_1680)"/>
<path d="M83.7925 41.5496L71.6556 34.557C70.6913 33.9936 69.1285 33.9936 68.1642 34.557L56.0938 41.5496C55.1295 42.113 55.1295 43.0078 56.0938 43.5712L68.2307 50.5638C69.195 51.1272 70.7578 51.1272 71.7221 50.5638L83.7925 43.5712C84.7568 43.0078 84.7568 42.0799 83.7925 41.5496Z" fill="url(#paint13_radial_678_1680)"/>
<path d="M83.7929 43.2066L71.7226 50.1992C70.7583 50.7626 69.1954 50.7626 68.2311 50.1992L56.0943 43.2066C55.6952 42.9746 55.4625 42.6764 55.396 42.3781C55.2962 42.8089 55.529 43.2398 56.0943 43.5712L68.2311 50.5638C69.1954 51.1272 70.7583 51.1272 71.7226 50.5638L83.7929 43.5712C84.3582 43.2398 84.591 42.8089 84.4912 42.3781C84.458 42.6764 84.2252 42.9746 83.7929 43.2066Z" fill="white"/>
<path d="M73.3852 52.0883L72.7866 52.4197V51.7569L73.3852 51.4255V52.0883Z" fill="white"/>
<path d="M74.5829 51.3923L73.9844 51.7237V51.0609L74.5829 50.7295V51.3923Z" fill="white"/>
<path d="M75.7796 50.6963L75.2144 51.0277V50.3649L75.7796 50.0335V50.6963Z" fill="white"/>
<path d="M74.7821 52.6184L74.2168 52.9498V52.287L74.7821 51.9556V52.6184Z" fill="white"/>
<path d="M75.846 51.9887L75.2808 52.3201V51.6573L75.846 51.3259V51.9887Z" fill="white"/>
<path d="M79.6366 48.4759L79.0381 48.8073V48.1445L79.6366 47.8131V48.4759Z" fill="white"/>
<path d="M82.9281 46.5869L82.3628 46.9183V46.2555L82.9281 45.9241V46.5869Z" fill="white"/>
<path d="M76.9764 50.0004L76.4111 50.3318V49.669L76.9764 49.3376V50.0004Z" fill="white"/>
<path opacity="0.4" d="M69.2616 47.5812L61.1149 42.8752C60.7824 42.6764 60.8156 42.345 61.2147 42.1461L69.1951 37.5728C69.5941 37.3408 70.1594 37.3408 70.4919 37.5065L78.6385 42.2124C78.9711 42.4113 78.9378 42.7427 78.5388 42.9415L70.5584 47.5149C70.1926 47.7469 69.5941 47.78 69.2616 47.5812Z" fill="black"/>
<path d="M66.0704 52.6848L59.3203 48.8074C59.154 48.7079 59.021 48.476 59.021 48.244V47.7469C59.021 47.548 59.154 47.4486 59.3203 47.5149L66.0704 51.3923C66.2366 51.4917 66.3696 51.7237 66.3696 51.9557V52.4528C66.3696 52.6848 66.2366 52.7511 66.0704 52.6848Z" fill="white"/>
<path d="M84.5245 37.5065V31.7069L77.1758 32.668L71.6893 29.4865C70.725 28.9231 69.1622 28.9231 68.1979 29.4865L67.3333 30.0167L55.396 31.6075V37.4733V37.5065C55.396 37.871 55.662 38.2024 56.1275 38.4675L68.2644 45.4601C69.2287 46.0235 70.7915 46.0235 71.7558 45.4601L83.8262 38.4675C84.2917 38.2024 84.5245 37.8379 84.5577 37.5065H84.5245Z" fill="url(#paint14_linear_678_1680)"/>
<path d="M83.7925 30.6465L71.6556 23.6539C70.6913 23.0905 69.1285 23.0905 68.1642 23.6539L56.0938 30.6465C55.1295 31.2099 55.1295 32.1046 56.0938 32.668L68.2307 39.6606C69.195 40.224 70.7578 40.224 71.7221 39.6606L83.7925 32.668C84.7568 32.1046 84.7568 31.2099 83.7925 30.6465Z" fill="url(#paint15_radial_678_1680)"/>
<path opacity="0.4" d="M78.0408 31.0773L70.9582 27.0011C70.3929 26.6697 69.4951 26.6697 68.9298 27.0011L61.9137 31.0773C61.3484 31.4087 61.3484 31.939 61.9137 32.2372L68.9963 36.3135C69.5616 36.6449 70.4594 36.6449 71.0247 36.3135L78.0408 32.2372C78.6061 31.939 78.6061 31.4087 78.0408 31.0773Z" fill="black"/>
<path d="M83.7929 32.3366L71.7226 39.3292C70.7583 39.8926 69.1954 39.8926 68.2311 39.3292L56.0943 32.3366C55.6952 32.1046 55.4625 31.8064 55.396 31.5081C55.2962 31.9389 55.529 32.3698 56.0943 32.7012L68.2311 39.6938C69.1954 40.2572 70.7583 40.2572 71.7226 39.6938L83.7929 32.7012C84.3582 32.3698 84.591 31.9389 84.4912 31.5081C84.458 31.8064 84.2252 32.1046 83.7929 32.3366Z" fill="white"/>
<path d="M73.3852 41.2183L72.7866 41.5497V40.8869L73.3852 40.5555V41.2183Z" fill="white"/>
<path d="M74.5829 40.5223L73.9844 40.8537V40.1909L74.5829 39.8595V40.5223Z" fill="white"/>
<path d="M75.7796 39.8264L75.2144 40.1578V39.495L75.7796 39.1636V39.8264Z" fill="white"/>
<path d="M74.7821 41.7485L74.2168 42.0799V41.4171L74.7821 41.0857V41.7485Z" fill="white"/>
<path d="M75.846 41.1188L75.2808 41.4502V40.7874L75.846 40.456V41.1188Z" fill="white"/>
<path d="M79.6366 37.6059L79.0381 37.9373V37.2745L79.6366 36.9431V37.6059Z" fill="white"/>
<path d="M82.9281 35.7169L82.3628 36.0483V35.3855L82.9281 35.0541V35.7169Z" fill="white"/>
<path d="M76.9764 39.1304L76.4111 39.4618V38.799L76.9764 38.4676V39.1304Z" fill="white"/>
<path d="M84.5245 26.6365V20.8369L77.1758 21.798L71.6893 18.6165C70.725 18.0531 69.1622 18.0531 68.1979 18.6165L67.3333 19.1468L55.396 20.7375V26.6033V26.6365C55.396 27.001 55.662 27.3324 56.1275 27.5975L68.2644 34.5901C69.2287 35.1535 70.7915 35.1535 71.7558 34.5901L83.8262 27.5975C84.2917 27.3324 84.5245 26.9679 84.5577 26.6365H84.5245Z" fill="url(#paint16_linear_678_1680)"/>
<path d="M83.7925 19.7764L71.6556 12.7838C70.6913 12.2204 69.1285 12.2204 68.1642 12.7838L56.0938 19.7764C55.1295 20.3398 55.1295 21.2346 56.0938 21.798L68.2307 28.7906C69.195 29.354 70.7578 29.354 71.7221 28.7906L83.7925 21.798C84.7568 21.2346 84.7568 20.3398 83.7925 19.7764Z" fill="url(#paint17_radial_678_1680)"/>
<path d="M83.7929 21.4334L71.7226 28.426C70.7583 28.9894 69.1954 28.9894 68.2311 28.426L56.0943 21.4334C55.6952 21.2014 55.4625 20.9032 55.396 20.6049C55.2962 21.0357 55.529 21.4666 56.0943 21.798L68.2311 28.7906C69.1954 29.354 70.7583 29.354 71.7226 28.7906L83.7929 21.798C84.3582 21.4666 84.591 21.0357 84.4912 20.6049C84.458 20.9363 84.2252 21.2014 83.7929 21.4334Z" fill="white"/>
<path d="M73.3852 30.3482L72.7866 30.6796V30.0168L73.3852 29.6854V30.3482Z" fill="white"/>
<path d="M74.5829 29.6522L73.9844 29.9836V29.3208L74.5829 28.9894V29.6522Z" fill="white"/>
<path d="M75.7796 28.9563L75.2144 29.2877V28.6249L75.7796 28.2935V28.9563Z" fill="white"/>
<path d="M74.7821 30.8453L74.2168 31.1767V30.5139L74.7821 30.2156V30.8453Z" fill="white"/>
<path d="M75.846 30.2487L75.2808 30.5801V29.9173L75.846 29.5859V30.2487Z" fill="white"/>
<path d="M79.6366 26.7359L79.0381 27.0673V26.4045L79.6366 26.0731V26.7359Z" fill="white"/>
<path d="M82.9281 24.8469L82.3628 25.1783V24.5155L82.9281 24.1841V24.8469Z" fill="white"/>
<path d="M76.9764 28.2603L76.4111 28.5917V27.9289L76.9764 27.5975V28.2603Z" fill="white"/>
<path d="M48.48 73.0993C47.8149 73.0993 47.1831 72.9667 46.6844 72.6684L34.5475 65.6758C34.0487 65.3776 33.7827 64.9799 33.7827 64.5822C33.7827 64.1514 34.0487 63.7537 34.5475 63.4886L46.6179 56.496C47.6154 55.9326 49.2448 55.9326 50.2423 56.496L62.3792 63.4886C62.8779 63.7868 63.144 64.1845 63.144 64.5822C63.144 65.013 62.8779 65.4107 62.3792 65.6758L50.3088 72.6684C49.7768 72.9667 49.145 73.0993 48.48 73.0993ZM48.4135 56.264C47.8149 56.264 47.1831 56.3965 46.7176 56.6617L34.6473 63.6543C34.215 63.8863 33.9822 64.2177 33.9822 64.5491C33.9822 64.8805 34.215 65.2119 34.6473 65.4438L46.7841 72.4365C47.7152 72.9667 49.2447 72.9667 50.1758 72.4365L62.2462 65.4438C62.6784 65.2119 62.9112 64.8805 62.9112 64.5491C62.9112 64.2177 62.6784 63.8863 62.2462 63.6543L50.1093 56.6948C49.6438 56.3965 49.012 56.264 48.4135 56.264Z" fill="#0F9D87"/>
<path opacity="0.2" d="M59.2874 63.7868L49.7774 58.3186C49.0126 57.8878 47.7823 57.8878 47.0508 58.3186L37.6073 63.7868C36.8425 64.2176 36.8425 64.9135 37.6073 65.3775L47.1173 70.8456C47.8821 71.2765 49.1124 71.2765 49.8439 70.8456L59.2874 65.3775C60.0522 64.9135 60.0522 64.2176 59.2874 63.7868Z" fill="#0F9D87"/>
<path d="M63.0777 60.738V54.9384L55.7291 55.8995L50.2425 52.718C49.2782 52.1546 47.7154 52.1546 46.7511 52.718L45.8866 53.2483L33.9492 54.839V60.7048V60.738C33.9492 61.1025 34.2152 61.4339 34.6808 61.699L46.8176 68.6916C47.7819 69.255 49.3448 69.255 50.3091 68.6916L62.3794 61.699C62.8449 61.4339 63.0777 61.0694 63.111 60.738H63.0777Z" fill="url(#paint18_linear_678_1680)"/>
<path d="M62.3457 53.911L50.2088 46.9184C49.2445 46.355 47.6817 46.355 46.7174 46.9184L34.6471 53.911C33.6828 54.4744 33.6828 55.3692 34.6471 55.9326L46.7839 62.9252C47.7482 63.4885 49.311 63.4885 50.2753 62.9252L62.3457 55.9326C63.31 55.3692 63.31 54.4744 62.3457 53.911Z" fill="url(#paint19_radial_678_1680)"/>
<path d="M62.3457 55.568L50.2753 62.5606C49.311 63.124 47.7482 63.124 46.7839 62.5606L34.647 55.568C34.248 55.336 34.0152 55.0378 33.9487 54.7395C33.849 55.1703 34.0817 55.6011 34.647 55.9326L46.7839 62.9252C47.7482 63.4885 49.311 63.4885 50.2753 62.9252L62.3457 55.9326C62.9109 55.6011 63.1437 55.1703 63.0439 54.7395C62.9774 55.0378 62.7447 55.336 62.3457 55.568Z" fill="white"/>
<path d="M51.9046 64.4496L51.3394 64.781V64.1182L51.9046 63.7868V64.4496Z" fill="white"/>
<path d="M53.1019 63.7537L52.5366 64.0851V63.4223L53.1019 63.0909V63.7537Z" fill="white"/>
<path d="M54.3324 63.0908L53.7339 63.4222V62.7594L54.3324 62.428V63.0908Z" fill="white"/>
<path d="M53.3348 64.9798L52.7695 65.3112V64.6484L53.3348 64.317V64.9798Z" fill="white"/>
<path d="M54.3988 64.3833L53.8335 64.7147V64.0519L54.3988 63.7205V64.3833Z" fill="white"/>
<path d="M58.1566 60.8704L57.5913 61.2018V60.539L58.1566 60.2076V60.8704Z" fill="white"/>
<path d="M61.4813 58.9484L60.916 59.2798V58.617L61.4813 58.2856V58.9484Z" fill="white"/>
<path d="M55.5297 62.3949L54.9312 62.7263V62.0635L55.5297 61.7321V62.3949Z" fill="white"/>
<path opacity="0.4" d="M47.8148 59.9757L39.6681 55.2698C39.3356 55.0709 39.3689 54.7395 39.7679 54.5407L47.7483 49.9673C48.1473 49.7353 48.7126 49.7353 49.0451 49.901L57.1918 54.607C57.5243 54.8058 57.491 55.1372 57.092 55.336L49.1116 59.9094C48.7458 60.1414 48.1473 60.1414 47.8148 59.9757Z" fill="black"/>
<path d="M44.6236 65.0461L37.8735 61.1687C37.7072 61.0693 37.5742 60.8373 37.5742 60.6053V60.1082C37.5742 59.9094 37.7072 59.8099 37.8735 59.8762L44.6236 63.7536C44.7898 63.8531 44.9228 64.085 44.9228 64.317V64.8141C44.8896 65.0461 44.7566 65.1455 44.6236 65.0461Z" fill="white"/>
<path d="M63.0777 49.8678V44.0683L55.7291 45.0294L50.2425 41.8479C49.2782 41.2845 47.7154 41.2845 46.7511 41.8479L45.8866 42.3781L33.9492 43.9689V49.8347V49.8678C33.9492 50.2324 34.2152 50.5638 34.6808 50.8289L46.8176 57.8215C47.7819 58.3849 49.3448 58.3849 50.3091 57.8215L62.3794 50.8289C62.8449 50.5638 63.0777 50.1993 63.111 49.8678H63.0777Z" fill="url(#paint20_linear_678_1680)"/>
<path d="M62.3457 43.0409L50.2088 36.0483C49.2445 35.4849 47.6817 35.4849 46.7174 36.0483L34.6471 43.0409C33.6828 43.6043 33.6828 44.4991 34.6471 45.0625L46.7839 52.0551C47.7482 52.6185 49.311 52.6185 50.2753 52.0551L62.3457 45.0625C63.31 44.4991 63.31 43.6043 62.3457 43.0409Z" fill="url(#paint21_radial_678_1680)"/>
<path opacity="0.4" d="M56.5598 43.4718L49.4772 39.3955C48.9119 39.0641 48.0141 39.0641 47.4489 39.3955L40.4327 43.4718C39.8675 43.8032 39.8675 44.3334 40.4327 44.6317L47.5154 48.708C48.0806 49.0394 48.9784 49.0394 49.5437 48.708L56.5598 44.6317C57.1251 44.3003 57.1251 43.77 56.5598 43.4718Z" fill="black"/>
<path d="M62.3457 44.6979L50.2753 51.6905C49.311 52.2539 47.7482 52.2539 46.7839 51.6905L34.647 44.6979C34.248 44.4659 34.0152 44.1676 33.9487 43.8694C33.849 44.3002 34.0817 44.731 34.647 45.0624L46.7839 52.055C47.7482 52.6184 49.311 52.6184 50.2753 52.055L62.3457 45.0624C62.9109 44.731 63.1437 44.3002 63.0439 43.8694C62.9774 44.1676 62.7447 44.4659 62.3457 44.6979Z" fill="white"/>
<path d="M51.9046 53.5796L51.3394 53.911V53.2482L51.9046 52.9167V53.5796Z" fill="white"/>
<path d="M53.1019 52.8836L52.5366 53.215V52.5522L53.1019 52.2208V52.8836Z" fill="white"/>
<path d="M54.3324 52.1876L53.7339 52.5191V51.8562L54.3324 51.5248V52.1876Z" fill="white"/>
<path d="M53.3348 54.1098L52.7695 54.4412V53.7784L53.3348 53.447V54.1098Z" fill="white"/>
<path d="M54.3988 53.5133L53.8335 53.8447V53.1819L54.3988 52.8505V53.5133Z" fill="white"/>
<path d="M58.1566 50.0004L57.5913 50.3318V49.669L58.1566 49.3376V50.0004Z" fill="white"/>
<path d="M61.4813 48.0783L60.916 48.4097V47.7469L61.4813 47.4155V48.0783Z" fill="white"/>
<path d="M55.5297 51.5248L54.9312 51.8562V51.1934L55.5297 50.862V51.5248Z" fill="white"/>
<path d="M63.0777 38.9978V33.1982L55.7291 34.1593L50.2425 30.9778C49.2782 30.4145 47.7154 30.4145 46.7511 30.9778L45.8866 31.5081L33.9492 33.0988V38.9647V38.9978C33.9492 39.3623 34.2152 39.6937 34.6808 39.9589L46.8176 46.9515C47.7819 47.5149 49.3448 47.5149 50.3091 46.9515L62.3794 39.9589C62.8449 39.6937 63.0777 39.3292 63.111 38.9978H63.0777Z" fill="url(#paint22_linear_678_1680)"/>
<path d="M62.3457 32.1709L50.2088 25.1783C49.2445 24.615 47.6817 24.615 46.7174 25.1783L34.6471 32.1709C33.6828 32.7343 33.6828 33.6291 34.6471 34.1925L46.7839 41.1851C47.7482 41.7485 49.311 41.7485 50.2753 41.1851L62.3457 34.1594C63.31 33.6291 63.31 32.7012 62.3457 32.1709Z" fill="url(#paint23_radial_678_1680)"/>
<path d="M62.3457 33.828L50.2753 40.8206C49.311 41.3839 47.7482 41.3839 46.7839 40.8206L34.647 33.828C34.248 33.596 34.0152 33.2977 33.9487 32.9994C33.849 33.4303 34.0817 33.8611 34.647 34.1925L46.7839 41.1851C47.7482 41.7485 49.311 41.7485 50.2753 41.1851L62.3457 34.1594C62.9109 33.828 63.1437 33.3971 63.0439 32.9663C62.9774 33.2977 62.7447 33.596 62.3457 33.828Z" fill="white"/>
<path d="M51.9046 42.7096L51.3394 43.041V42.3782L51.9046 42.0468V42.7096Z" fill="white"/>
<path d="M53.1019 42.0136L52.5366 42.345V41.6822L53.1019 41.3508V42.0136Z" fill="white"/>
<path d="M54.3324 41.3177L53.7339 41.6491V40.9862L54.3324 40.6548V41.3177Z" fill="white"/>
<path d="M53.3348 43.2398L52.7695 43.5712V42.9084L53.3348 42.577V43.2398Z" fill="white"/>
<path d="M54.3988 42.6101L53.8335 42.9415V42.2787L54.3988 41.9473V42.6101Z" fill="white"/>
<path d="M58.1566 39.0973L57.5913 39.4287V38.7659L58.1566 38.4344V39.0973Z" fill="white"/>
<path d="M61.4813 37.2083L60.916 37.5397V36.8769L61.4813 36.5455V37.2083Z" fill="white"/>
<path d="M55.5297 40.6217L54.9312 40.9531V40.2903L55.5297 39.992V40.6217Z" fill="white"/>
<path d="M92.2256 69.333L73.9204 58.7996L73.8184 58.9758L92.1235 69.5092L92.2256 69.333Z" fill="#0F9D87"/>
<path d="M99.912 65.0503L94.0518 61.6796C93.527 61.36 92.7981 61.1566 92.0692 61.0984L85.8008 60.6045C85.0137 60.5463 84.2848 60.3429 83.7308 60.0233L77.8706 56.6817L77.9581 56.5073L83.8183 59.878C84.3431 60.1976 85.072 60.4011 85.8008 60.4592L92.0692 60.9531C92.8564 61.0113 93.5853 61.2147 94.1393 61.5343L99.9995 64.905L99.912 65.0503Z" fill="#0F9D87"/>
<path d="M84.3731 73.9999L78.5128 70.6292C77.9297 70.3096 77.5799 69.8737 77.4633 69.4088L76.6178 65.8057C76.5303 65.3989 76.1804 64.992 75.6556 64.7015L69.7954 61.3308L69.8829 61.1564L75.7431 64.5271C76.3262 64.8468 76.6761 65.2826 76.7927 65.7475L77.6382 69.3507C77.7257 69.7575 78.0755 70.1643 78.6003 70.4549L84.4605 73.8256L84.3731 73.9999Z" fill="#0F9D87"/>
<path d="M88.2507 71.7626L82.0115 68.1885C81.6908 68.0142 81.4284 67.7817 81.2535 67.5493L78.7461 64.3239C78.5712 64.1205 78.3379 63.9171 78.0464 63.7427L71.8071 60.1686L71.8946 59.9943L78.1338 63.5684C78.4545 63.7427 78.7169 63.9752 78.8919 64.2076L81.3992 67.433C81.5742 67.6364 81.8074 67.8398 82.099 68.0142L88.3382 71.5883L88.2507 71.7626Z" fill="#0F9D87"/>
<path d="M96.0358 67.2877L89.7966 63.7136C89.505 63.5393 89.1552 63.394 88.7762 63.3068L83.1783 61.8539C82.7702 61.7377 82.4203 61.5924 82.0996 61.4181L75.8604 57.844L75.9478 57.6696L82.1871 61.2437C82.4786 61.4181 82.8285 61.5633 83.2075 61.6505L88.8053 63.1034C89.2135 63.2196 89.5633 63.3649 89.8841 63.5393L96.1233 67.1134L96.0358 67.2877Z" fill="#0F9D87"/>
<path d="M19.0218 56.5951L18.9199 56.4189L5.31109e-05 67.2879L0.101974 67.4642L19.0218 56.5951Z" fill="#0F9D87"/>
<path d="M21.7035 58.1388L21.6016 57.9625L2.68169 68.8316L2.78362 69.0078L21.7035 58.1388Z" fill="#0F9D87"/>
<path d="M24.4242 59.6934L24.3223 59.5172L5.4024 70.3862L5.50432 70.5624L24.4242 59.6934Z" fill="#0F9D87"/>
<path d="M27.121 61.2623L27.019 61.0861L8.09917 71.9551L8.20109 72.1313L27.121 61.2623Z" fill="#0F9D87"/>
<defs>
<linearGradient id="paint0_linear_678_1680" x1="32.2622" y1="36.0274" x2="52.81" y2="36.0274" gradientUnits="userSpaceOnUse">
<stop stop-color="#0F9D87"/>
<stop offset="1" stop-color="#1A1A1A"/>
</linearGradient>
<linearGradient id="paint1_linear_678_1680" x1="32.272" y1="30.2196" x2="52.8081" y2="30.2196" gradientUnits="userSpaceOnUse">
<stop stop-color="#0F9D87"/>
<stop offset="1" stop-color="#1A1A1A"/>
</linearGradient>
<linearGradient id="paint2_linear_678_1680" x1="32.2622" y1="25.1324" x2="52.81" y2="25.1324" gradientUnits="userSpaceOnUse">
<stop stop-color="#0F9D87"/>
<stop offset="1" stop-color="#1A1A1A"/>
</linearGradient>
<radialGradient id="paint3_radial_678_1680" cx="0" cy="0" r="1" gradientUnits="userSpaceOnUse" gradientTransform="translate(28.6191 9.79263) scale(45.8876 45.7339)">
<stop stop-color="#0F9D87"/>
<stop offset="1" stop-color="#1A1A1A"/>
</radialGradient>
<linearGradient id="paint4_linear_678_1680" x1="32.2622" y1="14.279" x2="52.81" y2="14.279" gradientUnits="userSpaceOnUse">
<stop stop-color="#0F9D87"/>
<stop offset="1" stop-color="#1A1A1A"/>
</linearGradient>
<radialGradient id="paint5_radial_678_1680" cx="0" cy="0" r="1" gradientUnits="userSpaceOnUse" gradientTransform="translate(28.6191 -1.07742) scale(45.8876 45.7339)">
<stop stop-color="#0F9D87"/>
<stop offset="1" stop-color="#1A1A1A"/>
</radialGradient>
<linearGradient id="paint6_linear_678_1680" x1="10.8154" y1="48.4136" x2="31.3633" y2="48.4136" gradientUnits="userSpaceOnUse">
<stop stop-color="#0F9D87"/>
<stop offset="1" stop-color="#1A1A1A"/>
</linearGradient>
<radialGradient id="paint7_radial_678_1680" cx="0" cy="0" r="1" gradientUnits="userSpaceOnUse" gradientTransform="translate(7.13813 33.0593) scale(45.8876 45.6441)">
<stop stop-color="#0F9D87"/>
<stop offset="1" stop-color="#1A1A1A"/>
</radialGradient>
<linearGradient id="paint8_linear_678_1680" x1="10.8154" y1="37.4938" x2="31.3633" y2="37.4938" gradientUnits="userSpaceOnUse">
<stop stop-color="#0F9D87"/>
<stop offset="1" stop-color="#1A1A1A"/>
</linearGradient>
<radialGradient id="paint9_radial_678_1680" cx="0" cy="0" r="1" gradientUnits="userSpaceOnUse" gradientTransform="translate(7.13813 22.1893) scale(45.8876 45.6441)">
<stop stop-color="#0F9D87"/>
<stop offset="1" stop-color="#1A1A1A"/>
</radialGradient>
<linearGradient id="paint10_linear_678_1680" x1="10.8154" y1="26.6238" x2="31.3633" y2="26.6238" gradientUnits="userSpaceOnUse">
<stop stop-color="#0F9D87"/>
<stop offset="1" stop-color="#1A1A1A"/>
</linearGradient>
<radialGradient id="paint11_radial_678_1680" cx="0" cy="0" r="1" gradientUnits="userSpaceOnUse" gradientTransform="translate(7.1627 11.2947) scale(45.8876 45.7339)">
<stop stop-color="#0F9D87"/>
<stop offset="1" stop-color="#1A1A1A"/>
</radialGradient>
<linearGradient id="paint12_linear_678_1680" x1="53.6426" y1="48.3638" x2="74.1904" y2="48.3638" gradientUnits="userSpaceOnUse">
<stop stop-color="#0F9D87"/>
<stop offset="1" stop-color="#1A1A1A"/>
</linearGradient>
<radialGradient id="paint13_radial_678_1680" cx="0" cy="0" r="1" gradientUnits="userSpaceOnUse" gradientTransform="translate(49.9653 33.0592) scale(45.8876 45.6441)">
<stop stop-color="#0F9D87"/>
<stop offset="1" stop-color="#1A1A1A"/>
</radialGradient>
<linearGradient id="paint14_linear_678_1680" x1="53.6426" y1="37.4938" x2="74.1904" y2="37.4938" gradientUnits="userSpaceOnUse">
<stop stop-color="#0F9D87"/>
<stop offset="1" stop-color="#1A1A1A"/>
</linearGradient>
<radialGradient id="paint15_radial_678_1680" cx="0" cy="0" r="1" gradientUnits="userSpaceOnUse" gradientTransform="translate(49.9653 22.1561) scale(45.8876 45.6441)">
<stop stop-color="#0F9D87"/>
<stop offset="1" stop-color="#1A1A1A"/>
</radialGradient>
<linearGradient id="paint16_linear_678_1680" x1="53.6426" y1="26.6238" x2="74.1904" y2="26.6238" gradientUnits="userSpaceOnUse">
<stop stop-color="#0F9D87"/>
<stop offset="1" stop-color="#1A1A1A"/>
</linearGradient>
<radialGradient id="paint17_radial_678_1680" cx="0" cy="0" r="1" gradientUnits="userSpaceOnUse" gradientTransform="translate(49.9653 11.286) scale(45.8876 45.6441)">
<stop stop-color="#0F9D87"/>
<stop offset="1" stop-color="#1A1A1A"/>
</radialGradient>
<linearGradient id="paint18_linear_678_1680" x1="32.1958" y1="60.7253" x2="52.7436" y2="60.7253" gradientUnits="userSpaceOnUse">
<stop stop-color="#0F9D87"/>
<stop offset="1" stop-color="#1A1A1A"/>
</linearGradient>
<radialGradient id="paint19_radial_678_1680" cx="0" cy="0" r="1" gradientUnits="userSpaceOnUse" gradientTransform="translate(28.5185 45.4206) scale(45.8876 45.6441)">
<stop stop-color="#0F9D87"/>
<stop offset="1" stop-color="#1A1A1A"/>
</radialGradient>
<linearGradient id="paint20_linear_678_1680" x1="32.1958" y1="49.8551" x2="52.7436" y2="49.8551" gradientUnits="userSpaceOnUse">
<stop stop-color="#0F9D87"/>
<stop offset="1" stop-color="#1A1A1A"/>
</linearGradient>
<radialGradient id="paint21_radial_678_1680" cx="0" cy="0" r="1" gradientUnits="userSpaceOnUse" gradientTransform="translate(28.5185 34.5505) scale(45.8876 45.6441)">
<stop stop-color="#0F9D87"/>
<stop offset="1" stop-color="#1A1A1A"/>
</radialGradient>
<linearGradient id="paint22_linear_678_1680" x1="32.1958" y1="38.9851" x2="52.7436" y2="38.9851" gradientUnits="userSpaceOnUse">
<stop stop-color="#0F9D87"/>
<stop offset="1" stop-color="#1A1A1A"/>
</linearGradient>
<radialGradient id="paint23_radial_678_1680" cx="0" cy="0" r="1" gradientUnits="userSpaceOnUse" gradientTransform="translate(28.5185 23.6806) scale(45.8876 45.6441)">
<stop stop-color="#0F9D87"/>
<stop offset="1" stop-color="#1A1A1A"/>
</radialGradient>
</defs>
</svg>
