<svg width="72" height="80" viewBox="0 0 72 80" fill="none" xmlns="http://www.w3.org/2000/svg">
<path opacity="0.4" d="M26.8783 32.1512C26.8783 32.3722 26.6885 32.5616 26.467 32.5616C26.2455 32.5616 26.0557 32.3722 26.0557 32.1512C26.0557 31.9302 26.2455 31.7407 26.467 31.7407C26.6885 31.7407 26.8783 31.9302 26.8783 32.1512Z" fill="#172F78"/>
<path opacity="0.4" d="M32.7585 26.2154C32.7585 27.0994 32.0312 27.8256 31.1458 27.8256C30.2605 27.8256 29.5332 27.0994 29.5332 26.2154C29.5332 25.3313 30.2605 24.6051 31.1458 24.6051C32.0312 24.6051 32.7585 25.3313 32.7585 26.2154Z" fill="#172F78"/>
<path opacity="0.8" d="M31.8098 26.2154C31.8098 26.5942 31.5251 26.8784 31.1456 26.8784C30.7661 26.8784 30.4814 26.5942 30.4814 26.2154C30.4814 25.8365 30.7661 25.5523 31.1456 25.5523C31.5251 25.5523 31.8098 25.8365 31.8098 26.2154Z" fill="#172F78"/>
<path opacity="0.4" d="M24.855 24.6682C25.3091 24.6682 25.6773 24.3007 25.6773 23.8473C25.6773 23.3939 25.3091 23.0264 24.855 23.0264C24.4009 23.0264 24.0327 23.3939 24.0327 23.8473C24.0327 24.3007 24.4009 24.6682 24.855 24.6682Z" fill="#03A7D3"/>
<path opacity="0.8" d="M24.8547 24.2577C25.0819 24.2577 25.266 24.074 25.266 23.8473C25.266 23.6206 25.0819 23.4368 24.8547 23.4368C24.6275 23.4368 24.4434 23.6206 24.4434 23.8473C24.4434 24.074 24.6275 24.2577 24.8547 24.2577Z" fill="#03A7D3"/>
<path opacity="0.4" d="M18.7221 52.3268C18.7221 52.4531 18.5955 52.5794 18.4689 52.5794C18.3424 52.5794 18.2158 52.4531 18.2158 52.3268C18.2158 52.2005 18.3424 52.0742 18.4689 52.0742C18.5955 52.0742 18.7221 52.2005 18.7221 52.3268Z" fill="#03A7D3"/>
<path opacity="0.6" d="M16.3306 8.75503C21.8315 7.14476 28.3756 6.2607 35.3307 6.32384C36.2475 6.32384 37.1643 6.35542 38.0495 6.38699C44.1511 6.95532 46.3324 13.3964 42.6652 16.2064C40.958 17.501 38.9347 17.501 38.0495 17.4694C37.1643 17.4378 36.2475 17.4062 35.3307 17.4062C28.3756 17.3431 21.8315 18.2587 16.3306 19.8374C10.7665 21.1951 10.4504 15.5434 12.3789 12.0703C13.0428 10.9652 14.2441 9.41808 16.3306 8.75503Z" fill="#49AF62" fill-opacity="0.3"/>
<path d="M14.7812 20.1847C13.2953 20.1847 12.4734 19.5532 11.9992 18.9533C10.6714 17.1852 11.1456 14.091 12.2837 12.0703C12.9476 10.902 14.1805 9.35491 16.2987 8.66028C22.0208 7.01845 28.5966 6.16595 35.3304 6.2291C36.2472 6.2291 37.164 6.26068 38.0492 6.29225C41.1158 6.57641 43.5817 8.43927 44.3404 11.0599C44.9411 13.0806 44.3088 15.1013 42.6965 16.3327C40.9577 17.6588 38.9028 17.6272 38.0176 17.6272C37.1008 17.5957 36.184 17.5641 35.2988 17.5641C28.565 17.5009 22.0208 18.3534 16.3303 19.9953C15.7612 20.1216 15.2238 20.1847 14.7812 20.1847ZM16.3619 8.8813C14.307 9.54435 13.1373 11.0283 12.4734 12.165C11.3669 14.1226 10.8927 17.1221 12.1572 18.7955C12.9792 19.869 14.4018 20.1847 16.2671 19.7427C21.9576 18.1008 28.565 17.2484 35.2988 17.3115C36.2156 17.3115 37.1324 17.3431 38.0176 17.3747C38.8712 17.3747 40.8945 17.4062 42.5384 16.1117C44.0559 14.9435 44.6566 13.0175 44.0875 11.0915C43.3604 8.56556 40.9577 6.76586 37.986 6.51326C37.1008 6.48169 36.184 6.45012 35.2672 6.45012C28.5966 6.38697 22.0525 7.23946 16.3619 8.8813Z" fill="url(#paint0_radial_181_17)"/>
<path d="M35.1666 68.5555C34.2353 68.5555 33.304 68.3533 32.6157 67.949L15.4473 58.0412C14.7184 57.6368 14.354 57.0707 14.354 56.4641C14.354 55.8575 14.7589 55.2913 15.4473 54.8869L32.5347 44.9792C33.9519 44.1704 36.2194 44.1704 37.6366 44.9792L54.805 54.8869C55.5338 55.2913 55.8982 55.8575 55.8982 56.4641C55.8982 57.0707 55.4933 57.6368 54.805 58.0412L37.7176 67.949C36.9887 68.3533 36.0979 68.5555 35.1666 68.5555ZM35.0856 44.6961C34.2353 44.6961 33.3445 44.8983 32.6966 45.2622L15.6092 55.17C15.0019 55.5339 14.6779 55.9788 14.6779 56.4641C14.6779 56.9493 15.0019 57.3942 15.6092 57.7581L32.7776 67.6659C34.1138 68.4342 36.2599 68.4342 37.5556 67.6659L54.643 57.7581C55.2504 57.3942 55.5743 56.9493 55.5743 56.4641C55.5743 55.9788 55.2504 55.5339 54.643 55.17L37.4746 45.2622C36.7863 44.8983 35.9359 44.6961 35.0856 44.6961Z" fill="url(#paint1_radial_181_17)"/>
<path d="M35.1666 74.2576C34.2353 74.2576 33.304 74.0554 32.6157 73.651L15.4473 63.7432C14.7184 63.3388 14.354 62.7727 14.354 62.1661C14.354 61.5595 14.7589 60.9933 15.4473 60.5889L32.5347 50.6812C33.9519 49.8724 36.2194 49.8724 37.6366 50.6812L54.805 60.5889C55.5338 60.9933 55.8982 61.5595 55.8982 62.1661C55.8982 62.7727 55.4933 63.3388 54.805 63.7432L37.7176 73.651C36.9887 74.0554 36.0979 74.2576 35.1666 74.2576ZM35.0856 50.4385C34.2353 50.4385 33.3445 50.6407 32.6966 51.0047L15.6092 60.9124C15.0019 61.2764 14.6779 61.7212 14.6779 62.2065C14.6779 62.6918 15.0019 63.1366 15.6092 63.5006L32.7776 73.4083C34.1138 74.1767 36.2599 74.1767 37.5556 73.4083L54.643 63.5006C55.2504 63.1366 55.5743 62.6918 55.5743 62.2065C55.5743 61.7212 55.2504 61.2764 54.643 60.9124L37.4746 51.0047C36.7863 50.6003 35.9359 50.4385 35.0856 50.4385Z" fill="url(#paint2_radial_181_17)"/>
<path d="M35.1666 80C34.2353 80 33.304 79.7978 32.6157 79.3934L15.4473 69.4857C14.7184 69.0813 14.354 68.5151 14.354 67.9085C14.354 67.3019 14.7589 66.7358 15.4473 66.3314L32.5347 56.4236C33.9519 55.6148 36.2194 55.6148 37.6366 56.4236L54.805 66.3314C55.5338 66.7358 55.8982 67.3019 55.8982 67.9085C55.8982 68.5151 55.4933 69.0813 54.805 69.4857L37.7176 79.3934C36.9887 79.7978 36.0979 80 35.1666 80ZM35.0856 56.1405C34.2353 56.1405 33.3445 56.3427 32.6966 56.7067L15.6092 66.6144C15.0019 66.9784 14.6779 67.4232 14.6779 67.9085C14.6779 68.3938 15.0019 68.8386 15.6092 69.2026L32.7776 79.1103C34.1138 79.8787 36.2599 79.8787 37.5556 79.1103L54.643 69.2026C55.2504 68.8386 55.5743 68.3938 55.5743 67.9085C55.5743 67.4232 55.2504 66.9784 54.643 66.6144L37.4746 56.7067C36.7863 56.3427 35.9359 56.1405 35.0856 56.1405Z" fill="url(#paint3_radial_181_17)"/>
<path d="M55.8175 51.0451V42.8358L45.4112 44.2108L37.6368 39.722C36.2601 38.9536 34.0736 38.9536 32.6968 39.722L31.4821 40.4903L14.5972 42.7549V51.0855V51.126C14.5972 51.6113 14.9616 52.137 15.6095 52.5009L32.7778 62.4087C34.1545 63.177 36.3411 63.177 37.7178 62.4087L54.8052 52.5009C55.453 52.137 55.8175 51.6113 55.8175 51.126V51.0451Z" fill="url(#paint4_linear_181_17)"/>
<path d="M54.8049 41.3396L37.6365 31.4319C36.2598 30.6635 34.0733 30.6635 32.6966 31.4319L15.6092 41.3396C14.2325 42.108 14.2325 43.402 15.6092 44.2108L32.7776 54.1186C34.1543 54.8869 36.3408 54.8869 37.7175 54.1186L54.8049 44.2108C56.1411 43.402 56.1411 42.1484 54.8049 41.3396Z" fill="url(#paint5_radial_181_17)"/>
<path d="M54.805 43.6851L37.7176 53.5928C36.3409 54.3612 34.1544 54.3612 32.7777 53.5928L15.6093 43.6851C15.0424 43.3616 14.7185 42.9572 14.597 42.5123C14.4755 43.1189 14.7995 43.7255 15.6093 44.1704L32.7777 54.0781C34.1544 54.8465 36.3409 54.8465 37.7176 54.0781L54.805 44.1704C55.6148 43.7255 55.9388 43.0785 55.8173 42.5123C55.6958 42.9572 55.3719 43.3616 54.805 43.6851Z" fill="white"/>
<path d="M40.0263 56.3023L39.2158 56.7876V55.817L40.0263 55.3722V56.3023Z" fill="white"/>
<path d="M41.727 55.3318L40.9165 55.7766V54.8465L41.727 54.4017V55.3318Z" fill="white"/>
<path d="M43.4277 54.3612L42.6172 54.806V53.8759L43.4277 53.3906V54.3612Z" fill="white"/>
<path d="M42.0517 57.0302L41.2412 57.5155V56.5854L42.0517 56.1001V57.0302Z" fill="white"/>
<path d="M43.5493 56.181L42.7388 56.6662V55.6957L43.5493 55.2509V56.181Z" fill="white"/>
<path d="M48.894 51.2068L48.0835 51.6517V50.7216L48.894 50.2767V51.2068Z" fill="white"/>
<path d="M53.5508 48.4974L52.7402 48.9827V48.0122L53.5508 47.5673V48.4974Z" fill="white"/>
<path d="M45.1284 53.3502L44.3179 53.8355V52.9054L45.1284 52.4201V53.3502Z" fill="white"/>
<path opacity="0.4" d="M34.2355 49.9128L22.6952 43.2402C22.2093 42.9571 22.2903 42.5123 22.8167 42.1888L34.114 35.678C34.6404 35.3544 35.4907 35.314 35.9361 35.5971L47.4764 42.2696C47.9623 42.5527 47.8813 42.9976 47.3549 43.3211L36.0576 49.8319C35.5312 50.1554 34.6809 50.1958 34.2355 49.9128Z" fill="black"/>
<path d="M29.7011 57.1515L20.1852 51.6517C19.9422 51.5304 19.7803 51.1664 19.7803 50.8834V50.1959C19.7803 49.9128 19.9827 49.751 20.1852 49.8724L29.7011 55.3722C29.944 55.4935 30.106 55.8574 30.106 56.1405V56.828C30.106 57.1111 29.9035 57.2728 29.7011 57.1515Z" fill="white"/>
<path d="M55.8175 35.6376V27.4283L45.4112 28.8032L37.6368 24.3144C36.2601 23.5461 34.0736 23.5461 32.6968 24.3144L31.4821 25.0828L14.5972 27.3474V35.678V35.7184C14.5972 36.2037 14.9616 36.7294 15.6095 37.0934L32.7778 47.0012C34.1545 47.7695 36.3411 47.7695 37.7178 47.0012L54.8052 37.0934C55.453 36.7294 55.8175 36.2037 55.8175 35.7184V35.6376Z" fill="url(#paint6_linear_181_17)"/>
<path d="M54.8049 25.932L37.6365 16.0243C36.2598 15.2559 34.0733 15.2559 32.6966 16.0243L15.6092 25.932C14.2325 26.7004 14.2325 27.9944 15.6092 28.8032L32.7776 38.711C34.1543 39.4793 36.3408 39.4793 37.7175 38.711L54.8049 28.8032C56.1411 27.9944 56.1411 26.7004 54.8049 25.932Z" fill="url(#paint7_radial_181_17)"/>
<path opacity="0.4" d="M46.6266 26.4982L36.625 20.7153C35.8152 20.2704 34.5194 20.2704 33.7501 20.7153L23.789 26.5386C22.9792 26.9834 22.9792 27.7518 23.789 28.1966L33.7906 33.9795C34.6004 34.4244 35.8962 34.4244 36.6655 33.9795L46.6266 28.1966C47.3959 27.7114 47.3959 26.9834 46.6266 26.4982Z" fill="black"/>
<path d="M54.805 28.2776L37.7176 38.1854C36.3409 38.9537 34.1544 38.9537 32.7777 38.1854L15.6093 28.2776C15.0424 27.9541 14.7185 27.5497 14.597 27.1049C14.4755 27.7115 14.7995 28.3181 15.6093 28.7629L32.7777 38.6706C34.1544 39.439 36.3409 39.439 37.7176 38.6706L54.805 28.7629C55.6148 28.3181 55.9388 27.671 55.8173 27.1049C55.6958 27.5093 55.3719 27.9541 54.805 28.2776Z" fill="white"/>
<path d="M40.0263 40.8948L39.2158 41.3396V40.4095L40.0263 39.9647V40.8948Z" fill="white"/>
<path d="M41.727 39.8838L40.9165 40.3691V39.439L41.727 38.9537V39.8838Z" fill="white"/>
<path d="M43.4277 38.9131L42.6172 39.3984V38.4683L43.4277 37.983V38.9131Z" fill="white"/>
<path d="M42.0517 41.6227L41.2412 42.108V41.1374L42.0517 40.6926V41.6227Z" fill="white"/>
<path d="M43.5493 40.7734L42.7388 41.2182V40.2881L43.5493 39.8029V40.7734Z" fill="white"/>
<path d="M48.894 35.7589L48.0835 36.2441V35.314L48.894 34.8287V35.7589Z" fill="white"/>
<path d="M53.5508 33.0899L52.7402 33.5347V32.6046L53.5508 32.1193V33.0899Z" fill="white"/>
<path d="M45.1284 37.9426L44.3179 38.4279V37.4574L45.1284 37.0125V37.9426Z" fill="white"/>
<path d="M55.8175 20.1896V11.9803L45.4112 13.3552L37.6368 8.86643C36.2601 8.09807 34.0736 8.09807 32.6968 8.86643L31.4821 9.63478L14.5972 11.8994V20.23V20.2704C14.5972 20.7557 14.9616 21.2814 15.6095 21.6454L32.7778 31.5531C34.1545 32.3215 36.3411 32.3215 37.7178 31.5531L54.8052 21.6454C55.453 21.2814 55.8175 20.7557 55.8175 20.2704V20.1896Z" fill="url(#paint8_linear_181_17)"/>
<path d="M54.8049 10.484L37.6365 0.576267C36.2598 -0.192089 34.0733 -0.192089 32.6966 0.576267L15.6092 10.5245C14.2325 11.2928 14.2325 12.5869 15.6092 13.3957L32.7776 23.3034C34.1543 24.0718 36.3408 24.0718 37.7175 23.3034L54.8049 13.3957C56.1411 12.5464 56.1411 11.2928 54.8049 10.484Z" fill="url(#paint9_radial_181_17)"/>
<path d="M54.8049 10.484L37.6365 0.576267C36.2598 -0.192089 34.0733 -0.192089 32.6966 0.576267L15.6092 10.5245C14.2325 11.2928 14.2325 12.5869 15.6092 13.3957L32.7776 23.3034C34.1543 24.0718 36.3408 24.0718 37.7175 23.3034L54.8049 13.3957C56.1411 12.5464 56.1411 11.2928 54.8049 10.484Z" fill="#0F9D87"/>
<path d="M35.2474 20.0682C34.5995 20.0682 33.9921 19.9469 33.5062 19.6638L22.0877 13.0722C21.5613 12.7891 21.2778 12.3847 21.2778 11.9398C21.2778 11.495 21.5613 11.0906 22.0877 10.8075L33.3848 4.25628C34.3566 3.69013 35.8952 3.69013 36.867 4.25628L48.2451 10.8075C48.7715 11.0906 49.055 11.495 49.055 11.9398C49.055 12.3847 48.7715 12.7891 48.2451 13.0722L36.948 19.6234C36.5026 19.9065 35.8548 20.0682 35.2474 20.0682ZM35.1664 4.25628C34.5995 4.25628 34.0731 4.3776 33.6277 4.62024L22.3306 11.1715C21.9662 11.3737 21.7637 11.6568 21.7637 11.9398C21.7637 12.2229 21.9662 12.4656 22.3306 12.7082L33.7087 19.2594C34.559 19.7447 35.9357 19.7447 36.7456 19.2594L48.0427 12.7082C48.4071 12.506 48.6096 12.2229 48.6096 11.9398C48.6096 11.6568 48.4071 11.4141 48.0427 11.1715L36.7051 4.62024C36.2597 4.3776 35.7333 4.25628 35.1664 4.25628Z" fill="black"/>
<path d="M54.805 12.87L37.7176 22.7778C36.3409 23.5461 34.1544 23.5461 32.7777 22.7778L15.6093 12.87C15.0424 12.5465 14.7185 12.1421 14.597 11.6973C14.4755 12.3039 14.7995 12.9105 15.6093 13.3553L32.7777 23.263C34.1544 24.0314 36.3409 24.0314 37.7176 23.263L54.805 13.3553C55.6148 12.9105 55.9388 12.2634 55.8173 11.6973C55.6958 12.1017 55.3719 12.5061 54.805 12.87Z" fill="white"/>
<path d="M40.0263 25.4467L39.2158 25.932V25.0019L40.0263 24.5166V25.4467Z" fill="white"/>
<path d="M41.727 24.4762L40.9165 24.9615V24.0314L41.727 23.5461V24.4762Z" fill="white"/>
<path d="M43.4277 23.5057L42.6172 23.9505V23.0204L43.4277 22.5756V23.5057Z" fill="white"/>
<path d="M42.0517 26.2151L41.2412 26.66V25.7298L42.0517 25.2446V26.2151Z" fill="white"/>
<path d="M43.5493 25.3254L42.7388 25.8107V24.8806L43.5493 24.3953V25.3254Z" fill="white"/>
<path d="M48.894 20.3514L48.0835 20.8367V19.9065L48.894 19.4213V20.3514Z" fill="white"/>
<path d="M53.5508 17.6419L52.7402 18.1272V17.1971L53.5508 16.7118V17.6419Z" fill="white"/>
<path d="M45.1284 22.5351L44.3179 22.9799V22.0498L45.1284 21.5645V22.5351Z" fill="white"/>
<path opacity="0.6" d="M36.3315 43.9286C35.4463 43.9601 34.5611 43.9601 33.6759 43.9601C26.6892 43.897 20.2083 42.8866 14.8023 41.1816C9.39624 39.7292 9.0801 45.381 10.977 48.8541C12.3047 51.3484 14.1384 52.0115 14.8023 52.264C20.2083 53.969 26.6892 54.9794 33.6759 55.0425C34.5611 55.0425 35.4463 55.0425 36.3315 55.011C42.6859 54.5374 44.3299 48.4752 41.3581 45.6336C40.5678 44.8442 39.0187 43.897 36.3315 43.9286Z" fill="#49AF62" fill-opacity="0.3"/>
<g opacity="0.3">
<path d="M71.7193 36.1611L71.6244 35.9716C71.5296 35.7822 71.4347 35.5296 71.3083 35.2139C70.1385 31.7723 66.6924 28.6465 61.3494 26.1838C57.6504 24.0683 56.7336 21.0372 56.5123 19.8374C56.2593 18.4166 56.5439 16.3959 57.7769 15.3224C58.6621 14.533 59.8951 14.3752 61.4127 14.8803C66.8189 17.3747 70.3282 20.5321 71.498 24.0367C71.7509 25.0155 71.9406 25.8049 71.9406 29.278V35.1823C71.9406 35.6875 71.9406 35.7191 71.7825 35.9716L71.7193 36.1611ZM56.7652 19.7743C56.9865 20.9425 57.8401 23.9105 61.4759 25.9628C66.8821 28.4571 70.3598 31.6145 71.5612 35.1192C71.6244 35.3086 71.6877 35.498 71.7509 35.6243C71.7509 35.5296 71.7509 35.4349 71.7509 35.1823V29.278C71.7509 25.8049 71.5612 25.0471 71.3083 24.0999C70.1385 20.6584 66.6924 17.5641 61.3494 15.1014C59.9267 14.6278 58.7886 14.7856 57.935 15.5118C56.7968 16.4906 56.5123 18.4166 56.7652 19.7743Z" fill="url(#paint10_radial_181_17)"/>
<path d="M0.261361 37.8494H0V26.6111C0 26.5153 0 26.4195 0 26.3237C0.0653403 24.4719 0.784083 22.6521 2.15623 20.928L2.22157 20.8642C2.48293 20.6088 2.8423 20.2576 3.20167 20.2256C3.69173 20.1618 4.14911 20.3853 4.47581 20.928C5.61926 22.684 5.52125 27.7604 2.35225 32.2941C0.522722 34.6886 0.392042 36.0934 0.261361 37.8494ZM3.36502 20.4172C3.33235 20.4172 3.29968 20.4172 3.23434 20.4172C2.94031 20.481 2.61361 20.8003 2.38492 21.0238L2.35225 21.0557C1.04544 22.7479 0.326701 24.5039 0.261361 26.3237C0.261361 26.4195 0.261361 26.5153 0.261361 26.6111V35.9338C0.490052 34.8483 0.980104 33.6989 2.1889 32.1025C5.25989 27.6647 5.39057 22.7159 4.27979 20.9919C4.08377 20.7365 3.78974 20.4172 3.36502 20.4172Z" fill="url(#paint11_radial_181_17)"/>
</g>
<path d="M2.75818 43.4409C2.47864 43.4409 2.10592 43.2841 1.67108 42.7197C0.242323 40.7445 0.118082 38.8632 0.0249023 37.7032L0.0249023 26.6667H0.273382C0.273382 28.3284 0.801403 29.9902 1.85744 31.5579C4.18694 35.4457 4.46648 39.2708 4.24906 40.9326C4.09376 42.2808 3.56574 43.2528 2.94454 43.4095C2.88242 43.4409 2.8203 43.4409 2.75818 43.4409ZM0.273382 28.5793V37.6718C0.366563 38.7692 0.490803 40.6504 1.85744 42.563C2.10592 42.9079 2.47864 43.2841 2.88242 43.1587C3.41044 43.0333 3.87634 42.124 4.03164 40.8699C4.218 39.2395 3.96952 35.4771 1.67108 31.6519C0.987763 30.68 0.521863 29.6453 0.273382 28.5793Z" fill="url(#paint12_radial_181_17)"/>
<path d="M34.3328 55.1466C34.1431 55.1466 33.9218 55.1466 33.7321 55.1466C26.9667 55.0834 20.4226 54.1362 14.8269 52.3681C14.1314 52.1155 12.2661 51.4209 10.9067 48.895C9.7686 46.8111 9.32601 43.6537 10.6854 41.9487C11.2861 41.191 12.4874 40.4016 14.8901 41.0331C20.4858 42.8012 26.9983 43.7484 33.7321 43.8116C34.6173 43.8116 35.5025 43.8116 36.3877 43.78C39.1065 43.78 40.6556 44.7272 41.5092 45.5166C42.9002 46.8427 43.3428 48.9581 42.6473 50.9157C41.7621 53.3153 39.4543 54.894 36.4193 55.115C35.6922 55.1466 34.9967 55.1466 34.3328 55.1466ZM13.2462 41.0647C12.2029 41.0647 11.4125 41.412 10.8435 42.1066C9.54731 43.7484 9.9899 46.7795 11.0964 48.8002C12.4242 51.2314 14.1946 51.8945 14.8585 52.1471C20.4226 53.8836 26.9351 54.8624 33.7005 54.894C34.5857 54.894 35.4709 54.894 36.3561 54.8624C39.2962 54.6414 41.5408 53.1259 42.3944 50.821C43.0583 48.9581 42.6473 46.9374 41.3195 45.6744C40.5292 44.9167 39.0117 44.001 36.4509 44.001C36.4193 44.001 36.3877 44.001 36.3561 44.001C35.4709 44.0326 34.5857 44.0326 33.7005 44.0326C26.9351 43.9695 20.391 43.0222 14.7953 41.2541C14.2578 41.1278 13.7204 41.0647 13.2462 41.0647Z" fill="url(#paint13_radial_181_17)"/>
<path d="M58.828 50.3226C57.7462 50.3226 56.8235 49.9149 56.219 49.1622C55.01 47.6882 54.9782 45.0224 56.1554 42.8271C57.4917 40.3495 59.5598 39.2518 60.3234 38.8441C65.8913 36.4919 69.6138 33.4498 71.0774 30.0627C71.2365 29.7177 71.3638 29.4668 71.491 29.31L71.5228 29.2787L71.8092 29.2473L71.841 29.3414C71.9364 29.6237 71.9683 29.7177 72.0001 31.0349V34.422C71.9683 39.2204 71.6819 40.0986 71.3319 41.1962C69.8365 44.6461 66.0822 47.7195 60.4506 50.103C59.8779 50.2285 59.337 50.3226 58.828 50.3226ZM71.6501 29.4982C71.5546 29.655 71.4274 29.8746 71.3001 30.1568C69.8047 33.6066 66.0504 36.6801 60.4506 39.0636C59.687 39.4713 57.6826 40.5063 56.3781 42.9525C55.2327 45.0851 55.2645 47.6255 56.4099 49.0367C57.0144 49.7581 58.1916 50.5108 60.3552 49.8835C65.9231 47.5314 69.6138 44.4893 71.0774 41.1022C71.4274 40.0358 71.7137 39.1577 71.7456 34.422V31.0349C71.7137 29.9373 71.7137 29.6864 71.6501 29.4982Z" fill="url(#paint14_radial_181_17)"/>
<defs>
<radialGradient id="paint0_radial_181_17" cx="0" cy="0" r="1" gradientUnits="userSpaceOnUse" gradientTransform="translate(5.00672 5.33517) scale(52.5369 37.8084)">
<stop stop-color="#0F9D87"/>
<stop offset="1" stop-color="#1A1A1A"/>
</radialGradient>
<radialGradient id="paint1_radial_181_17" cx="0" cy="0" r="1" gradientUnits="userSpaceOnUse" gradientTransform="translate(14.435 44.3321) scale(41.3013 41.3591)">
<stop stop-color="#0F9D87"/>
<stop offset="1" stop-color="#1A1A1A"/>
</radialGradient>
<radialGradient id="paint2_radial_181_17" cx="0" cy="0" r="1" gradientUnits="userSpaceOnUse" gradientTransform="translate(14.435 48.5316) scale(41.3013 41.3591)">
<stop stop-color="#0F9D87"/>
<stop offset="1" stop-color="#1A1A1A"/>
</radialGradient>
<radialGradient id="paint3_radial_181_17" cx="0" cy="0" r="1" gradientUnits="userSpaceOnUse" gradientTransform="translate(14.435 54.274) scale(41.3013 41.3591)">
<stop stop-color="#0F9D87"/>
<stop offset="1" stop-color="#1A1A1A"/>
</radialGradient>
<linearGradient id="paint4_linear_181_17" x1="12.1187" y1="51.0943" x2="41.1632" y2="51.0943" gradientUnits="userSpaceOnUse">
<stop stop-color="#0F9D87"/>
<stop offset="1" stop-color="#1A1A1A"/>
</linearGradient>
<radialGradient id="paint5_radial_181_17" cx="0" cy="0" r="1" gradientUnits="userSpaceOnUse" gradientTransform="translate(6.92995 29.3345) scale(64.9153 64.5698)">
<stop stop-color="#0F9D87"/>
<stop offset="1" stop-color="#1A1A1A"/>
</radialGradient>
<linearGradient id="paint6_linear_181_17" x1="12.1187" y1="35.6868" x2="41.1632" y2="35.6868" gradientUnits="userSpaceOnUse">
<stop stop-color="#0F9D87"/>
<stop offset="1" stop-color="#1A1A1A"/>
</linearGradient>
<radialGradient id="paint7_radial_181_17" cx="0" cy="0" r="1" gradientUnits="userSpaceOnUse" gradientTransform="translate(6.92995 13.9269) scale(64.9153 64.5699)">
<stop stop-color="#0F9D87"/>
<stop offset="1" stop-color="#1A1A1A"/>
</radialGradient>
<linearGradient id="paint8_linear_181_17" x1="12.1187" y1="20.2388" x2="41.1632" y2="20.2388" gradientUnits="userSpaceOnUse">
<stop stop-color="#0F9D87"/>
<stop offset="1" stop-color="#1A1A1A"/>
</linearGradient>
<radialGradient id="paint9_radial_181_17" cx="0" cy="0" r="1" gradientUnits="userSpaceOnUse" gradientTransform="translate(6.94168 -1.56506) scale(64.9445 64.8616)">
<stop stop-color="#01C8EF"/>
<stop offset="0.1396" stop-color="#03BAE4"/>
<stop offset="0.4033" stop-color="#0895C8"/>
<stop offset="0.76" stop-color="#115A9A"/>
<stop offset="1" stop-color="#172F78"/>
</radialGradient>
<radialGradient id="paint10_radial_181_17" cx="0" cy="0" r="1" gradientUnits="userSpaceOnUse" gradientTransform="translate(53.5507 13.2135) scale(24.4242 58.4267)">
<stop stop-color="#0F9D87"/>
<stop offset="1" stop-color="#1A1A1A"/>
</radialGradient>
<radialGradient id="paint11_radial_181_17" cx="0" cy="0" r="1" gradientUnits="userSpaceOnUse" gradientTransform="translate(3.59371 19.4274) rotate(94.4439) scale(12.6493 78.109)">
<stop stop-color="#0F9D87"/>
<stop offset="1" stop-color="#1A1A1A"/>
</radialGradient>
<radialGradient id="paint12_radial_181_17" cx="0" cy="0" r="1" gradientUnits="userSpaceOnUse" gradientTransform="translate(-0.285699 26.8235) rotate(74.0297) scale(14.6755 97.1429)">
<stop stop-color="#0F9D87"/>
<stop offset="1" stop-color="#1A1A1A"/>
</radialGradient>
<radialGradient id="paint13_radial_181_17" cx="0" cy="0" r="1" gradientUnits="userSpaceOnUse" gradientTransform="translate(3.69917 39.8879) scale(52.1591 38.8501)">
<stop stop-color="#0F9D87"/>
<stop offset="1" stop-color="#1A1A1A"/>
</radialGradient>
<radialGradient id="paint14_radial_181_17" cx="0" cy="0" r="1" gradientUnits="userSpaceOnUse" gradientTransform="translate(54.0554 45.2419) rotate(-36.4006) scale(24.3105 53.2957)">
<stop stop-color="#0F9D87"/>
<stop offset="1" stop-color="#1A1A1A"/>
</radialGradient>
</defs>
</svg>
