<svg width="224" height="96" viewBox="0 0 224 96" fill="none" xmlns="http://www.w3.org/2000/svg">
<path d="M17.0106 56.4854H21.535V80.3002H17.0106V70.6718H5.68192V80.3002H1.12232V61.0098L0 56.4854H5.68192V66.1137H17.0106V56.4854Z" fill="#1A1A1A"/>
<path d="M41.2337 56.4852C42.7979 56.4852 44.1312 57.0418 45.2306 58.1519C46.33 59.2635 46.8804 60.6014 46.8804 62.1672V74.6197C46.8804 75.664 46.6312 76.6151 46.1312 77.4774C45.6327 78.3398 44.9462 79.0264 44.0731 79.5355C43.2 80.0462 42.2535 80.3016 41.2321 80.3016H31.0258C29.4616 80.3016 28.1221 79.7465 27.0105 78.6349C25.8989 77.5233 25.3439 76.1854 25.3439 74.6197V62.1672C25.3439 60.6014 25.8989 59.2635 27.0105 58.1519C28.1221 57.0403 29.4601 56.4852 31.0258 56.4852H41.2337ZM42.356 73.4958V63.2895C42.356 62.6549 42.1343 62.1213 41.6924 61.6901C41.2505 61.2589 40.7107 61.0433 40.0762 61.0433H32.1496C31.5136 61.0433 30.9815 61.2589 30.5503 61.6901C30.1191 62.1213 29.9035 62.6534 29.9035 63.2895V73.4958C29.9035 74.1319 30.1191 74.664 30.5503 75.0952C30.9815 75.5264 31.5136 75.742 32.1496 75.742H40.0762C40.7107 75.742 41.2505 75.5264 41.6924 75.0952C42.1358 74.6655 42.356 74.1319 42.356 73.4958Z" fill="#1A1A1A"/>
<path d="M65.4231 66.1137C66.9889 66.1137 68.3268 66.6702 69.4384 67.7803C70.55 68.8919 71.1051 70.2298 71.1051 71.7956V74.6197C71.1051 75.6641 70.8497 76.6151 70.339 77.4775C69.8283 78.3399 69.1372 79.0264 68.2641 79.5356C67.391 80.0463 66.4445 80.3016 65.4231 80.3016H55.7948C54.2306 80.3016 52.8911 79.7466 51.781 78.635C50.6694 77.5234 50.1144 76.1855 50.1144 74.6197V73.4974H54.674C54.674 74.1335 54.8896 74.6656 55.3208 75.0968C55.752 75.528 56.2841 75.7436 56.9201 75.7436H64.3024C64.7106 75.7436 65.0852 75.6472 65.4247 75.4546C65.7656 75.2619 66.0378 74.9897 66.2412 74.6381C66.4445 74.2864 66.547 73.9072 66.547 73.4989V72.9194C66.547 72.3078 66.3253 71.7803 65.8834 71.3384C65.4415 70.8965 64.914 70.6748 64.3008 70.6748H55.7948C54.2306 70.6748 52.8911 70.1198 51.781 69.0081C50.6694 67.8965 50.1144 66.5586 50.1144 64.9929V62.1687C50.1144 60.603 50.6694 59.2651 51.781 58.1535C52.8926 57.0419 54.2306 56.4868 55.7948 56.4868H64.8452C66.4109 56.4868 67.7488 57.0434 68.8604 58.1535C69.972 59.2651 70.5271 60.603 70.5271 62.1687V63.2911H65.9675C65.9675 62.6565 65.7519 62.1229 65.3207 61.6917C64.8895 61.2605 64.3559 61.0449 63.7213 61.0449H56.9171C56.5088 61.0449 56.1281 61.1412 55.7779 61.3339C55.4263 61.5265 55.148 61.7987 54.9446 62.1504C54.7413 62.5021 54.6388 62.8813 54.6388 63.2895V63.869C54.6388 64.4806 54.8605 65.0082 55.3024 65.4501C55.7443 65.8919 56.2841 66.1137 56.9186 66.1137H65.4231Z" fill="#1A1A1A"/>
<path d="M72.0912 56.4852H94.7837V61.0097H86.2776V80.3H81.718V61.0097H73.212L72.0912 56.4852Z" fill="#1A1A1A"/>
<path d="M112.646 56.4852C114.212 56.4852 115.544 57.0418 116.643 58.1519C117.742 59.2635 118.293 60.6014 118.293 62.1672V74.6197C118.293 75.664 118.042 76.6151 117.544 77.4774C117.045 78.3398 116.359 79.0264 115.485 79.5355C114.612 80.0462 113.666 80.3016 112.644 80.3016H102.438C100.874 80.3016 99.5345 79.7465 98.4229 78.6349C97.3113 77.5233 96.7562 76.1854 96.7562 74.6197V62.1672C96.7562 60.6014 97.3113 59.2635 98.4229 58.1519C99.5345 57.0403 100.872 56.4852 102.438 56.4852H112.646ZM113.768 73.4958V63.2895C113.768 62.6549 113.547 62.1213 113.105 61.6901C112.663 61.2589 112.123 61.0433 111.489 61.0433H103.562C102.926 61.0433 102.394 61.2589 101.963 61.6901C101.531 62.1213 101.316 62.6534 101.316 63.2895V73.4958C101.316 74.1319 101.531 74.664 101.963 75.0952C102.394 75.5264 102.926 75.742 103.562 75.742H111.489C112.123 75.742 112.661 75.5264 113.105 75.0952C113.548 74.6655 113.768 74.1319 113.768 73.4958Z" fill="#1A1A1A"/>
<path d="M135.372 70.6733L143.878 80.3016H138.196L129.69 70.6733H126.866V80.3016H122.308V66.1152H136.494C137.129 66.1152 137.663 65.8935 138.094 65.4516C138.525 65.0097 138.741 64.4822 138.741 63.8706V63.2911C138.741 62.6565 138.525 62.1229 138.094 61.6917C137.663 61.2605 137.129 61.0449 136.494 61.0449H122.308V61.0113L121.184 56.4868H137.617C139.183 56.4868 140.52 57.0434 141.632 58.1535C142.744 59.2651 143.299 60.603 143.299 62.1687V64.9929C143.299 66.5586 142.742 67.8965 141.632 69.0081C140.52 70.1198 139.183 70.6748 137.617 70.6748H135.372V70.6733Z" fill="#1A1A1A"/>
<path d="M145.919 56.4852H151.601V80.3H147.042V61.0097L145.919 56.4852Z" fill="#1A1A1A"/>
<path d="M174.905 61.0097H155.615L154.493 56.4852H174.905V61.0097ZM162.419 75.742L175.483 75.7756V80.3H161.297C159.731 80.3 158.393 79.745 157.282 78.6334C156.17 77.5218 155.615 76.1839 155.615 74.6181V66.1121H173.204V70.6717H160.173V73.4958C160.173 74.1319 160.395 74.664 160.837 75.0952C161.28 75.5264 161.808 75.742 162.419 75.742Z" fill="#1A1A1A"/>
<path d="M194.639 56.4852H199.165V80.3H194.639L183.309 64.4118V80.3H178.75V61.0097L177.627 56.4852H183.309L194.639 72.3735V56.4852Z" fill="#1A1A1A"/>
<path d="M201.307 56.4852H224V61.0097H215.494V80.3H210.934V61.0097H202.428L201.307 56.4852Z" fill="#1A1A1A"/>
<path d="M22.6237 87.7924V88.8856H19.4173C18.8516 88.8856 18.6024 89.1914 18.6024 89.6272C18.6024 90.0064 18.7965 90.3688 19.529 90.3688H20.9938C22.6987 90.3688 23.0977 91.3137 23.0977 92.2128C23.0977 93.2694 22.532 94.0477 21.1054 94.0477H17.6207V92.9544H21.1421C21.7354 92.9544 22.0045 92.6303 22.0045 92.1761C22.0045 91.7679 21.7919 91.3978 21.0228 91.3978H19.5672C17.899 91.3978 17.5106 90.4621 17.5106 89.5905C17.5106 88.5523 18.0672 87.7924 19.4571 87.7924H22.6237Z" fill="black"/>
<path d="M27.4449 89.1547C28.6023 89.1547 29.0947 89.7113 29.0947 90.6562C29.0947 91.5553 28.6406 92.0645 27.4357 92.0645H25.11V92.4162C25.11 92.8061 25.3225 93.0935 25.8608 93.0935H28.8531V94.0477H25.8608C24.6375 94.0477 24.1559 93.3611 24.1559 92.4345V90.7663C24.1559 89.8397 24.6375 89.1532 25.8608 89.1532H27.4449V89.1547ZM25.11 91.2954H27.4082C27.9357 91.2954 28.1314 91.0737 28.1314 90.7113C28.1314 90.3413 27.9189 90.0997 27.4357 90.0997H25.8608C25.3241 90.0997 25.11 90.3963 25.11 90.777V91.2954Z" fill="black"/>
<path d="M33.4325 89.1547C34.6557 89.1547 35.1374 89.8412 35.1374 90.7678V93.0659C35.1374 93.7693 34.9523 94.0476 34.1267 94.0476H31.8377C30.6787 94.0476 30.197 93.4818 30.197 92.5552C30.197 91.6653 30.642 91.147 31.8469 91.147H34.1725V90.777C34.1725 90.3962 33.96 90.0996 33.4218 90.0996H30.4937V89.1547H33.4325ZM34.1741 92.8442V91.9268H31.8667C31.3484 91.9268 31.1618 92.1394 31.1618 92.5017C31.1618 92.8626 31.356 93.095 31.8484 93.095H33.9049C34.1007 93.0935 34.1741 93.0201 34.1741 92.8442Z" fill="black"/>
<path d="M42.2474 89.1547C43.9064 89.1547 44.7214 89.9421 44.7214 91.2953V94.0476H43.7306V91.2953C43.7306 90.5262 43.2856 90.0996 42.2566 90.0996H41.1083V94.0476H40.1175V90.0996H37.6343C37.5517 90.0996 37.5135 90.1455 37.5135 90.2387V94.0476H36.5319V89.9146C36.5319 89.3397 36.726 89.1547 37.2184 89.1547H42.2474Z" fill="black"/>
<path d="M47.0792 87.0339V94.0492H46.0975V87.0339H47.0792Z" fill="black"/>
<path d="M51.6756 89.1547C52.8331 89.1547 53.3254 89.7113 53.3254 90.6562C53.3254 91.5553 52.8713 92.0645 51.6664 92.0645H49.3407V92.4162C49.3407 92.8061 49.5533 93.0935 50.0915 93.0935H53.0838V94.0477H50.0915C48.8682 94.0477 48.3866 93.3611 48.3866 92.4345V90.7663C48.3866 89.8397 48.8682 89.1532 50.0915 89.1532H51.6756V89.1547ZM49.3407 91.2954H51.6389C52.1664 91.2954 52.3621 91.0737 52.3621 90.7113C52.3621 90.3413 52.1496 90.0997 51.6664 90.0997H50.0915C49.5548 90.0997 49.3407 90.3963 49.3407 90.777V91.2954Z" fill="black"/>
<path d="M58.6097 89.1547V90.0996H55.9033C55.4492 90.0996 55.2642 90.2846 55.2642 90.6562C55.2642 90.9987 55.4125 91.1852 55.9599 91.1852H57.1098C58.463 91.1852 58.8055 91.806 58.8055 92.566C58.8055 93.4375 58.3513 94.0491 57.203 94.0491H54.3575V93.095H57.203C57.6571 93.095 57.8422 92.9375 57.8422 92.5568C57.8422 92.1669 57.6388 92.0094 57.1464 92.0094H55.9874C54.6342 92.0094 54.3009 91.332 54.3009 90.5828C54.3009 89.7021 54.755 89.1562 55.8942 89.1562H58.6097V89.1547Z" fill="black"/>
<path d="M64.0408 89.1547V90.0996H61.3344C60.8803 90.0996 60.6952 90.2846 60.6952 90.6562C60.6952 90.9987 60.8436 91.1852 61.3909 91.1852H62.5408C63.894 91.1852 64.2365 91.806 64.2365 92.566C64.2365 93.4375 63.7824 94.0491 62.6341 94.0491H59.7885V93.095H62.6341C63.0882 93.095 63.2732 92.9375 63.2732 92.5568C63.2732 92.1669 63.0698 92.0094 62.5775 92.0094H61.4185C60.0653 92.0094 59.7319 91.332 59.7319 90.5828C59.7319 89.7021 60.1861 89.1562 61.3252 89.1562H64.0408V89.1547Z" fill="black"/>
<path d="M69.0194 87.7924V90.3413H72.2166V87.7924H73.3191V94.0477H72.2166V91.4345H69.0194V94.0477H67.9261V87.7924H69.0194Z" fill="black"/>
<path d="M77.6952 89.1547C78.9918 89.1547 79.8175 89.9513 79.8175 91.6011C79.8175 93.251 78.9933 94.0476 77.6952 94.0476H76.6661C75.3588 94.0476 74.5438 93.251 74.5438 91.6011C74.5438 89.9513 75.3588 89.1547 76.6661 89.1547H77.6952ZM76.7594 90.1011C75.9062 90.1011 75.5362 90.5461 75.5362 91.6027C75.5362 92.6592 75.9062 93.095 76.7594 93.095H77.6019C78.4444 93.095 78.8251 92.6592 78.8251 91.6027C78.8251 90.5461 78.4459 90.1011 77.6019 90.1011H76.7594Z" fill="black"/>
<path d="M85.0743 89.1547V90.0996H82.3679C81.9138 90.0996 81.7288 90.2846 81.7288 90.6562C81.7288 90.9987 81.8771 91.1852 82.4245 91.1852H83.5744C84.9276 91.1852 85.2701 91.806 85.2701 92.566C85.2701 93.4375 84.8159 94.0491 83.6676 94.0491H80.8221V93.095H83.6676C84.1218 93.095 84.3068 92.9375 84.3068 92.5568C84.3068 92.1669 84.1034 92.0094 83.6111 92.0094H82.452C81.0988 92.0094 80.7655 91.332 80.7655 90.5828C80.7655 89.7021 81.2196 89.1562 82.3588 89.1562H85.0743V89.1547Z" fill="black"/>
<path d="M86.6049 89.1547V87.9973H87.5957V89.1547H88.9489V90.0997H87.5957V92.4162C87.5957 92.9636 87.7899 93.1486 88.2532 93.1486H88.9306V94.0477H88.0498C87.0391 94.0477 86.6049 93.6394 86.6049 92.3611V90.0997H85.9382V89.1547H86.6049Z" fill="black"/>
<path d="M90.897 87.3122V88.4513H89.9047V87.3122H90.897ZM90.8878 89.1547V94.0476H89.9062V89.1547H90.8878Z" fill="black"/>
<path d="M95.0025 89.1547C96.6615 89.1547 97.4673 89.9421 97.4673 91.2953V94.0476H96.4765V91.2953C96.4765 90.5262 96.0315 90.0996 95.0025 90.0996H93.4C93.3175 90.0996 93.2792 90.1455 93.2792 90.2387V94.0476H92.2976V89.9146C92.2976 89.3397 92.4918 89.1547 92.9841 89.1547H95.0025Z" fill="black"/>
<path d="M102.094 89.1547C103.262 89.1547 103.892 89.8412 103.892 91.2495V94.0659C103.892 95.4558 103.411 96.0032 102.039 96.0032H99.1294V95.0583H101.928C102.66 95.0583 102.9 94.7708 102.9 94.0675V93.8458H100.741C99.4336 93.8458 98.6187 93.0767 98.6187 91.4926C98.6187 89.9177 99.4336 89.1577 100.741 89.1577H102.094V89.1547ZM100.833 92.9543H102.898V91.2403C102.898 90.4436 102.593 90.1011 101.805 90.1011H100.833C99.9902 90.1011 99.6095 90.5277 99.6095 91.5277C99.6095 92.5277 99.9902 92.9543 100.833 92.9543Z" fill="black"/>
<path d="M106.349 92.7878V94.2893C106.349 95.17 105.961 95.6058 105.145 95.6058H104.82V94.7985H104.932C105.183 94.7985 105.293 94.6777 105.293 94.3994V92.7878H106.349Z" fill="black"/>
<path d="M115.172 87.7924V88.8856H112.041C111.383 88.8856 111.096 89.1914 111.096 89.6731C111.096 90.1823 111.42 90.4131 112.05 90.4131H115.126V91.4055H112.022C111.392 91.4055 111.068 91.6563 111.068 92.1654C111.068 92.6562 111.374 92.9529 112.013 92.9529H115.183V94.0461H112.013C110.53 94.0461 109.927 93.3137 109.927 92.3413C109.927 91.6272 110.252 91.1456 110.826 90.904C110.242 90.6639 109.946 90.1823 109.946 89.4957C109.946 88.4957 110.567 87.7908 112.041 87.7908H115.172V87.7924Z" fill="black"/>
<path d="M119.252 89.1547C120.911 89.1547 121.716 89.9421 121.716 91.2953V94.0476H120.725V91.2953C120.725 90.5262 120.281 90.0996 119.252 90.0996H117.649C117.565 90.0996 117.528 90.1455 117.528 90.2387V94.0476H116.547V89.9146C116.547 89.3397 116.741 89.1547 117.233 89.1547H119.252Z" fill="black"/>
<path d="M128.14 87.0339V91.9544C128.14 93.3626 127.51 94.0492 126.342 94.0492H124.988C123.681 94.0492 122.866 93.2525 122.866 91.6027C122.866 89.9529 123.681 89.1562 124.988 89.1562H127.147V87.0339H128.14ZM127.149 91.907V90.0997H125.082C124.239 90.0997 123.858 90.5446 123.858 91.6012C123.858 92.6577 124.238 93.0935 125.082 93.0935H126.054C126.843 93.0935 127.149 92.7418 127.149 91.907Z" fill="black"/>
<path d="M130.524 87.0339V94.0492H129.542V87.0339H130.524Z" fill="black"/>
<path d="M135.121 89.1547C136.279 89.1547 136.771 89.7113 136.771 90.6562C136.771 91.5553 136.317 92.0645 135.112 92.0645H132.785V92.4162C132.785 92.8061 132.999 93.0935 133.536 93.0935H136.528V94.0477H133.536C132.312 94.0477 131.831 93.3611 131.831 92.4345V90.7663C131.831 89.8397 132.312 89.1532 133.536 89.1532H135.121V89.1547ZM132.785 91.2954H135.083C135.612 91.2954 135.806 91.0737 135.806 90.7113C135.806 90.3413 135.592 90.0997 135.111 90.0997H133.536C132.997 90.0997 132.785 90.3963 132.785 90.777V91.2954Z" fill="black"/>
<path d="M142.054 89.1547V90.0996H139.348C138.893 90.0996 138.708 90.2846 138.708 90.6562C138.708 90.9987 138.857 91.1852 139.404 91.1852H140.553C141.906 91.1852 142.248 91.806 142.248 92.566C142.248 93.4375 141.794 94.0491 140.644 94.0491H137.8V93.095H140.644C141.098 93.095 141.283 92.9375 141.283 92.5568C141.283 92.1669 141.08 92.0094 140.588 92.0094H139.43C138.077 92.0094 137.744 91.332 137.744 90.5828C137.744 89.7021 138.198 89.1562 139.337 89.1562H142.054V89.1547Z" fill="black"/>
<path d="M147.487 89.1547V90.0996H144.78C144.326 90.0996 144.141 90.2846 144.141 90.6562C144.141 90.9987 144.29 91.1852 144.837 91.1852H145.985C147.338 91.1852 147.681 91.806 147.681 92.566C147.681 93.4375 147.227 94.0491 146.077 94.0491H143.233V93.095H146.077C146.531 93.095 146.716 92.9375 146.716 92.5568C146.716 92.1669 146.513 92.0094 146.02 92.0094H144.863C143.51 92.0094 143.176 91.332 143.176 90.5828C143.176 89.7021 143.631 89.1562 144.77 89.1562H147.487V89.1547Z" fill="black"/>
<path d="M154.56 87.7924C155.968 87.7924 156.571 88.6639 156.571 89.6639C156.571 90.6089 156.023 91.6287 154.56 91.6287H152.614C152.511 91.6287 152.456 91.6746 152.456 91.7862V94.0477H151.363V91.5737C151.363 90.8703 151.659 90.5829 152.344 90.5829H154.597C155.218 90.5829 155.467 90.1563 155.467 89.7205C155.467 89.2664 155.198 88.8872 154.606 88.8872H151.354V87.7939H154.56V87.7924Z" fill="black"/>
<path d="M160.418 89.1547C161.716 89.1547 162.54 89.9513 162.54 91.6011C162.54 93.251 161.716 94.0476 160.418 94.0476H159.389C158.083 94.0476 157.268 93.251 157.268 91.6011C157.268 89.9513 158.083 89.1547 159.389 89.1547H160.418ZM159.482 90.1011C158.63 90.1011 158.259 90.5461 158.259 91.6027C158.259 92.6592 158.629 93.095 159.482 93.095H160.325C161.167 93.095 161.548 92.6592 161.548 91.6027C161.548 90.5461 161.167 90.1011 160.325 90.1011H159.482Z" fill="black"/>
<path d="M167.797 89.1547V90.0996H165.091C164.636 90.0996 164.451 90.2846 164.451 90.6562C164.451 90.9987 164.6 91.1852 165.147 91.1852H166.295C167.649 91.1852 167.991 91.806 167.991 92.566C167.991 93.4375 167.537 94.0491 166.387 94.0491H163.543V93.095H166.387C166.841 93.095 167.026 92.9375 167.026 92.5568C167.026 92.1669 166.823 92.0094 166.331 92.0094H165.173C163.82 92.0094 163.487 91.332 163.487 90.5828C163.487 89.7021 163.941 89.1562 165.08 89.1562H167.797V89.1547Z" fill="black"/>
<path d="M173.228 89.1547V90.0996H170.522C170.068 90.0996 169.883 90.2846 169.883 90.6562C169.883 90.9987 170.031 91.1852 170.578 91.1852H171.727C173.08 91.1852 173.422 91.806 173.422 92.566C173.422 93.4375 172.968 94.0491 171.818 94.0491H168.974V93.095H171.818C172.272 93.095 172.457 92.9375 172.457 92.5568C172.457 92.1669 172.254 92.0094 171.762 92.0094H170.604C169.251 92.0094 168.918 91.332 168.918 90.5828C168.918 89.7021 169.372 89.1562 170.511 89.1562H173.228V89.1547Z" fill="black"/>
<path d="M175.575 87.3122V88.4513H174.584V87.3122H175.575ZM175.566 89.1547V94.0476H174.584V89.1547H175.566Z" fill="black"/>
<path d="M177.956 87.0339V89.1562H180.124C181.421 89.1562 182.237 89.9529 182.237 91.6027C182.237 93.2525 181.422 94.0492 180.124 94.0492H178.771C177.594 94.0492 176.973 93.3626 176.973 91.9544V87.0339H177.956ZM177.956 90.1012V91.9085C177.956 92.7418 178.262 93.095 179.058 93.095H180.022C180.873 93.095 181.245 92.6593 181.245 91.6027C181.245 90.5461 180.873 90.1012 180.022 90.1012H177.956Z" fill="black"/>
<path d="M184.409 87.3122V88.4513H183.418V87.3122H184.409ZM184.399 89.1547V94.0476H183.418V89.1547H184.399Z" fill="black"/>
<path d="M186.791 87.0339V94.0492H185.809V87.0339H186.791Z" fill="black"/>
<path d="M189.191 87.3122V88.4513H188.2V87.3122H189.191ZM189.182 89.1547V94.0476H188.2V89.1547H189.182Z" fill="black"/>
<path d="M190.768 89.1547V87.9973H191.759V89.1547H193.112V90.0997H191.759V92.4162C191.759 92.9636 191.953 93.1486 192.416 93.1486H193.093V94.0477H192.213C191.204 94.0477 190.768 93.6394 190.768 92.3611V90.0997H190.1V89.1547H190.768Z" fill="black"/>
<path d="M195.06 87.3122V88.4513H194.069V87.3122H195.06ZM195.051 89.1547V94.0476H194.069V89.1547H195.051Z" fill="black"/>
<path d="M199.647 89.1547C200.804 89.1547 201.297 89.7113 201.297 90.6562C201.297 91.5553 200.843 92.0645 199.638 92.0645H197.312V92.4162C197.312 92.8061 197.525 93.0935 198.063 93.0935H201.055V94.0477H198.063C196.84 94.0477 196.358 93.3611 196.358 92.4345V90.7663C196.358 89.8397 196.84 89.1532 198.063 89.1532H199.647V89.1547ZM197.312 91.2954H199.61C200.139 91.2954 200.334 91.0737 200.334 90.7113C200.334 90.3413 200.119 90.0997 199.638 90.0997H198.063C197.525 90.0997 197.312 90.3963 197.312 90.777V91.2954Z" fill="black"/>
<path d="M206.581 89.1547V90.0996H203.875C203.421 90.0996 203.236 90.2846 203.236 90.6562C203.236 90.9987 203.384 91.1852 203.931 91.1852H205.08C206.433 91.1852 206.775 91.806 206.775 92.566C206.775 93.4375 206.321 94.0491 205.171 94.0491H202.327V93.095H205.171C205.625 93.095 205.81 92.9375 205.81 92.5568C205.81 92.1669 205.607 92.0094 205.115 92.0094H203.957C202.604 92.0094 202.271 91.332 202.271 90.5828C202.271 89.7021 202.725 89.1562 203.864 89.1562H206.581V89.1547Z" fill="black"/>
<path d="M126.013 17.0146C123.875 15.8372 121.221 15.0987 118.042 14.8464L117.644 14.8204C117.611 14.8158 117.568 14.8158 117.53 14.8158C117.313 14.799 117.091 14.7822 116.868 14.7776H116.851C116.51 14.7608 116.169 14.7562 115.819 14.7516C115.716 14.747 115.609 14.747 115.504 14.747H104.128C103.781 14.747 103.496 14.4626 103.496 14.1155V6.65841C103.496 5.72416 103.125 4.82662 102.464 4.16607L98.9871 0.689032C98.4534 0.155397 97.7287 -0.0709021 97.0375 0.0193113C96.8158 0.11717 96.6583 0.338882 96.6583 0.595761V2.03C96.6583 2.37709 96.9427 2.66149 97.2898 2.66149H97.3235C97.9412 2.66149 98.5345 2.90767 98.9718 3.34345L100.661 5.03304C101.814 6.18593 101.814 8.0743 100.661 9.2272L98.9733 10.9153C98.5345 11.3541 97.9397 11.6003 97.3204 11.6003H97.2898C96.9427 11.6003 96.6583 11.8847 96.6583 12.2318V13.3373C96.6583 13.7088 96.9641 13.9963 97.3342 13.9993C97.5972 14.0009 97.8525 14.0483 98.0956 14.1354C98.4244 14.247 98.7179 14.4336 98.9702 14.6859L101.108 16.8235C102.016 17.7317 102.016 19.2088 101.108 20.1216L99.1063 22.1231C98.851 22.3785 98.4412 22.6399 98.0268 22.7974C97.7822 22.8907 97.5421 22.9458 97.3311 22.9427C96.9672 22.9381 96.6568 23.1965 96.6568 23.5604V23.8983C96.6568 24.2454 96.9412 24.5298 97.2883 24.5298H97.3189C97.588 24.5298 97.8571 24.5772 98.1033 24.6705C98.4274 24.7821 98.7256 24.9687 98.9733 25.2164L100.658 26.9014C101.811 28.0543 101.811 29.9426 100.658 31.0955L98.9733 32.7806C98.5329 33.2209 97.9366 33.4671 97.3143 33.4671H97.2868C96.9397 33.4671 96.6553 33.7515 96.6553 34.0986V36.2882C96.6553 36.6353 96.9397 36.9197 97.2868 36.9197H97.3173C97.9381 36.9197 98.5329 37.1658 98.9702 37.6047L100.658 39.2927C101.811 40.4456 101.811 42.334 100.658 43.4869L98.9687 45.1765C98.5314 45.6184 97.9473 45.8569 97.328 45.8584C96.9595 45.86 96.6568 46.1505 96.6568 46.5205V48.1933C96.6568 48.5404 96.9412 48.8248 97.2883 48.8248H102.865C103.212 48.8248 103.496 48.5404 103.496 48.1933V21.9595C103.496 21.6522 103.723 21.3923 104.013 21.3403C104.051 21.3311 104.089 21.328 104.128 21.328H115.504C115.828 21.328 116.144 21.3326 116.447 21.3494C122.609 21.6017 125.514 24.409 125.748 29.0252C125.791 29.2775 125.855 29.3616 126.001 29.4992C126.146 29.6445 126.355 29.6919 126.56 29.6919H128.395C129.782 29.6919 130.912 29.487 131.748 29.0818C131.97 28.9794 132.17 28.8601 132.354 28.7271C132.533 28.594 132.635 28.3815 132.618 28.1644C132.264 23.0742 130.071 19.2501 126.013 17.0146Z" fill="url(#paint0_linear_28_71)"/>
<path d="M142.962 16.7286C142.962 16.724 142.962 16.724 142.962 16.724C142.95 16.6521 142.932 16.5742 142.915 16.5023C142.062 12.2057 140.077 9.15067 137.21 7.299C134.979 5.85712 132.208 5.14917 129.022 5.14917H122.054C120.868 5.14917 119.745 5.24703 118.687 5.44427C114.745 6.16139 111.703 8.2256 109.829 11.6904C109.603 12.1078 109.91 12.617 110.384 12.617H115.505C116.23 12.617 116.93 12.6384 117.617 12.6812C117.741 12.6904 117.855 12.6598 117.962 12.6002C118.253 12.4289 118.56 12.2852 118.889 12.1568C118.894 12.1614 118.894 12.1614 118.894 12.1568C119.952 11.7424 121.21 11.5513 122.683 11.5513H128.397C131.409 11.5513 133.551 12.3922 134.904 14.2393C135.741 15.383 136.274 16.9182 136.517 18.8815C136.629 19.7439 136.684 20.6858 136.684 21.7194C136.684 25.1934 136.078 27.6765 134.802 29.3096C134.738 29.3906 134.673 29.467 134.609 29.5435C134.071 30.1628 133.427 30.6444 132.672 31.0068C131.516 31.5618 130.091 31.8264 128.397 31.8264H122.683C120.204 31.8264 118.322 31.2805 116.99 30.0894C116.742 29.8677 116.511 29.6291 116.303 29.3646C116.303 29.36 116.299 29.36 116.299 29.3554C115.663 28.5573 115.193 27.542 114.883 26.305C114.709 25.6184 114.58 24.8677 114.504 24.0389C114.473 23.7362 114.244 23.5007 113.944 23.4717C113.923 23.4625 113.901 23.4625 113.875 23.4625H108.401C108.039 23.4625 107.744 23.7744 107.774 24.1368C107.903 25.7454 108.158 27.2132 108.542 28.5404C110.138 34.1383 113.906 37.2881 119.213 38.0817C120.118 38.2178 121.065 38.2866 122.054 38.2866H129.022C129.146 38.2866 129.27 38.2866 129.394 38.282C129.624 38.2774 129.854 38.2697 130.08 38.256C130.43 38.2437 130.776 38.2132 131.112 38.1749C131.646 38.1199 132.166 38.0389 132.67 37.9364C133.416 37.7866 134.126 37.5817 134.803 37.3263C140.184 35.3386 143.396 30.1872 143.396 21.7179C143.398 19.8998 143.248 18.2393 142.962 16.7286Z" fill="url(#paint1_linear_28_71)"/>
<path d="M143.398 21.7164C143.398 30.1857 140.186 35.3355 134.805 37.3248C134.126 37.5802 133.418 37.7851 132.672 37.9349C132.169 38.0373 131.647 38.1184 131.114 38.1734C130.777 38.2117 130.432 38.2422 130.082 38.2545C129.855 38.2667 129.624 38.2759 129.395 38.2805C129.271 38.285 129.147 38.285 129.024 38.285H122.056C121.066 38.285 120.118 38.2162 119.215 38.0802L125.828 31.8248H128.397C130.091 31.8248 131.516 31.5603 132.672 31.0053C133.427 30.6429 134.071 30.1597 134.609 29.542C136.675 27.6811 139.494 23.9396 142.916 16.5023C142.933 16.5742 142.95 16.6522 142.964 16.724C142.964 16.724 142.964 16.724 142.964 16.7286C143.248 18.2393 143.398 19.8999 143.398 21.7164Z" fill="url(#paint2_linear_28_71)"/>
<path d="M97.1767 10.6125L93.8419 7.27764C93.7623 7.19813 93.7623 7.06663 93.8419 6.98712L97.1767 3.65228C97.2562 3.57277 97.3877 3.57277 97.4672 3.65228L100.802 6.98712C100.882 7.06663 100.882 7.19813 100.802 7.27764L97.4672 10.6125C97.3862 10.692 97.2562 10.692 97.1767 10.6125Z" fill="url(#paint3_linear_28_71)"/>
<path d="M97.1767 44.8707L93.8419 41.5358C93.7623 41.4563 93.7623 41.3248 93.8419 41.2453L97.1767 37.9105C97.2562 37.831 97.3877 37.831 97.4672 37.9105L100.802 41.2453C100.882 41.3248 100.882 41.4563 100.802 41.5358L97.4672 44.8707C97.3862 44.9517 97.2562 44.9517 97.1767 44.8707Z" fill="url(#paint4_linear_28_71)"/>
<path d="M97.1767 32.4794L93.8419 29.1446C93.7623 29.0651 93.7623 28.9336 93.8419 28.8541L97.1767 25.5192C97.2562 25.4397 97.3877 25.4397 97.4672 25.5192L100.802 28.8541C100.882 28.9336 100.882 29.0651 100.802 29.1446L97.4672 32.4794C97.3862 32.5605 97.2562 32.5605 97.1767 32.4794Z" fill="url(#paint5_linear_28_71)"/>
<path d="M85.5147 31.1399L83.5193 29.1445C83.4398 29.065 83.4398 28.9335 83.5193 28.854L85.5147 26.8586C85.5943 26.7791 85.7258 26.7791 85.8053 26.8586L87.8007 28.854C87.8802 28.9335 87.8802 29.065 87.8007 29.1445L85.8053 31.1399C85.7242 31.2194 85.5943 31.2194 85.5147 31.1399Z" fill="url(#paint6_linear_28_71)"/>
<path d="M85.5147 20.3831L83.5193 18.3877C83.4398 18.3082 83.4398 18.1767 83.5193 18.0971L85.5147 16.1017C85.5943 16.0222 85.7258 16.0222 85.8053 16.1017L87.8007 18.0971C87.8802 18.1767 87.8802 18.3082 87.8007 18.3877L85.8053 20.3831C85.7242 20.4641 85.5943 20.4641 85.5147 20.3831Z" fill="url(#paint7_linear_28_71)"/>
<path d="M97.1767 21.9504L93.8419 18.6155C93.7623 18.536 93.7623 18.4045 93.8419 18.325L97.1767 14.9902C97.2562 14.9107 97.3877 14.9107 97.4672 14.9902L100.802 18.325C100.882 18.4045 100.882 18.536 100.802 18.6155L97.4672 21.9504C97.3862 22.0314 97.2562 22.0314 97.1767 21.9504Z" fill="url(#paint8_linear_28_71)"/>
<path d="M90.6966 15.6186L88.1064 13.0284C88.0269 12.9488 88.0269 12.8174 88.1064 12.7378L90.6966 10.1476C90.7761 10.0681 90.9076 10.0681 90.9871 10.1476L93.5773 12.7378C93.6568 12.8174 93.6568 12.9488 93.5773 13.0284L90.9871 15.6186C90.9076 15.6981 90.7776 15.6981 90.6966 15.6186Z" fill="url(#paint9_linear_28_71)"/>
<path d="M90.6966 37.9901L88.1064 35.3999C88.0269 35.3204 88.0269 35.1889 88.1064 35.1094L90.6966 32.5192C90.7761 32.4397 90.9076 32.4397 90.9871 32.5192L93.5773 35.1094C93.6568 35.1889 93.6568 35.3204 93.5773 35.3999L90.9871 37.9901C90.9076 38.0696 90.7776 38.0696 90.6966 37.9901Z" fill="url(#paint10_linear_28_71)"/>
<path d="M90.6966 26.3006L88.1064 23.7104C88.0269 23.6309 88.0269 23.4994 88.1064 23.4198L90.6966 20.8297C90.7761 20.7501 90.9076 20.7501 90.9871 20.8297L93.5773 23.4198C93.6568 23.4994 93.6568 23.6309 93.5773 23.7104L90.9871 26.3006C90.9076 26.3801 90.7776 26.3801 90.6966 26.3006Z" fill="url(#paint11_linear_28_71)"/>
<path d="M81.1675 25.3586L79.4657 23.6567C79.4152 23.6063 79.4152 23.5252 79.4657 23.4748L81.1675 21.773C81.218 21.7225 81.299 21.7225 81.3495 21.773L83.0513 23.4748C83.1018 23.5252 83.1018 23.6063 83.0513 23.6567L81.3495 25.3586C81.3006 25.409 81.218 25.409 81.1675 25.3586Z" fill="url(#paint12_linear_28_71)"/>
<path d="M132.67 40.8448V48.1918C132.67 48.5374 132.384 48.8233 132.039 48.8233H126.398C126.155 48.8233 125.938 48.6781 125.839 48.4732C125.791 48.3875 125.767 48.2943 125.767 48.1918V41.0497C125.767 40.7041 126.053 40.4182 126.398 40.4182H129.022C130.042 40.4182 131.019 40.3494 131.962 40.2179C132.339 40.1674 132.67 40.4656 132.67 40.8448Z" fill="url(#paint13_linear_28_71)"/>
<path d="M130.08 38.2545C129.854 38.2668 129.623 38.2759 129.394 38.2805C129.27 38.2851 129.146 38.2851 129.022 38.2851H122.054C115.248 38.2851 110.411 35.094 108.541 28.539C108.157 27.2118 107.9 25.7439 107.773 24.1354C107.742 23.773 108.037 23.4611 108.4 23.4611H113.874C113.9 23.4611 113.921 23.4611 113.943 23.4702C114.241 23.5008 114.472 23.7348 114.502 24.0375C114.579 24.8647 114.707 25.617 114.881 26.3035C115.193 27.5405 115.663 28.5558 116.297 29.354C116.297 29.3586 116.302 29.3586 116.302 29.3632C118.172 32.435 122.068 35.8952 130.08 38.2545Z" fill="url(#paint14_linear_28_71)"/>
<path d="M137.21 7.29907C127.349 7.83729 121.392 10.666 118.892 12.1553C118.892 12.1599 118.892 12.1599 118.887 12.1553C118.559 12.2837 118.251 12.429 117.961 12.5987C117.854 12.6584 117.739 12.6889 117.615 12.6798C116.929 12.6369 116.228 12.6155 115.504 12.6155H110.383C109.909 12.6155 109.602 12.1079 109.828 11.6889C111.701 8.22414 114.744 6.1584 118.686 5.44281C119.744 5.24709 120.866 5.14771 122.053 5.14771H129.02C132.21 5.14923 134.979 5.85718 137.21 7.29907Z" fill="url(#paint15_linear_28_71)"/>
<path d="M132.62 28.1644C132.637 28.3815 132.534 28.5955 132.355 28.727C132.172 28.8585 131.972 28.9793 131.75 29.0818C130.914 29.487 129.784 29.6919 128.397 29.6919H126.562C126.357 29.6919 126.148 29.6445 126.002 29.4992C125.857 29.3631 125.793 29.2775 125.75 29.0252C125.516 24.409 122.609 21.6002 116.449 21.3494C116.146 21.3326 115.83 21.328 115.505 21.328H104.129C104.091 21.328 104.053 21.3326 104.015 21.3402C105.056 20.7042 115.475 14.5987 126.014 17.0131C130.073 19.25 132.265 23.0742 132.62 28.1644Z" fill="url(#paint16_linear_28_71)"/>
<defs>
<linearGradient id="paint0_linear_28_71" x1="79.0651" y1="24.4123" x2="143.195" y2="24.4123" gradientUnits="userSpaceOnUse">
<stop stop-color="#A1CB29"/>
<stop offset="1" stop-color="#0F9D87"/>
</linearGradient>
<linearGradient id="paint1_linear_28_71" x1="79.0665" y1="21.7169" x2="143.196" y2="21.7169" gradientUnits="userSpaceOnUse">
<stop stop-color="#A1CB29"/>
<stop offset="1" stop-color="#0F9D87"/>
</linearGradient>
<linearGradient id="paint2_linear_28_71" x1="156.609" y1="13.6804" x2="130.025" y2="34.0217" gradientUnits="userSpaceOnUse">
<stop stop-color="white"/>
<stop offset="1" stop-color="white" stop-opacity="0"/>
</linearGradient>
<linearGradient id="paint3_linear_28_71" x1="77.0589" y1="7.13131" x2="148.242" y2="7.13131" gradientUnits="userSpaceOnUse">
<stop stop-color="#A1CB29"/>
<stop offset="1" stop-color="#0F9D87"/>
</linearGradient>
<linearGradient id="paint4_linear_28_71" x1="77.0589" y1="41.3905" x2="148.242" y2="41.3905" gradientUnits="userSpaceOnUse">
<stop stop-color="#A1CB29"/>
<stop offset="1" stop-color="#0F9D87"/>
</linearGradient>
<linearGradient id="paint5_linear_28_71" x1="77.0589" y1="28.999" x2="148.242" y2="28.999" gradientUnits="userSpaceOnUse">
<stop stop-color="#A1CB29"/>
<stop offset="1" stop-color="#0F9D87"/>
</linearGradient>
<linearGradient id="paint6_linear_28_71" x1="77.8163" y1="28.9989" x2="154.108" y2="28.9989" gradientUnits="userSpaceOnUse">
<stop stop-color="#A1CB29"/>
<stop offset="1" stop-color="#0F9D87"/>
</linearGradient>
<linearGradient id="paint7_linear_28_71" x1="77.8163" y1="18.2427" x2="154.108" y2="18.2427" gradientUnits="userSpaceOnUse">
<stop stop-color="#A1CB29"/>
<stop offset="1" stop-color="#0F9D87"/>
</linearGradient>
<linearGradient id="paint8_linear_28_71" x1="77.0589" y1="18.4701" x2="148.242" y2="18.4701" gradientUnits="userSpaceOnUse">
<stop stop-color="#A1CB29"/>
<stop offset="1" stop-color="#0F9D87"/>
</linearGradient>
<linearGradient id="paint9_linear_28_71" x1="77.3764" y1="12.8831" x2="150.71" y2="12.8831" gradientUnits="userSpaceOnUse">
<stop stop-color="#A1CB29"/>
<stop offset="1" stop-color="#0F9D87"/>
</linearGradient>
<linearGradient id="paint10_linear_28_71" x1="77.3764" y1="35.2544" x2="150.71" y2="35.2544" gradientUnits="userSpaceOnUse">
<stop stop-color="#A1CB29"/>
<stop offset="1" stop-color="#0F9D87"/>
</linearGradient>
<linearGradient id="paint11_linear_28_71" x1="77.3764" y1="23.5653" x2="150.71" y2="23.5653" gradientUnits="userSpaceOnUse">
<stop stop-color="#A1CB29"/>
<stop offset="1" stop-color="#0F9D87"/>
</linearGradient>
<linearGradient id="paint12_linear_28_71" x1="78.7668" y1="23.5652" x2="151.661" y2="23.5652" gradientUnits="userSpaceOnUse">
<stop stop-color="#A1CB29"/>
<stop offset="1" stop-color="#0F9D87"/>
</linearGradient>
<linearGradient id="paint13_linear_28_71" x1="79.0667" y1="44.5183" x2="143.196" y2="44.5183" gradientUnits="userSpaceOnUse">
<stop stop-color="#A1CB29"/>
<stop offset="1" stop-color="#0F9D87"/>
</linearGradient>
<linearGradient id="paint14_linear_28_71" x1="154.116" y1="42.6108" x2="113.034" y2="29.7589" gradientUnits="userSpaceOnUse">
<stop stop-color="white"/>
<stop offset="1" stop-color="white" stop-opacity="0"/>
</linearGradient>
<linearGradient id="paint15_linear_28_71" x1="98.5101" y1="20.3483" x2="134.838" y2="2.73478" gradientUnits="userSpaceOnUse">
<stop stop-color="white"/>
<stop offset="1" stop-color="white" stop-opacity="0"/>
</linearGradient>
<linearGradient id="paint16_linear_28_71" x1="150.378" y1="23.072" x2="108.964" y2="23.072" gradientUnits="userSpaceOnUse">
<stop stop-color="white"/>
<stop offset="1" stop-color="white" stop-opacity="0"/>
</linearGradient>
</defs>
</svg>
