<svg width="26" height="36" viewBox="0 0 26 36" fill="none" xmlns="http://www.w3.org/2000/svg">
<g clip-path="url(#clip0_1037_1202)">
<path d="M5.28125 18.4091H20.7187V21.2727H5.28125V18.4091Z" fill="white"/>
<path d="M5.28125 23.3181H16.6562V26.1817H5.28125V23.3181Z" fill="white"/>
<path d="M17.0621 8.99996L21.9634 9.93268L25.9995 8.99996L17.0621 0L15.8291 4.2668L17.0621 8.99996Z" fill="#1967D2"/>
<path d="M5.28125 13.4999H20.7187V16.3635H5.28125V13.4999Z" fill="white"/>
<path d="M17.0624 8.99996V0H2.43749C1.09078 0 0 1.0984 0 2.45453V33.5453C0 34.9014 1.09078 35.9998 2.43749 35.9998H23.5624C24.9091 35.9998 25.9999 34.9014 25.9999 33.5453V8.99996H17.0624ZM16.2499 25.7726H5.68747V23.7272H16.2499V25.7726ZM20.3124 20.8635H5.68747V18.8181H20.3124V20.8635ZM20.3124 15.9545H5.68747V13.909H20.3124V15.9545Z" fill="#2684FC"/>
</g>
<defs>
<clipPath id="clip0_1037_1202">
<rect width="26" height="36" fill="white"/>
</clipPath>
</defs>
</svg>
