<svg width="26" height="36" viewBox="0 0 26 36" fill="none" xmlns="http://www.w3.org/2000/svg">
<g clip-path="url(#clip0_1037_1228)">
<path d="M17.0621 9L21.9635 9.93273L25.9996 9L17.0621 0L15.8291 4.26682L17.0621 9Z" fill="#F29900"/>
<path d="M17.0625 9V0H2.4375C1.09078 0 0 1.09841 0 2.45455V33.5455C0 34.9016 1.09078 36 2.4375 36H23.5625C24.9092 36 26 34.9016 26 33.5455V9H17.0625Z" fill="#FBBC04"/>
<path d="M15.8438 26.1818H10.1562V24.1363H15.8438V26.1818ZM15.8133 22.0909H10.1867C8.70391 21.15 7.71875 19.487 7.71875 17.5909C7.71875 14.6536 10.0831 12.2727 13 12.2727C15.9169 12.2727 18.2812 14.6536 18.2812 17.5909C18.2812 19.487 17.2961 21.15 15.8133 22.0909Z" fill="white"/>
</g>
<defs>
<clipPath id="clip0_1037_1228">
<rect width="26" height="36" fill="white"/>
</clipPath>
</defs>
</svg>
