<svg width="35" height="36" viewBox="0 0 35 36" fill="none" xmlns="http://www.w3.org/2000/svg">
<g clip-path="url(#clip0_1037_1232)">
<path d="M3.09057 24.9241L3.05273 24.5935L6.10499 17.9174L6.2185 17.9682H6.24372L6.25634 18.0064V18.1844L3.20409 24.9114L3.09057 24.9241ZM12.4996 17.9937L12.6257 18.0318L15.6275 11.2158L15.6023 11.0505L15.514 11.0887L12.4617 17.9047L12.4996 17.9937ZM28.6816 17.9555L23.6491 29.1078L18.6419 17.9682L15.514 24.9495L18.9446 32.592C19.9032 34.7284 21.6563 36 23.6491 36C25.6293 36 27.3951 34.7284 28.341 32.592L31.8221 24.9114L28.6816 17.9555Z" fill="#174EA6"/>
<path d="M28.3655 3.39527C27.407 1.27164 25.6664 0 23.6862 0C21.7187 0 19.9655 1.27164 19.007 3.39527L9.35831 25.0004L6.23038 17.9682L3.08984 24.9241L5.1457 29.5147C5.99074 31.4094 7.56732 32.5411 9.35831 32.5411C11.1493 32.5411 12.7259 31.4094 13.5709 29.5147L23.6862 6.89226L31.8214 24.9622L34.9998 17.9428C34.9998 17.9301 28.3655 3.39527 28.3655 3.39527Z" fill="#4285F4"/>
<path d="M13.5712 6.49805C12.7261 4.60331 11.1495 3.47156 9.35856 3.47156C7.56757 3.47156 5.99099 4.60331 5.14595 6.49805L0 17.9301L3.09009 24.924L9.35856 11.0124L12.4865 18.0063L15.6018 11.0378L13.5712 6.49805Z" fill="#174EA6"/>
</g>
<defs>
<clipPath id="clip0_1037_1232">
<rect width="35" height="36" fill="white"/>
</clipPath>
</defs>
</svg>
