<svg width="36" height="34" viewBox="0 0 36 34" fill="none" xmlns="http://www.w3.org/2000/svg">
<path d="M26.6087 0V8.86957H8.86956V25.1304H0V2.95652C0.00230089 2.17311 0.314529 1.42244 0.868487 0.868487C1.42244 0.314529 2.17311 0.0023009 2.95652 0H26.6087Z" fill="#4285F4"/>
<path d="M26.6074 34.0001V25.1305H35.477L26.6074 34.0001Z" fill="#EA4435"/>
<path d="M35.477 7.39136H26.6074V25.1305H35.477V7.39136Z" fill="#FFBA00"/>
<path d="M26.6074 34.0001V25.1305H8.86829V34.0001H26.6074Z" fill="#00AC47"/>
<path d="M35.477 2.95652V8.86957H26.6074V0H32.5205C33.3039 0.00230089 34.0545 0.314529 34.6085 0.868487C35.1625 1.42244 35.4747 2.17311 35.477 2.95652Z" fill="#0066DA"/>
<path d="M8.86957 25V33.8696H2.95652C2.17311 33.8673 1.42244 33.555 0.868487 33.0011C0.314529 32.4471 0.00230089 31.6965 0 30.913V25H8.86957Z" fill="#188038"/>
<path d="M17.2798 18.6114C17.2798 19.9271 16.3042 21.2575 14.1015 21.2575C13.3147 21.2679 12.5392 21.0689 11.8546 20.681L11.7363 20.5923L12.165 19.3801L12.3572 19.4984C12.8797 19.8147 13.4761 19.988 14.0868 20.001C14.3233 20.0161 14.5604 19.9833 14.7839 19.9045C15.0075 19.8258 15.2128 19.7027 15.3876 19.5427C15.5129 19.4173 15.6106 19.2669 15.6742 19.1014C15.7379 18.9359 15.7661 18.7589 15.7572 18.5819C15.7424 17.5027 14.752 17.1184 13.8207 17.1184H13.0224V15.921H13.8207C14.4859 15.921 15.4763 15.5958 15.4763 14.7088C15.4763 14.0436 15.0181 13.6592 14.2198 13.6592C13.6689 13.6712 13.134 13.8461 12.6824 14.1619L12.4755 14.3097L12.0615 13.1419L12.165 13.0532C12.8397 12.6195 13.6247 12.3886 14.4268 12.3879C16.1859 12.3879 16.9694 13.4671 16.9694 14.5314C16.9713 14.9321 16.86 15.3251 16.6481 15.6651C16.4362 16.0052 16.1325 16.2784 15.772 16.4532C16.2184 16.6086 16.6044 16.9008 16.8751 17.2883C17.1458 17.6758 17.2874 18.1388 17.2798 18.6114Z" fill="#4285F4"/>
<path d="M21.7463 12.5358V21.1245H20.2977V14.0436L18.9081 14.7975L18.5977 13.5853L20.6229 12.5358H21.7463Z" fill="#4285F4"/>
</svg>
