<svg width="44" height="32" viewBox="0 0 44 32" fill="none" xmlns="http://www.w3.org/2000/svg">
<path d="M2.98507 32H9.95024V15.5151L0 8.24243V29.0909C0 30.7006 1.33831 32 2.98507 32Z" fill="#4285F4"/>
<path d="M33.8311 32H40.7962C42.4482 32 43.7813 30.6957 43.7813 29.0909V8.24243L33.8311 15.5151" fill="#34A853"/>
<path d="M33.8311 2.90904V15.5151L43.7813 8.24238V4.3636C43.7813 0.766013 39.5675 -1.2849 36.6172 0.872678" fill="#FBBC04"/>
<path d="M9.9502 15.5151V2.90906L21.8905 11.6363L33.8307 2.90906V15.5151L21.8905 24.2424" fill="#EA4335"/>
<path d="M0 4.3636V8.24238L9.95024 15.5151V2.90904L7.16418 0.872678C4.20896 -1.2849 0 0.766013 0 4.3636Z" fill="#C5221F"/>
</svg>
