<svg width="36" height="36" viewBox="0 0 36 36" fill="none" xmlns="http://www.w3.org/2000/svg">
<g clip-path="url(#clip0_1014_60)">
<path d="M8.17275 19.4169V7.72144H2.84234C2.46905 7.72136 2.09941 7.79181 1.75453 7.92874C1.40965 8.06568 1.09628 8.26643 0.832329 8.51952C0.568378 8.77261 0.359017 9.07309 0.216203 9.40378C0.0733896 9.73447 -7.72473e-05 10.0889 6.09493e-08 10.4468V34.6351C6.09493e-08 35.85 1.53004 36.4565 2.4257 35.5977L8.29045 29.9771H24.9873C25.7404 29.9768 26.4627 29.6898 26.9953 29.1792C27.5279 28.6686 27.8274 27.9762 27.8278 27.254V22.1423H11.0133C10.2597 22.142 9.53715 21.8547 9.00446 21.3436C8.47176 20.8325 8.17259 20.1395 8.17275 19.4169Z" fill="#00AC47"/>
<path d="M33.1584 5.84416e-08H11.0134C10.2598 0.000299306 9.53725 0.287588 9.00456 0.798682C8.47186 1.30978 8.1727 2.00282 8.17285 2.72539V7.72138H24.9874C25.3606 7.7213 25.7303 7.79175 26.0752 7.92869C26.4201 8.06562 26.7334 8.26637 26.9974 8.51946C27.2613 8.77255 27.4707 9.07303 27.6135 9.40372C27.7563 9.73441 27.8298 10.0888 27.8297 10.4468V22.1423H33.1584C33.5316 22.1423 33.9013 22.0719 34.2462 21.935C34.591 21.798 34.9044 21.5973 35.1684 21.3442C35.4323 21.0911 35.6417 20.7906 35.7845 20.4599C35.9273 20.1292 36.0008 19.7748 36.0007 19.4169V2.72539C36.0008 2.36747 35.9273 2.01304 35.7845 1.68234C35.6417 1.35165 35.4323 1.05117 35.1684 0.798084C34.9044 0.544993 34.591 0.344245 34.2462 0.207308C33.9013 0.0703701 33.5316 -7.4069e-05 33.1584 5.84416e-08Z" fill="#5BB974"/>
<path d="M24.9874 7.72144H8.17285V19.4169C8.17277 19.7748 8.24624 20.1293 8.38905 20.46C8.53187 20.7907 8.74123 21.0911 9.00518 21.3442C9.26913 21.5973 9.5825 21.7981 9.92738 21.935C10.2723 22.0719 10.6419 22.1424 11.0152 22.1423H27.8279V10.4468C27.8281 9.72426 27.5289 9.03121 26.9962 8.52012C26.4635 8.00902 25.7409 7.72173 24.9874 7.72144Z" fill="#00832D"/>
</g>
<defs>
<clipPath id="clip0_1014_60">
<rect width="36" height="36" fill="white"/>
</clipPath>
</defs>
</svg>
