<svg width="26" height="36" viewBox="0 0 26 36" fill="none" xmlns="http://www.w3.org/2000/svg">
<g clip-path="url(#clip0_1037_1224)">
<path d="M17.0621 8.99999L21.9635 9.93272L25.9996 8.99999L17.0621 0L15.8291 4.26682L17.0621 8.99999Z" fill="#56368A"/>
<path d="M17.0625 8.99999V0H2.4375C1.09078 0 0 1.09841 0 2.45454V33.5454C0 34.9016 1.09078 36 2.4375 36H23.5625C24.9092 36 26 34.9016 26 33.5454V8.99999H17.0625Z" fill="#7248B9"/>
<path d="M6.90625 25.9773C6.23391 25.9773 5.6875 25.4271 5.6875 24.75C5.6875 24.073 6.23391 23.5228 6.90625 23.5228C7.57859 23.5228 8.125 24.073 8.125 24.75C8.125 25.4271 7.57859 25.9773 6.90625 25.9773ZM6.90625 21.0682C6.23391 21.0682 5.6875 20.518 5.6875 19.8409C5.6875 19.1639 6.23391 18.6137 6.90625 18.6137C7.57859 18.6137 8.125 19.1639 8.125 19.8409C8.125 20.518 7.57859 21.0682 6.90625 21.0682ZM6.90625 16.1591C6.23391 16.1591 5.6875 15.6089 5.6875 14.9319C5.6875 14.2548 6.23391 13.7046 6.90625 13.7046C7.57859 13.7046 8.125 14.2548 8.125 14.9319C8.125 15.6089 7.57859 16.1591 6.90625 16.1591ZM20.3125 25.7728H10.1562V23.7273H20.3125V25.7728ZM20.3125 20.8637H10.1562V18.8182H20.3125V20.8637ZM20.3125 15.9546H10.1562V13.9091H20.3125V15.9546Z" fill="white"/>
</g>
<defs>
<clipPath id="clip0_1037_1224">
<rect width="26" height="36" fill="white"/>
</clipPath>
</defs>
</svg>
