<svg width="26" height="36" viewBox="0 0 26 36" fill="none" xmlns="http://www.w3.org/2000/svg">
<g clip-path="url(#clip0_1037_1208)">
<path d="M19.0436 13.9092H6.95685H4.94238V15.9546V22.9092V24.9546H6.95685H19.0436H21.0581V22.9092V15.9546V13.9092H19.0436ZM19.0436 22.9092H6.95685V15.9546H19.0436V22.9092Z" fill="white"/>
<path d="M23.4752 36H2.52478C1.18919 36 0.107422 34.9016 0.107422 33.5455V2.45455C0.107422 1.09841 1.18919 0 2.52478 0H17.0289L25.8925 9V33.5455C25.8925 34.9016 24.8108 36 23.4752 36Z" fill="#00AC47"/>
<path d="M17.0283 0L25.892 9H17.0283V0Z" fill="#00832D"/>
<path d="M19.0436 13.9092H14.0075H11.993H6.95685H4.94238V15.9546V18.8183V20.8637V23.7274V25.7728H6.95685H11.993H14.0075H19.0436H21.0581V23.7274V20.8637V18.8183V15.9546V13.9092H19.0436ZM6.95685 15.9546H11.993V18.8183H6.95685V15.9546ZM6.95685 23.7274V20.8637H11.993V23.7274H6.95685ZM19.0436 23.7274H14.0075V20.8637H19.0436V23.7274ZM19.0436 18.8183H14.0075V15.9546H19.0436V18.8183Z" fill="white"/>
</g>
<defs>
<clipPath id="clip0_1037_1208">
<rect width="26" height="36" fill="white"/>
</clipPath>
</defs>
</svg>
