<svg width="36" height="32" viewBox="0 0 36 32" fill="none" xmlns="http://www.w3.org/2000/svg">
<path d="M0 9.25401V22.2096L4.18582 23.135L8.37163 22.2096V9.25401L4.18582 8.32861L0 9.25401Z" fill="#1E88E5"/>
<path d="M28.4633 15.7318V28.6874C28.4633 30.2208 27.3389 31.4636 25.9518 31.4636H8.37134L7.53418 26.8366L8.37134 22.2096H20.0916V15.7318L24.2774 14.8064L28.4633 15.7318Z" fill="#4CAF50"/>
<path d="M28.4633 2.7762V15.7318H20.0916V9.25398H8.37134L7.53418 4.62699L8.37134 0H25.9518C27.3389 0 28.4633 1.24281 28.4633 2.7762Z" fill="#FBC02D"/>
<path d="M8.37163 22.2096V31.4636H2.51149C1.12431 31.4636 0 30.2208 0 28.6874V22.2096H8.37163Z" fill="#1565C0"/>
<path d="M8.37163 0V9.25398H0L8.37163 0Z" fill="#E53935"/>
<path d="M29.3006 15.7317L28.4634 23.5513L20.0918 15.7317L28.4634 7.91211L29.3006 15.7317Z" fill="#2E7D32"/>
<path d="M35.9983 2.87799V28.5856C35.9983 29.3629 35.1779 29.7978 34.6338 29.3074L28.4639 23.5514V7.91216L34.6338 2.15618C35.1779 1.66572 35.9983 2.10066 35.9983 2.87799Z" fill="#4CAF50"/>
</svg>
