<svg width="58" height="58" viewBox="0 0 58 58" fill="none" xmlns="http://www.w3.org/2000/svg">
<g clip-path="url(#clip0_1037_1706)">
<path d="M5.12032 40.1554L5.05762 39.6227L10.1156 28.8668L10.3037 28.9488H10.3455L10.3664 29.0102V29.2971L5.30843 40.1349L5.12032 40.1554ZM20.7124 28.9897L20.9214 29.0512L25.8958 18.0699L25.854 17.8036L25.7077 17.8651L20.6497 28.8463L20.7124 28.9897ZM47.5282 28.9283L39.1888 46.8958L30.8911 28.9488L25.7077 40.1964L31.3927 52.5093C32.9812 55.9512 35.8864 58 39.1888 58C42.4702 58 45.3964 55.9512 46.9639 52.5093L52.7326 40.1349L47.5282 28.9283Z" fill="#174EA6"/>
<path d="M47.0065 5.47015C45.418 2.04875 42.5337 0 39.2523 0C35.9917 0 33.0865 2.04875 31.498 5.47015L15.5088 40.2783L10.3254 28.9488L5.12109 40.1554L8.52794 47.5514C9.9283 50.604 12.5409 52.4274 15.5088 52.4274C18.4768 52.4274 21.0894 50.604 22.4897 47.5514L39.2523 11.1042L52.7333 40.2169L58.0004 28.9078C58.0004 28.8873 47.0065 5.47015 47.0065 5.47015Z" fill="#4285F4"/>
<path d="M22.4894 10.4691C21.089 7.41646 18.4764 5.59308 15.5085 5.59308C12.5405 5.59308 9.92793 7.41646 8.52757 10.4691L0 28.8873L5.12072 40.1554L15.5085 17.7421L20.6919 29.0102L25.8544 17.7831L22.4894 10.4691Z" fill="#174EA6"/>
</g>
<defs>
<clipPath id="clip0_1037_1706">
<rect width="58" height="58" fill="white"/>
</clipPath>
</defs>
</svg>
