<svg width="58" height="58" viewBox="0 0 58 58" fill="none" xmlns="http://www.w3.org/2000/svg">
<path d="M3 21.0382V37.8918L9.01913 39.0956L15.0383 37.8918V21.0382L9.01913 19.8344L3 21.0382Z" fill="#1E88E5"/>
<path d="M43.9306 29.4651V46.3186C43.9306 48.3133 42.3139 49.9301 40.3191 49.9301H15.0388L13.835 43.911L15.0388 37.8918H31.8923V29.4651L37.9115 28.2612L43.9306 29.4651Z" fill="#4CAF50"/>
<path d="M43.9306 12.6115V29.465H31.8923V21.0383H15.0388L13.835 15.0191L15.0388 9H40.3191C42.3139 9 43.9306 10.6167 43.9306 12.6115Z" fill="#FBC02D"/>
<path d="M15.0383 37.8918V49.93H6.61148C4.61674 49.93 3 48.3133 3 46.3186V37.8918H15.0383Z" fill="#1565C0"/>
<path d="M15.0383 9V21.0383H3L15.0383 9Z" fill="#E53935"/>
<path d="M45.1337 29.465L43.9299 39.6373L31.8916 29.465L43.9299 19.2927L45.1337 29.465Z" fill="#2E7D32"/>
<path d="M54.7651 12.7439V46.1862C54.7651 47.1974 53.5853 47.7632 52.8029 47.1252L43.9307 39.6374V19.2927L52.8029 11.8049C53.5853 11.1669 54.7651 11.7327 54.7651 12.7439Z" fill="#4CAF50"/>
</svg>
