<svg width="58" height="58" viewBox="0 0 58 58" fill="none" xmlns="http://www.w3.org/2000/svg">
<path d="M42.1925 4V17.0642H16.0642V41.0151H3V8.35472C3.00339 7.20082 3.46328 6.09515 4.27921 5.27921C5.09515 4.46328 6.20082 4.00339 7.35472 4H42.1925Z" fill="#4285F4"/>
<path d="M42.1904 54.0793V41.0151H55.2546L42.1904 54.0793Z" fill="#EA4435"/>
<path d="M55.2546 14.8868H42.1904V41.0151H55.2546V14.8868Z" fill="#FFBA00"/>
<path d="M42.1904 54.0793V41.0151H16.0621V54.0793H42.1904Z" fill="#00AC47"/>
<path d="M55.2546 8.35472V17.0642H42.1904V4H50.8999C52.0538 4.00339 53.1594 4.46328 53.9754 5.27921C54.7913 6.09515 55.2512 7.20082 55.2546 8.35472Z" fill="#0066DA"/>
<path d="M16.0642 41.0151V54.0793H7.35472C6.20082 54.0759 5.09515 53.616 4.27921 52.8001C3.46328 51.9841 3.00339 50.8785 3 49.7246V41.0151H16.0642Z" fill="#188038"/>
<path d="M28.4522 31.413C28.4522 33.3508 27.0152 35.3104 23.7709 35.3104C22.6119 35.3258 21.4697 35.0327 20.4613 34.4613L20.2871 34.3306L20.9185 32.5452L21.2016 32.7194C21.9711 33.1853 22.8497 33.4406 23.7491 33.4597C24.0975 33.4819 24.4468 33.4336 24.776 33.3176C25.1052 33.2016 25.4077 33.0204 25.6652 32.7847C25.8497 32.5999 25.9935 32.3785 26.0873 32.1347C26.181 31.891 26.2227 31.6303 26.2095 31.3694C26.1878 29.7799 24.7289 29.2138 23.3572 29.2138H22.1814V27.4502H23.3572C24.337 27.4502 25.7958 26.9712 25.7958 25.6647C25.7958 24.6849 25.1208 24.1188 23.9451 24.1188C23.1337 24.1365 22.3457 24.3941 21.6806 24.8591L21.3758 25.0769L20.7661 23.3567L20.9185 23.2261C21.9123 22.5873 23.0686 22.2473 24.2499 22.2463C26.841 22.2463 27.995 23.8358 27.995 25.4035C27.9979 25.9936 27.8338 26.5725 27.5217 27.0733C27.2097 27.5742 26.7623 27.9766 26.2313 28.234C26.8888 28.463 27.4574 28.8934 27.8561 29.4641C28.2549 30.0349 28.4634 30.7168 28.4522 31.413Z" fill="#4285F4"/>
<path d="M35.0294 22.464V35.1145H32.8956V24.6849L30.8488 25.7954L30.3916 24.0099L33.3746 22.464H35.0294Z" fill="#4285F4"/>
</svg>
