<svg width="58" height="50" viewBox="0 0 58 50" fill="none" xmlns="http://www.w3.org/2000/svg">
<g clip-path="url(#clip0_1037_1694)">
<path d="M4.38488 42.8526L6.94273 47.1154C7.47423 48.0128 8.23826 48.718 9.13517 49.2308L18.2703 33.9744H0C0 34.9679 0.26575 35.9615 0.797251 36.859L4.38488 42.8526Z" fill="#0066DA"/>
<path d="M29 16.0256L19.8648 0.769234C18.9679 1.28205 18.2039 1.98718 17.6724 2.88462L0.797251 31.0898C0.275525 31.9678 0.000694647 32.9622 0 33.9744H18.2703L29 16.0256Z" fill="#00AC47"/>
<path d="M48.865 49.2308C49.7619 48.718 50.5259 48.0128 51.0574 47.1154L52.1204 45.3526L57.2029 36.859C57.7344 35.9615 58.0002 34.9679 58.0002 33.9744H39.7285L43.6164 41.3462L48.865 49.2308Z" fill="#EA4335"/>
<path d="M28.9994 16.0256L38.1346 0.769231C37.2377 0.25641 36.2079 0 35.1449 0H22.8539C21.7909 0 20.7612 0.288462 19.8643 0.769231L28.9994 16.0256Z" fill="#00832D"/>
<path d="M39.7302 33.9744H18.2709L9.13574 49.2308C10.0326 49.7436 11.0624 50 12.1254 50H45.8757C46.9387 50 47.9685 49.7116 48.8654 49.2308L39.7302 33.9744Z" fill="#2684FC"/>
<path d="M48.7652 16.9872L40.3276 2.88462C39.7961 1.98718 39.0321 1.28205 38.1352 0.769234L29 16.0256L39.7297 33.9744H57.9668C57.9668 32.9808 57.701 31.9872 57.1695 31.0898L48.7652 16.9872Z" fill="#FFBA00"/>
</g>
<defs>
<clipPath id="clip0_1037_1694">
<rect width="58" height="50" fill="white"/>
</clipPath>
</defs>
</svg>
