<svg width="58" height="39" viewBox="0 0 58 39" fill="none" xmlns="http://www.w3.org/2000/svg">
<g clip-path="url(#clip0_1037_1701)">
<path d="M44.2942 12.3311C42.0488 12.3311 39.9358 12.9067 38.0903 13.9195C35.7454 5.89606 28.4277 0.043045 19.7617 0.043045C9.20447 0.043045 0.645508 8.73009 0.645508 19.4453C0.645508 30.1605 9.20447 38.8476 19.7617 38.8476C25.1296 38.8476 39.7778 38.8476 44.2942 38.8476C51.5086 38.8476 57.3569 32.9118 57.3569 25.5894C57.3569 18.2669 51.5086 12.3311 44.2942 12.3311Z" fill="#4286F5"/>
<path d="M34.882 29.5189C35.4477 30.0932 35.732 30.8461 35.732 31.6002C35.732 32.353 35.4478 33.1071 34.882 33.6814C33.7502 34.8301 31.9139 34.8301 30.7822 33.6814L25.603 28.4246C21.1476 31.0957 15.3095 30.4813 11.4875 26.5841C7.08062 22.0866 7.00033 14.7512 11.3142 10.1619C15.8256 5.36181 23.3167 5.29455 27.9122 9.95886C31.7329 13.8366 32.3306 19.7479 29.7039 24.2622L34.882 29.5189ZM24.6306 23.2766C27.3489 20.5176 27.3489 16.046 24.6306 13.2883C21.9135 10.5292 17.5079 10.5292 14.7895 13.2883C12.0725 16.0459 12.0725 20.5176 14.7895 23.2766C17.5079 26.0343 21.9135 26.0343 24.6306 23.2766Z" fill="white"/>
</g>
<defs>
<clipPath id="clip0_1037_1701">
<rect width="58" height="39" fill="white"/>
</clipPath>
</defs>
</svg>
