<svg width="58" height="52" viewBox="0 0 58 52" fill="none" xmlns="http://www.w3.org/2000/svg">
<g clip-path="url(#clip0_1048_309)">
<path d="M34.8122 14.79L41.6424 25.9973L50.527 11.4089L45.6816 2.98863C44.6183 1.13955 42.6522 0 40.5228 0H32.2034L23.1875 14.79H34.8122Z" fill="#4286F5"/>
<path d="M34.8122 37.2101H23.1875L32.198 52H40.5201C42.6495 52 44.6156 50.8605 45.6789 49.0114L50.5297 40.583L41.6424 25.9974L34.8122 37.2101Z" fill="#4286F5"/>
<path d="M23.1868 14.79L32.1999 0H17.4762C15.3468 0 13.3807 1.13955 12.3174 2.98863L5.52734 14.79H23.1868Z" fill="#1967D3"/>
<path d="M57.2001 23.0087L50.5252 11.4117L41.6406 26.0001L50.5279 40.5857L57.2001 28.9914C58.2661 27.1369 58.2661 24.8578 57.2001 23.0087Z" fill="#1967D3"/>
<path d="M23.1868 37.21H5.52734L12.3174 49.0113C13.3807 50.8604 15.3468 51.9999 17.4762 51.9999H32.1946L23.1868 37.21Z" fill="#1967D3"/>
<path d="M16.357 25.9973L23.1872 14.79H5.52778L0.797526 23.0087C-0.265842 24.8578 -0.265842 27.1369 0.797526 28.9886L5.52778 37.2127H23.1872L16.357 25.9973Z" fill="#4286F5"/>
</g>
<defs>
<clipPath id="clip0_1048_309">
<rect width="58" height="52" fill="white"/>
</clipPath>
</defs>
</svg>
