<svg width="58" height="55" viewBox="0 0 58 55" fill="none" xmlns="http://www.w3.org/2000/svg">
<g clip-path="url(#clip0_1048_326)">
<path d="M55.1904 0.698242C52.8219 0.698242 8.75303 0.698242 6.59277 0.698242C5.38874 0.698242 4.41211 1.69944 4.41211 2.93378V6.28708H2.85449C1.65045 6.28708 0.673828 7.28828 0.673828 8.52262V21.6165C0.673828 22.8508 1.65045 23.852 2.85449 23.852H4.41211V31.8361H2.85449C1.65045 31.8361 0.673828 32.8373 0.673828 34.0716V46.3671C0.673828 47.6014 1.65045 48.6026 2.85449 48.6026H4.41211V52.7543C4.41211 53.9886 5.38874 54.9898 6.59277 54.9898H55.1904C56.3945 54.9898 57.3711 53.9886 57.3711 52.7543V2.93378C57.3711 1.69944 56.3945 0.698242 55.1904 0.698242Z" fill="#4286F5"/>
<path d="M32.2625 20.8106C36.0672 20.8106 39.15 23.971 39.15 27.8714C39.15 31.7718 36.0672 34.9322 32.2625 34.9322C28.4578 34.9322 25.375 31.7718 25.375 27.8714C25.375 23.971 28.4578 20.8106 32.2625 20.8106Z" fill="white"/>
<path d="M31.9008 23.0404C34.3037 23.0404 36.2508 25.0365 36.2508 27.4999C36.2508 29.9633 34.3037 31.9593 31.9008 31.9593C29.4978 31.9593 27.5508 29.9633 27.5508 27.4999C27.5508 25.0365 29.4978 23.0404 31.9008 23.0404Z" fill="#4286F5"/>
<path d="M51.9194 23.4528V33.0337C51.9194 34.1355 51.0472 35.0297 49.9724 35.0297C48.8977 35.0297 48.0254 34.1355 48.0254 33.0337V23.4528C48.0254 22.351 48.8977 21.4568 49.9724 21.4568C50.5098 21.4568 50.9958 21.6803 51.3493 22.0412C51.7014 22.4021 51.9194 22.9019 51.9194 23.4528Z" fill="white"/>
<path d="M44.4305 14.9396C45.4944 16.0302 45.4944 17.8011 44.4305 18.8917L40.8605 22.55C41.689 24.0558 42.164 25.7915 42.164 27.6422C42.164 29.4929 41.689 31.2287 40.8605 32.7345L44.4305 36.3928C45.4944 37.4834 45.4944 39.2543 44.4305 40.3449C43.3649 41.4355 41.6393 41.4355 40.5754 40.3449L37.0054 36.6866C35.5379 37.5347 33.8448 38.0215 32.0395 38.0215C30.2342 38.0215 28.5395 37.5345 27.0723 36.6866L23.5038 40.3449C22.4384 41.4355 20.7125 41.4355 19.6487 40.3449C18.5833 39.2543 18.5833 37.4834 19.6487 36.3928L23.2172 32.7345C22.3885 31.2287 21.915 29.4929 21.915 27.6422C21.915 25.7915 22.3885 24.0558 23.2172 22.55L19.6487 18.8917C19.116 18.3456 18.8496 17.6302 18.8496 16.9149C18.8496 16.1995 19.116 15.4841 19.6487 14.9396C20.7125 13.849 22.4384 13.849 23.5038 14.9396L27.0723 18.5979C28.5395 17.75 30.2342 17.263 32.0395 17.263C33.8448 17.263 35.5379 17.75 37.0054 18.5979L40.5754 14.9396C41.1081 14.3951 41.8042 14.122 42.502 14.122C43.1998 14.122 43.8978 14.3951 44.4305 14.9396ZM38.27 27.6422C38.27 24.1149 35.4803 21.255 32.0395 21.255C28.5972 21.255 25.809 24.1149 25.809 27.6422C25.809 31.1696 28.5972 34.0295 32.0395 34.0295C35.4803 34.0295 38.27 31.1696 38.27 27.6422Z" fill="white"/>
</g>
<defs>
<clipPath id="clip0_1048_326">
<rect width="58" height="55" fill="white"/>
</clipPath>
</defs>
</svg>
