<svg width="58" height="52" viewBox="0 0 58 52" fill="none" xmlns="http://www.w3.org/2000/svg">
<path d="M50.4438 0H7.55694C4.98532 0 2.90039 2.07694 2.90039 4.63871V47.3613C2.90039 49.9231 4.98532 52 7.55694 52H50.4438C53.0155 52 55.1004 49.9231 55.1004 47.3613V4.63871C55.1004 2.07694 53.0155 0 50.4438 0Z" fill="#4286F5"/>
<path d="M28.9996 8.41171C19.249 8.41171 11.3438 16.2867 11.3438 25.9999C11.3438 35.7132 19.249 43.5882 28.9996 43.5882C38.7503 43.5882 46.6555 35.7132 46.6555 25.9999C46.6555 16.2867 38.7503 8.41171 28.9996 8.41171Z" fill="white"/>
<path d="M38.8361 24.3023C38.9312 24.8544 38.9803 25.4218 38.9803 26C38.9803 31.4905 34.5126 35.9411 29.0009 35.9411C23.4892 35.9411 19.0215 31.4905 19.0215 26C19.0215 20.5094 23.4892 16.0588 29.0009 16.0588C31.2823 16.0588 33.3859 16.822 35.0668 18.1051L33.022 20.8214C31.9104 19.9634 30.5164 19.4541 29.001 19.4541C25.3716 19.4541 22.43 22.3844 22.43 26C22.43 29.6155 25.3716 32.5458 29.001 32.5458C32.015 32.5458 34.5542 30.4522 35.3297 27.6976H31.4343V24.3023H38.8361Z" fill="#4286F5"/>
<path d="M48.9572 43.5882C50.23 43.5882 51.2602 44.6159 51.2602 45.8823C51.2602 47.1486 50.23 48.1764 48.9572 48.1764C47.6862 48.1764 46.6543 47.1486 46.6543 45.8823C46.6543 44.6159 47.6862 43.5882 48.9572 43.5882Z" fill="white"/>
<path d="M48.9572 3.82355C50.23 3.82355 51.2602 4.85131 51.2602 6.11767C51.2602 7.38402 50.23 8.41178 48.9572 8.41178C47.6862 8.41178 46.6543 7.38402 46.6543 6.11767C46.6543 4.85131 47.6862 3.82355 48.9572 3.82355Z" fill="white"/>
<path d="M9.04122 3.82355C10.314 3.82355 11.3442 4.85131 11.3442 6.11767C11.3442 7.38402 10.314 8.41178 9.04122 8.41178C7.77 8.41178 6.73828 7.38402 6.73828 6.11767C6.73828 4.85131 7.77 3.82355 9.04122 3.82355Z" fill="white"/>
<path d="M9.04122 43.5882C10.314 43.5882 11.3442 44.6159 11.3442 45.8823C11.3442 47.1486 10.314 48.1764 9.04122 48.1764C7.77 48.1764 6.73828 47.1486 6.73828 45.8823C6.73828 44.6159 7.77 43.5882 9.04122 43.5882Z" fill="white"/>
</svg>
