<svg width="58" height="42" viewBox="0 0 58 42" fill="none" xmlns="http://www.w3.org/2000/svg">
<mask id="mask0_988_3264" style="mask-type:luminance" maskUnits="userSpaceOnUse" x="0" y="0" width="58" height="42">
<path d="M57.7113 0H0V42H57.7113V0Z" fill="white"/>
</mask>
<g mask="url(#mask0_988_3264)">
<path d="M3.93487 42H13.1162V20.3636L0 10.8182V38.1818C0 40.2945 1.76413 42 3.93487 42Z" fill="#4285F4"/>
<path d="M44.5947 42H53.776C55.9536 42 57.7109 40.2882 57.7109 38.1818V10.8182L44.5947 20.3636" fill="#34A853"/>
<path d="M44.5947 3.81818V20.3636L57.7109 10.8182V5.72729C57.7109 1.00545 52.1564 -1.68637 48.2673 1.14545" fill="#FBBC04"/>
<path d="M13.1162 20.3636V3.81818L28.8557 15.2727L44.5951 3.81818V20.3636L28.8557 31.8182" fill="#EA4335"/>
<path d="M0 5.72729V10.8182L13.1162 20.3636V3.81818L9.4437 1.14545C5.54818 -1.68637 0 1.00545 0 5.72729Z" fill="#C5221F"/>
</g>
</svg>
