<svg width="36" height="36" viewBox="0 0 36 36" fill="none" xmlns="http://www.w3.org/2000/svg">
<path d="M18 36C27.9411 36 36 27.9411 36 18C36 8.05887 27.9411 0 18 0C8.05887 0 0 8.05887 0 18C0 27.9411 8.05887 36 18 36Z" fill="#2684FC"/>
<path d="M28.6532 9.75658L24.7569 29.4086C24.7569 29.4086 24.2112 30.7728 22.7107 30.1163L13.7159 23.2189L10.442 21.6416L4.93429 19.7915C4.93429 19.7915 4.09023 19.4931 4.00497 18.8366C3.91971 18.1801 4.95986 17.8306 4.95986 17.8306L26.8542 9.24503C26.8542 9.23651 28.6532 8.4436 28.6532 9.75658Z" fill="white"/>
<path d="M13.0162 29.1869C13.0162 29.1869 12.7519 29.1613 12.4279 28.1297C12.1039 27.0981 10.4414 21.6415 10.4414 21.6415L23.665 13.2436C23.665 13.2436 24.4323 12.7832 24.3982 13.2436C24.3982 13.2436 24.5346 13.3288 24.1254 13.704C23.7161 14.0876 13.7409 23.0568 13.7409 23.0568" fill="#174EA6"/>
<path d="M17.1604 25.862L13.6051 29.1103C13.6051 29.1103 13.3238 29.3235 13.0254 29.1871L13.7075 23.1593" fill="#174EA6"/>
</svg>
