<svg width="36" height="24" viewBox="0 0 36 24" fill="none" xmlns="http://www.w3.org/2000/svg">
<path d="M27.4927 7.5884C26.099 7.5884 24.7875 7.94262 23.642 8.56588C22.1865 3.62835 17.6445 0.0264893 12.2656 0.0264893C5.71285 0.0264893 0.400391 5.37236 0.400391 11.9663C0.400391 18.5603 5.71285 23.9062 12.2656 23.9062C15.5974 23.9062 24.6894 23.9062 27.4927 23.9062C31.9706 23.9062 35.6006 20.2534 35.6006 15.7473C35.6006 11.2412 31.9706 7.5884 27.4927 7.5884Z" fill="#4286F5"/>
<path d="M21.6506 18.1655C22.0018 18.5189 22.1782 18.9822 22.1782 19.4462C22.1782 19.9095 22.0018 20.3736 21.6506 20.727C20.9481 21.4339 19.8084 21.4339 19.1059 20.727L15.8913 17.4921C13.1259 19.1358 9.50222 18.7577 7.12996 16.3595C4.39463 13.5917 4.3448 9.07767 7.02238 6.2535C9.82258 3.29958 14.4722 3.25819 17.3246 6.12853C19.696 8.51483 20.067 12.1526 18.4367 14.9306L21.6506 18.1655ZM15.2877 14.324C16.9749 12.6262 16.9749 9.87446 15.2877 8.17741C13.6013 6.47948 10.8667 6.47948 9.17948 8.17741C7.49304 9.87438 7.49304 12.6262 9.17948 14.324C10.8667 16.0211 13.6013 16.0211 15.2877 14.324Z" fill="white"/>
</svg>
