<svg width="36" height="34" viewBox="0 0 36 34" fill="none" xmlns="http://www.w3.org/2000/svg">
<path d="M34.2568 0.431641C32.7867 0.431641 5.43362 0.431641 4.09277 0.431641C3.34544 0.431641 2.73926 1.05056 2.73926 1.81361V3.88656H1.77246C1.02513 3.88656 0.418945 4.50548 0.418945 5.26853V13.3629C0.418945 14.126 1.02513 14.7449 1.77246 14.7449H2.73926V19.6805H1.77246C1.02513 19.6805 0.418945 20.2994 0.418945 21.0624V28.6633C0.418945 29.4263 1.02513 30.0452 1.77246 30.0452H2.73926V32.6117C2.73926 33.3748 3.34544 33.9937 4.09277 33.9937H34.2568C35.0042 33.9937 35.6104 33.3748 35.6104 32.6117V1.81361C35.6104 1.05056 35.0042 0.431641 34.2568 0.431641Z" fill="#4286F5"/>
<path d="M20.025 12.8649C22.3865 12.8649 24.3 14.8186 24.3 17.2297C24.3 19.6409 22.3865 21.5946 20.025 21.5946C17.6635 21.5946 15.75 19.6409 15.75 17.2297C15.75 14.8186 17.6635 12.8649 20.025 12.8649Z" fill="white"/>
<path d="M19.7996 14.2433C21.2911 14.2433 22.4996 15.4772 22.4996 17C22.4996 18.5229 21.2911 19.7568 19.7996 19.7568C18.3081 19.7568 17.0996 18.5229 17.0996 17C17.0996 15.4772 18.3081 14.2433 19.7996 14.2433Z" fill="#4286F5"/>
<path d="M32.2266 14.4981V20.4208C32.2266 21.1019 31.6852 21.6547 31.0181 21.6547C30.351 21.6547 29.8096 21.1019 29.8096 20.4208V14.4981C29.8096 13.8169 30.351 13.2642 31.0181 13.2642C31.3516 13.2642 31.6533 13.4024 31.8727 13.6254C32.0912 13.8485 32.2266 14.1575 32.2266 14.4981Z" fill="white"/>
<path d="M27.577 9.23539C28.2373 9.90959 28.2373 11.0043 27.577 11.6785L25.3611 13.94C25.8754 14.8709 26.1702 15.9439 26.1702 17.0879C26.1702 18.232 25.8754 19.305 25.3611 20.2359L27.577 22.4973C28.2373 23.1715 28.2373 24.2663 27.577 24.9405C26.9156 25.6147 25.8445 25.6147 25.1842 24.9405L22.9683 22.679C22.0575 23.2032 21.0066 23.5042 19.8861 23.5042C18.7655 23.5042 17.7137 23.2031 16.8029 22.679L14.588 24.9405C13.9267 25.6147 12.8555 25.6147 12.1952 24.9405C11.5339 24.2663 11.5339 23.1715 12.1952 22.4973L14.4101 20.2359C13.8958 19.305 13.6019 18.232 13.6019 17.0879C13.6019 15.9439 13.8958 14.8709 14.4101 13.94L12.1952 11.6785C11.8645 11.3409 11.6992 10.8987 11.6992 10.4565C11.6992 10.0142 11.8645 9.572 12.1952 9.23539C12.8555 8.56119 13.9267 8.56119 14.588 9.23539L16.8029 11.4969C17.7137 10.9727 18.7655 10.6716 19.8861 10.6716C21.0066 10.6716 22.0575 10.9727 22.9683 11.4969L25.1842 9.23539C25.5148 8.89878 25.9469 8.72998 26.38 8.72998C26.8132 8.72998 27.2464 8.89878 27.577 9.23539ZM23.7532 17.0879C23.7532 14.9074 22.0217 13.1394 19.8861 13.1394C17.7494 13.1394 16.0189 14.9074 16.0189 17.0879C16.0189 19.2685 17.7494 21.0364 19.8861 21.0364C22.0217 21.0364 23.7532 19.2685 23.7532 17.0879Z" fill="white"/>
</svg>
