<svg width="36" height="36" viewBox="0 0 36 36" fill="none" xmlns="http://www.w3.org/2000/svg">
<path d="M32.7886 0H3.21141C1.43788 0 0 1.43788 0 3.21141V32.7886C0 34.5621 1.43788 36 3.21141 36H32.7886C34.5621 36 36 34.5621 36 32.7886V3.21141C36 1.43788 34.5621 0 32.7886 0Z" fill="#4286F5"/>
<path d="M17.9997 5.82349C11.2751 5.82349 5.82324 11.2754 5.82324 18C5.82324 24.7245 11.2751 30.1764 17.9997 30.1764C24.7243 30.1764 30.1762 24.7245 30.1762 18C30.1762 11.2754 24.7243 5.82349 17.9997 5.82349Z" fill="white"/>
<path d="M24.7825 16.8247C24.848 17.207 24.8819 17.5998 24.8819 18C24.8819 21.8012 21.8007 24.8824 17.9995 24.8824C14.1984 24.8824 11.1172 21.8012 11.1172 18C11.1172 14.1989 14.1984 11.1177 17.9995 11.1177C19.573 11.1177 21.0236 11.646 22.183 12.5344L20.7727 14.4149C20.0061 13.8209 19.0447 13.4683 17.9996 13.4683C15.4966 13.4683 13.4679 15.497 13.4679 18C13.4679 20.5031 15.4966 22.5318 17.9996 22.5318C20.0782 22.5318 21.8294 21.0824 22.3642 19.1753H19.6778V16.8247H24.7825Z" fill="#4286F5"/>
<path d="M31.764 30.1764C32.6418 30.1764 33.3523 30.8879 33.3523 31.7646C33.3523 32.6413 32.6418 33.3529 31.764 33.3529C30.8874 33.3529 30.1758 32.6413 30.1758 31.7646C30.1758 30.8879 30.8874 30.1764 31.764 30.1764Z" fill="white"/>
<path d="M31.764 2.64709C32.6418 2.64709 33.3523 3.35862 33.3523 4.23533C33.3523 5.11204 32.6418 5.82357 31.764 5.82357C30.8874 5.82357 30.1758 5.11204 30.1758 4.23533C30.1758 3.35862 30.8874 2.64709 31.764 2.64709Z" fill="white"/>
<path d="M4.23472 2.64709C5.11248 2.64709 5.82296 3.35862 5.82296 4.23533C5.82296 5.11204 5.11248 5.82357 4.23472 5.82357C3.35801 5.82357 2.64648 5.11204 2.64648 4.23533C2.64648 3.35862 3.35801 2.64709 4.23472 2.64709Z" fill="white"/>
<path d="M4.23472 30.1764C5.11248 30.1764 5.82296 30.8879 5.82296 31.7646C5.82296 32.6413 5.11248 33.3529 4.23472 33.3529C3.35801 33.3529 2.64648 32.6413 2.64648 31.7646C2.64648 30.8879 3.35801 30.1764 4.23472 30.1764Z" fill="white"/>
</svg>
