<svg width="40" height="36" viewBox="0 0 40 36" fill="none" xmlns="http://www.w3.org/2000/svg">
<path d="M24.0083 10.2392L28.7187 17.9981L34.8461 7.89849L31.5044 2.06905C30.771 0.788919 29.4152 0 27.9466 0H22.209L15.9912 10.2392H24.0083Z" fill="#4286F5"/>
<path d="M24.0083 25.7608H15.9912L22.2054 36H27.9448C29.4133 36 30.7692 35.2111 31.5026 33.931L34.8479 28.096L28.7187 17.9982L24.0083 25.7608Z" fill="#4286F5"/>
<path d="M15.9914 10.2392L22.2074 0H12.0531C10.5845 0 9.22863 0.788919 8.49527 2.06905L3.8125 10.2392H15.9914Z" fill="#1967D3"/>
<path d="M39.4484 15.9291L34.8451 7.90039L28.7178 18L34.8469 28.0978L39.4484 20.071C40.1836 18.7871 40.1836 17.2093 39.4484 15.9291Z" fill="#1967D3"/>
<path d="M15.9914 25.7607H3.8125L8.49527 33.9309C9.22863 35.211 10.5845 35.9999 12.0531 35.9999H22.2037L15.9914 25.7607Z" fill="#1967D3"/>
<path d="M11.2807 17.9982L15.9912 10.2393H3.81226L0.550018 15.9291C-0.183339 17.2093 -0.183339 18.7871 0.550018 20.0691L3.81226 25.7627H15.9912L11.2807 17.9982Z" fill="#4286F5"/>
</svg>
